<!-- Generator: Adobe Illustrator 23.0.3, SVG Export Plug-In  -->
<svg version="1.1" xmlns="http://www.w3.org/2000/svg" xmlns:xlink="http://www.w3.org/1999/xlink" x="0px" y="0px"
	 width="1284.73px" height="160.06px" viewBox="0 0 1284.73 160.06" style="enable-background:new 0 0 1284.73 160.06;"
	 xml:space="preserve">
<style type="text/css">
	.st0{fill:url(#SVGID_1_);}
	.st1{fill:#FFFFFF;}
	.st2{fill:#353949;}
	.st3{fill:url(#SVGID_2_);}
</style>
<defs>
</defs>
<g>
	<text transform="matrix(1 0 0 1 975.806 69.4859)"><tspan x="0" y="0" style="fill:#979AA4; font-family:'Manrope-Medium'; font-size:68.0757px; letter-spacing:-0.04em;">Bonrepòs i</tspan><tspan x="0" y="70" style="fill:#979AA4; font-family:'Manrope-Medium'; font-size:68.0757px; letter-spacing:-0.04em;">Mirambell</tspan></text>
	<g>
		<linearGradient id="SVGID_1_" gradientUnits="userSpaceOnUse" x1="122.7419" y1="-17.15" x2="40.2278" y2="170.5804">
			<stop  offset="0" style="stop-color:#F29027"/>
			<stop  offset="0.2356" style="stop-color:#EC8027"/>
			<stop  offset="0.6924" style="stop-color:#DD5727"/>
			<stop  offset="1" style="stop-color:#D13827"/>
		</linearGradient>
		<path class="st0" d="M143.06,160.06H17c-9.39,0-17-7.61-17-17V17C0,7.61,7.61,0,17,0h126.06c9.39,0,17,7.61,17,17v126.06
			C160.06,152.45,152.45,160.06,143.06,160.06z"/>
		<g>
			<path class="st1" d="M130.57,94.15l6.21,7.95c-16.16,13.39-34.41,20.3-56.75,20.3c-22.33,0-40.59-6.9-56.75-20.3l6.21-7.95
				c16.01,11.41,29.14,16.65,50.54,16.65S114.56,105.56,130.57,94.15"/>
			<path class="st1" d="M53.14,45.72h17.77V62.7H54.55c-10.24,0-16.94-2.5-21.3-12.38l6.82-3.92c3.07,6.29,6.83,7.75,13.07,7.75
				V45.72z"/>
			<rect x="95.05" y="45.73" class="st1" width="17.77" height="16.97"/>
		</g>
	</g>
	<g>
		<path class="st2" d="M240.48,56.25c3.84,0,7.26,1.18,10.26,3.54c3,2.36,5.14,5.61,6.42,9.75l19.2-5.17
			c-1.77-7.97-5.86-14.32-12.26-19.05c-6.4-4.72-14.18-7.09-23.33-7.09c-7.97,0-14.94,1.82-20.9,5.46
			c-5.96,3.64-10.58,8.64-13.88,14.99c-3.3,6.35-4.95,13.56-4.95,21.63c0,7.97,1.6,15.16,4.8,21.56c3.2,6.4,7.75,11.42,13.66,15.06
			c5.91,3.64,12.9,5.46,20.97,5.46c9.16,0,16.84-2.24,23.04-6.72c6.2-4.48,10.49-10.9,12.85-19.27l-19.64-4.28
			c-1.38,4.14-3.32,7.21-5.83,9.23c-2.51,2.02-5.98,3.03-10.41,3.03c-6.11,0-10.81-2.19-14.1-6.57c-3.3-4.38-4.95-10.21-4.95-17.5
			c0-7.19,1.6-13,4.8-17.43C229.43,58.47,234.18,56.25,240.48,56.25z"/>
		<path class="st2" d="M338.17,43.63c-6.15-3.59-13.17-5.39-21.04-5.39c-7.68,0-14.57,1.77-20.68,5.32
			c-6.11,3.54-10.85,8.52-14.25,14.92c-3.4,6.4-5.09,13.69-5.09,21.86c0,8.17,1.67,15.43,5.02,21.78
			c3.35,6.35,8.07,11.32,14.18,14.92c6.1,3.59,13.04,5.39,20.82,5.39c7.88,0,14.86-1.77,20.97-5.32c6.1-3.54,10.85-8.51,14.25-14.92
			c3.4-6.4,5.1-13.68,5.1-21.86c0-8.17-1.68-15.43-5.02-21.78C349.07,52.19,344.32,47.22,338.17,43.63z M331.97,97.82
			c-3.4,4.38-8.34,6.57-14.84,6.57c-6.4,0-11.28-2.14-14.62-6.42c-3.35-4.28-5.02-10.16-5.02-17.65c0-7.38,1.62-13.24,4.87-17.57
			c3.25-4.33,8.17-6.5,14.77-6.5c6.5,0,11.44,2.14,14.84,6.42c3.4,4.28,5.09,10.17,5.09,17.65
			C337.06,87.61,335.36,93.45,331.97,97.82z"/>
		<path class="st2" d="M454.02,38.53c-5.32,0-10.17,1.18-14.55,3.54c-4.07,2.2-7.35,5.21-9.85,9.03c-0.86-1.55-1.86-3.01-3-4.37
			c-4.58-5.46-11.3-8.2-20.16-8.2c-5.42,0-10.34,1.21-14.77,3.62c-3.41,1.86-6.26,4.25-8.57,7.15v-8.85h-16.98v79.75h19.35V71.61
			c0-4.73,1.33-8.56,3.99-11.52s6.1-4.43,10.34-4.43c4.43,0,7.95,1.5,10.56,4.5c2.61,3,3.91,7.16,3.91,12.48v47.55h19.2V71.61
			c0-4.82,1.33-8.69,3.99-11.59c2.66-2.9,6.1-4.36,10.34-4.36c4.43,0,7.95,1.5,10.56,4.5c2.61,3,3.91,7.16,3.91,12.48l-0.15,47.55
			h19.35V67.63c0-8.96-2.39-16.05-7.16-21.27C469.55,41.14,462.78,38.53,454.02,38.53z"/>
		<path class="st2" d="M550.97,43.63c-5.66-3.59-12.23-5.39-19.72-5.39c-7.38,0-13.69,1.82-18.9,5.46c-0.77,0.54-1.5,1.11-2.22,1.71
			v-4.96h-16.98v115.19h19.35V116.9c0.03,0.02,0.05,0.04,0.07,0.05c5.37,3.64,11.89,5.46,19.57,5.46c7.19,0,13.56-1.82,19.12-5.46
			c5.56-3.64,9.87-8.66,12.92-15.06c3.05-6.4,4.58-13.59,4.58-21.56c0-8.07-1.55-15.31-4.65-21.71
			C561.02,52.22,556.63,47.22,550.97,43.63z M543.52,98.34c-3.25,4.63-8.07,6.94-14.47,6.94c-6.5,0-11.27-2.19-14.33-6.57
			c-3.05-4.38-4.58-10.51-4.58-18.39c0-7.78,1.5-13.88,4.5-18.31c3-4.43,7.61-6.65,13.81-6.65c6.5,0,11.45,2.34,14.84,7.01
			c3.4,4.68,5.09,10.66,5.09,17.94C548.39,87.71,546.76,93.72,543.52,98.34z"/>
		<path class="st2" d="M612.7,40.67c-3.59,0.64-6.82,1.9-9.67,3.77c-2.46,1.38-4.53,3.17-6.2,5.39c-0.81,1.07-1.55,2.22-2.22,3.44
			V40.45h-16.98v79.75h19.35V79.59c0-4.72,0.91-8.74,2.73-12.04c1.82-3.3,4.5-5.83,8.05-7.61c2.46-1.18,5.14-1.89,8.05-2.14
			c2.9-0.25,5.54-0.02,7.9,0.67V40.45C619.96,39.96,616.29,40.03,612.7,40.67z"/>
		<path class="st2" d="M685.51,43.63c-6.15-3.59-13.17-5.39-21.04-5.39c-7.68,0-14.57,1.77-20.68,5.32
			c-6.11,3.54-10.85,8.52-14.25,14.92c-3.4,6.4-5.09,13.69-5.09,21.86c0,8.17,1.67,15.43,5.02,21.78
			c3.35,6.35,8.07,11.32,14.18,14.92c6.1,3.59,13.04,5.39,20.82,5.39c7.88,0,14.86-1.77,20.97-5.32c6.1-3.54,10.85-8.51,14.25-14.92
			c3.4-6.4,5.1-13.68,5.1-21.86c0-8.17-1.68-15.43-5.02-21.78C696.41,52.19,691.66,47.22,685.51,43.63z M679.31,97.82
			c-3.4,4.38-8.34,6.57-14.84,6.57c-6.4,0-11.27-2.14-14.62-6.42c-3.35-4.28-5.02-10.16-5.02-17.65c0-7.38,1.62-13.24,4.87-17.57
			c3.25-4.33,8.17-6.5,14.77-6.5c6.5,0,11.44,2.14,14.84,6.42c3.4,4.28,5.09,10.17,5.09,17.65C684.4,87.61,682.7,93.45,679.31,97.82
			z"/>
		<path class="st2" d="M801.36,38.53c-5.32,0-10.17,1.18-14.55,3.54c-4.07,2.2-7.35,5.21-9.85,9.03c-0.86-1.55-1.86-3.01-3-4.37
			c-4.58-5.46-11.3-8.2-20.16-8.2c-5.42,0-10.34,1.21-14.77,3.62c-3.41,1.86-6.26,4.25-8.57,7.15v-8.85h-16.98v79.75h19.35V71.61
			c0-4.73,1.33-8.56,3.99-11.52s6.1-4.43,10.34-4.43c4.43,0,7.95,1.5,10.56,4.5c2.61,3,3.91,7.16,3.91,12.48v47.55h19.2V71.61
			c0-4.82,1.33-8.69,3.99-11.59c2.66-2.9,6.1-4.36,10.34-4.36c4.43,0,7.95,1.5,10.56,4.5c2.61,3,3.91,7.16,3.91,12.48l-0.15,47.55
			h19.35V67.63c0-8.96-2.39-16.05-7.16-21.27C816.89,41.14,810.12,38.53,801.36,38.53z"/>
		<polygon class="st2" points="869.73,2.65 828.83,16.97 833.7,30.85 874.46,16.68 		"/>
		<rect x="842.12" y="40.45" class="st2" width="19.2" height="79.75"/>
		<path class="st2" d="M937.81,85.64c-1.67-2.95-4.36-5.46-8.05-7.53c-3.69-2.07-8.64-3.89-14.84-5.46
			c-6.5-1.67-11.2-2.98-14.1-3.91c-2.91-0.94-4.87-1.87-5.91-2.81c-1.03-0.93-1.55-2.19-1.55-3.77c0-2.46,1.18-4.33,3.54-5.61
			c2.36-1.28,5.51-1.82,9.45-1.62c3.94,0.2,7.09,1.21,9.45,3.03c2.36,1.82,3.74,4.31,4.13,7.46l19.64-3.54
			c-0.59-4.82-2.36-9.01-5.32-12.55c-2.95-3.54-6.87-6.28-11.74-8.2c-4.87-1.92-10.41-2.88-16.61-2.88c-6.4,0-11.96,1.03-16.69,3.1
			c-4.73,2.07-8.4,4.95-11,8.64c-2.61,3.69-3.91,8.1-3.91,13.22c0,4.04,0.86,7.48,2.58,10.34c1.72,2.86,4.5,5.32,8.34,7.38
			c3.84,2.07,9.1,3.94,15.8,5.61c6.2,1.58,10.58,2.86,13.14,3.84c2.56,0.99,4.28,1.95,5.17,2.88c0.89,0.94,1.33,2.29,1.33,4.06
			c0,2.66-1.06,4.72-3.17,6.2c-2.12,1.48-5.09,2.22-8.93,2.22c-4.63,0-8.44-1.08-11.45-3.25c-3-2.16-4.95-5.12-5.83-8.86
			l-19.64,2.95c1.38,8.27,5.14,14.65,11.3,19.12c6.15,4.48,14.2,6.72,24.15,6.72c10.43,0,18.58-2.31,24.44-6.94
			c5.86-4.63,8.79-11.03,8.79-19.2C940.32,92.14,939.49,88.6,937.81,85.64z"/>
	</g>
</g>
</svg>
