<svg version="1.1" xmlns="http://www.w3.org/2000/svg" xmlns:xlink="http://www.w3.org/1999/xlink" x="0px" y="0px"
	 width="554.41px" height="167.32px" viewBox="0 0 554.41 167.32" style="enable-background:new 0 0 554.41 167.32;"
	 xml:space="preserve">
<style type="text/css">
	.st0{fill:#FFFFFF;}
	.st1{clip-path:url(#SVGID_2_);fill:url(#SVGID_3_);}
	.st2{fill:#27292E;}
	.st3{fill:none;stroke:#12ACE3;stroke-linecap:square;stroke-miterlimit:10;}
	.st4{fill:none;stroke:#12ACE3;stroke-width:2;stroke-linecap:square;stroke-miterlimit:10;}
	.st5{fill:none;stroke:#12ACE3;stroke-linecap:square;stroke-miterlimit:10;stroke-dasharray:4.97,4.97;}
	.st6{fill:none;}
	.st7{fill:#18171C;}
	.st8{fill:none;stroke:#27292E;stroke-width:0.5;stroke-miterlimit:10;}
	.st9{clip-path:url(#SVGID_5_);fill:url(#SVGID_6_);}
</style>
<defs>
</defs>
<rect x="50.21" y="54" class="st0" width="69.5" height="57.5"/>
<g>
	<defs>
		<path id="SVGID_1_" d="M109.99,89.91l2.95,3.77c-7.69,6.38-16.37,9.67-27,9.67c-10.62,0-19.31-3.29-26.99-9.67l2.95-3.77
			c7.62,5.42,13.86,7.92,24.04,7.92C96.13,97.82,102.37,95.33,109.99,89.91 M71.33,66.22h8.41v8.02H72c-4.84,0-8.01-1.17-10.07-5.85
			l3.23-1.85c1.45,2.97,3.23,3.67,6.18,3.67V66.22z M91.87,66.22h8.4v8.02h-8.4V66.22z M49.03,45.28c-2.07,0-3.76,1.61-3.76,3.59
			v69.6c0,1.97,1.69,3.59,3.76,3.59h72.91c2.06,0,3.76-1.62,3.76-3.59v-69.6c0-1.98-1.7-3.59-3.76-3.59H49.03z"/>
	</defs>
	<clipPath id="SVGID_2_">
		<use xlink:href="#SVGID_1_"  style="overflow:visible;"/>
	</clipPath>

		<linearGradient id="SVGID_3_" gradientUnits="userSpaceOnUse" x1="-153.796" y1="396.851" x2="-152.796" y2="396.851" gradientTransform="matrix(0 77.6183 77.6183 0 -30717.4141 11982.2627)">
		<stop  offset="0" style="stop-color:#E18433"/>
		<stop  offset="0.2756" style="stop-color:#DE7833"/>
		<stop  offset="0.8103" style="stop-color:#D85933"/>
		<stop  offset="1" style="stop-color:#D54B32"/>
	</linearGradient>
	<rect x="45.27" y="45.28" class="st1" width="80.43" height="76.77"/>
</g>
<path class="st2" d="M176.74,89.1c-0.09,1.51-0.39,2.98-0.87,4.41c-0.49,1.43-1.17,2.7-2.04,3.83c-1.31,1.65-3.07,3.06-5.28,4.22
	c-2.21,1.16-4.77,1.75-7.68,1.75c-2.92,0-5.52-0.6-7.79-1.78c-2.29-1.2-4.09-2.59-5.4-4.19c-1.41-1.8-2.45-3.86-3.13-6.19
	c-0.68-2.33-1.02-4.88-1.02-7.66c0-2.77,0.34-5.32,1.02-7.64c0.68-2.34,1.72-4.4,3.13-6.2c1.31-1.6,3.11-2.99,5.4-4.18
	c2.27-1.19,4.87-1.79,7.79-1.79c2.91,0,5.47,0.59,7.68,1.75c2.21,1.17,3.97,2.57,5.28,4.22c0.87,1.12,1.55,2.4,2.04,3.83
	c0.48,1.43,0.77,2.9,0.87,4.4h-8.96c-0.04-0.67-0.17-1.29-0.36-1.87c-0.2-0.58-0.44-1.1-0.73-1.59c-0.54-0.81-1.29-1.48-2.26-2.01
	c-0.98-0.53-2.16-0.8-3.57-0.8c-1.27,0-2.34,0.22-3.25,0.66c-0.9,0.43-1.66,0.99-2.29,1.66c-1.12,1.21-1.82,2.66-2.12,4.35
	c-0.29,1.69-0.43,3.42-0.43,5.21c0,1.8,0.15,3.52,0.43,5.18c0.3,1.66,1,3.1,2.12,4.31c0.62,0.67,1.39,1.23,2.29,1.7
	c0.91,0.46,1.98,0.69,3.25,0.69c1.41,0,2.59-0.26,3.57-0.8c0.97-0.53,1.72-1.19,2.26-2.01c0.29-0.49,0.53-1.01,0.73-1.59
	c0.19-0.58,0.32-1.2,0.36-1.88H176.74z"/>
<path class="st2" d="M213.76,83.57c0,3.21-0.39,5.89-1.17,8.05c-0.78,2.16-1.87,4.14-3.28,5.93c-1.31,1.61-3.12,2.99-5.42,4.16
	c-2.32,1.16-4.92,1.75-7.84,1.75c-2.92,0-5.52-0.58-7.83-1.75c-2.31-1.17-4.11-2.55-5.42-4.16c-1.41-1.79-2.5-3.77-3.28-5.93
	c-0.78-2.16-1.17-4.84-1.17-8.05c0-3.21,0.39-5.89,1.17-8.05c0.78-2.16,1.87-4.14,3.28-5.94c1.31-1.6,3.12-2.99,5.42-4.15
	c2.31-1.16,4.92-1.75,7.83-1.75c2.92,0,5.52,0.59,7.84,1.75c2.3,1.17,4.11,2.55,5.42,4.15c1.41,1.8,2.5,3.78,3.28,5.94
	C213.37,77.68,213.76,80.36,213.76,83.57 M204.51,83.57c0-1.8-0.17-3.53-0.51-5.21c-0.35-1.68-1.07-3.12-2.18-4.33
	c-0.63-0.68-1.44-1.25-2.41-1.72c-0.97-0.46-2.09-0.69-3.35-0.69c-1.27,0-2.37,0.23-3.35,0.69c-0.97,0.47-1.77,1.04-2.41,1.72
	c-1.12,1.21-1.84,2.66-2.19,4.33c-0.34,1.68-0.51,3.41-0.51,5.21c0,1.79,0.17,3.53,0.51,5.21c0.35,1.67,1.07,3.12,2.19,4.33
	c0.63,0.69,1.43,1.25,2.41,1.71c0.98,0.46,2.08,0.7,3.35,0.7c1.26,0,2.38-0.23,3.35-0.7c0.97-0.46,1.77-1.02,2.41-1.71
	c1.11-1.21,1.84-2.65,2.18-4.33C204.34,87.1,204.51,85.36,204.51,83.57"/>
<path class="st2" d="M263.31,102.51V78.98c0-2.33-0.41-4.14-1.21-5.43c-0.79-1.29-2.34-1.94-4.62-1.94c-1.31,0-2.43,0.31-3.36,0.92
	c-0.91,0.61-1.68,1.41-2.29,2.4c-0.61,1-1.06,2.11-1.35,3.31c-0.29,1.22-0.43,2.4-0.43,3.57v20.69h-9.03V78.98
	c0-2.33-0.4-4.14-1.21-5.43c-0.8-1.29-2.34-1.94-4.62-1.94c-1.31,0-2.43,0.31-3.35,0.92c-0.93,0.61-1.7,1.41-2.33,2.4
	c-0.63,1-1.1,2.11-1.38,3.31c-0.29,1.22-0.44,2.4-0.44,3.57v20.69h-9.03V64.62h7.57l0.73,5.03c1.07-1.75,2.5-3.18,4.3-4.3
	c1.79-1.12,3.96-1.68,6.48-1.68c2.67,0,4.9,0.54,6.7,1.64c1.8,1.09,3.18,2.61,4.15,4.54c1.12-1.98,2.66-3.51,4.63-4.58
	c1.97-1.06,4.24-1.6,6.81-1.6c4.08,0,7.16,1.23,9.22,3.68c2.07,2.46,3.1,5.65,3.1,9.59v25.57H263.31z"/>
<path class="st2" d="M314.3,83.49c0,7.54-2.26,13.17-6.78,16.9c-1.17,0.98-2.51,1.72-4.05,2.26c-1.52,0.53-3.26,0.79-5.2,0.79
	c-2.29,0-4.3-0.35-6.02-1.05c-1.72-0.7-3.02-1.59-3.9-2.66v17.27h-9.11V64.62h7.87l0.58,4.16c1.12-1.75,2.65-3.02,4.59-3.83
	c1.94-0.8,3.96-1.21,6.05-1.21c1.89,0,3.61,0.29,5.13,0.88c1.53,0.58,2.88,1.36,4.05,2.34c2.29,1.84,3.98,4.16,5.11,6.96
	C313.74,76.7,314.3,79.9,314.3,83.49 M305.05,83.64c0-1.65-0.16-3.29-0.48-4.91c-0.31-1.63-0.95-3.08-1.93-4.34
	c-0.68-0.82-1.52-1.53-2.51-2.11c-0.99-0.58-2.19-0.88-3.6-0.88c-1.8,0-3.26,0.37-4.37,1.13c-1.12,0.75-1.99,1.73-2.62,2.91
	c-0.63,1.19-1.05,2.51-1.28,3.97c-0.22,1.46-0.33,2.87-0.33,4.22c0,1.37,0.11,2.76,0.33,4.2c0.22,1.43,0.65,2.74,1.28,3.93
	c0.64,1.19,1.5,2.17,2.62,2.92c1.12,0.75,2.57,1.13,4.37,1.13c1.41,0,2.61-0.3,3.6-0.88c1-0.58,1.83-1.29,2.51-2.11
	c0.98-1.26,1.62-2.69,1.93-4.3C304.9,86.92,305.05,85.29,305.05,83.64"/>
<path class="st2" d="M341.33,73c-1.11-0.24-2.16-0.36-3.14-0.36c-3.2,0-5.63,1.02-7.28,3.06c-1.66,2.05-2.48,4.6-2.48,7.66v19.15
	h-9.26V64.62h7.79l0.81,5.63c0.88-2.16,2.32-3.73,4.34-4.69c2.02-0.96,4.14-1.45,6.38-1.45c0.97,0,1.91,0.07,2.83,0.21V73z"/>
<path class="st2" d="M375.58,83.57c0,3.21-0.39,5.89-1.16,8.05c-0.78,2.16-1.87,4.14-3.28,5.93c-1.31,1.61-3.12,2.99-5.42,4.16
	c-2.31,1.16-4.92,1.75-7.84,1.75c-2.91,0-5.52-0.58-7.82-1.75c-2.31-1.17-4.12-2.55-5.43-4.16c-1.41-1.79-2.51-3.77-3.28-5.93
	c-0.77-2.16-1.16-4.84-1.16-8.05c0-3.21,0.39-5.89,1.16-8.05c0.77-2.16,1.87-4.14,3.28-5.94c1.31-1.6,3.12-2.99,5.43-4.15
	c2.3-1.16,4.91-1.75,7.82-1.75c2.92,0,5.53,0.59,7.84,1.75c2.3,1.17,4.11,2.55,5.42,4.15c1.41,1.8,2.5,3.78,3.28,5.94
	C375.19,77.68,375.58,80.36,375.58,83.57 M366.32,83.57c0-1.8-0.17-3.53-0.5-5.21c-0.34-1.68-1.07-3.12-2.19-4.33
	c-0.63-0.68-1.43-1.25-2.41-1.72c-0.97-0.46-2.09-0.69-3.35-0.69c-1.26,0-2.38,0.23-3.35,0.69c-0.97,0.47-1.77,1.04-2.41,1.72
	c-1.12,1.21-1.85,2.66-2.19,4.33c-0.34,1.68-0.51,3.41-0.51,5.21c0,1.79,0.17,3.53,0.51,5.21c0.34,1.67,1.07,3.12,2.19,4.33
	c0.64,0.69,1.44,1.25,2.41,1.71c0.97,0.46,2.09,0.7,3.35,0.7c1.27,0,2.38-0.23,3.35-0.7c0.97-0.46,1.78-1.02,2.41-1.71
	c1.12-1.21,1.85-2.65,2.19-4.33C366.15,87.1,366.32,85.36,366.32,83.57"/>
<path class="st2" d="M425.12,102.51V78.98c0-2.33-0.4-4.14-1.2-5.43c-0.8-1.29-2.35-1.94-4.63-1.94c-1.32,0-2.43,0.31-3.36,0.92
	c-0.92,0.61-1.68,1.41-2.29,2.4c-0.61,1-1.06,2.11-1.34,3.31c-0.29,1.22-0.44,2.4-0.44,3.57v20.69h-9.04V78.98
	c0-2.33-0.4-4.14-1.2-5.43c-0.8-1.29-2.35-1.94-4.63-1.94c-1.31,0-2.43,0.31-3.35,0.92c-0.92,0.61-1.7,1.41-2.33,2.4
	c-0.62,1-1.09,2.11-1.38,3.31c-0.3,1.22-0.44,2.4-0.44,3.57v20.69h-9.03V64.62h7.57l0.74,5.03c1.06-1.75,2.49-3.18,4.29-4.3
	c1.8-1.12,3.96-1.68,6.49-1.68c2.67,0,4.9,0.54,6.7,1.64c1.8,1.09,3.19,2.61,4.16,4.54c1.11-1.98,2.66-3.51,4.62-4.58
	c1.97-1.06,4.24-1.6,6.82-1.6c4.08,0,7.16,1.23,9.22,3.68c2.06,2.46,3.1,5.65,3.1,9.59v25.57H425.12z"/>
<path class="st2" d="M439.76,61.13l-2.62-4.38l11.95-9.25l3.64,6.12L439.76,61.13z M441.22,64.62h9.25v37.89h-9.25V64.62z"/>
<path class="st2" d="M487.49,90.78c0,1.85-0.3,3.45-0.91,4.81c-0.61,1.36-1.4,2.53-2.37,3.49c-1.56,1.56-3.45,2.68-5.68,3.35
	c-2.24,0.68-4.66,1.01-7.29,1.01c-2.43,0-4.69-0.35-6.77-1.05c-2.09-0.7-3.92-1.8-5.47-3.32c-1.12-1.07-2.07-2.36-2.84-3.86
	c-0.78-1.5-1.17-3.15-1.17-4.95h8.53c0,0.82,0.19,1.65,0.58,2.47c0.39,0.82,0.88,1.48,1.46,1.96c0.73,0.59,1.54,1.01,2.45,1.27
	c0.9,0.27,2,0.41,3.31,0.41c0.78,0,1.61-0.06,2.52-0.19c0.89-0.12,1.73-0.35,2.51-0.69c0.78-0.34,1.42-0.82,1.92-1.46
	c0.52-0.63,0.77-1.46,0.77-2.47c0-1.13-0.34-2.01-1.02-2.7c-0.67-0.67-1.6-1.12-2.76-1.3c-1.7-0.24-3.45-0.45-5.25-0.62
	c-1.8-0.17-3.54-0.45-5.25-0.84c-1.31-0.29-2.49-0.76-3.53-1.39c-1.05-0.63-1.96-1.39-2.74-2.29c-0.78-0.9-1.37-1.89-1.79-2.98
	c-0.41-1.09-0.62-2.24-0.62-3.46c0-1.95,0.37-3.61,1.1-4.99c0.73-1.39,1.64-2.57,2.76-3.54c1.42-1.21,3.09-2.15,5.03-2.81
	c1.94-0.65,4.1-0.98,6.48-0.98c2.28,0,4.48,0.36,6.6,1.09c2.11,0.74,3.87,1.85,5.27,3.36c1.02,1.11,1.83,2.34,2.44,3.68
	c0.61,1.34,0.91,2.7,0.91,4.11h-8.67c0-0.74-0.14-1.39-0.43-1.97c-0.29-0.58-0.66-1.12-1.09-1.6c-0.54-0.53-1.25-0.96-2.15-1.27
	c-0.9-0.32-1.83-0.47-2.8-0.47c-0.68,0-1.34,0.03-1.97,0.08c-0.63,0.04-1.29,0.21-1.97,0.5c-0.83,0.35-1.52,0.85-2.07,1.53
	c-0.55,0.68-0.84,1.51-0.84,2.47c0,1.37,0.47,2.3,1.42,2.82c0.95,0.51,1.93,0.83,2.95,0.98c0.87,0.1,1.61,0.18,2.19,0.26
	c0.58,0.07,1.17,0.14,1.74,0.22c0.59,0.07,1.2,0.15,1.82,0.26c0.63,0.09,1.41,0.21,2.33,0.36c3.01,0.48,5.49,1.63,7.43,3.46
	C486.51,85.35,487.49,87.77,487.49,90.78"/>
<line class="st3" x1="6" y1="45.28" x2="526.76" y2="45.28"/>
<line class="st3" x1="6" y1="122.05" x2="526.76" y2="122.05"/>
<rect x="6" y="6" class="st4" width="520.76" height="155.32"/>
<line class="st3" x1="6" y1="103.51" x2="8.5" y2="103.51"/>
<line class="st5" x1="13.47" y1="103.51" x2="537.78" y2="103.51"/>
<line class="st3" x1="540.26" y1="103.51" x2="542.76" y2="103.51"/>
<line class="st3" x1="6" y1="63.26" x2="8.5" y2="63.26"/>
<line class="st5" x1="13.47" y1="63.26" x2="537.78" y2="63.26"/>
<line class="st3" x1="540.26" y1="63.26" x2="542.76" y2="63.26"/>
<rect class="st6" width="554.41" height="167.32"/>
<g>
	<path class="st7" d="M545.06,86.88l-2.16-3.49l-2.13,3.49h-1.16l2.69-4.29l-2.64-4.21h1.19l2.13,3.44l2.1-3.44h1.14l-2.65,4.21
		l2.69,4.29H545.06z"/>
</g>
<line class="st3" x1="45.27" y1="6" x2="45.27" y2="161.32"/>
<line class="st3" x1="487.49" y1="6" x2="487.49" y2="161.32"/>
<line class="st8" x1="12.18" y1="128.24" x2="39.08" y2="155.14"/>
<polygon class="st2" points="11.9,130.85 12.4,130.84 12.31,128.37 14.78,128.46 14.8,127.96 11.79,127.85 "/>
<polygon class="st2" points="36.46,155.41 36.48,154.91 38.94,155 38.85,152.54 39.35,152.52 39.46,155.52 "/>
<line class="st8" x1="39.1" y1="128.24" x2="12.2" y2="155.14"/>
<polygon class="st2" points="36.48,127.96 36.5,128.46 38.96,128.37 38.87,130.84 39.37,130.85 39.48,127.85 "/>
<polygon class="st2" points="11.92,152.52 12.42,152.54 12.33,155 14.8,154.91 14.81,155.41 11.81,155.52 "/>
<rect x="18.73" y="134.81" class="st0" width="13.79" height="13.79"/>
<g>
	<path class="st7" d="M28.26,146.02l-2.16-3.49l-2.13,3.49H22.8l2.69-4.29l-2.64-4.21h1.19l2.13,3.44l2.1-3.44h1.14l-2.65,4.21
		l2.69,4.29H28.26z"/>
</g>
<line class="st8" x1="12.18" y1="12.19" x2="39.08" y2="39.09"/>
<polygon class="st2" points="11.9,14.81 12.4,14.79 12.31,12.32 14.78,12.41 14.8,11.91 11.79,11.8 "/>
<polygon class="st2" points="36.46,39.36 36.48,38.86 38.94,38.95 38.85,36.49 39.35,36.47 39.46,39.47 "/>
<line class="st8" x1="39.1" y1="12.19" x2="12.2" y2="39.09"/>
<polygon class="st2" points="36.48,11.91 36.5,12.41 38.96,12.32 38.87,14.79 39.37,14.81 39.48,11.81 "/>
<polygon class="st2" points="11.92,36.47 12.42,36.49 12.33,38.95 14.8,38.86 14.81,39.36 11.81,39.47 "/>
<rect x="18.73" y="18.76" class="st0" width="13.79" height="13.79"/>
<g>
	<path class="st7" d="M28.26,29.97l-2.16-3.49l-2.13,3.49H22.8l2.69-4.29l-2.64-4.21h1.19l2.13,3.44l2.1-3.44h1.14l-2.65,4.21
		l2.69,4.29H28.26z"/>
</g>
<line class="st8" x1="493.67" y1="128.24" x2="520.56" y2="155.14"/>
<polygon class="st2" points="493.39,130.85 493.89,130.84 493.8,128.37 496.26,128.46 496.28,127.96 493.28,127.85 "/>
<polygon class="st2" points="517.95,155.41 517.97,154.91 520.43,155 520.34,152.54 520.84,152.52 520.95,155.52 "/>
<line class="st8" x1="520.58" y1="128.24" x2="493.68" y2="155.14"/>
<polygon class="st2" points="517.97,127.96 517.98,128.46 520.45,128.37 520.36,130.84 520.86,130.85 520.97,127.85 "/>
<polygon class="st2" points="493.41,152.52 493.91,152.54 493.82,155 496.28,154.91 496.3,155.41 493.3,155.52 "/>
<rect x="500.22" y="134.81" class="st0" width="13.79" height="13.79"/>
<g>
	<path class="st7" d="M509.75,146.02l-2.16-3.49l-2.13,3.49h-1.16l2.69-4.29l-2.64-4.21h1.19l2.13,3.44l2.1-3.44h1.14l-2.65,4.21
		l2.69,4.29H509.75z"/>
</g>
<line class="st8" x1="493.67" y1="12.19" x2="520.56" y2="39.09"/>
<polygon class="st2" points="493.39,14.81 493.89,14.79 493.8,12.32 496.26,12.41 496.28,11.91 493.28,11.8 "/>
<polygon class="st2" points="517.95,39.36 517.97,38.86 520.43,38.95 520.34,36.49 520.84,36.47 520.95,39.47 "/>
<line class="st8" x1="520.58" y1="12.19" x2="493.68" y2="39.09"/>
<polygon class="st2" points="517.97,11.91 517.98,12.41 520.45,12.32 520.36,14.79 520.86,14.81 520.97,11.81 "/>
<polygon class="st2" points="493.41,36.47 493.91,36.49 493.82,38.95 496.28,38.86 496.3,39.36 493.3,39.47 "/>
<rect x="500.22" y="18.76" class="st0" width="13.79" height="13.79"/>
<g>
	<path class="st7" d="M509.75,29.97l-2.16-3.49l-2.13,3.49h-1.16l2.69-4.29l-2.64-4.21h1.19l2.13,3.44l2.1-3.44h1.14l-2.65,4.21
		l2.69,4.29H509.75z"/>
</g>
</svg>
