<svg version="1.1" xmlns="http://www.w3.org/2000/svg" xmlns:xlink="http://www.w3.org/1999/xlink" x="0px" y="0px"
	 width="414.35px" height="71.62px" viewBox="0 0 414.35 71.62" style="enable-background:new 0 0 414.35 71.62;"
	 xml:space="preserve">
<style type="text/css">
	.st0{clip-path:url(#SVGID_2_);fill:url(#SVGID_3_);}
	.st1{clip-path:url(#SVGID_5_);fill-rule:evenodd;clip-rule:evenodd;fill:#FFFFFF;}
	.st2{clip-path:url(#SVGID_7_);fill:url(#SVGID_8_);}
	.st3{clip-path:url(#SVGID_10_);fill:#27292E;}
	.st4{clip-path:url(#SVGID_10_);fill:none;stroke:#898E91;stroke-width:1.399;stroke-miterlimit:10;}
	.st5{clip-path:url(#SVGID_12_);fill:url(#SVGID_13_);}
	.st6{clip-path:url(#SVGID_15_);fill-rule:evenodd;clip-rule:evenodd;fill:#FFFFFF;}
	.st7{clip-path:url(#SVGID_17_);fill:url(#SVGID_18_);}
	.st8{clip-path:url(#SVGID_20_);fill:#27292E;}
	.st9{clip-path:url(#SVGID_20_);fill:none;stroke:#898E91;stroke-width:1.399;stroke-miterlimit:10;}
</style>
<defs>
</defs>
<g>
	<defs>
		<path id="SVGID_1_" d="M0,7.99v37.39c0,10.08,8.17,18.24,18.24,18.24c0.1,0,0.18-0.01,0.28-0.01v0.01h94.65
			c10.08,0,18.24-8.17,18.24-18.24h0.08V7.99H0z"/>
	</defs>
	<clipPath id="SVGID_2_">
		<use xlink:href="#SVGID_1_"  style="overflow:visible;"/>
	</clipPath>

		<linearGradient id="SVGID_3_" gradientUnits="userSpaceOnUse" x1="-295.846" y1="407.576" x2="-294.846" y2="407.576" gradientTransform="matrix(0 -55.635 55.635 0 -22609.7441 -16395.7617)">
		<stop  offset="0" style="stop-color:#E28431"/>
		<stop  offset="0.3498" style="stop-color:#DF7432"/>
		<stop  offset="1" style="stop-color:#D84C33"/>
	</linearGradient>
	<rect y="7.99" class="st0" width="131.49" height="55.64"/>
</g>
<g>
	<defs>
		<rect id="SVGID_4_" width="414.35" height="71.62"/>
	</defs>
	<clipPath id="SVGID_5_">
		<use xlink:href="#SVGID_4_"  style="overflow:visible;"/>
	</clipPath>
	<path class="st1" d="M51.24,36.79h-3.91v5.42h4.04c2.54,0,3.81-0.91,3.81-2.76c0-0.92-0.33-1.6-0.99-2.02
		C53.55,37.02,52.56,36.79,51.24,36.79 M47.33,29.3v4.81h3.45c0.94,0,1.67-0.1,2.18-0.27c0.51-0.17,0.9-0.51,1.17-1.01
		c0.21-0.36,0.32-0.76,0.32-1.19c0-0.93-0.34-1.56-1-1.88c-0.67-0.3-1.69-0.46-3.05-0.46H47.33z M113.17,39.18
		c0,0.59-0.14,1.23-0.43,1.92c-0.29,0.68-0.76,1.36-1.38,2.02c-0.62,0.66-1.41,1.2-2.39,1.62c-0.97,0.42-2.1,0.62-3.4,0.62
		c-0.98,0-1.87-0.09-2.67-0.28c-0.81-0.18-1.53-0.47-2.19-0.87c-0.65-0.39-1.26-0.9-1.8-1.55c-0.48-0.57-0.91-1.23-1.25-1.95
		c-0.35-0.72-0.61-1.49-0.78-2.31c-0.17-0.82-0.26-1.69-0.26-2.61c0-1.49,0.22-2.83,0.65-4.01c0.44-1.19,1.06-2.2,1.87-3.03
		c0.81-0.84,1.75-1.48,2.84-1.93c1.1-0.43,2.27-0.65,3.49-0.65c1.51,0,2.85,0.3,4.02,0.9c1.18,0.59,2.07,1.33,2.69,2.21
		c0.62,0.88,0.94,1.72,0.94,2.5c0,0.43-0.15,0.82-0.46,1.14c-0.3,0.32-0.67,0.49-1.1,0.49c-0.47,0-0.85-0.11-1.08-0.34
		c-0.23-0.24-0.5-0.63-0.8-1.18c-0.48-0.91-1.07-1.61-1.73-2.07c-0.67-0.46-1.48-0.69-2.44-0.69c-1.55,0-2.78,0.59-3.7,1.76
		c-0.91,1.17-1.37,2.83-1.37,5c0,1.45,0.2,2.65,0.61,3.61c0.4,0.95,0.97,1.67,1.72,2.14c0.73,0.48,1.61,0.72,2.61,0.72
		c1.08,0,1.99-0.28,2.74-0.81c0.76-0.53,1.32-1.33,1.7-2.36c0.16-0.5,0.35-0.89,0.59-1.2c0.23-0.3,0.61-0.46,1.14-0.46
		c0.44,0,0.82,0.16,1.15,0.47C113.01,38.33,113.17,38.71,113.17,39.18 M90.32,35.71c0-1.36-0.22-2.54-0.67-3.54
		c-0.43-0.99-1.05-1.74-1.88-2.25c-0.81-0.52-1.74-0.77-2.8-0.77c-0.74,0-1.44,0.14-2.07,0.43c-0.64,0.28-1.19,0.69-1.65,1.23
		c-0.46,0.54-0.82,1.23-1.09,2.07c-0.27,0.84-0.39,1.79-0.39,2.83c0,1.06,0.12,2,0.39,2.87c0.27,0.85,0.64,1.56,1.13,2.12
		c0.48,0.57,1.02,0.99,1.65,1.26c0.64,0.28,1.32,0.43,2.08,0.43c0.96,0,1.85-0.25,2.66-0.73c0.8-0.48,1.44-1.22,1.92-2.23
		C90.08,38.42,90.32,37.17,90.32,35.71 M84.97,26.16c1.93,0,3.58,0.39,4.97,1.17c1.38,0.78,2.42,1.89,3.13,3.33
		c0.7,1.43,1.06,3.12,1.06,5.07c0,1.43-0.19,2.74-0.57,3.9c-0.4,1.17-0.98,2.19-1.75,3.06c-0.78,0.86-1.73,1.51-2.87,1.97
		c-1.12,0.46-2.42,0.69-3.88,0.69c-1.45,0-2.75-0.24-3.9-0.71c-1.15-0.46-2.12-1.12-2.89-1.98c-0.76-0.86-1.35-1.88-1.74-3.07
		c-0.39-1.21-0.59-2.5-0.59-3.89c0-1.42,0.21-2.73,0.62-3.92c0.4-1.2,1-2.21,1.78-3.04c0.77-0.83,1.71-1.47,2.83-1.92
		C82.29,26.39,83.56,26.16,84.97,26.16 M65.94,28.45v13.5h7.62c0.61,0,1.08,0.15,1.4,0.45c0.33,0.3,0.49,0.67,0.49,1.1
		c0,0.47-0.16,0.84-0.48,1.12c-0.32,0.28-0.79,0.42-1.41,0.42h-9.08c-0.81,0-1.4-0.18-1.76-0.55c-0.36-0.37-0.54-0.95-0.54-1.76
		V28.45c0-0.76,0.17-1.33,0.51-1.71c0.35-0.38,0.79-0.57,1.36-0.57c0.56,0,1.02,0.19,1.36,0.57C65.76,27.11,65.94,27.67,65.94,28.45
		 M20.14,30.29v7.02c0,3.42,2.68,6.18,5.99,6.18h12.46V30.29c0-3.42-2.69-6.18-6-6.18h-6.46C22.82,24.11,20.14,26.88,20.14,30.29
		 M18.52,29.62c0-4.02,3.16-7.29,7.06-7.29h7.62c3.89,0,7.06,3.26,7.06,7.29v15.57H25.58c-3.9,0-7.06-3.27-7.06-7.29V29.62z
		 M51.53,45.05h-5.68c-0.82,0-1.4-0.18-1.75-0.55c-0.35-0.37-0.53-0.96-0.53-1.76V28.78c0-0.82,0.18-1.41,0.55-1.77
		c0.35-0.36,0.93-0.53,1.73-0.53h6.02c0.88,0,1.66,0.05,2.31,0.16c0.64,0.11,1.22,0.32,1.74,0.63c0.45,0.26,0.83,0.59,1.17,0.99
		c0.34,0.4,0.6,0.84,0.78,1.33c0.17,0.49,0.26,1.01,0.26,1.54c0,1.85-0.92,3.21-2.78,4.08C57.79,35.99,59,37.5,59,39.74
		c0,1.05-0.27,1.99-0.8,2.82c-0.53,0.83-1.25,1.44-2.15,1.84c-0.57,0.24-1.22,0.4-1.95,0.51C53.36,44.99,52.51,45.05,51.53,45.05
		 M35.92,35.49c-0.03,0.19-0.22,0.27-0.45,0.18c-0.24-0.09-0.44-0.34-0.48-0.57l-0.21-5.52c-0.02-0.56,0.46-0.8,1.07-0.54
		c0.6,0.26,1.11,0.92,1.15,1.48C37,30.63,35.92,35.49,35.92,35.49 M33,34.96c0.07,0.21-0.02,0.42-0.22,0.47
		c-0.21,0.04-0.49-0.12-0.64-0.36l-3.11-6.23c-0.33-0.66-0.1-1.23,0.49-1.27c0.58-0.04,1.32,0.43,1.65,1.09
		C31.24,28.78,33,34.96,33,34.96 M30.64,36.09c0.18,0.22,0.22,0.49,0.09,0.65c-0.13,0.18-0.41,0.17-0.65-0.01l-5.82-5.34
		c-0.64-0.59-0.81-1.41-0.37-1.83c0.43-0.4,1.28-0.26,1.9,0.31C25.91,29.98,30.64,36.09,30.64,36.09 M29.54,38.76
		c0.25,0.13,0.42,0.41,0.41,0.67c0,0.28-0.21,0.44-0.47,0.39l-7.41-2.44c-0.86-0.29-1.49-1.16-1.4-1.93
		c0.09-0.75,0.85-1.11,1.68-0.82C22.51,34.68,29.54,38.76,29.54,38.76"/>
</g>
<g>
	<defs>
		<path id="SVGID_6_" d="M207,39.24l1.62,2.07c-4.22,3.5-8.99,5.31-14.83,5.31c-5.84,0-10.61-1.81-14.82-5.31l1.62-2.07
			c4.18,2.98,7.61,4.35,13.2,4.35C199.39,43.59,202.82,42.22,207,39.24 M185.77,26.23h4.62v4.41h-4.25c-2.66,0-4.4-0.64-5.53-3.22
			l1.77-1.02c0.8,1.63,1.77,2.01,3.39,2.01V26.23z M197.05,26.23h4.61v4.41h-4.61V26.23z M173.52,14.73c-1.13,0-2.06,0.89-2.06,1.97
			v38.23c0,1.08,0.93,1.97,2.06,1.97h40.05c1.13,0,2.06-0.89,2.06-1.97V16.7c0-1.08-0.93-1.97-2.06-1.97H173.52z"/>
	</defs>
	<clipPath id="SVGID_7_">
		<use xlink:href="#SVGID_6_"  style="overflow:visible;"/>
	</clipPath>

		<linearGradient id="SVGID_8_" gradientUnits="userSpaceOnUse" x1="-295.846" y1="407.576" x2="-294.846" y2="407.576" gradientTransform="matrix(0 42.6339 42.6339 0 -17183.0117 12627.5781)">
		<stop  offset="0" style="stop-color:#E18433"/>
		<stop  offset="0.2756" style="stop-color:#DE7833"/>
		<stop  offset="0.8103" style="stop-color:#D85933"/>
		<stop  offset="1" style="stop-color:#D54B32"/>
	</linearGradient>
	<rect x="171.46" y="14.73" class="st2" width="44.18" height="42.17"/>
</g>
<g>
	<defs>
		<rect id="SVGID_9_" width="414.35" height="71.62"/>
	</defs>
	<clipPath id="SVGID_10_">
		<use xlink:href="#SVGID_9_"  style="overflow:visible;"/>
	</clipPath>
	<path class="st3" d="M243.67,39.35c-0.05,0.83-0.21,1.64-0.48,2.42c-0.27,0.79-0.64,1.49-1.12,2.1c-0.72,0.91-1.69,1.68-2.9,2.32
		c-1.21,0.64-2.62,0.96-4.22,0.96c-1.6,0-3.03-0.33-4.28-0.98c-1.26-0.66-2.24-1.42-2.96-2.3c-0.77-0.99-1.35-2.12-1.72-3.4
		c-0.38-1.28-0.56-2.68-0.56-4.2c0-1.52,0.18-2.92,0.56-4.2c0.38-1.28,0.95-2.42,1.72-3.4c0.72-0.88,1.71-1.64,2.96-2.3
		c1.25-0.66,2.68-0.98,4.28-0.98c1.6,0,3.01,0.32,4.22,0.96c1.21,0.64,2.18,1.41,2.9,2.32c0.48,0.61,0.85,1.32,1.12,2.1
		c0.27,0.79,0.43,1.6,0.48,2.42h-4.92c-0.02-0.37-0.09-0.71-0.2-1.03c-0.11-0.32-0.24-0.61-0.4-0.87c-0.29-0.44-0.71-0.82-1.24-1.11
		c-0.54-0.29-1.19-0.44-1.96-0.44c-0.7,0-1.29,0.12-1.78,0.36c-0.49,0.24-0.91,0.54-1.26,0.91c-0.62,0.66-1,1.46-1.16,2.39
		c-0.16,0.93-0.24,1.88-0.24,2.86c0,0.98,0.08,1.93,0.24,2.85c0.16,0.91,0.55,1.7,1.16,2.37c0.34,0.37,0.77,0.68,1.26,0.93
		c0.5,0.25,1.09,0.38,1.78,0.38c0.78,0,1.42-0.14,1.96-0.44c0.53-0.29,0.95-0.65,1.24-1.11c0.16-0.27,0.29-0.55,0.4-0.87
		c0.11-0.32,0.18-0.66,0.2-1.03H243.67z"/>
	<path class="st3" d="M264,36.31c0,1.76-0.22,3.23-0.64,4.42c-0.43,1.19-1.03,2.27-1.8,3.26c-0.72,0.88-1.72,1.64-2.98,2.28
		c-1.27,0.64-2.7,0.96-4.3,0.96s-3.03-0.32-4.3-0.96c-1.27-0.64-2.26-1.4-2.98-2.28c-0.77-0.99-1.38-2.07-1.8-3.26
		c-0.43-1.19-0.64-2.66-0.64-4.42c0-1.76,0.21-3.23,0.64-4.42c0.43-1.19,1.03-2.28,1.8-3.26c0.72-0.88,1.71-1.64,2.98-2.28
		c1.27-0.64,2.7-0.96,4.3-0.96s3.04,0.32,4.3,0.96c1.26,0.64,2.26,1.4,2.98,2.28c0.77,0.99,1.38,2.08,1.8,3.26
		C263.78,33.08,264,34.55,264,36.31 M258.92,36.31c0-0.99-0.09-1.94-0.28-2.86c-0.19-0.92-0.59-1.72-1.2-2.38
		c-0.35-0.38-0.79-0.69-1.32-0.95c-0.53-0.25-1.15-0.38-1.84-0.38s-1.3,0.13-1.84,0.38c-0.53,0.26-0.97,0.57-1.32,0.95
		c-0.61,0.66-1.01,1.46-1.2,2.38c-0.18,0.92-0.28,1.87-0.28,2.86c0,0.98,0.09,1.94,0.28,2.86c0.19,0.92,0.59,1.71,1.2,2.38
		c0.35,0.38,0.79,0.69,1.32,0.94c0.54,0.25,1.14,0.38,1.84,0.38s1.31-0.13,1.84-0.38c0.53-0.25,0.97-0.56,1.32-0.94
		c0.61-0.67,1.01-1.46,1.2-2.38C258.82,38.25,258.92,37.29,258.92,36.31"/>
	<path class="st3" d="M291.21,46.71V33.79c0-1.28-0.22-2.28-0.67-2.98c-0.43-0.71-1.29-1.06-2.54-1.06c-0.72,0-1.33,0.17-1.85,0.51
		c-0.5,0.33-0.92,0.77-1.26,1.32c-0.33,0.55-0.58,1.16-0.74,1.82c-0.16,0.67-0.24,1.32-0.24,1.96v11.37h-4.96V33.79
		c0-1.28-0.22-2.28-0.66-2.98c-0.44-0.71-1.29-1.06-2.54-1.06c-0.72,0-1.34,0.17-1.84,0.51c-0.51,0.33-0.94,0.77-1.28,1.32
		c-0.35,0.55-0.6,1.16-0.76,1.82c-0.16,0.67-0.24,1.32-0.24,1.96v11.37h-4.96V25.9h4.16l0.4,2.76c0.59-0.96,1.37-1.75,2.36-2.36
		c0.98-0.61,2.17-0.92,3.56-0.92c1.47,0,2.69,0.3,3.68,0.9c0.99,0.6,1.75,1.43,2.28,2.49c0.61-1.09,1.46-1.93,2.54-2.52
		c1.08-0.58,2.33-0.88,3.74-0.88c2.24,0,3.93,0.68,5.06,2.02c1.14,1.35,1.7,3.1,1.7,5.26v14.05H291.21z"/>
	<path class="st3" d="M319.23,36.27c0,4.14-1.24,7.23-3.72,9.29c-0.64,0.54-1.38,0.95-2.22,1.24c-0.84,0.29-1.79,0.44-2.86,0.44
		c-1.26,0-2.36-0.19-3.3-0.58c-0.95-0.39-1.66-0.88-2.14-1.46v9.49h-5V25.9h4.32l0.32,2.28c0.61-0.96,1.46-1.66,2.52-2.1
		c1.07-0.44,2.18-0.66,3.32-0.66c1.04,0,1.98,0.16,2.82,0.48c0.84,0.32,1.58,0.75,2.22,1.28c1.26,1.01,2.19,2.28,2.8,3.82
		C318.92,32.54,319.23,34.29,319.23,36.27 M314.15,36.35c0-0.9-0.09-1.81-0.26-2.7c-0.17-0.89-0.52-1.69-1.06-2.38
		c-0.37-0.45-0.83-0.84-1.38-1.16c-0.55-0.32-1.2-0.48-1.98-0.48c-0.99,0-1.79,0.21-2.4,0.62c-0.61,0.42-1.09,0.95-1.44,1.6
		c-0.34,0.65-0.58,1.38-0.7,2.18c-0.12,0.8-0.18,1.58-0.18,2.32c0,0.75,0.06,1.52,0.18,2.31c0.12,0.78,0.36,1.51,0.7,2.16
		c0.35,0.65,0.83,1.19,1.44,1.6c0.62,0.41,1.41,0.62,2.4,0.62c0.78,0,1.43-0.16,1.98-0.48c0.55-0.32,1.01-0.71,1.38-1.16
		c0.54-0.69,0.89-1.48,1.06-2.36C314.06,38.15,314.15,37.26,314.15,36.35"/>
	<path class="st3" d="M334.07,30.51c-0.61-0.13-1.19-0.2-1.72-0.2c-1.76,0-3.09,0.56-4,1.68c-0.91,1.12-1.36,2.53-1.36,4.21v10.52
		h-5.09V25.9h4.28l0.45,3.09c0.48-1.19,1.28-2.05,2.38-2.58c1.11-0.53,2.28-0.79,3.5-0.79c0.53,0,1.05,0.04,1.56,0.12V30.51z"/>
	<path class="st3" d="M352.88,36.31c0,1.76-0.22,3.23-0.64,4.42c-0.43,1.19-1.03,2.27-1.8,3.26c-0.72,0.88-1.72,1.64-2.98,2.28
		c-1.27,0.64-2.7,0.96-4.31,0.96c-1.6,0-3.03-0.32-4.3-0.96c-1.27-0.64-2.26-1.4-2.98-2.28c-0.77-0.99-1.38-2.07-1.8-3.26
		c-0.42-1.19-0.64-2.66-0.64-4.42c0-1.76,0.22-3.23,0.64-4.42c0.42-1.19,1.03-2.28,1.8-3.26c0.72-0.88,1.71-1.64,2.98-2.28
		c1.27-0.64,2.7-0.96,4.3-0.96c1.6,0,3.04,0.32,4.31,0.96c1.26,0.64,2.26,1.4,2.98,2.28c0.77,0.99,1.37,2.08,1.8,3.26
		C352.67,33.08,352.88,34.55,352.88,36.31 M347.8,36.31c0-0.99-0.1-1.94-0.28-2.86c-0.19-0.92-0.59-1.72-1.2-2.38
		c-0.34-0.38-0.79-0.69-1.32-0.95c-0.53-0.25-1.15-0.38-1.84-0.38c-0.69,0-1.3,0.13-1.84,0.38c-0.53,0.26-0.97,0.57-1.32,0.95
		c-0.61,0.66-1.01,1.46-1.2,2.38c-0.19,0.92-0.28,1.87-0.28,2.86c0,0.98,0.09,1.94,0.28,2.86c0.19,0.92,0.59,1.71,1.2,2.38
		c0.35,0.38,0.79,0.69,1.32,0.94c0.53,0.25,1.15,0.38,1.84,0.38c0.7,0,1.31-0.13,1.84-0.38c0.53-0.25,0.98-0.56,1.32-0.94
		c0.61-0.67,1.02-1.46,1.2-2.38C347.7,38.25,347.8,37.29,347.8,36.31"/>
	<path class="st3" d="M380.1,46.71V33.79c0-1.28-0.22-2.28-0.66-2.98c-0.44-0.71-1.29-1.06-2.54-1.06c-0.72,0-1.33,0.17-1.85,0.51
		c-0.5,0.33-0.92,0.77-1.26,1.32c-0.33,0.55-0.58,1.16-0.74,1.82c-0.16,0.67-0.24,1.32-0.24,1.96v11.37h-4.97V33.79
		c0-1.28-0.22-2.28-0.66-2.98c-0.44-0.71-1.29-1.06-2.54-1.06c-0.72,0-1.33,0.17-1.84,0.51c-0.51,0.33-0.93,0.77-1.28,1.32
		c-0.34,0.55-0.6,1.16-0.75,1.82c-0.16,0.67-0.24,1.32-0.24,1.96v11.37h-4.96V25.9h4.16l0.4,2.76c0.58-0.96,1.37-1.75,2.36-2.36
		c0.99-0.61,2.17-0.92,3.56-0.92c1.47,0,2.69,0.3,3.68,0.9c0.99,0.6,1.75,1.43,2.28,2.49c0.61-1.09,1.46-1.93,2.54-2.52
		c1.08-0.58,2.33-0.88,3.74-0.88c2.24,0,3.93,0.68,5.06,2.02c1.13,1.35,1.7,3.1,1.7,5.26v14.05H380.1z"/>
	<path class="st3" d="M388.14,23.98l-1.44-2.4l6.56-5.08l2,3.36L388.14,23.98z M388.94,25.9h5.08v20.81h-5.08V25.9z"/>
	<path class="st3" d="M414.35,40.27c0,1.02-0.17,1.9-0.5,2.64c-0.33,0.75-0.77,1.39-1.3,1.92c-0.85,0.86-1.89,1.47-3.12,1.84
		c-1.23,0.37-2.56,0.56-4,0.56c-1.34,0-2.58-0.19-3.72-0.58c-1.15-0.39-2.15-0.99-3-1.82c-0.61-0.59-1.14-1.3-1.56-2.12
		c-0.43-0.82-0.64-1.73-0.64-2.72h4.69c0,0.45,0.1,0.9,0.31,1.36c0.22,0.45,0.48,0.81,0.8,1.08c0.4,0.32,0.85,0.55,1.34,0.7
		c0.49,0.15,1.1,0.22,1.82,0.22c0.43,0,0.89-0.03,1.38-0.1c0.49-0.07,0.95-0.19,1.38-0.38c0.43-0.19,0.78-0.45,1.06-0.8
		c0.28-0.35,0.42-0.8,0.42-1.36c0-0.62-0.18-1.11-0.56-1.48c-0.37-0.37-0.88-0.61-1.52-0.72c-0.93-0.13-1.89-0.25-2.88-0.34
		c-0.99-0.09-1.95-0.25-2.88-0.46c-0.72-0.16-1.37-0.42-1.94-0.76c-0.57-0.35-1.08-0.76-1.5-1.26c-0.42-0.49-0.75-1.04-0.98-1.64
		c-0.23-0.6-0.34-1.23-0.34-1.9c0-1.07,0.21-1.98,0.6-2.74c0.4-0.76,0.9-1.41,1.52-1.94c0.78-0.67,1.7-1.18,2.76-1.54
		c1.07-0.36,2.25-0.54,3.56-0.54c1.26,0,2.46,0.2,3.63,0.6c1.16,0.4,2.12,1.02,2.9,1.84c0.56,0.61,1.01,1.29,1.34,2.02
		c0.34,0.73,0.5,1.48,0.5,2.26h-4.76c0-0.4-0.08-0.76-0.24-1.08c-0.16-0.32-0.36-0.61-0.6-0.88c-0.29-0.29-0.69-0.52-1.18-0.7
		c-0.49-0.17-1-0.26-1.54-0.26c-0.37,0-0.73,0.01-1.08,0.04c-0.35,0.02-0.71,0.12-1.08,0.27c-0.45,0.19-0.83,0.47-1.14,0.84
		c-0.3,0.38-0.46,0.83-0.46,1.36c0,0.75,0.26,1.26,0.78,1.55c0.52,0.28,1.06,0.46,1.62,0.54c0.48,0.05,0.88,0.1,1.2,0.14
		c0.32,0.04,0.64,0.08,0.96,0.12c0.32,0.04,0.66,0.09,1,0.14c0.35,0.05,0.78,0.11,1.28,0.2c1.65,0.27,3.01,0.9,4.08,1.9
		C413.82,37.29,414.35,38.62,414.35,40.27"/>
	<line class="st4" x1="152.05" y1="7.99" x2="152.05" y2="63.63"/>
</g>
</svg>
