<svg version="1.1" xmlns="http://www.w3.org/2000/svg" xmlns:xlink="http://www.w3.org/1999/xlink" x="0px" y="0px"
	 width="237.14px" height="56.84px" viewBox="0 0 237.14 56.84" style="enable-background:new 0 0 237.14 56.84;"
	 xml:space="preserve">
<style type="text/css">
	.st0{clip-path:url(#SVGID_2_);fill:url(#SVGID_3_);}
	.st1{fill:#27292E;}
	.st2{fill:none;}
	.st3{fill:#898E91;}
	.st4{clip-path:url(#SVGID_5_);fill:url(#SVGID_6_);}
</style>
<defs>
</defs>
<g>
	<defs>
		<path id="SVGID_1_" d="M33.03,22.72l1.51,1.93c-3.92,3.25-8.35,4.93-13.78,4.93c-5.42,0-9.86-1.68-13.78-4.93l1.51-1.93
			c3.89,2.77,7.07,4.04,12.27,4.04S29.14,25.49,33.03,22.72 M13.3,10.63h4.29v4.09h-3.95c-2.47,0-4.09-0.6-5.14-2.99l1.65-0.95
			c0.74,1.52,1.65,1.87,3.15,1.87V10.63z M23.79,10.63h4.29v4.1h-4.29V10.63z M1.43,0C0.61,0.21,0,0.92,0,1.77V37.3
			c0,1.01,0.86,1.83,1.92,1.83h37.22c1.05,0,1.92-0.82,1.92-1.83V1.77c0-0.85-0.61-1.56-1.43-1.77H1.43z"/>
	</defs>
	<clipPath id="SVGID_2_">
		<use xlink:href="#SVGID_1_"  style="overflow:visible;"/>
	</clipPath>

		<linearGradient id="SVGID_3_" gradientUnits="userSpaceOnUse" x1="-501.059" y1="189.449" x2="-500.059" y2="189.449" gradientTransform="matrix(0 39.6203 39.6203 0 -7485.4995 19851.8438)">
		<stop  offset="0" style="stop-color:#E18433"/>
		<stop  offset="0.2756" style="stop-color:#DE7833"/>
		<stop  offset="0.8103" style="stop-color:#D85933"/>
		<stop  offset="1" style="stop-color:#D54B32"/>
	</linearGradient>
	<rect y="0" class="st0" width="41.05" height="39.13"/>
</g>
<path class="st1" d="M67.11,22.39c-0.05,0.77-0.2,1.52-0.44,2.25c-0.25,0.73-0.6,1.38-1.04,1.95c-0.67,0.84-1.57,1.56-2.7,2.16
	c-1.13,0.59-2.44,0.89-3.92,0.89c-1.49,0-2.82-0.3-3.98-0.91c-1.17-0.61-2.09-1.32-2.75-2.14c-0.72-0.92-1.25-1.97-1.6-3.16
	c-0.35-1.19-0.52-2.49-0.52-3.91c0-1.41,0.17-2.72,0.52-3.9c0.35-1.19,0.88-2.24,1.6-3.16c0.67-0.82,1.59-1.53,2.75-2.14
	c1.16-0.61,2.49-0.91,3.98-0.91c1.49,0,2.79,0.3,3.92,0.89c1.13,0.6,2.03,1.31,2.7,2.16c0.45,0.57,0.79,1.22,1.04,1.95
	c0.25,0.73,0.4,1.48,0.44,2.25h-4.57c-0.02-0.34-0.09-0.66-0.19-0.96c-0.1-0.29-0.22-0.56-0.37-0.81c-0.27-0.41-0.66-0.76-1.15-1.03
	c-0.5-0.27-1.1-0.41-1.82-0.41c-0.65,0-1.2,0.11-1.66,0.34c-0.46,0.22-0.85,0.5-1.17,0.85c-0.57,0.62-0.93,1.36-1.08,2.22
	c-0.15,0.86-0.22,1.75-0.22,2.66c0,0.92,0.07,1.8,0.22,2.65c0.15,0.85,0.51,1.58,1.08,2.2c0.32,0.34,0.71,0.63,1.17,0.87
	c0.46,0.24,1.01,0.35,1.66,0.35c0.72,0,1.32-0.13,1.82-0.41c0.49-0.27,0.88-0.61,1.15-1.03c0.15-0.25,0.27-0.52,0.37-0.81
	c0.1-0.3,0.16-0.61,0.19-0.96H67.11z"/>
<path class="st1" d="M86,19.57c0,1.64-0.2,3-0.59,4.11c-0.4,1.1-0.96,2.11-1.68,3.03c-0.67,0.82-1.59,1.53-2.77,2.12
	c-1.18,0.59-2.51,0.89-4,0.89c-1.49,0-2.82-0.3-4-0.89c-1.18-0.6-2.1-1.3-2.77-2.12c-0.72-0.92-1.28-1.92-1.67-3.03
	c-0.4-1.1-0.6-2.47-0.6-4.11c0-1.64,0.2-3,0.6-4.11c0.4-1.11,0.96-2.12,1.67-3.03c0.67-0.82,1.59-1.52,2.77-2.12
	c1.18-0.59,2.51-0.89,4-0.89c1.49,0,2.82,0.3,4,0.89c1.17,0.6,2.1,1.3,2.77,2.12c0.72,0.92,1.28,1.93,1.68,3.03
	C85.8,16.56,86,17.93,86,19.57 M81.28,19.57c0-0.92-0.09-1.8-0.26-2.66c-0.18-0.86-0.55-1.6-1.11-2.21
	c-0.32-0.35-0.73-0.64-1.23-0.88c-0.5-0.23-1.07-0.35-1.71-0.35s-1.21,0.12-1.71,0.35c-0.5,0.24-0.91,0.53-1.23,0.88
	c-0.57,0.62-0.94,1.36-1.12,2.21c-0.17,0.86-0.26,1.74-0.26,2.66c0,0.91,0.09,1.8,0.26,2.66c0.18,0.85,0.55,1.59,1.12,2.21
	c0.32,0.35,0.73,0.64,1.23,0.88c0.5,0.24,1.06,0.36,1.71,0.36s1.22-0.12,1.71-0.36c0.5-0.24,0.9-0.52,1.23-0.88
	c0.57-0.62,0.94-1.36,1.11-2.21C81.19,21.37,81.28,20.48,81.28,19.57"/>
<path class="st1" d="M111.29,29.24V17.22c0-1.19-0.21-2.12-0.62-2.77c-0.4-0.66-1.2-0.99-2.36-0.99c-0.67,0-1.24,0.16-1.72,0.47
	c-0.47,0.31-0.86,0.72-1.17,1.23c-0.31,0.51-0.54,1.08-0.69,1.69c-0.15,0.62-0.22,1.23-0.22,1.82v10.56h-4.61V17.22
	c0-1.19-0.2-2.12-0.62-2.77c-0.41-0.66-1.2-0.99-2.36-0.99c-0.67,0-1.24,0.16-1.71,0.47c-0.47,0.31-0.87,0.72-1.19,1.23
	c-0.32,0.51-0.56,1.08-0.71,1.69c-0.15,0.62-0.22,1.23-0.22,1.82v10.56H88.5V9.89h3.87l0.37,2.57c0.54-0.89,1.28-1.62,2.2-2.19
	c0.91-0.57,2.02-0.86,3.31-0.86c1.36,0,2.5,0.28,3.42,0.84c0.92,0.56,1.62,1.33,2.12,2.32c0.57-1.01,1.36-1.79,2.36-2.34
	c1-0.54,2.16-0.82,3.48-0.82c2.08,0,3.65,0.63,4.7,1.88c1.06,1.26,1.58,2.88,1.58,4.89v13.05H111.29z"/>
<path class="st1" d="M137.33,19.53c0,3.85-1.15,6.72-3.46,8.63c-0.6,0.5-1.28,0.88-2.07,1.15c-0.78,0.27-1.67,0.41-2.65,0.41
	c-1.17,0-2.19-0.18-3.07-0.54c-0.88-0.36-1.54-0.81-1.99-1.36v8.82h-4.65V9.89h4.02l0.3,2.12c0.57-0.89,1.35-1.54,2.34-1.95
	c0.99-0.41,2.02-0.62,3.09-0.62c0.97,0,1.84,0.15,2.62,0.45c0.78,0.3,1.47,0.69,2.07,1.19c1.17,0.94,2.03,2.12,2.61,3.55
	C137.04,16.06,137.33,17.69,137.33,19.53 M132.6,19.6c0-0.84-0.08-1.68-0.24-2.51c-0.16-0.83-0.49-1.57-0.99-2.21
	c-0.35-0.42-0.78-0.78-1.28-1.08c-0.51-0.3-1.12-0.45-1.84-0.45c-0.92,0-1.66,0.19-2.23,0.58c-0.57,0.38-1.01,0.88-1.34,1.49
	c-0.32,0.61-0.54,1.28-0.65,2.03c-0.11,0.74-0.17,1.46-0.17,2.15c0,0.7,0.06,1.41,0.17,2.14c0.11,0.73,0.33,1.4,0.65,2.01
	c0.33,0.61,0.77,1.1,1.34,1.49c0.57,0.38,1.31,0.58,2.23,0.58c0.72,0,1.33-0.15,1.84-0.45c0.51-0.3,0.94-0.66,1.28-1.08
	c0.5-0.64,0.82-1.38,0.99-2.2C132.53,21.28,132.6,20.45,132.6,19.6"/>
<path class="st1" d="M151.12,14.17c-0.57-0.12-1.1-0.19-1.6-0.19c-1.64,0-2.87,0.52-3.72,1.56c-0.84,1.05-1.26,2.35-1.26,3.91v9.77
	h-4.73V9.89h3.97l0.41,2.87c0.45-1.1,1.19-1.9,2.21-2.39c1.03-0.49,2.11-0.74,3.26-0.74c0.49,0,0.98,0.03,1.45,0.11V14.17z"/>
<path class="st1" d="M168.6,19.57c0,1.64-0.2,3-0.59,4.11c-0.4,1.1-0.96,2.11-1.67,3.03c-0.67,0.82-1.59,1.53-2.77,2.12
	c-1.18,0.59-2.51,0.89-4,0.89c-1.49,0-2.82-0.3-3.99-0.89c-1.18-0.6-2.1-1.3-2.77-2.12c-0.72-0.92-1.28-1.92-1.67-3.03
	c-0.39-1.1-0.59-2.47-0.59-4.11c0-1.64,0.2-3,0.59-4.11c0.39-1.11,0.96-2.12,1.67-3.03c0.67-0.82,1.59-1.52,2.77-2.12
	c1.18-0.59,2.51-0.89,3.99-0.89c1.49,0,2.82,0.3,4,0.89c1.17,0.6,2.1,1.3,2.77,2.12c0.72,0.92,1.28,1.93,1.67,3.03
	C168.4,16.56,168.6,17.93,168.6,19.57 M163.88,19.57c0-0.92-0.09-1.8-0.26-2.66c-0.17-0.86-0.55-1.6-1.12-2.21
	c-0.32-0.35-0.73-0.64-1.23-0.88c-0.5-0.23-1.07-0.35-1.71-0.35c-0.64,0-1.21,0.12-1.71,0.35c-0.5,0.24-0.9,0.53-1.23,0.88
	c-0.57,0.62-0.94,1.36-1.12,2.21c-0.17,0.86-0.26,1.74-0.26,2.66c0,0.91,0.09,1.8,0.26,2.66c0.17,0.85,0.55,1.59,1.12,2.21
	c0.32,0.35,0.73,0.64,1.23,0.88c0.49,0.24,1.07,0.36,1.71,0.36c0.65,0,1.22-0.12,1.71-0.36c0.5-0.24,0.91-0.52,1.23-0.88
	c0.57-0.62,0.94-1.36,1.12-2.21C163.79,21.37,163.88,20.48,163.88,19.57"/>
<path class="st1" d="M193.9,29.24V17.22c0-1.19-0.21-2.12-0.61-2.77c-0.41-0.66-1.2-0.99-2.36-0.99c-0.67,0-1.24,0.16-1.71,0.47
	c-0.47,0.31-0.86,0.72-1.17,1.23c-0.31,0.51-0.54,1.08-0.68,1.69c-0.15,0.62-0.22,1.23-0.22,1.82v10.56h-4.61V17.22
	c0-1.19-0.2-2.12-0.61-2.77c-0.41-0.66-1.2-0.99-2.36-0.99c-0.67,0-1.24,0.16-1.71,0.47c-0.47,0.31-0.87,0.72-1.19,1.23
	c-0.32,0.51-0.55,1.08-0.7,1.69c-0.15,0.62-0.23,1.23-0.23,1.82v10.56h-4.61V9.89h3.87l0.38,2.57c0.54-0.89,1.27-1.62,2.19-2.19
	c0.92-0.57,2.02-0.86,3.31-0.86c1.36,0,2.5,0.28,3.42,0.84c0.92,0.56,1.63,1.33,2.12,2.32c0.57-1.01,1.36-1.79,2.36-2.34
	c1.01-0.54,2.17-0.82,3.48-0.82c2.08,0,3.65,0.63,4.7,1.88c1.05,1.26,1.58,2.88,1.58,4.89v13.05H193.9z"/>
<path class="st1" d="M201.37,8.11l-1.34-2.23l6.1-4.72l1.86,3.12L201.37,8.11z M202.11,9.89h4.72v19.34h-4.72V9.89z"/>
<path class="st1" d="M225.73,23.25c0,0.94-0.15,1.76-0.46,2.46c-0.31,0.69-0.72,1.29-1.21,1.78c-0.79,0.8-1.76,1.37-2.9,1.71
	c-1.14,0.35-2.38,0.52-3.72,0.52c-1.24,0-2.39-0.18-3.46-0.54c-1.07-0.36-2-0.92-2.79-1.69c-0.57-0.55-1.05-1.21-1.45-1.97
	c-0.4-0.77-0.6-1.61-0.6-2.53h4.35c0,0.42,0.09,0.84,0.29,1.26c0.2,0.42,0.45,0.76,0.74,1c0.37,0.3,0.79,0.51,1.25,0.65
	c0.46,0.14,1.02,0.21,1.69,0.21c0.4,0,0.82-0.03,1.29-0.1c0.45-0.06,0.89-0.18,1.28-0.35c0.4-0.18,0.72-0.42,0.98-0.75
	c0.26-0.32,0.39-0.74,0.39-1.26c0-0.57-0.17-1.03-0.52-1.38c-0.34-0.35-0.82-0.57-1.41-0.67c-0.87-0.12-1.76-0.23-2.68-0.32
	c-0.92-0.08-1.81-0.23-2.68-0.43c-0.67-0.15-1.27-0.39-1.8-0.71c-0.54-0.32-1-0.71-1.4-1.17c-0.4-0.46-0.7-0.96-0.91-1.52
	c-0.21-0.56-0.32-1.15-0.32-1.76c0-0.99,0.19-1.84,0.56-2.55c0.37-0.71,0.84-1.31,1.41-1.8c0.72-0.62,1.58-1.1,2.57-1.43
	c0.99-0.33,2.09-0.5,3.31-0.5c1.17,0,2.29,0.18,3.37,0.55c1.08,0.38,1.97,0.95,2.69,1.71c0.52,0.57,0.93,1.2,1.24,1.88
	c0.31,0.68,0.47,1.38,0.47,2.1h-4.43c0-0.38-0.07-0.71-0.22-1c-0.15-0.3-0.33-0.57-0.56-0.82c-0.28-0.27-0.64-0.49-1.1-0.65
	c-0.46-0.16-0.93-0.24-1.43-0.24c-0.35,0-0.68,0.01-1,0.04c-0.32,0.02-0.66,0.11-1.01,0.26c-0.42,0.18-0.77,0.43-1.06,0.78
	c-0.28,0.35-0.43,0.77-0.43,1.26c0,0.7,0.24,1.18,0.72,1.44c0.49,0.26,0.99,0.42,1.51,0.5c0.44,0.05,0.82,0.09,1.12,0.13
	c0.3,0.04,0.6,0.07,0.89,0.11c0.3,0.04,0.61,0.08,0.93,0.13c0.32,0.05,0.72,0.11,1.19,0.18c1.54,0.25,2.8,0.83,3.79,1.76
	C225.23,20.47,225.73,21.71,225.73,23.25"/>
<rect x="0" class="st2" width="237.14" height="56.84"/>
<g>
	<path class="st3" d="M121.59,50.02h-0.73l-3.76-10.5h0.81l3.33,9.39l3.29-9.39h0.81L121.59,50.02z"/>
	<path class="st3" d="M132.26,50.02c-0.09,0.02-0.15,0.03-0.18,0.04c-0.03,0-0.09,0.01-0.18,0.01c-0.23,0-0.42-0.04-0.57-0.12
		c-0.15-0.08-0.27-0.18-0.36-0.32c-0.09-0.13-0.15-0.29-0.19-0.46c-0.03-0.17-0.05-0.36-0.05-0.56c-0.1,0.27-0.24,0.5-0.42,0.7
		c-0.18,0.2-0.39,0.36-0.63,0.5c-0.24,0.13-0.49,0.23-0.77,0.3c-0.28,0.07-0.56,0.1-0.84,0.1c-0.36,0-0.69-0.05-1-0.16
		s-0.58-0.25-0.81-0.45c-0.23-0.2-0.41-0.44-0.54-0.72c-0.13-0.28-0.19-0.6-0.19-0.96c0-0.66,0.23-1.18,0.69-1.56
		c0.46-0.38,1.06-0.6,1.8-0.64l2.73-0.19v-0.73c0-0.61-0.19-1.05-0.56-1.3c-0.37-0.26-0.84-0.38-1.4-0.38
		c-0.59,0-1.09,0.13-1.48,0.4c-0.4,0.27-0.61,0.68-0.65,1.23h-0.74c0.03-0.38,0.12-0.71,0.27-0.99c0.15-0.29,0.36-0.53,0.61-0.73
		c0.25-0.2,0.55-0.35,0.88-0.45c0.34-0.1,0.71-0.16,1.11-0.16c0.25,0,0.5,0.02,0.76,0.07c0.26,0.04,0.5,0.12,0.73,0.23
		c0.23,0.11,0.43,0.25,0.61,0.42s0.32,0.39,0.41,0.64c0.09,0.23,0.14,0.46,0.16,0.7c0.02,0.24,0.03,0.48,0.03,0.73v3.38
		c0,0.26,0.03,0.45,0.1,0.59c0.06,0.14,0.22,0.21,0.48,0.21c0.09,0,0.16,0,0.21-0.01V50.02z M130.73,46.21l-2.65,0.16
		c-0.55,0.04-0.99,0.2-1.32,0.47s-0.49,0.63-0.49,1.09c0,0.53,0.18,0.93,0.53,1.2c0.35,0.27,0.79,0.4,1.33,0.4
		c0.46,0,0.86-0.09,1.19-0.26c0.33-0.17,0.6-0.4,0.81-0.67c0.21-0.28,0.36-0.59,0.46-0.94c0.1-0.35,0.15-0.7,0.15-1.06V46.21z"/>
	<path class="st3" d="M136.11,50.02c-0.08,0.02-0.17,0.04-0.27,0.06c-0.1,0.02-0.23,0.03-0.39,0.03c-0.47,0-0.84-0.13-1.1-0.38
		c-0.26-0.25-0.39-0.65-0.39-1.19v-9.21h0.74v9.18c0,0.26,0.05,0.47,0.15,0.64c0.1,0.17,0.31,0.25,0.62,0.25c0.15,0,0.26,0,0.35,0
		c0.08,0,0.18-0.01,0.29-0.03V50.02z"/>
	<path class="st3" d="M139.81,50.02c-0.08,0.02-0.17,0.04-0.27,0.06c-0.1,0.02-0.23,0.03-0.39,0.03c-0.47,0-0.84-0.13-1.1-0.38
		c-0.26-0.25-0.39-0.65-0.39-1.19v-9.21h0.74v9.18c0,0.26,0.05,0.47,0.15,0.64c0.1,0.17,0.31,0.25,0.62,0.25c0.15,0,0.26,0,0.35,0
		c0.08,0,0.18-0.01,0.29-0.03V50.02z"/>
	<path class="st3" d="M146.7,47.96c0,0.52-0.17,0.98-0.5,1.36c-0.27,0.3-0.61,0.52-1.03,0.67c-0.42,0.15-0.88,0.22-1.37,0.22
		c-0.5,0-0.96-0.08-1.38-0.24c-0.41-0.16-0.77-0.4-1.05-0.71c-0.21-0.24-0.36-0.47-0.45-0.7c-0.09-0.23-0.15-0.49-0.17-0.8h0.76
		c0.04,0.43,0.22,0.81,0.55,1.14c0.22,0.21,0.47,0.36,0.77,0.45s0.62,0.14,0.98,0.14c0.39,0,0.73-0.04,1.02-0.13
		c0.3-0.09,0.54-0.23,0.73-0.42c0.14-0.14,0.24-0.28,0.3-0.42c0.06-0.14,0.1-0.32,0.1-0.53c0-0.33-0.12-0.63-0.35-0.88
		c-0.23-0.25-0.57-0.41-1.01-0.47l-1.44-0.19c-0.31-0.04-0.61-0.11-0.91-0.22c-0.3-0.11-0.56-0.28-0.76-0.52
		c-0.28-0.33-0.41-0.72-0.41-1.17c0-0.3,0.06-0.57,0.17-0.81c0.11-0.24,0.27-0.45,0.47-0.63c0.27-0.25,0.58-0.42,0.93-0.53
		c0.35-0.11,0.72-0.16,1.1-0.16c0.44,0,0.86,0.07,1.26,0.21c0.39,0.14,0.72,0.36,0.98,0.66c0.17,0.2,0.3,0.41,0.4,0.65
		c0.1,0.24,0.15,0.47,0.16,0.71h-0.74c-0.02-0.12-0.06-0.26-0.11-0.43c-0.05-0.17-0.14-0.32-0.26-0.46c-0.17-0.2-0.4-0.36-0.68-0.47
		c-0.29-0.12-0.62-0.18-1.01-0.18c-0.57,0-1.02,0.11-1.33,0.34c-0.39,0.28-0.58,0.62-0.58,1.02c0,0.32,0.1,0.58,0.3,0.8
		c0.2,0.22,0.58,0.37,1.14,0.44l1.41,0.19c0.35,0.05,0.65,0.14,0.9,0.27c0.26,0.13,0.47,0.29,0.64,0.48
		c0.17,0.19,0.29,0.39,0.38,0.62C146.65,47.51,146.7,47.73,146.7,47.96z"/>
	<path class="st3" d="M156.37,50.02l-0.09-1.3c-0.1,0.23-0.24,0.43-0.41,0.62c-0.18,0.19-0.38,0.35-0.59,0.47
		c-0.22,0.13-0.45,0.23-0.7,0.3s-0.5,0.1-0.75,0.1c-0.42,0-0.8-0.06-1.12-0.18c-0.32-0.12-0.6-0.29-0.85-0.51
		c-0.41-0.37-0.72-0.83-0.92-1.38c-0.2-0.56-0.3-1.16-0.3-1.8c0-0.61,0.09-1.2,0.28-1.75c0.19-0.55,0.48-1.02,0.87-1.39
		c0.25-0.24,0.54-0.42,0.87-0.56c0.33-0.14,0.71-0.21,1.15-0.21c0.27,0,0.53,0.03,0.78,0.1c0.25,0.07,0.49,0.17,0.7,0.3
		c0.22,0.13,0.41,0.28,0.59,0.46c0.17,0.18,0.31,0.37,0.41,0.58v-4.53h0.74v10.69H156.37z M156.29,46.32c0-0.55-0.07-1.04-0.21-1.47
		c-0.14-0.43-0.38-0.8-0.73-1.12c-0.19-0.18-0.41-0.32-0.66-0.42s-0.55-0.16-0.9-0.16c-0.35,0-0.65,0.06-0.9,0.18
		c-0.26,0.12-0.48,0.28-0.68,0.47c-0.29,0.32-0.5,0.7-0.63,1.14s-0.2,0.9-0.2,1.38c0,0.53,0.08,1.03,0.23,1.5
		c0.15,0.46,0.4,0.85,0.75,1.16c0.19,0.17,0.4,0.3,0.64,0.39c0.24,0.09,0.51,0.13,0.83,0.13c0.33,0,0.61-0.05,0.86-0.16
		c0.25-0.11,0.46-0.25,0.65-0.43c0.34-0.33,0.58-0.71,0.73-1.15S156.29,46.83,156.29,46.32z"/>
	<path class="st3" d="M165.28,46.5h-5.66c0.01,0.43,0.08,0.84,0.21,1.22s0.32,0.71,0.56,1c0.21,0.25,0.46,0.44,0.75,0.58
		c0.29,0.14,0.64,0.21,1.04,0.21c0.66,0,1.2-0.22,1.61-0.65c0.14-0.14,0.25-0.29,0.35-0.46c0.09-0.17,0.17-0.37,0.21-0.59h0.77
		c-0.05,0.32-0.15,0.61-0.3,0.87c-0.15,0.26-0.33,0.49-0.53,0.69c-0.27,0.27-0.58,0.48-0.94,0.63c-0.36,0.15-0.75,0.23-1.18,0.23
		c-0.53,0-0.99-0.1-1.38-0.3c-0.39-0.2-0.71-0.45-0.98-0.76c-0.31-0.36-0.54-0.77-0.7-1.25c-0.16-0.48-0.24-1-0.24-1.56
		c0-0.47,0.05-0.93,0.15-1.38c0.1-0.44,0.29-0.86,0.58-1.26c0.63-0.86,1.47-1.29,2.52-1.29c0.5,0,0.95,0.1,1.34,0.3
		c0.39,0.2,0.72,0.46,0.99,0.79c0.27,0.33,0.48,0.71,0.62,1.15c0.14,0.43,0.21,0.88,0.21,1.35L165.28,46.5z M164.54,45.81
		c-0.01-0.36-0.07-0.69-0.18-1.01c-0.11-0.32-0.27-0.61-0.47-0.86s-0.46-0.45-0.76-0.6c-0.3-0.15-0.63-0.22-1.01-0.22
		c-0.39,0-0.73,0.07-1.04,0.21c-0.31,0.14-0.57,0.34-0.78,0.59c-0.21,0.25-0.38,0.53-0.5,0.86c-0.12,0.33-0.18,0.67-0.18,1.04
		H164.54z"/>
	<path class="st3" d="M169.18,50.02c-0.08,0.02-0.17,0.04-0.27,0.06c-0.1,0.02-0.23,0.03-0.39,0.03c-0.47,0-0.84-0.13-1.1-0.38
		c-0.26-0.25-0.39-0.65-0.39-1.19v-9.21h0.74v9.18c0,0.26,0.05,0.47,0.15,0.64c0.1,0.17,0.31,0.25,0.62,0.25c0.15,0,0.26,0,0.35,0
		c0.08,0,0.18-0.01,0.29-0.03V50.02z"/>
	<path class="st3" d="M176.45,50.02h-0.73l-3.76-10.5h0.81l3.33,9.39l3.29-9.39h0.81L176.45,50.02z"/>
	<path class="st3" d="M181.31,40.56v-1.04h1.04v1.04H181.31z M181.44,50.02v-7.41h0.79v7.41H181.44z"/>
	<path class="st3" d="M189.88,50.02v-4.84c0-0.65-0.15-1.15-0.44-1.5c-0.3-0.35-0.79-0.53-1.47-0.53c-0.45,0-0.84,0.09-1.16,0.27
		c-0.32,0.18-0.57,0.42-0.76,0.72c-0.19,0.3-0.33,0.63-0.41,1.01c-0.08,0.38-0.13,0.77-0.13,1.16v3.7h-0.74v-7.41h0.65l0.09,1.35
		c0.1-0.24,0.24-0.45,0.41-0.64s0.38-0.35,0.6-0.48c0.22-0.13,0.46-0.24,0.72-0.31c0.26-0.07,0.51-0.11,0.77-0.11
		c0.86,0,1.51,0.24,1.95,0.73c0.44,0.48,0.66,1.15,0.66,1.98v4.89H189.88z"/>
	<path class="st3" d="M199.1,50.02c-0.09,0.02-0.15,0.03-0.18,0.04c-0.03,0-0.09,0.01-0.18,0.01c-0.23,0-0.42-0.04-0.57-0.12
		c-0.15-0.08-0.27-0.18-0.36-0.32c-0.09-0.13-0.15-0.29-0.19-0.46c-0.03-0.17-0.05-0.36-0.05-0.56c-0.1,0.27-0.24,0.5-0.42,0.7
		c-0.18,0.2-0.39,0.36-0.63,0.5c-0.24,0.13-0.49,0.23-0.77,0.3c-0.28,0.07-0.56,0.1-0.84,0.1c-0.36,0-0.69-0.05-1-0.16
		s-0.58-0.25-0.81-0.45c-0.23-0.2-0.41-0.44-0.54-0.72c-0.13-0.28-0.19-0.6-0.19-0.96c0-0.66,0.23-1.18,0.69-1.56
		c0.46-0.38,1.06-0.6,1.8-0.64l2.73-0.19v-0.73c0-0.61-0.19-1.05-0.56-1.3c-0.37-0.26-0.84-0.38-1.4-0.38
		c-0.59,0-1.09,0.13-1.48,0.4c-0.4,0.27-0.61,0.68-0.65,1.23h-0.74c0.03-0.38,0.12-0.71,0.27-0.99c0.15-0.29,0.36-0.53,0.61-0.73
		c0.25-0.2,0.55-0.35,0.88-0.45c0.34-0.1,0.71-0.16,1.11-0.16c0.25,0,0.5,0.02,0.76,0.07c0.26,0.04,0.5,0.12,0.73,0.23
		c0.23,0.11,0.43,0.25,0.61,0.42s0.32,0.39,0.41,0.64c0.09,0.23,0.14,0.46,0.16,0.7c0.02,0.24,0.03,0.48,0.03,0.73v3.38
		c0,0.26,0.03,0.45,0.1,0.59c0.06,0.14,0.22,0.21,0.48,0.21c0.09,0,0.16,0,0.21-0.01V50.02z M197.57,46.21l-2.65,0.16
		c-0.55,0.04-0.99,0.2-1.32,0.47s-0.49,0.63-0.49,1.09c0,0.53,0.18,0.93,0.53,1.2c0.35,0.27,0.79,0.4,1.33,0.4
		c0.46,0,0.86-0.09,1.19-0.26c0.33-0.17,0.6-0.4,0.81-0.67c0.21-0.28,0.36-0.59,0.46-0.94c0.1-0.35,0.15-0.7,0.15-1.06V46.21z"/>
	<path class="st3" d="M202.95,50.02c-0.08,0.02-0.17,0.04-0.27,0.06c-0.1,0.02-0.23,0.03-0.39,0.03c-0.47,0-0.84-0.13-1.1-0.38
		c-0.26-0.25-0.39-0.65-0.39-1.19v-9.21h0.74v9.18c0,0.26,0.05,0.47,0.15,0.64c0.1,0.17,0.31,0.25,0.62,0.25c0.15,0,0.26,0,0.35,0
		c0.08,0,0.18-0.01,0.29-0.03V50.02z"/>
	<path class="st3" d="M210.26,46.32c0,0.63-0.08,1.2-0.24,1.69c-0.16,0.49-0.43,0.93-0.81,1.32c-0.26,0.26-0.57,0.47-0.93,0.64
		c-0.36,0.17-0.77,0.25-1.24,0.25c-0.46,0-0.88-0.08-1.24-0.25c-0.36-0.17-0.67-0.38-0.93-0.64c-0.39-0.38-0.66-0.82-0.81-1.32
		c-0.16-0.49-0.24-1.06-0.24-1.69c0-0.63,0.08-1.19,0.24-1.69c0.16-0.49,0.43-0.93,0.81-1.32c0.26-0.26,0.57-0.47,0.93-0.64
		c0.36-0.17,0.77-0.25,1.24-0.25c0.46,0,0.88,0.08,1.24,0.25c0.36,0.17,0.67,0.38,0.93,0.64c0.39,0.38,0.66,0.82,0.81,1.32
		C210.18,45.12,210.26,45.69,210.26,46.32z M209.51,46.32c0-0.48-0.05-0.94-0.16-1.36c-0.11-0.42-0.33-0.81-0.67-1.16
		c-0.2-0.2-0.43-0.36-0.7-0.47s-0.58-0.18-0.93-0.18s-0.67,0.06-0.93,0.18s-0.5,0.28-0.7,0.47c-0.34,0.35-0.56,0.73-0.67,1.16
		c-0.11,0.42-0.16,0.88-0.16,1.36c0,0.48,0.05,0.94,0.16,1.36c0.11,0.42,0.33,0.81,0.67,1.16c0.2,0.2,0.43,0.36,0.7,0.47
		s0.58,0.18,0.93,0.18s0.67-0.06,0.93-0.18s0.5-0.28,0.7-0.47c0.34-0.35,0.56-0.73,0.67-1.16C209.45,47.26,209.51,46.8,209.51,46.32
		z"/>
	<path class="st3" d="M218.51,46.3c0,0.61-0.09,1.2-0.28,1.75c-0.19,0.55-0.48,1.02-0.87,1.39c-0.25,0.24-0.54,0.42-0.87,0.56
		c-0.33,0.14-0.71,0.21-1.15,0.21c-0.27,0-0.53-0.03-0.78-0.1c-0.25-0.07-0.49-0.17-0.7-0.3c-0.22-0.13-0.41-0.28-0.58-0.46
		c-0.17-0.18-0.31-0.37-0.41-0.58v4.21h-0.74V42.62h0.65l0.09,1.3c0.1-0.23,0.24-0.43,0.41-0.62s0.38-0.35,0.59-0.47
		c0.22-0.13,0.45-0.23,0.7-0.3c0.25-0.07,0.5-0.1,0.75-0.1c0.42,0,0.8,0.06,1.12,0.18c0.32,0.12,0.6,0.29,0.85,0.51
		c0.41,0.37,0.72,0.83,0.92,1.38C218.41,45.06,218.51,45.66,218.51,46.3z M217.76,46.32c0-0.53-0.08-1.03-0.23-1.5
		c-0.15-0.46-0.4-0.85-0.75-1.16c-0.19-0.17-0.4-0.3-0.64-0.39s-0.51-0.13-0.83-0.13c-0.33,0-0.61,0.05-0.86,0.16
		c-0.25,0.11-0.46,0.25-0.65,0.43c-0.34,0.33-0.58,0.71-0.73,1.15s-0.22,0.92-0.22,1.43c0,0.55,0.07,1.04,0.21,1.47
		c0.14,0.43,0.38,0.8,0.73,1.12c0.19,0.18,0.41,0.32,0.66,0.42c0.25,0.1,0.55,0.16,0.9,0.16c0.35,0,0.65-0.06,0.9-0.18
		c0.26-0.12,0.48-0.28,0.68-0.47c0.29-0.32,0.5-0.7,0.63-1.14S217.76,46.79,217.76,46.32z"/>
	<path class="st3" d="M226.13,46.32c0,0.63-0.08,1.2-0.24,1.69c-0.16,0.49-0.43,0.93-0.81,1.32c-0.26,0.26-0.57,0.47-0.93,0.64
		c-0.36,0.17-0.77,0.25-1.24,0.25c-0.46,0-0.88-0.08-1.24-0.25c-0.36-0.17-0.67-0.38-0.93-0.64c-0.39-0.38-0.66-0.82-0.81-1.32
		c-0.16-0.49-0.24-1.06-0.24-1.69c0-0.63,0.08-1.19,0.24-1.69c0.16-0.49,0.43-0.93,0.81-1.32c0.26-0.26,0.57-0.47,0.93-0.64
		c0.36-0.17,0.77-0.25,1.24-0.25c0.46,0,0.88,0.08,1.24,0.25c0.36,0.17,0.67,0.38,0.93,0.64c0.39,0.38,0.66,0.82,0.81,1.32
		C226.05,45.12,226.13,45.69,226.13,46.32z M225.37,46.32c0-0.48-0.05-0.94-0.16-1.36c-0.11-0.42-0.33-0.81-0.67-1.16
		c-0.2-0.2-0.43-0.36-0.7-0.47s-0.58-0.18-0.93-0.18s-0.67,0.06-0.93,0.18s-0.5,0.28-0.7,0.47c-0.34,0.35-0.56,0.73-0.67,1.16
		c-0.11,0.42-0.16,0.88-0.16,1.36c0,0.48,0.05,0.94,0.16,1.36c0.11,0.42,0.33,0.81,0.67,1.16c0.2,0.2,0.43,0.36,0.7,0.47
		s0.58,0.18,0.93,0.18s0.67-0.06,0.93-0.18s0.5-0.28,0.7-0.47c0.34-0.35,0.56-0.73,0.67-1.16C225.32,47.26,225.37,46.8,225.37,46.32
		z M221.89,41.61l-0.25-0.4l2.34-1.72l0.41,0.65L221.89,41.61z"/>
</g>
</svg>
