<svg version="1.1" xmlns="http://www.w3.org/2000/svg" xmlns:xlink="http://www.w3.org/1999/xlink" x="0px" y="0px"
	 width="373.49px" height="105.9px" viewBox="0 0 373.49 105.9" style="enable-background:new 0 0 373.49 105.9;"
	 xml:space="preserve">
<style type="text/css">
	.st0{clip-path:url(#SVGID_2_);fill:url(#SVGID_3_);}
	.st1{fill:#27292E;}
	.st2{fill:none;stroke:#12ACE3;stroke-width:0.585;stroke-linecap:square;stroke-miterlimit:10;}
	.st3{fill:#12ACE3;}
	.st4{fill:none;stroke:#12ACE3;stroke-width:0.585;stroke-linecap:square;stroke-miterlimit:10;stroke-dasharray:2.919,2.919;}
	.st5{fill:none;}
	.st6{clip-path:url(#SVGID_5_);fill:#CCE4F6;}
	.st7{clip-path:url(#SVGID_5_);fill:#34454F;}
	.st8{clip-path:url(#SVGID_5_);fill:#0FACE3;}
	.st9{fill:#18171C;}
	.st10{clip-path:url(#SVGID_7_);fill:#12ACE3;}
	.st11{clip-path:url(#SVGID_9_);fill:#CCE4F6;}
	.st12{clip-path:url(#SVGID_9_);fill:#0FACE3;}
	.st13{clip-path:url(#SVGID_11_);fill:none;stroke:#12ACE3;stroke-width:0.585;stroke-linecap:square;stroke-miterlimit:10;}
	.st14{clip-path:url(#SVGID_13_);fill:none;stroke:#12ACE3;stroke-width:0.585;stroke-linecap:square;stroke-miterlimit:10;}
	.st15{clip-path:url(#SVGID_15_);fill:none;stroke:#12ACE3;stroke-width:0.585;stroke-linecap:square;stroke-miterlimit:10;}
	.st16{fill:#898E91;}
	.st17{clip-path:url(#SVGID_17_);fill:url(#SVGID_18_);}
	.st18{clip-path:url(#SVGID_20_);fill:#CCE4F6;}
	.st19{clip-path:url(#SVGID_20_);fill:#34454F;}
	.st20{clip-path:url(#SVGID_20_);fill:#0FACE3;}
	.st21{clip-path:url(#SVGID_22_);fill:#12ACE3;}
	.st22{clip-path:url(#SVGID_24_);fill:#CCE4F6;}
	.st23{clip-path:url(#SVGID_24_);fill:#0FACE3;}
	.st24{clip-path:url(#SVGID_26_);fill:none;stroke:#12ACE3;stroke-width:0.585;stroke-linecap:square;stroke-miterlimit:10;}
	.st25{clip-path:url(#SVGID_28_);fill:none;stroke:#12ACE3;stroke-width:0.585;stroke-linecap:square;stroke-miterlimit:10;}
	.st26{clip-path:url(#SVGID_30_);fill:none;stroke:#12ACE3;stroke-width:0.585;stroke-linecap:square;stroke-miterlimit:10;}
</style>
<defs>
</defs>
<g>
	<defs>
		<path id="SVGID_1_" d="M38.21,47.71h3.5v0.59h-3.5V47.71z M44.05,47.71h3.5v0.59h-3.5V47.71z M49.89,47.71h3.5v0.59h-3.5V47.71z
			 M67.4,47.71h3.5v0.59h-3.5V47.71z M73.24,47.71h3.5v0.59h-3.5V47.71z M79.08,47.71h3.5v0.59h-3.5V47.71z M77.57,38.65l2.04,2.61
			c-0.04,0.03-0.08,0.06-0.12,0.1c-0.01,0.01-0.02,0.02-0.03,0.02c-0.03,0.02-0.06,0.05-0.09,0.07c-0.01,0.01-0.02,0.02-0.03,0.03
			c-0.03,0.02-0.06,0.05-0.09,0.07c-0.01,0.01-0.02,0.01-0.03,0.02c-0.04,0.03-0.07,0.06-0.11,0.09c0,0,0,0-0.01,0
			c-0.04,0.03-0.08,0.07-0.12,0.1c0,0-0.01,0-0.01,0.01c-0.04,0.03-0.07,0.06-0.11,0.09c-0.01,0.01-0.02,0.01-0.02,0.02
			c-0.03,0.02-0.06,0.05-0.1,0.07c-0.01,0.01-0.02,0.01-0.03,0.02c-0.04,0.03-0.07,0.05-0.1,0.08c0,0-0.01,0.01-0.01,0.01
			c-0.08,0.06-0.16,0.12-0.24,0.18c-0.01,0.01-0.01,0.01-0.02,0.01c-0.03,0.02-0.07,0.05-0.1,0.07c-0.01,0.01-0.02,0.01-0.03,0.02
			c-0.03,0.02-0.07,0.05-0.1,0.07c-0.01,0.01-0.02,0.01-0.02,0.02c-0.08,0.06-0.16,0.12-0.24,0.18c0,0-0.01,0.01-0.01,0.01
			c-0.04,0.02-0.07,0.05-0.1,0.07c-0.01,0.01-0.02,0.01-0.03,0.02c-0.03,0.02-0.06,0.04-0.09,0.06c-0.01,0.01-0.02,0.02-0.04,0.03
			c-0.03,0.02-0.06,0.04-0.09,0.06c-0.01,0.01-0.02,0.01-0.03,0.02c-0.04,0.03-0.08,0.06-0.12,0.08c-0.01,0-0.01,0.01-0.02,0.01
			c-0.03,0.02-0.07,0.05-0.1,0.07c-0.01,0.01-0.03,0.02-0.04,0.03c-0.02,0.02-0.05,0.03-0.08,0.05c-0.02,0.01-0.03,0.02-0.05,0.03
			c-0.02,0.02-0.05,0.03-0.07,0.05c-0.02,0.01-0.03,0.02-0.05,0.03c-0.02,0.02-0.05,0.03-0.07,0.05c-0.02,0.01-0.04,0.03-0.07,0.04
			c-0.03,0.02-0.06,0.04-0.09,0.06c-0.02,0.01-0.04,0.03-0.06,0.04c-0.02,0.01-0.04,0.02-0.05,0.04c-0.02,0.01-0.04,0.03-0.07,0.04
			c-0.02,0.01-0.04,0.02-0.05,0.03c-0.02,0.01-0.04,0.03-0.07,0.04c-0.01,0.01-0.03,0.02-0.05,0.03c-0.09,0.06-0.18,0.12-0.28,0.17
			c-0.01,0-0.01,0.01-0.01,0.01c-0.03,0.02-0.06,0.04-0.09,0.06c-0.01,0.01-0.02,0.01-0.02,0.01c-0.03,0.02-0.06,0.04-0.09,0.06
			c-0.01,0-0.01,0-0.01,0.01c-3.32,2-6.93,3.26-10.95,3.75h0.2v0.59h-3.5v-0.36c-0.05,0-0.1,0-0.15,0c-0.01,0-0.02,0-0.02,0
			c-0.04,0-0.08,0-0.12,0c-0.02,0-0.04,0-0.06,0c-0.03,0-0.06,0-0.09,0c-0.05,0-0.11,0-0.16,0c-0.05,0-0.1,0-0.15,0
			c-0.01,0-0.03,0-0.04,0c-0.05,0-0.1,0-0.14,0c-0.01,0-0.03,0-0.04,0c-0.04,0-0.07,0-0.11,0c-0.02,0-0.04,0-0.06,0
			c-0.04,0-0.08,0-0.12,0c-0.02,0-0.05,0-0.08,0c-0.02,0-0.04,0-0.06,0c-0.31-0.01-0.62-0.02-0.93-0.03v0.4h-3.5v-0.59h1.31
			c-5.21-0.63-9.72-2.55-13.8-5.7c-0.01-0.01-0.01-0.01-0.02-0.01c-0.03-0.02-0.06-0.04-0.09-0.07c-0.01-0.01-0.02-0.01-0.02-0.02
			c-0.03-0.02-0.06-0.04-0.08-0.06c-0.01-0.01-0.02-0.02-0.03-0.02c-0.08-0.06-0.16-0.13-0.24-0.19c-0.02-0.01-0.04-0.03-0.05-0.04
			c-0.02-0.01-0.04-0.03-0.06-0.05c-0.02-0.02-0.04-0.03-0.06-0.05c-0.02-0.01-0.03-0.03-0.05-0.04c-0.02-0.02-0.05-0.04-0.07-0.06
			c-0.01-0.01-0.03-0.02-0.04-0.03c-0.04-0.03-0.08-0.06-0.11-0.09l2.04-2.61c5.27,3.75,9.58,5.47,16.61,5.47
			C67.99,44.12,72.3,42.4,77.57,38.65 M50.85,22.28h5.81v5.54h-5.35c-3.35,0-5.54-0.81-6.96-4.05l2.23-1.28
			c1,2.06,2.23,2.54,4.27,2.54V22.28z M65.05,22.28h5.81v5.54h-5.81V22.28z M35.44,7.8c-1.43,0-2.6,1.11-2.6,2.48v37.43h3.04v0.59
			h-3.04v10.09c0,0.01,0,0.03,0,0.04c0,0,0,0.01,0,0.01c0,0.01,0,0.02,0,0.03c0,0,0,0.01,0,0.01c0,0.01,0,0.03,0,0.04
			c0,0,0,0.01,0,0.01c0,0.01,0,0.02,0,0.03c0,0,0,0.01,0,0.01c0,0.01,0,0.03,0,0.04c0,0,0,0,0,0c0,0.01,0,0.02,0,0.04
			c0,0,0,0.01,0,0.01c0,0.01,0,0.02,0,0.04c0,0,0,0,0,0.01c0,0.01,0,0.03,0.01,0.04c0,0,0,0,0,0.01c0,0.01,0,0.02,0.01,0.04
			c0,0,0,0.01,0,0.01c0,0.01,0,0.03,0.01,0.04c0,0,0,0,0,0c0,0.01,0.01,0.03,0.01,0.04c0,0,0,0.01,0,0.01
			c0.01,0.03,0.01,0.05,0.02,0.08c0,0,0,0,0,0c0,0.01,0.01,0.03,0.01,0.04c0,0,0,0,0,0c0.01,0.03,0.02,0.05,0.02,0.08c0,0,0,0,0,0
			c0.01,0.03,0.02,0.05,0.03,0.08c0,0,0,0,0,0c0.17,0.49,0.49,0.91,0.92,1.21c0,0,0,0,0,0c0.01,0.01,0.02,0.01,0.03,0.02
			c0,0,0,0,0.01,0c0.02,0.01,0.04,0.03,0.07,0.04c0,0,0.01,0,0.01,0.01c0.01,0.01,0.02,0.01,0.02,0.01c0,0,0.01,0,0.01,0.01
			c0.01,0.01,0.02,0.01,0.03,0.02c0.01,0,0.01,0.01,0.02,0.01s0.01,0.01,0.02,0.01c0.01,0,0.01,0.01,0.02,0.01
			c0,0,0.01,0.01,0.02,0.01c0.01,0.01,0.02,0.01,0.03,0.02c0,0,0.01,0,0.01,0.01c0.01,0,0.01,0.01,0.02,0.01c0,0,0,0,0,0
			c0.02,0.01,0.04,0.02,0.06,0.03H87c0.02-0.01,0.04-0.02,0.05-0.03c0.01,0,0.01-0.01,0.02-0.01c0.01,0,0.01-0.01,0.02-0.01
			c0.01-0.01,0.02-0.01,0.03-0.02c0,0,0.01,0,0.01-0.01c0.01-0.01,0.02-0.01,0.03-0.02c0,0,0.01,0,0.01,0
			c0.01-0.01,0.02-0.01,0.04-0.02c0,0,0,0,0,0c0.01-0.01,0.02-0.01,0.04-0.02c0,0,0,0,0,0c0.03-0.02,0.05-0.03,0.07-0.05
			c0,0,0,0,0,0c0.02-0.02,0.05-0.03,0.07-0.05c0,0,0,0,0,0c0.02-0.02,0.05-0.04,0.07-0.05c0,0,0,0,0,0
			c0.02-0.02,0.05-0.04,0.07-0.06c0,0,0,0,0,0c0.02-0.02,0.04-0.04,0.07-0.06c0,0,0,0,0,0c0.02-0.02,0.04-0.04,0.07-0.06
			c0,0,0,0,0,0c0.02-0.02,0.04-0.04,0.06-0.06c0,0,0,0,0,0c0.13-0.13,0.24-0.27,0.33-0.43V48.29h-3.16v-0.59h3.16v-0.7h0.36V10.28
			c0-1.37-1.17-2.48-2.6-2.48H35.44z"/>
	</defs>
	<clipPath id="SVGID_2_">
		<use xlink:href="#SVGID_1_"  style="overflow:visible;"/>
	</clipPath>

		<linearGradient id="SVGID_3_" gradientUnits="userSpaceOnUse" x1="-228.189" y1="217.805" x2="-227.189" y2="217.805" gradientTransform="matrix(0 53.6437 53.6437 0 -11623.2295 12248.4297)">
		<stop  offset="0" style="stop-color:#E18433"/>
		<stop  offset="0.2756" style="stop-color:#DE7833"/>
		<stop  offset="0.8103" style="stop-color:#D85933"/>
		<stop  offset="1" style="stop-color:#D54B32"/>
	</linearGradient>
	<rect x="32.84" y="7.8" class="st0" width="55.58" height="52.79"/>
</g>
<path class="st1" d="M123.7,38.2c-0.06,1.04-0.27,2.06-0.6,3.05c-0.34,0.99-0.81,1.87-1.41,2.64c-0.91,1.14-2.12,2.11-3.65,2.92
	c-1.53,0.8-3.3,1.21-5.31,1.21c-2.02,0-3.82-0.41-5.39-1.23c-1.58-0.83-2.82-1.79-3.73-2.9c-0.98-1.24-1.7-2.67-2.17-4.28
	c-0.47-1.61-0.7-3.37-0.7-5.29c0-1.91,0.23-3.68,0.7-5.28c0.47-1.62,1.19-3.04,2.17-4.28c0.91-1.11,2.15-2.07,3.73-2.89
	c1.57-0.82,3.37-1.24,5.39-1.24c2.01,0,3.78,0.41,5.31,1.21c1.53,0.81,2.74,1.78,3.65,2.92c0.6,0.77,1.07,1.66,1.41,2.64
	c0.33,0.99,0.54,2.01,0.6,3.04h-6.19c-0.03-0.46-0.12-0.89-0.25-1.29c-0.14-0.4-0.3-0.76-0.5-1.1c-0.37-0.56-0.89-1.03-1.56-1.39
	c-0.68-0.37-1.49-0.55-2.47-0.55c-0.88,0-1.62,0.15-2.25,0.45c-0.62,0.3-1.15,0.68-1.58,1.15c-0.78,0.83-1.26,1.84-1.46,3.01
	c-0.2,1.17-0.3,2.37-0.3,3.6c0,1.24,0.1,2.43,0.3,3.58c0.2,1.15,0.69,2.14,1.46,2.98c0.43,0.46,0.96,0.85,1.58,1.17
	c0.63,0.32,1.37,0.48,2.25,0.48c0.98,0,1.79-0.18,2.47-0.55c0.67-0.37,1.19-0.82,1.56-1.39c0.2-0.33,0.36-0.7,0.5-1.1
	c0.13-0.4,0.22-0.83,0.25-1.3H123.7z"/>
<path class="st1" d="M149.29,34.37c0,2.22-0.27,4.07-0.8,5.56c-0.54,1.49-1.29,2.86-2.27,4.1c-0.9,1.11-2.16,2.07-3.75,2.87
	c-1.6,0.8-3.4,1.21-5.42,1.21c-2.02,0-3.82-0.4-5.42-1.21c-1.59-0.81-2.84-1.76-3.75-2.87c-0.98-1.24-1.73-2.61-2.27-4.1
	c-0.54-1.5-0.81-3.35-0.81-5.56c0-2.22,0.27-4.07,0.81-5.56c0.54-1.5,1.29-2.87,2.27-4.11c0.9-1.11,2.15-2.06,3.75-2.87
	c1.6-0.8,3.4-1.21,5.42-1.21c2.01,0,3.82,0.41,5.42,1.21c1.59,0.81,2.84,1.76,3.75,2.87c0.98,1.24,1.73,2.61,2.27,4.11
	C149.02,30.31,149.29,32.16,149.29,34.37 M142.89,34.37c0-1.24-0.12-2.44-0.35-3.6c-0.24-1.16-0.74-2.16-1.51-3
	c-0.44-0.47-0.99-0.86-1.66-1.19c-0.67-0.32-1.44-0.48-2.32-0.48c-0.88,0-1.64,0.16-2.31,0.48c-0.67,0.32-1.23,0.72-1.66,1.19
	c-0.77,0.84-1.27,1.84-1.51,3c-0.23,1.16-0.35,2.36-0.35,3.6c0,1.24,0.12,2.44,0.35,3.6c0.24,1.16,0.74,2.15,1.51,2.99
	c0.44,0.48,0.99,0.87,1.66,1.18c0.67,0.32,1.44,0.48,2.31,0.48c0.87,0,1.65-0.16,2.32-0.48c0.67-0.32,1.23-0.71,1.66-1.18
	c0.77-0.84,1.27-1.84,1.51-2.99C142.77,36.81,142.89,35.61,142.89,34.37"/>
<path class="st1" d="M183.53,47.47V31.2c0-1.61-0.28-2.86-0.84-3.75c-0.55-0.89-1.62-1.34-3.19-1.34c-0.91,0-1.68,0.21-2.32,0.64
	c-0.63,0.42-1.16,0.97-1.58,1.66c-0.42,0.69-0.73,1.46-0.93,2.29c-0.2,0.85-0.3,1.66-0.3,2.47v14.3h-6.24V31.2
	c0-1.61-0.28-2.86-0.83-3.75c-0.55-0.89-1.62-1.34-3.2-1.34c-0.91,0-1.68,0.21-2.31,0.64c-0.64,0.42-1.18,0.97-1.61,1.66
	c-0.44,0.69-0.76,1.46-0.96,2.29c-0.2,0.85-0.3,1.66-0.3,2.47v14.3h-6.24V21.28h5.23l0.51,3.48c0.74-1.21,1.73-2.2,2.97-2.97
	c1.24-0.77,2.73-1.16,4.48-1.16c1.84,0,3.39,0.37,4.63,1.14c1.25,0.75,2.2,1.8,2.87,3.14c0.77-1.37,1.84-2.43,3.2-3.17
	c1.36-0.74,2.93-1.11,4.71-1.11c2.82,0,4.95,0.85,6.37,2.54c1.43,1.7,2.14,3.91,2.14,6.62v17.67H183.53z"/>
<path class="st1" d="M218.78,34.32c0,5.21-1.56,9.1-4.69,11.68c-0.81,0.67-1.74,1.19-2.79,1.56c-1.05,0.37-2.26,0.55-3.59,0.55
	c-1.58,0-2.97-0.24-4.16-0.72c-1.19-0.49-2.09-1.1-2.7-1.84v11.94h-6.29V21.28h5.44l0.4,2.87c0.77-1.21,1.83-2.09,3.17-2.65
	c1.34-0.55,2.74-0.83,4.18-0.83c1.31,0,2.49,0.2,3.55,0.61c1.06,0.4,1.99,0.94,2.79,1.62c1.58,1.27,2.75,2.87,3.53,4.81
	C218.39,29.63,218.78,31.84,218.78,34.32 M212.38,34.42c0-1.14-0.11-2.27-0.33-3.39c-0.22-1.12-0.66-2.12-1.33-3
	c-0.47-0.57-1.05-1.06-1.74-1.46c-0.69-0.4-1.52-0.6-2.49-0.6c-1.25,0-2.25,0.26-3.02,0.78c-0.77,0.52-1.37,1.19-1.81,2.01
	c-0.43,0.82-0.73,1.73-0.88,2.74c-0.15,1.01-0.23,1.98-0.23,2.92c0,0.94,0.08,1.91,0.23,2.9c0.15,0.99,0.45,1.89,0.88,2.71
	c0.44,0.82,1.04,1.5,1.81,2.02c0.77,0.52,1.78,0.78,3.02,0.78c0.98,0,1.8-0.2,2.49-0.61c0.69-0.4,1.27-0.89,1.74-1.46
	c0.68-0.87,1.12-1.86,1.33-2.97C212.27,36.69,212.38,35.56,212.38,34.42"/>
<path class="st1" d="M237.46,27.07c-0.77-0.17-1.49-0.25-2.17-0.25c-2.21,0-3.89,0.71-5.03,2.12c-1.14,1.42-1.71,3.18-1.71,5.3
	v13.23h-6.4V21.28h5.38l0.56,3.89c0.61-1.49,1.61-2.58,3-3.24c1.39-0.67,2.86-1,4.41-1c0.67,0,1.32,0.04,1.96,0.15V27.07z"/>
<path class="st1" d="M261.12,34.37c0,2.22-0.27,4.07-0.8,5.56c-0.54,1.49-1.29,2.86-2.27,4.1c-0.91,1.11-2.16,2.07-3.75,2.87
	c-1.6,0.8-3.4,1.21-5.42,1.21c-2.01,0-3.82-0.4-5.41-1.21c-1.6-0.81-2.85-1.76-3.76-2.87c-0.97-1.24-1.73-2.61-2.27-4.1
	c-0.53-1.5-0.8-3.35-0.8-5.56c0-2.22,0.27-4.07,0.8-5.56c0.53-1.5,1.29-2.87,2.27-4.11c0.91-1.11,2.16-2.06,3.76-2.87
	c1.59-0.8,3.39-1.21,5.41-1.21c2.02,0,3.82,0.41,5.42,1.21c1.59,0.81,2.84,1.76,3.75,2.87c0.97,1.24,1.73,2.61,2.27,4.11
	C260.85,30.31,261.12,32.16,261.12,34.37 M254.73,34.37c0-1.24-0.12-2.44-0.35-3.6c-0.24-1.16-0.74-2.16-1.51-3
	c-0.43-0.47-0.99-0.86-1.66-1.19c-0.67-0.32-1.44-0.48-2.32-0.48c-0.87,0-1.64,0.16-2.31,0.48c-0.67,0.32-1.22,0.72-1.66,1.19
	c-0.77,0.84-1.28,1.84-1.51,3c-0.23,1.16-0.36,2.36-0.36,3.6c0,1.24,0.12,2.44,0.36,3.6c0.24,1.16,0.74,2.15,1.51,2.99
	c0.44,0.48,0.99,0.87,1.66,1.18c0.67,0.32,1.44,0.48,2.31,0.48c0.88,0,1.65-0.16,2.32-0.48c0.67-0.32,1.23-0.71,1.66-1.18
	c0.77-0.84,1.28-1.84,1.51-2.99C254.61,36.81,254.73,35.61,254.73,34.37"/>
<path class="st1" d="M295.37,47.47V31.2c0-1.61-0.28-2.86-0.83-3.75c-0.55-0.89-1.62-1.34-3.2-1.34c-0.91,0-1.68,0.21-2.32,0.64
	c-0.63,0.42-1.16,0.97-1.58,1.66c-0.42,0.69-0.73,1.46-0.93,2.29c-0.2,0.85-0.3,1.66-0.3,2.47v14.3h-6.25V31.2
	c0-1.61-0.28-2.86-0.83-3.75c-0.55-0.89-1.62-1.34-3.2-1.34c-0.9,0-1.68,0.21-2.32,0.64c-0.64,0.42-1.18,0.97-1.61,1.66
	c-0.43,0.69-0.75,1.46-0.95,2.29c-0.21,0.85-0.31,1.66-0.31,2.47v14.3h-6.24V21.28h5.23l0.51,3.48c0.73-1.21,1.72-2.2,2.97-2.97
	c1.24-0.77,2.74-1.16,4.48-1.16c1.85,0,3.39,0.37,4.63,1.14c1.24,0.75,2.2,1.8,2.87,3.14c0.77-1.37,1.84-2.43,3.19-3.17
	c1.36-0.74,2.93-1.11,4.71-1.11c2.82,0,4.95,0.85,6.37,2.54c1.43,1.7,2.14,3.91,2.14,6.62v17.67H295.37z"/>
<path class="st1" d="M305.48,18.86l-1.81-3.02l8.26-6.39l2.51,4.23L305.48,18.86z M306.49,21.28h6.39v26.19h-6.39V21.28z"/>
<path class="st1" d="M338.47,39.36c0,1.28-0.21,2.39-0.63,3.33c-0.42,0.94-0.97,1.75-1.64,2.41c-1.08,1.08-2.38,1.85-3.93,2.32
	c-1.55,0.47-3.22,0.7-5.04,0.7c-1.68,0-3.24-0.24-4.68-0.73c-1.45-0.49-2.71-1.25-3.78-2.29c-0.77-0.74-1.43-1.63-1.96-2.67
	c-0.54-1.04-0.8-2.18-0.8-3.42h5.89c0,0.57,0.13,1.14,0.4,1.71c0.27,0.57,0.61,1.02,1.01,1.36c0.5,0.41,1.06,0.7,1.69,0.88
	c0.62,0.19,1.38,0.28,2.29,0.28c0.54,0,1.11-0.04,1.74-0.13c0.61-0.08,1.2-0.24,1.73-0.48c0.54-0.24,0.98-0.57,1.33-1.01
	c0.36-0.44,0.53-1.01,0.53-1.71c0-0.78-0.23-1.39-0.7-1.87c-0.47-0.47-1.11-0.77-1.91-0.9c-1.18-0.16-2.38-0.31-3.63-0.43
	c-1.24-0.11-2.45-0.31-3.62-0.58c-0.91-0.2-1.72-0.52-2.44-0.96c-0.72-0.43-1.35-0.96-1.89-1.58c-0.54-0.62-0.95-1.31-1.23-2.06
	c-0.29-0.75-0.43-1.55-0.43-2.39c0-1.34,0.26-2.49,0.76-3.45c0.5-0.96,1.14-1.77,1.91-2.44c0.98-0.84,2.14-1.49,3.48-1.94
	c1.34-0.45,2.84-0.68,4.48-0.68c1.58,0,3.1,0.25,4.56,0.75c1.46,0.51,2.67,1.28,3.64,2.32c0.71,0.77,1.27,1.62,1.69,2.55
	c0.42,0.92,0.63,1.87,0.63,2.84h-5.99c0-0.51-0.1-0.96-0.3-1.36c-0.2-0.4-0.45-0.77-0.75-1.11c-0.37-0.37-0.87-0.66-1.49-0.88
	c-0.62-0.22-1.27-0.33-1.94-0.33c-0.47,0-0.92,0.02-1.36,0.05c-0.44,0.03-0.89,0.15-1.36,0.35c-0.57,0.24-1.05,0.59-1.43,1.06
	c-0.38,0.47-0.58,1.04-0.58,1.71c0,0.95,0.33,1.59,0.98,1.95c0.66,0.35,1.34,0.58,2.04,0.68c0.6,0.07,1.11,0.12,1.51,0.18
	c0.4,0.05,0.81,0.1,1.2,0.15c0.41,0.05,0.83,0.11,1.26,0.18c0.44,0.07,0.98,0.15,1.61,0.25c2.08,0.34,3.79,1.13,5.14,2.39
	C337.79,35.6,338.47,37.27,338.47,39.36"/>
<line class="st2" x1="12.44" y1="7.51" x2="355.18" y2="7.51"/>
<rect x="12.15" y="60.59" class="st3" width="343.33" height="0.59"/>
<rect x="117.43" y="79.36" class="st3" width="238.04" height="0.59"/>
<line class="st2" x1="16.61" y1="48" x2="18.07" y2="48"/>
<path class="st3" d="M347.59,47.71h3.5v0.59h-3.5V47.71z M341.75,47.71h3.5v0.59h-3.5V47.71z M335.92,47.71h3.5v0.59h-3.5V47.71z
	 M330.08,47.71h3.5v0.59h-3.5V47.71z M324.24,47.71h3.5v0.59h-3.5V47.71z M318.4,47.71h3.5v0.59h-3.5V47.71z M312.57,47.71h3.5v0.59
	h-3.5V47.71z M306.73,47.71h3.5v0.59h-3.5V47.71z M300.89,47.71h3.5v0.59h-3.5V47.71z M295.06,47.71h3.5v0.59h-3.5V47.71z
	 M289.22,47.71h3.5v0.59h-3.5V47.71z M283.38,47.71h3.5v0.59h-3.5V47.71z M277.54,47.71h3.5v0.59h-3.5V47.71z M271.71,47.71h3.5
	v0.59h-3.5V47.71z M265.87,47.71h3.5v0.59h-3.5V47.71z M260.03,47.71h3.5v0.59h-3.5V47.71z M254.19,47.71h3.5v0.59h-3.5V47.71z
	 M248.36,47.71h3.5v0.59h-3.5V47.71z M242.52,47.71h3.5v0.59h-3.5V47.71z M236.68,47.71h3.5v0.59h-3.5V47.71z M230.85,47.71h3.5
	v0.59h-3.5V47.71z M225.01,47.71h3.5v0.59h-3.5V47.71z M219.17,47.71h3.5v0.59h-3.5V47.71z M213.33,47.71h3.5v0.59h-3.5V47.71z
	 M207.49,47.71h3.5v0.59h-3.5V47.71z M201.66,47.71h3.5v0.59h-3.5V47.71z M195.82,47.71h3.5v0.59h-3.5V47.71z M189.98,47.71h3.5
	v0.59h-3.5V47.71z M184.15,47.71h3.5v0.59h-3.5V47.71z M178.31,47.71h3.5v0.59h-3.5V47.71z M172.47,47.71h3.5v0.59h-3.5V47.71z
	 M166.63,47.71h3.5v0.59h-3.5V47.71z M160.8,47.71h3.5v0.59h-3.5V47.71z M154.96,47.71h3.5v0.59h-3.5V47.71z M149.12,47.71h3.5v0.59
	h-3.5V47.71z M143.29,47.71h3.5v0.59h-3.5V47.71z M137.45,47.71h3.5v0.59h-3.5V47.71z M131.61,47.71h3.5v0.59h-3.5V47.71z
	 M125.77,47.71h3.5v0.59h-3.5V47.71z M119.94,47.71h3.5v0.59h-3.5V47.71z M114.1,47.71h3.5v0.59h-3.5V47.71z M108.26,47.71h3.5v0.59
	h-3.5V47.71z M102.42,47.71h3.5v0.59h-3.5V47.71z M96.59,47.71h3.5v0.59h-3.5V47.71z M90.75,47.71h3.5v0.59h-3.5V47.71z
	 M84.91,47.71h3.5v0.59h-3.5V47.71z M79.07,47.71h3.5v0.59h-3.5V47.71z M73.24,47.71h3.5v0.59h-3.5V47.71z M67.4,47.71h3.5v0.59
	h-3.5V47.71z M61.56,47.71h3.5v0.59h-3.5V47.71z M55.73,47.71h3.5v0.59h-3.5V47.71z M49.89,47.71h3.5v0.59h-3.5V47.71z M44.05,47.71
	h3.5v0.59h-3.5V47.71z M38.21,47.71h3.5v0.59h-3.5V47.71z M32.38,47.71h3.5v0.59h-3.5V47.71z M26.54,47.71h3.5v0.59h-3.5V47.71z
	 M20.7,47.71h3.5v0.59h-3.5V47.71z"/>
<line class="st2" x1="353.72" y1="48" x2="355.18" y2="48"/>
<line class="st2" x1="16.61" y1="20.02" x2="18.07" y2="20.02"/>
<line class="st4" x1="20.99" y1="20.02" x2="352.26" y2="20.02"/>
<line class="st2" x1="353.72" y1="20.02" x2="355.18" y2="20.02"/>
<rect x="306.29" y="47.01" class="st3" width="0.59" height="47.83"/>
<rect x="312.72" y="47.01" class="st3" width="0.59" height="47.83"/>
<rect x="302.28" y="90.09" class="st3" width="15.03" height="0.58"/>
<line class="st2" x1="334.3" y1="90.38" x2="355.18" y2="90.38"/>
<rect x="312.72" y="79.36" class="st3" width="24.62" height="0.59"/>
<polygon class="st3" points="335.11,82.05 334.71,81.62 336.82,79.66 334.71,77.69 335.11,77.26 337.68,79.66 "/>
<rect class="st5" width="373.49" height="105.9"/>
<g>
	<defs>
		<rect id="SVGID_4_" x="306.58" y="47.3" width="6.43" height="43.08"/>
	</defs>
	<clipPath id="SVGID_5_">
		<use xlink:href="#SVGID_4_"  style="overflow:visible;"/>
	</clipPath>
	<path class="st6" d="M312.72,79.95h-5.85v10.14h5.85V79.95z M312.72,61.18h-5.85v18.18h5.85V61.18z M312.72,47.47h-5.85v0.24h3.36
		v0.59h-3.36v12.3h5.85v-12.3h-0.15v-0.59h0.15V47.47"/>
	<rect x="306.87" y="47.3" class="st7" width="5.84" height="0.16"/>
	<rect x="306.87" y="60.59" class="st8" width="5.84" height="0.59"/>
	<rect x="306.87" y="79.36" class="st8" width="5.84" height="0.59"/>
	<path class="st8" d="M310.23,47.71h-3.36v0.59h3.36V47.71z M312.72,47.71h-0.15v0.59h0.15V47.71z"/>
	<polygon class="st8" points="306.87,47.3 306.58,47.3 306.58,90.09 306.87,90.09 306.87,79.95 306.87,79.36 306.87,61.18
		306.87,60.59 306.87,48.29 306.87,47.71 306.87,47.47 	"/>
	<polygon class="st8" points="313.01,47.3 312.72,47.3 312.72,47.47 312.72,47.71 312.72,48.29 312.72,60.59 312.72,61.18
		312.72,79.36 312.72,79.95 312.72,90.09 313.01,90.09 313.01,79.95 312.72,79.95 312.72,79.36 313.01,79.36 	"/>
	<polygon class="st8" points="313.01,90.09 312.72,90.09 306.87,90.09 306.58,90.09 306.58,90.38 313.01,90.38 	"/>
	<rect x="312.72" y="79.36" class="st8" width="0.29" height="0.59"/>
</g>
<g>
	<path class="st9" d="M311.75,101.48c-0.33,0.36-0.9,0.54-1.49,0.54h-2.39v-5.92h2.36c0.55,0,1.12,0.18,1.44,0.54
		c0.23,0.26,0.38,0.56,0.38,0.98c0,0.57-0.3,1.11-0.85,1.31c0.61,0.2,0.98,0.8,0.98,1.43C312.2,100.85,312.01,101.21,311.75,101.48z
		 M310.24,96.77h-1.64v1.86h1.66c0.62,0,1.04-0.28,1.04-0.93C311.31,97.08,310.8,96.77,310.24,96.77z M310.28,99.28h-1.68v2.06h1.66
		c0.65,0,1.18-0.32,1.18-1.02C311.44,99.66,310.9,99.28,310.28,99.28z"/>
</g>
<g>
	<defs>
		<rect id="SVGID_6_" width="373.49" height="105.9"/>
	</defs>
	<clipPath id="SVGID_7_">
		<use xlink:href="#SVGID_6_"  style="overflow:visible;"/>
	</clipPath>
	<rect x="88.07" y="47.01" class="st10" width="0.58" height="47.83"/>
	<rect x="100.62" y="33.11" class="st10" width="0.58" height="61.74"/>
	<rect x="28.64" y="90.09" class="st10" width="76.57" height="0.58"/>
</g>
<g>
	<defs>
		<rect id="SVGID_8_" x="88.36" y="47.86" width="12.55" height="42.52"/>
	</defs>
	<clipPath id="SVGID_9_">
		<use xlink:href="#SVGID_8_"  style="overflow:visible;"/>
	</clipPath>
	<path class="st11" d="M100.61,61.18H88.65v28.91h11.96V61.18z M100.61,47.86h-0.53v0.43h-3.5v-0.43h-2.33v0.43h-3.5v-0.43h-2.09
		V60.6h11.96V47.86"/>
	<rect x="88.65" y="60.59" class="st12" width="11.96" height="0.59"/>
	<path class="st12" d="M94.25,47.86h-3.5v0.43h3.5V47.86z M100.09,47.86h-3.5v0.43h3.5V47.86z"/>
	<polygon class="st12" points="88.65,47.86 88.36,47.86 88.36,90.09 88.65,90.09 88.65,61.18 88.65,60.6 	"/>
	<polygon class="st12" points="100.91,47.86 100.62,47.86 100.62,60.6 100.62,61.18 100.62,90.09 100.91,90.09 	"/>
	<polygon class="st12" points="100.91,90.09 100.62,90.09 88.65,90.09 88.36,90.09 88.36,90.38 100.91,90.38 	"/>
</g>
<g>
	<path class="st9" d="M90.12,102.03v-0.61l2.35-2.9c0.22-0.28,0.32-0.53,0.32-0.83c0-0.59-0.34-0.94-0.95-0.94
		c-0.52,0-0.98,0.28-0.98,1.05h-0.73c0-1.01,0.68-1.69,1.71-1.69c0.63,0,1.13,0.26,1.42,0.67c0.18,0.25,0.27,0.53,0.27,0.9
		c0,0.46-0.18,0.84-0.49,1.24l-1.97,2.45h2.55v0.67H90.12z"/>
	<path class="st9" d="M98.89,101.48c-0.33,0.36-0.9,0.54-1.49,0.54h-2.39v-5.92h2.36c0.55,0,1.12,0.18,1.44,0.54
		c0.23,0.26,0.38,0.56,0.38,0.98c0,0.57-0.3,1.11-0.85,1.31c0.61,0.2,0.98,0.8,0.98,1.43C99.34,100.85,99.15,101.21,98.89,101.48z
		 M97.38,96.77h-1.64v1.86h1.66c0.62,0,1.04-0.28,1.04-0.93C98.45,97.08,97.95,96.77,97.38,96.77z M97.42,99.28h-1.68v2.06h1.66
		c0.65,0,1.18-0.32,1.18-1.02C98.58,99.66,98.05,99.28,97.42,99.28z"/>
</g>
<g>
	<defs>
		<rect id="SVGID_10_" width="373.49" height="105.9"/>
	</defs>
	<clipPath id="SVGID_11_">
		<use xlink:href="#SVGID_10_"  style="overflow:visible;"/>
	</clipPath>
	<line class="st13" x1="338.47" y1="34.05" x2="338.47" y2="94.55"/>
</g>
<g>
	<path class="st9" d="M340.22,102.03v-0.61l2.35-2.9c0.22-0.28,0.32-0.53,0.32-0.83c0-0.59-0.34-0.94-0.95-0.94
		c-0.52,0-0.98,0.28-0.98,1.05h-0.73c0-1.01,0.68-1.69,1.71-1.69c0.63,0,1.13,0.26,1.42,0.67c0.18,0.25,0.27,0.53,0.27,0.9
		c0,0.46-0.18,0.84-0.49,1.24l-1.97,2.45h2.55v0.67H340.22z"/>
	<path class="st9" d="M349,101.48c-0.33,0.36-0.9,0.54-1.49,0.54h-2.39v-5.92h2.36c0.55,0,1.12,0.18,1.44,0.54
		c0.23,0.26,0.38,0.56,0.38,0.98c0,0.57-0.3,1.11-0.85,1.31c0.61,0.2,0.98,0.8,0.98,1.43C349.45,100.85,349.25,101.21,349,101.48z
		 M347.49,96.77h-1.64v1.86h1.66c0.62,0,1.04-0.28,1.04-0.93C348.55,97.08,348.05,96.77,347.49,96.77z M347.53,99.28h-1.68v2.06
		h1.66c0.65,0,1.18-0.32,1.18-1.02C348.69,99.66,348.15,99.28,347.53,99.28z"/>
</g>
<g>
	<path class="st9" d="M358.93,16.75v-0.61l2.35-2.9c0.22-0.28,0.32-0.53,0.32-0.83c0-0.59-0.34-0.94-0.95-0.94
		c-0.52,0-0.98,0.28-0.98,1.05h-0.73c0-1.01,0.68-1.69,1.71-1.69c0.63,0,1.13,0.26,1.42,0.67c0.18,0.25,0.27,0.53,0.27,0.9
		c0,0.46-0.18,0.84-0.49,1.24l-1.97,2.45h2.55v0.67H358.93z"/>
	<path class="st9" d="M367.71,16.21c-0.33,0.36-0.9,0.54-1.49,0.54h-2.39v-5.92h2.36c0.55,0,1.12,0.18,1.44,0.54
		c0.23,0.26,0.38,0.56,0.38,0.98c0,0.57-0.3,1.11-0.85,1.31c0.61,0.2,0.98,0.8,0.98,1.43C368.16,15.57,367.97,15.93,367.71,16.21z
		 M366.2,11.49h-1.64v1.86h1.66c0.62,0,1.04-0.28,1.04-0.93C367.27,11.8,366.76,11.49,366.2,11.49z M366.24,14h-1.68v2.06h1.66
		c0.65,0,1.18-0.32,1.18-1.02C367.4,14.39,366.86,14,366.24,14z"/>
</g>
<g>
	<path class="st9" d="M358.93,57.39v-0.61l2.35-2.9c0.22-0.28,0.32-0.53,0.32-0.83c0-0.59-0.34-0.94-0.95-0.94
		c-0.52,0-0.98,0.28-0.98,1.05h-0.73c0-1.01,0.68-1.69,1.71-1.69c0.63,0,1.13,0.26,1.42,0.67c0.18,0.25,0.27,0.53,0.27,0.9
		c0,0.46-0.18,0.84-0.49,1.24l-1.97,2.45h2.55v0.67H358.93z"/>
	<path class="st9" d="M367.71,56.84c-0.33,0.36-0.9,0.54-1.49,0.54h-2.39v-5.92h2.36c0.55,0,1.12,0.18,1.44,0.54
		c0.23,0.26,0.38,0.56,0.38,0.98c0,0.57-0.3,1.11-0.85,1.31c0.61,0.2,0.98,0.8,0.98,1.43C368.16,56.21,367.97,56.57,367.71,56.84z
		 M366.2,52.13h-1.64v1.86h1.66c0.62,0,1.04-0.28,1.04-0.93C367.27,52.44,366.76,52.13,366.2,52.13z M366.24,54.64h-1.68v2.06h1.66
		c0.65,0,1.18-0.32,1.18-1.02C367.4,55.02,366.86,54.64,366.24,54.64z"/>
</g>
<g>
	<path class="st9" d="M361.96,35.2v1.24h-0.72V35.2h-2.66v-0.74l2.2-3.82h0.75l-2.27,3.92h1.98v-1.73h0.72v1.73h0.78v0.64H361.96z"
		/>
	<path class="st9" d="M367.71,35.9c-0.33,0.36-0.9,0.54-1.49,0.54h-2.39v-5.92h2.36c0.55,0,1.12,0.18,1.44,0.54
		c0.23,0.26,0.38,0.56,0.38,0.98c0,0.57-0.3,1.11-0.85,1.31c0.61,0.2,0.98,0.8,0.98,1.43C368.16,35.26,367.97,35.62,367.71,35.9z
		 M366.2,31.18h-1.64v1.86h1.66c0.62,0,1.04-0.28,1.04-0.93C367.27,31.49,366.76,31.18,366.2,31.18z M366.24,33.69h-1.68v2.06h1.66
		c0.65,0,1.18-0.32,1.18-1.02C367.4,34.08,366.86,33.69,366.24,33.69z"/>
</g>
<g>
	<path class="st9" d="M362.01,72.87c-0.31,0.33-0.75,0.53-1.4,0.53c-0.56,0-1-0.2-1.33-0.53c-0.3-0.3-0.48-0.71-0.49-1.24h0.73
		c0.02,0.33,0.11,0.6,0.3,0.8c0.18,0.19,0.43,0.33,0.79,0.33c0.35,0,0.64-0.11,0.84-0.33c0.16-0.17,0.28-0.42,0.28-0.73
		c0-0.71-0.48-1.08-1.19-1.08h-0.35v-0.66h0.35c0.67,0,1.07-0.37,1.07-0.98c0-0.27-0.09-0.5-0.28-0.68
		c-0.16-0.16-0.39-0.28-0.71-0.28s-0.53,0.09-0.71,0.23c-0.23,0.18-0.34,0.47-0.35,0.82h-0.73c0.01-0.58,0.22-0.99,0.56-1.28
		c0.33-0.27,0.74-0.42,1.24-0.42c0.48,0,0.93,0.18,1.24,0.47c0.29,0.27,0.47,0.63,0.47,1.13c0,0.54-0.38,1.11-0.85,1.31
		c0.62,0.21,0.97,0.82,0.97,1.42C362.45,72.15,362.29,72.57,362.01,72.87z"/>
	<path class="st9" d="M367.71,72.74c-0.33,0.36-0.9,0.54-1.49,0.54h-2.39v-5.92h2.36c0.55,0,1.12,0.18,1.44,0.54
		c0.23,0.26,0.38,0.56,0.38,0.98c0,0.57-0.3,1.11-0.85,1.31c0.61,0.2,0.98,0.8,0.98,1.43C368.16,72.11,367.97,72.47,367.71,72.74z
		 M366.2,68.03h-1.64v1.86h1.66c0.62,0,1.04-0.28,1.04-0.93C367.27,68.34,366.76,68.03,366.2,68.03z M366.24,70.54h-1.68v2.06h1.66
		c0.65,0,1.18-0.32,1.18-1.02C367.4,70.92,366.86,70.54,366.24,70.54z"/>
</g>
<g>
	<defs>
		<rect id="SVGID_12_" width="373.49" height="105.9"/>
	</defs>
	<clipPath id="SVGID_13_">
		<use xlink:href="#SVGID_12_"  style="overflow:visible;"/>
	</clipPath>
	<line class="st14" x1="32.94" y1="47.3" x2="32.94" y2="94.55"/>
	<line class="st14" x1="16.61" y1="3.51" x2="16.61" y2="64.89"/>
</g>
<g>
	<path class="st9" d="M62.38,102.03l-0.48-1.4h-2.57l-0.48,1.4h-0.75l2.09-5.92h0.87l2.09,5.92H62.38z M60.6,96.85l-1.04,3.07h2.09
		L60.6,96.85z"/>
</g>
<g>
	<path class="st9" d="M6.07,36.44l-0.48-1.4H3.01l-0.48,1.4H1.78l2.09-5.92h0.87l2.09,5.92H6.07z M4.29,31.26l-1.04,3.07h2.09
		L4.29,31.26z"/>
</g>
<g>
	<defs>
		<rect id="SVGID_14_" width="373.49" height="105.9"/>
	</defs>
	<clipPath id="SVGID_15_">
		<use xlink:href="#SVGID_14_"  style="overflow:visible;"/>
	</clipPath>
	<line class="st15" x1="351.01" y1="3.51" x2="351.01" y2="94.55"/>
</g>
<g>
	<path class="st16" d="M197.47,75.61h-0.98l-5.09-14.22h1.1l4.51,12.71l4.45-12.71h1.1L197.47,75.61z"/>
	<path class="st16" d="M211.91,75.61c-0.12,0.03-0.2,0.04-0.24,0.05c-0.04,0.01-0.12,0.01-0.24,0.01c-0.31,0-0.56-0.05-0.77-0.16
		c-0.21-0.11-0.37-0.25-0.49-0.43s-0.2-0.39-0.25-0.62c-0.05-0.23-0.07-0.48-0.07-0.75c-0.13,0.36-0.32,0.68-0.57,0.94
		c-0.25,0.27-0.53,0.49-0.85,0.67c-0.32,0.18-0.67,0.32-1.04,0.41s-0.76,0.14-1.14,0.14c-0.48,0-0.93-0.07-1.35-0.21
		c-0.42-0.14-0.79-0.34-1.1-0.61c-0.31-0.27-0.56-0.59-0.73-0.97c-0.17-0.38-0.26-0.81-0.26-1.29c0-0.9,0.31-1.6,0.93-2.12
		c0.62-0.51,1.43-0.8,2.44-0.87l3.69-0.26v-0.98c0-0.83-0.25-1.42-0.75-1.76c-0.5-0.35-1.13-0.52-1.9-0.52
		c-0.8,0-1.47,0.18-2.01,0.54c-0.53,0.36-0.83,0.92-0.88,1.67h-1c0.04-0.51,0.16-0.96,0.37-1.34c0.21-0.39,0.48-0.71,0.82-0.98
		c0.34-0.27,0.74-0.47,1.19-0.61c0.45-0.14,0.96-0.21,1.5-0.21c0.33,0,0.67,0.03,1.02,0.09c0.35,0.06,0.67,0.16,0.98,0.31
		c0.31,0.15,0.58,0.34,0.82,0.57c0.24,0.23,0.43,0.52,0.56,0.87c0.12,0.31,0.19,0.62,0.22,0.94c0.03,0.32,0.04,0.65,0.04,0.98v4.57
		c0,0.35,0.04,0.62,0.13,0.8c0.09,0.19,0.3,0.28,0.65,0.28c0.12,0,0.21-0.01,0.28-0.02V75.61z M209.84,70.46l-3.59,0.22
		c-0.75,0.05-1.34,0.26-1.78,0.63c-0.44,0.37-0.66,0.86-0.66,1.47c0,0.72,0.24,1.26,0.71,1.62c0.47,0.36,1.07,0.54,1.79,0.54
		c0.63,0,1.17-0.12,1.61-0.35c0.45-0.23,0.81-0.54,1.09-0.91c0.28-0.37,0.49-0.8,0.62-1.27c0.13-0.47,0.2-0.95,0.2-1.43V70.46z"/>
	<path class="st16" d="M217.12,75.61c-0.11,0.03-0.23,0.05-0.37,0.08s-0.32,0.04-0.53,0.04c-0.64,0-1.14-0.17-1.48-0.51
		c-0.35-0.34-0.52-0.88-0.52-1.61V61.13h1v12.43c0,0.35,0.07,0.63,0.2,0.86c0.13,0.23,0.41,0.34,0.84,0.34c0.2,0,0.36,0,0.47,0
		c0.11,0,0.24-0.01,0.39-0.04V75.61z"/>
	<path class="st16" d="M222.14,75.61c-0.11,0.03-0.23,0.05-0.37,0.08s-0.32,0.04-0.53,0.04c-0.64,0-1.14-0.17-1.48-0.51
		c-0.35-0.34-0.52-0.88-0.52-1.61V61.13h1v12.43c0,0.35,0.07,0.63,0.2,0.86c0.13,0.23,0.41,0.34,0.84,0.34c0.2,0,0.36,0,0.47,0
		c0.11,0,0.24-0.01,0.39-0.04V75.61z"/>
	<path class="st16" d="M231.46,72.82c0,0.71-0.23,1.32-0.68,1.84c-0.36,0.4-0.83,0.7-1.39,0.9c-0.57,0.2-1.19,0.3-1.85,0.3
		c-0.68,0-1.3-0.11-1.86-0.32c-0.56-0.21-1.04-0.53-1.42-0.96c-0.28-0.32-0.48-0.63-0.61-0.94c-0.13-0.31-0.2-0.67-0.23-1.08h1.02
		c0.05,0.59,0.3,1.1,0.74,1.54c0.29,0.28,0.64,0.48,1.04,0.61c0.4,0.13,0.84,0.19,1.32,0.19c0.52,0,0.98-0.06,1.38-0.18
		c0.4-0.12,0.73-0.31,0.98-0.56c0.19-0.19,0.32-0.38,0.41-0.56c0.09-0.19,0.13-0.43,0.13-0.72c0-0.45-0.16-0.85-0.47-1.19
		c-0.31-0.34-0.77-0.55-1.37-0.63l-1.95-0.26c-0.41-0.05-0.83-0.15-1.23-0.3c-0.41-0.15-0.75-0.38-1.03-0.7
		c-0.37-0.44-0.56-0.97-0.56-1.58c0-0.4,0.08-0.77,0.23-1.09c0.15-0.33,0.36-0.61,0.63-0.85c0.36-0.33,0.78-0.57,1.25-0.72
		c0.47-0.15,0.97-0.22,1.49-0.22c0.6,0,1.17,0.1,1.7,0.29c0.53,0.19,0.98,0.49,1.32,0.89c0.23,0.27,0.41,0.56,0.54,0.88
		c0.13,0.32,0.21,0.64,0.22,0.96h-1c-0.03-0.16-0.08-0.35-0.15-0.58c-0.07-0.23-0.19-0.43-0.35-0.62c-0.23-0.27-0.53-0.48-0.92-0.64
		c-0.39-0.16-0.84-0.24-1.36-0.24c-0.78,0-1.38,0.15-1.8,0.46c-0.52,0.38-0.78,0.84-0.78,1.38c0,0.43,0.13,0.79,0.4,1.08
		c0.27,0.29,0.78,0.5,1.54,0.6l1.91,0.26c0.47,0.07,0.88,0.19,1.22,0.37c0.35,0.18,0.63,0.4,0.86,0.65c0.23,0.25,0.4,0.53,0.51,0.83
		C231.4,72.21,231.46,72.52,231.46,72.82z"/>
	<path class="st16" d="M244.55,75.61l-0.12-1.76c-0.13,0.31-0.32,0.59-0.56,0.84c-0.24,0.25-0.51,0.47-0.8,0.64
		c-0.29,0.17-0.61,0.31-0.95,0.4c-0.34,0.09-0.68,0.14-1.01,0.14c-0.57,0-1.08-0.08-1.51-0.25c-0.43-0.17-0.82-0.4-1.15-0.69
		c-0.56-0.49-0.98-1.12-1.24-1.88c-0.27-0.75-0.4-1.57-0.4-2.44c0-0.83,0.13-1.62,0.38-2.37c0.25-0.75,0.65-1.38,1.18-1.88
		c0.33-0.32,0.73-0.58,1.17-0.76c0.45-0.19,0.97-0.28,1.55-0.28c0.36,0,0.71,0.05,1.05,0.14c0.34,0.09,0.66,0.23,0.95,0.4
		c0.29,0.17,0.56,0.38,0.79,0.62c0.23,0.24,0.42,0.5,0.55,0.78v-6.14h1v14.48H244.55z M244.45,70.6c0-0.75-0.09-1.41-0.28-2
		c-0.19-0.58-0.51-1.09-0.98-1.51c-0.25-0.24-0.55-0.43-0.89-0.57c-0.34-0.14-0.75-0.21-1.21-0.21c-0.47,0-0.88,0.08-1.22,0.24
		c-0.35,0.16-0.66,0.37-0.92,0.64c-0.39,0.43-0.67,0.94-0.85,1.54s-0.27,1.22-0.27,1.86c0,0.72,0.1,1.4,0.31,2.03
		c0.21,0.63,0.54,1.15,1.01,1.56c0.25,0.23,0.54,0.4,0.86,0.52s0.7,0.18,1.12,0.18c0.44,0,0.83-0.07,1.16-0.22
		c0.33-0.15,0.63-0.34,0.88-0.58c0.45-0.44,0.78-0.96,0.98-1.55C244.35,71.94,244.45,71.29,244.45,70.6z"/>
	<path class="st16" d="M256.63,70.84h-7.66c0.01,0.59,0.11,1.14,0.29,1.65c0.18,0.51,0.43,0.97,0.75,1.35
		c0.28,0.33,0.62,0.59,1.01,0.78s0.87,0.28,1.41,0.28c0.9,0,1.62-0.29,2.19-0.88c0.19-0.19,0.34-0.39,0.47-0.62
		c0.13-0.23,0.22-0.49,0.29-0.8h1.04c-0.07,0.43-0.2,0.82-0.4,1.17c-0.2,0.35-0.44,0.67-0.72,0.93c-0.36,0.36-0.79,0.65-1.27,0.85
		c-0.49,0.21-1.02,0.31-1.59,0.31c-0.72,0-1.34-0.13-1.86-0.4c-0.52-0.27-0.96-0.61-1.32-1.02c-0.41-0.48-0.73-1.05-0.95-1.69
		c-0.22-0.65-0.33-1.35-0.33-2.12c0-0.64,0.07-1.26,0.2-1.87c0.13-0.6,0.39-1.17,0.78-1.71c0.86-1.16,1.99-1.74,3.41-1.74
		c0.68,0,1.29,0.13,1.81,0.4c0.53,0.27,0.98,0.62,1.34,1.07c0.37,0.45,0.65,0.97,0.84,1.55c0.19,0.59,0.29,1.2,0.29,1.82
		L256.63,70.84z M255.62,69.91c-0.01-0.48-0.09-0.94-0.24-1.37c-0.15-0.43-0.36-0.82-0.64-1.16s-0.62-0.61-1.02-0.81
		s-0.86-0.3-1.36-0.3c-0.52,0-0.99,0.1-1.4,0.29c-0.41,0.19-0.77,0.46-1.05,0.79c-0.29,0.33-0.51,0.72-0.67,1.16
		s-0.24,0.91-0.24,1.4H255.62z"/>
	<path class="st16" d="M261.9,75.61c-0.11,0.03-0.23,0.05-0.37,0.08s-0.32,0.04-0.53,0.04c-0.64,0-1.14-0.17-1.48-0.51
		c-0.35-0.34-0.52-0.88-0.52-1.61V61.13h1v12.43c0,0.35,0.07,0.63,0.2,0.86c0.13,0.23,0.41,0.34,0.84,0.34c0.2,0,0.36,0,0.47,0
		c0.11,0,0.24-0.01,0.39-0.04V75.61z"/>
	<path class="st16" d="M271.73,75.61h-0.98l-5.09-14.22h1.1l4.51,12.71l4.45-12.71h1.1L271.73,75.61z"/>
	<path class="st16" d="M278.3,62.8v-1.4h1.4v1.4H278.3z M278.48,75.61V65.58h1.06v10.03H278.48z"/>
	<path class="st16" d="M289.93,75.61v-6.56c0-0.88-0.2-1.56-0.6-2.04c-0.4-0.47-1.06-0.71-1.99-0.71c-0.61,0-1.14,0.12-1.56,0.37
		c-0.43,0.25-0.77,0.57-1.03,0.97c-0.26,0.4-0.45,0.86-0.56,1.37c-0.11,0.51-0.17,1.04-0.17,1.57v5.01h-1V65.58h0.88l0.12,1.83
		c0.13-0.32,0.32-0.61,0.56-0.86c0.24-0.25,0.51-0.47,0.81-0.65s0.62-0.32,0.97-0.42s0.7-0.15,1.04-0.15c1.16,0,2.04,0.33,2.64,0.98
		c0.59,0.66,0.89,1.55,0.89,2.69v6.62H289.93z"/>
	<path class="st16" d="M302.41,75.61c-0.12,0.03-0.2,0.04-0.24,0.05c-0.04,0.01-0.12,0.01-0.24,0.01c-0.31,0-0.56-0.05-0.77-0.16
		c-0.21-0.11-0.37-0.25-0.49-0.43s-0.2-0.39-0.25-0.62c-0.05-0.23-0.07-0.48-0.07-0.75c-0.13,0.36-0.32,0.68-0.57,0.94
		c-0.25,0.27-0.53,0.49-0.85,0.67c-0.32,0.18-0.67,0.32-1.04,0.41s-0.76,0.14-1.14,0.14c-0.48,0-0.93-0.07-1.35-0.21
		c-0.42-0.14-0.79-0.34-1.1-0.61c-0.31-0.27-0.56-0.59-0.73-0.97c-0.17-0.38-0.26-0.81-0.26-1.29c0-0.9,0.31-1.6,0.93-2.12
		c0.62-0.51,1.43-0.8,2.44-0.87l3.69-0.26v-0.98c0-0.83-0.25-1.42-0.75-1.76c-0.5-0.35-1.13-0.52-1.9-0.52
		c-0.8,0-1.47,0.18-2.01,0.54c-0.53,0.36-0.83,0.92-0.88,1.67h-1c0.04-0.51,0.16-0.96,0.37-1.34c0.21-0.39,0.48-0.71,0.82-0.98
		c0.34-0.27,0.74-0.47,1.19-0.61c0.45-0.14,0.96-0.21,1.5-0.21c0.33,0,0.67,0.03,1.02,0.09c0.35,0.06,0.67,0.16,0.98,0.31
		c0.31,0.15,0.58,0.34,0.82,0.57c0.24,0.23,0.43,0.52,0.56,0.87c0.12,0.31,0.19,0.62,0.22,0.94c0.03,0.32,0.04,0.65,0.04,0.98v4.57
		c0,0.35,0.04,0.62,0.13,0.8c0.09,0.19,0.3,0.28,0.65,0.28c0.12,0,0.21-0.01,0.28-0.02V75.61z M300.34,70.46l-3.59,0.22
		c-0.75,0.05-1.34,0.26-1.78,0.63c-0.44,0.37-0.66,0.86-0.66,1.47c0,0.72,0.24,1.26,0.71,1.62c0.47,0.36,1.07,0.54,1.79,0.54
		c0.63,0,1.17-0.12,1.61-0.35c0.45-0.23,0.81-0.54,1.09-0.91c0.28-0.37,0.49-0.8,0.62-1.27c0.13-0.47,0.2-0.95,0.2-1.43V70.46z"/>
	<path class="st16" d="M307.62,75.61c-0.11,0.03-0.23,0.05-0.37,0.08s-0.32,0.04-0.53,0.04c-0.64,0-1.14-0.17-1.48-0.51
		c-0.35-0.34-0.52-0.88-0.52-1.61V61.13h1v12.43c0,0.35,0.07,0.63,0.2,0.86c0.13,0.23,0.41,0.34,0.84,0.34c0.2,0,0.36,0,0.47,0
		c0.11,0,0.24-0.01,0.39-0.04V75.61z"/>
	<path class="st16" d="M317.53,70.6c0,0.86-0.11,1.62-0.32,2.29c-0.21,0.67-0.58,1.26-1.1,1.79c-0.35,0.35-0.77,0.63-1.25,0.86
		c-0.49,0.23-1.05,0.34-1.67,0.34s-1.19-0.11-1.67-0.34c-0.49-0.23-0.91-0.51-1.25-0.86c-0.52-0.52-0.89-1.12-1.1-1.79
		c-0.21-0.67-0.32-1.43-0.32-2.29c0-0.85,0.11-1.62,0.32-2.29c0.21-0.67,0.58-1.26,1.1-1.79c0.35-0.35,0.77-0.63,1.25-0.86
		c0.49-0.23,1.05-0.34,1.67-0.34s1.19,0.11,1.67,0.34c0.49,0.23,0.91,0.51,1.25,0.86c0.52,0.52,0.89,1.12,1.1,1.79
		C317.42,68.98,317.53,69.74,317.53,70.6z M316.5,70.6c0-0.65-0.07-1.27-0.22-1.84c-0.15-0.57-0.45-1.1-0.9-1.56
		c-0.27-0.27-0.58-0.48-0.94-0.64c-0.36-0.16-0.78-0.24-1.26-0.24c-0.48,0-0.9,0.08-1.26,0.24c-0.36,0.16-0.68,0.37-0.94,0.64
		c-0.45,0.47-0.76,0.99-0.9,1.56c-0.15,0.58-0.22,1.19-0.22,1.84c0,0.66,0.07,1.27,0.22,1.85c0.15,0.57,0.45,1.1,0.9,1.56
		c0.27,0.27,0.58,0.48,0.94,0.64c0.36,0.16,0.78,0.24,1.26,0.24c0.48,0,0.9-0.08,1.26-0.24c0.36-0.16,0.67-0.37,0.94-0.64
		c0.45-0.47,0.76-0.99,0.9-1.56C316.43,71.87,316.5,71.25,316.5,70.6z"/>
	<path class="st16" d="M328.69,70.58c0,0.83-0.13,1.62-0.38,2.37c-0.25,0.75-0.65,1.38-1.18,1.88c-0.33,0.32-0.73,0.58-1.17,0.76
		c-0.45,0.19-0.97,0.28-1.55,0.28c-0.36,0-0.71-0.05-1.05-0.14s-0.66-0.23-0.95-0.4c-0.29-0.17-0.56-0.38-0.79-0.62
		c-0.23-0.24-0.42-0.5-0.55-0.78v5.7h-1V65.58h0.88l0.12,1.76c0.13-0.31,0.32-0.59,0.56-0.84c0.24-0.25,0.51-0.47,0.8-0.64
		c0.29-0.17,0.61-0.31,0.95-0.4s0.68-0.14,1.01-0.14c0.57,0,1.08,0.08,1.51,0.25c0.43,0.17,0.82,0.4,1.15,0.69
		c0.56,0.5,0.98,1.12,1.24,1.88C328.56,68.9,328.69,69.71,328.69,70.58z M327.67,70.6c0-0.72-0.1-1.4-0.31-2.02
		c-0.21-0.63-0.54-1.15-1.01-1.56c-0.25-0.23-0.54-0.4-0.86-0.52c-0.32-0.12-0.7-0.18-1.12-0.18c-0.44,0-0.83,0.07-1.16,0.22
		c-0.33,0.15-0.63,0.34-0.88,0.58c-0.45,0.44-0.78,0.96-0.98,1.55c-0.2,0.59-0.3,1.24-0.3,1.93c0,0.75,0.09,1.41,0.28,2
		c0.19,0.58,0.51,1.09,0.98,1.51c0.25,0.24,0.55,0.43,0.89,0.57s0.75,0.21,1.21,0.21c0.47,0,0.88-0.08,1.22-0.24
		c0.35-0.16,0.65-0.37,0.92-0.64c0.39-0.43,0.67-0.94,0.85-1.54C327.58,71.86,327.67,71.24,327.67,70.6z"/>
	<path class="st16" d="M339.02,70.6c0,0.86-0.11,1.62-0.32,2.29c-0.21,0.67-0.58,1.26-1.1,1.79c-0.35,0.35-0.77,0.63-1.25,0.86
		c-0.49,0.23-1.05,0.34-1.67,0.34s-1.19-0.11-1.67-0.34c-0.49-0.23-0.91-0.51-1.25-0.86c-0.52-0.52-0.89-1.12-1.1-1.79
		c-0.21-0.67-0.32-1.43-0.32-2.29c0-0.85,0.11-1.62,0.32-2.29c0.21-0.67,0.58-1.26,1.1-1.79c0.35-0.35,0.77-0.63,1.25-0.86
		c0.49-0.23,1.05-0.34,1.67-0.34s1.19,0.11,1.67,0.34c0.49,0.23,0.91,0.51,1.25,0.86c0.52,0.52,0.89,1.12,1.1,1.79
		C338.92,68.98,339.02,69.74,339.02,70.6z M338,70.6c0-0.65-0.07-1.27-0.22-1.84c-0.15-0.57-0.45-1.1-0.9-1.56
		c-0.27-0.27-0.58-0.48-0.94-0.64c-0.36-0.16-0.78-0.24-1.26-0.24c-0.48,0-0.9,0.08-1.26,0.24c-0.36,0.16-0.68,0.37-0.94,0.64
		c-0.45,0.47-0.76,0.99-0.9,1.56c-0.15,0.58-0.22,1.19-0.22,1.84c0,0.66,0.07,1.27,0.22,1.85c0.15,0.57,0.45,1.1,0.9,1.56
		c0.27,0.27,0.58,0.48,0.94,0.64c0.36,0.16,0.78,0.24,1.26,0.24c0.48,0,0.9-0.08,1.26-0.24c0.36-0.16,0.67-0.37,0.94-0.64
		c0.45-0.47,0.76-0.99,0.9-1.56C337.93,71.87,338,71.25,338,70.6z M333.29,64.22l-0.34-0.54l3.17-2.33l0.56,0.88L333.29,64.22z"/>
</g>
</svg>
