<svg version="1.1" xmlns="http://www.w3.org/2000/svg" xmlns:xlink="http://www.w3.org/1999/xlink" x="0px" y="0px"
	 width="325.91px" height="50.7px" viewBox="0 0 325.91 50.7" style="enable-background:new 0 0 325.91 50.7;" xml:space="preserve"
	>
<style type="text/css">
	.st0{clip-path:url(#SVGID_2_);fill:url(#SVGID_3_);}
	.st1{fill:#27292E;}
	.st2{fill:none;stroke:#898E91;stroke-width:0.99;stroke-miterlimit:10;}
	.st3{fill:#898E91;}
	.st4{fill:none;}
	.st5{clip-path:url(#SVGID_5_);fill:url(#SVGID_6_);}
</style>
<defs>
</defs>
<g>
	<defs>
		<path id="SVGID_1_" d="M33.19,28.55l1.51,1.93c-3.94,3.27-8.39,4.96-13.85,4.96c-5.45,0-9.9-1.69-13.85-4.96l1.51-1.93
			c3.91,2.78,7.11,4.06,12.33,4.06S29.29,31.34,33.19,28.55 M13.37,16.4h4.31v4.11h-3.97c-2.48,0-4.11-0.6-5.17-3l1.66-0.95
			c0.74,1.52,1.66,1.88,3.17,1.88V16.4z M23.9,16.4h4.31v4.12H23.9V16.4z M1.93,5.66C0.87,5.66,0,6.49,0,7.5v35.7
			c0,1.01,0.87,1.84,1.93,1.84h37.4c1.06,0,1.93-0.83,1.93-1.84V7.5c0-1.01-0.87-1.84-1.93-1.84H1.93z"/>
	</defs>
	<clipPath id="SVGID_2_">
		<use xlink:href="#SVGID_1_"  style="overflow:visible;"/>
	</clipPath>

		<linearGradient id="SVGID_3_" gradientUnits="userSpaceOnUse" x1="-56.693" y1="195.591" x2="-55.693" y2="195.591" gradientTransform="matrix(0 39.8124 39.8124 0 -7766.3208 2262.5403)">
		<stop  offset="0" style="stop-color:#E18433"/>
		<stop  offset="0.2756" style="stop-color:#DE7833"/>
		<stop  offset="0.8103" style="stop-color:#D85933"/>
		<stop  offset="1" style="stop-color:#D54B32"/>
	</linearGradient>
	<rect x="0" y="5.66" class="st0" width="41.25" height="39.38"/>
</g>
<path class="st1" d="M67.43,28.65c-0.05,0.78-0.2,1.53-0.45,2.26c-0.25,0.74-0.6,1.39-1.05,1.96c-0.67,0.85-1.58,1.57-2.71,2.17
	c-1.13,0.6-2.45,0.9-3.94,0.9c-1.5,0-2.83-0.31-4-0.91c-1.17-0.62-2.09-1.33-2.77-2.15c-0.72-0.92-1.26-1.98-1.61-3.18
	c-0.35-1.19-0.52-2.5-0.52-3.93c0-1.42,0.17-2.73,0.52-3.92c0.35-1.2,0.89-2.26,1.61-3.18c0.67-0.82,1.6-1.54,2.77-2.15
	c1.17-0.61,2.5-0.92,4-0.92c1.49,0,2.81,0.3,3.94,0.9c1.13,0.6,2.04,1.32,2.71,2.17c0.45,0.57,0.8,1.23,1.05,1.96
	c0.25,0.73,0.4,1.49,0.45,2.26h-4.59c-0.02-0.34-0.09-0.66-0.19-0.96c-0.1-0.29-0.22-0.57-0.37-0.82c-0.27-0.41-0.66-0.76-1.16-1.03
	c-0.5-0.27-1.11-0.41-1.83-0.41c-0.65,0-1.2,0.11-1.67,0.34c-0.46,0.22-0.85,0.51-1.17,0.85c-0.58,0.62-0.94,1.37-1.09,2.23
	c-0.15,0.87-0.22,1.76-0.22,2.67c0,0.92,0.07,1.8,0.22,2.66c0.15,0.85,0.51,1.59,1.09,2.21c0.32,0.34,0.71,0.63,1.17,0.87
	c0.47,0.24,1.02,0.35,1.67,0.35c0.72,0,1.33-0.13,1.83-0.41c0.5-0.27,0.88-0.61,1.16-1.03c0.15-0.25,0.27-0.52,0.37-0.82
	c0.1-0.3,0.17-0.62,0.19-0.96H67.43z"/>
<path class="st1" d="M86.42,25.81c0,1.64-0.2,3.02-0.6,4.13c-0.4,1.11-0.96,2.12-1.68,3.04c-0.67,0.83-1.6,1.53-2.78,2.13
	c-1.19,0.6-2.52,0.9-4.02,0.9c-1.5,0-2.83-0.3-4.02-0.9c-1.18-0.6-2.11-1.31-2.78-2.13c-0.72-0.92-1.29-1.93-1.68-3.04
	c-0.4-1.11-0.6-2.48-0.6-4.13c0-1.64,0.2-3.02,0.6-4.13c0.4-1.11,0.96-2.13,1.68-3.05c0.67-0.82,1.6-1.53,2.78-2.13
	c1.18-0.6,2.52-0.9,4.02-0.9c1.5,0,2.83,0.3,4.02,0.9c1.18,0.6,2.11,1.31,2.78,2.13c0.72,0.92,1.29,1.94,1.68,3.05
	C86.22,22.79,86.42,24.17,86.42,25.81 M81.68,25.81c0-0.92-0.09-1.81-0.26-2.67c-0.18-0.86-0.55-1.6-1.12-2.22
	c-0.32-0.35-0.74-0.64-1.24-0.88c-0.5-0.24-1.07-0.35-1.72-0.35c-0.65,0-1.22,0.12-1.72,0.35c-0.5,0.24-0.91,0.53-1.23,0.88
	c-0.57,0.62-0.94,1.36-1.12,2.22C73.09,24,73,24.89,73,25.81c0,0.92,0.09,1.81,0.26,2.67c0.18,0.86,0.55,1.6,1.12,2.22
	c0.32,0.35,0.74,0.64,1.23,0.88c0.5,0.24,1.07,0.36,1.72,0.36c0.65,0,1.22-0.12,1.72-0.36c0.5-0.24,0.91-0.52,1.24-0.88
	c0.57-0.62,0.94-1.36,1.12-2.22C81.59,27.62,81.68,26.73,81.68,25.81"/>
<path class="st1" d="M111.83,35.53V23.46c0-1.19-0.21-2.12-0.62-2.78c-0.4-0.66-1.2-0.99-2.37-0.99c-0.67,0-1.25,0.16-1.73,0.47
	c-0.47,0.31-0.86,0.72-1.17,1.23c-0.31,0.51-0.54,1.08-0.69,1.7c-0.15,0.63-0.22,1.23-0.22,1.83v10.61h-4.63V23.46
	c0-1.19-0.21-2.12-0.62-2.78c-0.41-0.66-1.2-0.99-2.37-0.99c-0.67,0-1.25,0.16-1.72,0.47c-0.48,0.31-0.87,0.72-1.2,1.23
	c-0.32,0.51-0.56,1.08-0.71,1.7c-0.15,0.63-0.22,1.23-0.22,1.83v10.61h-4.63V16.1h3.89l0.38,2.58c0.55-0.9,1.28-1.63,2.21-2.2
	c0.92-0.57,2.03-0.86,3.33-0.86c1.37,0,2.51,0.28,3.43,0.84c0.92,0.56,1.63,1.34,2.13,2.33c0.57-1.02,1.37-1.8,2.38-2.35
	c1.01-0.54,2.17-0.82,3.49-0.82c2.09,0,3.67,0.63,4.73,1.89c1.06,1.26,1.59,2.9,1.59,4.92v13.12H111.83z"/>
<path class="st1" d="M137.99,25.77c0,3.86-1.16,6.75-3.48,8.67c-0.6,0.5-1.29,0.88-2.07,1.16c-0.78,0.27-1.68,0.41-2.67,0.41
	c-1.18,0-2.2-0.18-3.09-0.54c-0.88-0.36-1.55-0.82-2-1.37v8.86h-4.67V16.1h4.03l0.3,2.13c0.57-0.9,1.36-1.55,2.35-1.96
	c1-0.41,2.03-0.62,3.1-0.62c0.97,0,1.85,0.15,2.63,0.45c0.79,0.3,1.48,0.7,2.07,1.2c1.17,0.94,2.04,2.13,2.62,3.57
	C137.71,22.29,137.99,23.93,137.99,25.77 M133.25,25.85c0-0.84-0.08-1.69-0.25-2.52c-0.16-0.83-0.49-1.58-0.99-2.22
	c-0.35-0.42-0.78-0.79-1.29-1.08c-0.51-0.3-1.12-0.45-1.85-0.45c-0.93,0-1.67,0.19-2.24,0.58c-0.57,0.39-1.02,0.88-1.35,1.49
	c-0.32,0.61-0.54,1.29-0.65,2.04c-0.11,0.75-0.17,1.47-0.17,2.16c0,0.7,0.06,1.42,0.17,2.15c0.11,0.73,0.33,1.41,0.65,2.01
	c0.33,0.61,0.77,1.11,1.35,1.5c0.57,0.39,1.32,0.58,2.24,0.58c0.72,0,1.34-0.15,1.85-0.45c0.51-0.3,0.94-0.66,1.29-1.08
	c0.5-0.65,0.83-1.38,0.99-2.21C133.17,27.53,133.25,26.7,133.25,25.85"/>
<path class="st1" d="M151.86,20.4c-0.57-0.12-1.11-0.19-1.61-0.19c-1.64,0-2.89,0.53-3.73,1.57c-0.85,1.05-1.27,2.36-1.27,3.93v9.82
	h-4.75V16.1h3.99l0.42,2.89c0.45-1.11,1.19-1.91,2.23-2.41c1.03-0.49,2.13-0.74,3.27-0.74c0.5,0,0.98,0.03,1.46,0.11V20.4z"/>
<path class="st1" d="M169.42,25.81c0,1.64-0.2,3.02-0.6,4.13c-0.4,1.11-0.96,2.12-1.68,3.04c-0.67,0.83-1.6,1.53-2.78,2.13
	c-1.19,0.6-2.53,0.9-4.02,0.9c-1.49,0-2.83-0.3-4.01-0.9c-1.18-0.6-2.11-1.31-2.79-2.13c-0.72-0.92-1.29-1.93-1.68-3.04
	c-0.4-1.11-0.6-2.48-0.6-4.13c0-1.64,0.2-3.02,0.6-4.13c0.39-1.11,0.96-2.13,1.68-3.05c0.67-0.82,1.6-1.53,2.79-2.13
	c1.18-0.6,2.52-0.9,4.01-0.9c1.5,0,2.84,0.3,4.02,0.9c1.18,0.6,2.11,1.31,2.78,2.13c0.72,0.92,1.28,1.94,1.68,3.05
	C169.22,22.79,169.42,24.17,169.42,25.81 M164.68,25.81c0-0.92-0.09-1.81-0.26-2.67c-0.18-0.86-0.55-1.6-1.12-2.22
	c-0.32-0.35-0.74-0.64-1.24-0.88c-0.5-0.24-1.07-0.35-1.72-0.35c-0.64,0-1.22,0.12-1.71,0.35c-0.5,0.24-0.91,0.53-1.24,0.88
	c-0.57,0.62-0.95,1.36-1.12,2.22C156.09,24,156,24.89,156,25.81c0,0.92,0.09,1.81,0.26,2.67c0.18,0.86,0.55,1.6,1.12,2.22
	c0.33,0.35,0.74,0.64,1.24,0.88c0.5,0.24,1.07,0.36,1.71,0.36c0.65,0,1.22-0.12,1.72-0.36s0.91-0.52,1.24-0.88
	c0.57-0.62,0.95-1.36,1.12-2.22C164.59,27.62,164.68,26.73,164.68,25.81"/>
<path class="st1" d="M194.84,35.53V23.46c0-1.19-0.21-2.12-0.62-2.78c-0.41-0.66-1.2-0.99-2.38-0.99c-0.67,0-1.24,0.16-1.72,0.47
	c-0.47,0.31-0.86,0.72-1.18,1.23c-0.31,0.51-0.54,1.08-0.69,1.7c-0.15,0.63-0.22,1.23-0.22,1.83v10.61h-4.64V23.46
	c0-1.19-0.21-2.12-0.62-2.78c-0.41-0.66-1.2-0.99-2.37-0.99c-0.67,0-1.25,0.16-1.72,0.47c-0.47,0.31-0.87,0.72-1.2,1.23
	c-0.32,0.51-0.56,1.08-0.71,1.7c-0.15,0.63-0.23,1.23-0.23,1.83v10.61h-4.63V16.1h3.88l0.38,2.58c0.54-0.9,1.28-1.63,2.2-2.2
	c0.92-0.57,2.03-0.86,3.33-0.86c1.37,0,2.51,0.28,3.44,0.84c0.92,0.56,1.63,1.34,2.13,2.33c0.57-1.02,1.36-1.8,2.37-2.35
	c1.01-0.54,2.17-0.82,3.5-0.82c2.09,0,3.67,0.63,4.73,1.89c1.06,1.26,1.59,2.9,1.59,4.92v13.12H194.84z"/>
<path class="st1" d="M202.34,14.3L201,12.06l6.13-4.74l1.87,3.14L202.34,14.3z M203.09,16.1h4.74v19.43h-4.74V16.1z"/>
<path class="st1" d="M226.82,29.51c0,0.95-0.15,1.77-0.47,2.47c-0.31,0.7-0.72,1.3-1.21,1.79c-0.8,0.8-1.77,1.37-2.92,1.72
	c-1.15,0.35-2.39,0.52-3.74,0.52c-1.25,0-2.4-0.18-3.48-0.54c-1.07-0.36-2.01-0.93-2.8-1.7c-0.57-0.55-1.06-1.21-1.46-1.98
	c-0.4-0.77-0.6-1.62-0.6-2.54h4.37c0,0.42,0.1,0.84,0.3,1.27c0.2,0.42,0.45,0.76,0.75,1.01c0.37,0.3,0.79,0.52,1.26,0.65
	c0.46,0.14,1.02,0.21,1.7,0.21c0.4,0,0.83-0.03,1.29-0.1c0.46-0.06,0.89-0.18,1.29-0.35c0.4-0.18,0.73-0.42,0.99-0.75
	c0.26-0.32,0.39-0.75,0.39-1.27c0-0.58-0.17-1.03-0.52-1.39c-0.35-0.35-0.82-0.57-1.42-0.67c-0.87-0.12-1.77-0.23-2.69-0.32
	c-0.92-0.09-1.82-0.23-2.69-0.43c-0.67-0.15-1.27-0.39-1.81-0.71c-0.54-0.32-1.01-0.71-1.4-1.18c-0.4-0.46-0.7-0.97-0.92-1.53
	c-0.21-0.56-0.32-1.15-0.32-1.77c0-1,0.19-1.85,0.56-2.56c0.38-0.71,0.84-1.32,1.42-1.81c0.73-0.62,1.59-1.1,2.58-1.44
	c1-0.33,2.11-0.5,3.33-0.5c1.17,0,2.3,0.19,3.39,0.56c1.08,0.38,1.98,0.95,2.7,1.72c0.52,0.57,0.94,1.2,1.25,1.89
	c0.32,0.68,0.47,1.38,0.47,2.11h-4.45c0-0.38-0.07-0.71-0.22-1.01c-0.15-0.3-0.34-0.57-0.56-0.82c-0.28-0.27-0.64-0.49-1.1-0.65
	c-0.46-0.16-0.94-0.24-1.44-0.24c-0.35,0-0.68,0.01-1.01,0.04c-0.32,0.02-0.66,0.11-1.01,0.26c-0.42,0.18-0.78,0.44-1.06,0.78
	c-0.28,0.35-0.43,0.78-0.43,1.27c0,0.7,0.24,1.18,0.73,1.44c0.49,0.26,0.99,0.43,1.51,0.5c0.45,0.05,0.82,0.09,1.12,0.13
	c0.3,0.04,0.6,0.07,0.89,0.11c0.3,0.04,0.61,0.08,0.93,0.13c0.32,0.05,0.73,0.11,1.2,0.19c1.54,0.25,2.82,0.84,3.81,1.78
	C226.32,26.73,226.82,27.97,226.82,29.51"/>
<line class="st2" x1="236.67" y1="5.66" x2="236.67" y2="45.04"/>
<path class="st3" d="M257.83,16.9c0,0.52-0.42,0.93-0.94,0.93c-0.52,0-0.94-0.42-0.94-0.93c0-0.51,0.42-0.93,0.94-0.93
	C257.41,15.97,257.83,16.39,257.83,16.9 M254.9,16.9c0,1.09,0.89,1.97,1.99,1.97c1.1,0,1.99-0.88,1.99-1.97
	c0-1.09-0.89-1.97-1.99-1.97C255.79,14.93,254.9,15.82,254.9,16.9"/>
<path class="st3" d="M311.68,14.6c-0.03-0.01-0.07-0.03-0.1-0.05l-0.41,0.4c0.21,0.32,0.47,0.6,0.76,0.84l0.81-1.1
	C312.38,14.76,312.02,14.72,311.68,14.6"/>
<polygon class="st3" points="313.81,20.64 313.81,29.3 315.7,31.17 315.7,18.77 "/>
<path class="st3" d="M294.77,31.38h-2.12v-1.06h2.12V31.38z M292.07,23.67l-2.46,5.66c0.37,0.05,0.72,0.13,1.07,0.23l0.89-2.11v2.84
	c-0.88-0.42-1.87-0.66-2.91-0.66c-0.99,0-1.93,0.21-2.77,0.6l2.79-4.66l-0.15,0l-4.72,6.17l-4.18-5.91c-0.13-0.2-0.21-0.45-0.21-0.7
	c0-0.35,0.13-0.66,0.35-0.9l2.03-1.49h-0.21c-0.59,0-1.07-0.5-1.07-1.08c0-0.44,0.26-0.82,0.64-0.98c0.32-0.14,0.67-0.22,1.05-0.22
	c0.26,0,0.5,0.04,0.74,0.11l-0.92,0.66h-0.44l0.62,1.05h1.43l-0.63-0.42l1.28-0.92v-1.65c-0.42-0.23-0.79-0.53-1.09-0.9l0,1.15
	c-0.31-0.09-0.65-0.14-0.99-0.14c-0.25,0-0.49,0.03-0.72,0.08l2.09-3.38h2.86c0.07,0.29,0.2,0.56,0.39,0.8h-0.64l-1.55,2.8
	l0.77,0.76l-1.47,2.53h-1.12l1.82,0.93l1.52-2.71l0.8,0.8l0.68-1.29h1.8l0.7-1.2l-0.45-0.7l-0.48,0.85h-1.28l-0.48-0.85l-0.45,0.85
	l-0.32,0.57l-0.78-0.77l0.84-1.53h3.64l0.96,1.52l-0.77,1.38l-0.1,0c-0.23,0-0.45,0.07-0.62,0.2l-5.48,3.87h-1.83l2.08,1.15
	l5.53-3.91c0.36-0.25,0.83-0.31,1.26-0.13C292.05,22.26,292.35,23.02,292.07,23.67 M288.22,32.45h-0.45L287,30.89
	c0.49-0.14,1.01-0.22,1.54-0.22c0.12,0,0.32,0,0.44,0.01L288.22,32.45z M280.91,32.45l1.47-1.06l0.73,1.06H280.91z M280.09,29.26
	v-0.98h0l0.71,0.98H280.09z M276.89,31.38v-1.06h4.7l0.16,0.23l-1.18,0.83H276.89z M279.02,26.83v2.43h-1.05v-3.84h0.38
	c0.05,0.42,0.21,0.8,0.45,1.12L279.02,26.83z M278.26,22.7h1.73H280l-0.69,0.48c-0.43,0.3-0.72,0.72-0.86,1.18h-0.19
	c-0.46,0-0.84-0.37-0.84-0.83C277.43,23.08,277.8,22.7,278.26,22.7 M281.15,12.06v5.99l-1.08,1.83v-7.82H281.15z M284.33,15.05
	h-1.35l-0.76,1.24v-4.23l1.36,0L284.33,15.05z M288.16,13.44l0.4-1.38h0.87l0,1.54c-0.27-0.12-0.58-0.19-0.89-0.19
	C288.41,13.41,288.28,13.42,288.16,13.44 M288.54,14.48c0.6,0,1.09,0.48,1.09,1.08c0,0.6-0.49,1.08-1.09,1.08s-1.09-0.48-1.09-1.08
	C287.45,14.97,287.94,14.48,288.54,14.48 M287.2,13.09l-0.3,1.07c-0.22,0.25-0.39,0.56-0.48,0.89h-1.01l-0.48-1.96H287.2z
	 M284.7,12.06l-0.13-0.5c0.54,0,1.05-0.13,1.49-0.36c0.45,0.23,0.95,0.36,1.49,0.36l-0.13,0.5H284.7z M290.5,14.63v-2.57h1.1v5.85
	l-0.66-1.04h-0.67c0.28-0.36,0.45-0.82,0.45-1.31C290.71,15.22,290.64,14.91,290.5,14.63 M278.6,9.45h14.39l-0.97,1.54h-3.18
	l0.32-1.24c-0.39,0.44-0.96,0.73-1.6,0.73c-0.58,0-1.11-0.23-1.49-0.61c-0.38,0.38-0.91,0.61-1.49,0.61c-0.64,0-1.21-0.28-1.6-0.73
	l0.32,1.24l0.01,0h-3.73L278.6,9.45z M293.7,29.27h-1.05v-3.85h1.05V29.27z M293.21,22.69c0.46-0.02,0.85,0.32,0.88,0.78
	c0.02,0.46-0.33,0.85-0.79,0.87c-0.11,0-0.21-0.01-0.31-0.04C293.24,23.83,293.33,23.26,293.21,22.69 M294.77,24.65
	c0.24-0.31,0.39-0.71,0.39-1.13c0-1.04-0.85-1.88-1.9-1.88h-0.61v-9.51l2.2-3.72H276.8l2.22,3.72v9.52h-0.75
	c-1.06,0-1.91,0.85-1.91,1.89c0,0.52,0.21,1,0.56,1.34v4.39h-1.08v3.18h3.42l0.85,1.06h3.7c0.52-0.92,1.3-1.68,2.24-2.18l1.01,2.18
	h1.77l1.27-2.64c0.54,0.14,1,0.35,1.46,0.63c-0.46,0.76-1.9,1.79-1.9,1.79l2.27-0.84h3.94v-3.17h-1.09V24.65z"/>
<path class="st3" d="M313.58,15.12c-0.18-0.06-0.34-0.13-0.5-0.23l-0.83,1.14c0.34,0.22,0.73,0.39,1.14,0.49L313.58,15.12z"/>
<path class="st3" d="M310.55,26.08l1.86,1.84l0-5.9l-1.86,1.85C310.56,24.61,310.55,26.08,310.55,26.08"/>
<polygon class="st3" points="317.08,18.75 317.08,31.05 318.94,29.2 318.94,20.6 "/>
<path class="st3" d="M319.63,31.11l0.57-0.56l0.57,0.56H319.63z M316.37,32.89l-8.01-7.93l8.01-7.92l8.01,7.92L316.37,32.89z
	 M312.45,32.07l-0.75-0.74c0.11-0.12,0.32-0.24,0.46-0.28c0.38-0.1,0.81-0.01,1.06,0.27L312.45,32.07z M310.74,30.73l0-1.86
	l1.13,1.12c-0.22,0.09-0.43,0.18-0.63,0.31C311.04,30.42,310.89,30.57,310.74,30.73 M308.74,28.32v-1.5l0.96,0.95L308.74,28.32z
	 M307.71,15.59c0,0,1.95,3.13,2.2,3.55c-0.03,0.09-0.12,0.15-0.17,0.23c-0.34,0.43-0.46,1.09-0.25,1.63
	c0.11,0.27,0.28,0.52,0.5,0.72l-1.26,1.23l0.01-4.41l-1.01,0.58L307.71,15.59z M311.96,19.81l-1.13,1.11
	c-0.19-0.08-0.24-0.2-0.3-0.32c-0.06-0.21-0.01-0.44,0.13-0.6c0.15-0.19,0.38-0.22,0.62-0.21L311.96,19.81z M306.76,11.87l0.1-0.5
	l0.51,0.15l4.44,7.17l-0.83,0L306.76,11.87z M310.43,12.75c0.14,0.16,0.2,0.23,0.31,0.59c0,0.03-0.58,0.57-0.58,0.57l-0.99-1.6
	C309.69,12.28,310.12,12.43,310.43,12.75 M311.49,14.16c0.08,0.01,0.15,0.07,0.23,0.1c0.35,0.12,0.77,0.16,1.15,0.08
	c0.07,0,0.16-0.07,0.21-0.01c0.21,0.17,0.44,0.32,0.69,0.41l0.03,2.42h0.83l-1.54,1.51l-2.34-3.79
	C310.76,14.88,311.5,14.16,311.49,14.16 M312.26,11.31c0.5-0.32,0.99-0.77,1.11-1.38c0.03-0.17,0.03-0.22,0.08-0.34
	c0.19-0.6,0.76-1.04,1.41-1.07c0.63-0.02,1.24,0.35,1.48,0.9c0.04,0.11,0.06,0.12,0.07,0.19c0.04,0.14,0.07,0.28,0.06,0.44
	l-1.18-1.16l-2.49,2.46l0,1.83c-0.13,0.1-0.29,0.08-0.45,0.09c-0.31-0.01-0.55-0.26-0.66-0.53
	C311.53,12.16,311.82,11.64,312.26,11.31 M316.83,11.91c0,0,0.05,0.06,0.09,0.08c0.07,0.1,0.14,0.2,0.18,0.32
	c0.06,0.26-0.01,0.54-0.18,0.73c-0.21,0.2-0.51,0.32-0.8,0.23c-0.06-0.02-0.13-0.05-0.13-0.05l0.01-0.49L316.83,11.91z M314.5,12.73
	l0.37,0.38c0,0-0.01,0.27,0,0.41c-0.17,0.16-0.41,0.21-0.65,0.18c-0.12-0.03-0.23-0.08-0.33-0.15l-0.01-1.74l1.38-1.36l0.74,0.74
	l-0.88,0.87l-0.61-0.59L314.5,12.73z M318.26,15.23c0.36,0,0.71,0.22,0.87,0.54c0.12,0.2,0.1,0.49-0.03,0.68
	c-0.21,0.35-0.61,0.53-1.03,0.47c-0.21-0.04-0.42-0.13-0.55-0.31l-1.15-1.13l-0.57,0.57l-0.89,0l0-0.75c0,0,0.68-0.53,1.14-0.43
	c0.3,0.04,0.55,0.21,0.85,0.28C317.33,15.27,317.8,15.29,318.26,15.23 M317.39,14.07c0.36-0.27,0.62-0.66,0.78-1.07
	c0.3-0.51,0.92-0.78,1.55-0.67c0.47,0.07,0.86,0.35,1.12,0.81c0.16,0.28,0.18,0.51,0.17,0.81l-0.01,1.18l-0.01,3.02l-1.06-0.6V19
	l-1.05-1.05c0.27-0.12,0.54-0.22,0.82-0.5c0.34-0.34,0.63-0.88,0.63-1.26c0-0.26-0.06-0.48-0.06-0.48
	c-0.18-0.79-0.89-1.44-1.71-1.55c-0.3-0.05-0.6-0.01-0.89,0.01c-0.09-0.01-0.18-0.01-0.27-0.04
	C317.39,14.12,317.29,14.15,317.39,14.07 M325.91,24.92l-4.88-4.82v-0.65c0,0,0.67,0.38,1.05,0.59l0-6.19
	c0.01-0.36-0.07-0.69-0.19-1.01c-0.23-0.59-0.75-1.1-1.33-1.38c-0.83-0.39-1.91-0.29-2.66,0.2c-0.31-0.39-0.36-0.87-0.35-1.43
	c0.02-0.6-0.07-0.99-0.28-1.38c-0.31-0.65-0.95-1.13-1.63-1.33c-1.01-0.28-2.08,0.04-2.75,0.83c-0.36,0.4-0.51,0.88-0.64,1.39
	c-0.14,0.44-0.55,0.65-0.89,0.9c-0.33,0.22-0.53,0.58-0.72,0.91c-0.59-0.33-1.4-0.44-2.09-0.24l-0.51-0.75
	c-0.66-0.16-1.33-0.32-2.02-0.45l-0.49,1.95l1.07,1.77l-0.01,7.2l1.02-0.59l0,3.7l-0.8,0.79l0.8,0.8l0,3.11l0.88,0.87l1.11-0.61
	l0,3.02l1.3,0l1.52,1.49l1.57-1.57l2.35,2.33l2.27-2.22l2.63,0l1.07-1.07L321,29.77L325.91,24.92z"/>
<polygon class="st3" points="320.36,21.99 320.36,27.8 322.19,25.99 322.19,23.81 "/>
<path class="st3" d="M282.84,29.6l1,1.42l0.31-0.39l-0.88-1.23C283.13,29.46,282.99,29.53,282.84,29.6"/>
<path class="st3" d="M283.8,16.5l-0.16,0.27c0.1,0.3,0.26,0.57,0.46,0.81l0.83-1.09H283.8z"/>
<path class="st3" d="M288.66,29.26c0.17,0,0.34,0.01,0.5,0.02l0.56-1.33c-0.35-0.04-0.71-0.07-1.07-0.07V29.26z"/>
<path class="st3" d="M263.26,30.82v1.37h-1.05v-1.04h-3.77v1.04h-1.05v-1.04h-1.36c0.17-0.47,0.26-0.97,0.26-1.5h0.88l-0.82-1.04
	h-1.28c-0.2-0.59-0.58-1.14-1.11-1.56c-0.06-0.04-0.12-0.09-0.18-0.13c0.14-0.74,0.08-1.46-0.14-2.12h2.79l0.01,2.18l1.86,2.39
	l-0.39,0.28h1.94l-1.67-2.04l0.21-0.15l2.12,1.31l0.74-0.55l-0.48-2.27l1.49,1.73c-0.16,0.11-0.26,0.28-0.26,0.49
	c0,0.22,0.13,0.42,0.32,0.52l-0.65,0.96h1.25l1.33-1.98v-1.19h1.62c-0.35,0.89-0.34,1.9,0.1,2.84L263.26,30.82z M251.57,29.67
	c0-0.17,0.14-0.32,0.32-0.32c0.18,0,0.32,0.14,0.32,0.32c0,0.17-0.14,0.31-0.32,0.31C251.71,29.98,251.57,29.84,251.57,29.67
	 M254.53,31.71c-1.14,1.44-3.25,1.7-4.71,0.57c-1.46-1.13-1.72-3.22-0.58-4.66l1.69,1.05c-0.09,0.09-0.18,0.19-0.24,0.31
	c-0.38,0.66-0.16,1.5,0.51,1.88c0.66,0.38,1.51,0.15,1.89-0.5c0.38-0.66,0.16-1.5-0.51-1.88l-2.73-1.67c-0.79-0.5-1.3-1.42-1.23-2.4
	c0.08,0.62,0.45,1.15,0.95,1.45c0.47,0.28,0.75,0.41,1.26,0.62c0.7,0.29,1.11,0.41,1.85,0.55c-0.04,0.15-0.1,0.29-0.17,0.43
	c1.01,0.28,1.68,1.19,1.69,2.18h1.05C255.25,30.37,255.02,31.09,254.53,31.71 M248.17,27.33l-0.26-0.31l0.31-0.46
	c0.08,0.11,0.17,0.22,0.26,0.32C248.38,27.03,248.27,27.18,248.17,27.33 M247.63,22.61c-0.38-1.89,0.86-3.73,2.77-4.11l0.93,0.73
	c0.31,1,1.26,1.65,2.27,1.6l1.29,1.54l-0.52,0.04l-1.07,1.36h-1.58c0.67,0.59,1.03,1.39,1.07,2.21c-0.75-0.11-1.17-0.26-1.86-0.59
	c-0.41-0.19-0.63-0.32-1.01-0.57c-0.2-0.17-0.29-0.46-0.19-0.73c0.07-0.19,0.21-0.32,0.38-0.39l0.55,0.98l0.68-2.63h-2.76l0.77,0.69
	c-0.53,0.14-1.01,0.46-1.33,0.94C247.84,23.35,247.7,22.99,247.63,22.61 M248.87,15.94v-0.39l1.03-0.75l1.27,0.8l-1.24,1.19
	L248.87,15.94z M248.14,12.73l0.49-0.4l1.05,1.28l-0.5,0.41L248.14,12.73z M253.47,19.14l-0.39,0.59c-0.44-0.17-0.76-0.59-0.77-1.08
	l-1.59-1.26l1.31-1.29l0.8,1.36C252.92,18.08,253.14,18.65,253.47,19.14 M252.03,13.21c0.46-0.35,1.11-0.25,1.46,0.2
	c0.35,0.46,0.26,1.11-0.21,1.45c-0.06,0.05-0.13,0.09-0.2,0.12l-0.55,0.28l-1.76-1.11L252.03,13.21z M253.23,8.96
	c-0.16-0.09-0.34-0.15-0.54-0.15c-0.58,0-1.05,0.46-1.05,1.04c0,0.41,0.38,0.74,0.84,0.74c0.24,0,0.46-0.09,0.61-0.23
	c-0.19,0.38-0.59,0.66-1.05,0.66c-0.65,0-1.17-0.53-1.17-1.17c0-1.05,0.86-1.9,1.92-1.9c0.42,0,0.8,0.13,1.11,0.35
	C253.64,8.48,253.41,8.7,253.23,8.96 M255.88,9.03c0.31,0.13,0.55,0.35,0.71,0.61l-2.63,0.17C254.27,9.07,255.13,8.72,255.88,9.03
	 M256.94,11.28l-2.74,0l-0.13-0.42l2.88-0.22V11.28z M254.53,12.32h1.8l-0.15,0.61c-0.44,0.08-0.91,0.23-1.31,0.46L254.53,12.32z
	 M259.93,16.91c0,1.66-1.36,3.01-3.04,3.01c-1.68,0-3.04-1.35-3.04-3.01c0-1.66,1.36-3.01,3.04-3.01
	C258.57,13.9,259.93,15.24,259.93,16.91 M262.86,11.82l0.76-0.79l0.46,2.14l-0.74,0.13l1.04,1.13l0.52,2.34l-0.7,0.2
	c-0.32-0.69-0.88-1.29-1.62-1.64c-0.43-0.19-0.65-0.67-0.51-1.11l-1.09,0.34c0.03,0.78,0.53,1.49,1.32,1.77l-0.26,0.86
	c0,0-0.5-0.06-0.76-0.23c-0.14-0.09-0.32-0.27-0.32-0.27c-0.05-1.09-0.54-2.14-1.44-2.9C260.16,12.63,261.42,11.82,262.86,11.82
	 M260.44,18.91c0.19-0.32,0.3-0.65,0.39-1l0.99,0.29l-0.25,0.87L260.44,18.91z M264.23,20.48l0.69,1.65l-0.87,1.5L263.2,23
	l0.91-0.73l-0.46-1.17l-4.46,0.67l0.84-2.26c0.08-0.1,0.16-0.2,0.23-0.3l0.56,0.83L264.23,20.48z M258,23.04l-1.16-1.41l0.06-0.68
	c0.54,0,1.08-0.11,1.59-0.32l-0.58,1.62l1.31,0.91L258,23.04z M255.96,23.76h-1.33l0.37-0.44l0.59-0.01L255.96,23.76z M258.02,26.35
	l-0.41,0.35l-0.18-0.28v-0.84L258.02,26.35z M259.81,26.59l0.24,0.79l-0.76-0.48l-1.82-2.38l0.01-0.76h-0.63l-2.81-3.48l0.16-0.31
	c0.22,0.19,0.46,0.35,0.72,0.49L259.81,26.59z M268.16,25.44h-4.98v1.75l-2.18-2.58l-1.2,0.73l-0.91-1.16l1.17,0.07l0.56-1.36
	l-0.4-0.28l2.27-0.31l-0.96,0.81l2.87,2.03l1.68-2.93l-1.11-2.71l-2.31-0.29l0.5-2.01c0.25,0.31,0.42,0.64,0.5,1l2.44-0.72
	l-1.74-7.82h-0.89l-1.03,1.14c-1.66,0.14-3.05,1.11-3.8,2.45c-0.45-0.21-0.92-0.34-1.4-0.38l0.13-0.56h0.61V9.52h-0.31
	c-0.38-1.04-1.43-1.74-2.6-1.63c-0.55-0.63-1.37-1.03-2.28-1.03c-1.67,0-3.02,1.33-3.02,2.98c0,1.19,0.98,2.16,2.18,2.16
	c0.47,0,0.91-0.15,1.27-0.4l0.14,0.49c-0.63-0.23-1.37-0.15-1.96,0.27l-1.17,0.87l-1.48-1.88l-1.62,1.26l1.46,1.85l-0.79,0.57v1.43
	l1.59,1.26c-2.35,0.92-3.51,3.55-2.58,5.88c0.2,0.49,0.47,0.92,0.8,1.3v0.07c0,0.2,0.03,0.4,0.09,0.6l-1.03,1.52l1,1.31
	c-0.12,0.4-0.19,0.82-0.19,1.26c0,2.4,1.97,4.35,4.4,4.35c1.48,0,2.78-0.72,3.58-1.82l0.84,0l-0.66,1.03h1.45l0.79,0.8l0.79-0.8
	h1.35l-0.58-1.04h1.66l-0.58,1.04h1.42l0.79,0.8l0.79-0.8h1.35l-0.56-1.04v-0.74l3.13-1.8c-1.03-1-1.06-2.65-0.05-3.67
	C267.62,25.75,267.88,25.57,268.16,25.44"/>
<path class="st3" d="M284.93,18.25l0.65-1.11c-0.15-0.07-0.28-0.17-0.4-0.28l-0.81,1.03C284.54,18.03,284.73,18.15,284.93,18.25"/>
<path class="st3" d="M286.82,29.51c0.44-0.12,0.96-0.21,1.43-0.24v-1.38c-0.14,0.01-0.34,0.03-0.48,0.04L286.82,29.51z"/>
<path class="st3" d="M283.73,29.25l0.69,1.07l0.89-1.21c-0.13-0.01-0.26-0.02-0.39-0.02C284.51,29.09,284.11,29.15,283.73,29.25"/>
<rect x="271.3" y="5.66" class="st3" width="0.37" height="28.99"/>
<rect x="300.09" y="5.66" class="st3" width="0.36" height="28.99"/>
<path class="st3" d="M250.49,40.89c-0.35-0.14-0.73-0.23-1.11-0.23c-1.37,0-2.6,0.9-2.6,2.33c0,1.35,0.92,2.02,2.21,2.02
	c0.5,0,1.09-0.11,1.55-0.33c0.03-0.43,0.05-0.57,0.05-0.62c0-0.03-0.03-0.07-0.09-0.07c-0.08,0-0.08,0.06-0.1,0.12
	c-0.08,0.44-0.86,0.64-1.22,0.64c-1.04,0-1.61-0.91-1.61-1.87c0-1.07,0.66-1.95,1.75-1.95c0.4,0,0.88,0.19,0.92,0.38
	c0.03,0.13,0.04,0.16,0.1,0.16C250.43,41.47,250.44,41.46,250.49,40.89"/>
<path class="st3" d="M254.15,45.01c1.34,0,2.24-0.99,2.24-2.28c0-1.25-0.83-2.07-2.1-2.07c-1.34,0-2.23,0.99-2.23,2.28
	C252.05,44.2,252.88,45.01,254.15,45.01 M254.34,44.78c-0.6,0-1.53-0.52-1.53-2.18c0-1.66,1.08-1.7,1.29-1.7
	c0.6,0,1.54,0.52,1.54,2.19C255.63,44.74,254.54,44.78,254.34,44.78"/>
<path class="st3" d="M258.94,41.12c0-0.07,0.02-0.09,0.09-0.09h0.29c0.2,0,0.86,0.2,0.86,0.96c0,0.58-0.47,0.81-0.99,0.81h-0.23
	V41.12z M259.48,44.89v-0.21h-0.29c-0.21,0-0.25-0.03-0.25-0.88v-0.78h0.4c0.46,0.9,0.95,1.66,1.14,1.82
	c0.07,0.05,0.18,0.05,0.33,0.05h0.74v-0.21c-0.26,0-0.3-0.05-0.48-0.24c-0.28-0.3-0.5-0.66-1.09-1.54c0.54-0.08,0.93-0.43,0.93-1
	c0-0.53-0.44-1.11-1.37-1.11h-1.91V41h0.29c0.21,0,0.25,0.03,0.25,0.88v2.7c0,0.07-0.01,0.1-0.1,0.1h-0.29v0.21H259.48z"/>
<path class="st3" d="M265.2,44.68h-0.44c-0.21,0-0.25-0.03-0.25-0.88v-2.76h0.12c0.3,0,1.01,0.01,1.17,0.34
	c0.04,0.08,0.07,0.12,0.12,0.12c0.05,0,0.08-0.03,0.08-0.08c0-0.03-0.05-0.15-0.2-0.63h-3.37c-0.15,0.48-0.2,0.61-0.2,0.63
	c0,0.05,0.04,0.08,0.08,0.08c0.06,0,0.09-0.05,0.12-0.12c0.16-0.32,0.88-0.34,1.18-0.34h0.12v3.54c0,0.06-0.01,0.1-0.1,0.1h-0.49
	v0.21h2.03V44.68z"/>
<path class="st3" d="M269.67,43.93c0,0.55-0.52,0.82-1.02,0.82c-0.33,0-0.89-0.15-1.01-0.51c-0.02-0.06-0.03-0.13-0.11-0.13
	c-0.1,0-0.1,0.07-0.1,0.11c0,0.08,0.05,0.24,0.11,0.61c0.34,0.12,0.71,0.19,1.07,0.19c1.46,0,1.65-1.08,1.65-1.29
	c0-1.57-2.13-1.08-2.13-2.1c0-0.47,0.45-0.69,0.87-0.69c0.23,0,0.69,0.09,0.74,0.37c0.01,0.06,0.03,0.11,0.09,0.11
	c0.05,0,0.09-0.01,0.09-0.09c0-0.1-0.02-0.36-0.03-0.53c-0.25-0.1-0.54-0.12-0.8-0.12c-0.73,0-1.55,0.4-1.55,1.19
	C267.54,43.33,269.67,42.83,269.67,43.93"/>
<path class="st3" d="M278.19,40.79h-1.25V41h0.35c0.1,0,0.16,0.01,0.16,0.1c0,0.17-0.21,0.72-0.29,0.91l-0.78,1.84l-0.95-2.21
	c-0.14-0.32-0.25-0.55-0.25-0.59c0-0.04,0.04-0.04,0.11-0.04h0.28v-0.21h-1.61V41h0.21c0.16,0,0.22,0.08,0.52,0.77l1.36,3.2
	c0.02,0.05,0.03,0.07,0.08,0.07c0.05,0,0.07-0.04,0.1-0.11l1.55-3.77c0.07-0.16,0.07-0.16,0.11-0.16h0.3V40.79z"/>
<path class="st3" d="M281.15,43.4l0.39,1.12c0.05,0.13,0.03,0.15-0.1,0.15h-0.29v0.21h1.65v-0.21h-0.16c-0.22,0-0.27-0.08-0.47-0.61
	c-0.36-0.98-1.09-2.88-1.09-3.1c0-0.13,0.13-0.14,0.13-0.22c0-0.04-0.02-0.09-0.07-0.09c-0.1,0-0.41,0.08-0.52,0.1
	c-0.67,1.55-1.35,3.08-1.62,3.79c-0.03,0.08-0.07,0.12-0.17,0.12h-0.21v0.21h1.32v-0.21h-0.37c-0.11,0-0.18-0.02-0.18-0.14
	c0-0.19,0.23-0.78,0.37-1.13H281.15z M281.05,43.15h-1.18c0.2-0.51,0.41-1.03,0.65-1.54L281.05,43.15z"/>
<path class="st3" d="M285.19,41.1c-0.01-0.06,0.01-0.1,0.09-0.1h0.29v-0.21h-1.68V41h0.29c0.21,0,0.25,0.03,0.25,0.88v2.7
	c0,0.07-0.01,0.1-0.1,0.1h-0.29v0.21h3.07c0.14-0.46,0.17-0.56,0.17-0.61c0-0.04-0.03-0.08-0.07-0.08c-0.06,0-0.07,0.04-0.1,0.08
	c-0.2,0.36-1.09,0.36-1.44,0.36h-0.23c-0.22,0-0.25-0.02-0.25-1.4V41.1z"/>
<path class="st3" d="M288.57,44.89h3.07c0.14-0.46,0.17-0.56,0.17-0.61c0-0.05-0.03-0.08-0.07-0.08c-0.06,0-0.07,0.04-0.1,0.08
	c-0.2,0.36-1.09,0.36-1.44,0.36h-0.23c-0.22,0-0.25-0.02-0.25-1.4v-0.47h0.61c0.69,0,0.72,0.07,0.72,0.18v0.23h0.2v-1.14h-0.2v0.23
	c0,0.19-0.03,0.26-0.72,0.26h-0.61v-1.41c0-0.07,0.02-0.09,0.08-0.09h0.47c0.74,0,1.09,0.15,1.1,0.26c0.01,0.09,0.02,0.14,0.1,0.14
	c0.07,0,0.07-0.05,0.15-0.66h-3.2V41h0.29c0.21,0,0.25,0.03,0.25,0.88v2.7c0,0.07-0.01,0.1-0.1,0.1h-0.29V44.89z"/>
<path class="st3" d="M294.29,40.79h-1.13V41h0.19c0.26,0,0.4,0.29,0.4,0.65v2.94c0,0.08-0.03,0.08-0.2,0.08h-0.18v0.21h1.22v-0.21
	h-0.26c-0.18,0-0.22-0.01-0.25-0.21c-0.05-0.31-0.05-0.78-0.05-1.13v-1.79l2.89,3.25c0.1,0.12,0.14,0.17,0.2,0.17
	c0.05,0,0.07-0.03,0.07-0.08v-3.79c0-0.08,0.03-0.08,0.2-0.08h0.18v-0.21h-1.22V41h0.26c0.18,0,0.22,0.01,0.25,0.21
	c0.05,0.31,0.05,0.77,0.05,1.13v1.37L294.29,40.79z"/>
<path class="st3" d="M302.67,40.89c-0.35-0.14-0.73-0.23-1.11-0.23c-1.37,0-2.6,0.9-2.6,2.33c0,1.35,0.91,2.02,2.22,2.02
	c0.5,0,1.09-0.11,1.55-0.33c0.03-0.43,0.05-0.57,0.05-0.62c0-0.03-0.03-0.07-0.09-0.07c-0.08,0-0.08,0.06-0.1,0.12
	c-0.08,0.44-0.86,0.64-1.22,0.64c-1.04,0-1.61-0.91-1.61-1.87c0-1.07,0.66-1.95,1.75-1.95c0.4,0,0.88,0.19,0.92,0.38
	c0.03,0.13,0.04,0.16,0.1,0.16C302.61,41.47,302.63,41.46,302.67,40.89"/>
<path class="st3" d="M305.51,41.1c0-0.06,0.01-0.1,0.1-0.1h0.29v-0.21h-1.69V41h0.29c0.21,0,0.25,0.03,0.25,0.88v2.7
	c0,0.07-0.01,0.1-0.1,0.1h-0.29v0.21h1.69v-0.21h-0.29c-0.21,0-0.25-0.03-0.25-0.88V41.1z"/>
<path class="st3" d="M309.67,43.4l0.39,1.12c0.05,0.13,0.03,0.15-0.1,0.15h-0.29v0.21h1.65v-0.21h-0.16c-0.22,0-0.28-0.08-0.47-0.61
	c-0.36-0.98-1.09-2.88-1.09-3.1c0-0.13,0.13-0.14,0.13-0.22c0-0.04-0.02-0.09-0.07-0.09c-0.1,0-0.41,0.08-0.52,0.1
	c-0.67,1.55-1.35,3.08-1.62,3.79c-0.03,0.08-0.07,0.12-0.17,0.12h-0.21v0.21h1.33v-0.21h-0.37c-0.11,0-0.18-0.02-0.18-0.14
	c0-0.19,0.23-0.78,0.37-1.13H309.67z M309.57,43.15h-1.18c0.2-0.51,0.4-1.03,0.65-1.54L309.57,43.15z"/>
<path class="st3" d="M313.64,40.79h-1.13V41h0.19c0.25,0,0.4,0.29,0.4,0.65v2.94c0,0.08-0.03,0.08-0.2,0.08h-0.18v0.21h1.22v-0.21
	h-0.26c-0.18,0-0.22-0.01-0.25-0.21c-0.05-0.31-0.05-0.78-0.05-1.13v-1.79l2.89,3.25c0.1,0.12,0.14,0.17,0.2,0.17
	c0.05,0,0.06-0.03,0.06-0.08v-3.79c0-0.08,0.03-0.08,0.2-0.08h0.18v-0.21h-1.22V41h0.26c0.18,0,0.22,0.01,0.25,0.21
	c0.05,0.31,0.05,0.77,0.05,1.13v1.37L313.64,40.79z"/>
<path class="st3" d="M318.34,44.89h3.07c0.14-0.46,0.17-0.56,0.17-0.61c0-0.05-0.03-0.08-0.07-0.08c-0.06,0-0.07,0.04-0.1,0.08
	c-0.2,0.36-1.09,0.36-1.44,0.36h-0.23c-0.22,0-0.25-0.02-0.25-1.4v-0.47h0.61c0.69,0,0.72,0.07,0.72,0.18v0.23h0.2v-1.14h-0.2v0.23
	c0,0.19-0.03,0.26-0.72,0.26h-0.61v-1.41c0-0.07,0.02-0.09,0.08-0.09h0.47c0.74,0,1.09,0.15,1.1,0.26c0.01,0.09,0.02,0.14,0.1,0.14
	c0.07,0,0.07-0.05,0.14-0.66h-3.2V41h0.29c0.21,0,0.25,0.03,0.25,0.88v2.7c0,0.07-0.01,0.1-0.1,0.1h-0.29V44.89z"/>
<path class="st3" d="M325.32,43.93c0,0.55-0.52,0.82-1.02,0.82c-0.33,0-0.89-0.15-1.01-0.51c-0.02-0.06-0.03-0.13-0.11-0.13
	c-0.1,0-0.1,0.07-0.1,0.11c0,0.08,0.05,0.24,0.11,0.61c0.34,0.12,0.71,0.19,1.07,0.19c1.46,0,1.65-1.08,1.65-1.29
	c0-1.57-2.13-1.08-2.13-2.1c0-0.47,0.45-0.69,0.87-0.69c0.24,0,0.68,0.09,0.74,0.37c0.01,0.06,0.03,0.11,0.09,0.11
	c0.05,0,0.09-0.01,0.09-0.09c0-0.1-0.03-0.36-0.03-0.53c-0.26-0.1-0.54-0.12-0.8-0.12c-0.73,0-1.56,0.4-1.56,1.19
	C323.18,43.33,325.32,42.83,325.32,43.93"/>
<rect x="0" class="st4" width="325.91" height="50.7"/>
</svg>
