<svg version="1.1" xmlns="http://www.w3.org/2000/svg" xmlns:xlink="http://www.w3.org/1999/xlink" x="0px" y="0px"
	 width="493.95px" height="103.33px" viewBox="0 0 493.95 103.33" style="enable-background:new 0 0 493.95 103.33;"
	 xml:space="preserve">
<style type="text/css">
	.st0{clip-path:url(#SVGID_2_);fill:url(#SVGID_3_);}
	.st1{fill:#27292E;}
	.st2{fill:none;stroke:#898E91;stroke-width:1.326;stroke-miterlimit:10;}
	.st3{fill:#898E91;}
	.st4{fill:#12ACE3;}
	.st5{fill:none;stroke:#12ACE3;stroke-width:0.948;stroke-linecap:square;stroke-miterlimit:10;}
	.st6{fill:none;stroke:#12ACE3;stroke-width:0.948;stroke-linecap:square;stroke-miterlimit:10;stroke-dasharray:4.737,4.737;}
	.st7{fill:none;}
	.st8{clip-path:url(#SVGID_5_);fill:#CCE4F6;}
	.st9{clip-path:url(#SVGID_5_);fill:#0FACE3;}
	.st10{fill:#18171C;}
	.st11{clip-path:url(#SVGID_7_);fill:#12ACE3;}
	.st12{clip-path:url(#SVGID_9_);fill:#CCE4F6;}
	.st13{clip-path:url(#SVGID_9_);fill:#0FACE3;}
	.st14{clip-path:url(#SVGID_11_);fill:none;stroke:#12ACE3;stroke-width:0.948;stroke-linecap:square;stroke-miterlimit:10;}
	.st15{clip-path:url(#SVGID_13_);fill:none;stroke:#12ACE3;stroke-width:0.948;stroke-linecap:square;stroke-miterlimit:10;}
	.st16{clip-path:url(#SVGID_15_);fill:none;stroke:#12ACE3;stroke-width:0.948;stroke-linecap:square;stroke-miterlimit:10;}
	.st17{clip-path:url(#SVGID_17_);fill:url(#SVGID_18_);}
	.st18{clip-path:url(#SVGID_20_);fill:#CCE4F6;}
	.st19{clip-path:url(#SVGID_20_);fill:#0FACE3;}
	.st20{clip-path:url(#SVGID_22_);fill:#12ACE3;}
	.st21{clip-path:url(#SVGID_24_);fill:#CCE4F6;}
	.st22{clip-path:url(#SVGID_24_);fill:#0FACE3;}
	.st23{clip-path:url(#SVGID_26_);fill:none;stroke:#12ACE3;stroke-width:0.948;stroke-linecap:square;stroke-miterlimit:10;}
	.st24{clip-path:url(#SVGID_28_);fill:none;stroke:#12ACE3;stroke-width:0.948;stroke-linecap:square;stroke-miterlimit:10;}
	.st25{clip-path:url(#SVGID_30_);fill:none;stroke:#12ACE3;stroke-width:0.948;stroke-linecap:square;stroke-miterlimit:10;}
</style>
<defs>
</defs>
<g>
	<defs>
		<path id="SVGID_1_" d="M27.86,54.99h5.68v0.95h-5.68V54.99z M37.33,54.99h5.68v0.95h-5.68V54.99z M65.75,54.99h5.68v0.95h-5.68
			V54.99z M75.23,54.99h5.68v0.95h-5.68V54.99z M70.89,46.31l2.03,2.59c-0.04,0.03-0.08,0.06-0.11,0.09
			c-0.01,0.01-0.01,0.01-0.02,0.02c-0.04,0.03-0.07,0.06-0.11,0.09h0c-3.71,3.02-7.76,5-12.37,5.89h1.67v0.95h-5.68v-0.46h0
			c-0.03,0-0.05,0-0.08,0c-0.54,0.03-1.08,0.04-1.64,0.05c-0.01,0-0.02,0-0.03,0c-0.05,0-0.1,0-0.16,0c-0.05,0-0.1,0-0.15,0
			c-0.01,0-0.03,0-0.04,0c-0.04,0-0.09,0-0.13,0c-0.01,0-0.01,0-0.02,0c-0.05,0-0.11,0-0.16,0c-0.01,0-0.01,0-0.02,0
			c-0.05,0-0.1,0-0.15,0c0,0,0,0,0,0c-0.4-0.01-0.8-0.02-1.2-0.04v0.45h-5.68v-0.95h1.64c-4.51-0.87-8.48-2.78-12.12-5.69l0,0
			c-0.04-0.03-0.08-0.07-0.12-0.1l0,0c-0.04-0.03-0.08-0.07-0.12-0.1c0,0,0,0,0,0c-0.04-0.03-0.07-0.06-0.11-0.09
			c-0.01-0.01-0.02-0.01-0.02-0.02c-0.04-0.03-0.08-0.06-0.11-0.09l2.03-2.59c5.23,3.73,9.52,5.44,16.51,5.44
			C61.37,51.75,65.65,50.03,70.89,46.31 M44.34,30.04h5.78v5.51H44.8c-3.32,0-5.5-0.81-6.92-4.02l2.22-1.28
			c0.99,2.04,2.22,2.52,4.24,2.52V30.04z M58.44,30.04h5.77v5.51h-5.77V30.04z M29.02,15.65c-1.42,0-2.58,1.11-2.58,2.46v47.8
			c0,0.01,0,0.02,0,0.04c0,0,0,0.01,0,0.01c0,0.01,0,0.02,0,0.02c0,0.01,0,0.01,0,0.01c0,0.01,0,0.01,0,0.02c0,0,0,0.01,0,0.01
			c0,0.01,0,0.02,0,0.03c0,0,0,0.01,0,0.01c0,0.02,0,0.05,0.01,0.07c0,0,0,0,0,0.01c0,0.01,0,0.02,0,0.03c0,0,0,0.01,0,0.01
			c0,0.01,0,0.02,0,0.03c0,0,0,0,0,0c0.09,0.69,0.48,1.3,1.04,1.69h53.11c0.15-0.1,0.29-0.22,0.41-0.36c0,0,0,0,0,0
			c0.01-0.01,0.02-0.02,0.03-0.03c0,0,0.01-0.01,0.01-0.01c0.01-0.01,0.01-0.01,0.01-0.02c0.01-0.01,0.01-0.02,0.02-0.03
			c0,0,0-0.01,0.01-0.01c0.01-0.01,0.02-0.02,0.02-0.03c0,0,0-0.01,0.01-0.01c0.01-0.01,0.02-0.02,0.03-0.04c0,0,0,0,0,0
			c0.01-0.01,0.02-0.03,0.03-0.04l0,0V41.23h0.47V18.12c0-1.36-1.16-2.46-2.58-2.46H29.02z"/>
	</defs>
	<clipPath id="SVGID_2_">
		<use xlink:href="#SVGID_1_"  style="overflow:visible;"/>
	</clipPath>

		<linearGradient id="SVGID_3_" gradientUnits="userSpaceOnUse" x1="-56.693" y1="203.632" x2="-55.693" y2="203.632" gradientTransform="matrix(0 53.3109 53.3109 0 -10801.748 3037.7361)">
		<stop  offset="0" style="stop-color:#E18433"/>
		<stop  offset="0.2756" style="stop-color:#DE7833"/>
		<stop  offset="0.8103" style="stop-color:#D85933"/>
		<stop  offset="1" style="stop-color:#D54B32"/>
	</linearGradient>
	<rect x="26.44" y="15.65" class="st0" width="55.24" height="52.26"/>
</g>
<path class="st1" d="M116.73,46.44c-0.06,1.04-0.27,2.04-0.6,3.03c-0.34,0.98-0.8,1.86-1.4,2.63c-0.9,1.13-2.11,2.1-3.63,2.9
	c-1.52,0.8-3.28,1.2-5.28,1.2c-2,0-3.79-0.41-5.35-1.22c-1.57-0.83-2.81-1.78-3.71-2.88c-0.97-1.24-1.68-2.65-2.15-4.26
	c-0.47-1.6-0.7-3.35-0.7-5.26c0-1.9,0.23-3.65,0.7-5.25c0.47-1.6,1.18-3.02,2.15-4.25c0.9-1.1,2.14-2.06,3.71-2.87
	c1.56-0.82,3.35-1.23,5.35-1.23c2,0,3.76,0.4,5.28,1.2c1.52,0.8,2.73,1.77,3.63,2.9c0.6,0.77,1.07,1.65,1.4,2.63
	c0.33,0.98,0.53,1.99,0.6,3.03h-6.15c-0.03-0.46-0.12-0.89-0.25-1.28c-0.14-0.4-0.3-0.76-0.5-1.09c-0.37-0.55-0.88-1.02-1.55-1.38
	c-0.67-0.37-1.48-0.55-2.45-0.55c-0.87,0-1.61,0.15-2.23,0.45c-0.61,0.3-1.14,0.68-1.57,1.14c-0.77,0.83-1.25,1.83-1.46,2.99
	c-0.2,1.16-0.3,2.35-0.3,3.58c0,1.23,0.1,2.42,0.3,3.56c0.21,1.14,0.69,2.13,1.46,2.96c0.43,0.46,0.96,0.85,1.57,1.17
	c0.62,0.32,1.36,0.48,2.23,0.48c0.97,0,1.78-0.18,2.45-0.55c0.67-0.37,1.18-0.82,1.55-1.38c0.2-0.34,0.36-0.7,0.5-1.09
	c0.13-0.4,0.22-0.82,0.25-1.29H116.73z"/>
<path class="st1" d="M142.16,42.64c0,2.2-0.27,4.04-0.8,5.53c-0.53,1.48-1.29,2.84-2.26,4.07c-0.9,1.1-2.14,2.05-3.72,2.86
	c-1.59,0.8-3.38,1.2-5.38,1.2c-2,0-3.8-0.4-5.38-1.2c-1.58-0.8-2.83-1.75-3.72-2.86c-0.97-1.23-1.72-2.59-2.25-4.07
	c-0.53-1.49-0.8-3.33-0.8-5.53c0-2.2,0.27-4.04,0.8-5.53c0.53-1.49,1.28-2.85,2.25-4.08c0.9-1.1,2.14-2.05,3.72-2.85
	c1.59-0.8,3.38-1.2,5.38-1.2c2,0,3.79,0.4,5.38,1.2c1.58,0.8,2.83,1.75,3.72,2.85c0.97,1.23,1.72,2.59,2.26,4.08
	C141.89,38.6,142.16,40.44,142.16,42.64 M135.8,42.64c0-1.24-0.12-2.43-0.35-3.58c-0.24-1.15-0.74-2.15-1.5-2.98
	c-0.43-0.47-0.99-0.86-1.65-1.18c-0.67-0.32-1.43-0.47-2.3-0.47c-0.87,0-1.63,0.16-2.3,0.47c-0.67,0.32-1.22,0.71-1.65,1.18
	c-0.77,0.83-1.26,1.83-1.5,2.98c-0.23,1.15-0.35,2.34-0.35,3.58c0,1.23,0.12,2.42,0.35,3.58c0.24,1.15,0.74,2.14,1.5,2.97
	c0.43,0.47,0.99,0.86,1.65,1.18c0.67,0.32,1.43,0.48,2.3,0.48c0.87,0,1.64-0.16,2.3-0.48c0.67-0.32,1.22-0.7,1.65-1.18
	c0.76-0.83,1.26-1.82,1.5-2.97C135.69,45.07,135.8,43.87,135.8,42.64"/>
<path class="st1" d="M176.19,55.65V39.49c0-1.6-0.28-2.84-0.83-3.73c-0.54-0.88-1.61-1.33-3.17-1.33c-0.9,0-1.67,0.21-2.31,0.63
	c-0.63,0.42-1.16,0.97-1.57,1.65c-0.42,0.68-0.73,1.45-0.93,2.28c-0.2,0.84-0.3,1.65-0.3,2.45v14.21h-6.21V39.49
	c0-1.6-0.28-2.84-0.83-3.73c-0.55-0.88-1.61-1.33-3.17-1.33c-0.9,0-1.67,0.21-2.3,0.63c-0.64,0.42-1.17,0.97-1.6,1.65
	c-0.44,0.68-0.76,1.45-0.95,2.28c-0.2,0.84-0.3,1.65-0.3,2.45v14.21h-6.21V29.63h5.2l0.5,3.45c0.73-1.2,1.72-2.19,2.95-2.95
	c1.23-0.77,2.72-1.15,4.45-1.15c1.83,0,3.37,0.37,4.6,1.13c1.24,0.75,2.19,1.79,2.85,3.12c0.77-1.36,1.83-2.41,3.18-3.15
	c1.35-0.73,2.91-1.1,4.68-1.1c2.8,0,4.92,0.85,6.33,2.53c1.42,1.69,2.13,3.88,2.13,6.58v17.56H176.19z"/>
<path class="st1" d="M211.22,42.59c0,5.18-1.55,9.04-4.66,11.61c-0.8,0.67-1.73,1.18-2.78,1.55c-1.05,0.37-2.24,0.54-3.57,0.54
	c-1.57,0-2.95-0.24-4.13-0.72c-1.18-0.48-2.08-1.09-2.68-1.83v11.86h-6.25V29.63h5.4l0.4,2.85c0.77-1.2,1.82-2.08,3.15-2.63
	c1.33-0.55,2.72-0.83,4.15-0.83c1.3,0,2.48,0.2,3.52,0.6c1.05,0.4,1.98,0.93,2.78,1.6c1.57,1.26,2.73,2.85,3.5,4.78
	C210.83,37.93,211.22,40.12,211.22,42.59 M204.86,42.69c0-1.13-0.11-2.26-0.33-3.37c-0.22-1.12-0.65-2.11-1.33-2.98
	c-0.47-0.57-1.04-1.05-1.73-1.45c-0.68-0.4-1.51-0.6-2.48-0.6c-1.24,0-2.23,0.26-3,0.78c-0.77,0.52-1.37,1.19-1.8,2
	c-0.43,0.82-0.72,1.72-0.88,2.73c-0.15,1-0.22,1.97-0.22,2.9c0,0.94,0.08,1.9,0.22,2.88c0.15,0.98,0.45,1.88,0.88,2.7
	c0.44,0.82,1.03,1.49,1.8,2c0.77,0.52,1.77,0.78,3,0.78c0.97,0,1.79-0.2,2.48-0.6c0.68-0.4,1.26-0.89,1.73-1.45
	c0.67-0.87,1.11-1.85,1.33-2.96C204.76,44.94,204.86,43.82,204.86,42.69"/>
<path class="st1" d="M229.78,35.39c-0.77-0.16-1.48-0.25-2.15-0.25c-2.2,0-3.87,0.7-5,2.1c-1.14,1.41-1.7,3.16-1.7,5.26v13.15h-6.36
	V29.63h5.35l0.56,3.87c0.61-1.49,1.6-2.56,2.98-3.22c1.38-0.66,2.85-0.99,4.38-0.99c0.66,0,1.32,0.04,1.95,0.14V35.39z"/>
<path class="st1" d="M253.3,42.64c0,2.2-0.27,4.04-0.8,5.53c-0.54,1.48-1.29,2.84-2.25,4.07c-0.9,1.1-2.14,2.05-3.73,2.86
	c-1.59,0.8-3.38,1.2-5.39,1.2c-2,0-3.79-0.4-5.37-1.2c-1.59-0.8-2.83-1.75-3.73-2.86c-0.97-1.23-1.72-2.59-2.25-4.07
	c-0.53-1.49-0.8-3.33-0.8-5.53c0-2.2,0.27-4.04,0.8-5.53c0.53-1.49,1.29-2.85,2.25-4.08c0.9-1.1,2.14-2.05,3.73-2.85
	c1.58-0.8,3.37-1.2,5.37-1.2c2,0,3.8,0.4,5.39,1.2c1.58,0.8,2.83,1.75,3.73,2.85c0.97,1.23,1.72,2.59,2.25,4.08
	C253.03,38.6,253.3,40.44,253.3,42.64 M246.95,42.64c0-1.24-0.12-2.43-0.35-3.58c-0.24-1.15-0.74-2.15-1.51-2.98
	c-0.43-0.47-0.99-0.86-1.65-1.18c-0.67-0.32-1.43-0.47-2.3-0.47c-0.86,0-1.63,0.16-2.3,0.47c-0.67,0.32-1.22,0.71-1.65,1.18
	c-0.77,0.83-1.27,1.83-1.5,2.98c-0.23,1.15-0.35,2.34-0.35,3.58c0,1.23,0.12,2.42,0.35,3.58c0.23,1.15,0.74,2.14,1.5,2.97
	c0.44,0.47,0.98,0.86,1.65,1.18c0.67,0.32,1.43,0.48,2.3,0.48c0.87,0,1.64-0.16,2.3-0.48c0.67-0.32,1.22-0.7,1.65-1.18
	c0.77-0.83,1.27-1.82,1.51-2.97C246.83,45.07,246.95,43.87,246.95,42.64"/>
<path class="st1" d="M287.33,55.65V39.49c0-1.6-0.28-2.84-0.82-3.73c-0.55-0.88-1.61-1.33-3.18-1.33c-0.9,0-1.67,0.21-2.31,0.63
	c-0.63,0.42-1.15,0.97-1.57,1.65c-0.42,0.68-0.73,1.45-0.92,2.28c-0.2,0.84-0.3,1.65-0.3,2.45v14.21h-6.21V39.49
	c0-1.6-0.28-2.84-0.83-3.73c-0.55-0.88-1.61-1.33-3.18-1.33c-0.9,0-1.67,0.21-2.3,0.63c-0.63,0.42-1.17,0.97-1.6,1.65
	c-0.43,0.68-0.75,1.45-0.94,2.28c-0.21,0.84-0.31,1.65-0.31,2.45v14.21h-6.2V29.63h5.2l0.51,3.45c0.73-1.2,1.71-2.19,2.95-2.95
	c1.23-0.77,2.72-1.15,4.45-1.15c1.83,0,3.37,0.37,4.6,1.13c1.24,0.75,2.19,1.79,2.86,3.12c0.77-1.36,1.82-2.41,3.17-3.15
	c1.35-0.73,2.91-1.1,4.68-1.1c2.8,0,4.92,0.85,6.33,2.53c1.42,1.69,2.13,3.88,2.13,6.58v17.56H287.33z"/>
<path class="st1" d="M297.39,27.23l-1.8-3l8.21-6.35l2.5,4.2L297.39,27.23z M298.39,29.63h6.35v26.02h-6.35V29.63z"/>
<path class="st1" d="M330.17,47.59c0,1.27-0.21,2.37-0.62,3.31c-0.42,0.93-0.96,1.73-1.63,2.4c-1.07,1.07-2.37,1.84-3.9,2.3
	c-1.54,0.47-3.2,0.7-5.01,0.7c-1.67,0-3.22-0.24-4.65-0.72c-1.44-0.48-2.69-1.24-3.76-2.28c-0.77-0.74-1.42-1.62-1.95-2.65
	c-0.54-1.03-0.8-2.16-0.8-3.4h5.86c0,0.56,0.13,1.13,0.4,1.7c0.27,0.56,0.6,1.02,1,1.35c0.5,0.4,1.06,0.69,1.68,0.88
	c0.62,0.19,1.37,0.28,2.27,0.28c0.53,0,1.11-0.04,1.73-0.13c0.61-0.08,1.19-0.24,1.72-0.47c0.54-0.24,0.97-0.56,1.32-1
	c0.35-0.43,0.53-1,0.53-1.7c0-0.77-0.23-1.38-0.7-1.85c-0.46-0.46-1.1-0.77-1.9-0.9c-1.17-0.16-2.37-0.31-3.61-0.43
	c-1.23-0.11-2.43-0.31-3.6-0.58c-0.9-0.2-1.71-0.52-2.42-0.95c-0.72-0.43-1.35-0.95-1.88-1.57c-0.53-0.62-0.94-1.3-1.23-2.05
	c-0.28-0.75-0.42-1.54-0.42-2.37c0-1.33,0.26-2.48,0.75-3.43c0.5-0.95,1.13-1.76,1.9-2.43c0.97-0.84,2.12-1.48,3.46-1.93
	c1.34-0.45,2.82-0.68,4.45-0.68c1.57,0,3.08,0.25,4.54,0.75c1.44,0.51,2.66,1.27,3.62,2.31c0.7,0.76,1.26,1.61,1.68,2.53
	c0.42,0.92,0.63,1.85,0.63,2.82h-5.96c0-0.5-0.1-0.95-0.3-1.35c-0.2-0.4-0.45-0.77-0.75-1.1c-0.37-0.36-0.86-0.66-1.48-0.88
	c-0.62-0.22-1.26-0.32-1.93-0.32c-0.47,0-0.92,0.02-1.35,0.05c-0.43,0.03-0.89,0.14-1.35,0.34c-0.57,0.24-1.04,0.59-1.42,1.05
	c-0.38,0.47-0.58,1.04-0.58,1.7c0,0.94,0.32,1.58,0.97,1.93c0.65,0.35,1.33,0.57,2.03,0.67c0.6,0.07,1.1,0.12,1.5,0.18
	c0.4,0.05,0.8,0.1,1.2,0.15c0.4,0.05,0.82,0.11,1.25,0.18c0.43,0.07,0.97,0.15,1.6,0.25c2.07,0.33,3.77,1.12,5.1,2.38
	C329.5,43.86,330.17,45.52,330.17,47.59"/>
<line class="st2" x1="343.35" y1="15.65" x2="343.35" y2="68.38"/>
<path class="st3" d="M371.69,30.71c0,0.69-0.57,1.25-1.26,1.25c-0.7,0-1.26-0.56-1.26-1.25c0-0.69,0.57-1.25,1.26-1.25
	C371.12,29.46,371.69,30.02,371.69,30.71 M367.76,30.71c0,1.46,1.19,2.64,2.67,2.64c1.47,0,2.67-1.18,2.67-2.64
	c0-1.46-1.2-2.64-2.67-2.64C368.95,28.07,367.76,29.25,367.76,30.71"/>
<path class="st3" d="M443.8,27.63l-0.13-0.07l-0.55,0.54c0.28,0.43,0.63,0.81,1.02,1.13l1.09-1.47
	C444.74,27.85,444.24,27.79,443.8,27.63"/>
<polygon class="st3" points="446.65,35.71 446.64,47.31 449.18,49.82 449.18,33.21 "/>
<path class="st3" d="M421.14,50.1h-2.84v-1.42h2.84V50.1z M417.54,39.77l-3.29,7.58c0.49,0.07,0.97,0.17,1.43,0.31l1.19-2.83v3.8
	c-1.17-0.57-2.5-0.88-3.9-0.88c-1.33,0-2.58,0.29-3.71,0.8l3.73-6.24l-0.2,0l-6.32,8.26l-5.6-7.92c-0.17-0.27-0.27-0.59-0.27-0.94
	c0-0.46,0.18-0.88,0.47-1.2l2.72-1.99h-0.28c-0.79,0-1.44-0.67-1.44-1.45c0-0.58,0.35-1.09,0.86-1.31c0.43-0.19,0.9-0.3,1.4-0.3
	c0.34,0,0.68,0.05,0.99,0.14l-1.23,0.89h-0.59l0.83,1.4h1.91l-0.84-0.56l1.71-1.24v-2.21c-0.56-0.31-1.06-0.71-1.46-1.2l0.01,1.55
	c-0.42-0.12-0.86-0.18-1.32-0.18c-0.34,0-0.65,0.04-0.97,0.1l2.8-4.53h3.83c0.1,0.39,0.27,0.76,0.52,1.07h-0.86l-2.08,3.76
	l1.03,1.02l-1.97,3.38h-1.51l2.44,1.24l2.03-3.63l1.07,1.07l0.91-1.73h2.42l0.93-1.61l-0.6-0.93l-0.64,1.14h-1.71l-0.64-1.14
	l-0.6,1.14l-0.42,0.76l-1.05-1.03l1.13-2.05h4.88l1.28,2.03l-1.04,1.84l-0.13-0.01c-0.31,0-0.6,0.1-0.83,0.27l-7.34,5.18h-2.46
	l2.78,1.53l7.4-5.23c0.48-0.33,1.11-0.42,1.68-0.18C417.5,37.88,417.92,38.9,417.54,39.77 M412.38,51.52h-0.6l-1.04-2.08
	c0.66-0.19,1.35-0.29,2.06-0.29c0.16,0,0.43,0,0.59,0.01L412.38,51.52z M402.6,51.52l1.96-1.42l0.98,1.42H402.6z M401.49,47.26
	v-1.31h0l0.96,1.31H401.49z M397.21,50.1v-1.42h6.29l0.22,0.31l-1.58,1.11H397.21z M400.05,44.01v3.25h-1.41v-5.15h0.51
	c0.07,0.56,0.28,1.07,0.6,1.5L400.05,44.01z M399.05,38.48h2.31h0.01l-0.92,0.64c-0.57,0.4-0.96,0.96-1.15,1.58h-0.25
	c-0.62,0-1.12-0.5-1.12-1.11C397.93,38.97,398.43,38.48,399.05,38.48 M402.91,24.23v8.02l-1.44,2.45V24.23H402.91z M407.18,28.23
	h-1.81l-1.02,1.66v-5.67l1.82,0L407.18,28.23z M412.3,26.08l0.54-1.85h1.17l0,2.06c-0.36-0.16-0.77-0.25-1.19-0.25
	C412.64,26.03,412.47,26.05,412.3,26.08 M412.81,27.47c0.81,0,1.46,0.65,1.46,1.44c0,0.8-0.65,1.45-1.46,1.45
	c-0.81,0-1.46-0.65-1.46-1.45C411.35,28.11,412,27.47,412.81,27.47 M411.02,25.61l-0.4,1.43c-0.3,0.34-0.53,0.75-0.64,1.2h-1.35
	l-0.64-2.62H411.02z M407.67,24.23l-0.17-0.67c0.72,0,1.4-0.18,2-0.49c0.6,0.31,1.28,0.49,2,0.49l-0.17,0.67H407.67z M415.44,27.67
	v-3.44h1.47v7.84l-0.88-1.39h-0.9c0.38-0.49,0.6-1.1,0.6-1.76C415.72,28.46,415.62,28.05,415.44,27.67 M399.5,20.73h19.26l-1.3,2.07
	h-4.26l0.43-1.66c-0.52,0.59-1.29,0.97-2.14,0.97c-0.78,0-1.48-0.31-1.99-0.82c-0.51,0.5-1.21,0.82-1.99,0.82
	c-0.85,0-1.62-0.38-2.14-0.97l0.43,1.66l0.01,0h-4.99L399.5,20.73z M419.71,47.27h-1.4v-5.15h1.4V47.27z M419.07,38.46
	c0.62-0.03,1.14,0.43,1.18,1.05c0.03,0.61-0.44,1.13-1.06,1.17c-0.15,0.01-0.28-0.01-0.41-0.06
	C419.11,39.98,419.23,39.23,419.07,38.46 M421.14,41.09c0.32-0.42,0.53-0.95,0.53-1.52c0-1.39-1.14-2.52-2.55-2.52h-0.82V24.31
	l2.95-4.99h-24.17l2.98,4.99v12.74h-1.01c-1.42,0-2.56,1.14-2.56,2.54c0,0.7,0.29,1.33,0.75,1.79v5.88h-1.44v4.25h4.58l1.14,1.42
	h4.96c0.69-1.24,1.74-2.25,3-2.91l1.35,2.91h2.36l1.7-3.53c0.71,0.19,1.34,0.46,1.95,0.84c-0.62,1.02-2.54,2.4-2.54,2.4l3.04-1.13
	h5.28v-4.25h-1.46V41.09z"/>
<path class="st3" d="M446.34,28.32c-0.24-0.08-0.46-0.18-0.67-0.31l-1.11,1.53c0.46,0.3,0.97,0.52,1.52,0.66L446.34,28.32z"/>
<path class="st3" d="M442.28,43l2.49,2.47l0-7.9l-2.49,2.47C442.29,41.02,442.28,43,442.28,43"/>
<polygon class="st3" points="451.03,33.19 451.03,49.65 453.52,47.18 453.52,35.66 "/>
<path class="st3" d="M454.44,49.74l0.76-0.75l0.76,0.75H454.44z M450.07,52.12l-10.73-10.61l10.72-10.61l10.73,10.61L450.07,52.12z
	 M444.83,51.02l-1.01-0.99c0.15-0.16,0.42-0.33,0.61-0.38c0.5-0.13,1.08-0.01,1.41,0.36L444.83,51.02z M442.53,49.22l0-2.49
	l1.51,1.51c-0.3,0.12-0.58,0.24-0.84,0.41C442.94,48.81,442.73,49.01,442.53,49.22 M439.86,46v-2.01l1.28,1.27L439.86,46z
	 M438.48,28.95c0,0,2.62,4.2,2.95,4.75c-0.04,0.12-0.17,0.21-0.23,0.31c-0.45,0.57-0.62,1.46-0.34,2.18
	c0.14,0.36,0.38,0.69,0.67,0.97l-1.68,1.65l0.01-5.9l-1.35,0.78L438.48,28.95z M444.16,34.6l-1.52,1.49
	c-0.26-0.11-0.32-0.27-0.4-0.43c-0.08-0.28-0.02-0.59,0.17-0.8c0.21-0.25,0.51-0.3,0.83-0.29L444.16,34.6z M437.2,23.96l0.14-0.67
	l0.68,0.2l5.95,9.6l-1.12,0L437.2,23.96z M442.12,25.15c0.18,0.21,0.27,0.31,0.42,0.79l-0.78,0.76l-1.33-2.15
	C441.14,24.51,441.7,24.72,442.12,25.15 M443.54,27.03c0.11,0.01,0.2,0.09,0.3,0.14c0.47,0.16,1.03,0.21,1.54,0.1
	c0.1,0,0.21-0.1,0.28-0.01c0.28,0.23,0.58,0.43,0.93,0.54l0.04,3.24h1.11l-2.06,2.02L442.56,28L443.54,27.03 M444.57,23.22
	c0.67-0.43,1.33-1.04,1.48-1.85c0.04-0.22,0.05-0.3,0.11-0.46c0.26-0.8,1.02-1.39,1.89-1.43c0.85-0.03,1.66,0.46,1.98,1.21
	c0.05,0.14,0.08,0.16,0.1,0.25c0.05,0.18,0.1,0.38,0.07,0.58l-1.58-1.55l-3.34,3.3l0,2.45c-0.18,0.13-0.38,0.11-0.6,0.12
	c-0.42-0.01-0.73-0.35-0.88-0.71C443.59,24.36,443.98,23.66,444.57,23.22 M450.68,24.02l0.12,0.11c0.1,0.14,0.19,0.27,0.24,0.43
	c0.08,0.35-0.02,0.72-0.25,0.98c-0.28,0.26-0.68,0.43-1.07,0.31l-0.18-0.06l0.01-0.65L450.68,24.02z M447.57,25.12l0.49,0.51
	c0,0-0.01,0.37,0,0.55c-0.23,0.21-0.55,0.29-0.87,0.24c-0.16-0.04-0.31-0.1-0.45-0.2l-0.01-2.33l1.85-1.82l0.99,0.99l-1.18,1.16
	l-0.82-0.79L447.57,25.12z M452.61,28.47c0.49,0,0.96,0.3,1.16,0.72c0.17,0.27,0.13,0.65-0.04,0.91c-0.28,0.46-0.81,0.71-1.37,0.63
	c-0.28-0.05-0.56-0.17-0.74-0.42l-1.54-1.52l-0.77,0.77l-1.19-0.01l0-1.01c0,0,0.91-0.71,1.52-0.57c0.41,0.06,0.74,0.28,1.14,0.37
	C451.36,28.52,451.99,28.55,452.61,28.47 M451.44,26.91c0.48-0.36,0.83-0.88,1.05-1.43c0.4-0.68,1.23-1.05,2.07-0.9
	c0.62,0.1,1.15,0.47,1.5,1.09c0.21,0.38,0.23,0.69,0.23,1.08l-0.01,1.58l-0.02,4.05l-1.42-0.81v1.93l-1.41-1.4
	c0.36-0.15,0.72-0.29,1.1-0.67c0.45-0.46,0.84-1.18,0.84-1.68c0-0.35-0.08-0.64-0.08-0.64c-0.25-1.05-1.19-1.93-2.29-2.08
	c-0.41-0.06-0.8-0.01-1.19,0.01c-0.12-0.01-0.24-0.02-0.36-0.05C451.44,26.98,451.31,27.02,451.44,26.91 M462.85,41.44l-6.54-6.46
	v-0.87c0,0,0.9,0.51,1.41,0.79l0.01-8.29c0.01-0.49-0.09-0.93-0.25-1.35c-0.31-0.79-1.01-1.47-1.78-1.85
	c-1.11-0.53-2.56-0.4-3.56,0.27c-0.41-0.52-0.49-1.16-0.47-1.91c0.02-0.8-0.09-1.32-0.38-1.85c-0.42-0.86-1.27-1.52-2.18-1.78
	c-1.35-0.37-2.78,0.06-3.68,1.11c-0.49,0.53-0.68,1.18-0.85,1.86c-0.19,0.58-0.74,0.86-1.2,1.2c-0.44,0.3-0.71,0.77-0.96,1.22
	c-0.79-0.45-1.87-0.58-2.79-0.33l-0.69-1c-0.89-0.22-1.78-0.43-2.7-0.6l-0.66,2.61l1.44,2.37l-0.01,9.64l1.36-0.79l-0.01,4.96
	l-1.07,1.05l1.08,1.08l-0.01,4.16l1.17,1.16l1.49-0.81l0,4.05l1.74,0l2.04,2l2.1-2.1l3.15,3.12l3.04-2.97l3.52,0l1.44-1.43
	l-1.78-1.76L462.85,41.44z"/>
<polygon class="st3" points="455.41,37.52 455.41,45.31 457.87,42.87 457.87,39.95 "/>
<path class="st3" d="M405.18,47.71l1.34,1.9l0.42-0.52l-1.17-1.65C405.57,47.52,405.37,47.61,405.18,47.71"/>
<path class="st3" d="M406.46,30.17l-0.21,0.37c0.14,0.4,0.35,0.77,0.62,1.09l1.11-1.46H406.46z"/>
<path class="st3" d="M412.97,47.26c0.23,0,0.45,0.01,0.68,0.02l0.75-1.78c-0.47-0.06-0.95-0.09-1.43-0.09V47.26z"/>
<path class="st3" d="M378.95,49.34v1.83h-1.4v-1.39h-5.05v1.39h-1.4v-1.39h-1.82c0.23-0.63,0.35-1.3,0.35-2.01h1.18l-1.1-1.39h-1.71
	c-0.27-0.79-0.77-1.53-1.49-2.08l-0.24-0.17c0.19-0.99,0.11-1.95-0.19-2.85h3.73l0.01,2.92l2.49,3.2l-0.53,0.38h2.6l-2.23-2.73
	l0.28-0.21l2.84,1.76l0.99-0.73l-0.65-3.04l2,2.31c-0.21,0.14-0.35,0.38-0.35,0.65c0,0.3,0.17,0.57,0.42,0.7l-0.87,1.28h1.68
	l1.78-2.65v-1.6h2.16c-0.47,1.19-0.45,2.55,0.13,3.8L378.95,49.34z M363.3,47.8c0-0.23,0.19-0.42,0.43-0.42
	c0.23,0,0.43,0.19,0.43,0.42c0,0.23-0.19,0.42-0.43,0.42C363.49,48.22,363.3,48.03,363.3,47.8 M367.27,50.54
	c-1.53,1.93-4.35,2.28-6.31,0.77c-1.95-1.51-2.3-4.31-0.77-6.24l2.26,1.41c-0.12,0.12-0.24,0.26-0.33,0.41
	c-0.51,0.88-0.21,2,0.68,2.51c0.89,0.51,2.02,0.21,2.54-0.67c0.51-0.88,0.21-2-0.68-2.51l-3.66-2.23c-1.05-0.67-1.73-1.9-1.64-3.22
	c0.1,0.83,0.6,1.54,1.27,1.94c0.63,0.37,1.01,0.56,1.68,0.83c0.93,0.38,1.49,0.55,2.48,0.74c-0.06,0.2-0.14,0.39-0.22,0.58
	c1.36,0.37,2.25,1.59,2.26,2.92h1.4C368.23,48.75,367.92,49.71,367.27,50.54 M358.75,44.68l-0.34-0.41l0.42-0.61
	c0.11,0.15,0.23,0.29,0.35,0.43C359.03,44.27,358.88,44.47,358.75,44.68 M358.02,38.35c-0.51-2.54,1.15-5,3.71-5.5l1.25,0.97
	c0.41,1.34,1.68,2.21,3.04,2.14l1.73,2.06l-0.69,0.05l-1.44,1.82h-2.11c0.89,0.8,1.38,1.86,1.43,2.96
	c-1.01-0.15-1.57-0.35-2.49-0.79c-0.55-0.26-0.85-0.43-1.35-0.76c-0.27-0.24-0.39-0.62-0.26-0.98c0.09-0.25,0.28-0.43,0.51-0.52
	l0.73,1.31l0.92-3.52h-3.7l1.04,0.93c-0.7,0.19-1.35,0.61-1.79,1.26C358.31,39.34,358.12,38.86,358.02,38.35 M359.68,29.41v-0.52
	l1.38-1l1.71,1.07l-1.66,1.59L359.68,29.41z M358.7,25.12l0.65-0.53l1.4,1.71l-0.67,0.54L358.7,25.12z M365.85,33.71l-0.52,0.79
	c-0.59-0.22-1.02-0.78-1.04-1.45l-2.13-1.68l1.75-1.73l1.08,1.83C365.1,32.28,365.4,33.05,365.85,33.71 M363.92,25.76
	c0.62-0.46,1.49-0.34,1.96,0.27c0.47,0.61,0.34,1.48-0.27,1.95c-0.08,0.06-0.17,0.11-0.27,0.16l-0.73,0.38l-2.36-1.49L363.92,25.76z
	 M365.53,20.07c-0.21-0.13-0.46-0.2-0.73-0.2c-0.78,0-1.41,0.62-1.41,1.39c0,0.55,0.5,0.99,1.13,0.99c0.32,0,0.61-0.12,0.82-0.31
	c-0.26,0.51-0.79,0.88-1.41,0.88c-0.87,0-1.57-0.71-1.57-1.56c0-1.4,1.15-2.54,2.57-2.54c0.55,0,1.07,0.17,1.49,0.47
	C366.08,19.43,365.77,19.73,365.53,20.07 M369.07,20.16c0.41,0.17,0.74,0.46,0.95,0.82l-3.52,0.23
	C366.92,20.22,368.07,19.75,369.07,20.16 M370.49,23.18l-3.67-0.01l-0.18-0.57l3.85-0.29V23.18z M367.27,24.57h2.41l-0.2,0.82
	c-0.59,0.11-1.22,0.31-1.75,0.61L367.27,24.57z M374.5,30.71c0,2.23-1.82,4.03-4.07,4.03c-2.25,0-4.07-1.8-4.07-4.03
	c0-2.22,1.82-4.03,4.07-4.03C372.67,26.68,374.5,28.49,374.5,30.71 M378.43,23.91l1.01-1.06l0.62,2.87l-0.99,0.17l1.39,1.52
	l0.69,3.14l-0.93,0.27c-0.42-0.92-1.17-1.72-2.16-2.2c-0.58-0.26-0.87-0.9-0.69-1.48l-1.45,0.46c0.04,1.04,0.71,2,1.77,2.37
	l-0.34,1.15c0,0-0.67-0.08-1.02-0.3c-0.18-0.11-0.42-0.36-0.42-0.36c-0.07-1.45-0.72-2.87-1.93-3.88
	C374.81,24.98,376.49,23.91,378.43,23.91 M375.18,33.4c0.25-0.43,0.4-0.87,0.52-1.34l1.32,0.38l-0.33,1.16L375.18,33.4z
	 M380.26,35.49l0.92,2.21l-1.16,2.01l-1.14-0.83l1.21-0.98l-0.62-1.57l-5.97,0.9l1.13-3.03c0.11-0.13,0.21-0.26,0.31-0.4l0.75,1.11
	L380.26,35.49z M371.92,38.93l-1.56-1.89l0.09-0.91c0.73,0,1.45-0.15,2.13-0.43l-0.78,2.17l1.76,1.22L371.92,38.93z M369.19,39.89
	h-1.78l0.49-0.59l0.79-0.01L369.19,39.89z M371.94,43.36l-0.55,0.46l-0.24-0.37v-1.13L371.94,43.36z M374.34,43.68l0.32,1.06
	l-1.01-0.64l-2.44-3.18l0.01-1.02h-0.84l-3.76-4.66l0.22-0.41c0.3,0.25,0.62,0.47,0.96,0.66L374.34,43.68z M385.52,42.14h-6.67v2.35
	l-2.92-3.46l-1.61,0.98l-1.21-1.55l1.57,0.1l0.75-1.82l-0.53-0.37l3.04-0.42l-1.29,1.08l3.84,2.72l2.25-3.92l-1.49-3.63l-3.1-0.39
	l0.67-2.7c0.33,0.41,0.55,0.86,0.67,1.34l3.26-0.96l-2.33-10.48h-1.19l-1.38,1.53c-2.23,0.19-4.09,1.48-5.09,3.28
	c-0.6-0.28-1.23-0.45-1.87-0.51l0.18-0.75h0.82v-3.74h-0.41c-0.51-1.4-1.92-2.32-3.48-2.18c-0.74-0.84-1.83-1.38-3.05-1.38
	c-2.23,0-4.04,1.79-4.04,4c0,1.6,1.31,2.89,2.92,2.89c0.63,0,1.22-0.2,1.7-0.54l0.19,0.65c-0.85-0.31-1.83-0.21-2.62,0.36
	l-1.57,1.16l-1.98-2.52l-2.17,1.69l1.95,2.47l-1.06,0.76v1.92l2.13,1.68c-3.15,1.23-4.7,4.75-3.46,7.87
	c0.26,0.65,0.63,1.24,1.06,1.74v0.1c0,0.27,0.04,0.54,0.12,0.81l-1.38,2.04l1.34,1.75c-0.16,0.54-0.25,1.1-0.25,1.69
	c0,3.22,2.64,5.83,5.89,5.83c1.98,0,3.72-0.96,4.79-2.44l1.12,0l-0.88,1.38h1.94l1.05,1.07l1.05-1.07h1.8l-0.77-1.39h2.23
	l-0.78,1.39h1.9l1.05,1.07l1.05-1.07h1.8l-0.75-1.39v-0.98l4.19-2.41c-1.38-1.34-1.42-3.54-0.06-4.91
	C384.79,42.56,385.14,42.31,385.52,42.14"/>
<path class="st3" d="M407.97,32.52l0.88-1.49c-0.2-0.1-0.38-0.22-0.53-0.38l-1.08,1.38C407.45,32.22,407.71,32.38,407.97,32.52"/>
<path class="st3" d="M410.5,47.59c0.59-0.16,1.28-0.28,1.92-0.33v-1.84c-0.19,0.01-0.45,0.04-0.64,0.06L410.5,47.59z"/>
<path class="st3" d="M406.37,47.24l0.93,1.43l1.19-1.62c-0.17-0.01-0.34-0.02-0.52-0.02C407.41,47.03,406.88,47.11,406.37,47.24"/>
<rect x="389.73" y="15.65" class="st3" width="0.49" height="38.82"/>
<rect x="428.28" y="15.65" class="st3" width="0.49" height="38.82"/>
<path class="st3" d="M361.85,62.83c-0.47-0.18-0.98-0.3-1.49-0.3c-1.84,0-3.48,1.21-3.48,3.12c0,1.81,1.22,2.7,2.96,2.7
	c0.67,0,1.46-0.15,2.07-0.44c0.04-0.58,0.07-0.76,0.07-0.83l-0.11-0.09c-0.1,0-0.11,0.08-0.13,0.16c-0.11,0.59-1.15,0.86-1.64,0.86
	c-1.4,0-2.16-1.22-2.16-2.51c0-1.43,0.88-2.61,2.34-2.61c0.53,0,1.17,0.26,1.23,0.51c0.04,0.17,0.05,0.22,0.13,0.22
	C361.77,63.61,361.79,63.6,361.85,62.83"/>
<path class="st3" d="M366.76,68.35c1.79,0,2.99-1.33,2.99-3.06c0-1.68-1.11-2.77-2.82-2.77c-1.8,0-2.99,1.33-2.99,3.05
	C363.95,67.26,365.06,68.35,366.76,68.35 M367.02,68.04c-0.81,0-2.05-0.69-2.05-2.92c0-2.22,1.45-2.28,1.72-2.28
	c0.81,0,2.05,0.69,2.05,2.93C368.74,67.98,367.29,68.04,367.02,68.04"/>
<path class="st3" d="M373.17,63.14l0.11-0.11h0.38c0.27,0,1.15,0.27,1.15,1.29c0,0.78-0.63,1.08-1.33,1.08h-0.31V63.14z
	 M373.9,68.18V67.9h-0.39c-0.28,0-0.33-0.04-0.33-1.18v-1.04h0.54c0.62,1.2,1.27,2.23,1.52,2.43c0.09,0.07,0.24,0.07,0.44,0.07h1
	V67.9c-0.34,0-0.4-0.07-0.64-0.32c-0.37-0.4-0.66-0.88-1.45-2.07c0.73-0.1,1.25-0.58,1.25-1.33c0-0.71-0.6-1.49-1.84-1.49h-2.56
	v0.29h0.39c0.28,0,0.33,0.04,0.33,1.18v3.61c0,0.09-0.02,0.14-0.13,0.14h-0.39v0.28H373.9z"/>
<path class="st3" d="M381.55,67.9h-0.59c-0.28,0-0.33-0.03-0.33-1.18v-3.7h0.17c0.4,0,1.36,0.02,1.58,0.45
	c0.05,0.1,0.09,0.17,0.17,0.17l0.11-0.11c0-0.03-0.07-0.21-0.27-0.85h-4.51c-0.2,0.64-0.27,0.81-0.27,0.85l0.11,0.11
	c0.08,0,0.11-0.06,0.17-0.17c0.22-0.43,1.17-0.45,1.57-0.45h0.17v4.74c0,0.08-0.02,0.14-0.13,0.14h-0.66v0.29h2.72V67.9z"/>
<path class="st3" d="M387.54,66.9c0,0.74-0.69,1.09-1.36,1.09c-0.45,0-1.19-0.21-1.36-0.68c-0.03-0.09-0.04-0.17-0.15-0.17
	c-0.13,0-0.13,0.1-0.13,0.15c0,0.1,0.06,0.32,0.15,0.81c0.46,0.16,0.95,0.25,1.44,0.25c1.96,0,2.21-1.45,2.21-1.73
	c0-2.1-2.85-1.45-2.85-2.81c0-0.62,0.6-0.93,1.16-0.93c0.32,0,0.92,0.12,1,0.49l0.12,0.15c0.06,0,0.12-0.02,0.12-0.12
	c0-0.14-0.03-0.48-0.04-0.71c-0.34-0.13-0.72-0.16-1.08-0.16c-0.98,0-2.08,0.54-2.08,1.59C384.69,66.1,387.54,65.43,387.54,66.9"/>
<path class="st3" d="M398.95,62.69h-1.67v0.29h0.46c0.13,0,0.21,0.02,0.21,0.13c0,0.23-0.28,0.96-0.38,1.21l-1.04,2.46l-1.27-2.95
	c-0.18-0.43-0.34-0.74-0.34-0.79c0-0.06,0.05-0.06,0.15-0.06h0.37v-0.29h-2.16v0.29h0.28c0.22,0,0.3,0.11,0.7,1.03l1.83,4.29
	l0.1,0.09c0.06,0,0.09-0.05,0.13-0.15l2.08-5.05c0.09-0.22,0.1-0.22,0.15-0.22h0.4V62.69z"/>
<path class="st3" d="M402.91,66.2l0.52,1.5c0.06,0.17,0.04,0.21-0.13,0.21h-0.39v0.29h2.21V67.9h-0.21c-0.3,0-0.37-0.11-0.63-0.81
	c-0.48-1.31-1.46-3.85-1.46-4.15c0-0.17,0.17-0.19,0.17-0.29l-0.09-0.11c-0.13,0-0.55,0.1-0.7,0.14c-0.89,2.08-1.8,4.13-2.17,5.08
	c-0.04,0.11-0.1,0.16-0.23,0.16h-0.28v0.29h1.77V67.9h-0.5c-0.15,0-0.25-0.03-0.25-0.19c0-0.26,0.31-1.04,0.49-1.51H402.91z
	 M402.77,65.86h-1.58c0.27-0.68,0.54-1.38,0.87-2.06L402.77,65.86z"/>
<path class="st3" d="M408.33,63.11c-0.01-0.09,0.01-0.14,0.12-0.14h0.39v-0.29h-2.26v0.29h0.39c0.28,0,0.33,0.03,0.33,1.18v3.61
	c0,0.09-0.02,0.14-0.13,0.14h-0.39v0.29h4.11c0.18-0.62,0.23-0.75,0.23-0.82l-0.1-0.1l-0.13,0.11c-0.27,0.48-1.46,0.48-1.93,0.48
	h-0.31c-0.3,0-0.33-0.03-0.33-1.87V63.11z"/>
<path class="st3" d="M412.85,68.18h4.11c0.18-0.61,0.23-0.74,0.23-0.82l-0.1-0.1l-0.13,0.11c-0.27,0.48-1.46,0.48-1.93,0.48h-0.3
	c-0.3,0-0.33-0.03-0.33-1.87v-0.63h0.81c0.93,0,0.96,0.1,0.96,0.24v0.31h0.26v-1.52h-0.26v0.3c0,0.25-0.03,0.36-0.96,0.36h-0.81
	v-1.9l0.11-0.11h0.63c1,0,1.46,0.21,1.47,0.36c0.01,0.12,0.03,0.19,0.14,0.19c0.09,0,0.1-0.06,0.19-0.88h-4.29v0.29h0.39
	c0.28,0,0.33,0.04,0.33,1.18v3.61c0,0.09-0.02,0.14-0.13,0.14h-0.39V68.18z"/>
<path class="st3" d="M420.51,62.69h-1.51v0.29h0.25c0.34,0,0.53,0.39,0.53,0.88v3.94c0,0.11-0.04,0.11-0.27,0.11h-0.25v0.29h1.64
	V67.9h-0.35c-0.24,0-0.3-0.02-0.34-0.29c-0.06-0.42-0.06-1.04-0.06-1.51v-2.4l3.87,4.35c0.14,0.15,0.19,0.23,0.26,0.23l0.09-0.1
	v-5.08c0-0.11,0.04-0.11,0.27-0.11h0.25v-0.29h-1.64v0.29h0.35c0.24,0,0.3,0.02,0.34,0.29C424,63.68,424,64.3,424,64.77v1.84
	L420.51,62.69z"/>
<path class="st3" d="M431.73,62.83c-0.47-0.18-0.98-0.3-1.49-0.3c-1.84,0-3.48,1.21-3.48,3.12c0,1.81,1.22,2.7,2.96,2.7
	c0.67,0,1.46-0.15,2.07-0.44c0.04-0.58,0.07-0.76,0.07-0.83l-0.11-0.09c-0.11,0-0.11,0.08-0.13,0.16c-0.11,0.59-1.15,0.86-1.64,0.86
	c-1.4,0-2.16-1.22-2.16-2.51c0-1.43,0.88-2.61,2.34-2.61c0.53,0,1.17,0.26,1.23,0.51c0.04,0.17,0.05,0.22,0.13,0.22
	C431.65,63.61,431.67,63.6,431.73,62.83"/>
<path class="st3" d="M435.54,63.11c0-0.09,0.02-0.14,0.13-0.14h0.39v-0.29h-2.27v0.29h0.39c0.28,0,0.33,0.03,0.33,1.18v3.61
	c0,0.09-0.02,0.14-0.13,0.14h-0.39v0.29h2.27V67.9h-0.39c-0.28,0-0.33-0.03-0.33-1.18V63.11z"/>
<path class="st3" d="M441.11,66.2l0.52,1.5c0.06,0.17,0.04,0.21-0.13,0.21h-0.4v0.29h2.21V67.9h-0.21c-0.3,0-0.37-0.11-0.63-0.81
	c-0.48-1.31-1.46-3.85-1.46-4.15c0-0.17,0.17-0.19,0.17-0.29l-0.09-0.11c-0.13,0-0.55,0.1-0.7,0.14c-0.89,2.08-1.8,4.13-2.17,5.08
	c-0.04,0.11-0.1,0.16-0.23,0.16h-0.28v0.29h1.78V67.9H439c-0.15,0-0.24-0.03-0.24-0.19c0-0.26,0.31-1.04,0.49-1.51H441.11z
	 M440.97,65.86h-1.58c0.27-0.68,0.54-1.38,0.87-2.06L440.97,65.86z"/>
<path class="st3" d="M446.42,62.69h-1.52v0.29h0.25c0.34,0,0.53,0.39,0.53,0.88v3.94c0,0.11-0.04,0.11-0.27,0.11h-0.25v0.29h1.64
	V67.9h-0.35c-0.24,0-0.3-0.02-0.34-0.29c-0.06-0.42-0.06-1.04-0.06-1.51v-2.4l3.87,4.35c0.14,0.15,0.19,0.23,0.26,0.23l0.09-0.1
	v-5.08c0-0.11,0.04-0.11,0.27-0.11h0.24v-0.29h-1.63v0.29h0.35c0.24,0,0.3,0.02,0.34,0.29c0.06,0.42,0.06,1.04,0.06,1.51v1.84
	L446.42,62.69z"/>
<path class="st3" d="M452.71,68.18h4.11c0.18-0.61,0.23-0.74,0.23-0.82l-0.1-0.1l-0.13,0.11c-0.27,0.48-1.46,0.48-1.93,0.48h-0.31
	c-0.3,0-0.33-0.03-0.33-1.87v-0.63h0.81c0.93,0,0.96,0.1,0.96,0.24v0.31h0.26v-1.52h-0.26v0.3c0,0.25-0.04,0.36-0.96,0.36h-0.81
	v-1.9l0.11-0.11h0.63c1,0,1.46,0.21,1.47,0.36c0.01,0.12,0.03,0.19,0.14,0.19c0.09,0,0.1-0.06,0.19-0.88h-4.29v0.29h0.39
	c0.28,0,0.33,0.04,0.33,1.18v3.61c0,0.09-0.02,0.14-0.13,0.14h-0.39V68.18z"/>
<path class="st3" d="M462.05,66.9c0,0.74-0.69,1.09-1.37,1.09c-0.45,0-1.19-0.21-1.36-0.68c-0.03-0.09-0.04-0.17-0.15-0.17
	c-0.13,0-0.13,0.1-0.13,0.15c0,0.1,0.06,0.32,0.15,0.81c0.46,0.16,0.96,0.25,1.44,0.25c1.96,0,2.21-1.45,2.21-1.73
	c0-2.1-2.85-1.45-2.85-2.81c0-0.62,0.6-0.93,1.16-0.93c0.32,0,0.92,0.12,1,0.49l0.12,0.15c0.06,0,0.12-0.02,0.12-0.12
	c0-0.14-0.04-0.48-0.04-0.71c-0.34-0.13-0.72-0.16-1.08-0.16c-0.98,0-2.08,0.54-2.08,1.59C459.2,66.1,462.05,65.43,462.05,66.9"/>
<rect x="4.11" y="67.91" class="st4" width="483.39" height="0.95"/>
<line class="st5" x1="4.59" y1="15.65" x2="487.03" y2="15.65"/>
<line class="st5" x1="11.75" y1="55.47" x2="14.12" y2="55.47"/>
<path class="st4" d="M331.03,54.99h5.68v0.95h-5.68V54.99z M321.56,54.99h5.68v0.95h-5.68V54.99z M312.09,54.99h5.68v0.95h-5.68
	V54.99z M302.61,54.99h5.68v0.95h-5.68V54.99z M293.14,54.99h5.68v0.95h-5.68V54.99z M283.66,54.99h5.68v0.95h-5.68V54.99z
	 M274.19,54.99h5.68v0.95h-5.68V54.99z M264.71,54.99h5.68v0.95h-5.68V54.99z M255.24,54.99h5.68v0.95h-5.68V54.99z M245.77,54.99
	h5.68v0.95h-5.68V54.99z M236.29,54.99h5.68v0.95h-5.68V54.99z M226.82,54.99h5.68v0.95h-5.68V54.99z M217.34,54.99h5.68v0.95h-5.68
	V54.99z M207.87,54.99h5.68v0.95h-5.68V54.99z M198.39,54.99h5.68v0.95h-5.68V54.99z M188.92,54.99h5.68v0.95h-5.68V54.99z
	 M179.45,54.99h5.68v0.95h-5.68V54.99z M169.97,54.99h5.69v0.95h-5.69V54.99z M160.5,54.99h5.68v0.95h-5.68V54.99z M151.02,54.99
	h5.68v0.95h-5.68V54.99z M141.55,54.99h5.68v0.95h-5.68V54.99z M132.07,54.99h5.68v0.95h-5.68V54.99z M122.6,54.99h5.69v0.95h-5.69
	V54.99z M113.13,54.99h5.68v0.95h-5.68V54.99z M103.65,54.99h5.68v0.95h-5.68V54.99z M94.18,54.99h5.68v0.95h-5.68V54.99z
	 M84.7,54.99h5.68v0.95H84.7V54.99z M75.23,54.99h5.68v0.95h-5.68V54.99z M65.75,54.99h5.68v0.95h-5.68V54.99z M56.28,54.99h5.68
	v0.95h-5.68V54.99z M46.81,54.99h5.68v0.95h-5.68V54.99z M37.33,54.99h5.68v0.95h-5.68V54.99z M27.86,54.99h5.68v0.95h-5.68V54.99z
	 M18.38,54.99h5.68v0.95h-5.68V54.99z"/>
<line class="st5" x1="340.98" y1="55.47" x2="343.35" y2="55.47"/>
<line class="st5" x1="11.75" y1="28.87" x2="14.12" y2="28.87"/>
<line class="st6" x1="18.86" y1="28.87" x2="338.61" y2="28.87"/>
<line class="st5" x1="340.98" y1="28.87" x2="343.35" y2="28.87"/>
<rect x="297.96" y="41.23" class="st4" width="0.95" height="47.98"/>
<rect x="304.31" y="41.23" class="st4" width="0.95" height="47.98"/>
<rect x="292.48" y="82.58" class="st4" width="18.74" height="0.95"/>
<rect class="st7" width="493.95" height="103.33"/>
<g>
	<defs>
		<rect id="SVGID_4_" x="298.43" y="55.65" width="6.35" height="27.4"/>
	</defs>
	<clipPath id="SVGID_5_">
		<use xlink:href="#SVGID_4_"  style="overflow:visible;"/>
	</clipPath>
	<path class="st8" d="M304.31,68.86h-5.41v13.72h5.41V68.86z M302.61,55.65h-3.71v12.26h5.4V55.94h-1.7V55.65"/>
	<rect x="298.9" y="67.91" class="st9" width="5.41" height="0.95"/>
	<rect x="302.61" y="55.65" class="st9" width="1.7" height="0.29"/>
	<polygon class="st9" points="298.9,55.65 298.43,55.65 298.43,82.58 298.9,82.58 298.9,68.86 298.9,67.91 	"/>
	<polygon class="st9" points="304.78,55.65 304.31,55.65 304.31,55.94 304.31,67.91 304.31,68.86 304.31,82.58 304.78,82.58 	"/>
	<polygon class="st9" points="304.78,82.58 304.31,82.58 298.9,82.58 298.43,82.58 298.43,83.05 304.78,83.05 	"/>
</g>
<g>
	<path class="st10" d="M303.82,98.31c-0.38,0.41-1.02,0.62-1.69,0.62h-2.71v-6.72h2.68c0.63,0,1.27,0.21,1.64,0.62
		c0.27,0.29,0.44,0.63,0.44,1.12c0,0.64-0.34,1.26-0.97,1.49c0.69,0.23,1.12,0.91,1.12,1.62C304.34,97.59,304.12,98,303.82,98.31z
		 M302.11,92.96h-1.86v2.11h1.89c0.7,0,1.18-0.31,1.18-1.06C303.32,93.31,302.75,92.96,302.11,92.96z M302.16,95.81h-1.9v2.34h1.89
		c0.74,0,1.34-0.36,1.34-1.16C303.47,96.24,302.87,95.81,302.16,95.81z"/>
</g>
<g>
	<defs>
		<rect id="SVGID_6_" width="493.95" height="103.33"/>
	</defs>
	<clipPath id="SVGID_7_">
		<use xlink:href="#SVGID_6_"  style="overflow:visible;"/>
	</clipPath>
	<rect x="81.2" y="41.23" class="st11" width="0.95" height="47.91"/>
	<rect x="93.44" y="22.27" class="st11" width="0.95" height="66.87"/>
	<rect x="19.81" y="82.51" class="st11" width="80.72" height="0.95"/>
</g>
<g>
	<defs>
		<rect id="SVGID_8_" x="81.68" y="55.87" width="12.24" height="27.11"/>
	</defs>
	<clipPath id="SVGID_9_">
		<use xlink:href="#SVGID_8_"  style="overflow:visible;"/>
	</clipPath>
	<path class="st12" d="M93.44,68.86H82.15v13.65h11.29V68.86z M93.44,55.87h-3.06v0.07H84.7v-0.07h-2.55v12.04h11.29V55.87"/>
	<rect x="82.15" y="67.91" class="st13" width="11.29" height="0.95"/>
	<rect x="84.7" y="55.87" class="st13" width="5.68" height="0.07"/>
	<polygon class="st13" points="82.15,55.87 81.68,55.87 81.68,82.51 82.15,82.51 82.15,68.86 82.15,67.91 	"/>
	<polygon class="st13" points="93.92,55.87 93.44,55.87 93.44,67.91 93.44,68.86 93.44,82.51 93.92,82.51 	"/>
	<polygon class="st13" points="93.92,82.51 93.44,82.51 82.15,82.51 81.68,82.51 81.68,82.98 93.92,82.98 	"/>
</g>
<g>
	<defs>
		<rect id="SVGID_10_" width="493.95" height="103.33"/>
	</defs>
	<clipPath id="SVGID_11_">
		<use xlink:href="#SVGID_10_"  style="overflow:visible;"/>
	</clipPath>
	<line class="st14" x1="330.21" y1="41.7" x2="330.21" y2="88.67"/>
	<line class="st14" x1="356.57" y1="41.7" x2="356.57" y2="88.67"/>
	<line class="st14" x1="343.39" y1="41.7" x2="343.39" y2="88.67"/>
	<line class="st14" x1="324.87" y1="82.98" x2="361.99" y2="82.98"/>
</g>
<g>
	<path class="st10" d="M332.04,98.93v-0.69l2.66-3.29c0.25-0.31,0.36-0.61,0.36-0.95c0-0.67-0.39-1.06-1.08-1.06
		c-0.59,0-1.12,0.32-1.12,1.19h-0.83c0-1.15,0.78-1.92,1.94-1.92c0.72,0,1.28,0.29,1.61,0.76c0.2,0.28,0.3,0.61,0.3,1.02
		c0,0.52-0.2,0.96-0.56,1.4l-2.24,2.78h2.9v0.76H332.04z"/>
	<path class="st10" d="M341.25,98.31c-0.38,0.41-1.02,0.62-1.69,0.62h-2.71v-6.72h2.68c0.63,0,1.27,0.21,1.64,0.62
		c0.27,0.29,0.44,0.63,0.44,1.12c0,0.64-0.34,1.26-0.97,1.49c0.69,0.23,1.12,0.91,1.12,1.62C341.76,97.59,341.54,98,341.25,98.31z
		 M339.53,92.96h-1.86v2.11h1.89c0.7,0,1.18-0.31,1.18-1.06C340.75,93.31,340.18,92.96,339.53,92.96z M339.58,95.81h-1.9v2.34h1.89
		c0.74,0,1.34-0.36,1.34-1.16C340.9,96.24,340.29,95.81,339.58,95.81z"/>
</g>
<g>
	<path class="st10" d="M345.22,98.93v-0.69l2.66-3.29c0.25-0.31,0.36-0.61,0.36-0.95c0-0.67-0.39-1.06-1.08-1.06
		c-0.59,0-1.12,0.32-1.12,1.19h-0.83c0-1.15,0.78-1.92,1.94-1.92c0.72,0,1.28,0.29,1.61,0.76c0.2,0.28,0.3,0.61,0.3,1.02
		c0,0.52-0.2,0.96-0.56,1.4l-2.24,2.78h2.9v0.76H345.22z"/>
	<path class="st10" d="M354.43,98.31c-0.38,0.41-1.02,0.62-1.69,0.62h-2.71v-6.72h2.68c0.63,0,1.27,0.21,1.64,0.62
		c0.27,0.29,0.44,0.63,0.44,1.12c0,0.64-0.34,1.26-0.97,1.49c0.69,0.23,1.12,0.91,1.12,1.62C354.94,97.59,354.73,98,354.43,98.31z
		 M352.72,92.96h-1.86v2.11h1.89c0.7,0,1.18-0.31,1.18-1.06C353.93,93.31,353.36,92.96,352.72,92.96z M352.77,95.81h-1.9v2.34h1.89
		c0.74,0,1.34-0.36,1.34-1.16C354.08,96.24,353.48,95.81,352.77,95.81z"/>
</g>
<g>
	<path class="st10" d="M83.04,98.93v-0.69l2.66-3.29c0.25-0.31,0.36-0.61,0.36-0.95c0-0.67-0.39-1.06-1.08-1.06
		c-0.59,0-1.12,0.32-1.12,1.19h-0.83c0-1.15,0.78-1.92,1.94-1.92c0.72,0,1.28,0.29,1.61,0.76c0.2,0.28,0.3,0.61,0.3,1.02
		c0,0.52-0.2,0.96-0.56,1.4l-2.24,2.78h2.9v0.76H83.04z"/>
	<path class="st10" d="M92.25,98.31c-0.38,0.41-1.02,0.62-1.69,0.62h-2.71v-6.72h2.68c0.63,0,1.27,0.21,1.64,0.62
		c0.27,0.29,0.44,0.63,0.44,1.12c0,0.64-0.34,1.26-0.97,1.49c0.69,0.23,1.12,0.91,1.12,1.62C92.76,97.59,92.54,98,92.25,98.31z
		 M90.53,92.96h-1.86v2.11h1.89c0.7,0,1.18-0.31,1.18-1.06C91.75,93.31,91.18,92.96,90.53,92.96z M90.58,95.81h-1.9v2.34h1.89
		c0.74,0,1.34-0.36,1.34-1.16C91.9,96.24,91.29,95.81,90.58,95.81z"/>
</g>
<g>
	<defs>
		<rect id="SVGID_12_" width="493.95" height="103.33"/>
	</defs>
	<clipPath id="SVGID_13_">
		<use xlink:href="#SVGID_12_"  style="overflow:visible;"/>
	</clipPath>
	<line class="st15" x1="26.44" y1="41.7" x2="26.44" y2="88.67"/>
</g>
<g>
	<path class="st10" d="M56.11,98.93l-0.55-1.59h-2.92l-0.54,1.59h-0.85l2.37-6.72h0.99l2.38,6.72H56.11z M54.09,93.05l-1.18,3.49
		h2.38L54.09,93.05z"/>
</g>
<g>
	<path class="st10" d="M5.24,45.77l-0.55-1.59H1.78l-0.54,1.59H0.38l2.37-6.72h0.99l2.38,6.72H5.24z M3.23,39.9l-1.18,3.49h2.38
		L3.23,39.9z"/>
</g>
<g>
	<path class="st10" d="M488.69,45.77l-0.55-1.59h-2.92l-0.54,1.59h-0.85l2.37-6.72h0.99l2.38,6.72H488.69z M486.67,39.9l-1.18,3.49
		h2.38L486.67,39.9z"/>
</g>
<g>
	<defs>
		<rect id="SVGID_14_" width="493.95" height="103.33"/>
	</defs>
	<clipPath id="SVGID_15_">
		<use xlink:href="#SVGID_14_"  style="overflow:visible;"/>
	</clipPath>
	<line class="st16" x1="476.29" y1="5.69" x2="476.29" y2="79.59"/>
	<line class="st16" x1="11.75" y1="5.69" x2="11.75" y2="79.59"/>
</g>
</svg>
