<svg version="1.1" xmlns="http://www.w3.org/2000/svg" xmlns:xlink="http://www.w3.org/1999/xlink" x="0px" y="0px"
	 width="474.32px" height="180.52px" viewBox="0 0 474.32 180.52" style="enable-background:new 0 0 474.32 180.52;"
	 xml:space="preserve">
<style type="text/css">
	.st0{clip-path:url(#SVGID_2_);fill:#A9E0F5;}
	.st1{clip-path:url(#SVGID_2_);fill:#FFFFFF;}
	.st2{clip-path:url(#SVGID_4_);fill:url(#SVGID_5_);}
	.st3{clip-path:url(#SVGID_7_);fill:#27292E;}
	.st4{fill:#00AEEF;}
	.st5{fill:none;stroke:#00AEEF;}
	.st6{fill:none;stroke:#303132;}
	.st7{fill:#303132;}
	.st8{clip-path:url(#SVGID_9_);fill:#A9E0F5;}
	.st9{clip-path:url(#SVGID_9_);fill:#FFFFFF;}
	.st10{clip-path:url(#SVGID_11_);fill:url(#SVGID_12_);}
	.st11{clip-path:url(#SVGID_14_);fill:#27292E;}
</style>
<defs>
</defs>
<g>
	<g>
		<defs>
			<rect id="SVGID_1_" x="0" width="473.11" height="76.77"/>
		</defs>
		<clipPath id="SVGID_2_">
			<use xlink:href="#SVGID_1_"  style="overflow:visible;"/>
		</clipPath>
		<path class="st0" d="M128.56,53.07c-2.62,3.28-7.21,5.97-12.97,5.97c-5.76,0-10.56-2.77-13.19-5.97
			c-2.84-3.57-4.15-8.31-4.15-13.84c0-5.54,1.31-10.27,4.15-13.84c2.62-3.21,7.43-5.98,13.19-5.98c5.76,0,10.35,2.7,12.97,5.98
			c1.75,2.26,2.77,5.25,2.91,8.23h-8.96c-0.07-1.39-0.51-2.55-1.09-3.5c-1.09-1.68-3.06-2.84-5.83-2.84c-2.48,0-4.3,1.02-5.54,2.33
			c-2.18,2.4-2.55,6.05-2.55,9.62c0,3.57,0.36,7.14,2.55,9.55c1.24,1.31,3.06,2.4,5.54,2.4c2.77,0,4.74-1.16,5.83-2.84
			c0.58-0.95,1.02-2.11,1.09-3.5h8.96C131.33,47.82,130.31,50.81,128.56,53.07"/>
		<path class="st0" d="M167.9,53.28c-2.62,3.21-7.5,5.9-13.26,5.9s-10.64-2.7-13.26-5.9c-2.84-3.57-4.45-7.58-4.45-13.99
			c0-6.41,1.6-10.42,4.45-13.99c2.62-3.21,7.5-5.9,13.26-5.9s10.64,2.7,13.26,5.9c2.84,3.57,4.44,7.58,4.44,13.99
			C172.35,45.71,170.74,49.71,167.9,53.28 M160.4,29.75c-1.24-1.31-3.28-2.4-5.76-2.4c-2.48,0-4.52,1.09-5.76,2.4
			c-2.19,2.4-2.7,5.97-2.7,9.55c0,3.57,0.51,7.14,2.7,9.54c1.24,1.31,3.28,2.4,5.76,2.4c2.48,0,4.52-1.09,5.76-2.4
			c2.19-2.4,2.69-5.97,2.69-9.54C163.09,35.72,162.58,32.15,160.4,29.75"/>
		<path class="st0" d="M225.75,58.24V34.7c0-4.66-1.24-7.36-5.83-7.36c-5.17,0-7.43,5.46-7.43,10.2v20.69h-9.04V34.7
			c0-4.66-1.24-7.36-5.83-7.36c-5.17,0-7.51,5.46-7.51,10.2v20.69h-9.03V20.35h7.58l0.73,5.03c2.11-3.5,5.75-5.98,10.78-5.98
			c5.32,0,8.96,2.33,10.86,6.19c2.26-3.93,6.34-6.19,11.44-6.19c8.09,0,12.31,5.39,12.31,13.26v25.57H225.75z"/>
		<path class="st0" d="M273.84,56.13c-2.33,1.89-5.39,3.06-9.25,3.06c-4.52,0-8.16-1.6-9.91-3.72v17.27h-9.11V20.35h7.87l0.58,4.15
			c2.26-3.5,6.48-5.03,10.64-5.03c3.79,0,6.85,1.31,9.18,3.21c4.52,3.72,6.77,9.4,6.77,16.54
			C280.62,46.65,278.36,52.41,273.84,56.13 M268.96,30.11c-1.31-1.68-3.28-2.99-6.12-2.99c-7.14,0-8.6,6.78-8.6,12.24
			c0,5.46,1.46,12.17,8.6,12.17c2.84,0,4.81-1.31,6.12-2.99c1.9-2.48,2.4-5.9,2.4-9.18C271.36,36.09,270.86,32.59,268.96,30.11"/>
		<path class="st0" d="M308.3,28.44c-6.41,0-9.76,4.59-9.76,10.71v19.09h-9.18V20.35h7.72l0.8,5.68c1.75-4.37,6.27-6.19,10.71-6.19
			c0.95,0,1.89,0.07,2.84,0.22v8.74C310.42,28.59,309.32,28.44,308.3,28.44"/>
		<path class="st0" d="M345.17,53.28c-2.62,3.21-7.5,5.9-13.26,5.9c-5.76,0-10.64-2.7-13.26-5.9c-2.84-3.57-4.44-7.58-4.44-13.99
			c0-6.41,1.6-10.42,4.44-13.99c2.62-3.21,7.51-5.9,13.26-5.9c5.76,0,10.64,2.7,13.26,5.9c2.84,3.57,4.45,7.58,4.45,13.99
			C349.62,45.71,348.01,49.71,345.17,53.28 M337.67,29.75c-1.24-1.31-3.28-2.4-5.76-2.4s-4.52,1.09-5.76,2.4
			c-2.18,2.4-2.69,5.97-2.69,9.55c0,3.57,0.51,7.14,2.69,9.54c1.24,1.31,3.28,2.4,5.76,2.4s4.52-1.09,5.76-2.4
			c2.19-2.4,2.7-5.97,2.7-9.54C340.36,35.72,339.85,32.15,337.67,29.75"/>
		<path class="st0" d="M403.02,58.24V34.7c0-4.66-1.24-7.36-5.83-7.36c-5.17,0-7.43,5.46-7.43,10.2v20.69h-9.03V34.7
			c0-4.66-1.24-7.36-5.83-7.36c-5.17,0-7.51,5.46-7.51,10.2v20.69h-9.03V20.35h7.58l0.73,5.03c2.11-3.5,5.76-5.98,10.78-5.98
			c5.32,0,8.96,2.33,10.86,6.19c2.26-3.93,6.34-6.19,11.44-6.19c8.09,0,12.31,5.39,12.31,13.26v25.57H403.02z"/>
		<path class="st0" d="M421.53,16.85l-2.62-4.37l11.95-9.25l3.64,6.12L421.53,16.85z M422.99,20.35h9.25v37.89h-9.25V20.35z"/>
		<path class="st0" d="M469.84,54.81c-3.06,3.06-7.8,4.37-12.97,4.37c-4.81,0-9.11-1.38-12.24-4.37c-2.19-2.11-4.01-5.25-4.01-8.82
			h8.53c0,1.67,0.87,3.5,2.04,4.45c1.46,1.16,3.13,1.67,5.76,1.67c3.06,0,7.72-0.66,7.72-4.81c0-2.18-1.46-3.64-3.79-4.01
			c-3.35-0.51-7.14-0.73-10.49-1.46c-5.17-1.09-8.67-5.32-8.67-10.13c0-3.86,1.6-6.56,3.86-8.52c2.77-2.4,6.78-3.79,11.51-3.79
			c4.52,0,9.11,1.46,11.88,4.44c2.04,2.19,3.35,5.03,3.35,7.8h-8.67c0-1.46-0.66-2.62-1.53-3.57c-1.09-1.09-3.06-1.75-4.95-1.75
			c-1.31,0-2.55,0-3.93,0.58c-1.6,0.65-2.91,2.04-2.91,4.01c0,2.69,2.33,3.5,4.37,3.79c3.42,0.44,4.37,0.51,8.09,1.09
			c5.97,0.95,10.34,4.74,10.34,10.71C473.11,50.15,471.8,52.85,469.84,54.81"/>
		<rect x="4.94" y="8.72" class="st1" width="69.5" height="57.5"/>
	</g>
	<g>
		<defs>
			<path id="SVGID_3_" d="M64.71,44.63l2.95,3.77c-7.69,6.38-16.36,9.67-26.99,9.67c-10.63,0-19.31-3.29-26.99-9.67l2.95-3.77
				c7.62,5.42,13.86,7.92,24.04,7.92C50.85,52.55,57.1,50.06,64.71,44.63 M26.06,20.94h8.41v8.02h-7.74
				c-4.84,0-8.01-1.17-10.08-5.85l3.23-1.85c1.45,2.98,3.23,3.67,6.18,3.67V20.94z M46.6,20.94H55v8.02h-8.4V20.94z M3.76,0
				C1.69,0,0,1.61,0,3.59v69.6c0,1.97,1.69,3.59,3.76,3.59h72.92c2.06,0,3.76-1.62,3.76-3.59V3.59c0-1.98-1.69-3.59-3.76-3.59H3.76z
				"/>
		</defs>
		<clipPath id="SVGID_4_">
			<use xlink:href="#SVGID_3_"  style="overflow:visible;"/>
		</clipPath>

			<linearGradient id="SVGID_5_" gradientUnits="userSpaceOnUse" x1="-185.493" y1="350.858" x2="-184.493" y2="350.858" gradientTransform="matrix(0 77.6183 77.6183 0 -27192.791 14397.2529)">
			<stop  offset="0" style="stop-color:#E18433"/>
			<stop  offset="0.2756" style="stop-color:#DE7833"/>
			<stop  offset="0.8103" style="stop-color:#D85933"/>
			<stop  offset="1" style="stop-color:#D54B32"/>
		</linearGradient>
		<rect y="0" class="st2" width="80.43" height="76.77"/>
	</g>
	<g>
		<defs>
			<rect id="SVGID_6_" x="0" width="473.11" height="76.77"/>
		</defs>
		<clipPath id="SVGID_7_">
			<use xlink:href="#SVGID_6_"  style="overflow:visible;"/>
		</clipPath>
		<path class="st3" d="M131.47,44.83c-0.09,1.51-0.39,2.98-0.87,4.41c-0.49,1.43-1.17,2.7-2.04,3.83c-1.31,1.65-3.07,3.06-5.28,4.22
			c-2.21,1.16-4.77,1.75-7.68,1.75c-2.92,0-5.52-0.6-7.79-1.78c-2.29-1.2-4.09-2.59-5.4-4.19c-1.41-1.8-2.45-3.86-3.13-6.19
			c-0.68-2.33-1.02-4.88-1.02-7.66c0-2.77,0.34-5.32,1.02-7.64c0.68-2.34,1.72-4.4,3.13-6.19c1.31-1.6,3.11-2.99,5.4-4.19
			c2.27-1.19,4.87-1.79,7.79-1.79c2.91,0,5.47,0.59,7.68,1.75c2.21,1.17,3.97,2.57,5.28,4.23c0.87,1.12,1.55,2.4,2.04,3.83
			c0.48,1.43,0.77,2.9,0.87,4.4h-8.96c-0.04-0.67-0.17-1.29-0.36-1.87c-0.2-0.58-0.44-1.1-0.73-1.59c-0.54-0.81-1.29-1.48-2.26-2.01
			c-0.98-0.53-2.16-0.8-3.57-0.8c-1.27,0-2.34,0.22-3.25,0.66c-0.9,0.43-1.66,0.99-2.29,1.66c-1.12,1.21-1.82,2.66-2.12,4.35
			c-0.29,1.69-0.43,3.42-0.43,5.21c0,1.8,0.15,3.52,0.43,5.18c0.3,1.66,1,3.1,2.12,4.31c0.62,0.67,1.39,1.23,2.29,1.7
			c0.91,0.46,1.98,0.69,3.25,0.69c1.41,0,2.59-0.26,3.57-0.8c0.97-0.53,1.72-1.19,2.26-2.01c0.29-0.49,0.53-1.01,0.73-1.59
			c0.19-0.58,0.32-1.2,0.36-1.88H131.47z"/>
		<path class="st3" d="M168.49,39.29c0,3.21-0.39,5.89-1.17,8.05c-0.78,2.16-1.87,4.14-3.28,5.93c-1.31,1.61-3.12,2.99-5.42,4.16
			c-2.32,1.16-4.92,1.75-7.84,1.75c-2.92,0-5.52-0.58-7.83-1.75c-2.31-1.17-4.11-2.55-5.42-4.16c-1.41-1.79-2.5-3.77-3.28-5.93
			c-0.78-2.16-1.17-4.84-1.17-8.05c0-3.21,0.39-5.89,1.17-8.05c0.78-2.17,1.87-4.15,3.28-5.94c1.31-1.6,3.12-2.99,5.42-4.15
			c2.31-1.16,4.92-1.75,7.83-1.75c2.92,0,5.52,0.59,7.84,1.75c2.3,1.17,4.11,2.55,5.42,4.15c1.41,1.8,2.5,3.78,3.28,5.94
			C168.09,33.41,168.49,36.09,168.49,39.29 M159.23,39.29c0-1.8-0.17-3.53-0.51-5.21c-0.35-1.68-1.07-3.12-2.18-4.33
			c-0.63-0.68-1.44-1.25-2.41-1.72c-0.97-0.46-2.09-0.69-3.35-0.69c-1.27,0-2.37,0.23-3.35,0.69c-0.97,0.47-1.77,1.04-2.41,1.72
			c-1.12,1.21-1.84,2.66-2.19,4.33c-0.34,1.68-0.51,3.41-0.51,5.21c0,1.79,0.17,3.53,0.51,5.21c0.35,1.67,1.07,3.12,2.19,4.33
			c0.63,0.69,1.43,1.25,2.41,1.71c0.98,0.46,2.08,0.7,3.35,0.7c1.26,0,2.38-0.23,3.35-0.7c0.97-0.46,1.77-1.02,2.41-1.71
			c1.11-1.21,1.84-2.65,2.18-4.33C159.06,42.82,159.23,41.08,159.23,39.29"/>
		<path class="st3" d="M218.03,58.24V34.7c0-2.33-0.41-4.14-1.21-5.43c-0.79-1.29-2.34-1.94-4.62-1.94c-1.31,0-2.43,0.31-3.36,0.92
			c-0.91,0.61-1.68,1.41-2.29,2.4c-0.61,1-1.06,2.11-1.35,3.31c-0.29,1.23-0.43,2.4-0.43,3.57v20.69h-9.03V34.7
			c0-2.33-0.4-4.14-1.21-5.43c-0.8-1.29-2.34-1.94-4.62-1.94c-1.31,0-2.43,0.31-3.35,0.92c-0.93,0.61-1.7,1.41-2.33,2.4
			c-0.63,1-1.1,2.11-1.38,3.31c-0.29,1.23-0.44,2.4-0.44,3.57v20.69h-9.03V20.35h7.57l0.73,5.03c1.07-1.75,2.5-3.18,4.3-4.3
			c1.79-1.12,3.96-1.68,6.48-1.68c2.67,0,4.9,0.54,6.7,1.64c1.8,1.09,3.18,2.61,4.15,4.54c1.12-1.98,2.66-3.51,4.63-4.58
			c1.97-1.06,4.24-1.6,6.81-1.6c4.08,0,7.15,1.23,9.22,3.68c2.07,2.46,3.1,5.65,3.1,9.59v25.57H218.03z"/>
		<path class="st3" d="M269.03,39.21c0,7.54-2.26,13.17-6.78,16.9c-1.17,0.98-2.51,1.72-4.05,2.26c-1.52,0.53-3.26,0.79-5.2,0.79
			c-2.29,0-4.3-0.35-6.02-1.05c-1.72-0.7-3.02-1.59-3.9-2.66v17.27h-9.11V20.35h7.87l0.58,4.16c1.12-1.75,2.65-3.02,4.59-3.83
			c1.94-0.8,3.96-1.21,6.05-1.21c1.89,0,3.61,0.29,5.13,0.88c1.53,0.58,2.88,1.36,4.05,2.34c2.29,1.84,3.98,4.16,5.11,6.96
			C268.47,32.43,269.03,35.62,269.03,39.21 M259.78,39.36c0-1.65-0.16-3.29-0.48-4.91c-0.32-1.63-0.95-3.07-1.93-4.34
			c-0.68-0.82-1.52-1.53-2.51-2.11c-0.99-0.58-2.19-0.88-3.6-0.88c-1.8,0-3.26,0.37-4.37,1.13c-1.12,0.76-1.99,1.73-2.62,2.91
			c-0.63,1.19-1.05,2.51-1.28,3.97c-0.22,1.46-0.33,2.87-0.33,4.22c0,1.37,0.11,2.76,0.33,4.2c0.22,1.43,0.65,2.74,1.28,3.93
			c0.64,1.19,1.5,2.17,2.62,2.92c1.12,0.75,2.57,1.13,4.37,1.13c1.41,0,2.61-0.3,3.6-0.88c1-0.59,1.83-1.29,2.51-2.11
			c0.98-1.26,1.62-2.69,1.93-4.3C259.62,42.64,259.78,41.02,259.78,39.36"/>
		<path class="st3" d="M296.06,28.73c-1.11-0.24-2.16-0.36-3.14-0.36c-3.2,0-5.63,1.02-7.28,3.06c-1.66,2.05-2.48,4.6-2.48,7.66
			v19.15h-9.26V20.35h7.79l0.81,5.63c0.88-2.16,2.32-3.73,4.34-4.69c2.02-0.96,4.14-1.44,6.38-1.44c0.97,0,1.91,0.07,2.84,0.21
			V28.73z"/>
		<path class="st3" d="M330.3,39.29c0,3.21-0.39,5.89-1.16,8.05c-0.78,2.16-1.87,4.14-3.28,5.93c-1.31,1.61-3.12,2.99-5.42,4.16
			c-2.31,1.16-4.92,1.75-7.84,1.75c-2.91,0-5.52-0.58-7.82-1.75c-2.31-1.17-4.12-2.55-5.43-4.16c-1.41-1.79-2.51-3.77-3.28-5.93
			c-0.77-2.16-1.16-4.84-1.16-8.05c0-3.21,0.39-5.89,1.16-8.05c0.77-2.17,1.87-4.15,3.28-5.94c1.31-1.6,3.12-2.99,5.43-4.15
			c2.3-1.16,4.91-1.75,7.82-1.75c2.92,0,5.53,0.59,7.84,1.75c2.3,1.17,4.11,2.55,5.42,4.15c1.41,1.8,2.5,3.78,3.28,5.94
			C329.91,33.41,330.3,36.09,330.3,39.29 M321.05,39.29c0-1.8-0.17-3.53-0.5-5.21c-0.34-1.68-1.07-3.12-2.19-4.33
			c-0.63-0.68-1.43-1.25-2.41-1.72c-0.97-0.46-2.09-0.69-3.35-0.69c-1.26,0-2.38,0.23-3.35,0.69c-0.97,0.47-1.77,1.04-2.41,1.72
			c-1.12,1.21-1.85,2.66-2.19,4.33c-0.34,1.68-0.51,3.41-0.51,5.21c0,1.79,0.17,3.53,0.51,5.21c0.34,1.67,1.07,3.12,2.19,4.33
			c0.64,0.69,1.43,1.25,2.41,1.71c0.97,0.46,2.09,0.7,3.35,0.7c1.27,0,2.38-0.23,3.35-0.7c0.97-0.46,1.78-1.02,2.41-1.71
			c1.12-1.21,1.85-2.65,2.19-4.33C320.88,42.82,321.05,41.08,321.05,39.29"/>
		<path class="st3" d="M379.85,58.24V34.7c0-2.33-0.4-4.14-1.2-5.43c-0.8-1.29-2.35-1.94-4.63-1.94c-1.32,0-2.43,0.31-3.36,0.92
			c-0.92,0.61-1.68,1.41-2.29,2.4c-0.61,1-1.06,2.11-1.34,3.31c-0.29,1.23-0.44,2.4-0.44,3.57v20.69h-9.04V34.7
			c0-2.33-0.4-4.14-1.2-5.43c-0.8-1.29-2.35-1.94-4.63-1.94c-1.31,0-2.43,0.31-3.35,0.92c-0.92,0.61-1.7,1.41-2.34,2.4
			c-0.62,1-1.09,2.11-1.38,3.31c-0.3,1.23-0.44,2.4-0.44,3.57v20.69h-9.03V20.35h7.57l0.74,5.03c1.06-1.75,2.49-3.18,4.29-4.3
			c1.8-1.12,3.96-1.68,6.49-1.68c2.67,0,4.9,0.54,6.7,1.64c1.8,1.09,3.19,2.61,4.16,4.54c1.11-1.98,2.66-3.51,4.62-4.58
			c1.97-1.06,4.24-1.6,6.82-1.6c4.08,0,7.16,1.23,9.22,3.68c2.06,2.46,3.1,5.65,3.1,9.59v25.57H379.85z"/>
		<path class="st3" d="M394.49,16.85l-2.62-4.38l11.95-9.25l3.64,6.12L394.49,16.85z M395.95,20.35h9.25v37.89h-9.25V20.35z"/>
		<path class="st3" d="M442.21,46.5c0,1.85-0.3,3.45-0.91,4.81c-0.61,1.36-1.4,2.53-2.37,3.49c-1.56,1.56-3.45,2.68-5.68,3.35
			c-2.24,0.68-4.66,1.01-7.29,1.01c-2.43,0-4.69-0.35-6.77-1.05c-2.09-0.7-3.92-1.8-5.47-3.32c-1.12-1.07-2.07-2.36-2.84-3.86
			c-0.78-1.5-1.17-3.15-1.17-4.95h8.53c0,0.82,0.19,1.65,0.58,2.47c0.39,0.82,0.88,1.48,1.46,1.96c0.73,0.59,1.54,1.01,2.45,1.27
			c0.9,0.27,2,0.41,3.31,0.41c0.78,0,1.61-0.06,2.52-0.19c0.89-0.12,1.73-0.35,2.51-0.69c0.78-0.34,1.42-0.82,1.92-1.46
			c0.52-0.63,0.77-1.46,0.77-2.47c0-1.13-0.34-2.01-1.02-2.7c-0.67-0.67-1.6-1.12-2.76-1.3c-1.7-0.24-3.45-0.45-5.25-0.62
			c-1.8-0.17-3.54-0.45-5.25-0.84c-1.31-0.29-2.49-0.76-3.53-1.39c-1.05-0.63-1.96-1.39-2.74-2.29c-0.78-0.9-1.37-1.89-1.79-2.99
			c-0.41-1.09-0.62-2.24-0.62-3.46c0-1.94,0.37-3.61,1.1-4.99c0.73-1.39,1.64-2.57,2.76-3.53c1.42-1.22,3.09-2.15,5.03-2.81
			c1.95-0.65,4.1-0.98,6.48-0.98c2.28,0,4.48,0.36,6.6,1.09c2.11,0.74,3.87,1.85,5.27,3.36c1.02,1.11,1.83,2.35,2.44,3.68
			c0.61,1.34,0.91,2.7,0.91,4.11h-8.67c0-0.74-0.14-1.39-0.43-1.97c-0.29-0.58-0.66-1.12-1.09-1.6c-0.54-0.53-1.25-0.96-2.15-1.28
			c-0.9-0.31-1.83-0.47-2.8-0.47c-0.68,0-1.34,0.02-1.97,0.07c-0.63,0.04-1.29,0.21-1.97,0.5c-0.83,0.35-1.52,0.85-2.07,1.53
			c-0.55,0.68-0.84,1.51-0.84,2.47c0,1.37,0.47,2.3,1.42,2.82c0.95,0.51,1.93,0.83,2.95,0.98c0.87,0.1,1.61,0.18,2.19,0.26
			c0.58,0.07,1.17,0.14,1.74,0.22c0.59,0.07,1.2,0.15,1.82,0.26c0.63,0.09,1.41,0.21,2.33,0.36c3.01,0.49,5.49,1.63,7.43,3.46
			C441.24,41.07,442.21,43.49,442.21,46.5"/>
	</g>
	<g>
		<path class="st4" d="M244.65,139.04v-7.09h0.91v7.09H244.65z"/>
		<path class="st4" d="M250.73,139.04v-3.21c0-0.76-0.31-1.21-1.11-1.21c-0.49,0-0.88,0.32-1.1,0.78c-0.17,0.37-0.18,0.9-0.18,1.29
			v2.35h-0.85v-5.06h0.74l0.07,0.76c0.26-0.58,0.96-0.89,1.53-0.89c1.15,0,1.75,0.69,1.75,1.86v3.33H250.73z"/>
		<path class="st4" d="M254.95,139.11c-1.09,0-1.39-0.69-1.39-1.37v-3.03h-0.98v-0.73h0.98v-1.29l0.85-0.2v1.49h1.5v0.73h-1.5v2.93
			c0,0.49,0.21,0.69,0.68,0.69c0.36,0,0.87-0.09,0.87-0.09v0.73C255.73,139.03,255.42,139.11,254.95,139.11z"/>
		<path class="st4" d="M261.16,136.8h-3.58c0,0.46,0.18,0.96,0.49,1.27c0.23,0.23,0.54,0.36,0.93,0.36c0.4,0,0.73-0.11,0.94-0.33
			c0.14-0.14,0.23-0.28,0.3-0.55h0.83c-0.07,0.5-0.37,0.97-0.78,1.25c-0.36,0.24-0.81,0.38-1.29,0.38c-0.71,0-1.29-0.3-1.68-0.76
			c-0.42-0.49-0.63-1.16-0.63-1.88c0-0.61,0.11-1.15,0.39-1.62c0.36-0.61,1.03-1.06,1.91-1.06c0.65,0,1.17,0.25,1.54,0.65
			c0.41,0.45,0.65,1.1,0.64,1.78L261.16,136.8z M259.99,135.04c-0.21-0.28-0.55-0.46-1-0.46c-0.92,0-1.37,0.75-1.39,1.49h2.7
			C260.3,135.69,260.19,135.31,259.99,135.04z"/>
		<path class="st4" d="M264.86,134.78c-0.4,0-0.73,0.18-0.96,0.4c-0.41,0.39-0.46,1.09-0.46,1.62v2.25h-0.84v-5.06h0.75l0.07,0.89
			c0.26-0.62,0.87-0.92,1.51-0.92c0.13,0,0.27,0.01,0.4,0.03v0.83C265.18,134.79,265.01,134.78,264.86,134.78z"/>
		<path class="st4" d="M267.47,139.1c-0.74,0-1.06-0.44-1.06-1.24v-6.04h0.85v5.99c0,0.34,0.11,0.52,0.46,0.52
			c0.28,0,0.35-0.01,0.35-0.01v0.72C268.07,139.04,267.88,139.1,267.47,139.1z"/>
		<path class="st4" d="M270.38,139.1c-0.74,0-1.06-0.44-1.06-1.24v-6.04h0.85v5.99c0,0.34,0.11,0.52,0.46,0.52
			c0.28,0,0.35-0.01,0.35-0.01v0.72C270.98,139.04,270.79,139.1,270.38,139.1z"/>
		<path class="st4" d="M276.29,136.8h-3.58c0,0.46,0.18,0.96,0.49,1.27c0.23,0.23,0.54,0.36,0.93,0.36c0.4,0,0.73-0.11,0.94-0.33
			c0.14-0.14,0.23-0.28,0.3-0.55h0.83c-0.07,0.5-0.37,0.97-0.78,1.25c-0.36,0.24-0.81,0.38-1.29,0.38c-0.71,0-1.29-0.3-1.68-0.76
			c-0.42-0.49-0.63-1.16-0.63-1.88c0-0.61,0.11-1.15,0.39-1.62c0.36-0.61,1.03-1.06,1.91-1.06c0.65,0,1.17,0.25,1.54,0.65
			c0.41,0.45,0.65,1.1,0.64,1.78L276.29,136.8z M275.12,135.04c-0.21-0.28-0.55-0.46-1-0.46c-0.92,0-1.37,0.75-1.39,1.49h2.7
			C275.43,135.69,275.32,135.31,275.12,135.04z"/>
		<path class="st4" d="M279.3,139.11c-1.09,0-1.39-0.69-1.39-1.37v-3.03h-0.98v-0.73h0.98v-1.29l0.85-0.2v1.49h1.5v0.73h-1.5v2.93
			c0,0.49,0.21,0.69,0.68,0.69c0.36,0,0.87-0.09,0.87-0.09v0.73C280.08,139.03,279.77,139.11,279.3,139.11z"/>
		<path class="st4" d="M283.8,134.78c-0.4,0-0.73,0.18-0.96,0.4c-0.41,0.39-0.46,1.09-0.46,1.62v2.25h-0.84v-5.06h0.75l0.07,0.89
			c0.26-0.62,0.87-0.92,1.51-0.92c0.13,0,0.27,0.01,0.4,0.03v0.83C284.12,134.79,283.95,134.78,283.8,134.78z"/>
		<path class="st4" d="M288.97,139.11c-0.45,0-0.73-0.34-0.73-0.77h-0.02c-0.29,0.51-0.92,0.83-1.63,0.83
			c-1.16,0-1.74-0.78-1.74-1.56c0-0.65,0.42-1.5,1.8-1.58l1.54-0.09v-0.37c0-0.25-0.03-0.56-0.26-0.77
			c-0.17-0.16-0.42-0.26-0.83-0.26c-0.46,0-0.75,0.13-0.92,0.3c-0.16,0.16-0.25,0.36-0.25,0.61h-0.83c0.01-0.46,0.18-0.79,0.44-1.06
			c0.34-0.36,0.94-0.54,1.56-0.54c0.98,0,1.54,0.42,1.78,0.97c0.1,0.23,0.15,0.49,0.15,0.78v2.45c0,0.27,0.11,0.34,0.28,0.34
			c0.09,0,0.22-0.03,0.22-0.03v0.63C289.35,139.08,289.18,139.11,288.97,139.11z M288.19,136.61l-1.36,0.08
			c-0.51,0.03-1.11,0.27-1.11,0.91c0,0.45,0.28,0.87,1,0.87c0.39,0,0.77-0.13,1.04-0.41c0.3-0.31,0.43-0.73,0.43-1.15V136.61z"/>
		<path class="st4" d="M292.45,139.11c-1.09,0-1.39-0.69-1.39-1.37v-3.03h-0.98v-0.73h0.98v-1.29l0.85-0.2v1.49h1.5v0.73h-1.5v2.93
			c0,0.49,0.21,0.69,0.68,0.69c0.36,0,0.87-0.09,0.87-0.09v0.73C293.23,139.03,292.92,139.11,292.45,139.11z"/>
		<path class="st4" d="M300.38,138.58c-0.37,0.36-0.89,0.59-1.53,0.59s-1.16-0.23-1.53-0.59c-0.55-0.54-0.72-1.27-0.72-2.07
			c0-0.8,0.17-1.53,0.72-2.07c0.37-0.36,0.89-0.59,1.53-0.59s1.16,0.23,1.53,0.59c0.55,0.54,0.72,1.27,0.72,2.07
			C301.1,137.32,300.93,138.05,300.38,138.58z M299.76,134.95c-0.21-0.21-0.51-0.36-0.91-0.36c-0.4,0-0.7,0.15-0.91,0.36
			c-0.36,0.37-0.47,0.98-0.47,1.57s0.11,1.2,0.47,1.57c0.21,0.21,0.51,0.36,0.91,0.36c0.4,0,0.7-0.15,0.91-0.36
			c0.36-0.37,0.47-0.98,0.47-1.57S300.12,135.32,299.76,134.95z"/>
		<path class="st4" d="M304.83,134.78c-0.4,0-0.73,0.18-0.96,0.4c-0.41,0.39-0.46,1.09-0.46,1.62v2.25h-0.84v-5.06h0.75l0.07,0.89
			c0.26-0.62,0.87-0.92,1.51-0.92c0.13,0,0.27,0.01,0.4,0.03v0.83C305.15,134.79,304.98,134.78,304.83,134.78z"/>
		<path class="st4" d="M306.35,132.83v-1h0.99v1H306.35z M306.41,139.04v-5.06h0.87v5.06H306.41z"/>
		<path class="st4" d="M313.03,140.81c-0.49,0.48-1.33,0.59-2.04,0.59c-0.67,0-1.43-0.1-1.92-0.59c-0.21-0.21-0.36-0.5-0.36-0.9
			c0-0.53,0.32-0.92,0.72-1.12c-0.34-0.13-0.59-0.46-0.59-0.85c0-0.45,0.29-0.8,0.67-0.98c-0.37-0.33-0.58-0.83-0.58-1.31
			c0-0.55,0.19-0.93,0.48-1.23c0.35-0.36,0.83-0.57,1.5-0.57c0.48,0,0.85,0.11,1.16,0.3c0.17-0.45,0.56-0.71,1.04-0.71
			c0.08,0,0.17,0.01,0.25,0.02v0.69c-0.05-0.01-0.12-0.01-0.19-0.01c-0.33,0-0.57,0.18-0.62,0.46c0.21,0.27,0.33,0.6,0.33,1.05
			c0,0.48-0.18,0.9-0.46,1.21c-0.33,0.36-0.84,0.6-1.51,0.6c-0.34,0-0.53-0.03-0.85-0.14c-0.19,0.06-0.41,0.21-0.43,0.45
			c-0.03,0.44,0.44,0.49,0.76,0.5c0.33,0.01,1,0,1,0c0.6,0,1.27,0.12,1.67,0.53c0.24,0.24,0.4,0.57,0.4,0.99
			C313.46,140.23,313.27,140.57,313.03,140.81z M311.04,138.99h-0.92c-0.34,0.11-0.64,0.41-0.64,0.8c0,0.23,0.08,0.4,0.21,0.53
			c0.33,0.33,0.91,0.35,1.35,0.35c0.43,0,1.06-0.04,1.38-0.36c0.13-0.13,0.21-0.3,0.21-0.52
			C312.63,138.93,311.68,138.99,311.04,138.99z M310.9,134.55c-0.69,0-1.15,0.47-1.15,1.11s0.43,1.13,1.15,1.13
			c0.69,0,1.15-0.49,1.15-1.13S311.62,134.55,310.9,134.55z"/>
		<path class="st4" d="M314.48,132.83v-1h0.99v1H314.48z M314.54,139.04v-5.06h0.87v5.06H314.54z"/>
		<path class="st4" d="M320.51,139.04v-3.21c0-0.76-0.31-1.21-1.11-1.21c-0.49,0-0.88,0.32-1.1,0.78c-0.17,0.37-0.18,0.9-0.18,1.29
			v2.35h-0.85v-5.06h0.74l0.07,0.76c0.26-0.58,0.96-0.89,1.53-0.89c1.15,0,1.75,0.69,1.75,1.86v3.33H320.51z"/>
		<path class="st4" d="M326.8,139.11c-0.45,0-0.73-0.34-0.73-0.77h-0.02c-0.29,0.51-0.92,0.83-1.63,0.83
			c-1.16,0-1.74-0.78-1.74-1.56c0-0.65,0.42-1.5,1.8-1.58l1.54-0.09v-0.37c0-0.25-0.03-0.56-0.26-0.77
			c-0.17-0.16-0.42-0.26-0.83-0.26c-0.46,0-0.75,0.13-0.92,0.3c-0.16,0.16-0.25,0.36-0.25,0.61h-0.83c0.01-0.46,0.18-0.79,0.44-1.06
			c0.34-0.36,0.94-0.54,1.56-0.54c0.98,0,1.54,0.42,1.78,0.97c0.1,0.23,0.15,0.49,0.15,0.78v2.45c0,0.27,0.11,0.34,0.28,0.34
			c0.09,0,0.22-0.03,0.22-0.03v0.63C327.18,139.08,327.01,139.11,326.8,139.11z M326.02,136.61l-1.36,0.08
			c-0.51,0.03-1.11,0.27-1.11,0.91c0,0.45,0.28,0.87,1,0.87c0.39,0,0.77-0.13,1.04-0.41c0.3-0.31,0.43-0.73,0.43-1.15V136.61z"/>
		<path class="st4" d="M329.74,139.1c-0.74,0-1.06-0.44-1.06-1.24v-6.04h0.85v5.99c0,0.34,0.11,0.52,0.46,0.52
			c0.28,0,0.35-0.01,0.35-0.01v0.72C330.34,139.04,330.15,139.1,329.74,139.1z"/>
	</g>
	<line class="st5" x1="473.82" y1="129.52" x2="473.82" y2="31.72"/>
	<line class="st5" x1="97.31" y1="124.2" x2="473.82" y2="124.2"/>
	<line class="st6" x1="97.52" y1="38.39" x2="97.52" y2="172.04"/>
	<g>
		<path class="st7" d="M227.16,180.39v-7.09h0.91v7.09H227.16z"/>
		<path class="st7" d="M233.23,180.39v-3.21c0-0.76-0.31-1.21-1.11-1.21c-0.49,0-0.88,0.32-1.1,0.78c-0.17,0.37-0.18,0.9-0.18,1.29
			v2.35H230v-5.06h0.74l0.07,0.76c0.26-0.58,0.96-0.89,1.53-0.89c1.15,0,1.75,0.69,1.75,1.86v3.33H233.23z"/>
		<path class="st7" d="M237.46,180.46c-1.09,0-1.39-0.69-1.39-1.37v-3.03h-0.98v-0.73h0.98v-1.29l0.85-0.2v1.49h1.5v0.73h-1.5v2.93
			c0,0.49,0.21,0.69,0.68,0.69c0.36,0,0.87-0.09,0.87-0.09v0.73C238.23,180.38,237.92,180.46,237.46,180.46z"/>
		<path class="st7" d="M243.66,178.14h-3.58c0,0.46,0.18,0.96,0.49,1.27c0.23,0.23,0.54,0.36,0.93,0.36c0.4,0,0.73-0.11,0.94-0.33
			c0.14-0.14,0.23-0.28,0.3-0.55h0.83c-0.07,0.5-0.37,0.97-0.78,1.25c-0.36,0.24-0.81,0.38-1.29,0.38c-0.71,0-1.29-0.3-1.68-0.76
			c-0.42-0.49-0.63-1.16-0.63-1.88c0-0.61,0.11-1.15,0.39-1.62c0.36-0.61,1.03-1.06,1.91-1.06c0.65,0,1.17,0.25,1.54,0.65
			c0.41,0.45,0.65,1.1,0.64,1.78L243.66,178.14z M242.49,176.38c-0.21-0.28-0.55-0.46-1-0.46c-0.92,0-1.37,0.75-1.39,1.49h2.7
			C242.8,177.03,242.69,176.65,242.49,176.38z"/>
		<path class="st7" d="M247.36,176.12c-0.4,0-0.73,0.18-0.96,0.4c-0.41,0.39-0.46,1.09-0.46,1.62v2.25h-0.84v-5.06h0.75l0.07,0.89
			c0.26-0.62,0.87-0.92,1.51-0.92c0.13,0,0.27,0.01,0.4,0.03v0.83C247.68,176.13,247.51,176.12,247.36,176.12z"/>
		<path class="st7" d="M249.97,180.45c-0.74,0-1.06-0.44-1.06-1.24v-6.04h0.85v5.99c0,0.34,0.11,0.52,0.46,0.52
			c0.28,0,0.35-0.01,0.35-0.01v0.72C250.57,180.39,250.38,180.45,249.97,180.45z"/>
		<path class="st7" d="M252.88,180.45c-0.74,0-1.06-0.44-1.06-1.24v-6.04h0.85v5.99c0,0.34,0.11,0.52,0.46,0.52
			c0.28,0,0.35-0.01,0.35-0.01v0.72C253.48,180.39,253.29,180.45,252.88,180.45z"/>
		<path class="st7" d="M258.79,178.14h-3.58c0,0.46,0.18,0.96,0.49,1.27c0.23,0.23,0.54,0.36,0.93,0.36c0.4,0,0.73-0.11,0.94-0.33
			c0.14-0.14,0.23-0.28,0.3-0.55h0.83c-0.07,0.5-0.37,0.97-0.78,1.25c-0.36,0.24-0.81,0.38-1.29,0.38c-0.71,0-1.29-0.3-1.68-0.76
			c-0.42-0.49-0.63-1.16-0.63-1.88c0-0.61,0.11-1.15,0.39-1.62c0.36-0.61,1.03-1.06,1.91-1.06c0.65,0,1.17,0.25,1.54,0.65
			c0.41,0.45,0.65,1.1,0.64,1.78L258.79,178.14z M257.62,176.38c-0.21-0.28-0.55-0.46-1-0.46c-0.92,0-1.37,0.75-1.39,1.49h2.7
			C257.93,177.03,257.82,176.65,257.62,176.38z"/>
		<path class="st7" d="M261.8,180.46c-1.09,0-1.39-0.69-1.39-1.37v-3.03h-0.98v-0.73h0.98v-1.29l0.85-0.2v1.49h1.5v0.73h-1.5v2.93
			c0,0.49,0.21,0.69,0.68,0.69c0.36,0,0.87-0.09,0.87-0.09v0.73C262.58,180.38,262.27,180.46,261.8,180.46z"/>
		<path class="st7" d="M266.3,176.12c-0.4,0-0.73,0.18-0.96,0.4c-0.41,0.39-0.46,1.09-0.46,1.62v2.25h-0.84v-5.06h0.75l0.07,0.89
			c0.26-0.62,0.87-0.92,1.51-0.92c0.13,0,0.27,0.01,0.4,0.03v0.83C266.62,176.13,266.45,176.12,266.3,176.12z"/>
		<path class="st7" d="M271.47,180.46c-0.45,0-0.73-0.34-0.73-0.77h-0.02c-0.29,0.51-0.92,0.83-1.63,0.83
			c-1.16,0-1.74-0.78-1.74-1.56c0-0.65,0.42-1.5,1.8-1.58l1.54-0.09v-0.37c0-0.25-0.03-0.56-0.26-0.77
			c-0.17-0.16-0.42-0.26-0.83-0.26c-0.46,0-0.75,0.13-0.92,0.3c-0.16,0.16-0.25,0.36-0.25,0.61h-0.83c0.01-0.46,0.18-0.79,0.44-1.06
			c0.34-0.36,0.94-0.54,1.56-0.54c0.98,0,1.54,0.42,1.78,0.97c0.1,0.23,0.15,0.49,0.15,0.78v2.45c0,0.27,0.11,0.34,0.28,0.34
			c0.09,0,0.22-0.03,0.22-0.03v0.63C271.85,180.43,271.68,180.46,271.47,180.46z M270.69,177.95l-1.36,0.08
			c-0.51,0.03-1.11,0.27-1.11,0.91c0,0.45,0.28,0.87,1,0.87c0.39,0,0.77-0.13,1.04-0.41c0.3-0.31,0.43-0.73,0.43-1.15V177.95z"/>
		<path class="st7" d="M274.95,180.46c-1.09,0-1.39-0.69-1.39-1.37v-3.03h-0.98v-0.73h0.98v-1.29l0.85-0.2v1.49h1.5v0.73h-1.5v2.93
			c0,0.49,0.21,0.69,0.68,0.69c0.36,0,0.87-0.09,0.87-0.09v0.73C275.73,180.38,275.42,180.46,274.95,180.46z"/>
		<path class="st7" d="M282.83,179.97c-0.36,0.35-0.84,0.55-1.46,0.55c-0.91,0-1.49-0.42-1.85-0.95c-0.27-0.4-0.42-0.95-0.42-1.71
			s0.15-1.31,0.42-1.71c0.36-0.53,0.93-0.95,1.84-0.95c0.6,0,1.09,0.2,1.44,0.54c0.34,0.33,0.56,0.75,0.6,1.3h-0.86
			c-0.04-0.35-0.17-0.6-0.36-0.79c-0.2-0.19-0.49-0.31-0.82-0.31c-0.39,0-0.66,0.14-0.88,0.33c-0.4,0.34-0.51,0.97-0.51,1.59
			c0,0.62,0.11,1.25,0.51,1.59c0.22,0.19,0.49,0.33,0.88,0.33c0.35,0,0.66-0.13,0.86-0.34c0.18-0.19,0.3-0.42,0.34-0.75h0.86
			C283.38,179.23,283.17,179.64,282.83,179.97z"/>
		<path class="st7" d="M288.2,179.93c-0.37,0.36-0.89,0.59-1.53,0.59s-1.16-0.23-1.53-0.59c-0.55-0.54-0.72-1.27-0.72-2.07
			c0-0.8,0.17-1.53,0.72-2.07c0.37-0.36,0.89-0.59,1.53-0.59s1.16,0.23,1.53,0.59c0.55,0.54,0.72,1.27,0.72,2.07
			C288.92,178.66,288.75,179.39,288.2,179.93z M287.58,176.29c-0.21-0.21-0.51-0.36-0.91-0.36c-0.4,0-0.7,0.15-0.91,0.36
			c-0.36,0.37-0.47,0.98-0.47,1.57s0.11,1.2,0.47,1.57c0.21,0.21,0.51,0.36,0.91,0.36c0.4,0,0.7-0.15,0.91-0.36
			c0.36-0.37,0.47-0.98,0.47-1.57S287.94,176.66,287.58,176.29z"/>
		<path class="st7" d="M292.65,176.12c-0.4,0-0.73,0.18-0.96,0.4c-0.41,0.39-0.46,1.09-0.46,1.62v2.25h-0.84v-5.06h0.75l0.07,0.89
			c0.26-0.62,0.87-0.92,1.51-0.92c0.13,0,0.27,0.01,0.4,0.03v0.83C292.97,176.13,292.8,176.12,292.65,176.12z"/>
		<path class="st7" d="M296.44,176.12c-0.4,0-0.73,0.18-0.96,0.4c-0.41,0.39-0.46,1.09-0.46,1.62v2.25h-0.84v-5.06h0.75l0.07,0.89
			c0.26-0.62,0.87-0.92,1.51-0.92c0.13,0,0.27,0.01,0.4,0.03v0.83C296.76,176.13,296.59,176.12,296.44,176.12z"/>
		<path class="st7" d="M301.99,178.14h-3.58c0,0.46,0.18,0.96,0.49,1.27c0.23,0.23,0.54,0.36,0.93,0.36c0.4,0,0.73-0.11,0.94-0.33
			c0.14-0.14,0.23-0.28,0.3-0.55h0.83c-0.07,0.5-0.37,0.97-0.78,1.25c-0.36,0.24-0.81,0.38-1.29,0.38c-0.71,0-1.29-0.3-1.68-0.76
			c-0.42-0.49-0.63-1.16-0.63-1.88c0-0.61,0.11-1.15,0.39-1.62c0.36-0.61,1.03-1.06,1.91-1.06c0.65,0,1.17,0.25,1.54,0.65
			c0.41,0.45,0.65,1.1,0.64,1.78L301.99,178.14z M300.82,176.38c-0.21-0.28-0.55-0.46-1-0.46c-0.92,0-1.37,0.75-1.39,1.49h2.7
			C301.13,177.03,301.02,176.65,300.82,176.38z"/>
		<path class="st7" d="M306.77,179.97c-0.36,0.35-0.84,0.55-1.46,0.55c-0.91,0-1.49-0.42-1.85-0.95c-0.27-0.4-0.42-0.95-0.42-1.71
			s0.15-1.31,0.42-1.71c0.36-0.53,0.93-0.95,1.84-0.95c0.6,0,1.09,0.2,1.44,0.54c0.34,0.33,0.56,0.75,0.6,1.3h-0.86
			c-0.04-0.35-0.17-0.6-0.36-0.79c-0.2-0.19-0.49-0.31-0.82-0.31c-0.39,0-0.66,0.14-0.88,0.33c-0.4,0.34-0.51,0.97-0.51,1.59
			c0,0.62,0.11,1.25,0.51,1.59c0.22,0.19,0.49,0.33,0.88,0.33c0.35,0,0.66-0.13,0.86-0.34c0.18-0.19,0.3-0.42,0.34-0.75h0.86
			C307.32,179.23,307.11,179.64,306.77,179.97z"/>
		<path class="st7" d="M310.32,180.46c-1.09,0-1.39-0.69-1.39-1.37v-3.03h-0.98v-0.73h0.98v-1.29l0.85-0.2v1.49h1.5v0.73h-1.5v2.93
			c0,0.49,0.21,0.69,0.68,0.69c0.36,0,0.87-0.09,0.87-0.09v0.73C311.1,180.38,310.79,180.46,310.32,180.46z"/>
		<path class="st7" d="M316.53,178.14h-3.58c0,0.46,0.18,0.96,0.49,1.27c0.23,0.23,0.54,0.36,0.93,0.36c0.4,0,0.73-0.11,0.94-0.33
			c0.14-0.14,0.23-0.28,0.3-0.55h0.83c-0.07,0.5-0.37,0.97-0.78,1.25c-0.36,0.24-0.81,0.38-1.29,0.38c-0.71,0-1.29-0.3-1.68-0.76
			c-0.42-0.49-0.63-1.16-0.63-1.88c0-0.61,0.11-1.15,0.39-1.62c0.36-0.61,1.03-1.06,1.91-1.06c0.65,0,1.17,0.25,1.54,0.65
			c0.41,0.45,0.65,1.1,0.64,1.78L316.53,178.14z M315.36,176.38c-0.21-0.28-0.55-0.46-1-0.46c-0.92,0-1.37,0.75-1.39,1.49h2.7
			C315.67,177.03,315.56,176.65,315.36,176.38z"/>
	</g>
	<line class="st6" x1="443.59" y1="172.03" x2="443.59" y2="31.72"/>
	<line class="st6" x1="97.31" y1="165.87" x2="443.09" y2="165.87"/>
</g>
</svg>
