<svg version="1.1" xmlns="http://www.w3.org/2000/svg" xmlns:xlink="http://www.w3.org/1999/xlink" x="0px" y="0px" width="728.5px"
	 height="103.33px" viewBox="0 0 728.5 103.33" style="enable-background:new 0 0 728.5 103.33;" xml:space="preserve">
<style type="text/css">
	.st0{clip-path:url(#SVGID_2_);fill:url(#SVGID_3_);}
	.st1{fill:#27292E;}
	.st2{fill:#898E91;}
	.st3{fill:none;stroke:#898E91;stroke-width:0.948;stroke-miterlimit:10;}
	.st4{fill:#12ACE3;}
	.st5{fill:none;stroke:#12ACE3;stroke-width:0.948;stroke-linecap:square;stroke-miterlimit:10;}
	.st6{fill:none;stroke:#12ACE3;stroke-width:0.948;stroke-linecap:square;stroke-miterlimit:10;stroke-dasharray:4.711,4.711;}
	.st7{fill:none;}
	.st8{clip-path:url(#SVGID_5_);fill:#CCE4F6;}
	.st9{clip-path:url(#SVGID_5_);fill:#0FACE3;}
	.st10{fill:#18171C;}
	.st11{clip-path:url(#SVGID_7_);fill:#12ACE3;}
	.st12{clip-path:url(#SVGID_9_);fill:#CCE4F6;}
	.st13{clip-path:url(#SVGID_9_);fill:#0FACE3;}
	.st14{clip-path:url(#SVGID_11_);fill:none;stroke:#12ACE3;stroke-width:0.948;stroke-linecap:square;stroke-miterlimit:10;}
	.st15{clip-path:url(#SVGID_13_);fill:none;stroke:#12ACE3;stroke-width:0.948;stroke-linecap:square;stroke-miterlimit:10;}
	.st16{clip-path:url(#SVGID_15_);fill:none;stroke:#12ACE3;stroke-width:0.948;stroke-linecap:square;stroke-miterlimit:10;}
	.st17{clip-path:url(#SVGID_17_);fill:url(#SVGID_18_);}
	.st18{clip-path:url(#SVGID_20_);fill:#CCE4F6;}
	.st19{clip-path:url(#SVGID_20_);fill:#0FACE3;}
	.st20{clip-path:url(#SVGID_22_);fill:#12ACE3;}
	.st21{clip-path:url(#SVGID_24_);fill:#CCE4F6;}
	.st22{clip-path:url(#SVGID_24_);fill:#0FACE3;}
	.st23{clip-path:url(#SVGID_26_);fill:none;stroke:#12ACE3;stroke-width:0.948;stroke-linecap:square;stroke-miterlimit:10;}
	.st24{clip-path:url(#SVGID_28_);fill:none;stroke:#12ACE3;stroke-width:0.948;stroke-linecap:square;stroke-miterlimit:10;}
	.st25{clip-path:url(#SVGID_30_);fill:none;stroke:#12ACE3;stroke-width:0.948;stroke-linecap:square;stroke-miterlimit:10;}
</style>
<defs>
</defs>
<g>
	<defs>
		<path id="SVGID_1_" d="M29.42,54.99h5.66v0.95h-5.66V54.99z M38.84,54.99h5.66v0.95h-5.66V54.99z M67.11,54.99h5.66v0.95h-5.66
			V54.99z M76.53,54.99h5.66v0.95h-5.66V54.99z M72.53,46.31l2.03,2.59c-0.03,0.03-0.07,0.06-0.11,0.09
			c-0.01,0.01-0.03,0.02-0.04,0.04c-0.02,0.02-0.04,0.04-0.07,0.05c-0.01,0.01-0.03,0.03-0.05,0.04c-0.03,0.02-0.06,0.05-0.09,0.07
			c-0.02,0.02-0.04,0.03-0.06,0.05c-0.01,0.01-0.03,0.02-0.04,0.03c-0.02,0.02-0.05,0.04-0.07,0.05c-0.01,0.01-0.02,0.01-0.02,0.02
			c-0.08,0.07-0.16,0.13-0.25,0.19c0,0,0,0-0.01,0c-2.3,1.79-4.73,3.19-7.35,4.18h0c-0.1,0.04-0.2,0.08-0.31,0.11l0,0
			c-0.03,0.01-0.07,0.02-0.1,0.04c0,0-0.01,0-0.01,0c-0.1,0.04-0.19,0.07-0.29,0.1c-0.01,0-0.02,0.01-0.03,0.01
			c-0.03,0.01-0.06,0.02-0.09,0.03c0,0,0,0,0,0c-0.06,0.02-0.12,0.04-0.18,0.06c-0.01,0-0.02,0.01-0.03,0.01
			c-0.03,0.01-0.05,0.02-0.08,0.03c-0.01,0.01-0.03,0.01-0.04,0.01c-0.05,0.02-0.1,0.03-0.15,0.05c-0.01,0-0.02,0.01-0.03,0.01
			c-0.03,0.01-0.05,0.02-0.08,0.02c-0.02,0-0.03,0.01-0.05,0.02c-0.02,0.01-0.05,0.01-0.07,0.02c-0.02,0.01-0.05,0.01-0.07,0.02
			c-0.03,0.01-0.07,0.02-0.1,0.03c-0.02,0.01-0.05,0.01-0.07,0.02c-0.02,0.01-0.04,0.01-0.06,0.02c-0.02,0.01-0.05,0.01-0.07,0.02
			c-0.02,0-0.04,0.01-0.06,0.02c-0.04,0.01-0.08,0.02-0.12,0.03c-0.02,0.01-0.03,0.01-0.05,0.01c-0.03,0.01-0.06,0.02-0.08,0.02
			c-0.02,0.01-0.03,0.01-0.05,0.01c-0.04,0.01-0.08,0.02-0.13,0.04c-0.01,0-0.01,0-0.02,0c-0.04,0.01-0.08,0.02-0.11,0.03
			c-0.01,0-0.03,0.01-0.04,0.01c-0.03,0.01-0.07,0.02-0.11,0.03c-0.01,0-0.02,0.01-0.03,0.01c-0.05,0.01-0.09,0.02-0.14,0.03
			c-0.01,0-0.02,0.01-0.03,0.01c-0.04,0.01-0.08,0.02-0.11,0.03c-0.01,0-0.02,0.01-0.03,0.01c-0.09,0.02-0.19,0.05-0.28,0.07
			c-0.01,0-0.02,0-0.02,0.01c-0.04,0.01-0.09,0.02-0.14,0.03c0,0,0,0,0,0c-0.05,0.01-0.1,0.02-0.15,0.03c0,0,0,0-0.01,0
			c-0.05,0.01-0.09,0.02-0.14,0.03c0,0-0.01,0-0.01,0c-0.1,0.02-0.2,0.04-0.3,0.06h0c-0.13,0.03-0.26,0.05-0.39,0.08h1.4v0.95h-5.66
			V55.5c-0.13,0.01-0.26,0.01-0.4,0.02c-0.01,0-0.02,0-0.02,0c-0.09,0-0.18,0.01-0.28,0.01c-0.02,0-0.05,0-0.07,0
			c-0.03,0-0.06,0-0.09,0c-0.03,0-0.07,0-0.1,0c-0.02,0-0.04,0-0.06,0c-0.04,0-0.09,0-0.13,0c-0.01,0-0.02,0-0.04,0
			c-0.04,0-0.08,0-0.12,0c-0.01,0-0.02,0-0.04,0c-0.05,0-0.1,0-0.14,0c-0.01,0-0.02,0-0.03,0c-0.05,0-0.1,0-0.15,0
			c-0.05,0-0.11,0-0.16,0c-0.01,0-0.02,0-0.03,0c-0.05,0-0.09,0-0.14,0c-0.01,0-0.01,0-0.01,0c-0.59-0.01-1.17-0.03-1.75-0.06v0.47
			h-5.66v-0.95h1.83c-0.65-0.13-1.28-0.27-1.91-0.44h0c-0.1-0.03-0.2-0.05-0.29-0.08c0,0-0.01,0-0.01,0
			c-0.05-0.01-0.1-0.03-0.14-0.04c0,0,0,0,0,0c-0.1-0.03-0.19-0.05-0.28-0.08c-0.01,0-0.01,0-0.02-0.01
			c-0.09-0.03-0.18-0.06-0.28-0.08c-0.01,0-0.01-0.01-0.02-0.01c-0.04-0.01-0.08-0.02-0.11-0.04c-0.01,0-0.02-0.01-0.03-0.01
			c-0.04-0.01-0.09-0.03-0.13-0.04c-0.01,0-0.02-0.01-0.03-0.01c-0.03-0.01-0.07-0.02-0.1-0.04c-0.01,0-0.03-0.01-0.04-0.01
			c-0.04-0.01-0.07-0.02-0.1-0.03c-0.01,0-0.02-0.01-0.03-0.01c-0.04-0.01-0.08-0.03-0.12-0.04c-0.02-0.01-0.03-0.01-0.05-0.02
			c-0.03-0.01-0.06-0.02-0.08-0.03c-0.01-0.01-0.03-0.01-0.05-0.02c-0.04-0.01-0.08-0.03-0.12-0.04c-0.02-0.01-0.03-0.01-0.05-0.02
			c-0.03-0.01-0.05-0.02-0.08-0.03c-0.02-0.01-0.04-0.01-0.06-0.02c-0.02-0.01-0.05-0.02-0.07-0.03c-0.03-0.01-0.06-0.02-0.09-0.03
			c-0.02-0.01-0.05-0.02-0.07-0.03c-0.02-0.01-0.04-0.02-0.07-0.02c-0.02-0.01-0.04-0.01-0.06-0.02c-0.02-0.01-0.04-0.02-0.07-0.03
			c-0.02-0.01-0.03-0.01-0.05-0.02c-0.04-0.02-0.09-0.04-0.13-0.05c-0.01-0.01-0.03-0.01-0.04-0.02c-0.03-0.01-0.06-0.02-0.08-0.03
			c-0.01,0-0.02-0.01-0.03-0.01c-0.09-0.04-0.18-0.07-0.27-0.11c-0.01,0-0.01-0.01-0.02-0.01c-0.1-0.04-0.19-0.08-0.29-0.12
			c0,0,0,0,0,0c-2.33-1-4.52-2.33-6.6-3.98c0,0-0.01-0.01-0.01-0.01c-0.02-0.02-0.05-0.04-0.07-0.06c-0.01-0.01-0.02-0.02-0.03-0.03
			c-0.03-0.03-0.07-0.06-0.1-0.08c-0.02-0.02-0.04-0.03-0.06-0.05c-0.02-0.01-0.03-0.03-0.05-0.04c-0.02-0.02-0.04-0.04-0.06-0.05
			c-0.01-0.01-0.03-0.02-0.04-0.04c-0.04-0.03-0.07-0.06-0.11-0.09l2.03-2.59c5.24,3.73,9.52,5.44,16.51,5.44
			S67.29,50.03,72.53,46.31 M45.98,30.04h5.77v5.51h-5.31c-3.33,0-5.51-0.8-6.92-4.02l2.22-1.27c1,2.04,2.22,2.52,4.24,2.52V30.04z
			 M60.09,30.04h5.77v5.51h-5.77V30.04z M30.66,15.65c-1.42,0-2.58,1.11-2.58,2.46v47.8c0,0.01,0,0.02,0,0.04c0,0,0,0.01,0,0.01
			c0,0.01,0,0.02,0,0.02c0,0,0,0.01,0,0.01c0,0.01,0,0.02,0,0.02c0,0.01,0,0.01,0,0.01c0,0.01,0,0.02,0,0.03c0,0,0,0.01,0,0.01
			c0,0.02,0,0.05,0,0.07c0,0,0,0.01,0,0.01c0,0.01,0,0.02,0,0.03c0,0,0,0.01,0,0.01c0,0.01,0,0.02,0,0.03c0,0,0,0,0,0.01
			c0,0.01,0,0.02,0,0.03v0c0,0.02,0.01,0.05,0.01,0.07v0c0,0.01,0,0.02,0.01,0.03c0,0,0,0,0,0c0,0.01,0,0.02,0.01,0.03c0,0,0,0,0,0
			c0.13,0.61,0.5,1.15,1.01,1.51h53.11c0.07-0.05,0.15-0.11,0.21-0.17c0.01-0.01,0.01-0.01,0.02-0.02c0.01,0,0.01-0.01,0.01-0.01
			c0.01-0.01,0.02-0.02,0.03-0.02c0,0,0,0,0.01-0.01c0.01-0.01,0.02-0.02,0.04-0.03c0,0,0,0,0,0c0.1-0.1,0.19-0.2,0.27-0.31V41.23
			h0.48V18.12c0-1.36-1.17-2.46-2.58-2.46H30.66z"/>
	</defs>
	<clipPath id="SVGID_2_">
		<use xlink:href="#SVGID_1_"  style="overflow:visible;"/>
	</clipPath>

		<linearGradient id="SVGID_3_" gradientUnits="userSpaceOnUse" x1="-56.693" y1="382.677" x2="-55.693" y2="382.677" gradientTransform="matrix(0 53.3103 53.3103 0 -20344.9258 3037.7019)">
		<stop  offset="0" style="stop-color:#E18433"/>
		<stop  offset="0.2756" style="stop-color:#DE7833"/>
		<stop  offset="0.8103" style="stop-color:#D85933"/>
		<stop  offset="1" style="stop-color:#D54B32"/>
	</linearGradient>
	<rect x="28.08" y="15.65" class="st0" width="55.24" height="52.26"/>
</g>
<path class="st1" d="M118.38,46.44c-0.06,1.04-0.27,2.04-0.6,3.03c-0.34,0.98-0.8,1.86-1.4,2.63c-0.9,1.13-2.11,2.1-3.63,2.9
	c-1.52,0.8-3.28,1.2-5.28,1.2c-2.01,0-3.79-0.41-5.35-1.22c-1.57-0.83-2.81-1.78-3.71-2.88c-0.97-1.24-1.68-2.65-2.15-4.26
	c-0.47-1.6-0.7-3.35-0.7-5.26c0-1.9,0.23-3.65,0.7-5.25c0.47-1.6,1.19-3.02,2.15-4.26c0.9-1.1,2.14-2.06,3.71-2.87
	c1.56-0.82,3.35-1.23,5.35-1.23c2,0,3.76,0.4,5.28,1.2c1.52,0.8,2.73,1.77,3.63,2.9c0.6,0.77,1.07,1.65,1.4,2.63
	c0.33,0.98,0.53,1.99,0.6,3.03h-6.15c-0.03-0.46-0.12-0.89-0.25-1.28c-0.14-0.39-0.3-0.76-0.5-1.09c-0.37-0.56-0.88-1.02-1.55-1.38
	c-0.67-0.36-1.48-0.55-2.45-0.55c-0.87,0-1.61,0.15-2.23,0.45c-0.61,0.3-1.14,0.68-1.57,1.14c-0.77,0.83-1.25,1.83-1.46,2.99
	c-0.2,1.16-0.3,2.35-0.3,3.58c0,1.23,0.1,2.42,0.3,3.56c0.2,1.14,0.69,2.13,1.46,2.96c0.43,0.46,0.96,0.85,1.57,1.17
	c0.62,0.32,1.36,0.48,2.23,0.48c0.97,0,1.78-0.18,2.45-0.55c0.67-0.37,1.18-0.82,1.55-1.38c0.2-0.34,0.36-0.7,0.5-1.09
	c0.13-0.4,0.22-0.83,0.25-1.29H118.38z"/>
<path class="st1" d="M143.8,42.64c0,2.2-0.27,4.04-0.8,5.53c-0.54,1.49-1.29,2.84-2.26,4.07c-0.9,1.11-2.14,2.05-3.72,2.86
	c-1.59,0.8-3.38,1.2-5.38,1.2c-2,0-3.79-0.4-5.38-1.2c-1.59-0.8-2.83-1.75-3.72-2.86c-0.97-1.23-1.72-2.59-2.25-4.07
	c-0.53-1.48-0.8-3.33-0.8-5.53c0-2.2,0.27-4.04,0.8-5.53c0.53-1.49,1.29-2.85,2.25-4.08c0.9-1.1,2.14-2.05,3.72-2.85
	c1.59-0.8,3.38-1.2,5.38-1.2c2,0,3.79,0.4,5.38,1.2c1.58,0.8,2.83,1.75,3.72,2.85c0.97,1.23,1.72,2.59,2.26,4.08
	C143.53,38.6,143.8,40.44,143.8,42.64 M137.45,42.64c0-1.24-0.12-2.43-0.35-3.58c-0.24-1.15-0.74-2.15-1.5-2.98
	c-0.43-0.47-0.99-0.86-1.65-1.18c-0.67-0.32-1.44-0.47-2.3-0.47c-0.87,0-1.63,0.16-2.3,0.47c-0.67,0.32-1.22,0.71-1.65,1.18
	c-0.77,0.83-1.26,1.83-1.5,2.98c-0.23,1.15-0.35,2.34-0.35,3.58c0,1.23,0.12,2.42,0.35,3.58c0.24,1.15,0.74,2.14,1.5,2.97
	c0.43,0.47,0.98,0.86,1.65,1.18c0.67,0.32,1.43,0.48,2.3,0.48c0.87,0,1.64-0.16,2.3-0.48c0.67-0.32,1.22-0.7,1.65-1.18
	c0.76-0.83,1.26-1.82,1.5-2.97C137.33,45.07,137.45,43.87,137.45,42.64"/>
<path class="st1" d="M177.83,55.65V39.49c0-1.6-0.28-2.84-0.83-3.73c-0.54-0.88-1.61-1.33-3.17-1.33c-0.9,0-1.67,0.21-2.31,0.63
	c-0.63,0.42-1.16,0.97-1.57,1.65c-0.42,0.68-0.73,1.45-0.93,2.28c-0.2,0.84-0.3,1.65-0.3,2.45v14.21h-6.21V39.49
	c0-1.6-0.27-2.84-0.83-3.73c-0.55-0.88-1.61-1.33-3.17-1.33c-0.9,0-1.67,0.21-2.3,0.63c-0.64,0.42-1.17,0.97-1.6,1.65
	c-0.43,0.68-0.75,1.45-0.95,2.28c-0.2,0.84-0.3,1.65-0.3,2.45v14.21h-6.2V29.63h5.2l0.5,3.45c0.73-1.2,1.72-2.18,2.95-2.95
	c1.23-0.77,2.72-1.15,4.45-1.15c1.83,0,3.37,0.37,4.6,1.13c1.24,0.75,2.19,1.79,2.85,3.12c0.77-1.36,1.83-2.41,3.18-3.15
	c1.35-0.73,2.91-1.1,4.68-1.1c2.8,0,4.92,0.85,6.33,2.52c1.42,1.69,2.13,3.88,2.13,6.58v17.56H177.83z"/>
<path class="st1" d="M212.86,42.59c0,5.17-1.55,9.04-4.66,11.61c-0.8,0.67-1.73,1.18-2.78,1.55c-1.05,0.37-2.24,0.54-3.57,0.54
	c-1.58,0-2.95-0.24-4.13-0.72c-1.18-0.48-2.07-1.1-2.68-1.83v11.86h-6.25V29.63h5.4l0.4,2.85c0.77-1.2,1.82-2.08,3.15-2.63
	c1.33-0.55,2.72-0.83,4.15-0.83c1.3,0,2.48,0.2,3.52,0.6c1.05,0.4,1.98,0.93,2.78,1.61c1.57,1.26,2.73,2.85,3.51,4.78
	C212.47,37.93,212.86,40.12,212.86,42.59 M206.5,42.69c0-1.13-0.11-2.26-0.33-3.38c-0.22-1.12-0.65-2.11-1.33-2.98
	c-0.47-0.57-1.04-1.05-1.73-1.45c-0.68-0.4-1.51-0.6-2.48-0.6c-1.24,0-2.23,0.26-3,0.78c-0.77,0.52-1.37,1.18-1.8,2
	c-0.43,0.82-0.72,1.72-0.88,2.73c-0.15,1-0.23,1.97-0.23,2.9c0,0.94,0.08,1.9,0.23,2.88c0.15,0.98,0.45,1.88,0.88,2.7
	c0.44,0.82,1.03,1.49,1.8,2c0.77,0.52,1.77,0.78,3,0.78c0.97,0,1.79-0.2,2.48-0.6c0.68-0.4,1.26-0.89,1.73-1.45
	c0.67-0.86,1.11-1.85,1.33-2.95C206.4,44.94,206.5,43.82,206.5,42.69"/>
<path class="st1" d="M231.42,35.39c-0.77-0.16-1.48-0.25-2.15-0.25c-2.2,0-3.87,0.7-5,2.1c-1.14,1.41-1.7,3.16-1.7,5.26v13.15h-6.36
	V29.63h5.35l0.56,3.87c0.6-1.48,1.6-2.56,2.98-3.22c1.38-0.66,2.85-0.99,4.38-0.99c0.67,0,1.32,0.04,1.95,0.14V35.39z"/>
<path class="st1" d="M254.94,42.64c0,2.2-0.27,4.04-0.8,5.53c-0.54,1.49-1.29,2.84-2.25,4.07c-0.9,1.11-2.14,2.05-3.73,2.86
	c-1.59,0.8-3.38,1.2-5.38,1.2c-2,0-3.79-0.4-5.37-1.2c-1.59-0.8-2.83-1.75-3.73-2.86c-0.97-1.23-1.72-2.59-2.25-4.07
	c-0.53-1.48-0.8-3.33-0.8-5.53c0-2.2,0.27-4.04,0.8-5.53c0.53-1.49,1.29-2.85,2.25-4.08c0.9-1.1,2.14-2.05,3.73-2.85
	c1.58-0.8,3.37-1.2,5.37-1.2c2,0,3.8,0.4,5.38,1.2c1.58,0.8,2.83,1.75,3.73,2.85c0.97,1.23,1.72,2.59,2.25,4.08
	C254.67,38.6,254.94,40.44,254.94,42.64 M248.59,42.64c0-1.24-0.12-2.43-0.35-3.58c-0.24-1.15-0.74-2.15-1.51-2.98
	c-0.43-0.47-0.99-0.86-1.65-1.18c-0.67-0.32-1.43-0.47-2.3-0.47c-0.87,0-1.63,0.16-2.3,0.47c-0.67,0.32-1.22,0.71-1.65,1.18
	c-0.77,0.83-1.27,1.83-1.5,2.98c-0.23,1.15-0.35,2.34-0.35,3.58c0,1.23,0.12,2.42,0.35,3.58c0.23,1.15,0.73,2.14,1.5,2.97
	c0.44,0.47,0.99,0.86,1.65,1.18c0.67,0.32,1.43,0.48,2.3,0.48c0.87,0,1.64-0.16,2.3-0.48c0.67-0.32,1.22-0.7,1.65-1.18
	c0.77-0.83,1.27-1.82,1.51-2.97C248.47,45.07,248.59,43.87,248.59,42.64"/>
<path class="st1" d="M288.97,55.65V39.49c0-1.6-0.28-2.84-0.82-3.73c-0.55-0.88-1.61-1.33-3.18-1.33c-0.9,0-1.67,0.21-2.31,0.63
	c-0.63,0.42-1.15,0.97-1.57,1.65c-0.42,0.68-0.73,1.45-0.92,2.28c-0.2,0.84-0.3,1.65-0.3,2.45v14.21h-6.21V39.49
	c0-1.6-0.27-2.84-0.83-3.73c-0.55-0.88-1.61-1.33-3.18-1.33c-0.9,0-1.67,0.21-2.3,0.63c-0.63,0.42-1.17,0.97-1.6,1.65
	c-0.43,0.68-0.75,1.45-0.94,2.28c-0.21,0.84-0.31,1.65-0.31,2.45v14.21h-6.2V29.63h5.2l0.51,3.45c0.73-1.2,1.71-2.18,2.95-2.95
	c1.23-0.77,2.72-1.15,4.45-1.15c1.83,0,3.37,0.37,4.6,1.13c1.24,0.75,2.19,1.79,2.85,3.12c0.77-1.36,1.82-2.41,3.17-3.15
	c1.35-0.73,2.91-1.1,4.68-1.1c2.8,0,4.92,0.85,6.33,2.52c1.42,1.69,2.13,3.88,2.13,6.58v17.56H288.97z"/>
<path class="st1" d="M299.02,27.23l-1.8-3.01l8.21-6.35l2.5,4.2L299.02,27.23z M300.03,29.63h6.35v26.02h-6.35V29.63z"/>
<path class="st1" d="M331.8,47.59c0,1.27-0.21,2.37-0.62,3.31c-0.42,0.93-0.96,1.73-1.63,2.4c-1.07,1.07-2.37,1.84-3.9,2.3
	c-1.54,0.47-3.2,0.7-5.01,0.7c-1.67,0-3.22-0.24-4.65-0.72c-1.44-0.48-2.69-1.24-3.75-2.28c-0.77-0.74-1.42-1.62-1.95-2.65
	c-0.54-1.03-0.8-2.16-0.8-3.4h5.86c0,0.56,0.13,1.13,0.4,1.7c0.27,0.56,0.6,1.02,1,1.35c0.5,0.4,1.06,0.69,1.68,0.88
	c0.62,0.19,1.37,0.28,2.27,0.28c0.53,0,1.11-0.04,1.73-0.13c0.61-0.08,1.19-0.24,1.72-0.47c0.54-0.24,0.97-0.57,1.32-1
	c0.35-0.43,0.53-1,0.53-1.7c0-0.77-0.23-1.38-0.7-1.86c-0.46-0.46-1.1-0.77-1.9-0.9c-1.17-0.16-2.37-0.31-3.6-0.43
	c-1.23-0.11-2.43-0.31-3.6-0.58c-0.9-0.2-1.71-0.52-2.42-0.95c-0.72-0.43-1.35-0.95-1.88-1.57c-0.53-0.62-0.94-1.3-1.23-2.05
	c-0.29-0.75-0.43-1.54-0.43-2.37c0-1.33,0.26-2.48,0.75-3.43c0.5-0.95,1.13-1.76,1.9-2.43c0.97-0.83,2.12-1.48,3.46-1.93
	c1.33-0.45,2.82-0.67,4.45-0.67c1.57,0,3.08,0.25,4.53,0.75c1.45,0.5,2.66,1.27,3.62,2.3c0.7,0.76,1.26,1.61,1.67,2.53
	c0.42,0.92,0.63,1.85,0.63,2.82h-5.96c0-0.5-0.1-0.95-0.3-1.35c-0.2-0.4-0.45-0.77-0.75-1.1c-0.37-0.36-0.86-0.66-1.48-0.88
	c-0.62-0.22-1.26-0.32-1.93-0.32c-0.47,0-0.92,0.02-1.35,0.05c-0.43,0.03-0.89,0.14-1.35,0.34c-0.57,0.24-1.04,0.59-1.42,1.05
	c-0.38,0.47-0.58,1.04-0.58,1.7c0,0.94,0.33,1.58,0.98,1.93c0.65,0.35,1.33,0.57,2.03,0.67c0.6,0.07,1.11,0.13,1.5,0.18
	c0.4,0.05,0.8,0.1,1.2,0.15c0.4,0.05,0.82,0.11,1.25,0.18c0.43,0.06,0.97,0.14,1.6,0.25c2.07,0.33,3.77,1.12,5.1,2.38
	C331.13,43.86,331.8,45.52,331.8,47.59"/>
<path class="st2" d="M376.57,48.04c0,1.04-0.19,2.05-0.58,3.01c-0.39,0.97-1,1.79-1.85,2.46c-0.94,0.77-1.99,1.27-3.13,1.49
	c-1.14,0.22-2.31,0.34-3.5,0.34h-9.35V28.92h9.35c0.99,0,1.99,0.09,2.98,0.28c0.99,0.19,1.91,0.57,2.76,1.14
	c0.84,0.57,1.51,1.31,1.99,2.22c0.48,0.91,0.73,1.86,0.73,2.86c0,1.44-0.32,2.73-0.97,3.86c-0.65,1.13-1.73,1.91-3.24,2.33
	c1.64,0.4,2.85,1.19,3.63,2.38C376.18,45.18,376.57,46.53,376.57,48.04 M374,35.57c0-0.92-0.19-1.7-0.56-2.32
	c-0.37-0.62-0.87-1.12-1.48-1.5c-0.61-0.37-1.31-0.64-2.09-0.79c-0.78-0.15-1.58-0.22-2.37-0.22h-7.43v9.91h7.43
	c0.92,0,1.77-0.07,2.56-0.21c0.79-0.14,1.47-0.39,2.06-0.76c0.58-0.38,1.04-0.89,1.38-1.55C373.83,37.47,374,36.61,374,35.57
	 M374.6,47.88c0-1.09-0.19-1.99-0.56-2.68c-0.37-0.69-0.88-1.24-1.53-1.64s-1.4-0.68-2.26-0.84c-0.86-0.16-1.77-0.24-2.74-0.24
	h-7.43v11.03h7.43c0.9,0,1.77-0.08,2.63-0.24c0.86-0.16,1.62-0.45,2.28-0.86c0.66-0.41,1.19-0.98,1.59-1.71
	C374.39,49.96,374.6,49.02,374.6,47.88"/>
<path class="st2" d="M395.5,46.02c0,1.59-0.2,3.01-0.6,4.25c-0.4,1.24-1.08,2.35-2.05,3.32c-0.65,0.65-1.42,1.18-2.33,1.6
	c-0.91,0.42-1.94,0.63-3.11,0.63c-1.17,0-2.2-0.21-3.11-0.63c-0.91-0.42-1.68-0.96-2.33-1.6c-0.97-0.97-1.65-2.07-2.05-3.32
	c-0.4-1.24-0.6-2.66-0.6-4.25c0-1.59,0.2-3,0.6-4.25c0.4-1.24,1.08-2.35,2.05-3.32c0.65-0.65,1.42-1.18,2.33-1.6
	c0.91-0.42,1.94-0.63,3.11-0.63c1.17,0,2.2,0.21,3.11,0.63c0.91,0.42,1.68,0.96,2.33,1.6c0.97,0.97,1.65,2.07,2.05,3.32
	C395.3,43.01,395.5,44.43,395.5,46.02 M393.6,46.02c0-1.22-0.14-2.36-0.41-3.43c-0.27-1.07-0.83-2.04-1.68-2.91
	c-0.5-0.5-1.08-0.89-1.75-1.19c-0.67-0.3-1.45-0.45-2.35-0.45c-0.89,0-1.68,0.15-2.35,0.45c-0.67,0.3-1.26,0.69-1.75,1.19
	c-0.85,0.87-1.4,1.84-1.68,2.91c-0.27,1.07-0.41,2.21-0.41,3.43c0,1.22,0.14,2.36,0.41,3.43c0.27,1.07,0.83,2.04,1.68,2.91
	c0.5,0.5,1.08,0.89,1.75,1.19c0.67,0.3,1.45,0.45,2.35,0.45c0.89,0,1.68-0.15,2.35-0.45c0.67-0.3,1.25-0.69,1.75-1.19
	c0.84-0.87,1.4-1.84,1.68-2.91C393.46,48.38,393.6,47.24,393.6,46.02"/>
<path class="st2" d="M412.6,55.33V43.15c0-1.64-0.37-2.9-1.11-3.78c-0.74-0.88-1.96-1.32-3.66-1.32c-1.14,0-2.1,0.22-2.89,0.67
	c-0.79,0.45-1.43,1.04-1.91,1.79c-0.48,0.75-0.83,1.6-1.04,2.55c-0.21,0.96-0.32,1.94-0.32,2.96v9.31h-1.9V36.7h1.68l0.22,3.39
	c0.27-0.6,0.63-1.13,1.06-1.6c0.43-0.47,0.93-0.88,1.49-1.21c0.56-0.33,1.16-0.6,1.8-0.78c0.64-0.19,1.29-0.28,1.93-0.28
	c2.15,0,3.78,0.61,4.88,1.82c1.1,1.22,1.65,2.88,1.65,4.99v12.3H412.6z"/>
<path class="st2" d="M429.66,38.53c-0.3-0.07-0.6-0.12-0.91-0.15c-0.31-0.02-0.61-0.04-0.91-0.04c-1.17,0-2.13,0.23-2.89,0.71
	c-0.76,0.47-1.36,1.09-1.81,1.86c-0.45,0.77-0.76,1.64-0.95,2.6c-0.18,0.97-0.28,1.93-0.28,2.9v8.92h-1.9V36.7h1.68l0.22,3.76
	c0.42-1.29,1.19-2.27,2.29-2.94c1.1-0.67,2.32-1,3.63-1c0.3,0,0.6,0.01,0.91,0.02c0.31,0.01,0.62,0.04,0.91,0.09V38.53z"/>
<path class="st2" d="M446.88,45.24c0,0.22-0.01,0.43-0.02,0.62c-0.01,0.18-0.02,0.39-0.02,0.62h-14.23
	c0.03,1.09,0.21,2.11,0.54,3.06c0.33,0.95,0.8,1.79,1.4,2.5c0.52,0.62,1.15,1.1,1.88,1.45c0.73,0.35,1.61,0.52,2.63,0.52
	c1.66,0,3.02-0.55,4.06-1.64c0.35-0.35,0.64-0.73,0.88-1.15c0.24-0.42,0.42-0.92,0.54-1.49h1.94c-0.12,0.79-0.37,1.52-0.74,2.18
	c-0.37,0.66-0.82,1.24-1.34,1.73c-0.67,0.68-1.46,1.22-2.37,1.61c-0.91,0.39-1.9,0.59-2.96,0.59c-1.34,0-2.5-0.25-3.46-0.74
	c-0.97-0.5-1.79-1.13-2.46-1.9c-0.77-0.89-1.36-1.94-1.77-3.15c-0.41-1.2-0.61-2.52-0.61-3.93c0-1.19,0.12-2.35,0.37-3.46
	c0.25-1.12,0.73-2.17,1.45-3.17c1.59-2.16,3.7-3.24,6.33-3.24c1.27,0,2.39,0.25,3.37,0.74c0.98,0.5,1.81,1.16,2.5,1.99
	c0.68,0.83,1.21,1.79,1.57,2.89C446.7,42.94,446.88,44.07,446.88,45.24 M444.98,44.75c-0.03-0.89-0.17-1.75-0.45-2.55
	c-0.27-0.81-0.67-1.53-1.19-2.16c-0.52-0.63-1.15-1.14-1.9-1.51c-0.75-0.37-1.59-0.56-2.53-0.56c-0.97,0-1.84,0.18-2.61,0.54
	c-0.77,0.36-1.42,0.85-1.96,1.47c-0.54,0.62-0.95,1.34-1.25,2.16c-0.3,0.82-0.45,1.69-0.45,2.61H444.98z"/>
<path class="st2" d="M466.99,45.98c0,1.54-0.24,3.01-0.71,4.4c-0.47,1.39-1.2,2.56-2.19,3.5c-0.62,0.6-1.34,1.07-2.17,1.42
	c-0.83,0.35-1.79,0.52-2.88,0.52c-0.67,0-1.32-0.09-1.95-0.26c-0.63-0.17-1.22-0.42-1.77-0.75c-0.54-0.32-1.03-0.71-1.47-1.16
	c-0.43-0.45-0.77-0.93-1.02-1.45v10.58h-1.9V36.7h1.68l0.22,3.28c0.25-0.57,0.59-1.09,1.04-1.57c0.45-0.47,0.94-0.87,1.49-1.19
	c0.55-0.32,1.13-0.57,1.77-0.74c0.63-0.17,1.26-0.26,1.88-0.26c1.07,0,2,0.15,2.81,0.46c0.81,0.31,1.52,0.74,2.14,1.29
	c1.04,0.92,1.81,2.08,2.3,3.48C466.75,42.86,466.99,44.37,466.99,45.98 M465.1,46.02c0-1.34-0.19-2.59-0.58-3.76
	c-0.39-1.17-1.01-2.14-1.88-2.9c-0.47-0.42-1.01-0.74-1.6-0.97c-0.59-0.22-1.29-0.34-2.08-0.34c-0.82,0-1.54,0.14-2.16,0.41
	c-0.62,0.27-1.16,0.63-1.63,1.08c-0.84,0.82-1.45,1.78-1.82,2.89c-0.37,1.1-0.56,2.3-0.56,3.59c0,1.39,0.17,2.63,0.52,3.71
	c0.35,1.08,0.95,2.02,1.82,2.81c0.47,0.45,1.02,0.8,1.65,1.06c0.63,0.26,1.38,0.39,2.25,0.39s1.62-0.15,2.27-0.45
	c0.64-0.3,1.21-0.69,1.71-1.19c0.72-0.8,1.24-1.75,1.58-2.87C464.93,48.37,465.1,47.21,465.1,46.02"/>
<path class="st2" d="M485.77,46.02c0,1.59-0.2,3.01-0.6,4.25c-0.4,1.24-1.08,2.35-2.05,3.32c-0.64,0.65-1.42,1.18-2.33,1.6
	c-0.91,0.42-1.94,0.63-3.11,0.63c-1.17,0-2.21-0.21-3.11-0.63c-0.91-0.42-1.68-0.96-2.33-1.6c-0.97-0.97-1.65-2.07-2.05-3.32
	c-0.4-1.24-0.6-2.66-0.6-4.25s0.2-3.01,0.6-4.25c0.4-1.24,1.08-2.35,2.05-3.32c0.65-0.64,1.42-1.18,2.33-1.6
	c0.91-0.42,1.94-0.63,3.11-0.63c1.17,0,2.2,0.21,3.11,0.63c0.91,0.42,1.68,0.96,2.33,1.6c0.97,0.97,1.65,2.08,2.05,3.32
	C485.57,43.02,485.77,44.43,485.77,46.02 M483.87,46.02c0-1.22-0.14-2.36-0.41-3.43c-0.27-1.07-0.83-2.04-1.68-2.91
	c-0.5-0.5-1.08-0.89-1.75-1.19c-0.67-0.3-1.45-0.45-2.35-0.45c-0.89,0-1.68,0.15-2.35,0.45c-0.67,0.3-1.25,0.7-1.75,1.19
	c-0.84,0.87-1.4,1.84-1.68,2.91c-0.27,1.07-0.41,2.21-0.41,3.43c0,1.22,0.14,2.36,0.41,3.43c0.27,1.07,0.83,2.04,1.68,2.91
	c0.5,0.5,1.08,0.89,1.75,1.19c0.67,0.3,1.45,0.45,2.35,0.45c0.89,0,1.68-0.15,2.35-0.45c0.67-0.3,1.25-0.69,1.75-1.19
	c0.84-0.87,1.4-1.84,1.68-2.91C483.74,48.38,483.87,47.24,483.87,46.02 M480.33,34.21l-6.26-3.69l1.01-1.64l5.89,4.32L480.33,34.21z
	"/>
<path class="st2" d="M503.36,50.15c0,1.32-0.42,2.46-1.27,3.43c-0.67,0.74-1.53,1.3-2.59,1.68c-1.06,0.37-2.21,0.56-3.45,0.56
	c-1.27,0-2.42-0.2-3.46-0.61c-1.04-0.41-1.93-1.01-2.65-1.81c-0.52-0.6-0.9-1.18-1.14-1.75c-0.24-0.57-0.38-1.24-0.43-2.01h1.9
	c0.1,1.09,0.56,2.05,1.38,2.87c0.55,0.52,1.19,0.9,1.94,1.14c0.74,0.24,1.56,0.36,2.46,0.36c0.97,0,1.83-0.11,2.57-0.34
	c0.74-0.22,1.35-0.57,1.83-1.04c0.35-0.35,0.6-0.69,0.76-1.04c0.16-0.35,0.24-0.79,0.24-1.34c0-0.84-0.29-1.58-0.88-2.21
	c-0.58-0.63-1.43-1.02-2.55-1.17l-3.62-0.48c-0.77-0.1-1.53-0.28-2.29-0.56c-0.76-0.27-1.4-0.71-1.92-1.3
	c-0.69-0.82-1.04-1.8-1.04-2.94c0-0.74,0.14-1.42,0.43-2.03c0.28-0.61,0.68-1.13,1.17-1.58c0.67-0.62,1.45-1.07,2.33-1.34
	c0.88-0.27,1.81-0.41,2.78-0.41c1.12,0,2.17,0.18,3.17,0.54c0.99,0.36,1.81,0.91,2.46,1.66c0.42,0.5,0.76,1.05,1.01,1.64
	c0.25,0.6,0.39,1.19,0.41,1.79h-1.86c-0.05-0.3-0.14-0.66-0.28-1.08c-0.14-0.42-0.36-0.81-0.65-1.15c-0.42-0.5-0.99-0.89-1.72-1.19
	c-0.72-0.3-1.56-0.45-2.53-0.45c-1.44,0-2.56,0.29-3.35,0.86c-0.97,0.7-1.45,1.55-1.45,2.57c0,0.79,0.25,1.47,0.74,2.01
	c0.5,0.55,1.45,0.92,2.87,1.12l3.54,0.48c0.87,0.12,1.63,0.35,2.27,0.69c0.64,0.34,1.18,0.74,1.6,1.21
	c0.42,0.47,0.74,0.99,0.95,1.55C503.25,49.02,503.36,49.58,503.36,50.15"/>
<path class="st2" d="M514.02,28.92h2.61v2.61h-2.61V28.92z M514.35,36.7h1.97v18.63h-1.97V36.7z"/>
<polygon class="st2" points="552.13,55.33 552.13,31.71 542.48,54.96 540.77,54.96 531.12,31.9 531.12,55.33 529.22,55.33
	529.22,28.92 531.94,28.92 541.7,52.39 551.27,28.92 554.03,28.92 554.03,55.33 "/>
<path class="st2" d="M560.1,28.92h2.61v2.61h-2.61V28.92z M560.44,36.7h1.97v18.63h-1.97V36.7z"/>
<path class="st2" d="M578.1,38.53c-0.3-0.07-0.6-0.12-0.91-0.15c-0.31-0.02-0.61-0.04-0.91-0.04c-1.17,0-2.13,0.23-2.89,0.71
	c-0.76,0.47-1.36,1.09-1.81,1.86c-0.45,0.77-0.76,1.64-0.95,2.6c-0.18,0.97-0.28,1.93-0.28,2.9v8.92h-1.9V36.7h1.68l0.22,3.76
	c0.42-1.29,1.19-2.27,2.29-2.94c1.1-0.67,2.32-1,3.63-1c0.3,0,0.6,0.01,0.91,0.02c0.31,0.01,0.61,0.04,0.91,0.09V38.53z"/>
<path class="st2" d="M596.25,55.34c-0.22,0.05-0.37,0.08-0.45,0.09c-0.08,0.01-0.22,0.02-0.45,0.02c-1.15,0-1.94-0.36-2.36-1.08
	c-0.42-0.72-0.63-1.58-0.63-2.57c-0.25,0.67-0.6,1.25-1.06,1.75c-0.46,0.5-0.99,0.91-1.58,1.25c-0.6,0.34-1.24,0.59-1.94,0.77
	c-0.7,0.17-1.4,0.26-2.12,0.26c-0.89,0-1.73-0.13-2.51-0.39c-0.78-0.26-1.47-0.64-2.05-1.14c-0.58-0.5-1.04-1.1-1.36-1.81
	c-0.32-0.71-0.49-1.51-0.49-2.4c0-1.66,0.58-2.98,1.73-3.93c1.16-0.96,2.67-1.49,4.53-1.62l6.86-0.49v-1.82
	c0-1.54-0.46-2.63-1.39-3.28s-2.1-0.97-3.51-0.97c-1.48,0-2.72,0.33-3.71,1.01c-0.99,0.67-1.53,1.7-1.63,3.09h-1.9
	c0.08-0.94,0.31-1.78,0.69-2.5c0.39-0.72,0.9-1.33,1.53-1.83c0.63-0.5,1.38-0.88,2.24-1.14c0.86-0.26,1.79-0.39,2.78-0.39
	c0.65,0,1.29,0.06,1.92,0.17c0.64,0.11,1.24,0.31,1.81,0.58c0.57,0.27,1.08,0.63,1.53,1.06c0.45,0.43,0.8,0.98,1.05,1.62
	c0.22,0.57,0.36,1.15,0.41,1.75c0.05,0.6,0.08,1.21,0.08,1.83v8.5c0,0.65,0.08,1.14,0.24,1.49c0.16,0.35,0.56,0.52,1.21,0.52
	c0.22,0,0.4-0.01,0.52-0.04V55.34z M592.37,45.76l-6.67,0.41c-1.39,0.1-2.5,0.49-3.32,1.17c-0.82,0.68-1.23,1.6-1.23,2.74
	c0,1.34,0.44,2.35,1.32,3.02c0.88,0.67,1.99,1.01,3.33,1.01c1.17,0,2.17-0.22,3-0.65c0.83-0.43,1.51-1,2.03-1.69
	c0.52-0.7,0.91-1.48,1.16-2.37c0.25-0.88,0.37-1.77,0.37-2.66V45.76z"/>
<path class="st2" d="M623.93,55.33V43.15c0-1.61-0.34-2.88-1.01-3.8c-0.67-0.92-1.81-1.38-3.43-1.38c-0.72,0-1.35,0.11-1.88,0.34
	c-0.53,0.22-1.01,0.53-1.43,0.93c-0.72,0.7-1.27,1.51-1.64,2.46c-0.37,0.94-0.56,1.97-0.56,3.09v10.54h-1.9V43.15
	c0-1.61-0.34-2.88-1.02-3.8c-0.68-0.92-1.82-1.38-3.43-1.38c-0.72,0-1.34,0.11-1.88,0.34c-0.53,0.22-1.01,0.53-1.43,0.93
	c-0.84,0.79-1.42,1.79-1.74,2.98c-0.32,1.19-0.48,2.46-0.48,3.8v9.31h-1.9V36.7h1.68l0.22,3.2c0.49-1.07,1.23-1.95,2.19-2.65
	c0.97-0.69,2.12-1.04,3.46-1.04c1.64,0,2.93,0.37,3.88,1.1c0.95,0.73,1.62,1.71,1.99,2.92c0.5-1.17,1.24-2.13,2.22-2.89
	c0.98-0.76,2.25-1.13,3.79-1.13c1.1,0,2.04,0.17,2.82,0.5c0.78,0.34,1.43,0.81,1.93,1.42c0.5,0.61,0.86,1.33,1.1,2.16
	c0.24,0.83,0.35,1.74,0.35,2.74v12.3H623.93z"/>
<path class="st2" d="M647.36,46.06c0,1.62-0.25,3.12-0.74,4.53c-0.49,1.4-1.26,2.56-2.3,3.48c-0.62,0.55-1.33,0.98-2.14,1.29
	c-0.8,0.31-1.74,0.47-2.81,0.47c-0.62,0-1.24-0.09-1.88-0.26c-0.63-0.17-1.22-0.42-1.77-0.75c-0.54-0.32-1.04-0.72-1.49-1.19
	c-0.45-0.47-0.79-0.99-1.04-1.56l-0.23,3.28h-1.67v-26.9h1.9l-0.04,11.4c0.25-0.52,0.59-1.01,1.02-1.45
	c0.43-0.45,0.93-0.83,1.47-1.16c0.55-0.32,1.14-0.57,1.77-0.74c0.63-0.17,1.29-0.26,1.96-0.26c1.09,0,2.05,0.17,2.89,0.52
	c0.83,0.35,1.56,0.82,2.18,1.41c0.99,0.95,1.73,2.11,2.2,3.5C647.13,43.05,647.36,44.52,647.36,46.06 M645.47,46.02
	c0-1.19-0.17-2.35-0.5-3.46c-0.34-1.12-0.86-2.07-1.58-2.87c-0.5-0.5-1.07-0.89-1.71-1.19c-0.64-0.3-1.4-0.45-2.27-0.45
	s-1.62,0.13-2.25,0.39c-0.63,0.26-1.18,0.61-1.65,1.06c-0.87,0.8-1.47,1.73-1.82,2.81c-0.35,1.08-0.52,2.32-0.52,3.71
	c0,1.29,0.19,2.49,0.56,3.6c0.37,1.11,0.98,2.07,1.82,2.89c0.47,0.45,1.01,0.81,1.63,1.08c0.62,0.27,1.34,0.41,2.16,0.41
	c0.79,0,1.49-0.11,2.08-0.34c0.59-0.22,1.13-0.55,1.6-0.97c0.87-0.77,1.49-1.74,1.88-2.91C645.27,48.62,645.47,47.36,645.47,46.02"
	/>
<path class="st2" d="M666.11,45.24c0,0.22-0.01,0.43-0.02,0.62c-0.01,0.18-0.02,0.39-0.02,0.62h-14.23
	c0.03,1.09,0.21,2.11,0.54,3.06c0.33,0.95,0.8,1.79,1.4,2.5c0.52,0.62,1.15,1.1,1.88,1.45c0.73,0.35,1.61,0.52,2.63,0.52
	c1.67,0,3.02-0.55,4.06-1.64c0.35-0.35,0.64-0.73,0.88-1.15c0.24-0.42,0.41-0.92,0.54-1.49h1.94c-0.12,0.79-0.37,1.52-0.74,2.18
	c-0.37,0.66-0.82,1.24-1.34,1.73c-0.67,0.68-1.46,1.22-2.37,1.61c-0.91,0.39-1.9,0.59-2.96,0.59c-1.34,0-2.5-0.25-3.46-0.74
	c-0.97-0.5-1.79-1.13-2.46-1.9c-0.77-0.89-1.36-1.94-1.77-3.15c-0.41-1.2-0.61-2.52-0.61-3.93c0-1.19,0.12-2.35,0.37-3.46
	c0.25-1.12,0.73-2.17,1.45-3.17c1.59-2.16,3.7-3.24,6.33-3.24c1.27,0,2.39,0.25,3.37,0.74c0.98,0.5,1.81,1.16,2.5,1.99
	c0.68,0.83,1.21,1.79,1.57,2.89C665.92,42.94,666.11,44.07,666.11,45.24 M664.21,44.75c-0.03-0.89-0.17-1.75-0.45-2.55
	c-0.27-0.81-0.67-1.53-1.19-2.16c-0.52-0.63-1.15-1.14-1.9-1.51c-0.75-0.37-1.59-0.56-2.54-0.56c-0.97,0-1.84,0.18-2.61,0.54
	c-0.77,0.36-1.42,0.85-1.96,1.47c-0.53,0.62-0.95,1.34-1.25,2.16c-0.3,0.82-0.45,1.69-0.45,2.61H664.21z"/>
<path class="st2" d="M675.49,55.33c-0.2,0.05-0.43,0.1-0.69,0.15c-0.26,0.05-0.59,0.08-0.99,0.08c-1.19,0-2.12-0.32-2.78-0.95
	c-0.66-0.63-0.99-1.63-0.99-3V28.43h1.9V51.5c0,0.64,0.12,1.18,0.37,1.6c0.25,0.42,0.77,0.63,1.57,0.63h0.88
	c0.21,0,0.45-0.02,0.73-0.08V55.33z"/>
<path class="st2" d="M684.4,55.33c-0.2,0.05-0.43,0.1-0.69,0.15c-0.26,0.05-0.59,0.08-0.99,0.08c-1.19,0-2.12-0.32-2.77-0.95
	c-0.66-0.63-0.99-1.63-0.99-3V28.43h1.9V51.5c0,0.64,0.12,1.18,0.37,1.6c0.25,0.42,0.77,0.63,1.57,0.63h0.88
	c0.21,0,0.45-0.02,0.73-0.08V55.33z"/>
<line class="st3" x1="344.98" y1="15.65" x2="344.98" y2="68.38"/>
<rect x="5.76" y="67.91" class="st4" width="705.28" height="0.95"/>
<line class="st5" x1="6.23" y1="15.65" x2="710.57" y2="15.65"/>
<line class="st5" x1="13.39" y1="55.47" x2="15.76" y2="55.47"/>
<path class="st4" d="M698.32,54.99h5.66v0.95h-5.66V54.99z M688.9,54.99h5.66v0.95h-5.66V54.99z M679.48,54.99h5.66v0.95h-5.66
	V54.99z M670.05,54.99h5.66v0.95h-5.66V54.99z M660.63,54.99h5.66v0.95h-5.66V54.99z M651.21,54.99h5.66v0.95h-5.66V54.99z
	 M641.79,54.99h5.66v0.95h-5.66V54.99z M632.37,54.99h5.66v0.95h-5.66V54.99z M622.95,54.99h5.66v0.95h-5.66V54.99z M613.53,54.99
	h5.66v0.95h-5.66V54.99z M604.11,54.99h5.66v0.95h-5.66V54.99z M594.69,54.99h5.66v0.95h-5.66V54.99z M585.27,54.99h5.66v0.95h-5.66
	V54.99z M575.84,54.99h5.66v0.95h-5.66V54.99z M566.42,54.99h5.66v0.95h-5.66V54.99z M557,54.99h5.66v0.95H557V54.99z M547.58,54.99
	h5.66v0.95h-5.66V54.99z M538.16,54.99h5.66v0.95h-5.66V54.99z M528.74,54.99h5.66v0.95h-5.66V54.99z M519.32,54.99h5.66v0.95h-5.66
	V54.99z M509.9,54.99h5.66v0.95h-5.66V54.99z M500.48,54.99h5.66v0.95h-5.66V54.99z M491.05,54.99h5.66v0.95h-5.66V54.99z
	 M481.63,54.99h5.66v0.95h-5.66V54.99z M472.21,54.99h5.66v0.95h-5.66V54.99z M462.79,54.99h5.66v0.95h-5.66V54.99z M453.37,54.99
	h5.66v0.95h-5.66V54.99z M443.95,54.99h5.66v0.95h-5.66V54.99z M434.53,54.99h5.66v0.95h-5.66V54.99z M425.11,54.99h5.66v0.95h-5.66
	V54.99z M415.69,54.99h5.66v0.95h-5.66V54.99z M406.27,54.99h5.66v0.95h-5.66V54.99z M396.84,54.99h5.66v0.95h-5.66V54.99z
	 M387.42,54.99h5.66v0.95h-5.66V54.99z M378,54.99h5.66v0.95H378V54.99z M368.58,54.99h5.66v0.95h-5.66V54.99z M359.16,54.99h5.66
	v0.95h-5.66V54.99z M349.74,54.99h5.66v0.95h-5.66V54.99z M340.32,54.99h5.66v0.95h-5.66V54.99z M330.9,54.99h5.66v0.95h-5.66V54.99
	z M321.48,54.99h5.66v0.95h-5.66V54.99z M312.05,54.99h5.66v0.95h-5.66V54.99z M302.63,54.99h5.66v0.95h-5.66V54.99z M293.21,54.99
	h5.66v0.95h-5.66V54.99z M283.79,54.99h5.66v0.95h-5.66V54.99z M274.37,54.99h5.66v0.95h-5.66V54.99z M264.95,54.99h5.66v0.95h-5.66
	V54.99z M255.53,54.99h5.66v0.95h-5.66V54.99z M246.11,54.99h5.66v0.95h-5.66V54.99z M236.68,54.99h5.66v0.95h-5.66V54.99z
	 M227.26,54.99h5.66v0.95h-5.66V54.99z M217.84,54.99h5.66v0.95h-5.66V54.99z M208.42,54.99h5.66v0.95h-5.66V54.99z M199,54.99h5.66
	v0.95H199V54.99z M189.58,54.99h5.66v0.95h-5.66V54.99z M180.16,54.99h5.66v0.95h-5.66V54.99z M170.74,54.99h5.66v0.95h-5.66V54.99z
	 M161.32,54.99h5.66v0.95h-5.66V54.99z M151.9,54.99h5.66v0.95h-5.66V54.99z M142.47,54.99h5.66v0.95h-5.66V54.99z M133.05,54.99
	h5.66v0.95h-5.66V54.99z M123.63,54.99h5.66v0.95h-5.66V54.99z M114.21,54.99h5.66v0.95h-5.66V54.99z M104.79,54.99h5.66v0.95h-5.66
	V54.99z M95.37,54.99h5.66v0.95h-5.66V54.99z M85.95,54.99h5.66v0.95h-5.66V54.99z M76.53,54.99h5.66v0.95h-5.66V54.99z M67.1,54.99
	h5.66v0.95H67.1V54.99z M57.68,54.99h5.66v0.95h-5.66V54.99z M48.26,54.99h5.66v0.95h-5.66V54.99z M38.84,54.99h5.66v0.95h-5.66
	V54.99z M29.42,54.99h5.66v0.95h-5.66V54.99z M20,54.99h5.66v0.95H20V54.99z"/>
<line class="st5" x1="708.2" y1="55.47" x2="710.57" y2="55.47"/>
<line class="st5" x1="13.39" y1="28.87" x2="15.76" y2="28.87"/>
<line class="st6" x1="20.47" y1="28.87" x2="705.84" y2="28.87"/>
<line class="st5" x1="708.2" y1="28.87" x2="710.57" y2="28.87"/>
<rect x="299.56" y="41.23" class="st4" width="0.95" height="47.98"/>
<rect x="305.91" y="41.23" class="st4" width="0.95" height="47.98"/>
<rect x="294.08" y="82.58" class="st4" width="18.74" height="0.95"/>
<rect class="st7" width="728.5" height="103.33"/>
<g>
	<defs>
		<rect id="SVGID_4_" x="300.03" y="55.65" width="6.35" height="27.4"/>
	</defs>
	<clipPath id="SVGID_5_">
		<use xlink:href="#SVGID_4_"  style="overflow:visible;"/>
	</clipPath>
	<path class="st8" d="M305.91,68.86h-5.4v13.72h5.4V68.86z M302.63,55.65h-2.13v12.26h5.4V55.94h-3.27V55.65"/>
	<rect x="300.5" y="67.91" class="st9" width="5.4" height="0.95"/>
	<rect x="302.63" y="55.65" class="st9" width="3.27" height="0.29"/>
	<polygon class="st9" points="300.5,55.65 300.03,55.65 300.03,82.58 300.5,82.58 300.5,68.86 300.5,67.91 	"/>
	<polygon class="st9" points="306.38,55.65 305.91,55.65 305.91,55.94 305.91,67.91 305.91,68.86 305.91,82.58 306.38,82.58 	"/>
	<polygon class="st9" points="306.38,82.58 305.91,82.58 300.5,82.58 300.03,82.58 300.03,83.05 306.38,83.05 	"/>
</g>
<g>
	<path class="st10" d="M305.42,98.31c-0.38,0.41-1.02,0.62-1.69,0.62h-2.71v-6.72h2.68c0.63,0,1.27,0.21,1.64,0.62
		c0.27,0.29,0.44,0.63,0.44,1.12c0,0.64-0.34,1.26-0.97,1.49c0.69,0.23,1.12,0.91,1.12,1.62C305.93,97.59,305.72,98,305.42,98.31z
		 M303.71,92.96h-1.86v2.11h1.89c0.7,0,1.18-0.31,1.18-1.06C304.92,93.31,304.35,92.96,303.71,92.96z M303.75,95.81h-1.9v2.34h1.89
		c0.74,0,1.34-0.36,1.34-1.16C305.07,96.24,304.47,95.81,303.75,95.81z"/>
</g>
<g>
	<defs>
		<rect id="SVGID_6_" width="728.5" height="103.33"/>
	</defs>
	<clipPath id="SVGID_7_">
		<use xlink:href="#SVGID_6_"  style="overflow:visible;"/>
	</clipPath>
	<rect x="82.85" y="41.23" class="st11" width="0.95" height="47.91"/>
	<rect x="95.09" y="22.27" class="st11" width="0.95" height="66.87"/>
	<rect x="21.45" y="82.51" class="st11" width="80.72" height="0.95"/>
</g>
<g>
	<defs>
		<rect id="SVGID_8_" x="83.32" y="55.87" width="12.24" height="27.11"/>
	</defs>
	<clipPath id="SVGID_9_">
		<use xlink:href="#SVGID_8_"  style="overflow:visible;"/>
	</clipPath>
	<path class="st12" d="M95.09,68.86H83.79v13.65h11.29V68.86z M95.09,55.87h-3.48v0.07h-5.66v-0.07h-2.15v12.04h11.29V55.87"/>
	<rect x="83.79" y="67.91" class="st13" width="11.29" height="0.95"/>
	<rect x="85.95" y="55.87" class="st13" width="5.66" height="0.07"/>
	<polygon class="st13" points="83.79,55.87 83.32,55.87 83.32,82.51 83.79,82.51 83.79,68.86 83.79,67.91 	"/>
	<polygon class="st13" points="95.56,55.87 95.09,55.87 95.09,67.91 95.09,68.86 95.09,82.51 95.56,82.51 	"/>
	<polygon class="st13" points="95.56,82.51 95.09,82.51 83.79,82.51 83.32,82.51 83.32,82.98 95.56,82.98 	"/>
</g>
<g>
	<defs>
		<rect id="SVGID_10_" width="728.5" height="103.33"/>
	</defs>
	<clipPath id="SVGID_11_">
		<use xlink:href="#SVGID_10_"  style="overflow:visible;"/>
	</clipPath>
	<line class="st14" x1="331.8" y1="41.7" x2="331.8" y2="88.67"/>
	<line class="st14" x1="358.16" y1="41.7" x2="358.16" y2="88.67"/>
	<line class="st14" x1="344.98" y1="41.7" x2="344.98" y2="88.67"/>
	<line class="st14" x1="326.47" y1="82.98" x2="363.59" y2="82.98"/>
</g>
<g>
	<path class="st10" d="M712.72,25.43v-0.69l2.66-3.29c0.25-0.31,0.36-0.61,0.36-0.95c0-0.67-0.39-1.06-1.08-1.06
		c-0.59,0-1.12,0.32-1.12,1.19h-0.83c0-1.15,0.78-1.92,1.94-1.92c0.72,0,1.28,0.29,1.61,0.76c0.2,0.28,0.3,0.61,0.3,1.02
		c0,0.52-0.2,0.96-0.56,1.4l-2.24,2.78h2.9v0.76H712.72z"/>
	<path class="st10" d="M721.94,24.82c-0.38,0.41-1.02,0.62-1.69,0.62h-2.71v-6.72h2.68c0.63,0,1.27,0.21,1.64,0.62
		c0.27,0.29,0.44,0.63,0.44,1.12c0,0.64-0.34,1.26-0.97,1.49c0.69,0.23,1.12,0.91,1.12,1.62C722.45,24.1,722.23,24.5,721.94,24.82z
		 M720.22,19.46h-1.86v2.11h1.89c0.7,0,1.18-0.31,1.18-1.06C721.43,19.81,720.86,19.46,720.22,19.46z M720.27,22.32h-1.9v2.34h1.89
		c0.74,0,1.34-0.36,1.34-1.16C721.59,22.75,720.98,22.32,720.27,22.32z"/>
</g>
<g>
	<path class="st10" d="M716.16,44.37v1.4h-0.81v-1.4h-3.02v-0.84l2.5-4.34h0.85l-2.58,4.45h2.25v-1.96h0.81v1.96h0.89v0.73H716.16z"
		/>
	<path class="st10" d="M721.94,45.16c-0.38,0.41-1.02,0.62-1.69,0.62h-2.71v-6.72h2.68c0.63,0,1.27,0.21,1.64,0.62
		c0.27,0.29,0.44,0.63,0.44,1.12c0,0.64-0.34,1.26-0.97,1.49c0.69,0.23,1.12,0.91,1.12,1.62C722.45,44.44,722.23,44.84,721.94,45.16
		z M720.22,39.8h-1.86v2.11h1.89c0.7,0,1.18-0.31,1.18-1.06C721.43,40.15,720.86,39.8,720.22,39.8z M720.27,42.66h-1.9V45h1.89
		c0.74,0,1.34-0.36,1.34-1.16C721.59,43.09,720.98,42.66,720.27,42.66z"/>
</g>
<g>
	<path class="st10" d="M333.63,98.93v-0.69l2.66-3.29c0.25-0.31,0.36-0.61,0.36-0.95c0-0.67-0.39-1.06-1.08-1.06
		c-0.59,0-1.12,0.32-1.12,1.19h-0.83c0-1.15,0.78-1.92,1.94-1.92c0.72,0,1.28,0.29,1.61,0.76c0.2,0.28,0.3,0.61,0.3,1.02
		c0,0.52-0.2,0.96-0.56,1.4l-2.24,2.78h2.9v0.76H333.63z"/>
	<path class="st10" d="M342.85,98.31c-0.38,0.41-1.02,0.62-1.69,0.62h-2.71v-6.72h2.68c0.63,0,1.27,0.21,1.64,0.62
		c0.27,0.29,0.44,0.63,0.44,1.12c0,0.64-0.34,1.26-0.97,1.49c0.69,0.23,1.12,0.91,1.12,1.62C343.37,97.59,343.15,98,342.85,98.31z
		 M341.14,92.96h-1.86v2.11h1.89c0.7,0,1.18-0.31,1.18-1.06C342.35,93.31,341.78,92.96,341.14,92.96z M341.19,95.81h-1.9v2.34h1.89
		c0.74,0,1.34-0.36,1.34-1.16C342.5,96.24,341.9,95.81,341.19,95.81z"/>
</g>
<g>
	<path class="st10" d="M346.82,98.93v-0.69l2.66-3.29c0.25-0.31,0.36-0.61,0.36-0.95c0-0.67-0.39-1.06-1.08-1.06
		c-0.59,0-1.12,0.32-1.12,1.19h-0.83c0-1.15,0.78-1.92,1.94-1.92c0.72,0,1.28,0.29,1.61,0.76c0.2,0.28,0.3,0.61,0.3,1.02
		c0,0.52-0.2,0.96-0.56,1.4l-2.24,2.78h2.9v0.76H346.82z"/>
	<path class="st10" d="M356.04,98.31c-0.38,0.41-1.02,0.62-1.69,0.62h-2.71v-6.72h2.68c0.63,0,1.27,0.21,1.64,0.62
		c0.27,0.29,0.44,0.63,0.44,1.12c0,0.64-0.34,1.26-0.97,1.49c0.69,0.23,1.12,0.91,1.12,1.62C356.55,97.59,356.33,98,356.04,98.31z
		 M354.32,92.96h-1.86v2.11h1.89c0.7,0,1.18-0.31,1.18-1.06C355.54,93.31,354.97,92.96,354.32,92.96z M354.37,95.81h-1.9v2.34h1.89
		c0.74,0,1.34-0.36,1.34-1.16C355.69,96.24,355.08,95.81,354.37,95.81z"/>
</g>
<g>
	<path class="st10" d="M84.68,98.93v-0.69l2.66-3.29c0.25-0.31,0.36-0.61,0.36-0.95c0-0.67-0.39-1.06-1.08-1.06
		c-0.59,0-1.12,0.32-1.12,1.19h-0.83c0-1.15,0.78-1.92,1.94-1.92c0.72,0,1.28,0.29,1.61,0.76c0.2,0.28,0.3,0.61,0.3,1.02
		c0,0.52-0.2,0.96-0.56,1.4l-2.24,2.78h2.9v0.76H84.68z"/>
	<path class="st10" d="M93.89,98.31c-0.38,0.41-1.02,0.62-1.69,0.62H89.5v-6.72h2.68c0.63,0,1.27,0.21,1.64,0.62
		c0.27,0.29,0.44,0.63,0.44,1.12c0,0.64-0.34,1.26-0.97,1.49c0.69,0.23,1.12,0.91,1.12,1.62C94.41,97.59,94.19,98,93.89,98.31z
		 M92.18,92.96h-1.86v2.11h1.89c0.7,0,1.18-0.31,1.18-1.06C93.39,93.31,92.82,92.96,92.18,92.96z M92.23,95.81h-1.9v2.34h1.89
		c0.74,0,1.34-0.36,1.34-1.16C93.54,96.24,92.94,95.81,92.23,95.81z"/>
</g>
<g>
	<defs>
		<rect id="SVGID_12_" width="728.5" height="103.33"/>
	</defs>
	<clipPath id="SVGID_13_">
		<use xlink:href="#SVGID_12_"  style="overflow:visible;"/>
	</clipPath>
	<line class="st15" x1="28.08" y1="41.7" x2="28.08" y2="88.67"/>
</g>
<g>
	<path class="st10" d="M57.76,98.93l-0.55-1.59h-2.92l-0.54,1.59h-0.85l2.37-6.72h0.99l2.38,6.72H57.76z M55.74,93.05l-1.18,3.49
		h2.38L55.74,93.05z"/>
</g>
<g>
	<path class="st10" d="M6.89,45.77l-0.55-1.59H3.42l-0.54,1.59H2.03l2.37-6.72h0.99l2.38,6.72H6.89z M4.87,39.9l-1.18,3.49h2.38
		L4.87,39.9z"/>
</g>
<g>
	<defs>
		<rect id="SVGID_14_" width="728.5" height="103.33"/>
	</defs>
	<clipPath id="SVGID_15_">
		<use xlink:href="#SVGID_14_"  style="overflow:visible;"/>
	</clipPath>
	<line class="st16" x1="699.83" y1="5.69" x2="699.83" y2="79.59"/>
	<line class="st16" x1="13.39" y1="5.69" x2="13.39" y2="79.59"/>
</g>
<g>
	<path class="st10" d="M712.72,65.6v-0.69l2.66-3.29c0.25-0.31,0.36-0.61,0.36-0.95c0-0.67-0.39-1.06-1.08-1.06
		c-0.59,0-1.12,0.32-1.12,1.19h-0.83c0-1.15,0.78-1.92,1.94-1.92c0.72,0,1.28,0.29,1.61,0.76c0.2,0.28,0.3,0.61,0.3,1.02
		c0,0.52-0.2,0.96-0.56,1.4l-2.24,2.78h2.9v0.76H712.72z"/>
	<path class="st10" d="M721.94,64.98c-0.38,0.41-1.02,0.62-1.69,0.62h-2.71v-6.72h2.68c0.63,0,1.27,0.21,1.64,0.62
		c0.27,0.29,0.44,0.63,0.44,1.12c0,0.64-0.34,1.26-0.97,1.49c0.69,0.23,1.12,0.91,1.12,1.62C722.45,64.26,722.23,64.67,721.94,64.98
		z M720.22,59.63h-1.86v2.11h1.89c0.7,0,1.18-0.31,1.18-1.06C721.43,59.98,720.86,59.63,720.22,59.63z M720.27,62.48h-1.9v2.34h1.89
		c0.74,0,1.34-0.36,1.34-1.16C721.59,62.92,720.98,62.48,720.27,62.48z"/>
</g>
</svg>
