<svg version="1.1" xmlns="http://www.w3.org/2000/svg" xmlns:xlink="http://www.w3.org/1999/xlink" x="0px" y="0px"
	 width="373.49px" height="105.9px" viewBox="0 0 373.49 105.9" style="enable-background:new 0 0 373.49 105.9;"
	 xml:space="preserve">
<style type="text/css">
	.st0{clip-path:url(#SVGID_2_);fill:url(#SVGID_3_);}
	.st1{fill:#27292E;}
	.st2{fill:#898E91;}
	.st3{fill:none;stroke:#12ACE3;stroke-width:0.585;stroke-linecap:square;stroke-miterlimit:10;}
	.st4{fill:#12ACE3;}
	.st5{fill:none;stroke:#12ACE3;stroke-width:0.585;stroke-linecap:square;stroke-miterlimit:10;stroke-dasharray:2.919,2.919;}
	.st6{fill:none;}
	.st7{clip-path:url(#SVGID_5_);fill:#CCE4F6;}
	.st8{clip-path:url(#SVGID_5_);fill:#34454F;}
	.st9{clip-path:url(#SVGID_5_);fill:#7A96A4;}
	.st10{clip-path:url(#SVGID_5_);fill:#0FACE3;}
	.st11{fill:#18171C;}
	.st12{clip-path:url(#SVGID_7_);fill:#12ACE3;}
	.st13{clip-path:url(#SVGID_9_);fill:#CCE4F6;}
	.st14{clip-path:url(#SVGID_9_);fill:#0FACE3;}
	.st15{clip-path:url(#SVGID_11_);fill:none;stroke:#12ACE3;stroke-width:0.585;stroke-linecap:square;stroke-miterlimit:10;}
	.st16{clip-path:url(#SVGID_13_);fill:none;stroke:#12ACE3;stroke-width:0.585;stroke-linecap:square;stroke-miterlimit:10;}
	.st17{clip-path:url(#SVGID_15_);fill:none;stroke:#12ACE3;stroke-width:0.585;stroke-linecap:square;stroke-miterlimit:10;}
	.st18{clip-path:url(#SVGID_17_);fill:url(#SVGID_18_);}
	.st19{clip-path:url(#SVGID_20_);fill:#CCE4F6;}
	.st20{clip-path:url(#SVGID_20_);fill:#34454F;}
	.st21{clip-path:url(#SVGID_20_);fill:#7A96A4;}
	.st22{clip-path:url(#SVGID_20_);fill:#0FACE3;}
	.st23{clip-path:url(#SVGID_22_);fill:#12ACE3;}
	.st24{clip-path:url(#SVGID_24_);fill:#CCE4F6;}
	.st25{clip-path:url(#SVGID_24_);fill:#0FACE3;}
	.st26{clip-path:url(#SVGID_26_);fill:none;stroke:#12ACE3;stroke-width:0.585;stroke-linecap:square;stroke-miterlimit:10;}
	.st27{clip-path:url(#SVGID_28_);fill:none;stroke:#12ACE3;stroke-width:0.585;stroke-linecap:square;stroke-miterlimit:10;}
	.st28{clip-path:url(#SVGID_30_);fill:none;stroke:#12ACE3;stroke-width:0.585;stroke-linecap:square;stroke-miterlimit:10;}
</style>
<defs>
</defs>
<g>
	<defs>
		<path id="SVGID_1_" d="M38.21,47.71h3.5v0.58h-3.5V47.71z M44.05,47.71h3.5v0.58h-3.5V47.71z M49.89,47.71h3.5v0.58h-3.5V47.71z
			 M67.4,47.71h3.5v0.58h-3.5V47.71z M73.24,47.71h3.5v0.58h-3.5V47.71z M79.08,47.71h3.5v0.58h-3.5V47.71z M77.57,38.65l2.04,2.61
			c-0.04,0.03-0.08,0.06-0.11,0.1c-0.01,0.01-0.02,0.02-0.03,0.03c-0.03,0.02-0.06,0.05-0.08,0.07c-0.01,0.01-0.02,0.02-0.04,0.03
			c-0.03,0.02-0.06,0.05-0.08,0.07c-0.01,0.01-0.02,0.02-0.04,0.03c-0.03,0.03-0.07,0.05-0.1,0.08c-0.01,0-0.01,0.01-0.02,0.01
			c-0.04,0.03-0.08,0.06-0.12,0.1c-0.01,0-0.01,0.01-0.02,0.01c-0.03,0.03-0.07,0.05-0.1,0.08c-0.01,0.01-0.02,0.02-0.03,0.02
			c-0.03,0.02-0.06,0.05-0.09,0.07c-0.01,0.01-0.02,0.02-0.03,0.03c-0.03,0.02-0.07,0.05-0.1,0.07c-0.01,0.01-0.01,0.01-0.02,0.02
			c-0.08,0.06-0.16,0.12-0.24,0.18c-0.01,0-0.01,0.01-0.02,0.01c-0.04,0.03-0.07,0.05-0.1,0.08c-0.01,0.01-0.02,0.01-0.02,0.02
			c-0.04,0.03-0.07,0.05-0.11,0.08c0,0-0.01,0.01-0.01,0.01c-0.12,0.09-0.25,0.18-0.38,0.27c0,0-0.01,0.01-0.01,0.01
			c-0.04,0.03-0.08,0.05-0.11,0.08c0,0-0.01,0.01-0.01,0.01c-0.17,0.12-0.34,0.24-0.51,0.35c0,0,0,0,0,0
			c-3.66,2.47-7.66,3.99-12.2,4.54h0.2v0.58h-3.5v-0.36c-0.05,0-0.1,0-0.15,0c-0.01,0-0.02,0-0.02,0c-0.04,0-0.08,0-0.12,0
			c-0.02,0-0.04,0-0.06,0c-0.03,0-0.06,0-0.09,0c-0.05,0-0.11,0-0.16,0c-0.05,0-0.1,0-0.15,0c-0.01,0-0.03,0-0.04,0
			c-0.05,0-0.1,0-0.14,0c-0.01,0-0.03,0-0.04,0c-0.04,0-0.07,0-0.11,0c-0.02,0-0.04,0-0.06,0c-0.04,0-0.08,0-0.12,0
			c-0.02,0-0.05,0-0.08,0c-0.02,0-0.04,0-0.06,0c-0.31-0.01-0.62-0.02-0.93-0.03v0.4h-3.5v-0.58h1.31
			c-4.54-0.55-8.54-2.08-12.2-4.54c0,0,0,0-0.01,0c-0.04-0.03-0.08-0.06-0.13-0.09l0,0c-0.13-0.09-0.26-0.18-0.38-0.27
			c0,0,0,0-0.01-0.01c-0.04-0.03-0.08-0.06-0.12-0.08c0,0-0.01,0-0.01-0.01c-0.13-0.09-0.25-0.18-0.38-0.27c0,0-0.01,0-0.01-0.01
			c-0.04-0.03-0.07-0.05-0.11-0.08c-0.01-0.01-0.01-0.01-0.02-0.02c-0.04-0.03-0.07-0.05-0.11-0.08c0,0-0.01-0.01-0.01-0.01
			c-0.08-0.06-0.16-0.12-0.25-0.19c0,0-0.01,0-0.01-0.01c-0.04-0.03-0.07-0.06-0.11-0.08c-0.01-0.01-0.02-0.01-0.03-0.02
			c-0.03-0.02-0.06-0.05-0.09-0.07c-0.01-0.01-0.02-0.02-0.03-0.02c-0.03-0.03-0.07-0.05-0.1-0.08c-0.01,0-0.01-0.01-0.01-0.01
			c-0.04-0.03-0.08-0.06-0.12-0.1c0,0-0.01-0.01-0.01-0.01c-0.04-0.03-0.07-0.06-0.11-0.08c-0.01-0.01-0.02-0.02-0.03-0.03
			c-0.03-0.02-0.06-0.04-0.08-0.07c-0.01-0.01-0.02-0.02-0.04-0.03c-0.03-0.02-0.06-0.05-0.09-0.07c-0.01-0.01-0.02-0.02-0.03-0.02
			c-0.04-0.03-0.08-0.06-0.12-0.1l2.04-2.61c5.27,3.75,9.58,5.47,16.61,5.47C67.99,44.12,72.3,42.4,77.57,38.65 M50.85,22.28h5.81
			v5.54h-5.35c-3.35,0-5.54-0.81-6.96-4.05l2.23-1.28c1,2.05,2.23,2.53,4.27,2.53V22.28z M65.05,22.28h5.81v5.54h-5.81V22.28z
			 M35.44,7.8c-1.43,0-2.6,1.11-2.6,2.48v37.43h3.04v0.58h-3.04v10.09c0,0.01,0,0.03,0,0.04c0,0,0,0.01,0,0.01c0,0.01,0,0.02,0,0.03
			c0,0,0,0.01,0,0.01c0,0.01,0,0.03,0,0.04c0,0,0,0.01,0,0.01c0,0.01,0,0.02,0,0.03c0,0,0,0.01,0,0.01c0,0.01,0,0.03,0,0.04
			c0,0,0,0,0,0.01c0,0.01,0,0.02,0,0.03c0,0,0,0.01,0,0.01c0,0.01,0,0.02,0,0.03c0,0,0,0.01,0,0.01c0,0.01,0,0.03,0.01,0.04
			c0,0,0,0.01,0,0.01c0,0.01,0,0.02,0.01,0.03c0,0,0,0.01,0,0.01c0,0.01,0,0.02,0.01,0.04c0,0,0,0.01,0,0.01
			c0,0.01,0,0.02,0.01,0.03c0,0,0,0.01,0,0.01c0,0.01,0,0.02,0.01,0.03c0,0,0,0,0,0.01c0,0.01,0.01,0.02,0.01,0.04
			c0,0,0,0.01,0,0.01c0,0.01,0,0.02,0.01,0.03c0,0,0,0.01,0,0.01c0,0.01,0.01,0.02,0.01,0.04c0,0,0,0.01,0,0.01
			c0,0.01,0.01,0.02,0.01,0.03c0,0,0,0.01,0,0.01c0,0.01,0.01,0.02,0.01,0.03c0,0,0,0.01,0,0.01c0,0.01,0.01,0.02,0.01,0.03
			c0,0,0,0.01,0,0.01c0,0.01,0.01,0.02,0.01,0.02c0,0,0,0.01,0,0.01c0,0.01,0.01,0.02,0.01,0.03c0,0,0,0.01,0,0.01
			c0,0.01,0.01,0.02,0.01,0.02c0,0.01,0,0.01,0.01,0.02c0,0.01,0.01,0.02,0.01,0.03c0,0.01,0,0.01,0.01,0.02
			c0,0.01,0.01,0.01,0.01,0.02c0,0.01,0,0.01,0.01,0.01c0,0.01,0.01,0.02,0.01,0.02c0,0,0,0.01,0,0.01
			c0.01,0.01,0.01,0.02,0.02,0.03c0,0.01,0.01,0.01,0.01,0.02c0,0.01,0.01,0.01,0.01,0.02c0,0,0,0.01,0.01,0.01
			c0.01,0.01,0.01,0.02,0.02,0.03c0,0.01,0.01,0.01,0.01,0.01c0,0.01,0.01,0.01,0.01,0.02c0,0,0.01,0.01,0.01,0.01
			c0,0.01,0.01,0.01,0.01,0.02c0,0.01,0.01,0.01,0.01,0.02c0,0.01,0.01,0.02,0.01,0.02c0,0.01,0.01,0.01,0.01,0.01
			c0,0.01,0.01,0.01,0.01,0.02c0,0,0.01,0.01,0.01,0.01c0.01,0.01,0.01,0.02,0.02,0.03c0,0,0.01,0.01,0.01,0.01
			c0,0.01,0.01,0.01,0.01,0.02c0,0.01,0.01,0.01,0.01,0.02c0,0.01,0.01,0.01,0.01,0.01c0.01,0.01,0.01,0.02,0.02,0.03
			c0,0,0.01,0.01,0.01,0.01c0,0.01,0.01,0.01,0.01,0.02s0.01,0.01,0.01,0.01c0.01,0.02,0.03,0.04,0.04,0.06c0,0,0.01,0.01,0.01,0.01
			c0,0.01,0.01,0.01,0.01,0.02c0,0,0,0,0.01,0.01c0.01,0.01,0.02,0.02,0.03,0.04c0,0,0,0.01,0.01,0.01
			c0.01,0.01,0.01,0.01,0.02,0.02c0,0,0,0,0.01,0.01c0.02,0.02,0.04,0.04,0.06,0.06c0,0,0,0,0,0c0.21,0.22,0.47,0.41,0.75,0.55H87
			c0.2-0.1,0.39-0.22,0.55-0.36l0,0c0.01-0.01,0.03-0.02,0.04-0.04c0,0,0,0,0,0c0.01-0.01,0.01-0.01,0.02-0.02
			c0,0,0.01-0.01,0.01-0.01c0.01-0.01,0.02-0.02,0.03-0.03c0,0,0.01-0.01,0.01-0.01c0.01,0,0.01-0.01,0.02-0.01
			c0-0.01,0.01-0.01,0.01-0.01c0.01-0.01,0.01-0.01,0.02-0.02c0.01-0.01,0.01-0.01,0.02-0.02c0,0,0.01-0.01,0.01-0.01
			c0.01-0.01,0.01-0.01,0.02-0.02c0,0,0.01-0.01,0.01-0.01c0.01-0.01,0.02-0.02,0.02-0.03c0,0,0.01-0.01,0.01-0.01
			c0.01-0.01,0.01-0.01,0.02-0.02c0,0,0.01-0.01,0.01-0.01c0.01-0.01,0.02-0.02,0.02-0.03c0,0,0.01-0.01,0.01-0.01
			c0.01-0.01,0.01-0.01,0.02-0.02c0,0,0.01-0.01,0.01-0.01c0.01-0.01,0.01-0.02,0.02-0.03c0-0.01,0.01-0.01,0.01-0.01
			c0-0.01,0.01-0.01,0.01-0.02c0.01-0.01,0.01-0.02,0.02-0.03c0,0,0.01-0.01,0.01-0.01c0-0.01,0.01-0.01,0.01-0.02
			c0,0,0-0.01,0.01-0.01c0.03-0.04,0.06-0.08,0.08-0.13V48.29h-3.16v-0.58h3.16v-0.7h0.36V10.28c0-1.37-1.17-2.48-2.6-2.48H35.44z"
			/>
	</defs>
	<clipPath id="SVGID_2_">
		<use xlink:href="#SVGID_1_"  style="overflow:visible;"/>
	</clipPath>

		<linearGradient id="SVGID_3_" gradientUnits="userSpaceOnUse" x1="-228.189" y1="375.591" x2="-227.189" y2="375.591" gradientTransform="matrix(0 53.6437 53.6437 0 -20087.4551 12248.4307)">
		<stop  offset="0" style="stop-color:#E18433"/>
		<stop  offset="0.2756" style="stop-color:#DE7833"/>
		<stop  offset="0.8103" style="stop-color:#D85933"/>
		<stop  offset="1" style="stop-color:#D54B32"/>
	</linearGradient>
	<rect x="32.84" y="7.8" class="st0" width="55.58" height="52.79"/>
</g>
<path class="st1" d="M123.7,38.2c-0.06,1.04-0.27,2.06-0.6,3.05c-0.34,0.99-0.81,1.87-1.41,2.64c-0.91,1.14-2.12,2.11-3.65,2.92
	c-1.53,0.8-3.3,1.21-5.31,1.21c-2.02,0-3.82-0.41-5.39-1.23c-1.58-0.83-2.82-1.79-3.73-2.9c-0.98-1.24-1.7-2.67-2.17-4.28
	c-0.47-1.61-0.7-3.37-0.7-5.29c0-1.91,0.23-3.68,0.7-5.28c0.47-1.61,1.19-3.04,2.17-4.28c0.91-1.11,2.15-2.07,3.73-2.89
	c1.57-0.82,3.37-1.24,5.39-1.24c2.01,0,3.78,0.41,5.31,1.21c1.53,0.81,2.74,1.78,3.65,2.92c0.6,0.77,1.07,1.66,1.41,2.64
	c0.33,0.99,0.54,2.01,0.6,3.04h-6.19c-0.03-0.46-0.12-0.89-0.25-1.29c-0.14-0.4-0.3-0.76-0.5-1.1c-0.37-0.56-0.89-1.03-1.56-1.39
	c-0.68-0.37-1.49-0.55-2.47-0.55c-0.88,0-1.62,0.15-2.25,0.45c-0.62,0.3-1.15,0.68-1.58,1.15c-0.78,0.83-1.26,1.84-1.46,3.01
	c-0.2,1.17-0.3,2.37-0.3,3.6c0,1.24,0.1,2.43,0.3,3.58c0.2,1.15,0.69,2.14,1.46,2.98c0.43,0.46,0.96,0.85,1.58,1.17
	c0.63,0.32,1.37,0.48,2.25,0.48c0.98,0,1.79-0.18,2.47-0.55c0.67-0.37,1.19-0.82,1.56-1.39c0.2-0.34,0.36-0.7,0.5-1.1
	c0.13-0.4,0.22-0.83,0.25-1.3H123.7z"/>
<path class="st1" d="M149.29,34.38c0,2.22-0.27,4.07-0.8,5.56c-0.54,1.49-1.29,2.86-2.27,4.1c-0.9,1.11-2.16,2.07-3.75,2.87
	c-1.6,0.8-3.4,1.21-5.42,1.21c-2.02,0-3.82-0.4-5.42-1.21c-1.59-0.81-2.84-1.76-3.75-2.87c-0.98-1.24-1.73-2.61-2.27-4.1
	c-0.54-1.49-0.81-3.35-0.81-5.56c0-2.22,0.27-4.07,0.81-5.56c0.54-1.5,1.29-2.87,2.27-4.11c0.9-1.11,2.15-2.06,3.75-2.87
	c1.6-0.8,3.4-1.21,5.42-1.21c2.01,0,3.82,0.4,5.42,1.21c1.59,0.81,2.84,1.76,3.75,2.87c0.98,1.24,1.73,2.61,2.27,4.11
	C149.02,30.31,149.29,32.16,149.29,34.38 M142.89,34.38c0-1.24-0.12-2.44-0.35-3.6c-0.24-1.16-0.74-2.16-1.51-2.99
	c-0.44-0.47-0.99-0.87-1.66-1.19c-0.67-0.32-1.44-0.48-2.32-0.48c-0.88,0-1.64,0.16-2.31,0.48c-0.67,0.32-1.23,0.72-1.66,1.19
	c-0.77,0.83-1.27,1.84-1.51,2.99c-0.23,1.16-0.35,2.36-0.35,3.6c0,1.24,0.12,2.44,0.35,3.6c0.24,1.16,0.74,2.15,1.51,2.99
	c0.44,0.48,0.99,0.87,1.66,1.18c0.67,0.32,1.44,0.48,2.31,0.48c0.87,0,1.65-0.16,2.32-0.48c0.67-0.32,1.23-0.71,1.66-1.18
	c0.77-0.84,1.27-1.83,1.51-2.99C142.77,36.82,142.89,35.61,142.89,34.38"/>
<path class="st1" d="M183.53,47.47V31.2c0-1.61-0.28-2.86-0.84-3.75c-0.55-0.89-1.62-1.34-3.19-1.34c-0.91,0-1.68,0.21-2.32,0.63
	c-0.63,0.42-1.16,0.97-1.58,1.66c-0.42,0.69-0.73,1.46-0.93,2.29c-0.2,0.85-0.3,1.66-0.3,2.47v14.3h-6.24V31.2
	c0-1.61-0.28-2.86-0.83-3.75c-0.55-0.89-1.62-1.34-3.2-1.34c-0.91,0-1.68,0.21-2.31,0.63c-0.64,0.42-1.18,0.97-1.61,1.66
	c-0.44,0.69-0.76,1.46-0.96,2.29c-0.2,0.85-0.3,1.66-0.3,2.47v14.3h-6.24V21.28h5.23l0.51,3.48c0.74-1.21,1.73-2.2,2.97-2.97
	c1.24-0.77,2.73-1.16,4.48-1.16c1.84,0,3.39,0.37,4.63,1.14c1.25,0.75,2.2,1.8,2.87,3.14c0.77-1.37,1.84-2.43,3.2-3.17
	c1.36-0.74,2.93-1.11,4.71-1.11c2.82,0,4.95,0.85,6.37,2.54c1.43,1.7,2.14,3.91,2.14,6.62v17.67H183.53z"/>
<path class="st1" d="M218.78,34.32c0,5.21-1.56,9.1-4.69,11.68c-0.81,0.67-1.74,1.19-2.79,1.56c-1.05,0.37-2.26,0.55-3.59,0.55
	c-1.58,0-2.97-0.24-4.16-0.73c-1.19-0.49-2.09-1.1-2.7-1.84v11.94h-6.29V21.28h5.44l0.4,2.87c0.77-1.21,1.83-2.09,3.17-2.65
	c1.34-0.55,2.74-0.83,4.18-0.83c1.31,0,2.49,0.2,3.55,0.6c1.06,0.4,1.99,0.94,2.79,1.62c1.58,1.27,2.75,2.87,3.53,4.81
	C218.39,29.63,218.78,31.84,218.78,34.32 M212.38,34.42c0-1.14-0.11-2.27-0.33-3.39c-0.22-1.12-0.66-2.12-1.33-3
	c-0.47-0.57-1.05-1.06-1.74-1.46c-0.69-0.4-1.52-0.61-2.49-0.61c-1.25,0-2.25,0.26-3.02,0.78c-0.77,0.52-1.37,1.19-1.81,2.01
	c-0.43,0.82-0.73,1.73-0.88,2.74c-0.15,1.01-0.23,1.98-0.23,2.92c0,0.94,0.08,1.91,0.23,2.9c0.15,0.99,0.45,1.89,0.88,2.71
	c0.44,0.82,1.04,1.5,1.81,2.02c0.77,0.52,1.78,0.78,3.02,0.78c0.98,0,1.8-0.21,2.49-0.61c0.69-0.4,1.27-0.89,1.74-1.46
	c0.68-0.87,1.12-1.86,1.33-2.97C212.27,36.69,212.38,35.57,212.38,34.42"/>
<path class="st1" d="M237.46,27.07c-0.77-0.16-1.49-0.25-2.17-0.25c-2.21,0-3.89,0.71-5.03,2.12c-1.14,1.42-1.71,3.18-1.71,5.3
	v13.23h-6.4V21.28h5.38l0.56,3.89c0.61-1.49,1.61-2.58,3-3.24c1.39-0.67,2.86-1,4.41-1c0.67,0,1.32,0.04,1.96,0.15V27.07z"/>
<path class="st1" d="M261.12,34.38c0,2.22-0.27,4.07-0.8,5.56c-0.54,1.49-1.29,2.86-2.27,4.1c-0.91,1.11-2.16,2.07-3.75,2.87
	c-1.6,0.8-3.4,1.21-5.42,1.21c-2.01,0-3.82-0.4-5.41-1.21c-1.6-0.81-2.85-1.76-3.76-2.87c-0.97-1.24-1.73-2.61-2.27-4.1
	c-0.53-1.49-0.8-3.35-0.8-5.56c0-2.22,0.27-4.07,0.8-5.56c0.53-1.5,1.29-2.87,2.27-4.11c0.91-1.11,2.16-2.06,3.76-2.87
	c1.59-0.8,3.39-1.21,5.41-1.21c2.02,0,3.82,0.4,5.42,1.21c1.59,0.81,2.84,1.76,3.75,2.87c0.97,1.24,1.73,2.61,2.27,4.11
	C260.85,30.31,261.12,32.16,261.12,34.38 M254.73,34.38c0-1.24-0.12-2.44-0.35-3.6c-0.24-1.16-0.74-2.16-1.51-2.99
	c-0.43-0.47-0.99-0.87-1.66-1.19c-0.67-0.32-1.44-0.48-2.32-0.48c-0.87,0-1.64,0.16-2.31,0.48c-0.67,0.32-1.22,0.72-1.66,1.19
	c-0.77,0.83-1.28,1.84-1.51,2.99c-0.23,1.16-0.36,2.36-0.36,3.6c0,1.24,0.12,2.44,0.36,3.6c0.24,1.16,0.74,2.15,1.51,2.99
	c0.44,0.48,0.99,0.87,1.66,1.18c0.67,0.32,1.44,0.48,2.31,0.48c0.88,0,1.65-0.16,2.32-0.48c0.67-0.32,1.23-0.71,1.66-1.18
	c0.77-0.84,1.28-1.83,1.51-2.99C254.61,36.82,254.73,35.61,254.73,34.38"/>
<path class="st1" d="M295.37,47.47V31.2c0-1.61-0.28-2.86-0.83-3.75c-0.55-0.89-1.62-1.34-3.2-1.34c-0.91,0-1.68,0.21-2.32,0.63
	c-0.63,0.42-1.16,0.97-1.58,1.66c-0.42,0.69-0.73,1.46-0.93,2.29c-0.2,0.85-0.3,1.66-0.3,2.47v14.3h-6.25V31.2
	c0-1.61-0.28-2.86-0.83-3.75c-0.55-0.89-1.62-1.34-3.2-1.34c-0.9,0-1.68,0.21-2.32,0.63c-0.64,0.42-1.18,0.97-1.61,1.66
	c-0.43,0.69-0.75,1.46-0.95,2.29c-0.21,0.85-0.31,1.66-0.31,2.47v14.3h-6.24V21.28h5.23l0.51,3.48c0.73-1.21,1.72-2.2,2.97-2.97
	c1.24-0.77,2.74-1.16,4.48-1.16c1.85,0,3.39,0.37,4.63,1.14c1.24,0.75,2.2,1.8,2.87,3.14c0.77-1.37,1.84-2.43,3.19-3.17
	c1.36-0.74,2.93-1.11,4.71-1.11c2.82,0,4.95,0.85,6.37,2.54c1.43,1.7,2.14,3.91,2.14,6.62v17.67H295.37z"/>
<path class="st1" d="M305.48,18.87l-1.81-3.02l8.26-6.39l2.51,4.23L305.48,18.87z M306.49,21.28h6.39v26.19h-6.39V21.28z"/>
<path class="st1" d="M338.47,39.36c0,1.28-0.21,2.39-0.63,3.33c-0.42,0.94-0.97,1.74-1.64,2.41c-1.08,1.08-2.38,1.85-3.93,2.32
	c-1.55,0.47-3.22,0.7-5.04,0.7c-1.68,0-3.24-0.24-4.68-0.73c-1.45-0.49-2.71-1.25-3.78-2.29c-0.77-0.74-1.43-1.63-1.96-2.67
	c-0.54-1.04-0.8-2.18-0.8-3.42h5.89c0,0.57,0.13,1.14,0.4,1.71c0.27,0.57,0.61,1.02,1.01,1.36c0.5,0.41,1.06,0.7,1.69,0.88
	c0.62,0.19,1.38,0.28,2.29,0.28c0.54,0,1.11-0.04,1.74-0.13c0.61-0.08,1.2-0.24,1.73-0.47c0.54-0.24,0.98-0.57,1.33-1.01
	c0.36-0.44,0.53-1.01,0.53-1.71c0-0.78-0.23-1.39-0.7-1.87c-0.47-0.47-1.11-0.77-1.91-0.9c-1.18-0.17-2.38-0.31-3.63-0.43
	c-1.24-0.11-2.45-0.31-3.62-0.58c-0.91-0.2-1.72-0.52-2.44-0.96c-0.72-0.43-1.35-0.96-1.89-1.58c-0.54-0.62-0.95-1.31-1.23-2.06
	c-0.29-0.75-0.43-1.55-0.43-2.39c0-1.34,0.26-2.49,0.76-3.45c0.5-0.96,1.14-1.77,1.91-2.44c0.98-0.84,2.14-1.48,3.48-1.94
	c1.34-0.45,2.84-0.68,4.48-0.68c1.58,0,3.1,0.25,4.56,0.75c1.46,0.51,2.67,1.28,3.64,2.32c0.71,0.77,1.27,1.62,1.69,2.55
	c0.42,0.92,0.63,1.87,0.63,2.84h-5.99c0-0.51-0.1-0.96-0.3-1.36c-0.2-0.4-0.45-0.77-0.75-1.11c-0.37-0.37-0.87-0.66-1.49-0.88
	c-0.62-0.22-1.27-0.33-1.94-0.33c-0.47,0-0.92,0.02-1.36,0.05c-0.44,0.03-0.89,0.14-1.36,0.35c-0.57,0.24-1.05,0.59-1.43,1.06
	c-0.38,0.47-0.58,1.04-0.58,1.71c0,0.95,0.33,1.59,0.98,1.95c0.66,0.35,1.34,0.58,2.04,0.68c0.6,0.07,1.11,0.12,1.51,0.18
	c0.4,0.05,0.81,0.1,1.2,0.15c0.41,0.05,0.83,0.11,1.26,0.18c0.44,0.07,0.98,0.15,1.61,0.25c2.08,0.33,3.79,1.13,5.14,2.39
	C337.79,35.61,338.47,37.28,338.47,39.36"/>
<path class="st2" d="M136.86,70.47c0,0.84-0.13,1.64-0.39,2.4c-0.26,0.76-0.66,1.4-1.2,1.92c-0.34,0.33-0.74,0.58-1.19,0.77
	c-0.45,0.19-0.98,0.29-1.58,0.29c-0.37,0-0.72-0.05-1.07-0.14c-0.35-0.1-0.67-0.23-0.96-0.41c-0.3-0.18-0.57-0.39-0.8-0.63
	c-0.24-0.24-0.42-0.51-0.56-0.8v5.79h-1.04V65.39h0.92l0.12,1.79c0.14-0.31,0.33-0.6,0.57-0.86c0.24-0.26,0.52-0.48,0.81-0.65
	c0.3-0.18,0.62-0.31,0.97-0.41c0.35-0.09,0.69-0.14,1.03-0.14c0.58,0,1.09,0.09,1.53,0.26c0.44,0.17,0.83,0.4,1.17,0.7
	c0.57,0.5,0.99,1.14,1.26,1.9C136.72,68.76,136.86,69.58,136.86,70.47 M135.82,70.49c0-0.73-0.11-1.42-0.32-2.06
	c-0.21-0.64-0.55-1.17-1.03-1.59c-0.26-0.23-0.55-0.41-0.87-0.53c-0.32-0.12-0.7-0.18-1.14-0.18c-0.45,0-0.84,0.08-1.18,0.22
	c-0.34,0.15-0.64,0.35-0.89,0.59c-0.46,0.45-0.79,0.98-1,1.58c-0.2,0.6-0.3,1.26-0.3,1.97c0,0.76,0.09,1.44,0.28,2.03
	s0.52,1.1,0.99,1.54c0.26,0.24,0.56,0.44,0.9,0.58s0.76,0.21,1.23,0.21c0.47,0,0.89-0.08,1.24-0.25c0.35-0.16,0.66-0.38,0.94-0.65
	c0.39-0.43,0.68-0.96,0.86-1.57C135.73,71.77,135.82,71.14,135.82,70.49"/>
<path class="st2" d="M147.11,70.06c0,0.12,0,0.23-0.01,0.34c-0.01,0.1-0.01,0.21-0.01,0.34h-7.79c0.01,0.59,0.11,1.15,0.3,1.67
	c0.18,0.52,0.44,0.98,0.76,1.37c0.28,0.34,0.63,0.6,1.03,0.79c0.4,0.19,0.88,0.28,1.44,0.28c0.91,0,1.65-0.3,2.22-0.9
	c0.19-0.19,0.35-0.4,0.48-0.63c0.13-0.23,0.23-0.5,0.29-0.81h1.06c-0.07,0.43-0.2,0.83-0.41,1.19c-0.2,0.36-0.45,0.68-0.73,0.95
	c-0.37,0.37-0.8,0.67-1.29,0.88s-1.04,0.32-1.62,0.32c-0.73,0-1.37-0.14-1.9-0.41c-0.53-0.27-0.98-0.62-1.35-1.04
	c-0.42-0.49-0.74-1.06-0.97-1.72c-0.22-0.66-0.34-1.38-0.34-2.15c0-0.65,0.07-1.28,0.2-1.9c0.14-0.61,0.4-1.19,0.79-1.73
	c0.87-1.18,2.03-1.77,3.46-1.77c0.69,0,1.31,0.14,1.85,0.41c0.54,0.27,0.99,0.64,1.36,1.09c0.37,0.45,0.66,0.98,0.86,1.58
	C147.01,68.8,147.11,69.42,147.11,70.06 M146.07,69.79c-0.01-0.49-0.1-0.95-0.25-1.4c-0.15-0.44-0.37-0.83-0.65-1.18
	c-0.29-0.35-0.63-0.62-1.04-0.83c-0.41-0.2-0.87-0.31-1.39-0.31c-0.53,0-1,0.1-1.43,0.3c-0.42,0.2-0.78,0.47-1.07,0.8
	c-0.29,0.34-0.52,0.73-0.68,1.18c-0.16,0.45-0.24,0.92-0.24,1.43H146.07z"/>
<path class="st2" d="M154.61,66.39c-0.16-0.04-0.33-0.07-0.5-0.08c-0.17-0.01-0.34-0.02-0.5-0.02c-0.64,0-1.17,0.13-1.58,0.39
	c-0.42,0.26-0.74,0.6-0.99,1.02c-0.24,0.42-0.42,0.9-0.52,1.42c-0.1,0.53-0.15,1.06-0.15,1.59v4.88h-1.04V65.39h0.92l0.12,2.06
	c0.23-0.71,0.65-1.24,1.25-1.61c0.61-0.37,1.27-0.55,1.99-0.55c0.16,0,0.33,0,0.5,0.01c0.17,0.01,0.34,0.02,0.5,0.05V66.39z"/>
<path class="st2" d="M170.1,71.59c0,0.57-0.11,1.12-0.32,1.65c-0.21,0.53-0.55,0.98-1.01,1.34c-0.52,0.42-1.09,0.69-1.71,0.81
	c-0.62,0.12-1.26,0.18-1.92,0.18h-5.12V61.13h5.12c0.54,0,1.09,0.05,1.63,0.15c0.54,0.1,1.05,0.31,1.51,0.62
	c0.46,0.31,0.83,0.72,1.09,1.21c0.26,0.5,0.4,1.02,0.4,1.56c0,0.79-0.18,1.49-0.53,2.11c-0.35,0.62-0.95,1.04-1.77,1.28
	c0.9,0.22,1.56,0.65,1.99,1.3C169.89,70.03,170.1,70.76,170.1,71.59 M168.7,64.77c0-0.5-0.1-0.93-0.31-1.27
	c-0.2-0.34-0.47-0.61-0.81-0.82c-0.33-0.21-0.72-0.35-1.15-0.43c-0.43-0.08-0.86-0.12-1.3-0.12h-4.07v5.42h4.07
	c0.51,0,0.97-0.04,1.4-0.11c0.43-0.08,0.8-0.21,1.12-0.42c0.32-0.2,0.57-0.49,0.76-0.85S168.7,65.34,168.7,64.77 M169.02,71.51
	c0-0.6-0.1-1.09-0.31-1.47c-0.2-0.38-0.48-0.68-0.84-0.9c-0.35-0.22-0.77-0.37-1.24-0.46c-0.47-0.09-0.97-0.13-1.5-0.13h-4.07v6.03
	h4.07c0.49,0,0.97-0.04,1.44-0.13c0.47-0.09,0.89-0.24,1.25-0.47s0.65-0.54,0.87-0.94C168.91,72.64,169.02,72.13,169.02,71.51"/>
<path class="st2" d="M180.46,70.49c0,0.87-0.11,1.65-0.33,2.32c-0.22,0.68-0.59,1.28-1.12,1.81c-0.35,0.35-0.78,0.65-1.27,0.88
	c-0.5,0.23-1.06,0.35-1.7,0.35c-0.64,0-1.21-0.12-1.7-0.35c-0.5-0.23-0.92-0.52-1.27-0.88c-0.53-0.53-0.9-1.13-1.12-1.81
	c-0.22-0.68-0.33-1.45-0.33-2.32c0-0.87,0.11-1.64,0.33-2.32c0.22-0.68,0.59-1.28,1.12-1.81c0.35-0.35,0.78-0.65,1.27-0.88
	c0.5-0.23,1.06-0.35,1.7-0.35c0.64,0,1.21,0.12,1.7,0.35c0.5,0.23,0.92,0.52,1.27,0.88c0.53,0.53,0.9,1.13,1.12,1.81
	C180.35,68.84,180.46,69.62,180.46,70.49 M179.42,70.49c0-0.67-0.08-1.29-0.22-1.88c-0.15-0.58-0.46-1.11-0.92-1.59
	c-0.27-0.27-0.59-0.49-0.96-0.65c-0.37-0.16-0.79-0.24-1.28-0.24c-0.49,0-0.92,0.08-1.28,0.24c-0.37,0.16-0.69,0.38-0.96,0.65
	c-0.46,0.48-0.77,1.01-0.92,1.59c-0.15,0.58-0.22,1.21-0.22,1.88c0,0.67,0.08,1.29,0.22,1.88c0.15,0.58,0.46,1.11,0.92,1.59
	c0.27,0.27,0.59,0.49,0.96,0.65c0.37,0.16,0.8,0.25,1.28,0.25c0.49,0,0.92-0.08,1.28-0.25c0.37-0.16,0.69-0.38,0.96-0.65
	c0.46-0.48,0.77-1.01,0.92-1.59C179.34,71.78,179.42,71.15,179.42,70.49"/>
<path class="st2" d="M189.81,75.58v-6.67c0-0.9-0.2-1.59-0.61-2.07c-0.4-0.48-1.07-0.72-2.01-0.72c-0.62,0-1.15,0.12-1.58,0.37
	c-0.43,0.24-0.78,0.57-1.04,0.98c-0.26,0.41-0.45,0.87-0.57,1.4c-0.11,0.52-0.17,1.06-0.17,1.62v5.1h-1.04V65.39h0.92l0.12,1.86
	c0.15-0.33,0.34-0.62,0.58-0.88c0.24-0.26,0.51-0.48,0.81-0.66c0.3-0.18,0.63-0.33,0.99-0.43c0.35-0.1,0.7-0.15,1.06-0.15
	c1.18,0,2.07,0.33,2.67,1c0.6,0.67,0.9,1.58,0.9,2.73v6.73H189.81z"/>
<path class="st2" d="M199.15,66.39c-0.16-0.04-0.33-0.07-0.5-0.08c-0.17-0.01-0.34-0.02-0.5-0.02c-0.64,0-1.17,0.13-1.58,0.39
	c-0.42,0.26-0.74,0.6-0.99,1.02c-0.24,0.42-0.42,0.9-0.52,1.42c-0.1,0.53-0.15,1.06-0.15,1.59v4.88h-1.04V65.39h0.92l0.12,2.06
	c0.23-0.71,0.65-1.24,1.25-1.61c0.61-0.37,1.27-0.55,1.99-0.55c0.16,0,0.33,0,0.5,0.01c0.17,0.01,0.34,0.02,0.5,0.05V66.39z"/>
<path class="st2" d="M208.57,70.06c0,0.12,0,0.23-0.01,0.34c-0.01,0.1-0.01,0.21-0.01,0.34h-7.79c0.01,0.59,0.11,1.15,0.3,1.67
	c0.18,0.52,0.44,0.98,0.77,1.37c0.28,0.34,0.63,0.6,1.03,0.79c0.4,0.19,0.88,0.28,1.44,0.28c0.91,0,1.65-0.3,2.22-0.9
	c0.19-0.19,0.35-0.4,0.48-0.63c0.13-0.23,0.23-0.5,0.29-0.81h1.06c-0.07,0.43-0.2,0.83-0.41,1.19c-0.2,0.36-0.45,0.68-0.73,0.95
	c-0.37,0.37-0.8,0.67-1.29,0.88s-1.04,0.32-1.62,0.32c-0.73,0-1.37-0.14-1.9-0.41c-0.53-0.27-0.98-0.62-1.35-1.04
	c-0.42-0.49-0.74-1.06-0.97-1.72c-0.22-0.66-0.34-1.38-0.34-2.15c0-0.65,0.07-1.28,0.2-1.9c0.14-0.61,0.4-1.19,0.79-1.73
	c0.87-1.18,2.03-1.77,3.46-1.77c0.69,0,1.31,0.14,1.85,0.41c0.54,0.27,0.99,0.64,1.37,1.09c0.37,0.45,0.66,0.98,0.86,1.58
	C208.47,68.8,208.57,69.42,208.57,70.06 M207.53,69.79c-0.01-0.49-0.1-0.95-0.25-1.4c-0.15-0.44-0.37-0.83-0.65-1.18
	c-0.29-0.35-0.63-0.62-1.04-0.83c-0.41-0.2-0.87-0.31-1.39-0.31c-0.53,0-1,0.1-1.43,0.3c-0.42,0.2-0.78,0.47-1.07,0.8
	c-0.29,0.34-0.52,0.73-0.68,1.18c-0.16,0.45-0.24,0.92-0.24,1.43H207.53z"/>
<path class="st2" d="M219.57,70.47c0,0.84-0.13,1.64-0.39,2.4c-0.26,0.76-0.66,1.4-1.2,1.92c-0.34,0.33-0.73,0.58-1.19,0.77
	c-0.45,0.19-0.98,0.29-1.57,0.29c-0.37,0-0.72-0.05-1.07-0.14c-0.35-0.1-0.67-0.23-0.97-0.41c-0.3-0.18-0.57-0.39-0.8-0.63
	c-0.24-0.24-0.42-0.51-0.56-0.8v5.79h-1.04V65.39h0.92l0.12,1.79c0.14-0.31,0.33-0.6,0.57-0.86c0.24-0.26,0.52-0.48,0.81-0.65
	c0.3-0.18,0.62-0.31,0.97-0.41c0.35-0.09,0.69-0.14,1.03-0.14c0.58,0,1.09,0.09,1.53,0.26c0.44,0.17,0.83,0.4,1.17,0.7
	c0.57,0.5,0.99,1.14,1.26,1.9C219.44,68.76,219.57,69.58,219.57,70.47 M218.53,70.49c0-0.73-0.11-1.42-0.32-2.06
	c-0.21-0.64-0.55-1.17-1.03-1.59c-0.26-0.23-0.55-0.41-0.87-0.53c-0.33-0.12-0.7-0.18-1.14-0.18c-0.45,0-0.84,0.08-1.18,0.22
	c-0.34,0.15-0.64,0.35-0.89,0.59c-0.46,0.45-0.79,0.98-1,1.58c-0.2,0.6-0.3,1.26-0.3,1.97c0,0.76,0.1,1.44,0.29,2.03
	c0.19,0.59,0.52,1.1,0.99,1.54c0.26,0.24,0.56,0.44,0.9,0.58s0.76,0.21,1.23,0.21c0.47,0,0.89-0.08,1.24-0.25
	c0.35-0.16,0.66-0.38,0.94-0.65c0.39-0.43,0.68-0.96,0.86-1.57C218.44,71.77,218.53,71.14,218.53,70.49"/>
<path class="st2" d="M229.85,70.49c0,0.87-0.11,1.64-0.33,2.32c-0.22,0.68-0.59,1.28-1.12,1.81c-0.35,0.35-0.78,0.65-1.27,0.88
	c-0.5,0.23-1.06,0.35-1.7,0.35c-0.64,0-1.21-0.12-1.7-0.35c-0.49-0.23-0.92-0.52-1.27-0.88c-0.53-0.53-0.9-1.13-1.12-1.81
	c-0.22-0.68-0.33-1.45-0.33-2.32c0-0.87,0.11-1.64,0.33-2.32c0.22-0.68,0.59-1.28,1.12-1.81c0.35-0.35,0.78-0.64,1.27-0.88
	c0.5-0.23,1.06-0.35,1.7-0.35c0.64,0,1.21,0.12,1.7,0.35c0.5,0.23,0.92,0.52,1.27,0.88c0.53,0.53,0.9,1.14,1.12,1.81
	C229.74,68.84,229.85,69.62,229.85,70.49 M228.81,70.49c0-0.67-0.07-1.29-0.23-1.88c-0.15-0.58-0.46-1.11-0.92-1.59
	c-0.27-0.27-0.59-0.49-0.96-0.65s-0.8-0.24-1.29-0.24c-0.49,0-0.92,0.08-1.28,0.24s-0.69,0.38-0.96,0.65
	c-0.46,0.48-0.77,1.01-0.92,1.59c-0.15,0.58-0.22,1.21-0.22,1.88c0,0.67,0.07,1.29,0.22,1.88c0.15,0.58,0.46,1.11,0.92,1.59
	c0.27,0.27,0.59,0.49,0.96,0.65c0.37,0.16,0.8,0.24,1.28,0.24c0.49,0,0.92-0.08,1.29-0.24c0.37-0.16,0.69-0.38,0.96-0.65
	c0.46-0.48,0.77-1.01,0.92-1.59C228.73,71.78,228.81,71.15,228.81,70.49 M226.87,64.02l-3.43-2.02l0.55-0.9l3.22,2.36L226.87,64.02z
	"/>
<path class="st2" d="M239.47,72.75c0,0.72-0.23,1.35-0.69,1.88c-0.37,0.41-0.84,0.71-1.42,0.92c-0.58,0.2-1.21,0.31-1.89,0.31
	c-0.69,0-1.33-0.11-1.9-0.33c-0.57-0.22-1.05-0.55-1.45-0.99c-0.29-0.32-0.49-0.64-0.62-0.96c-0.13-0.31-0.21-0.68-0.23-1.1h1.04
	c0.05,0.6,0.31,1.12,0.76,1.57c0.3,0.29,0.65,0.49,1.06,0.62c0.41,0.13,0.86,0.19,1.35,0.19c0.53,0,1-0.06,1.41-0.18
	c0.41-0.12,0.74-0.31,1-0.57c0.19-0.19,0.33-0.38,0.42-0.57c0.09-0.19,0.13-0.43,0.13-0.73c0-0.46-0.16-0.86-0.48-1.21
	s-0.78-0.56-1.4-0.64l-1.98-0.26c-0.42-0.05-0.84-0.15-1.25-0.3c-0.41-0.15-0.76-0.39-1.05-0.71c-0.38-0.45-0.57-0.98-0.57-1.61
	c0-0.41,0.08-0.78,0.23-1.11c0.16-0.33,0.37-0.62,0.64-0.86c0.37-0.34,0.79-0.58,1.27-0.73c0.48-0.15,0.99-0.22,1.52-0.22
	c0.61,0,1.19,0.1,1.73,0.3c0.54,0.2,0.99,0.5,1.35,0.91c0.23,0.27,0.42,0.57,0.55,0.9c0.14,0.33,0.21,0.65,0.22,0.98h-1.02
	c-0.03-0.16-0.08-0.36-0.15-0.59c-0.07-0.23-0.19-0.44-0.36-0.63c-0.23-0.27-0.54-0.49-0.94-0.65c-0.39-0.16-0.86-0.24-1.39-0.24
	c-0.79,0-1.4,0.16-1.83,0.47c-0.53,0.38-0.8,0.85-0.8,1.41c0,0.43,0.14,0.8,0.41,1.1c0.27,0.3,0.79,0.5,1.57,0.61l1.94,0.26
	c0.48,0.07,0.89,0.19,1.24,0.38c0.35,0.18,0.65,0.4,0.88,0.66c0.23,0.26,0.4,0.54,0.52,0.85C239.41,72.13,239.47,72.44,239.47,72.75
	"/>
<path class="st2" d="M245.3,61.13h1.43v1.43h-1.43V61.13z M245.48,65.39h1.08v10.19h-1.08V65.39z"/>
<polygon class="st2" points="266.15,75.58 266.15,62.66 260.87,75.38 259.93,75.38 254.65,62.76 254.65,75.58 253.61,75.58
	253.61,61.13 255.1,61.13 260.44,73.97 265.68,61.13 267.19,61.13 267.19,75.58 "/>
<path class="st2" d="M270.51,61.13h1.43v1.43h-1.43V61.13z M270.7,65.39h1.08v10.19h-1.08V65.39z"/>
<path class="st2" d="M280.36,66.39c-0.16-0.04-0.33-0.07-0.5-0.08c-0.17-0.01-0.34-0.02-0.5-0.02c-0.64,0-1.17,0.13-1.58,0.39
	c-0.41,0.26-0.74,0.6-0.99,1.02c-0.24,0.42-0.42,0.9-0.52,1.42c-0.1,0.53-0.15,1.06-0.15,1.59v4.88h-1.04V65.39H276l0.12,2.06
	c0.23-0.71,0.65-1.24,1.25-1.61c0.6-0.37,1.27-0.55,1.99-0.55c0.16,0,0.33,0,0.5,0.01c0.17,0.01,0.34,0.02,0.5,0.05V66.39z"/>
<path class="st2" d="M290.29,75.58c-0.12,0.03-0.2,0.04-0.24,0.05c-0.04,0.01-0.12,0.01-0.24,0.01c-0.63,0-1.06-0.2-1.29-0.59
	s-0.34-0.86-0.34-1.41c-0.14,0.37-0.33,0.69-0.58,0.96c-0.25,0.27-0.54,0.5-0.87,0.68c-0.32,0.18-0.68,0.32-1.06,0.42
	c-0.38,0.09-0.77,0.14-1.16,0.14c-0.49,0-0.95-0.07-1.38-0.21c-0.43-0.14-0.8-0.35-1.12-0.62c-0.32-0.27-0.57-0.6-0.74-0.99
	c-0.18-0.39-0.27-0.83-0.27-1.32c0-0.91,0.32-1.63,0.95-2.15c0.63-0.52,1.46-0.82,2.48-0.89l3.75-0.27v-1
	c0-0.84-0.26-1.44-0.76-1.79c-0.51-0.35-1.15-0.53-1.92-0.53c-0.81,0-1.49,0.18-2.03,0.55c-0.54,0.37-0.84,0.93-0.89,1.69h-1.04
	c0.04-0.52,0.17-0.97,0.38-1.37c0.21-0.39,0.49-0.73,0.84-1c0.35-0.27,0.76-0.48,1.23-0.62c0.47-0.14,0.98-0.21,1.52-0.21
	c0.35,0,0.71,0.03,1.05,0.09c0.35,0.06,0.68,0.17,0.99,0.32c0.31,0.15,0.59,0.34,0.84,0.58c0.24,0.24,0.43,0.53,0.57,0.89
	c0.12,0.31,0.2,0.63,0.22,0.96c0.03,0.33,0.04,0.66,0.04,1v4.65c0,0.35,0.04,0.63,0.13,0.82c0.09,0.19,0.31,0.29,0.66,0.29
	c0.12,0,0.22-0.01,0.29-0.02V75.58z M288.17,70.34l-3.65,0.23c-0.76,0.05-1.36,0.27-1.81,0.64c-0.45,0.37-0.67,0.87-0.67,1.5
	c0,0.73,0.24,1.29,0.72,1.65c0.48,0.37,1.09,0.55,1.82,0.55c0.64,0,1.19-0.12,1.64-0.36c0.46-0.24,0.83-0.55,1.11-0.93
	c0.29-0.38,0.5-0.81,0.63-1.29c0.14-0.48,0.21-0.97,0.21-1.46V70.34z"/>
<path class="st2" d="M305.43,75.58v-6.66c0-0.88-0.18-1.58-0.55-2.08c-0.37-0.5-0.99-0.75-1.88-0.75c-0.39,0-0.74,0.06-1.03,0.18
	c-0.29,0.12-0.55,0.29-0.79,0.51c-0.39,0.38-0.69,0.83-0.9,1.35c-0.2,0.52-0.3,1.08-0.3,1.69v5.77h-1.04v-6.66
	c0-0.88-0.19-1.58-0.56-2.08c-0.37-0.5-1-0.75-1.88-0.75c-0.39,0-0.73,0.06-1.03,0.18c-0.29,0.12-0.55,0.29-0.78,0.51
	c-0.46,0.44-0.78,0.98-0.95,1.63c-0.18,0.65-0.26,1.35-0.26,2.08v5.1h-1.04V65.39h0.92l0.12,1.75c0.27-0.58,0.67-1.07,1.2-1.45
	c0.53-0.38,1.16-0.57,1.89-0.57c0.89,0,1.6,0.2,2.12,0.6c0.52,0.4,0.88,0.93,1.09,1.6c0.27-0.64,0.68-1.17,1.22-1.58
	c0.54-0.41,1.23-0.62,2.08-0.62c0.6,0,1.11,0.09,1.54,0.28c0.43,0.18,0.78,0.44,1.05,0.77c0.27,0.33,0.47,0.73,0.6,1.18
	c0.13,0.46,0.2,0.96,0.2,1.5v6.73H305.43"/>
<path class="st2" d="M318.25,70.51c0,0.88-0.14,1.71-0.41,2.48c-0.27,0.77-0.69,1.4-1.26,1.9c-0.34,0.3-0.73,0.53-1.17,0.7
	c-0.44,0.17-0.95,0.26-1.54,0.26c-0.34,0-0.68-0.05-1.03-0.14c-0.35-0.1-0.67-0.23-0.97-0.41c-0.3-0.18-0.57-0.39-0.81-0.65
	c-0.24-0.26-0.43-0.54-0.57-0.86l-0.12,1.79h-0.91V60.86h1.04l-0.02,6.24c0.14-0.29,0.32-0.55,0.56-0.8
	c0.24-0.24,0.51-0.45,0.8-0.63c0.3-0.18,0.62-0.31,0.97-0.41c0.35-0.09,0.7-0.14,1.07-0.14c0.6,0,1.12,0.1,1.58,0.29
	c0.45,0.19,0.85,0.45,1.19,0.77c0.54,0.52,0.95,1.15,1.2,1.92C318.12,68.86,318.25,69.66,318.25,70.51 M317.21,70.49
	c0-0.65-0.09-1.28-0.27-1.89c-0.18-0.61-0.47-1.14-0.86-1.57c-0.27-0.27-0.58-0.49-0.93-0.65c-0.35-0.16-0.77-0.24-1.24-0.24
	c-0.48,0-0.89,0.07-1.23,0.21c-0.34,0.14-0.65,0.34-0.9,0.58c-0.47,0.43-0.81,0.95-0.99,1.54c-0.19,0.59-0.28,1.27-0.28,2.03
	c0,0.71,0.1,1.36,0.3,1.97c0.2,0.61,0.54,1.13,1,1.58c0.26,0.24,0.55,0.44,0.89,0.59c0.34,0.15,0.73,0.23,1.18,0.23
	c0.43,0,0.81-0.06,1.14-0.18c0.32-0.12,0.62-0.3,0.87-0.53c0.47-0.42,0.82-0.95,1.03-1.59S317.21,71.22,317.21,70.49"/>
<path class="st2" d="M328.5,70.06c0,0.12,0,0.23-0.01,0.34c-0.01,0.1-0.01,0.21-0.01,0.34h-7.79c0.01,0.59,0.11,1.15,0.29,1.67
	c0.18,0.52,0.44,0.98,0.76,1.37c0.28,0.34,0.63,0.6,1.03,0.79c0.4,0.19,0.88,0.28,1.44,0.28c0.91,0,1.65-0.3,2.22-0.9
	c0.19-0.19,0.35-0.4,0.48-0.63c0.13-0.23,0.23-0.5,0.29-0.81h1.06c-0.07,0.43-0.2,0.83-0.41,1.19c-0.2,0.36-0.45,0.68-0.73,0.95
	c-0.37,0.37-0.8,0.67-1.29,0.88c-0.5,0.21-1.04,0.32-1.62,0.32c-0.73,0-1.37-0.14-1.9-0.41c-0.53-0.27-0.98-0.62-1.35-1.04
	c-0.42-0.49-0.74-1.06-0.97-1.72c-0.22-0.66-0.34-1.38-0.34-2.15c0-0.65,0.07-1.28,0.2-1.9c0.14-0.61,0.4-1.19,0.79-1.73
	c0.87-1.18,2.03-1.77,3.46-1.77c0.69,0,1.31,0.14,1.85,0.41c0.54,0.27,0.99,0.64,1.37,1.09c0.37,0.45,0.66,0.98,0.86,1.58
	C328.41,68.8,328.5,69.42,328.5,70.06 M327.46,69.79c-0.01-0.49-0.1-0.95-0.25-1.4c-0.15-0.44-0.37-0.83-0.65-1.18
	c-0.28-0.35-0.63-0.62-1.04-0.83c-0.41-0.2-0.87-0.31-1.39-0.31c-0.53,0-1,0.1-1.43,0.3c-0.42,0.2-0.78,0.47-1.07,0.8
	c-0.29,0.34-0.52,0.73-0.68,1.18c-0.16,0.45-0.24,0.92-0.24,1.43H327.46z"/>
<path class="st2" d="M333.64,75.58c-0.11,0.03-0.24,0.05-0.38,0.08c-0.14,0.03-0.32,0.04-0.54,0.04c-0.65,0-1.16-0.17-1.52-0.52
	c-0.36-0.35-0.54-0.89-0.54-1.64V60.86h1.04v12.62c0,0.35,0.07,0.65,0.2,0.88c0.14,0.23,0.42,0.35,0.86,0.35h0.48
	c0.12,0,0.25-0.01,0.4-0.04V75.58z"/>
<path class="st2" d="M338.51,75.58c-0.11,0.03-0.24,0.05-0.38,0.08c-0.14,0.03-0.32,0.04-0.54,0.04c-0.65,0-1.16-0.17-1.52-0.52
	c-0.36-0.35-0.54-0.89-0.54-1.64V60.86h1.04v12.62c0,0.35,0.07,0.65,0.2,0.88c0.14,0.23,0.42,0.35,0.86,0.35h0.48
	c0.12,0,0.25-0.01,0.4-0.04V75.58z"/>
<line class="st3" x1="12.44" y1="7.52" x2="355.18" y2="7.52"/>
<rect x="12.15" y="60.6" class="st4" width="343.33" height="0.58"/>
<rect x="117.43" y="79.37" class="st4" width="238.04" height="0.58"/>
<line class="st3" x1="16.61" y1="48" x2="18.07" y2="48"/>
<path class="st4" d="M347.59,47.71h3.5v0.58h-3.5V47.71z M341.75,47.71h3.5v0.58h-3.5V47.71z M335.92,47.71h3.5v0.58h-3.5V47.71z
	 M330.08,47.71h3.5v0.58h-3.5V47.71z M324.24,47.71h3.5v0.58h-3.5V47.71z M318.4,47.71h3.5v0.58h-3.5V47.71z M312.57,47.71h3.5v0.58
	h-3.5V47.71z M306.73,47.71h3.5v0.58h-3.5V47.71z M300.89,47.71h3.5v0.58h-3.5V47.71z M295.06,47.71h3.5v0.58h-3.5V47.71z
	 M289.22,47.71h3.5v0.58h-3.5V47.71z M283.38,47.71h3.5v0.58h-3.5V47.71z M277.54,47.71h3.5v0.58h-3.5V47.71z M271.71,47.71h3.5
	v0.58h-3.5V47.71z M265.87,47.71h3.5v0.58h-3.5V47.71z M260.03,47.71h3.5v0.58h-3.5V47.71z M254.19,47.71h3.5v0.58h-3.5V47.71z
	 M248.36,47.71h3.5v0.58h-3.5V47.71z M242.52,47.71h3.5v0.58h-3.5V47.71z M236.68,47.71h3.5v0.58h-3.5V47.71z M230.85,47.71h3.5
	v0.58h-3.5V47.71z M225.01,47.71h3.5v0.58h-3.5V47.71z M219.17,47.71h3.5v0.58h-3.5V47.71z M213.33,47.71h3.5v0.58h-3.5V47.71z
	 M207.49,47.71h3.5v0.58h-3.5V47.71z M201.66,47.71h3.5v0.58h-3.5V47.71z M195.82,47.71h3.5v0.58h-3.5V47.71z M189.98,47.71h3.5
	v0.58h-3.5V47.71z M184.15,47.71h3.5v0.58h-3.5V47.71z M178.31,47.71h3.5v0.58h-3.5V47.71z M172.47,47.71h3.5v0.58h-3.5V47.71z
	 M166.63,47.71h3.5v0.58h-3.5V47.71z M160.8,47.71h3.5v0.58h-3.5V47.71z M154.96,47.71h3.5v0.58h-3.5V47.71z M149.12,47.71h3.5v0.58
	h-3.5V47.71z M143.29,47.71h3.5v0.58h-3.5V47.71z M137.45,47.71h3.5v0.58h-3.5V47.71z M131.61,47.71h3.5v0.58h-3.5V47.71z
	 M125.77,47.71h3.5v0.58h-3.5V47.71z M119.94,47.71h3.5v0.58h-3.5V47.71z M114.1,47.71h3.5v0.58h-3.5V47.71z M108.26,47.71h3.5v0.58
	h-3.5V47.71z M102.42,47.71h3.5v0.58h-3.5V47.71z M96.59,47.71h3.5v0.58h-3.5V47.71z M90.75,47.71h3.5v0.58h-3.5V47.71z
	 M84.91,47.71h3.5v0.58h-3.5V47.71z M79.07,47.71h3.5v0.58h-3.5V47.71z M73.24,47.71h3.5v0.58h-3.5V47.71z M67.4,47.71h3.5v0.58
	h-3.5V47.71z M61.56,47.71h3.5v0.58h-3.5V47.71z M55.73,47.71h3.5v0.58h-3.5V47.71z M49.89,47.71h3.5v0.58h-3.5V47.71z M44.05,47.71
	h3.5v0.58h-3.5V47.71z M38.21,47.71h3.5v0.58h-3.5V47.71z M32.38,47.71h3.5v0.58h-3.5V47.71z M26.54,47.71h3.5v0.58h-3.5V47.71z
	 M20.7,47.71h3.5v0.58h-3.5V47.71z"/>
<line class="st3" x1="353.72" y1="48" x2="355.18" y2="48"/>
<line class="st3" x1="16.61" y1="20.02" x2="18.07" y2="20.02"/>
<line class="st5" x1="20.99" y1="20.02" x2="352.26" y2="20.02"/>
<line class="st3" x1="353.72" y1="20.02" x2="355.18" y2="20.02"/>
<rect x="306.29" y="47.01" class="st4" width="0.59" height="47.83"/>
<rect x="312.72" y="47.01" class="st4" width="0.59" height="47.83"/>
<rect x="302.28" y="90.09" class="st4" width="15.03" height="0.58"/>
<line class="st3" x1="334.3" y1="90.38" x2="355.18" y2="90.38"/>
<rect x="312.72" y="79.37" class="st4" width="24.62" height="0.58"/>
<polygon class="st4" points="335.11,82.05 334.71,81.62 336.82,79.66 334.71,77.69 335.11,77.27 337.68,79.66 "/>
<rect class="st6" width="373.49" height="105.9"/>
<g>
	<defs>
		<rect id="SVGID_4_" x="306.58" y="47.31" width="6.43" height="43.08"/>
	</defs>
	<clipPath id="SVGID_5_">
		<use xlink:href="#SVGID_4_"  style="overflow:visible;"/>
	</clipPath>
	<path class="st7" d="M312.72,79.95h-5.85v10.14h5.85V79.95z M312.72,66.32c-0.02,0.01-0.03,0.01-0.05,0.02
		c-0.34,0.14-0.65,0.34-0.9,0.58c-0.47,0.43-0.81,0.95-1,1.54c-0.19,0.59-0.28,1.27-0.28,2.03c0,0.71,0.1,1.36,0.3,1.97
		c0.2,0.61,0.53,1.13,1,1.58c0.26,0.24,0.55,0.44,0.89,0.59c0.01,0.01,0.03,0.01,0.04,0.02V66.32 M309.47,61.18h-2.6v18.18h5.85
		v-3.7c-0.29-0.09-0.57-0.21-0.83-0.37c-0.3-0.18-0.57-0.39-0.81-0.65c-0.24-0.26-0.43-0.54-0.57-0.86l-0.12,1.79h-0.91V61.18
		 M312.72,61.18h-2.21l-0.02,5.92c0.14-0.28,0.32-0.55,0.56-0.79c0.24-0.24,0.51-0.46,0.8-0.63c0.27-0.16,0.56-0.28,0.87-0.38V61.18
		 M312.72,47.47h-5.85v0.24h3.36v0.58h-3.36v12.3h5.85v-12.3h-0.15v-0.58h0.15V47.47"/>
	<rect x="306.87" y="47.31" class="st8" width="5.84" height="0.16"/>
	<path class="st9" d="M310.5,61.18h-1.04v14.4h0.91l0.12-1.79c0.14,0.31,0.33,0.6,0.57,0.85c0.24,0.26,0.51,0.48,0.81,0.65
		c0.26,0.15,0.53,0.27,0.83,0.37v-1.02c-0.01-0.01-0.03-0.01-0.04-0.02c-0.34-0.15-0.64-0.35-0.89-0.59c-0.46-0.45-0.79-0.97-1-1.58
		c-0.2-0.61-0.3-1.26-0.3-1.97c0-0.76,0.09-1.44,0.28-2.03c0.19-0.59,0.52-1.1,1-1.54c0.26-0.25,0.56-0.44,0.9-0.58
		c0.02-0.01,0.03-0.01,0.05-0.02V65.3c-0.31,0.09-0.6,0.22-0.87,0.38c-0.3,0.18-0.57,0.39-0.8,0.63c-0.24,0.24-0.43,0.51-0.56,0.8
		L310.5,61.18"/>
	<polygon class="st10" points="312.72,60.6 306.87,60.6 306.87,61.18 309.47,61.18 310.5,61.18 312.72,61.18 	"/>
	<rect x="306.87" y="79.37" class="st10" width="5.84" height="0.58"/>
	<path class="st10" d="M310.23,47.71h-3.36v0.58h3.36V47.71z M312.72,47.71h-0.15v0.58h0.15V47.71z"/>
	<polygon class="st10" points="306.87,47.31 306.58,47.31 306.58,90.09 306.87,90.09 306.87,79.95 306.87,79.37 306.87,61.18
		306.87,60.6 306.87,48.29 306.87,47.71 306.87,47.47 	"/>
	<polygon class="st10" points="313.01,47.31 312.72,47.31 312.72,47.47 312.72,47.71 312.72,48.29 312.72,60.6 312.72,61.18
		312.72,65.3 312.72,66.32 312.72,74.64 312.72,75.66 312.72,79.37 312.72,79.95 312.72,90.09 313.01,90.09 313.01,79.95
		312.72,79.95 312.72,79.37 313.01,79.37 	"/>
	<polygon class="st10" points="313.01,90.09 312.72,90.09 306.87,90.09 306.58,90.09 306.58,90.38 313.01,90.38 	"/>
	<rect x="312.72" y="79.37" class="st10" width="0.29" height="0.58"/>
</g>
<g>
	<path class="st11" d="M311.75,101.48c-0.33,0.36-0.9,0.54-1.49,0.54h-2.39v-5.92h2.36c0.55,0,1.12,0.18,1.44,0.54
		c0.23,0.26,0.38,0.56,0.38,0.98c0,0.57-0.3,1.11-0.85,1.31c0.61,0.2,0.98,0.8,0.98,1.43C312.2,100.85,312.01,101.21,311.75,101.48z
		 M310.24,96.77h-1.64v1.86h1.66c0.62,0,1.04-0.28,1.04-0.93C311.31,97.08,310.8,96.77,310.24,96.77z M310.28,99.28h-1.68v2.06h1.66
		c0.65,0,1.18-0.32,1.18-1.02C311.44,99.66,310.9,99.28,310.28,99.28z"/>
</g>
<g>
	<defs>
		<rect id="SVGID_6_" width="373.49" height="105.9"/>
	</defs>
	<clipPath id="SVGID_7_">
		<use xlink:href="#SVGID_6_"  style="overflow:visible;"/>
	</clipPath>
	<rect x="88.07" y="47.01" class="st12" width="0.58" height="47.83"/>
	<rect x="100.62" y="33.11" class="st12" width="0.58" height="61.73"/>
	<rect x="28.64" y="90.09" class="st12" width="76.57" height="0.58"/>
</g>
<g>
	<defs>
		<rect id="SVGID_8_" x="88.36" y="47.86" width="12.55" height="42.52"/>
	</defs>
	<clipPath id="SVGID_9_">
		<use xlink:href="#SVGID_8_"  style="overflow:visible;"/>
	</clipPath>
	<path class="st13" d="M100.61,61.18H88.65v28.91h11.96V61.18z M100.61,47.86h-0.53v0.43h-3.5v-0.43h-2.33v0.43h-3.5v-0.43h-2.09
		V60.6h11.96V47.86"/>
	<rect x="88.65" y="60.6" class="st14" width="11.96" height="0.58"/>
	<path class="st14" d="M94.25,47.86h-3.5v0.43h3.5V47.86z M100.09,47.86h-3.5v0.43h3.5V47.86z"/>
	<polygon class="st14" points="88.65,47.86 88.36,47.86 88.36,90.09 88.65,90.09 88.65,61.18 88.65,60.6 	"/>
	<polygon class="st14" points="100.91,47.86 100.62,47.86 100.62,60.6 100.62,61.18 100.62,90.09 100.91,90.09 	"/>
	<polygon class="st14" points="100.91,90.09 100.62,90.09 88.65,90.09 88.36,90.09 88.36,90.38 100.91,90.38 	"/>
</g>
<g>
	<path class="st11" d="M90.12,102.03v-0.61l2.35-2.9c0.22-0.28,0.32-0.53,0.32-0.83c0-0.59-0.34-0.94-0.95-0.94
		c-0.52,0-0.98,0.28-0.98,1.05h-0.73c0-1.01,0.68-1.69,1.71-1.69c0.63,0,1.13,0.26,1.42,0.67c0.18,0.25,0.27,0.53,0.27,0.9
		c0,0.46-0.18,0.84-0.49,1.24l-1.97,2.45h2.55v0.67H90.12z"/>
	<path class="st11" d="M98.89,101.48c-0.33,0.36-0.9,0.54-1.49,0.54h-2.39v-5.92h2.36c0.55,0,1.12,0.18,1.44,0.54
		c0.23,0.26,0.38,0.56,0.38,0.98c0,0.57-0.3,1.11-0.85,1.31c0.61,0.2,0.98,0.8,0.98,1.43C99.34,100.85,99.15,101.21,98.89,101.48z
		 M97.38,96.77h-1.64v1.86h1.66c0.62,0,1.04-0.28,1.04-0.93C98.45,97.08,97.95,96.77,97.38,96.77z M97.42,99.28h-1.68v2.06h1.66
		c0.65,0,1.18-0.32,1.18-1.02C98.58,99.66,98.05,99.28,97.42,99.28z"/>
</g>
<g>
	<defs>
		<rect id="SVGID_10_" width="373.49" height="105.9"/>
	</defs>
	<clipPath id="SVGID_11_">
		<use xlink:href="#SVGID_10_"  style="overflow:visible;"/>
	</clipPath>
	<line class="st15" x1="338.47" y1="34.05" x2="338.47" y2="94.55"/>
</g>
<g>
	<path class="st11" d="M340.22,102.03v-0.61l2.35-2.9c0.22-0.28,0.32-0.53,0.32-0.83c0-0.59-0.34-0.94-0.95-0.94
		c-0.52,0-0.98,0.28-0.98,1.05h-0.73c0-1.01,0.68-1.69,1.71-1.69c0.63,0,1.13,0.26,1.42,0.67c0.18,0.25,0.27,0.53,0.27,0.9
		c0,0.46-0.18,0.84-0.49,1.24l-1.97,2.45h2.55v0.67H340.22z"/>
	<path class="st11" d="M349,101.48c-0.33,0.36-0.9,0.54-1.49,0.54h-2.39v-5.92h2.36c0.55,0,1.12,0.18,1.44,0.54
		c0.23,0.26,0.38,0.56,0.38,0.98c0,0.57-0.3,1.11-0.85,1.31c0.61,0.2,0.98,0.8,0.98,1.43C349.45,100.85,349.25,101.21,349,101.48z
		 M347.49,96.77h-1.64v1.86h1.66c0.62,0,1.04-0.28,1.04-0.93C348.55,97.08,348.05,96.77,347.49,96.77z M347.53,99.28h-1.68v2.06
		h1.66c0.65,0,1.18-0.32,1.18-1.02C348.69,99.66,348.15,99.28,347.53,99.28z"/>
</g>
<g>
	<path class="st11" d="M358.93,16.75v-0.61l2.35-2.9c0.22-0.28,0.32-0.53,0.32-0.83c0-0.59-0.34-0.94-0.95-0.94
		c-0.52,0-0.98,0.28-0.98,1.05h-0.73c0-1.01,0.68-1.69,1.71-1.69c0.63,0,1.13,0.26,1.42,0.67c0.18,0.25,0.27,0.53,0.27,0.9
		c0,0.46-0.18,0.84-0.49,1.24l-1.97,2.45h2.55v0.67H358.93z"/>
	<path class="st11" d="M367.71,16.21c-0.33,0.36-0.9,0.54-1.49,0.54h-2.39v-5.92h2.36c0.55,0,1.12,0.18,1.44,0.54
		c0.23,0.26,0.38,0.56,0.38,0.98c0,0.57-0.3,1.11-0.85,1.31c0.61,0.2,0.98,0.8,0.98,1.43C368.16,15.58,367.97,15.94,367.71,16.21z
		 M366.2,11.49h-1.64v1.86h1.66c0.62,0,1.04-0.28,1.04-0.93C367.27,11.8,366.76,11.49,366.2,11.49z M366.24,14.01h-1.68v2.06h1.66
		c0.65,0,1.18-0.32,1.18-1.02C367.4,14.39,366.86,14.01,366.24,14.01z"/>
</g>
<g>
	<path class="st11" d="M358.93,57.39v-0.61l2.35-2.9c0.22-0.28,0.32-0.53,0.32-0.83c0-0.59-0.34-0.94-0.95-0.94
		c-0.52,0-0.98,0.28-0.98,1.05h-0.73c0-1.01,0.68-1.69,1.71-1.69c0.63,0,1.13,0.26,1.42,0.67c0.18,0.25,0.27,0.53,0.27,0.9
		c0,0.46-0.18,0.84-0.49,1.24l-1.97,2.45h2.55v0.67H358.93z"/>
	<path class="st11" d="M367.71,56.85c-0.33,0.36-0.9,0.54-1.49,0.54h-2.39v-5.92h2.36c0.55,0,1.12,0.18,1.44,0.54
		c0.23,0.26,0.38,0.56,0.38,0.98c0,0.57-0.3,1.11-0.85,1.31c0.61,0.2,0.98,0.8,0.98,1.43C368.16,56.21,367.97,56.57,367.71,56.85z
		 M366.2,52.13h-1.64v1.86h1.66c0.62,0,1.04-0.28,1.04-0.93C367.27,52.44,366.76,52.13,366.2,52.13z M366.24,54.64h-1.68v2.06h1.66
		c0.65,0,1.18-0.32,1.18-1.02C367.4,55.03,366.86,54.64,366.24,54.64z"/>
</g>
<g>
	<path class="st11" d="M361.96,35.21v1.24h-0.72v-1.24h-2.66v-0.74l2.2-3.82h0.75l-2.27,3.92h1.98v-1.73h0.72v1.73h0.78v0.64H361.96
		z"/>
	<path class="st11" d="M367.71,35.9c-0.33,0.36-0.9,0.54-1.49,0.54h-2.39v-5.92h2.36c0.55,0,1.12,0.18,1.44,0.54
		c0.23,0.26,0.38,0.56,0.38,0.98c0,0.57-0.3,1.11-0.85,1.31c0.61,0.2,0.98,0.8,0.98,1.43C368.16,35.26,367.97,35.62,367.71,35.9z
		 M366.2,31.18h-1.64v1.86h1.66c0.62,0,1.04-0.28,1.04-0.93C367.27,31.49,366.76,31.18,366.2,31.18z M366.24,33.69h-1.68v2.06h1.66
		c0.65,0,1.18-0.32,1.18-1.02C367.4,34.08,366.86,33.69,366.24,33.69z"/>
</g>
<g>
	<path class="st11" d="M362.01,72.87c-0.31,0.33-0.75,0.53-1.4,0.53c-0.56,0-1-0.2-1.33-0.53c-0.3-0.3-0.48-0.71-0.49-1.24h0.73
		c0.02,0.33,0.11,0.6,0.3,0.8c0.18,0.19,0.43,0.33,0.79,0.33c0.35,0,0.64-0.11,0.84-0.33c0.16-0.17,0.28-0.42,0.28-0.73
		c0-0.71-0.48-1.08-1.19-1.08h-0.35v-0.66h0.35c0.67,0,1.07-0.37,1.07-0.98c0-0.27-0.09-0.5-0.28-0.68
		c-0.16-0.16-0.39-0.28-0.71-0.28s-0.53,0.09-0.71,0.23c-0.23,0.18-0.34,0.47-0.35,0.82h-0.73c0.01-0.58,0.22-0.99,0.56-1.28
		c0.33-0.27,0.74-0.42,1.24-0.42c0.48,0,0.93,0.18,1.24,0.47c0.29,0.27,0.47,0.63,0.47,1.13c0,0.54-0.38,1.11-0.85,1.31
		c0.62,0.21,0.97,0.82,0.97,1.42C362.45,72.15,362.29,72.57,362.01,72.87z"/>
	<path class="st11" d="M367.71,72.74c-0.33,0.36-0.9,0.54-1.49,0.54h-2.39v-5.92h2.36c0.55,0,1.12,0.18,1.44,0.54
		c0.23,0.26,0.38,0.56,0.38,0.98c0,0.57-0.3,1.11-0.85,1.31c0.61,0.2,0.98,0.8,0.98,1.43C368.16,72.11,367.97,72.47,367.71,72.74z
		 M366.2,68.03h-1.64v1.86h1.66c0.62,0,1.04-0.28,1.04-0.93C367.27,68.34,366.76,68.03,366.2,68.03z M366.24,70.54h-1.68v2.06h1.66
		c0.65,0,1.18-0.32,1.18-1.02C367.4,70.93,366.86,70.54,366.24,70.54z"/>
</g>
<g>
	<defs>
		<rect id="SVGID_12_" width="373.49" height="105.9"/>
	</defs>
	<clipPath id="SVGID_13_">
		<use xlink:href="#SVGID_12_"  style="overflow:visible;"/>
	</clipPath>
	<line class="st16" x1="32.94" y1="47.31" x2="32.94" y2="94.55"/>
	<line class="st16" x1="16.61" y1="3.51" x2="16.61" y2="64.9"/>
</g>
<g>
	<path class="st11" d="M62.38,102.03l-0.48-1.4h-2.57l-0.48,1.4h-0.75l2.09-5.92h0.87l2.09,5.92H62.38z M60.6,96.85l-1.04,3.07h2.09
		L60.6,96.85z"/>
</g>
<g>
	<path class="st11" d="M6.07,36.44l-0.48-1.4H3.01l-0.48,1.4H1.78l2.09-5.92h0.87l2.09,5.92H6.07z M4.29,31.27l-1.04,3.07h2.09
		L4.29,31.27z"/>
</g>
<g>
	<defs>
		<rect id="SVGID_14_" width="373.49" height="105.9"/>
	</defs>
	<clipPath id="SVGID_15_">
		<use xlink:href="#SVGID_14_"  style="overflow:visible;"/>
	</clipPath>
	<line class="st17" x1="351.01" y1="3.51" x2="351.01" y2="94.55"/>
</g>
</svg>
