<svg version="1.1" xmlns="http://www.w3.org/2000/svg" xmlns:xlink="http://www.w3.org/1999/xlink" x="0px" y="0px"
	 width="342.99px" height="34.64px" viewBox="0 0 342.99 34.64" style="enable-background:new 0 0 342.99 34.64;"
	 xml:space="preserve">
<style type="text/css">
	.st0{clip-path:url(#SVGID_2_);fill:url(#SVGID_3_);}
	.st1{fill:#27292E;}
	.st2{fill:#898E91;}
	.st3{fill:none;stroke:#898E91;stroke-width:0.69;stroke-miterlimit:10;}
	.st4{fill:none;}
	.st5{clip-path:url(#SVGID_5_);fill:url(#SVGID_6_);}
</style>
<defs>
</defs>
<g>
	<defs>
		<path id="SVGID_1_" d="M23.14,19.55l1.06,1.35c-2.75,2.28-5.85,3.46-9.65,3.46s-6.91-1.18-9.65-3.46l1.06-1.35
			c2.73,1.94,4.96,2.83,8.6,2.83S20.42,21.49,23.14,19.55 M9.32,11.08h3.01v2.87H9.56c-1.73,0-2.87-0.42-3.6-2.09l1.16-0.66
			c0.52,1.06,1.15,1.31,2.21,1.31V11.08z M16.66,11.08h3v2.87h-3V11.08z M1.34,3.59C0.6,3.59,0,4.17,0,4.87v24.89
			c0,0.71,0.6,1.28,1.34,1.28h26.08c0.74,0,1.34-0.58,1.34-1.28V4.87c0-0.71-0.61-1.28-1.34-1.28H1.34z"/>
	</defs>
	<clipPath id="SVGID_2_">
		<use xlink:href="#SVGID_1_"  style="overflow:visible;"/>
	</clipPath>

		<linearGradient id="SVGID_3_" gradientUnits="userSpaceOnUse" x1="-56.693" y1="319.606" x2="-55.693" y2="319.606" gradientTransform="matrix(0 27.7578 27.7578 0 -8857.1787 1577.1218)">
		<stop  offset="0" style="stop-color:#E18433"/>
		<stop  offset="0.2756" style="stop-color:#DE7833"/>
		<stop  offset="0.8103" style="stop-color:#D85933"/>
		<stop  offset="1" style="stop-color:#D54B32"/>
	</linearGradient>
	<rect y="3.59" class="st0" width="28.76" height="27.46"/>
</g>
<path class="st1" d="M47.02,19.62c-0.03,0.54-0.14,1.07-0.31,1.58c-0.17,0.51-0.42,0.97-0.73,1.37c-0.47,0.59-1.1,1.09-1.89,1.51
	c-0.79,0.42-1.71,0.63-2.75,0.63c-1.04,0-1.97-0.21-2.79-0.64c-0.82-0.43-1.46-0.92-1.93-1.5c-0.5-0.64-0.88-1.38-1.12-2.21
	c-0.24-0.83-0.36-1.74-0.36-2.74c0-0.99,0.12-1.9,0.36-2.73c0.24-0.83,0.62-1.57,1.12-2.21c0.47-0.57,1.11-1.07,1.93-1.5
	c0.81-0.43,1.74-0.64,2.79-0.64c1.04,0,1.96,0.21,2.75,0.62c0.79,0.42,1.42,0.92,1.89,1.51c0.31,0.4,0.56,0.86,0.73,1.37
	c0.17,0.51,0.28,1.04,0.31,1.58h-3.2c-0.02-0.24-0.06-0.46-0.13-0.67c-0.07-0.21-0.16-0.39-0.26-0.57
	c-0.19-0.29-0.46-0.53-0.81-0.72c-0.35-0.19-0.77-0.29-1.28-0.29c-0.45,0-0.84,0.08-1.16,0.24c-0.32,0.15-0.6,0.35-0.82,0.59
	c-0.4,0.43-0.65,0.95-0.76,1.56c-0.1,0.6-0.15,1.23-0.15,1.86c0,0.64,0.05,1.26,0.15,1.85c0.11,0.59,0.36,1.11,0.76,1.54
	c0.22,0.24,0.5,0.44,0.82,0.61c0.32,0.17,0.71,0.25,1.16,0.25c0.5,0,0.93-0.09,1.28-0.28c0.35-0.19,0.61-0.43,0.81-0.72
	c0.1-0.17,0.19-0.36,0.26-0.57c0.07-0.21,0.12-0.43,0.13-0.67H47.02z"/>
<path class="st1" d="M60.25,17.64c0,1.15-0.14,2.11-0.42,2.88c-0.28,0.77-0.67,1.48-1.17,2.12c-0.47,0.58-1.12,1.07-1.94,1.49
	c-0.83,0.42-1.76,0.62-2.8,0.62c-1.04,0-1.98-0.21-2.8-0.62c-0.82-0.42-1.47-0.91-1.94-1.49c-0.51-0.64-0.9-1.35-1.17-2.12
	c-0.28-0.77-0.42-1.73-0.42-2.88c0-1.15,0.14-2.11,0.42-2.88c0.28-0.77,0.67-1.48,1.17-2.12c0.47-0.57,1.11-1.07,1.94-1.48
	c0.83-0.42,1.76-0.62,2.8-0.62c1.04,0,1.98,0.21,2.8,0.62c0.82,0.42,1.47,0.91,1.94,1.48c0.51,0.64,0.9,1.35,1.17,2.12
	C60.11,15.54,60.25,16.5,60.25,17.64 M56.95,17.64c0-0.64-0.06-1.26-0.18-1.86c-0.12-0.6-0.38-1.12-0.78-1.55
	c-0.23-0.24-0.51-0.45-0.86-0.62c-0.35-0.16-0.75-0.25-1.2-0.25c-0.45,0-0.85,0.08-1.2,0.25c-0.35,0.17-0.64,0.37-0.86,0.62
	c-0.4,0.43-0.66,0.95-0.78,1.55c-0.12,0.6-0.18,1.22-0.18,1.86c0,0.64,0.06,1.26,0.18,1.86c0.12,0.6,0.38,1.12,0.78,1.55
	c0.23,0.25,0.51,0.45,0.86,0.61c0.35,0.17,0.74,0.25,1.2,0.25c0.45,0,0.85-0.08,1.2-0.25c0.35-0.16,0.64-0.37,0.86-0.61
	c0.4-0.43,0.66-0.95,0.78-1.55C56.88,18.91,56.95,18.28,56.95,17.64"/>
<path class="st1" d="M77.97,24.42V16c0-0.83-0.15-1.48-0.43-1.94c-0.28-0.46-0.84-0.69-1.65-0.69c-0.47,0-0.87,0.11-1.2,0.33
	c-0.33,0.22-0.6,0.5-0.82,0.86c-0.22,0.36-0.38,0.76-0.48,1.18c-0.1,0.44-0.15,0.86-0.15,1.28v7.4H70V16c0-0.83-0.14-1.48-0.43-1.94
	c-0.28-0.46-0.84-0.69-1.65-0.69c-0.47,0-0.87,0.11-1.2,0.33c-0.33,0.22-0.61,0.5-0.83,0.86c-0.23,0.36-0.39,0.76-0.5,1.18
	c-0.11,0.44-0.16,0.86-0.16,1.28v7.4H62V10.87h2.71l0.26,1.8c0.38-0.63,0.89-1.14,1.54-1.54c0.64-0.4,1.41-0.6,2.32-0.6
	c0.95,0,1.75,0.19,2.39,0.59c0.65,0.39,1.14,0.93,1.49,1.62c0.4-0.71,0.95-1.26,1.66-1.64c0.7-0.38,1.52-0.57,2.43-0.57
	c1.46,0,2.56,0.44,3.3,1.32c0.74,0.88,1.11,2.02,1.11,3.43v9.15H77.97z"/>
<path class="st1" d="M96.21,17.62c0,2.69-0.81,4.71-2.43,6.05c-0.42,0.35-0.9,0.61-1.45,0.81c-0.54,0.19-1.17,0.28-1.86,0.28
	c-0.82,0-1.54-0.12-2.15-0.38c-0.62-0.25-1.08-0.57-1.39-0.95v6.18h-3.26V10.87h2.81l0.21,1.49c0.4-0.62,0.95-1.08,1.64-1.37
	c0.69-0.29,1.42-0.43,2.16-0.43c0.68,0,1.29,0.1,1.84,0.31c0.55,0.21,1.03,0.49,1.45,0.84c0.82,0.66,1.42,1.49,1.83,2.49
	C96.01,15.19,96.21,16.33,96.21,17.62 M92.9,17.67c0-0.59-0.06-1.18-0.17-1.76c-0.11-0.58-0.34-1.1-0.69-1.55
	c-0.24-0.29-0.54-0.55-0.9-0.76c-0.36-0.21-0.79-0.31-1.29-0.31c-0.64,0-1.16,0.13-1.57,0.41c-0.4,0.27-0.71,0.62-0.94,1.04
	c-0.22,0.42-0.38,0.9-0.46,1.42c-0.08,0.52-0.12,1.03-0.12,1.51c0,0.49,0.04,0.99,0.12,1.5c0.08,0.51,0.23,0.98,0.46,1.4
	c0.23,0.43,0.54,0.78,0.94,1.04c0.4,0.27,0.92,0.41,1.57,0.41c0.5,0,0.93-0.11,1.29-0.32c0.35-0.21,0.66-0.46,0.9-0.76
	c0.35-0.45,0.58-0.96,0.69-1.54C92.85,18.84,92.9,18.26,92.9,17.67"/>
<path class="st1" d="M105.88,13.87c-0.4-0.09-0.77-0.13-1.12-0.13c-1.15,0-2.01,0.37-2.6,1.1c-0.59,0.73-0.89,1.65-0.89,2.74v6.85
	h-3.31V10.87h2.79l0.29,2.01c0.31-0.77,0.83-1.33,1.55-1.68c0.72-0.34,1.48-0.52,2.28-0.52c0.35,0,0.68,0.02,1.01,0.08V13.87z"/>
<path class="st1" d="M118.12,17.64c0,1.15-0.14,2.11-0.42,2.88c-0.28,0.77-0.67,1.48-1.17,2.12c-0.47,0.58-1.12,1.07-1.94,1.49
	c-0.83,0.42-1.76,0.62-2.8,0.62c-1.04,0-1.97-0.21-2.8-0.62c-0.83-0.42-1.47-0.91-1.94-1.49c-0.5-0.64-0.9-1.35-1.17-2.12
	c-0.28-0.77-0.42-1.73-0.42-2.88c0-1.15,0.14-2.11,0.42-2.88c0.28-0.77,0.67-1.48,1.17-2.12c0.47-0.57,1.12-1.07,1.94-1.48
	c0.82-0.42,1.76-0.62,2.8-0.62c1.04,0,1.98,0.21,2.8,0.62c0.82,0.42,1.47,0.91,1.94,1.48c0.5,0.64,0.89,1.35,1.17,2.12
	C117.98,15.54,118.12,16.5,118.12,17.64 M114.81,17.64c0-0.64-0.06-1.26-0.18-1.86c-0.12-0.6-0.38-1.12-0.78-1.55
	c-0.22-0.24-0.51-0.45-0.86-0.62c-0.35-0.16-0.75-0.25-1.2-0.25c-0.45,0-0.85,0.08-1.2,0.25c-0.35,0.17-0.63,0.37-0.86,0.62
	c-0.4,0.43-0.66,0.95-0.78,1.55c-0.12,0.6-0.18,1.22-0.18,1.86c0,0.64,0.06,1.26,0.18,1.86c0.12,0.6,0.38,1.12,0.78,1.55
	c0.23,0.25,0.51,0.45,0.86,0.61c0.35,0.17,0.75,0.25,1.2,0.25c0.45,0,0.85-0.08,1.2-0.25c0.35-0.16,0.64-0.37,0.86-0.61
	c0.4-0.43,0.66-0.95,0.78-1.55C114.75,18.91,114.81,18.28,114.81,17.64"/>
<path class="st1" d="M135.84,24.42V16c0-0.83-0.14-1.48-0.43-1.94c-0.29-0.46-0.84-0.69-1.66-0.69c-0.47,0-0.87,0.11-1.2,0.33
	c-0.33,0.22-0.6,0.5-0.82,0.86c-0.22,0.36-0.38,0.76-0.48,1.18c-0.1,0.44-0.16,0.86-0.16,1.28v7.4h-3.23V16
	c0-0.83-0.14-1.48-0.43-1.94c-0.29-0.46-0.84-0.69-1.65-0.69c-0.47,0-0.87,0.11-1.2,0.33c-0.33,0.22-0.61,0.5-0.84,0.86
	c-0.22,0.36-0.39,0.76-0.49,1.18c-0.11,0.44-0.16,0.86-0.16,1.28v7.4h-3.23V10.87h2.71l0.26,1.8c0.38-0.63,0.89-1.14,1.54-1.54
	c0.64-0.4,1.42-0.6,2.32-0.6c0.96,0,1.75,0.19,2.4,0.59c0.64,0.39,1.14,0.93,1.49,1.62c0.4-0.71,0.95-1.26,1.65-1.64
	c0.7-0.38,1.52-0.57,2.44-0.57c1.46,0,2.56,0.44,3.3,1.32c0.74,0.88,1.11,2.02,1.11,3.43v9.15H135.84z"/>
<path class="st1" d="M141.08,9.62l-0.94-1.57l4.27-3.31l1.3,2.19L141.08,9.62z M141.6,10.87h3.31v13.55h-3.31V10.87z"/>
<path class="st1" d="M158.14,20.22c0,0.66-0.11,1.24-0.32,1.72c-0.22,0.49-0.5,0.9-0.85,1.25c-0.56,0.56-1.23,0.96-2.03,1.2
	c-0.8,0.24-1.67,0.36-2.61,0.36c-0.87,0-1.68-0.12-2.42-0.38c-0.75-0.25-1.4-0.64-1.96-1.19c-0.4-0.38-0.74-0.84-1.02-1.38
	c-0.28-0.54-0.42-1.13-0.42-1.77h3.05c0,0.29,0.07,0.59,0.21,0.88c0.14,0.29,0.31,0.53,0.52,0.7c0.26,0.21,0.55,0.36,0.87,0.46
	c0.32,0.1,0.71,0.15,1.18,0.15c0.28,0,0.58-0.02,0.9-0.07c0.32-0.04,0.62-0.13,0.9-0.25c0.28-0.12,0.51-0.29,0.69-0.52
	c0.18-0.23,0.28-0.52,0.28-0.89c0-0.4-0.12-0.72-0.37-0.97c-0.24-0.24-0.57-0.4-0.99-0.47c-0.61-0.09-1.23-0.16-1.88-0.22
	c-0.64-0.06-1.27-0.16-1.88-0.3c-0.47-0.1-0.89-0.27-1.26-0.5c-0.38-0.23-0.7-0.5-0.98-0.82c-0.28-0.32-0.49-0.68-0.64-1.07
	c-0.15-0.39-0.22-0.8-0.22-1.24c0-0.7,0.13-1.29,0.39-1.79c0.26-0.5,0.59-0.92,0.99-1.26c0.51-0.43,1.11-0.77,1.8-1
	c0.7-0.23,1.47-0.35,2.32-0.35c0.82,0,1.6,0.13,2.36,0.39c0.75,0.26,1.38,0.66,1.89,1.2c0.36,0.4,0.65,0.84,0.87,1.32
	c0.22,0.48,0.33,0.97,0.33,1.47h-3.1c0-0.26-0.05-0.5-0.16-0.7c-0.1-0.21-0.23-0.4-0.39-0.57c-0.19-0.19-0.45-0.34-0.77-0.46
	c-0.32-0.11-0.65-0.17-1-0.17c-0.24,0-0.48,0.01-0.7,0.03c-0.23,0.01-0.46,0.08-0.7,0.18c-0.29,0.12-0.54,0.31-0.74,0.55
	c-0.2,0.24-0.3,0.54-0.3,0.88c0,0.49,0.17,0.82,0.51,1.01c0.34,0.18,0.69,0.3,1.06,0.35c0.31,0.04,0.57,0.06,0.78,0.09
	c0.21,0.03,0.42,0.05,0.62,0.08c0.21,0.03,0.43,0.06,0.65,0.09c0.23,0.03,0.5,0.08,0.83,0.13c1.08,0.17,1.96,0.58,2.66,1.24
	C157.79,18.28,158.14,19.14,158.14,20.22"/>
<path class="st2" d="M182.71,20.45c0,0.54-0.1,1.07-0.3,1.57c-0.2,0.5-0.52,0.93-0.96,1.28c-0.49,0.4-1.04,0.66-1.63,0.78
	c-0.6,0.12-1.2,0.17-1.82,0.17h-4.87V10.5H178c0.52,0,1.03,0.05,1.55,0.15c0.52,0.1,0.99,0.29,1.43,0.59
	c0.44,0.3,0.79,0.68,1.04,1.16c0.25,0.47,0.38,0.97,0.38,1.49c0,0.75-0.17,1.42-0.5,2.01c-0.34,0.59-0.9,0.99-1.69,1.21
	c0.85,0.21,1.49,0.62,1.89,1.24S182.71,19.67,182.71,20.45 M181.37,13.96c0-0.48-0.1-0.88-0.29-1.21c-0.19-0.32-0.45-0.58-0.77-0.78
	c-0.32-0.2-0.68-0.33-1.09-0.41c-0.41-0.08-0.82-0.12-1.24-0.12h-3.87v5.16h3.87c0.48,0,0.92-0.04,1.33-0.11
	c0.41-0.07,0.76-0.2,1.07-0.4c0.31-0.19,0.54-0.46,0.72-0.81C181.28,14.95,181.37,14.51,181.37,13.96 M181.68,20.37
	c0-0.57-0.1-1.03-0.29-1.4c-0.2-0.36-0.46-0.65-0.8-0.85c-0.34-0.21-0.73-0.35-1.18-0.44c-0.45-0.08-0.92-0.13-1.43-0.13h-3.87v5.74
	h3.87c0.47,0,0.92-0.04,1.37-0.12c0.45-0.08,0.84-0.23,1.18-0.45c0.35-0.21,0.62-0.51,0.83-0.89
	C181.58,21.46,181.68,20.97,181.68,20.37"/>
<path class="st2" d="M192.57,19.4c0,0.83-0.1,1.57-0.31,2.21c-0.21,0.65-0.56,1.22-1.07,1.73c-0.34,0.34-0.74,0.61-1.21,0.83
	c-0.47,0.22-1.01,0.33-1.62,0.33c-0.61,0-1.15-0.11-1.62-0.33c-0.47-0.22-0.88-0.5-1.21-0.83c-0.5-0.5-0.86-1.08-1.07-1.73
	c-0.21-0.65-0.31-1.38-0.31-2.21c0-0.83,0.1-1.56,0.31-2.21c0.21-0.65,0.56-1.22,1.07-1.73c0.34-0.34,0.74-0.61,1.21-0.83
	c0.47-0.22,1.01-0.33,1.62-0.33c0.61,0,1.15,0.11,1.62,0.33c0.47,0.22,0.88,0.5,1.21,0.83c0.5,0.5,0.86,1.08,1.07,1.73
	C192.46,17.84,192.57,18.58,192.57,19.4 M191.58,19.4c0-0.63-0.07-1.23-0.21-1.78s-0.43-1.06-0.87-1.51
	c-0.26-0.26-0.56-0.46-0.91-0.62c-0.35-0.15-0.76-0.23-1.22-0.23c-0.47,0-0.87,0.08-1.22,0.23c-0.35,0.16-0.65,0.36-0.91,0.62
	c-0.44,0.45-0.73,0.96-0.87,1.51c-0.14,0.56-0.21,1.15-0.21,1.78c0,0.63,0.07,1.23,0.21,1.79c0.14,0.56,0.43,1.06,0.87,1.51
	c0.26,0.26,0.56,0.46,0.91,0.62c0.35,0.15,0.76,0.23,1.22,0.23c0.46,0,0.87-0.08,1.22-0.23c0.35-0.16,0.65-0.36,0.91-0.62
	c0.44-0.45,0.73-0.96,0.87-1.51S191.58,20.04,191.58,19.4"/>
<path class="st2" d="M201.47,24.25v-6.34c0-0.85-0.19-1.51-0.58-1.97c-0.39-0.46-1.02-0.69-1.91-0.69c-0.59,0-1.09,0.12-1.5,0.35
	c-0.41,0.23-0.74,0.54-0.99,0.93c-0.25,0.39-0.43,0.83-0.54,1.33c-0.11,0.5-0.16,1.01-0.16,1.54v4.85h-0.99v-9.7h0.87l0.12,1.76
	c0.14-0.31,0.33-0.59,0.55-0.83c0.23-0.24,0.48-0.46,0.77-0.63c0.29-0.17,0.6-0.31,0.94-0.41c0.34-0.1,0.67-0.15,1.01-0.15
	c1.12,0,1.97,0.32,2.54,0.95c0.57,0.63,0.86,1.5,0.86,2.6v6.4H201.47z"/>
<path class="st2" d="M210.36,15.5c-0.16-0.04-0.31-0.06-0.48-0.08c-0.16-0.01-0.32-0.02-0.48-0.02c-0.61,0-1.11,0.12-1.5,0.37
	c-0.39,0.24-0.71,0.57-0.94,0.97s-0.4,0.85-0.49,1.36c-0.1,0.5-0.14,1.01-0.14,1.51v4.65h-0.99v-9.7h0.87l0.12,1.96
	c0.22-0.67,0.62-1.18,1.19-1.53c0.57-0.35,1.21-0.52,1.89-0.52c0.15,0,0.31,0,0.48,0.01c0.16,0.01,0.32,0.02,0.48,0.05V15.5z"/>
<path class="st2" d="M219.32,19c0,0.12,0,0.22-0.01,0.32c-0.01,0.1-0.01,0.2-0.01,0.32h-7.41c0.01,0.57,0.11,1.1,0.28,1.59
	c0.17,0.5,0.42,0.93,0.73,1.3c0.27,0.32,0.6,0.57,0.98,0.75c0.38,0.18,0.84,0.27,1.37,0.27c0.87,0,1.57-0.29,2.11-0.85
	c0.18-0.18,0.33-0.38,0.46-0.6c0.12-0.22,0.22-0.48,0.28-0.77h1.01c-0.06,0.41-0.19,0.79-0.39,1.13c-0.19,0.34-0.43,0.64-0.7,0.9
	c-0.35,0.36-0.76,0.63-1.23,0.84c-0.47,0.2-0.99,0.31-1.54,0.31c-0.7,0-1.3-0.13-1.8-0.39c-0.5-0.26-0.93-0.59-1.28-0.99
	c-0.4-0.46-0.71-1.01-0.92-1.64c-0.21-0.63-0.32-1.31-0.32-2.05c0-0.62,0.07-1.22,0.2-1.8c0.13-0.58,0.38-1.13,0.76-1.65
	c0.83-1.12,1.93-1.69,3.3-1.69c0.66,0,1.24,0.13,1.76,0.39c0.51,0.26,0.94,0.61,1.3,1.04c0.36,0.43,0.63,0.94,0.82,1.5
	C219.22,17.8,219.32,18.39,219.32,19 M218.33,18.74c-0.01-0.46-0.09-0.91-0.23-1.33c-0.14-0.42-0.35-0.8-0.62-1.12
	c-0.27-0.33-0.6-0.59-0.99-0.79s-0.83-0.29-1.32-0.29c-0.51,0-0.96,0.09-1.36,0.28c-0.4,0.19-0.74,0.44-1.02,0.77
	c-0.28,0.32-0.5,0.7-0.65,1.12c-0.15,0.43-0.23,0.88-0.23,1.36H218.33z"/>
<path class="st2" d="M229.79,19.38c0,0.8-0.12,1.57-0.37,2.29c-0.25,0.72-0.63,1.33-1.14,1.82c-0.32,0.31-0.7,0.56-1.13,0.74
	c-0.43,0.18-0.93,0.27-1.5,0.27c-0.35,0-0.69-0.05-1.02-0.14c-0.33-0.09-0.63-0.22-0.92-0.39c-0.28-0.17-0.54-0.37-0.76-0.6
	c-0.23-0.23-0.4-0.49-0.53-0.76v5.51h-0.99V14.55h0.87l0.12,1.71c0.13-0.3,0.31-0.57,0.54-0.82c0.23-0.24,0.49-0.45,0.77-0.62
	c0.28-0.17,0.59-0.3,0.92-0.39c0.33-0.09,0.65-0.14,0.98-0.14c0.55,0,1.04,0.08,1.46,0.24c0.42,0.16,0.79,0.39,1.11,0.67
	c0.54,0.48,0.94,1.08,1.2,1.81C229.66,17.76,229.79,18.54,229.79,19.38 M228.8,19.4c0-0.7-0.1-1.35-0.3-1.96
	c-0.2-0.61-0.53-1.11-0.98-1.51c-0.25-0.22-0.52-0.39-0.83-0.5c-0.31-0.12-0.67-0.17-1.08-0.17c-0.43,0-0.8,0.07-1.12,0.21
	c-0.32,0.14-0.61,0.33-0.85,0.56c-0.44,0.43-0.76,0.93-0.95,1.5c-0.19,0.58-0.29,1.2-0.29,1.87c0,0.72,0.09,1.37,0.27,1.93
	c0.18,0.56,0.5,1.05,0.95,1.46c0.24,0.23,0.53,0.42,0.86,0.55c0.33,0.14,0.72,0.2,1.17,0.2c0.45,0,0.84-0.08,1.18-0.23
	c0.34-0.16,0.63-0.36,0.89-0.62c0.37-0.41,0.65-0.91,0.82-1.49S228.8,20.02,228.8,19.4"/>
<path class="st2" d="M239.57,19.4c0,0.83-0.1,1.57-0.31,2.21c-0.21,0.65-0.56,1.22-1.07,1.73c-0.34,0.34-0.74,0.61-1.21,0.83
	c-0.47,0.22-1.01,0.33-1.62,0.33c-0.61,0-1.15-0.11-1.62-0.33c-0.47-0.22-0.88-0.5-1.21-0.83c-0.5-0.5-0.86-1.08-1.07-1.73
	c-0.21-0.65-0.31-1.38-0.31-2.21s0.1-1.57,0.31-2.21c0.21-0.65,0.56-1.22,1.07-1.73c0.34-0.34,0.74-0.61,1.21-0.83
	c0.47-0.22,1.01-0.33,1.62-0.33c0.61,0,1.15,0.11,1.62,0.33c0.47,0.22,0.88,0.5,1.21,0.83c0.51,0.5,0.86,1.08,1.07,1.73
	C239.47,17.84,239.57,18.58,239.57,19.4 M238.58,19.4c0-0.63-0.07-1.23-0.21-1.79c-0.14-0.56-0.43-1.06-0.87-1.51
	c-0.26-0.26-0.56-0.47-0.91-0.62s-0.76-0.23-1.22-0.23c-0.47,0-0.87,0.08-1.22,0.23c-0.35,0.15-0.65,0.36-0.91,0.62
	c-0.44,0.45-0.73,0.96-0.87,1.51c-0.14,0.56-0.21,1.15-0.21,1.79s0.07,1.23,0.21,1.79c0.14,0.56,0.43,1.06,0.87,1.51
	c0.26,0.26,0.56,0.47,0.91,0.62c0.35,0.16,0.76,0.23,1.22,0.23c0.46,0,0.87-0.08,1.22-0.23c0.35-0.15,0.65-0.36,0.91-0.62
	c0.44-0.45,0.73-0.96,0.87-1.51C238.51,20.63,238.58,20.04,238.58,19.4 M236.74,13.25l-3.26-1.92l0.52-0.85l3.07,2.25L236.74,13.25z
	"/>
<path class="st2" d="M248.73,21.56c0,0.69-0.22,1.28-0.66,1.79c-0.35,0.39-0.8,0.68-1.35,0.87c-0.55,0.19-1.15,0.29-1.79,0.29
	c-0.66,0-1.26-0.11-1.8-0.32c-0.54-0.21-1-0.53-1.38-0.94c-0.27-0.31-0.47-0.61-0.59-0.91c-0.12-0.3-0.2-0.65-0.22-1.05h0.99
	c0.05,0.57,0.29,1.07,0.72,1.49c0.28,0.27,0.62,0.47,1.01,0.59c0.39,0.12,0.82,0.18,1.28,0.18c0.5,0,0.95-0.06,1.34-0.17
	c0.39-0.12,0.71-0.3,0.95-0.54c0.18-0.18,0.31-0.36,0.4-0.54c0.08-0.18,0.13-0.41,0.13-0.7c0-0.44-0.15-0.82-0.46-1.15
	c-0.3-0.33-0.75-0.53-1.33-0.61l-1.88-0.25c-0.4-0.05-0.8-0.15-1.19-0.29c-0.39-0.14-0.73-0.37-1-0.68
	c-0.36-0.43-0.54-0.94-0.54-1.53c0-0.39,0.08-0.74,0.22-1.05c0.15-0.32,0.35-0.59,0.61-0.82c0.35-0.32,0.75-0.56,1.21-0.7
	c0.46-0.14,0.94-0.21,1.45-0.21c0.58,0,1.13,0.09,1.65,0.28c0.52,0.19,0.94,0.48,1.28,0.86c0.22,0.26,0.39,0.54,0.52,0.85
	c0.13,0.31,0.2,0.62,0.21,0.93h-0.97c-0.03-0.16-0.07-0.34-0.15-0.56c-0.07-0.22-0.18-0.42-0.34-0.6c-0.22-0.26-0.52-0.47-0.89-0.62
	c-0.37-0.15-0.81-0.23-1.32-0.23c-0.75,0-1.33,0.15-1.75,0.45c-0.51,0.36-0.76,0.81-0.76,1.34c0,0.41,0.13,0.76,0.39,1.05
	c0.26,0.28,0.76,0.48,1.49,0.58l1.84,0.25c0.45,0.06,0.85,0.18,1.18,0.36c0.33,0.17,0.61,0.39,0.83,0.63
	c0.22,0.25,0.38,0.51,0.49,0.8C248.67,20.96,248.73,21.26,248.73,21.56"/>
<path class="st2" d="M254.28,10.5h1.36v1.36h-1.36V10.5z M254.45,14.55h1.03v9.7h-1.03V14.55z"/>
<polygon class="st2" points="274.12,24.25 274.12,11.95 269.1,24.06 268.2,24.06 263.18,12.05 263.18,24.25 262.19,24.25
	262.19,10.5 263.61,10.5 268.69,22.72 273.68,10.5 275.11,10.5 275.11,24.25 "/>
<path class="st2" d="M278.27,10.5h1.36v1.36h-1.36V10.5z M278.45,14.55h1.03v9.7h-1.03V14.55z"/>
<path class="st2" d="M287.64,15.5c-0.16-0.04-0.31-0.06-0.48-0.08c-0.16-0.01-0.32-0.02-0.48-0.02c-0.61,0-1.11,0.12-1.5,0.37
	c-0.4,0.24-0.71,0.57-0.94,0.97s-0.4,0.85-0.49,1.36c-0.1,0.5-0.14,1.01-0.14,1.51v4.65h-0.99v-9.7h0.87l0.12,1.96
	c0.22-0.67,0.62-1.18,1.19-1.53c0.57-0.35,1.21-0.52,1.89-0.52c0.16,0,0.31,0,0.48,0.01c0.16,0.01,0.32,0.02,0.48,0.05V15.5z"/>
<path class="st2" d="M297.09,24.25c-0.12,0.03-0.19,0.04-0.23,0.05c-0.04,0.01-0.12,0.01-0.23,0.01c-0.6,0-1.01-0.19-1.23-0.56
	c-0.22-0.38-0.33-0.82-0.33-1.34c-0.13,0.35-0.31,0.65-0.55,0.91c-0.24,0.26-0.51,0.48-0.82,0.65c-0.31,0.17-0.65,0.31-1.01,0.4
	c-0.36,0.09-0.73,0.14-1.11,0.14c-0.47,0-0.9-0.07-1.31-0.2c-0.41-0.14-0.76-0.33-1.07-0.59c-0.3-0.26-0.54-0.57-0.71-0.94
	c-0.17-0.37-0.25-0.79-0.25-1.25c0-0.87,0.3-1.55,0.9-2.05c0.6-0.5,1.39-0.78,2.36-0.84l3.57-0.25v-0.95c0-0.8-0.24-1.37-0.73-1.71
	s-1.09-0.51-1.83-0.51c-0.77,0-1.42,0.18-1.93,0.52c-0.52,0.35-0.8,0.89-0.85,1.61h-0.99c0.04-0.49,0.16-0.92,0.36-1.3
	c0.2-0.38,0.47-0.69,0.8-0.95c0.33-0.26,0.72-0.46,1.17-0.59c0.45-0.14,0.93-0.2,1.45-0.2c0.34,0,0.67,0.03,1,0.09
	c0.33,0.06,0.65,0.16,0.94,0.3c0.3,0.14,0.57,0.33,0.8,0.55c0.23,0.23,0.41,0.51,0.55,0.84c0.12,0.3,0.19,0.6,0.21,0.91
	c0.03,0.31,0.04,0.63,0.04,0.95v4.42c0,0.34,0.04,0.6,0.13,0.78c0.08,0.18,0.29,0.27,0.63,0.27c0.12,0,0.21-0.01,0.27-0.02V24.25z
	 M295.07,19.27l-3.47,0.21c-0.73,0.05-1.3,0.26-1.73,0.61c-0.43,0.36-0.64,0.83-0.64,1.42c0,0.7,0.23,1.22,0.69,1.57
	c0.46,0.35,1.04,0.52,1.74,0.52c0.61,0,1.13-0.11,1.56-0.34c0.43-0.23,0.79-0.52,1.06-0.88c0.27-0.36,0.47-0.77,0.6-1.23
	c0.13-0.46,0.19-0.92,0.19-1.39V19.27z"/>
<path class="st2" d="M311.51,24.25v-6.34c0-0.84-0.18-1.5-0.52-1.98c-0.35-0.48-0.95-0.72-1.79-0.72c-0.38,0-0.7,0.06-0.98,0.17
	c-0.28,0.12-0.53,0.28-0.75,0.49c-0.38,0.36-0.66,0.79-0.85,1.28c-0.19,0.49-0.29,1.03-0.29,1.61v5.49h-0.99v-6.34
	c0-0.84-0.18-1.5-0.53-1.98c-0.36-0.48-0.95-0.72-1.79-0.72c-0.37,0-0.7,0.06-0.98,0.17c-0.28,0.12-0.52,0.28-0.74,0.49
	c-0.44,0.41-0.74,0.93-0.91,1.55c-0.17,0.62-0.25,1.28-0.25,1.98v4.85h-0.99v-9.7h0.87l0.12,1.67c0.26-0.55,0.64-1.02,1.14-1.38
	c0.5-0.36,1.1-0.54,1.8-0.54c0.85,0,1.52,0.19,2.02,0.57c0.5,0.38,0.84,0.89,1.04,1.52c0.26-0.61,0.65-1.11,1.16-1.5
	c0.51-0.39,1.17-0.59,1.98-0.59c0.57,0,1.06,0.09,1.47,0.26c0.41,0.17,0.74,0.42,1,0.74c0.26,0.32,0.45,0.69,0.57,1.12
	c0.12,0.43,0.18,0.91,0.18,1.43v6.4H311.51z"/>
<path class="st2" d="M323.71,19.42c0,0.84-0.13,1.63-0.39,2.36c-0.26,0.73-0.66,1.34-1.2,1.81c-0.32,0.29-0.69,0.51-1.11,0.67
	c-0.42,0.16-0.91,0.24-1.46,0.24c-0.32,0-0.65-0.05-0.98-0.14c-0.33-0.09-0.64-0.22-0.92-0.39c-0.28-0.17-0.54-0.37-0.77-0.62
	c-0.23-0.25-0.41-0.52-0.54-0.82l-0.12,1.71h-0.87V10.25h0.99l-0.02,5.94c0.13-0.27,0.31-0.52,0.53-0.76
	c0.23-0.23,0.48-0.43,0.77-0.6c0.28-0.17,0.59-0.3,0.92-0.39c0.33-0.09,0.67-0.14,1.02-0.14c0.57,0,1.07,0.09,1.5,0.27
	c0.43,0.18,0.81,0.43,1.14,0.74c0.52,0.49,0.9,1.1,1.14,1.82C323.58,17.86,323.71,18.62,323.71,19.42 M322.72,19.4
	c0-0.62-0.09-1.22-0.26-1.8c-0.17-0.58-0.45-1.08-0.82-1.49c-0.26-0.26-0.55-0.46-0.89-0.62c-0.33-0.15-0.73-0.23-1.18-0.23
	c-0.45,0-0.84,0.07-1.17,0.2c-0.33,0.14-0.62,0.32-0.86,0.55c-0.45,0.41-0.77,0.9-0.95,1.46c-0.18,0.56-0.27,1.21-0.27,1.93
	c0,0.67,0.1,1.3,0.29,1.87c0.19,0.58,0.51,1.08,0.95,1.5c0.25,0.23,0.53,0.42,0.85,0.56c0.32,0.14,0.7,0.21,1.12,0.21
	c0.41,0,0.77-0.06,1.08-0.17c0.31-0.12,0.59-0.29,0.83-0.5c0.45-0.4,0.78-0.9,0.98-1.51C322.62,20.76,322.72,20.1,322.72,19.4"/>
<path class="st2" d="M333.47,19c0,0.12,0,0.22-0.01,0.32c-0.01,0.1-0.01,0.2-0.01,0.32h-7.41c0.01,0.57,0.11,1.1,0.28,1.59
	c0.17,0.5,0.42,0.93,0.73,1.3c0.27,0.32,0.6,0.57,0.98,0.75c0.38,0.18,0.84,0.27,1.37,0.27c0.87,0,1.57-0.29,2.12-0.85
	c0.18-0.18,0.33-0.38,0.46-0.6c0.12-0.22,0.22-0.48,0.28-0.77h1.01c-0.06,0.41-0.19,0.79-0.39,1.13c-0.19,0.34-0.43,0.64-0.7,0.9
	c-0.35,0.36-0.76,0.63-1.23,0.84c-0.47,0.2-0.99,0.31-1.54,0.31c-0.7,0-1.3-0.13-1.8-0.39c-0.5-0.26-0.93-0.59-1.28-0.99
	c-0.4-0.46-0.71-1.01-0.92-1.64c-0.21-0.63-0.32-1.31-0.32-2.05c0-0.62,0.06-1.22,0.19-1.8c0.13-0.58,0.38-1.13,0.76-1.65
	c0.83-1.12,1.93-1.69,3.3-1.69c0.66,0,1.24,0.13,1.76,0.39c0.51,0.26,0.95,0.61,1.3,1.04c0.36,0.43,0.63,0.94,0.82,1.5
	C333.37,17.8,333.47,18.39,333.47,19 M332.48,18.74c-0.01-0.46-0.09-0.91-0.23-1.33c-0.14-0.42-0.35-0.8-0.62-1.12
	c-0.27-0.33-0.6-0.59-0.99-0.79s-0.83-0.29-1.32-0.29c-0.51,0-0.96,0.09-1.36,0.28c-0.4,0.19-0.74,0.44-1.02,0.77
	c-0.28,0.32-0.5,0.7-0.65,1.12c-0.15,0.43-0.23,0.88-0.23,1.36H332.48z"/>
<path class="st2" d="M338.36,24.25c-0.1,0.03-0.22,0.05-0.36,0.08c-0.14,0.03-0.31,0.04-0.51,0.04c-0.62,0-1.1-0.16-1.45-0.5
	c-0.34-0.33-0.51-0.85-0.51-1.56V10.25h0.99v12.01c0,0.33,0.06,0.61,0.19,0.83c0.13,0.22,0.4,0.33,0.82,0.33h0.45
	c0.11,0,0.24-0.01,0.38-0.04V24.25z"/>
<path class="st2" d="M342.99,24.25c-0.1,0.03-0.22,0.05-0.36,0.08c-0.14,0.03-0.31,0.04-0.52,0.04c-0.62,0-1.1-0.16-1.44-0.5
	c-0.34-0.33-0.51-0.85-0.51-1.56V10.25h0.99v12.01c0,0.33,0.06,0.61,0.19,0.83c0.13,0.22,0.4,0.33,0.82,0.33h0.45
	c0.11,0,0.24-0.01,0.38-0.04V24.25z"/>
<line class="st3" x1="165.01" y1="3.59" x2="165.01" y2="31.05"/>
<rect x="0" class="st4" width="342.99" height="34.64"/>
</svg>
