<svg version="1.1" xmlns="http://www.w3.org/2000/svg" xmlns:xlink="http://www.w3.org/1999/xlink" x="0px" y="0px"
	 width="225.28px" height="52.96px" viewBox="0 0 225.28 52.96" style="enable-background:new 0 0 225.28 52.96;"
	 xml:space="preserve">
<style type="text/css">
	.st0{clip-path:url(#SVGID_2_);fill:url(#SVGID_3_);}
	.st1{fill:#27292E;}
	.st2{fill:#898E91;}
	.st3{fill:none;}
	.st4{clip-path:url(#SVGID_5_);fill:url(#SVGID_6_);}
</style>
<defs>
</defs>
<g>
	<defs>
		<path id="SVGID_1_" d="M32.96,22.73l1.51,1.92c-3.92,3.25-8.34,4.92-13.75,4.92s-9.84-1.68-13.75-4.92l1.5-1.92
			c3.88,2.76,7.06,4.03,12.25,4.03C25.9,26.77,29.08,25.5,32.96,22.73 M13.28,10.67h4.28v4.09h-3.94c-2.47,0-4.08-0.6-5.13-2.98
			l1.65-0.95c0.74,1.52,1.65,1.87,3.15,1.87V10.67z M23.74,10.67h4.28v4.09h-4.28V10.67z M1.91,0C0.86,0,0,0.82,0,1.83v35.45
			c0,1.01,0.86,1.83,1.91,1.83h37.14c1.05,0,1.91-0.82,1.91-1.83V1.83c0-1.01-0.86-1.83-1.91-1.83H1.91z"/>
	</defs>
	<clipPath id="SVGID_2_">
		<use xlink:href="#SVGID_1_"  style="overflow:visible;"/>
	</clipPath>

		<linearGradient id="SVGID_3_" gradientUnits="userSpaceOnUse" x1="-501.059" y1="319.606" x2="-500.059" y2="319.606" gradientTransform="matrix(0 39.5364 39.5364 0 -12615.5869 19809.8652)">
		<stop  offset="0" style="stop-color:#E18433"/>
		<stop  offset="0.2756" style="stop-color:#DE7833"/>
		<stop  offset="0.8103" style="stop-color:#D85933"/>
		<stop  offset="1" style="stop-color:#D54B32"/>
	</linearGradient>
	<rect y="0" class="st0" width="40.97" height="39.11"/>
</g>
<path class="st1" d="M66.97,22.4c-0.05,0.77-0.2,1.52-0.44,2.25c-0.25,0.73-0.59,1.38-1.04,1.95c-0.67,0.84-1.57,1.56-2.69,2.15
	c-1.13,0.59-2.43,0.89-3.91,0.89c-1.49,0-2.81-0.3-3.97-0.91c-1.16-0.61-2.08-1.32-2.75-2.13c-0.72-0.92-1.25-1.97-1.6-3.16
	c-0.35-1.19-0.52-2.48-0.52-3.9c0-1.41,0.17-2.71,0.52-3.89c0.35-1.19,0.88-2.24,1.6-3.15c0.67-0.82,1.58-1.52,2.75-2.13
	c1.16-0.61,2.48-0.91,3.97-0.91c1.48,0,2.79,0.3,3.91,0.89c1.13,0.59,2.02,1.31,2.69,2.15c0.45,0.57,0.79,1.22,1.04,1.95
	c0.24,0.73,0.39,1.48,0.44,2.24H62.4c-0.02-0.34-0.09-0.66-0.19-0.95c-0.1-0.29-0.22-0.56-0.37-0.81c-0.27-0.41-0.66-0.76-1.15-1.02
	c-0.5-0.27-1.1-0.41-1.82-0.41c-0.65,0-1.19,0.11-1.65,0.33c-0.46,0.22-0.85,0.5-1.16,0.85c-0.57,0.61-0.93,1.36-1.08,2.22
	c-0.15,0.86-0.22,1.74-0.22,2.65c0,0.92,0.07,1.79,0.22,2.64c0.15,0.85,0.51,1.58,1.08,2.2c0.32,0.34,0.71,0.63,1.16,0.86
	c0.46,0.24,1.01,0.35,1.65,0.35c0.72,0,1.32-0.13,1.82-0.4c0.49-0.27,0.88-0.61,1.15-1.02c0.15-0.25,0.27-0.52,0.37-0.81
	c0.1-0.3,0.16-0.61,0.19-0.96H66.97z"/>
<path class="st1" d="M85.82,19.58c0,1.63-0.2,3-0.59,4.1c-0.4,1.1-0.95,2.11-1.67,3.02c-0.66,0.82-1.59,1.52-2.76,2.12
	c-1.18,0.59-2.51,0.89-3.99,0.89c-1.49,0-2.81-0.3-3.99-0.89c-1.17-0.59-2.1-1.3-2.76-2.12c-0.72-0.91-1.28-1.92-1.67-3.02
	c-0.4-1.1-0.59-2.47-0.59-4.1c0-1.63,0.2-3,0.59-4.1c0.39-1.1,0.95-2.11,1.67-3.03c0.67-0.82,1.59-1.52,2.76-2.11
	c1.18-0.59,2.51-0.89,3.99-0.89c1.48,0,2.81,0.3,3.99,0.89c1.17,0.59,2.1,1.3,2.76,2.11c0.72,0.91,1.28,1.92,1.67,3.03
	C85.62,16.59,85.82,17.95,85.82,19.58 M81.11,19.58c0-0.92-0.09-1.8-0.26-2.65c-0.18-0.85-0.55-1.59-1.11-2.21
	c-0.32-0.35-0.73-0.64-1.23-0.88c-0.49-0.23-1.06-0.35-1.71-0.35c-0.64,0-1.21,0.12-1.71,0.35c-0.49,0.24-0.9,0.53-1.23,0.88
	c-0.57,0.62-0.94,1.35-1.11,2.21c-0.17,0.85-0.26,1.74-0.26,2.65c0,0.91,0.09,1.8,0.26,2.65c0.18,0.85,0.55,1.59,1.11,2.21
	c0.32,0.35,0.73,0.64,1.23,0.87c0.5,0.23,1.06,0.35,1.71,0.35c0.64,0,1.21-0.12,1.71-0.35c0.5-0.24,0.9-0.52,1.23-0.87
	c0.57-0.62,0.93-1.35,1.11-2.21C81.02,21.38,81.11,20.5,81.11,19.58"/>
<path class="st1" d="M111.06,29.23V17.24c0-1.18-0.21-2.11-0.62-2.76c-0.4-0.66-1.19-0.99-2.35-0.99c-0.67,0-1.24,0.16-1.71,0.47
	c-0.46,0.31-0.86,0.72-1.17,1.22c-0.31,0.51-0.54,1.07-0.69,1.69c-0.15,0.62-0.22,1.22-0.22,1.82v10.54h-4.6V17.24
	c0-1.18-0.2-2.11-0.61-2.76c-0.41-0.66-1.19-0.99-2.36-0.99c-0.67,0-1.24,0.16-1.7,0.47c-0.47,0.31-0.87,0.72-1.19,1.22
	c-0.32,0.51-0.56,1.07-0.71,1.69c-0.15,0.62-0.22,1.22-0.22,1.82v10.54h-4.6V9.93h3.86l0.37,2.56c0.54-0.89,1.27-1.62,2.19-2.19
	c0.91-0.57,2.02-0.86,3.3-0.86c1.36,0,2.5,0.27,3.41,0.84c0.92,0.55,1.62,1.33,2.12,2.31c0.57-1.01,1.36-1.79,2.36-2.33
	c1-0.54,2.16-0.82,3.47-0.82c2.08,0,3.65,0.63,4.69,1.87c1.05,1.25,1.58,2.88,1.58,4.88v13.03H111.06z"/>
<path class="st1" d="M137.04,19.54c0,3.84-1.15,6.71-3.45,8.61c-0.59,0.5-1.28,0.88-2.06,1.15c-0.78,0.27-1.66,0.4-2.65,0.4
	c-1.17,0-2.19-0.18-3.06-0.53c-0.88-0.36-1.54-0.81-1.99-1.36v8.8h-4.64V9.93h4.01l0.3,2.12c0.57-0.89,1.35-1.54,2.34-1.95
	c0.99-0.41,2.02-0.61,3.08-0.61c0.96,0,1.84,0.15,2.61,0.45c0.78,0.3,1.47,0.69,2.06,1.19c1.16,0.94,2.03,2.12,2.6,3.54
	C136.75,16.09,137.04,17.71,137.04,19.54 M132.32,19.62c0-0.84-0.08-1.67-0.24-2.5c-0.16-0.83-0.49-1.57-0.98-2.21
	c-0.35-0.42-0.77-0.78-1.28-1.07c-0.51-0.3-1.12-0.45-1.84-0.45c-0.92,0-1.66,0.19-2.23,0.58c-0.57,0.38-1.01,0.88-1.34,1.48
	c-0.32,0.61-0.54,1.28-0.65,2.02c-0.11,0.74-0.17,1.46-0.17,2.15c0,0.7,0.06,1.41,0.17,2.14c0.11,0.73,0.33,1.4,0.65,2
	c0.33,0.61,0.77,1.1,1.34,1.49c0.57,0.38,1.31,0.58,2.23,0.58c0.72,0,1.33-0.15,1.84-0.45c0.51-0.3,0.93-0.66,1.28-1.08
	c0.5-0.64,0.82-1.37,0.98-2.19C132.24,21.29,132.32,20.46,132.32,19.62"/>
<path class="st1" d="M150.8,14.2c-0.57-0.12-1.1-0.18-1.6-0.18c-1.63,0-2.87,0.52-3.71,1.56c-0.84,1.04-1.26,2.34-1.26,3.9v9.75
	h-4.72V9.93h3.96l0.41,2.87c0.45-1.1,1.18-1.9,2.21-2.39c1.03-0.49,2.11-0.74,3.25-0.74c0.49,0,0.98,0.03,1.45,0.11V14.2z"/>
<path class="st1" d="M168.25,19.58c0,1.63-0.2,3-0.59,4.1c-0.4,1.1-0.95,2.11-1.67,3.02c-0.67,0.82-1.59,1.52-2.76,2.12
	c-1.18,0.59-2.51,0.89-3.99,0.89c-1.48,0-2.81-0.3-3.99-0.89c-1.18-0.59-2.1-1.3-2.77-2.12c-0.72-0.91-1.28-1.92-1.67-3.02
	c-0.39-1.1-0.59-2.47-0.59-4.1c0-1.63,0.2-3,0.59-4.1c0.39-1.1,0.95-2.11,1.67-3.03c0.67-0.82,1.59-1.52,2.77-2.11
	c1.17-0.59,2.5-0.89,3.99-0.89c1.49,0,2.82,0.3,3.99,0.89c1.17,0.59,2.1,1.3,2.76,2.11c0.72,0.91,1.27,1.92,1.67,3.03
	C168.05,16.59,168.25,17.95,168.25,19.58 M163.53,19.58c0-0.92-0.09-1.8-0.26-2.65c-0.17-0.85-0.55-1.59-1.12-2.21
	c-0.32-0.35-0.73-0.64-1.22-0.88c-0.5-0.23-1.06-0.35-1.71-0.35c-0.64,0-1.21,0.12-1.7,0.35c-0.49,0.24-0.9,0.53-1.23,0.88
	c-0.57,0.62-0.94,1.35-1.11,2.21c-0.17,0.85-0.26,1.74-0.26,2.65c0,0.91,0.09,1.8,0.26,2.65c0.17,0.85,0.54,1.59,1.11,2.21
	c0.32,0.35,0.73,0.64,1.23,0.87c0.49,0.23,1.06,0.35,1.7,0.35c0.64,0,1.21-0.12,1.71-0.35c0.49-0.24,0.91-0.52,1.22-0.87
	c0.57-0.62,0.94-1.35,1.12-2.21C163.45,21.38,163.53,20.5,163.53,19.58"/>
<path class="st1" d="M193.48,29.23V17.24c0-1.18-0.21-2.11-0.61-2.76c-0.41-0.66-1.2-0.99-2.36-0.99c-0.67,0-1.24,0.16-1.71,0.47
	c-0.47,0.31-0.86,0.72-1.17,1.22c-0.31,0.51-0.54,1.07-0.68,1.69c-0.15,0.62-0.22,1.22-0.22,1.82v10.54h-4.6V17.24
	c0-1.18-0.2-2.11-0.61-2.76c-0.41-0.66-1.2-0.99-2.36-0.99c-0.67,0-1.24,0.16-1.71,0.47c-0.47,0.31-0.87,0.72-1.19,1.22
	c-0.32,0.51-0.55,1.07-0.7,1.69c-0.15,0.62-0.23,1.22-0.23,1.82v10.54h-4.6V9.93h3.86l0.38,2.56c0.54-0.89,1.27-1.62,2.19-2.19
	c0.92-0.57,2.02-0.86,3.3-0.86c1.36,0,2.5,0.27,3.41,0.84c0.92,0.55,1.62,1.33,2.12,2.31c0.57-1.01,1.35-1.79,2.35-2.33
	c1-0.54,2.16-0.82,3.47-0.82c2.08,0,3.65,0.63,4.7,1.87c1.05,1.25,1.58,2.88,1.58,4.88v13.03H193.48z"/>
<path class="st1" d="M200.94,8.15l-1.33-2.23l6.09-4.71l1.85,3.12L200.94,8.15z M201.68,9.93h4.71v19.3h-4.71V9.93z"/>
<path class="st1" d="M225.25,23.26c0,0.94-0.15,1.76-0.46,2.45c-0.31,0.69-0.71,1.29-1.21,1.78c-0.79,0.8-1.76,1.36-2.9,1.71
	c-1.14,0.35-2.38,0.52-3.71,0.52c-1.24,0-2.39-0.18-3.45-0.54c-1.07-0.36-1.99-0.92-2.78-1.69c-0.57-0.54-1.05-1.2-1.45-1.97
	c-0.4-0.77-0.59-1.6-0.59-2.52h4.34c0,0.42,0.09,0.84,0.29,1.26c0.2,0.42,0.45,0.76,0.74,1c0.37,0.3,0.78,0.51,1.25,0.65
	c0.46,0.14,1.02,0.21,1.69,0.21c0.39,0,0.82-0.03,1.28-0.1c0.45-0.06,0.88-0.18,1.28-0.35c0.4-0.17,0.72-0.42,0.98-0.74
	c0.26-0.32,0.39-0.74,0.39-1.26c0-0.57-0.17-1.03-0.52-1.38c-0.34-0.34-0.81-0.57-1.41-0.66c-0.87-0.12-1.76-0.23-2.67-0.32
	c-0.92-0.08-1.8-0.23-2.67-0.43c-0.67-0.15-1.27-0.38-1.8-0.71c-0.53-0.32-1-0.71-1.39-1.17c-0.4-0.46-0.7-0.96-0.91-1.52
	c-0.21-0.55-0.32-1.14-0.32-1.76c0-0.99,0.19-1.84,0.56-2.54c0.37-0.71,0.84-1.31,1.41-1.8c0.72-0.62,1.57-1.1,2.56-1.43
	c0.99-0.33,2.09-0.5,3.3-0.5c1.16,0,2.28,0.18,3.36,0.55c1.07,0.37,1.97,0.94,2.69,1.71c0.52,0.57,0.93,1.2,1.24,1.88
	c0.31,0.68,0.46,1.38,0.46,2.09h-4.42c0-0.37-0.07-0.71-0.22-1c-0.15-0.3-0.33-0.57-0.55-0.82c-0.27-0.27-0.64-0.49-1.1-0.65
	c-0.46-0.16-0.93-0.24-1.43-0.24c-0.34,0-0.68,0.01-1,0.04c-0.32,0.02-0.66,0.11-1,0.26c-0.42,0.18-0.77,0.43-1.06,0.78
	c-0.28,0.35-0.43,0.77-0.43,1.26c0,0.7,0.24,1.17,0.72,1.43c0.48,0.26,0.98,0.42,1.5,0.5c0.44,0.05,0.82,0.09,1.12,0.13
	c0.3,0.04,0.59,0.07,0.89,0.11c0.3,0.04,0.61,0.08,0.93,0.13c0.32,0.05,0.72,0.11,1.19,0.18c1.53,0.25,2.8,0.83,3.79,1.76
	C224.75,20.49,225.25,21.72,225.25,23.26"/>
<path class="st2" d="M76.66,46.18c0,0.62-0.1,1.21-0.28,1.77c-0.19,0.56-0.49,1.03-0.89,1.41c-0.25,0.24-0.54,0.43-0.88,0.57
	c-0.33,0.14-0.72,0.21-1.16,0.21c-0.27,0-0.53-0.04-0.79-0.11s-0.49-0.17-0.71-0.3c-0.22-0.13-0.42-0.29-0.59-0.47
	c-0.17-0.18-0.31-0.38-0.41-0.59v4.27h-0.77V42.44h0.68l0.09,1.32c0.1-0.23,0.24-0.44,0.42-0.63c0.18-0.19,0.38-0.35,0.6-0.48
	c0.22-0.13,0.46-0.23,0.71-0.3s0.51-0.11,0.76-0.11c0.43,0,0.81,0.06,1.13,0.19c0.33,0.13,0.61,0.3,0.86,0.52
	c0.42,0.37,0.73,0.84,0.93,1.4C76.56,44.92,76.66,45.53,76.66,46.18 M75.89,46.2c0-0.54-0.08-1.05-0.23-1.52
	c-0.15-0.47-0.41-0.86-0.76-1.17c-0.19-0.17-0.4-0.3-0.65-0.39c-0.24-0.09-0.52-0.14-0.84-0.14c-0.33,0-0.62,0.06-0.87,0.17
	c-0.25,0.11-0.47,0.26-0.66,0.43c-0.34,0.33-0.58,0.72-0.73,1.16c-0.15,0.45-0.22,0.93-0.22,1.45c0,0.56,0.07,1.06,0.21,1.5
	c0.14,0.43,0.39,0.81,0.73,1.13c0.19,0.18,0.41,0.32,0.67,0.43c0.25,0.11,0.56,0.16,0.91,0.16c0.35,0,0.65-0.06,0.91-0.18
	c0.26-0.12,0.49-0.28,0.69-0.48c0.29-0.32,0.5-0.71,0.64-1.16C75.83,47.14,75.89,46.68,75.89,46.2"/>
<path class="st2" d="M84.22,45.88c0,0.09,0,0.17-0.01,0.25c-0.01,0.07-0.01,0.16-0.01,0.25h-5.74c0.01,0.44,0.08,0.85,0.22,1.23
	c0.14,0.38,0.32,0.72,0.56,1.01c0.21,0.25,0.46,0.44,0.76,0.58c0.3,0.14,0.65,0.21,1.06,0.21c0.67,0,1.22-0.22,1.64-0.66
	c0.14-0.14,0.26-0.29,0.35-0.47c0.09-0.17,0.17-0.37,0.22-0.6h0.78c-0.05,0.32-0.15,0.61-0.3,0.88c-0.15,0.27-0.33,0.5-0.54,0.7
	c-0.27,0.27-0.59,0.49-0.95,0.65c-0.37,0.16-0.76,0.24-1.19,0.24c-0.54,0-1.01-0.1-1.4-0.3c-0.39-0.2-0.72-0.46-0.99-0.77
	c-0.31-0.36-0.55-0.78-0.71-1.27c-0.16-0.48-0.25-1.01-0.25-1.58c0-0.48,0.05-0.95,0.15-1.4c0.1-0.45,0.3-0.88,0.59-1.28
	c0.64-0.87,1.49-1.31,2.55-1.31c0.51,0,0.96,0.1,1.36,0.3c0.4,0.2,0.73,0.47,1.01,0.8c0.28,0.34,0.48,0.72,0.63,1.16
	C84.14,44.96,84.22,45.41,84.22,45.88 M83.45,45.69c-0.01-0.36-0.07-0.7-0.18-1.03c-0.11-0.32-0.27-0.62-0.48-0.87
	c-0.21-0.26-0.47-0.46-0.77-0.61c-0.3-0.15-0.64-0.23-1.02-0.23c-0.39,0-0.74,0.07-1.05,0.22c-0.31,0.15-0.57,0.34-0.79,0.59
	c-0.22,0.25-0.38,0.54-0.5,0.87c-0.12,0.33-0.18,0.68-0.18,1.05H83.45z"/>
<path class="st2" d="M89.75,43.18c-0.12-0.03-0.24-0.05-0.37-0.06c-0.12-0.01-0.25-0.01-0.37-0.01c-0.47,0-0.86,0.1-1.16,0.29
	c-0.31,0.19-0.55,0.44-0.73,0.75c-0.18,0.31-0.31,0.66-0.38,1.05c-0.08,0.39-0.11,0.78-0.11,1.17v3.6h-0.77v-7.51h0.68l0.09,1.52
	c0.17-0.52,0.48-0.92,0.92-1.19c0.45-0.27,0.93-0.4,1.47-0.4c0.12,0,0.24,0,0.37,0.01s0.25,0.02,0.37,0.04V43.18z"/>
<path class="st2" d="M101.16,47.01c0,0.42-0.08,0.83-0.23,1.22c-0.16,0.39-0.4,0.72-0.74,0.99c-0.38,0.31-0.8,0.51-1.26,0.6
	c-0.46,0.09-0.93,0.14-1.41,0.14h-3.77V39.3h3.77c0.4,0,0.8,0.04,1.2,0.11c0.4,0.08,0.77,0.23,1.11,0.46
	c0.34,0.23,0.61,0.53,0.8,0.89c0.2,0.37,0.29,0.75,0.29,1.15c0,0.58-0.13,1.1-0.39,1.56s-0.7,0.77-1.31,0.94
	c0.66,0.16,1.15,0.48,1.47,0.96C101.01,45.86,101.16,46.4,101.16,47.01 M100.13,41.98c0-0.37-0.08-0.68-0.22-0.93
	c-0.15-0.25-0.35-0.45-0.6-0.6c-0.25-0.15-0.53-0.26-0.84-0.32c-0.32-0.06-0.64-0.09-0.96-0.09h-3v4h3c0.37,0,0.72-0.03,1.03-0.08
	c0.32-0.05,0.59-0.16,0.83-0.31s0.42-0.36,0.56-0.62C100.06,42.75,100.13,42.41,100.13,41.98 M100.37,46.95
	c0-0.44-0.08-0.8-0.23-1.08c-0.15-0.28-0.36-0.5-0.62-0.66c-0.26-0.16-0.56-0.27-0.91-0.34c-0.35-0.07-0.72-0.1-1.11-0.1h-3v4.45h3
	c0.36,0,0.72-0.03,1.06-0.1c0.35-0.07,0.65-0.18,0.92-0.35c0.27-0.17,0.48-0.4,0.64-0.69C100.29,47.79,100.37,47.41,100.37,46.95"/>
<path class="st2" d="M108.79,46.2c0,0.64-0.08,1.21-0.24,1.71c-0.16,0.5-0.44,0.95-0.83,1.34c-0.26,0.26-0.57,0.48-0.94,0.65
	c-0.37,0.17-0.78,0.26-1.26,0.26s-0.89-0.08-1.25-0.26c-0.37-0.17-0.68-0.39-0.94-0.65c-0.39-0.39-0.67-0.83-0.83-1.34
	c-0.16-0.5-0.24-1.07-0.24-1.71c0-0.64,0.08-1.21,0.24-1.71c0.16-0.5,0.44-0.95,0.83-1.34c0.26-0.26,0.57-0.48,0.94-0.65
	c0.36-0.17,0.78-0.26,1.25-0.26s0.89,0.08,1.26,0.26c0.36,0.17,0.68,0.39,0.94,0.65c0.39,0.39,0.67,0.84,0.83,1.34
	C108.71,44.99,108.79,45.56,108.79,46.2 M108.03,46.2c0-0.49-0.06-0.95-0.17-1.38s-0.34-0.82-0.68-1.17
	c-0.2-0.2-0.44-0.36-0.71-0.48c-0.27-0.12-0.59-0.18-0.95-0.18c-0.36,0-0.68,0.06-0.95,0.18c-0.27,0.12-0.51,0.28-0.71,0.48
	c-0.34,0.35-0.57,0.74-0.68,1.17c-0.11,0.43-0.16,0.89-0.16,1.38c0,0.49,0.06,0.95,0.16,1.38c0.11,0.43,0.34,0.82,0.68,1.17
	c0.2,0.2,0.44,0.36,0.71,0.48c0.27,0.12,0.59,0.18,0.95,0.18c0.36,0,0.68-0.06,0.95-0.18c0.27-0.12,0.51-0.28,0.71-0.48
	c0.34-0.35,0.57-0.74,0.68-1.17C107.97,47.15,108.03,46.69,108.03,46.2"/>
<path class="st2" d="M115.69,49.95v-4.91c0-0.66-0.15-1.17-0.45-1.52c-0.3-0.36-0.79-0.53-1.48-0.53c-0.46,0-0.84,0.09-1.16,0.27
	c-0.32,0.18-0.57,0.42-0.77,0.72c-0.19,0.3-0.33,0.64-0.42,1.03c-0.09,0.39-0.13,0.78-0.13,1.19v3.76h-0.77v-7.51h0.68l0.09,1.37
	c0.11-0.24,0.25-0.45,0.43-0.65c0.17-0.19,0.37-0.35,0.6-0.49c0.23-0.13,0.47-0.24,0.73-0.32c0.26-0.07,0.52-0.11,0.78-0.11
	c0.87,0,1.53,0.24,1.97,0.74c0.44,0.49,0.67,1.16,0.67,2.01v4.96H115.69z"/>
<path class="st2" d="M122.57,43.18c-0.12-0.03-0.24-0.05-0.37-0.06c-0.12-0.01-0.25-0.01-0.37-0.01c-0.47,0-0.86,0.1-1.16,0.29
	c-0.31,0.19-0.55,0.44-0.73,0.75c-0.18,0.31-0.31,0.66-0.38,1.05c-0.08,0.39-0.11,0.78-0.11,1.17v3.6h-0.77v-7.51h0.68l0.09,1.52
	c0.17-0.52,0.48-0.92,0.92-1.19c0.45-0.27,0.93-0.4,1.47-0.4c0.12,0,0.24,0,0.37,0.01s0.25,0.02,0.37,0.04V43.18z"/>
<path class="st2" d="M129.51,45.88c0,0.09,0,0.17-0.01,0.25c0,0.07-0.01,0.16-0.01,0.25h-5.74c0.01,0.44,0.08,0.85,0.22,1.23
	c0.14,0.38,0.32,0.72,0.56,1.01c0.21,0.25,0.46,0.44,0.76,0.58c0.3,0.14,0.65,0.21,1.06,0.21c0.67,0,1.22-0.22,1.64-0.66
	c0.14-0.14,0.26-0.29,0.35-0.47c0.09-0.17,0.17-0.37,0.22-0.6h0.78c-0.05,0.32-0.15,0.61-0.3,0.88c-0.15,0.27-0.33,0.5-0.54,0.7
	c-0.27,0.27-0.59,0.49-0.95,0.65c-0.37,0.16-0.76,0.24-1.19,0.24c-0.54,0-1.01-0.1-1.4-0.3c-0.39-0.2-0.72-0.46-0.99-0.77
	c-0.31-0.36-0.55-0.78-0.71-1.27c-0.16-0.48-0.25-1.01-0.25-1.58c0-0.48,0.05-0.95,0.15-1.4c0.1-0.45,0.3-0.88,0.59-1.28
	c0.64-0.87,1.49-1.31,2.55-1.31c0.51,0,0.96,0.1,1.36,0.3c0.4,0.2,0.73,0.47,1.01,0.8c0.28,0.34,0.49,0.72,0.63,1.16
	C129.44,44.96,129.51,45.41,129.51,45.88 M128.75,45.69c-0.01-0.36-0.07-0.7-0.18-1.03c-0.11-0.32-0.27-0.62-0.48-0.87
	c-0.21-0.26-0.47-0.46-0.77-0.61c-0.3-0.15-0.64-0.23-1.02-0.23c-0.39,0-0.74,0.07-1.05,0.22c-0.31,0.15-0.57,0.34-0.79,0.59
	c-0.22,0.25-0.38,0.54-0.5,0.87c-0.12,0.33-0.18,0.68-0.18,1.05H128.75z"/>
<path class="st2" d="M137.62,46.18c0,0.62-0.1,1.21-0.29,1.77c-0.19,0.56-0.48,1.03-0.88,1.41c-0.25,0.24-0.54,0.43-0.88,0.57
	c-0.33,0.14-0.72,0.21-1.16,0.21c-0.27,0-0.53-0.04-0.79-0.11c-0.26-0.07-0.49-0.17-0.71-0.3c-0.22-0.13-0.42-0.29-0.59-0.47
	c-0.18-0.18-0.31-0.38-0.41-0.59v4.27h-0.77V42.44h0.68l0.09,1.32c0.1-0.23,0.24-0.44,0.42-0.63c0.18-0.19,0.38-0.35,0.6-0.48
	c0.22-0.13,0.46-0.23,0.71-0.3c0.25-0.07,0.51-0.11,0.76-0.11c0.43,0,0.81,0.06,1.13,0.19c0.33,0.13,0.61,0.3,0.86,0.52
	c0.42,0.37,0.73,0.84,0.93,1.4C137.52,44.92,137.62,45.53,137.62,46.18 M136.86,46.2c0-0.54-0.08-1.05-0.23-1.52
	c-0.15-0.47-0.41-0.86-0.76-1.17c-0.19-0.17-0.4-0.3-0.64-0.39c-0.24-0.09-0.52-0.14-0.84-0.14c-0.33,0-0.62,0.06-0.87,0.17
	c-0.25,0.11-0.47,0.26-0.66,0.43c-0.34,0.33-0.59,0.72-0.73,1.16c-0.15,0.45-0.22,0.93-0.22,1.45c0,0.56,0.07,1.06,0.21,1.5
	c0.14,0.43,0.39,0.81,0.73,1.13c0.19,0.18,0.41,0.32,0.67,0.43c0.26,0.11,0.56,0.16,0.91,0.16c0.35,0,0.65-0.06,0.91-0.18
	c0.26-0.12,0.49-0.28,0.69-0.48c0.29-0.32,0.5-0.71,0.64-1.16C136.79,47.14,136.86,46.68,136.86,46.2"/>
<path class="st2" d="M145.2,46.2c0,0.64-0.08,1.21-0.24,1.71c-0.16,0.5-0.43,0.95-0.83,1.34c-0.26,0.26-0.57,0.48-0.94,0.65
	c-0.36,0.17-0.78,0.26-1.25,0.26s-0.89-0.08-1.25-0.26c-0.37-0.17-0.68-0.38-0.94-0.65c-0.39-0.39-0.67-0.84-0.83-1.34
	c-0.16-0.5-0.24-1.07-0.24-1.71c0-0.64,0.08-1.21,0.24-1.71c0.16-0.5,0.44-0.95,0.83-1.34c0.26-0.26,0.57-0.48,0.94-0.65
	c0.36-0.17,0.78-0.26,1.25-0.26s0.89,0.08,1.25,0.26c0.37,0.17,0.68,0.39,0.94,0.65c0.39,0.39,0.67,0.84,0.83,1.34
	C145.11,44.99,145.2,45.56,145.2,46.2 M144.43,46.2c0-0.49-0.05-0.95-0.16-1.38c-0.11-0.43-0.34-0.82-0.68-1.17
	c-0.2-0.2-0.43-0.36-0.71-0.48c-0.27-0.12-0.59-0.18-0.95-0.18c-0.36,0-0.68,0.06-0.95,0.18c-0.27,0.12-0.51,0.28-0.71,0.48
	c-0.34,0.35-0.57,0.74-0.68,1.17c-0.11,0.43-0.16,0.89-0.16,1.38c0,0.49,0.05,0.95,0.16,1.38c0.11,0.43,0.34,0.82,0.68,1.17
	c0.2,0.2,0.44,0.36,0.71,0.48c0.27,0.12,0.58,0.18,0.95,0.18c0.36,0,0.68-0.06,0.95-0.18c0.27-0.12,0.51-0.28,0.71-0.48
	c0.34-0.35,0.57-0.74,0.68-1.17C144.37,47.15,144.43,46.69,144.43,46.2 M143,41.44l-2.52-1.49l0.41-0.66l2.37,1.74L143,41.44z"/>
<path class="st2" d="M152.29,47.87c0,0.53-0.17,0.99-0.51,1.38c-0.27,0.3-0.62,0.53-1.04,0.68c-0.43,0.15-0.89,0.23-1.39,0.23
	c-0.51,0-0.98-0.08-1.4-0.25c-0.42-0.16-0.78-0.41-1.07-0.73c-0.21-0.24-0.36-0.48-0.46-0.71c-0.1-0.23-0.15-0.5-0.17-0.81h0.77
	c0.04,0.44,0.22,0.83,0.56,1.16c0.22,0.21,0.48,0.36,0.78,0.46c0.3,0.09,0.63,0.14,0.99,0.14c0.39,0,0.74-0.05,1.04-0.14
	c0.3-0.09,0.55-0.23,0.74-0.42c0.14-0.14,0.24-0.28,0.31-0.42c0.07-0.14,0.1-0.32,0.1-0.54c0-0.34-0.12-0.64-0.35-0.89
	c-0.23-0.25-0.58-0.41-1.03-0.47l-1.46-0.19c-0.31-0.04-0.62-0.12-0.92-0.23c-0.3-0.11-0.56-0.29-0.77-0.52
	c-0.28-0.33-0.42-0.73-0.42-1.18c0-0.3,0.06-0.57,0.17-0.82c0.12-0.24,0.27-0.46,0.47-0.64c0.27-0.25,0.58-0.43,0.94-0.54
	c0.35-0.11,0.73-0.16,1.12-0.16c0.45,0,0.88,0.07,1.28,0.22c0.4,0.15,0.73,0.37,0.99,0.67c0.17,0.2,0.31,0.42,0.41,0.66
	c0.1,0.24,0.15,0.48,0.17,0.72h-0.75c-0.02-0.12-0.06-0.27-0.11-0.44c-0.06-0.17-0.14-0.33-0.26-0.46c-0.17-0.2-0.4-0.36-0.69-0.48
	c-0.29-0.12-0.63-0.18-1.02-0.18c-0.58,0-1.03,0.12-1.35,0.35c-0.39,0.28-0.59,0.63-0.59,1.04c0,0.32,0.1,0.59,0.3,0.81
	c0.2,0.22,0.59,0.37,1.16,0.45l1.43,0.2c0.35,0.05,0.66,0.14,0.92,0.28c0.26,0.13,0.48,0.3,0.65,0.49c0.17,0.19,0.3,0.4,0.38,0.62
	C152.24,47.41,152.29,47.64,152.29,47.87"/>
<path class="st2" d="M156.58,39.3h1.05v1.05h-1.05V39.3z M156.72,42.44h0.8v7.51h-0.8V42.44z"/>
<polygon class="st2" points="171.95,49.95 171.95,40.43 168.06,49.8 167.37,49.8 163.48,40.5 163.48,49.95 162.71,49.95
	162.71,39.3 163.81,39.3 167.74,48.77 171.61,39.3 172.72,39.3 172.72,49.95 "/>
<path class="st2" d="M175.17,39.3h1.05v1.05h-1.05V39.3z M175.3,42.44h0.8v7.51h-0.8V42.44z"/>
<path class="st2" d="M182.42,43.18c-0.12-0.03-0.24-0.05-0.37-0.06c-0.13-0.01-0.25-0.01-0.37-0.01c-0.47,0-0.86,0.1-1.16,0.29
	c-0.31,0.19-0.55,0.44-0.73,0.75c-0.18,0.31-0.31,0.66-0.38,1.05c-0.08,0.39-0.11,0.78-0.11,1.17v3.6h-0.77v-7.51h0.68l0.09,1.52
	c0.17-0.52,0.48-0.92,0.92-1.19c0.45-0.27,0.93-0.4,1.47-0.4c0.12,0,0.24,0,0.37,0.01c0.12,0.01,0.25,0.02,0.37,0.04V43.18z"/>
<path class="st2" d="M189.74,49.95c-0.09,0.02-0.15,0.03-0.18,0.04C189.53,50,189.47,50,189.38,50c-0.46,0-0.78-0.14-0.95-0.43
	c-0.17-0.29-0.25-0.64-0.25-1.04c-0.1,0.27-0.24,0.51-0.43,0.71c-0.19,0.2-0.4,0.37-0.64,0.5c-0.24,0.14-0.5,0.24-0.78,0.31
	c-0.28,0.07-0.57,0.11-0.86,0.11c-0.36,0-0.7-0.05-1.02-0.16c-0.32-0.11-0.59-0.26-0.82-0.46c-0.24-0.2-0.42-0.44-0.55-0.73
	c-0.13-0.29-0.2-0.61-0.2-0.97c0-0.67,0.23-1.2,0.7-1.58c0.47-0.39,1.07-0.6,1.82-0.65l2.77-0.2v-0.74c0-0.62-0.19-1.06-0.56-1.32
	c-0.37-0.26-0.85-0.39-1.41-0.39c-0.6,0-1.1,0.14-1.5,0.41c-0.4,0.27-0.62,0.69-0.66,1.25h-0.77c0.03-0.38,0.12-0.72,0.28-1.01
	c0.16-0.29,0.36-0.54,0.62-0.74c0.26-0.2,0.56-0.35,0.9-0.46c0.35-0.11,0.72-0.16,1.12-0.16c0.26,0,0.52,0.02,0.78,0.07
	c0.26,0.05,0.5,0.12,0.73,0.23c0.23,0.11,0.44,0.25,0.62,0.43c0.18,0.17,0.32,0.39,0.42,0.65c0.09,0.23,0.15,0.47,0.17,0.71
	c0.02,0.24,0.03,0.49,0.03,0.74v3.43c0,0.26,0.03,0.46,0.1,0.6c0.07,0.14,0.23,0.21,0.49,0.21c0.09,0,0.16-0.01,0.21-0.02V49.95z
	 M188.18,46.09l-2.69,0.17c-0.56,0.04-1.01,0.2-1.34,0.47c-0.33,0.28-0.5,0.65-0.5,1.1c0,0.54,0.18,0.95,0.53,1.22
	c0.36,0.27,0.8,0.41,1.34,0.41c0.47,0,0.87-0.09,1.21-0.26c0.34-0.17,0.61-0.4,0.82-0.68c0.21-0.28,0.37-0.6,0.47-0.95
	c0.1-0.36,0.15-0.71,0.15-1.07V46.09z"/>
<path class="st2" d="M200.9,49.95v-4.91c0-0.65-0.14-1.16-0.41-1.53c-0.27-0.37-0.73-0.56-1.38-0.56c-0.29,0-0.54,0.04-0.76,0.13
	c-0.22,0.09-0.41,0.22-0.58,0.38c-0.29,0.28-0.51,0.61-0.66,0.99c-0.15,0.38-0.23,0.8-0.23,1.25v4.25h-0.77v-4.91
	c0-0.65-0.14-1.16-0.41-1.53c-0.28-0.37-0.74-0.56-1.38-0.56c-0.29,0-0.54,0.04-0.76,0.13c-0.21,0.09-0.41,0.22-0.58,0.38
	c-0.34,0.32-0.57,0.72-0.7,1.2c-0.13,0.48-0.2,0.99-0.2,1.53v3.76h-0.77v-7.51h0.68l0.09,1.29c0.2-0.43,0.49-0.79,0.88-1.07
	c0.39-0.28,0.85-0.42,1.39-0.42c0.66,0,1.18,0.15,1.56,0.44c0.39,0.3,0.65,0.69,0.8,1.18c0.2-0.47,0.5-0.86,0.9-1.17
	c0.4-0.3,0.91-0.46,1.53-0.46c0.44,0,0.82,0.07,1.14,0.2c0.32,0.14,0.58,0.33,0.78,0.57c0.2,0.25,0.35,0.54,0.45,0.87
	c0.09,0.34,0.14,0.7,0.14,1.1v4.96H200.9z"/>
<path class="st2" d="M210.35,46.21c0,0.65-0.1,1.26-0.3,1.83c-0.2,0.57-0.51,1.03-0.93,1.4c-0.25,0.22-0.54,0.39-0.86,0.52
	c-0.32,0.13-0.7,0.19-1.13,0.19c-0.25,0-0.5-0.04-0.76-0.11c-0.25-0.07-0.49-0.17-0.71-0.3c-0.22-0.13-0.42-0.29-0.6-0.48
	c-0.18-0.19-0.32-0.4-0.42-0.63l-0.09,1.32h-0.67V39.11h0.77l-0.02,4.6c0.1-0.21,0.24-0.41,0.41-0.59c0.17-0.18,0.37-0.33,0.59-0.47
	c0.22-0.13,0.46-0.23,0.71-0.3c0.26-0.07,0.52-0.11,0.79-0.11c0.44,0,0.83,0.07,1.16,0.21c0.34,0.14,0.63,0.33,0.88,0.57
	c0.4,0.38,0.7,0.85,0.89,1.41C210.26,45,210.35,45.59,210.35,46.21 M209.58,46.2c0-0.48-0.07-0.95-0.2-1.4
	c-0.14-0.45-0.35-0.84-0.64-1.16c-0.2-0.2-0.43-0.36-0.69-0.48c-0.26-0.12-0.57-0.18-0.91-0.18c-0.35,0-0.65,0.05-0.91,0.16
	c-0.26,0.1-0.48,0.25-0.67,0.43c-0.35,0.32-0.59,0.7-0.73,1.13c-0.14,0.44-0.21,0.93-0.21,1.49c0,0.52,0.08,1,0.22,1.45
	c0.15,0.45,0.39,0.83,0.73,1.16c0.19,0.18,0.41,0.33,0.66,0.43c0.25,0.11,0.54,0.17,0.87,0.17c0.32,0,0.6-0.05,0.84-0.14
	c0.24-0.09,0.45-0.22,0.64-0.39c0.35-0.31,0.6-0.7,0.76-1.17C209.51,47.24,209.58,46.74,209.58,46.2"/>
<path class="st2" d="M217.91,45.88c0,0.09,0,0.17-0.01,0.25c-0.01,0.07-0.01,0.16-0.01,0.25h-5.74c0.01,0.44,0.08,0.85,0.22,1.23
	c0.14,0.38,0.32,0.72,0.56,1.01c0.21,0.25,0.46,0.44,0.76,0.58c0.3,0.14,0.65,0.21,1.06,0.21c0.67,0,1.22-0.22,1.64-0.66
	c0.14-0.14,0.26-0.29,0.35-0.47c0.09-0.17,0.17-0.37,0.22-0.6h0.78c-0.05,0.32-0.15,0.61-0.3,0.88c-0.15,0.27-0.33,0.5-0.54,0.7
	c-0.27,0.27-0.59,0.49-0.95,0.65c-0.37,0.16-0.76,0.24-1.19,0.24c-0.54,0-1.01-0.1-1.4-0.3c-0.39-0.2-0.72-0.46-0.99-0.77
	c-0.31-0.36-0.55-0.78-0.71-1.27c-0.16-0.48-0.25-1.01-0.25-1.58c0-0.48,0.05-0.95,0.15-1.4c0.1-0.45,0.3-0.88,0.59-1.28
	c0.64-0.87,1.49-1.31,2.55-1.31c0.51,0,0.96,0.1,1.36,0.3c0.4,0.2,0.73,0.47,1.01,0.8c0.28,0.34,0.48,0.72,0.63,1.16
	C217.83,44.96,217.91,45.41,217.91,45.88 M217.14,45.69c-0.01-0.36-0.07-0.7-0.18-1.03c-0.11-0.32-0.27-0.62-0.48-0.87
	c-0.21-0.26-0.47-0.46-0.77-0.61c-0.3-0.15-0.64-0.23-1.02-0.23c-0.39,0-0.74,0.07-1.05,0.22c-0.31,0.15-0.57,0.34-0.79,0.59
	c-0.22,0.25-0.38,0.54-0.5,0.87c-0.12,0.33-0.18,0.68-0.18,1.05H217.14z"/>
<path class="st2" d="M221.69,49.95c-0.08,0.02-0.17,0.04-0.28,0.06c-0.1,0.02-0.24,0.03-0.4,0.03c-0.48,0-0.85-0.13-1.12-0.38
	c-0.27-0.25-0.4-0.66-0.4-1.21v-9.35h0.77v9.3c0,0.26,0.05,0.48,0.15,0.65c0.1,0.17,0.31,0.25,0.63,0.25h0.35
	c0.09,0,0.18-0.01,0.29-0.03V49.95z"/>
<path class="st2" d="M225.28,49.95c-0.08,0.02-0.17,0.04-0.28,0.06c-0.1,0.02-0.24,0.03-0.4,0.03c-0.48,0-0.85-0.13-1.12-0.38
	c-0.27-0.25-0.4-0.66-0.4-1.21v-9.35h0.77v9.3c0,0.26,0.05,0.48,0.15,0.65c0.1,0.17,0.31,0.25,0.63,0.25h0.35
	c0.09,0,0.18-0.01,0.29-0.03V49.95z"/>
<rect x="0" class="st3" width="225.28" height="52.96"/>
</svg>
