<svg version="1.1" xmlns="http://www.w3.org/2000/svg" xmlns:xlink="http://www.w3.org/1999/xlink" x="0px" y="0px"
	 width="565.22px" height="149.75px" viewBox="0 0 565.22 149.75" style="enable-background:new 0 0 565.22 149.75;"
	 xml:space="preserve">
<style type="text/css">
	.st0{fill:#303132;}
	.st1{fill:#FFFFFF;}
	.st2{clip-path:url(#SVGID_2_);fill:url(#SVGID_3_);}
	.st3{clip-path:url(#SVGID_5_);fill:#27292E;}
	.st4{fill:none;stroke:#303132;stroke-width:0.5;stroke-miterlimit:10;}
	.st5{clip-path:url(#SVGID_7_);fill:url(#SVGID_8_);}
	.st6{clip-path:url(#SVGID_10_);fill:#27292E;}
</style>
<defs>
</defs>
<g>
	<path class="st0" d="M7.52,132.88c-0.65,0.65-1.64,0.91-2.69,0.91c-0.9,0-1.85-0.24-2.54-0.88c-0.5-0.46-0.89-1.17-0.89-1.98h1.58
		c0,0.42,0.19,0.79,0.44,1.04c0.36,0.36,0.94,0.46,1.43,0.46c0.59,0,1.15-0.12,1.48-0.46c0.19-0.2,0.34-0.41,0.34-0.82
		c0-0.62-0.48-0.91-1.01-1.01c-0.58-0.11-1.32-0.13-1.88-0.23c-1.18-0.19-2.16-0.96-2.16-2.38c0-0.67,0.3-1.24,0.74-1.68
		c0.56-0.55,1.5-0.9,2.49-0.9c0.91,0,1.8,0.29,2.37,0.83c0.5,0.48,0.85,1.1,0.86,1.81H6.52c-0.01-0.3-0.17-0.62-0.37-0.84
		c-0.28-0.29-0.84-0.46-1.3-0.46c-0.48,0-1.03,0.11-1.38,0.47c-0.18,0.19-0.29,0.41-0.29,0.72c0,0.55,0.36,0.84,0.86,0.92
		c0.54,0.08,1.29,0.14,1.85,0.22c1.27,0.18,2.34,1.01,2.34,2.46C8.23,131.9,7.94,132.46,7.52,132.88z"/>
	<path class="st0" d="M9.71,126.83l-0.43-0.72l1.97-1.52l0.6,1.01L9.71,126.83z M9.95,133.64v-6.24h1.52v6.24H9.95z"/>
	<path class="st0" d="M20.71,133.64v-3.87c0-0.77-0.2-1.21-0.96-1.21c-0.85,0-1.22,0.9-1.22,1.68v3.41h-1.49v-3.87
		c0-0.77-0.2-1.21-0.96-1.21c-0.85,0-1.24,0.9-1.24,1.68v3.41h-1.49v-6.24h1.25l0.12,0.83c0.35-0.58,0.95-0.98,1.77-0.98
		c0.88,0,1.48,0.38,1.79,1.02c0.37-0.65,1.04-1.02,1.88-1.02c1.33,0,2.03,0.89,2.03,2.18v4.21H20.71z"/>
	<path class="st0" d="M28.63,133.25c-0.38,0.31-0.89,0.53-1.51,0.53c-0.68,0-1.38-0.25-1.75-0.83l-0.1,0.68h-1.3v-8.66h1.5v2.88
		c0.29-0.35,0.89-0.61,1.63-0.61c0.64,0,1.14,0.19,1.52,0.5c0.74,0.61,1.12,1.56,1.12,2.78C29.75,131.71,29.37,132.64,28.63,133.25z
		 M27.83,129c-0.22-0.28-0.54-0.49-1.01-0.49c-1.18,0-1.42,1.1-1.42,2c0,0.61,0.11,1.31,0.54,1.7c0.2,0.19,0.49,0.31,0.88,0.31
		c0.47,0,0.79-0.22,1.01-0.49c0.31-0.41,0.4-0.98,0.4-1.52C28.22,129.97,28.14,129.4,27.83,129z"/>
	<path class="st0" d="M35.85,132.82c-0.43,0.53-1.24,0.97-2.18,0.97c-0.95,0-1.75-0.44-2.18-0.97c-0.47-0.59-0.73-1.25-0.73-2.3
		s0.26-1.71,0.73-2.3c0.43-0.53,1.24-0.97,2.18-0.97c0.95,0,1.75,0.44,2.18,0.97c0.47,0.59,0.73,1.25,0.73,2.3
		S36.32,132.23,35.85,132.82z M34.62,128.95c-0.2-0.22-0.54-0.4-0.95-0.4s-0.74,0.18-0.95,0.4c-0.36,0.4-0.44,0.98-0.44,1.57
		s0.08,1.17,0.44,1.57c0.2,0.22,0.54,0.4,0.95,0.4s0.74-0.18,0.95-0.4c0.36-0.4,0.44-0.98,0.44-1.57S34.98,129.34,34.62,128.95z"/>
	<path class="st0" d="M39.7,133.71c-1.02,0-1.7-0.49-1.7-1.68v-7.06h1.51v6.81c0,0.36,0.08,0.6,0.6,0.6c0.13,0,0.17-0.01,0.25-0.01
		v1.26C40.06,133.69,40,133.71,39.7,133.71z"/>
	<path class="st0" d="M46.64,136.55c-0.76,0-1.56-0.06-2.21-0.52c-0.48-0.34-0.76-0.78-0.76-1.37c0-0.54,0.26-1.03,0.74-1.27
		c-0.4-0.22-0.62-0.66-0.62-1.07c0-0.53,0.24-0.95,0.74-1.26c-0.38-0.38-0.62-0.9-0.62-1.54c0-1.49,1.15-2.29,2.55-2.29
		c0.52,0,1.01,0.14,1.42,0.38c0.26-0.54,0.74-0.78,1.27-0.78c0.1,0,0.31,0,0.41,0.02v1.16c-0.04,0-0.08-0.01-0.12-0.01
		c-0.35,0-0.66,0.1-0.76,0.4c0.2,0.34,0.32,0.71,0.32,1.13c0,1.43-1.2,2.27-2.54,2.27c-0.35,0-0.7-0.06-1.01-0.17
		c-0.14,0.08-0.31,0.24-0.31,0.44c0,0.37,0.37,0.46,0.68,0.46h1.03c0.62,0,1.44,0.01,2.03,0.42c0.54,0.37,0.76,0.9,0.76,1.5
		C49.65,136.11,48.04,136.55,46.64,136.55z M46.75,133.73h-1.18c-0.32,0.1-0.56,0.37-0.56,0.77c0,0.79,0.98,0.86,1.57,0.86
		c0.6,0,1.66-0.04,1.66-0.86C48.24,133.73,47.32,133.73,46.75,133.73z M46.48,128.37c-0.68,0-1.1,0.49-1.1,1.16s0.42,1.15,1.1,1.15
		c0.68,0,1.1-0.48,1.1-1.15S47.16,128.37,46.48,128.37z"/>
	<path class="st0" d="M53.89,128.73c-1.06,0-1.61,0.76-1.61,1.76v3.14h-1.51v-6.24h1.27l0.13,0.94c0.29-0.72,1.03-1.02,1.76-1.02
		c0.16,0,0.31,0.01,0.47,0.04v1.44C54.24,128.76,54.06,128.73,53.89,128.73z"/>
	<path class="st0" d="M60.08,133.73c-0.65,0-1.01-0.41-1.06-0.88c-0.29,0.5-1.01,0.94-1.9,0.94c-1.49,0-2.25-0.94-2.25-1.96
		c0-1.19,0.92-1.87,2.11-1.96l1.83-0.13v-0.38c0-0.59-0.2-0.98-1.06-0.98c-0.7,0-1.1,0.31-1.14,0.89h-1.45
		c0.08-1.4,1.2-2.03,2.59-2.03c1.07,0,1.98,0.34,2.34,1.27c0.16,0.4,0.18,0.84,0.18,1.26v2.32c0,0.29,0.1,0.4,0.35,0.4
		c0.1,0,0.19-0.02,0.19-0.02v1.1C60.57,133.67,60.44,133.73,60.08,133.73z M56.34,125.51l0.67-1.09l2.21,1.66l-0.48,0.78
		L56.34,125.51z M58.82,130.87l-1.58,0.12c-0.46,0.04-0.9,0.31-0.9,0.82c0,0.48,0.42,0.78,0.89,0.78c0.94,0,1.6-0.5,1.6-1.43V130.87
		z"/>
	<path class="st0" d="M64.76,126.07c-0.54,0-0.82,0.31-0.82,0.75v0.58h1.67v1.24h-1.67v5h-1.5v-5h-1.06v-1.24h1.06v-0.6
		c0-1.15,0.78-1.97,2.12-1.97c0.43,0,0.71,0.04,1.18,0.13v1.2C65.44,126.11,65.16,126.07,64.76,126.07z M66.59,126.56v-1.57h1.61
		v1.57H66.59z M66.63,133.64v-6.24h1.52v6.24H66.63z"/>
	<path class="st0" d="M74.6,132.79c-0.43,0.54-1.19,0.98-2.13,0.98c-0.95,0-1.74-0.46-2.17-0.98c-0.47-0.59-0.68-1.37-0.68-2.28
		c0-0.91,0.22-1.69,0.68-2.28c0.43-0.53,1.22-0.98,2.17-0.98c0.95,0,1.7,0.44,2.13,0.98c0.29,0.37,0.46,0.86,0.48,1.36h-1.48
		c-0.01-0.23-0.08-0.42-0.18-0.58c-0.18-0.28-0.5-0.47-0.96-0.47c-0.41,0-0.71,0.17-0.91,0.38c-0.36,0.4-0.42,1-0.42,1.58
		c0,0.59,0.06,1.17,0.42,1.57c0.2,0.22,0.5,0.4,0.91,0.4c0.46,0,0.78-0.19,0.96-0.47c0.1-0.16,0.17-0.35,0.18-0.58h1.48
		C75.06,131.92,74.89,132.41,74.6,132.79z"/>
</g>
<g>
	<path class="st0" d="M2.07,140.34v-1.1h1.09v1.1H2.07z M2.13,147.17v-5.55h0.95v5.55H2.13z"/>
	<path class="st0" d="M8.8,146.7c-0.4,0.38-0.92,0.6-1.6,0.6c-1,0-1.63-0.46-2.03-1.04c-0.3-0.44-0.46-1.04-0.46-1.88
		s0.16-1.44,0.46-1.88c0.4-0.58,1.02-1.04,2.02-1.04c0.66,0,1.2,0.22,1.58,0.59c0.37,0.36,0.61,0.82,0.66,1.43H8.48
		c-0.04-0.38-0.19-0.66-0.4-0.87c-0.22-0.21-0.54-0.34-0.9-0.34c-0.43,0-0.72,0.15-0.97,0.36c-0.44,0.37-0.56,1.06-0.56,1.75
		c0,0.68,0.12,1.37,0.56,1.74c0.24,0.21,0.54,0.36,0.97,0.36c0.38,0,0.72-0.14,0.94-0.37c0.2-0.21,0.33-0.46,0.37-0.82h0.94
		C9.4,145.89,9.17,146.34,8.8,146.7z"/>
	<path class="st0" d="M14.69,146.66c-0.41,0.4-0.98,0.65-1.68,0.65s-1.27-0.25-1.68-0.65c-0.6-0.59-0.79-1.39-0.79-2.27
		c0-0.88,0.19-1.68,0.79-2.27c0.41-0.39,0.98-0.65,1.68-0.65s1.27,0.25,1.68,0.65c0.6,0.59,0.79,1.39,0.79,2.27
		C15.48,145.27,15.29,146.07,14.69,146.66z M14.01,142.67c-0.23-0.23-0.56-0.4-1-0.4s-0.77,0.17-1,0.4
		c-0.4,0.41-0.52,1.08-0.52,1.72s0.12,1.32,0.52,1.72c0.23,0.23,0.56,0.4,1,0.4s0.77-0.17,1-0.4c0.4-0.41,0.52-1.07,0.52-1.72
		S14.41,143.07,14.01,142.67z"/>
	<path class="st0" d="M20.65,147.17v-3.52c0-0.83-0.34-1.33-1.22-1.33c-0.54,0-0.97,0.35-1.21,0.86c-0.19,0.41-0.2,0.99-0.2,1.42
		v2.58H17.1v-5.55h0.81l0.08,0.83c0.29-0.64,1.05-0.98,1.68-0.98c1.26,0,1.92,0.76,1.92,2.04v3.65H20.65z"/>
	<path class="st0" d="M27.56,147.24c-0.49,0-0.8-0.37-0.8-0.84h-0.02c-0.32,0.56-1.01,0.91-1.79,0.91c-1.27,0-1.91-0.86-1.91-1.71
		c0-0.71,0.46-1.65,1.97-1.73l1.69-0.1v-0.41c0-0.27-0.03-0.61-0.29-0.84c-0.19-0.18-0.46-0.29-0.91-0.29
		c-0.5,0-0.82,0.14-1.01,0.33c-0.18,0.17-0.27,0.39-0.27,0.67h-0.91c0.01-0.5,0.2-0.87,0.48-1.16c0.37-0.39,1.03-0.59,1.71-0.59
		c1.08,0,1.69,0.46,1.95,1.06c0.11,0.25,0.16,0.54,0.16,0.86v2.69c0,0.3,0.12,0.37,0.31,0.37c0.1,0,0.24-0.03,0.24-0.03v0.69
		C27.97,147.21,27.79,147.24,27.56,147.24z M26.7,144.49l-1.49,0.09c-0.56,0.03-1.22,0.3-1.22,1c0,0.49,0.31,0.95,1.1,0.95
		c0.43,0,0.84-0.14,1.14-0.45c0.33-0.34,0.47-0.8,0.47-1.26V144.49z"/>
	<path class="st0" d="M36.45,149.11c-0.54,0.53-1.46,0.65-2.24,0.65c-0.73,0-1.57-0.11-2.11-0.65c-0.23-0.23-0.4-0.55-0.4-0.99
		c0-0.58,0.35-1.01,0.79-1.23c-0.37-0.14-0.65-0.5-0.65-0.93c0-0.49,0.32-0.88,0.73-1.08c-0.41-0.36-0.64-0.91-0.64-1.44
		c0-0.6,0.21-1.02,0.53-1.35c0.38-0.4,0.91-0.63,1.65-0.63c0.53,0,0.93,0.12,1.27,0.33c0.19-0.49,0.61-0.78,1.14-0.78
		c0.09,0,0.19,0.01,0.27,0.02v0.76c-0.05-0.01-0.13-0.01-0.21-0.01c-0.36,0-0.62,0.2-0.68,0.5c0.23,0.3,0.36,0.66,0.36,1.15
		c0,0.53-0.2,0.99-0.5,1.33c-0.36,0.39-0.92,0.66-1.66,0.66c-0.37,0-0.58-0.03-0.93-0.15c-0.21,0.07-0.45,0.23-0.47,0.49
		c-0.03,0.48,0.48,0.54,0.83,0.55c0.36,0.01,1.1,0,1.1,0c0.66,0,1.39,0.13,1.83,0.58c0.26,0.26,0.44,0.63,0.44,1.09
		C36.92,148.47,36.71,148.84,36.45,149.11z M34.27,147.11h-1.01c-0.37,0.12-0.7,0.45-0.7,0.88c0,0.25,0.09,0.44,0.23,0.58
		c0.36,0.36,1,0.38,1.48,0.38c0.47,0,1.16-0.04,1.51-0.39c0.14-0.14,0.23-0.33,0.23-0.57C36.01,147.04,34.97,147.11,34.27,147.11z
		 M34.11,142.23c-0.76,0-1.26,0.52-1.26,1.22s0.47,1.24,1.26,1.24c0.76,0,1.26-0.54,1.26-1.24S34.9,142.23,34.11,142.23z"/>
	<path class="st0" d="M39.24,147.23c-0.81,0-1.16-0.48-1.16-1.36v-6.63h0.93v6.57c0,0.37,0.12,0.57,0.5,0.57
		c0.31,0,0.38-0.01,0.38-0.01v0.79C39.9,147.17,39.69,147.23,39.24,147.23z"/>
	<path class="st0" d="M44.97,146.66c-0.41,0.4-0.98,0.65-1.68,0.65s-1.27-0.25-1.68-0.65c-0.6-0.59-0.79-1.39-0.79-2.27
		c0-0.88,0.19-1.68,0.79-2.27c0.41-0.39,0.98-0.65,1.68-0.65s1.27,0.25,1.68,0.65c0.6,0.59,0.79,1.39,0.79,2.27
		C45.76,145.27,45.57,146.07,44.97,146.66z M44.29,142.67c-0.23-0.23-0.56-0.4-1-0.4s-0.77,0.17-1,0.4
		c-0.4,0.41-0.52,1.08-0.52,1.72s0.12,1.32,0.52,1.72c0.23,0.23,0.56,0.4,1,0.4s0.77-0.17,1-0.4c0.4-0.41,0.52-1.07,0.52-1.72
		S44.68,143.07,44.29,142.67z"/>
	<path class="st0" d="M51.49,146.7c-0.36,0.37-0.89,0.6-1.57,0.6c-0.62,0-1.34-0.31-1.66-0.87l-0.07,0.72h-0.82v-7.92h0.93v3.02
		c0.3-0.5,1.01-0.79,1.61-0.79c0.65,0,1.16,0.22,1.53,0.56c0.56,0.54,0.84,1.42,0.84,2.37C52.29,145.32,52.02,146.17,51.49,146.7z
		 M49.77,142.26c-0.41,0-0.68,0.17-0.9,0.36c-0.46,0.41-0.61,1.08-0.61,1.77c0,0.69,0.15,1.36,0.61,1.77
		c0.22,0.2,0.49,0.36,0.9,0.36c1.24,0,1.57-1.11,1.57-2.13S51.01,142.26,49.77,142.26z"/>
	<path class="st0" d="M57.95,147.24c-0.49,0-0.8-0.37-0.8-0.84h-0.02c-0.32,0.56-1.01,0.91-1.79,0.91c-1.27,0-1.91-0.86-1.91-1.71
		c0-0.71,0.46-1.65,1.97-1.73l1.69-0.1v-0.41c0-0.27-0.03-0.61-0.29-0.84c-0.19-0.18-0.46-0.29-0.91-0.29
		c-0.5,0-0.82,0.14-1.01,0.33c-0.18,0.17-0.27,0.39-0.27,0.67H53.7c0.01-0.5,0.2-0.87,0.48-1.16c0.37-0.39,1.03-0.59,1.71-0.59
		c1.08,0,1.69,0.46,1.95,1.06c0.11,0.25,0.16,0.54,0.16,0.86v2.69c0,0.3,0.12,0.37,0.31,0.37c0.1,0,0.24-0.03,0.24-0.03v0.69
		C58.36,147.21,58.18,147.24,57.95,147.24z M57.09,144.49l-1.49,0.09c-0.56,0.03-1.22,0.3-1.22,1c0,0.49,0.31,0.95,1.1,0.95
		c0.43,0,0.84-0.14,1.14-0.45c0.33-0.34,0.47-0.8,0.47-1.26V144.49z"/>
	<path class="st0" d="M61.18,147.23c-0.81,0-1.16-0.48-1.16-1.36v-6.63h0.93v6.57c0,0.37,0.12,0.57,0.5,0.57
		c0.31,0,0.38-0.01,0.38-0.01v0.79C61.83,147.17,61.62,147.23,61.18,147.23z"/>
</g>
<g>
	<path class="st0" d="M121.68,133.98v-8.5h1.55v7.04h3.95v1.46H121.68z"/>
	<path class="st0" d="M132.72,133.17c-0.43,0.53-1.24,0.97-2.18,0.97c-0.95,0-1.75-0.44-2.18-0.97c-0.47-0.59-0.73-1.25-0.73-2.3
		s0.26-1.71,0.73-2.3c0.43-0.53,1.24-0.97,2.18-0.97c0.95,0,1.75,0.44,2.18,0.97c0.47,0.59,0.73,1.25,0.73,2.3
		S133.18,132.58,132.72,133.17z M131.48,129.29c-0.2-0.22-0.54-0.4-0.95-0.4s-0.74,0.18-0.95,0.4c-0.36,0.4-0.44,0.98-0.44,1.57
		s0.08,1.17,0.44,1.57c0.2,0.22,0.54,0.4,0.95,0.4s0.74-0.18,0.95-0.4c0.36-0.4,0.44-0.98,0.44-1.57S131.84,129.69,131.48,129.29z"
		/>
	<path class="st0" d="M137.37,136.9c-0.76,0-1.56-0.06-2.21-0.52c-0.48-0.34-0.76-0.78-0.76-1.37c0-0.54,0.26-1.03,0.74-1.27
		c-0.4-0.22-0.62-0.66-0.62-1.07c0-0.53,0.24-0.95,0.74-1.26c-0.38-0.38-0.62-0.9-0.62-1.54c0-1.49,1.15-2.29,2.55-2.29
		c0.52,0,1.01,0.14,1.42,0.38c0.26-0.54,0.74-0.78,1.27-0.78c0.1,0,0.31,0,0.41,0.02v1.16c-0.04,0-0.08-0.01-0.12-0.01
		c-0.35,0-0.66,0.1-0.76,0.4c0.2,0.34,0.32,0.71,0.32,1.13c0,1.43-1.2,2.27-2.54,2.27c-0.35,0-0.7-0.06-1.01-0.17
		c-0.14,0.08-0.31,0.24-0.31,0.44c0,0.37,0.37,0.46,0.68,0.46h1.03c0.62,0,1.44,0.01,2.03,0.42c0.54,0.37,0.76,0.9,0.76,1.5
		C140.38,136.45,138.76,136.9,137.37,136.9z M137.48,134.08h-1.18c-0.32,0.1-0.56,0.37-0.56,0.77c0,0.79,0.98,0.86,1.57,0.86
		c0.6,0,1.66-0.04,1.66-0.86C138.97,134.08,138.04,134.08,137.48,134.08z M137.2,128.72c-0.68,0-1.1,0.49-1.1,1.16
		s0.42,1.15,1.1,1.15c0.68,0,1.1-0.48,1.1-1.15S137.89,128.72,137.2,128.72z"/>
	<path class="st0" d="M146.12,133.17c-0.43,0.53-1.24,0.97-2.18,0.97c-0.95,0-1.75-0.44-2.18-0.97c-0.47-0.59-0.73-1.25-0.73-2.3
		s0.26-1.71,0.73-2.3c0.43-0.53,1.24-0.97,2.18-0.97c0.95,0,1.75,0.44,2.18,0.97c0.47,0.59,0.73,1.25,0.73,2.3
		S146.59,132.58,146.12,133.17z M144.88,129.29c-0.2-0.22-0.54-0.4-0.95-0.4s-0.74,0.18-0.95,0.4c-0.36,0.4-0.44,0.98-0.44,1.57
		s0.08,1.17,0.44,1.57c0.2,0.22,0.54,0.4,0.95,0.4s0.74-0.18,0.95-0.4c0.36-0.4,0.44-0.98,0.44-1.57S145.24,129.69,144.88,129.29z"
		/>
	<path class="st0" d="M150.49,134.07c-1.26,0-1.88-0.72-1.88-1.92v-3.17h-1.14v-1.24h1.14v-1.58l1.5-0.37v1.96h1.57v1.24h-1.57v3.03
		c0,0.48,0.22,0.68,0.7,0.68c0.31,0,0.56-0.01,0.97-0.06v1.26C151.35,134.01,150.93,134.07,150.49,134.07z"/>
	<path class="st0" d="M153.02,126.88v-1.55h1.61v1.55H153.02z M153.07,133.98v-6.24h1.52v6.24H153.07z"/>
	<path class="st0" d="M161.13,133.64c-0.38,0.31-0.89,0.5-1.52,0.5c-0.74,0-1.34-0.26-1.63-0.61v2.84h-1.5v-8.62h1.3l0.1,0.68
		c0.37-0.58,1.07-0.83,1.75-0.83c0.62,0,1.13,0.22,1.51,0.53c0.74,0.61,1.12,1.55,1.12,2.72
		C162.25,132.08,161.87,133.02,161.13,133.64z M160.33,129.35c-0.22-0.28-0.54-0.49-1.01-0.49c-1.18,0-1.42,1.12-1.42,2.01
		s0.24,2,1.42,2c0.47,0,0.79-0.22,1.01-0.49c0.31-0.41,0.4-0.97,0.4-1.51S160.64,129.76,160.33,129.35z"/>
</g>
<g>
	<path class="st0" d="M124.91,148.17v-3.52c0-0.83-0.34-1.33-1.22-1.33c-0.54,0-0.97,0.35-1.21,0.86c-0.19,0.41-0.2,0.99-0.2,1.42
		v2.58h-0.93v-5.55h0.81l0.08,0.83c0.29-0.64,1.05-0.98,1.68-0.98c1.26,0,1.92,0.76,1.92,2.04v3.65H124.91z"/>
	<path class="st0" d="M131.5,147.67c-0.41,0.4-0.98,0.65-1.68,0.65s-1.27-0.25-1.68-0.65c-0.6-0.59-0.79-1.39-0.79-2.27
		c0-0.88,0.19-1.68,0.79-2.27c0.41-0.39,0.98-0.65,1.68-0.65s1.27,0.25,1.68,0.65c0.6,0.59,0.79,1.39,0.79,2.27
		C132.29,146.28,132.1,147.08,131.5,147.67z M130.82,143.68c-0.23-0.23-0.56-0.4-1-0.4s-0.77,0.17-1,0.4
		c-0.4,0.41-0.52,1.08-0.52,1.72s0.12,1.32,0.52,1.72c0.23,0.23,0.56,0.39,1,0.39s0.77-0.17,1-0.39c0.4-0.41,0.52-1.08,0.52-1.72
		S131.21,144.08,130.82,143.68z"/>
	<path class="st0" d="M140.65,148.17v-3.53c0-0.78-0.25-1.32-1.13-1.32c-0.35,0-0.63,0.14-0.84,0.37c-0.37,0.38-0.47,0.94-0.47,1.53
		v2.95h-0.93v-3.53c0-0.78-0.23-1.32-1.12-1.32c-0.4,0-0.71,0.2-0.94,0.49c-0.27,0.35-0.37,0.94-0.37,1.4v2.95h-0.93v-5.55h0.81
		l0.09,0.79c0.3-0.62,0.93-0.93,1.56-0.93c0.82,0,1.42,0.37,1.66,1.05c0.3-0.69,1.01-1.05,1.71-1.05c1.26,0,1.85,0.81,1.85,2.04
		v3.65H140.65z"/>
	<path class="st0" d="M149.73,148.17l-0.07-0.72c-0.32,0.56-1.03,0.87-1.66,0.87c-0.68,0-1.21-0.23-1.57-0.6
		c-0.53-0.54-0.8-1.38-0.8-2.3c0-0.95,0.29-1.83,0.84-2.37c0.36-0.34,0.88-0.56,1.53-0.56c0.6,0,1.32,0.29,1.61,0.79v-3.02h0.93
		v7.92H149.73z M149.06,143.63c-0.22-0.2-0.49-0.36-0.9-0.36c-1.24,0-1.57,1.11-1.57,2.13c0,1.02,0.33,2.13,1.57,2.13
		c0.41,0,0.68-0.16,0.9-0.36c0.46-0.41,0.61-1.08,0.61-1.77C149.68,144.71,149.52,144.04,149.06,143.63z"/>
	<path class="st0" d="M157.07,145.71h-3.93c0,0.5,0.2,1.05,0.54,1.39c0.25,0.25,0.59,0.39,1.02,0.39c0.44,0,0.8-0.12,1.03-0.36
		c0.15-0.15,0.25-0.31,0.33-0.6h0.91c-0.08,0.55-0.41,1.06-0.86,1.37c-0.4,0.26-0.89,0.42-1.42,0.42c-0.78,0-1.42-0.33-1.84-0.83
		c-0.46-0.54-0.69-1.27-0.69-2.06c0-0.67,0.12-1.26,0.43-1.78c0.4-0.67,1.13-1.16,2.1-1.16c0.71,0,1.28,0.27,1.69,0.71
		c0.45,0.49,0.71,1.21,0.7,1.95L157.07,145.71z M155.78,143.77c-0.23-0.31-0.6-0.5-1.1-0.5c-1.01,0-1.5,0.82-1.52,1.63h2.96
		C156.12,144.49,156,144.07,155.78,143.77z"/>
	<path class="st0" d="M162.3,148.24c-0.81,0-1.16-0.48-1.16-1.36v-6.63h0.93v6.57c0,0.37,0.12,0.57,0.5,0.57
		c0.31,0,0.38-0.01,0.38-0.01v0.79C162.96,148.17,162.75,148.24,162.3,148.24z"/>
	<path class="st0" d="M168.41,148.25c-0.49,0-0.8-0.37-0.8-0.84h-0.02c-0.32,0.56-1.01,0.91-1.79,0.91c-1.27,0-1.91-0.86-1.91-1.71
		c0-0.71,0.46-1.65,1.97-1.73l1.69-0.1v-0.41c0-0.27-0.03-0.61-0.29-0.84c-0.19-0.18-0.46-0.29-0.91-0.29
		c-0.5,0-0.82,0.14-1.01,0.33c-0.18,0.17-0.27,0.39-0.27,0.67h-0.91c0.01-0.5,0.2-0.87,0.48-1.16c0.37-0.39,1.03-0.59,1.71-0.59
		c1.08,0,1.69,0.46,1.95,1.06c0.11,0.25,0.16,0.54,0.16,0.86v2.69c0,0.3,0.12,0.37,0.31,0.37c0.1,0,0.24-0.03,0.24-0.03v0.69
		C168.82,148.22,168.64,148.25,168.41,148.25z M167.55,145.5l-1.49,0.09c-0.56,0.03-1.22,0.3-1.22,1c0,0.49,0.31,0.95,1.1,0.95
		c0.43,0,0.84-0.14,1.14-0.45c0.33-0.34,0.47-0.8,0.47-1.26V145.5z"/>
	<path class="st0" d="M176.7,147.71c-0.4,0.38-0.92,0.6-1.6,0.6c-1,0-1.63-0.46-2.03-1.04c-0.3-0.44-0.46-1.04-0.46-1.88
		s0.16-1.44,0.46-1.88c0.4-0.58,1.02-1.04,2.02-1.04c0.66,0,1.2,0.22,1.58,0.59c0.37,0.36,0.61,0.82,0.66,1.43h-0.94
		c-0.04-0.38-0.19-0.66-0.4-0.87c-0.22-0.21-0.54-0.34-0.9-0.34c-0.43,0-0.72,0.15-0.97,0.36c-0.44,0.37-0.56,1.06-0.56,1.75
		c0,0.68,0.12,1.37,0.56,1.74c0.24,0.21,0.54,0.36,0.97,0.36c0.38,0,0.72-0.14,0.94-0.37c0.2-0.21,0.33-0.46,0.37-0.82h0.94
		C177.3,146.9,177.07,147.35,176.7,147.71z"/>
	<path class="st0" d="M182.59,147.67c-0.41,0.4-0.98,0.65-1.68,0.65s-1.27-0.25-1.68-0.65c-0.6-0.59-0.79-1.39-0.79-2.27
		c0-0.88,0.19-1.68,0.79-2.27c0.41-0.39,0.98-0.65,1.68-0.65s1.27,0.25,1.68,0.65c0.6,0.59,0.79,1.39,0.79,2.27
		C183.38,146.28,183.19,147.08,182.59,147.67z M181.91,143.68c-0.23-0.23-0.56-0.4-1-0.4s-0.77,0.17-1,0.4
		c-0.4,0.41-0.52,1.08-0.52,1.72s0.12,1.32,0.52,1.72c0.23,0.23,0.56,0.39,1,0.39s0.77-0.17,1-0.39c0.4-0.41,0.52-1.08,0.52-1.72
		S182.31,144.08,181.91,143.68z"/>
	<path class="st0" d="M189.03,148.25c-0.49,0-0.8-0.37-0.8-0.84h-0.02c-0.32,0.56-1.01,0.91-1.79,0.91c-1.27,0-1.91-0.86-1.91-1.71
		c0-0.71,0.46-1.65,1.97-1.73l1.69-0.1v-0.41c0-0.27-0.03-0.61-0.29-0.84c-0.19-0.18-0.46-0.29-0.91-0.29
		c-0.5,0-0.82,0.14-1.01,0.33c-0.18,0.17-0.27,0.39-0.27,0.67h-0.91c0.01-0.5,0.2-0.87,0.48-1.16c0.37-0.39,1.03-0.59,1.71-0.59
		c1.08,0,1.69,0.46,1.95,1.06c0.11,0.25,0.16,0.54,0.16,0.86v2.69c0,0.3,0.12,0.37,0.31,0.37c0.1,0,0.24-0.03,0.24-0.03v0.69
		C189.45,148.22,189.27,148.25,189.03,148.25z M188.18,145.5l-1.49,0.09c-0.56,0.03-1.22,0.3-1.22,1c0,0.49,0.31,0.95,1.1,0.95
		c0.43,0,0.84-0.14,1.14-0.45c0.33-0.34,0.47-0.8,0.47-1.26V145.5z"/>
	<path class="st0" d="M192.26,148.24c-0.81,0-1.16-0.48-1.16-1.36v-6.63h0.93v6.57c0,0.37,0.12,0.57,0.5,0.57
		c0.31,0,0.38-0.01,0.38-0.01v0.79C192.92,148.17,192.71,148.24,192.26,148.24z"/>
	<path class="st0" d="M194.26,141.35v-1.1h1.09v1.1H194.26z M194.33,148.17v-5.55h0.95v5.55H194.33z"/>
	<path class="st0" d="M200.99,147.71c-0.4,0.38-0.92,0.6-1.6,0.6c-1,0-1.63-0.46-2.03-1.04c-0.3-0.44-0.46-1.04-0.46-1.88
		s0.16-1.44,0.46-1.88c0.4-0.58,1.02-1.04,2.02-1.04c0.66,0,1.2,0.22,1.58,0.59c0.37,0.36,0.61,0.82,0.66,1.43h-0.94
		c-0.04-0.38-0.19-0.66-0.4-0.87c-0.22-0.21-0.54-0.34-0.9-0.34c-0.43,0-0.72,0.15-0.97,0.36c-0.44,0.37-0.56,1.06-0.56,1.75
		c0,0.68,0.12,1.37,0.56,1.74c0.24,0.21,0.54,0.36,0.97,0.36c0.38,0,0.72-0.14,0.94-0.37c0.2-0.21,0.33-0.46,0.37-0.82h0.94
		C201.59,146.9,201.36,147.35,200.99,147.71z"/>
	<path class="st0" d="M203.1,141.35v-1.1h1.09v1.1H203.1z M203.17,148.17v-5.55h0.95v5.55H203.17z"/>
	<path class="st0" d="M209.88,147.67c-0.41,0.4-0.98,0.65-1.68,0.65s-1.27-0.25-1.68-0.65c-0.6-0.59-0.79-1.39-0.79-2.27
		c0-0.88,0.19-1.68,0.79-2.27c0.41-0.39,0.98-0.65,1.68-0.65s1.27,0.25,1.68,0.65c0.6,0.59,0.79,1.39,0.79,2.27
		C210.67,146.28,210.49,147.08,209.88,147.67z M209.2,143.68c-0.23-0.23-0.56-0.4-1-0.4s-0.77,0.17-1,0.4
		c-0.4,0.41-0.52,1.08-0.52,1.72s0.12,1.32,0.52,1.72c0.23,0.23,0.56,0.39,1,0.39s0.77-0.17,1-0.39c0.4-0.41,0.52-1.08,0.52-1.72
		S209.6,144.08,209.2,143.68z M207.38,142.1l-0.33-0.52l1.86-1.35l0.49,0.78L207.38,142.1z"/>
</g>
<rect x="6.28" y="11.08" class="st1" width="88.31" height="73.06"/>
<g>
	<defs>
		<path id="SVGID_1_" d="M82.23,56.71l3.75,4.79c-9.77,8.11-20.8,12.28-34.3,12.28c-13.5,0-24.54-4.18-34.29-12.28l3.75-4.79
			c9.68,6.89,17.61,10.06,30.55,10.06C64.62,66.77,72.55,63.61,82.23,56.71 M33.12,26.61H43.8v10.19h-9.83
			c-6.15,0-10.18-1.49-12.8-7.44l4.1-2.36c1.84,3.78,4.1,4.66,7.85,4.66V26.61z M59.21,26.61h10.68v10.19H59.21V26.61z M4.77,0
			C2.14,0,0,2.05,0,4.56v88.43c0,2.51,2.14,4.56,4.77,4.56h92.65c2.62,0,4.77-2.05,4.77-4.56V4.56c0-2.51-2.15-4.56-4.77-4.56H4.77z
			"/>
	</defs>
	<clipPath id="SVGID_2_">
		<use xlink:href="#SVGID_1_"  style="overflow:visible;"/>
	</clipPath>

		<linearGradient id="SVGID_3_" gradientUnits="userSpaceOnUse" x1="-139.991" y1="365.26" x2="-138.991" y2="365.26" gradientTransform="matrix(0 98.6272 98.6272 0 -35973.4727 13806.416)">
		<stop  offset="0" style="stop-color:#E18433"/>
		<stop  offset="0.2756" style="stop-color:#DE7833"/>
		<stop  offset="0.8103" style="stop-color:#D85933"/>
		<stop  offset="1" style="stop-color:#D54B32"/>
	</linearGradient>
	<rect class="st2" width="102.2" height="97.56"/>
</g>
<g>
	<defs>
		<rect id="SVGID_4_" y="0" width="561.91" height="97.55"/>
	</defs>
	<clipPath id="SVGID_5_">
		<use xlink:href="#SVGID_4_"  style="overflow:visible;"/>
	</clipPath>
	<path class="st3" d="M167.05,56.96c-0.12,1.92-0.49,3.78-1.1,5.61c-0.62,1.82-1.48,3.43-2.59,4.86c-1.67,2.09-3.91,3.88-6.71,5.36
		c-2.81,1.48-6.07,2.22-9.76,2.22c-3.71,0-7.01-0.76-9.9-2.26c-2.91-1.53-5.19-3.29-6.86-5.33c-1.79-2.29-3.12-4.91-3.98-7.87
		c-0.87-2.96-1.3-6.2-1.3-9.73c0-3.52,0.43-6.76,1.3-9.71c0.87-2.97,2.19-5.59,3.98-7.87c1.66-2.04,3.95-3.8,6.86-5.32
		c2.89-1.52,6.19-2.27,9.9-2.27c3.7,0,6.95,0.75,9.76,2.22c2.81,1.49,5.04,3.27,6.71,5.37c1.11,1.42,1.97,3.05,2.59,4.86
		c0.61,1.82,0.99,3.69,1.1,5.6h-11.38c-0.05-0.85-0.22-1.64-0.46-2.38c-0.25-0.73-0.55-1.4-0.92-2.02
		c-0.68-1.03-1.64-1.89-2.87-2.56c-1.24-0.68-2.74-1.01-4.54-1.01c-1.61,0-2.98,0.28-4.13,0.83c-1.14,0.55-2.11,1.26-2.91,2.11
		c-1.42,1.53-2.32,3.38-2.69,5.53c-0.37,2.15-0.55,4.35-0.55,6.62c0,2.28,0.18,4.47,0.55,6.58c0.38,2.11,1.27,3.94,2.69,5.48
		c0.79,0.85,1.77,1.57,2.91,2.16c1.15,0.59,2.52,0.88,4.13,0.88c1.79,0,3.29-0.33,4.54-1.01c1.23-0.68,2.19-1.52,2.87-2.56
		c0.37-0.62,0.67-1.29,0.92-2.02c0.24-0.74,0.41-1.53,0.46-2.38H167.05z"/>
	<path class="st3" d="M214.09,49.93c0,4.07-0.5,7.48-1.48,10.23c-0.99,2.75-2.38,5.26-4.17,7.54c-1.66,2.04-3.97,3.8-6.89,5.28
		c-2.94,1.48-6.26,2.22-9.96,2.22c-3.71,0-7.02-0.74-9.96-2.22c-2.93-1.48-5.23-3.24-6.89-5.28c-1.79-2.28-3.18-4.79-4.17-7.54
		c-0.99-2.75-1.48-6.15-1.48-10.23c0-4.07,0.49-7.48,1.48-10.23c0.98-2.75,2.38-5.27,4.17-7.55c1.66-2.04,3.96-3.79,6.89-5.28
		c2.94-1.48,6.25-2.22,9.96-2.22c3.7,0,7.02,0.74,9.96,2.22c2.92,1.48,5.23,3.24,6.89,5.28c1.79,2.28,3.18,4.8,4.17,7.55
		C213.59,42.45,214.09,45.86,214.09,49.93 M202.33,49.93c0-2.29-0.22-4.49-0.65-6.62c-0.44-2.13-1.36-3.97-2.77-5.51
		c-0.8-0.87-1.82-1.59-3.06-2.18c-1.23-0.59-2.66-0.88-4.26-0.88c-1.61,0-3.01,0.29-4.26,0.88c-1.23,0.6-2.25,1.32-3.06,2.18
		c-1.42,1.54-2.34,3.38-2.78,5.51c-0.43,2.13-0.65,4.33-0.65,6.62c0,2.27,0.22,4.48,0.65,6.62c0.44,2.13,1.36,3.96,2.78,5.5
		c0.8,0.88,1.82,1.59,3.06,2.18c1.24,0.59,2.65,0.88,4.26,0.88c1.61,0,3.03-0.3,4.26-0.88c1.23-0.59,2.26-1.3,3.06-2.18
		c1.41-1.54,2.33-3.38,2.77-5.5C202.12,54.41,202.33,52.2,202.33,49.93"/>
	<path class="st3" d="M277.05,74V44.1c0-2.96-0.52-5.26-1.54-6.9c-1-1.64-2.98-2.46-5.87-2.46c-1.67,0-3.09,0.39-4.27,1.17
		c-1.16,0.77-2.14,1.79-2.91,3.05c-0.77,1.27-1.34,2.68-1.71,4.21c-0.37,1.55-0.55,3.05-0.55,4.54V74h-11.48V44.1
		c0-2.96-0.51-5.26-1.53-6.9c-1.01-1.64-2.98-2.46-5.88-2.46c-1.67,0-3.09,0.39-4.25,1.17c-1.18,0.77-2.17,1.79-2.97,3.05
		c-0.8,1.27-1.39,2.68-1.76,4.21c-0.38,1.55-0.56,3.05-0.56,4.54V74h-11.48V25.85h9.62l0.93,6.39c1.35-2.22,3.18-4.04,5.46-5.46
		c2.27-1.42,5.03-2.13,8.24-2.13c3.39,0,6.23,0.68,8.51,2.09c2.29,1.38,4.05,3.31,5.27,5.77c1.43-2.52,3.39-4.46,5.89-5.82
		c2.5-1.35,5.39-2.03,8.65-2.03c5.19,0,9.09,1.56,11.71,4.67c2.63,3.13,3.94,7.18,3.94,12.18V74H277.05z"/>
	<path class="st3" d="M341.85,49.83c0,9.57-2.87,16.73-8.61,21.48c-1.48,1.24-3.19,2.19-5.14,2.87c-1.94,0.68-4.15,1.01-6.61,1.01
		c-2.91,0-5.46-0.44-7.64-1.33c-2.19-0.89-3.84-2.02-4.95-3.38v21.95h-11.57V25.85h10l0.74,5.28c1.42-2.22,3.37-3.84,5.84-4.87
		c2.47-1.01,5.03-1.53,7.68-1.53c2.41,0,4.58,0.37,6.52,1.11c1.95,0.74,3.66,1.73,5.14,2.97c2.9,2.34,5.06,5.28,6.49,8.84
		C341.14,41.21,341.85,45.26,341.85,49.83 M330.09,50.02c0-2.09-0.2-4.18-0.61-6.24c-0.4-2.07-1.21-3.91-2.45-5.51
		c-0.86-1.05-1.93-1.95-3.19-2.68c-1.26-0.74-2.79-1.11-4.58-1.11c-2.29,0-4.14,0.48-5.56,1.44c-1.42,0.96-2.53,2.19-3.33,3.7
		c-0.8,1.51-1.34,3.19-1.62,5.04c-0.27,1.85-0.42,3.64-0.42,5.36c0,1.74,0.14,3.51,0.42,5.33c0.29,1.82,0.83,3.48,1.62,4.99
		c0.81,1.51,1.91,2.75,3.33,3.71c1.42,0.96,3.27,1.44,5.56,1.44c1.79,0,3.32-0.38,4.58-1.12c1.26-0.74,2.33-1.64,3.19-2.68
		c1.24-1.6,2.05-3.42,2.45-5.47C329.9,54.19,330.09,52.12,330.09,50.02"/>
	<path class="st3" d="M376.19,36.51c-1.42-0.3-2.74-0.46-3.99-0.46c-4.07,0-7.15,1.3-9.25,3.89c-2.1,2.6-3.15,5.85-3.15,9.74V74
		h-11.77V25.85h9.89l1.03,7.15c1.12-2.75,2.95-4.74,5.51-5.96c2.56-1.22,5.27-1.84,8.11-1.84c1.23,0,2.43,0.08,3.6,0.27V36.51z"/>
	<path class="st3" d="M419.71,49.93c0,4.07-0.5,7.48-1.48,10.23c-0.99,2.75-2.38,5.26-4.17,7.54c-1.67,2.04-3.97,3.8-6.89,5.28
		c-2.94,1.48-6.26,2.22-9.97,2.22c-3.7,0-7.01-0.74-9.94-2.22c-2.94-1.48-5.24-3.24-6.9-5.28c-1.79-2.28-3.19-4.79-4.17-7.54
		c-0.98-2.75-1.48-6.15-1.48-10.23c0-4.07,0.5-7.48,1.48-10.23c0.98-2.75,2.38-5.27,4.17-7.55c1.67-2.04,3.97-3.79,6.9-5.28
		c2.93-1.48,6.24-2.22,9.94-2.22c3.71,0,7.03,0.74,9.97,2.22c2.92,1.48,5.22,3.24,6.89,5.28c1.79,2.28,3.17,4.8,4.17,7.55
		C419.21,42.45,419.71,45.86,419.71,49.93 M407.95,49.93c0-2.29-0.22-4.49-0.64-6.62c-0.44-2.13-1.36-3.97-2.78-5.51
		c-0.8-0.87-1.82-1.59-3.06-2.18c-1.23-0.59-2.65-0.88-4.26-0.88c-1.6,0-3.02,0.29-4.25,0.88c-1.23,0.6-2.25,1.32-3.06,2.18
		c-1.42,1.54-2.35,3.38-2.78,5.51c-0.43,2.13-0.65,4.33-0.65,6.62c0,2.27,0.22,4.48,0.65,6.62c0.43,2.13,1.36,3.96,2.78,5.5
		c0.81,0.88,1.82,1.59,3.06,2.18c1.23,0.59,2.65,0.88,4.25,0.88c1.61,0,3.03-0.3,4.26-0.88c1.24-0.59,2.26-1.3,3.06-2.18
		c1.42-1.54,2.35-3.38,2.78-5.5C407.73,54.41,407.95,52.2,407.95,49.93"/>
	<path class="st3" d="M482.66,74V44.1c0-2.96-0.51-5.26-1.52-6.9c-1.02-1.64-2.98-2.46-5.89-2.46c-1.67,0-3.08,0.39-4.27,1.17
		c-1.17,0.77-2.14,1.79-2.91,3.05c-0.77,1.27-1.34,2.68-1.7,4.21c-0.37,1.55-0.56,3.05-0.56,4.54V74h-11.48V44.1
		c0-2.96-0.51-5.26-1.53-6.9c-1.02-1.64-2.98-2.46-5.88-2.46c-1.66,0-3.09,0.39-4.26,1.17c-1.17,0.77-2.16,1.79-2.97,3.05
		c-0.79,1.27-1.38,2.68-1.75,4.21c-0.38,1.55-0.56,3.05-0.56,4.54V74h-11.47V25.85h9.62l0.94,6.39c1.35-2.22,3.17-4.04,5.46-5.46
		c2.29-1.42,5.03-2.13,8.24-2.13c3.4,0,6.23,0.68,8.51,2.09c2.29,1.38,4.05,3.31,5.28,5.77c1.42-2.52,3.38-4.46,5.87-5.82
		c2.51-1.35,5.39-2.03,8.66-2.03c5.18,0,9.09,1.56,11.71,4.67c2.62,3.13,3.94,7.18,3.94,12.18V74H482.66z"/>
	<path class="st3" d="M501.26,21.41l-3.33-5.56L513.12,4.1l4.62,7.77L501.26,21.41z M503.12,25.85h11.75V74h-11.75V25.85z"/>
	<path class="st3" d="M561.91,59.09c0,2.35-0.38,4.39-1.15,6.12c-0.77,1.73-1.78,3.21-3.01,4.44c-1.98,1.98-4.39,3.4-7.22,4.26
		c-2.85,0.86-5.93,1.29-9.26,1.29c-3.09,0-5.96-0.44-8.61-1.33c-2.66-0.89-4.98-2.29-6.95-4.22c-1.42-1.36-2.63-3-3.61-4.91
		c-0.99-1.91-1.48-4-1.48-6.29h10.84c0,1.04,0.24,2.09,0.73,3.14c0.5,1.04,1.12,1.88,1.86,2.49c0.92,0.75,1.96,1.28,3.11,1.62
		c1.14,0.35,2.54,0.52,4.2,0.52c0.99,0,2.05-0.07,3.2-0.24c1.13-0.15,2.2-0.45,3.19-0.87c0.99-0.44,1.8-1.04,2.45-1.85
		c0.66-0.8,0.97-1.86,0.97-3.14c0-1.43-0.43-2.56-1.3-3.43c-0.85-0.86-2.03-1.42-3.51-1.66c-2.16-0.3-4.38-0.57-6.67-0.79
		c-2.28-0.21-4.5-0.57-6.66-1.07c-1.67-0.37-3.16-0.96-4.49-1.77c-1.33-0.8-2.49-1.76-3.48-2.91c-0.99-1.14-1.74-2.4-2.27-3.79
		c-0.53-1.38-0.79-2.85-0.79-4.39c0-2.47,0.47-4.58,1.39-6.35c0.93-1.76,2.09-3.26,3.51-4.49c1.8-1.54,3.93-2.73,6.4-3.57
		c2.47-0.83,5.21-1.25,8.24-1.25c2.9,0,5.69,0.46,8.39,1.38c2.68,0.93,4.91,2.36,6.7,4.26c1.29,1.41,2.33,2.98,3.1,4.68
		c0.78,1.7,1.16,3.43,1.16,5.22h-11.02c0-0.93-0.18-1.76-0.55-2.5c-0.36-0.74-0.83-1.42-1.39-2.04c-0.68-0.67-1.59-1.21-2.73-1.62
		c-1.14-0.4-2.32-0.6-3.56-0.6c-0.86,0-1.7,0.03-2.5,0.1c-0.8,0.05-1.64,0.27-2.5,0.64c-1.05,0.44-1.93,1.08-2.63,1.94
		c-0.7,0.87-1.07,1.92-1.07,3.14c0,1.74,0.6,2.93,1.8,3.58c1.21,0.65,2.45,1.06,3.75,1.24c1.11,0.13,2.04,0.23,2.78,0.32
		c0.74,0.09,1.48,0.18,2.22,0.27c0.75,0.09,1.52,0.2,2.32,0.33c0.8,0.12,1.79,0.27,2.97,0.46c3.82,0.61,6.97,2.08,9.44,4.39
		C560.67,52.19,561.91,55.26,561.91,59.09"/>
</g>
<line class="st4" x1="0" y1="115.64" x2="98.77" y2="115.64"/>
<line class="st4" x1="119.61" y1="115.64" x2="565.22" y2="115.64"/>
</svg>
