<svg version="1.1" xmlns="http://www.w3.org/2000/svg" xmlns:xlink="http://www.w3.org/1999/xlink" x="0px" y="0px"
	 width="246.89px" height="87.95px" viewBox="0 0 246.89 87.95" style="enable-background:new 0 0 246.89 87.95;"
	 xml:space="preserve">
<style type="text/css">
	.st0{clip-path:url(#SVGID_2_);fill:#27292E;}
	.st1{fill:none;stroke:#D43F27;}
	.st2{clip-path:url(#SVGID_4_);fill:#27292E;}
</style>
<defs>
</defs>
<g>
	<defs>
		<rect id="SVGID_1_" x="0" y="21.37" width="246.89" height="42.86"/>
	</defs>
	<clipPath id="SVGID_2_">
		<use xlink:href="#SVGID_1_"  style="overflow:visible;"/>
	</clipPath>
	<path class="st0" d="M73.4,46.4c-0.05,0.84-0.22,1.66-0.48,2.46c-0.27,0.8-0.65,1.51-1.14,2.14c-0.73,0.92-1.72,1.71-2.95,2.36
		c-1.23,0.65-2.66,0.98-4.29,0.98c-1.63,0-3.08-0.33-4.35-0.99c-1.28-0.67-2.28-1.44-3.01-2.34c-0.79-1.01-1.37-2.16-1.75-3.46
		c-0.38-1.3-0.57-2.72-0.57-4.27c0-1.54,0.19-2.97,0.57-4.27c0.38-1.31,0.96-2.46,1.75-3.46c0.73-0.9,1.74-1.67,3.01-2.34
		c1.27-0.67,2.72-1,4.35-1c1.63,0,3.06,0.33,4.29,0.98c1.23,0.65,2.22,1.44,2.95,2.36c0.49,0.62,0.87,1.34,1.14,2.14
		c0.27,0.8,0.43,1.62,0.48,2.46h-5c-0.02-0.37-0.1-0.72-0.2-1.04c-0.11-0.32-0.24-0.62-0.41-0.89c-0.3-0.45-0.72-0.83-1.26-1.12
		c-0.55-0.3-1.2-0.44-1.99-0.44c-0.71,0-1.31,0.12-1.81,0.37c-0.5,0.24-0.93,0.55-1.28,0.93c-0.63,0.67-1.02,1.49-1.18,2.43
		c-0.16,0.94-0.24,1.91-0.24,2.91c0,1,0.08,1.96,0.24,2.89c0.17,0.93,0.56,1.73,1.18,2.41c0.35,0.37,0.78,0.69,1.28,0.95
		c0.51,0.26,1.11,0.39,1.81,0.39c0.79,0,1.45-0.15,1.99-0.44c0.54-0.3,0.96-0.67,1.26-1.12c0.16-0.27,0.29-0.57,0.41-0.89
		c0.11-0.32,0.18-0.67,0.2-1.05H73.4z"/>
	<path class="st0" d="M94.07,43.31c0,1.79-0.22,3.29-0.65,4.49c-0.43,1.21-1.05,2.31-1.83,3.31c-0.73,0.9-1.74,1.67-3.03,2.32
		c-1.29,0.65-2.75,0.98-4.38,0.98c-1.63,0-3.09-0.32-4.37-0.98c-1.29-0.65-2.3-1.42-3.03-2.32c-0.79-1-1.4-2.1-1.83-3.31
		c-0.43-1.21-0.65-2.7-0.65-4.49c0-1.79,0.22-3.29,0.65-4.49c0.43-1.21,1.04-2.32,1.83-3.32c0.73-0.9,1.74-1.67,3.03-2.32
		c1.29-0.65,2.75-0.98,4.37-0.98c1.63,0,3.08,0.33,4.38,0.98c1.28,0.65,2.3,1.42,3.03,2.32c0.79,1,1.4,2.11,1.83,3.32
		C93.85,40.02,94.07,41.52,94.07,43.31 M88.9,43.31c0-1-0.1-1.97-0.29-2.91c-0.19-0.94-0.6-1.74-1.22-2.42
		c-0.35-0.38-0.8-0.7-1.34-0.96c-0.54-0.26-1.17-0.38-1.87-0.38c-0.71,0-1.32,0.13-1.87,0.38c-0.54,0.26-0.99,0.58-1.34,0.96
		c-0.62,0.68-1.03,1.48-1.22,2.42c-0.19,0.94-0.28,1.9-0.28,2.91c0,1,0.1,1.97,0.28,2.91c0.19,0.93,0.6,1.74,1.22,2.42
		c0.35,0.39,0.8,0.7,1.34,0.96c0.55,0.26,1.16,0.39,1.87,0.39c0.71,0,1.33-0.13,1.87-0.39c0.54-0.26,0.99-0.57,1.34-0.96
		c0.62-0.68,1.03-1.48,1.22-2.42C88.81,45.28,88.9,44.31,88.9,43.31"/>
	<path class="st0" d="M121.73,53.89V40.75c0-1.3-0.23-2.31-0.68-3.03c-0.44-0.72-1.31-1.08-2.58-1.08c-0.73,0-1.36,0.17-1.88,0.51
		c-0.51,0.34-0.94,0.79-1.28,1.34c-0.34,0.56-0.59,1.18-0.75,1.85c-0.16,0.68-0.24,1.34-0.24,1.99v11.55h-5.04V40.75
		c0-1.3-0.22-2.31-0.67-3.03c-0.45-0.72-1.31-1.08-2.58-1.08c-0.73,0-1.36,0.17-1.87,0.51c-0.52,0.34-0.95,0.79-1.3,1.34
		c-0.35,0.56-0.61,1.18-0.77,1.85c-0.17,0.68-0.24,1.34-0.24,1.99v11.55h-5.04V32.73h4.23l0.41,2.81c0.59-0.98,1.4-1.78,2.4-2.4
		c1-0.62,2.21-0.94,3.62-0.94c1.49,0,2.74,0.3,3.74,0.92c1.01,0.61,1.78,1.45,2.32,2.54c0.63-1.11,1.49-1.96,2.58-2.56
		c1.1-0.59,2.37-0.89,3.8-0.89c2.28,0,3.99,0.69,5.15,2.05c1.15,1.37,1.73,3.15,1.73,5.35v14.28H121.73z"/>
	<path class="st0" d="M150.2,43.27c0,4.21-1.26,7.35-3.79,9.44c-0.65,0.54-1.4,0.96-2.26,1.26c-0.85,0.3-1.82,0.44-2.9,0.44
		c-1.28,0-2.4-0.19-3.36-0.59c-0.96-0.39-1.69-0.89-2.18-1.49v9.64h-5.08V32.73h4.39l0.32,2.32c0.62-0.98,1.48-1.69,2.57-2.14
		c1.08-0.45,2.21-0.67,3.38-0.67c1.06,0,2.01,0.16,2.87,0.49c0.86,0.33,1.61,0.76,2.26,1.31c1.28,1.03,2.22,2.32,2.85,3.88
		C149.89,39.48,150.2,41.26,150.2,43.27 M145.04,43.35c0-0.92-0.09-1.84-0.27-2.74c-0.17-0.91-0.53-1.72-1.08-2.42
		c-0.38-0.46-0.85-0.86-1.4-1.18c-0.55-0.33-1.22-0.49-2.01-0.49c-1.01,0-1.82,0.21-2.44,0.63c-0.63,0.42-1.11,0.96-1.47,1.63
		c-0.35,0.66-0.59,1.4-0.71,2.22c-0.12,0.81-0.18,1.6-0.18,2.36c0,0.76,0.06,1.54,0.18,2.34c0.12,0.8,0.36,1.53,0.71,2.19
		c0.36,0.66,0.84,1.21,1.47,1.63c0.62,0.42,1.43,0.63,2.44,0.63c0.79,0,1.46-0.16,2.01-0.49c0.56-0.33,1.02-0.72,1.4-1.18
		c0.54-0.7,0.9-1.5,1.08-2.4C144.95,45.18,145.04,44.27,145.04,43.35"/>
	<path class="st0" d="M165.29,37.41c-0.62-0.13-1.21-0.2-1.75-0.2c-1.79,0-3.14,0.57-4.06,1.71c-0.92,1.14-1.38,2.57-1.38,4.28
		v10.69h-5.17V32.73h4.35l0.45,3.14c0.49-1.21,1.3-2.08,2.42-2.62c1.12-0.54,2.31-0.81,3.56-0.81c0.54,0,1.07,0.04,1.58,0.12V37.41z
		"/>
	<path class="st0" d="M184.41,43.31c0,1.79-0.22,3.29-0.65,4.49c-0.44,1.21-1.05,2.31-1.83,3.31c-0.73,0.9-1.74,1.67-3.03,2.32
		c-1.29,0.65-2.75,0.98-4.38,0.98c-1.63,0-3.08-0.32-4.37-0.98c-1.29-0.65-2.3-1.42-3.03-2.32c-0.79-1-1.4-2.1-1.83-3.31
		c-0.43-1.21-0.65-2.7-0.65-4.49c0-1.79,0.22-3.29,0.65-4.49c0.43-1.21,1.05-2.32,1.83-3.32c0.73-0.9,1.74-1.67,3.03-2.32
		c1.29-0.65,2.74-0.98,4.37-0.98c1.63,0,3.09,0.33,4.38,0.98c1.28,0.65,2.3,1.42,3.03,2.32c0.79,1,1.4,2.11,1.83,3.32
		C184.19,40.02,184.41,41.52,184.41,43.31 M179.24,43.31c0-1-0.1-1.97-0.28-2.91c-0.19-0.94-0.6-1.74-1.22-2.42
		c-0.35-0.38-0.8-0.7-1.34-0.96c-0.54-0.26-1.16-0.38-1.87-0.38c-0.7,0-1.33,0.13-1.87,0.38c-0.54,0.26-0.99,0.58-1.34,0.96
		c-0.62,0.68-1.03,1.48-1.22,2.42c-0.19,0.94-0.29,1.9-0.29,2.91c0,1,0.1,1.97,0.29,2.91c0.19,0.93,0.6,1.74,1.22,2.42
		c0.35,0.39,0.8,0.7,1.34,0.96c0.54,0.26,1.17,0.39,1.87,0.39c0.71,0,1.33-0.13,1.87-0.39c0.54-0.26,1-0.57,1.34-0.96
		c0.62-0.68,1.03-1.48,1.22-2.42C179.15,45.28,179.24,44.31,179.24,43.31"/>
	<path class="st0" d="M212.07,53.89V40.75c0-1.3-0.22-2.31-0.67-3.03c-0.45-0.72-1.31-1.08-2.59-1.08c-0.73,0-1.35,0.17-1.88,0.51
		c-0.51,0.34-0.94,0.79-1.28,1.34c-0.34,0.56-0.59,1.18-0.75,1.85c-0.16,0.68-0.24,1.34-0.24,1.99v11.55h-5.05V40.75
		c0-1.3-0.22-2.31-0.67-3.03c-0.45-0.72-1.31-1.08-2.58-1.08c-0.73,0-1.36,0.17-1.87,0.51c-0.51,0.34-0.95,0.79-1.3,1.34
		c-0.35,0.56-0.61,1.18-0.77,1.85c-0.17,0.68-0.25,1.34-0.25,1.99v11.55h-5.04V32.73h4.23l0.41,2.81c0.59-0.98,1.39-1.78,2.4-2.4
		c1-0.62,2.21-0.94,3.62-0.94c1.49,0,2.74,0.3,3.74,0.92c1.01,0.61,1.78,1.45,2.32,2.54c0.62-1.11,1.48-1.96,2.58-2.56
		c1.1-0.59,2.37-0.89,3.81-0.89c2.28,0,3.99,0.69,5.15,2.05c1.15,1.37,1.73,3.15,1.73,5.35v14.28H212.07z"/>
	<path class="st0" d="M220.24,30.78l-1.46-2.44l6.67-5.16l2.03,3.42L220.24,30.78z M221.06,32.73h5.16v21.15h-5.16V32.73z"/>
	<path class="st0" d="M246.89,47.34c0,1.03-0.17,1.93-0.51,2.69c-0.34,0.76-0.78,1.41-1.32,1.95c-0.87,0.87-1.93,1.49-3.17,1.87
		c-1.25,0.38-2.6,0.57-4.07,0.57c-1.36,0-2.62-0.19-3.78-0.59c-1.17-0.39-2.19-1.01-3.05-1.85c-0.62-0.6-1.15-1.32-1.59-2.16
		c-0.44-0.84-0.65-1.76-0.65-2.76h4.76c0,0.46,0.11,0.92,0.32,1.38c0.22,0.46,0.49,0.83,0.82,1.1c0.41,0.33,0.86,0.56,1.36,0.71
		c0.5,0.15,1.12,0.23,1.85,0.23c0.43,0,0.9-0.03,1.41-0.1c0.5-0.07,0.97-0.2,1.4-0.38c0.44-0.19,0.79-0.46,1.08-0.81
		c0.29-0.35,0.43-0.81,0.43-1.38c0-0.63-0.19-1.12-0.57-1.51c-0.38-0.38-0.89-0.62-1.54-0.73c-0.95-0.13-1.92-0.25-2.93-0.35
		c-1-0.09-1.98-0.25-2.93-0.47c-0.73-0.16-1.39-0.42-1.97-0.78c-0.58-0.35-1.09-0.77-1.53-1.28c-0.43-0.5-0.76-1.06-1-1.67
		c-0.23-0.61-0.35-1.25-0.35-1.93c0-1.09,0.21-2.01,0.61-2.79c0.41-0.77,0.92-1.43,1.54-1.97c0.79-0.68,1.73-1.2,2.81-1.57
		c1.09-0.36,2.29-0.55,3.62-0.55c1.28,0,2.5,0.2,3.68,0.61c1.17,0.41,2.16,1.04,2.94,1.87c0.57,0.62,1.02,1.31,1.36,2.06
		c0.34,0.75,0.51,1.51,0.51,2.3h-4.84c0-0.41-0.08-0.78-0.24-1.1c-0.16-0.33-0.37-0.62-0.61-0.9c-0.3-0.3-0.7-0.53-1.2-0.71
		c-0.5-0.18-1.02-0.26-1.57-0.26c-0.38,0-0.75,0.01-1.1,0.04c-0.35,0.02-0.72,0.12-1.1,0.28c-0.46,0.19-0.85,0.48-1.16,0.85
		c-0.31,0.38-0.47,0.84-0.47,1.38c0,0.76,0.26,1.28,0.79,1.57c0.53,0.29,1.08,0.46,1.65,0.55c0.49,0.06,0.9,0.1,1.22,0.14
		c0.33,0.04,0.65,0.08,0.97,0.12c0.33,0.04,0.67,0.09,1.02,0.15c0.35,0.05,0.79,0.12,1.3,0.2c1.68,0.27,3.06,0.91,4.15,1.93
		C246.35,44.31,246.89,45.65,246.89,47.34"/>
</g>
<line class="st1" x1="0.17" y1="0.47" x2="246.72" y2="87.48"/>
</svg>
