<svg version="1.1" xmlns="http://www.w3.org/2000/svg" xmlns:xlink="http://www.w3.org/1999/xlink" x="0px" y="0px"
	 width="246.89px" height="87.95px" viewBox="0 0 246.89 87.95" style="enable-background:new 0 0 246.89 87.95;"
	 xml:space="preserve">
<style type="text/css">
	.st0{fill:#FFFFFF;}
	.st1{clip-path:url(#SVGID_2_);fill:url(#SVGID_3_);}
	.st2{clip-path:url(#SVGID_5_);fill:url(#SVGID_6_);}
	.st3{clip-path:url(#SVGID_8_);fill:url(#SVGID_9_);}
	.st4{clip-path:url(#SVGID_11_);fill:url(#SVGID_12_);}
	.st5{clip-path:url(#SVGID_14_);fill:url(#SVGID_15_);}
	.st6{clip-path:url(#SVGID_17_);fill:url(#SVGID_18_);}
	.st7{clip-path:url(#SVGID_20_);fill:url(#SVGID_21_);}
	.st8{clip-path:url(#SVGID_23_);fill:url(#SVGID_24_);}
	.st9{clip-path:url(#SVGID_26_);fill:url(#SVGID_27_);}
	.st10{clip-path:url(#SVGID_29_);fill:url(#SVGID_30_);}
	.st11{fill:none;stroke:#D43F27;}
	.st12{clip-path:url(#SVGID_32_);fill:url(#SVGID_33_);}
	.st13{clip-path:url(#SVGID_35_);fill:url(#SVGID_36_);}
	.st14{clip-path:url(#SVGID_38_);fill:url(#SVGID_39_);}
	.st15{clip-path:url(#SVGID_41_);fill:url(#SVGID_42_);}
	.st16{clip-path:url(#SVGID_44_);fill:url(#SVGID_45_);}
	.st17{clip-path:url(#SVGID_47_);fill:url(#SVGID_48_);}
	.st18{clip-path:url(#SVGID_50_);fill:url(#SVGID_51_);}
	.st19{clip-path:url(#SVGID_53_);fill:url(#SVGID_54_);}
	.st20{clip-path:url(#SVGID_56_);fill:url(#SVGID_57_);}
	.st21{clip-path:url(#SVGID_59_);fill:url(#SVGID_60_);}
</style>
<defs>
</defs>
<rect x="2.76" y="27.47" class="st0" width="38.8" height="32.1"/>
<g>
	<defs>
		<path id="SVGID_1_" d="M36.13,47.52l1.65,2.11c-4.29,3.56-9.14,5.4-15.07,5.4c-5.93,0-10.78-1.84-15.07-5.4l1.65-2.11
			c4.25,3.03,7.74,4.42,13.42,4.42C28.39,51.94,31.88,50.55,36.13,47.52 M14.55,34.29h4.69v4.48h-4.32c-2.7,0-4.47-0.65-5.62-3.27
			l1.8-1.04c0.81,1.66,1.8,2.05,3.45,2.05V34.29z M26.02,34.29h4.69v4.48h-4.69V34.29z M2.1,22.6c-1.15,0-2.1,0.9-2.1,2v38.86
			c0,1.1,0.94,2,2.1,2h40.71c1.15,0,2.1-0.9,2.1-2V24.6c0-1.1-0.95-2-2.1-2H2.1z"/>
	</defs>
	<clipPath id="SVGID_2_">
		<use xlink:href="#SVGID_1_"  style="overflow:visible;"/>
	</clipPath>

		<linearGradient id="SVGID_3_" gradientUnits="userSpaceOnUse" x1="-104.7446" y1="264.0945" x2="-103.7446" y2="264.0945" gradientTransform="matrix(0 42.4348 42.4348 0 -11184.3457 4467.5762)">
		<stop  offset="0" style="stop-color:#E18433"/>
		<stop  offset="0.2756" style="stop-color:#DE7833"/>
		<stop  offset="0.8103" style="stop-color:#D85933"/>
		<stop  offset="1" style="stop-color:#D54B32"/>
	</linearGradient>
	<rect x="0" y="22.6" class="st1" width="44.9" height="42.86"/>
</g>
<g>
	<defs>
		<path id="SVGID_4_" d="M60.18,34.43c-1.28,0.67-2.28,1.44-3.01,2.34c-0.79,1-1.37,2.15-1.75,3.46c-0.38,1.3-0.57,2.72-0.57,4.27
			c0,1.55,0.19,2.97,0.57,4.27c0.38,1.3,0.96,2.45,1.75,3.46c0.73,0.89,1.73,1.67,3.01,2.34c1.27,0.66,2.72,0.99,4.35,0.99
			c1.63,0,3.06-0.33,4.29-0.98c1.23-0.65,2.22-1.44,2.95-2.36c0.49-0.63,0.87-1.34,1.14-2.14c0.27-0.8,0.43-1.62,0.48-2.46h-5
			c-0.02,0.38-0.1,0.72-0.2,1.05c-0.11,0.32-0.24,0.62-0.4,0.89c-0.3,0.46-0.72,0.82-1.26,1.12c-0.55,0.3-1.21,0.45-1.99,0.45
			c-0.71,0-1.31-0.13-1.81-0.39c-0.5-0.26-0.93-0.57-1.28-0.95c-0.63-0.68-1.02-1.48-1.18-2.41c-0.16-0.93-0.24-1.89-0.24-2.89
			c0-0.99,0.08-1.96,0.24-2.91c0.17-0.94,0.56-1.75,1.18-2.43c0.35-0.38,0.78-0.68,1.28-0.93c0.51-0.24,1.11-0.37,1.81-0.37
			c0.79,0,1.45,0.15,1.99,0.44c0.54,0.3,0.96,0.67,1.26,1.12c0.16,0.27,0.29,0.57,0.4,0.89c0.11,0.32,0.18,0.67,0.2,1.04h5
			c-0.05-0.84-0.22-1.66-0.48-2.46c-0.27-0.8-0.65-1.51-1.14-2.13c-0.73-0.92-1.72-1.71-2.95-2.36c-1.23-0.65-2.66-0.98-4.29-0.98
			C62.91,33.43,61.45,33.76,60.18,34.43"/>
	</defs>
	<clipPath id="SVGID_5_">
		<use xlink:href="#SVGID_4_"  style="overflow:visible;"/>
	</clipPath>

		<linearGradient id="SVGID_6_" gradientUnits="userSpaceOnUse" x1="-104.7446" y1="264.0945" x2="-103.7446" y2="264.0945" gradientTransform="matrix(0 42.4348 42.4348 0 -11142.6709 4467.5762)">
		<stop  offset="0" style="stop-color:#E18433"/>
		<stop  offset="0.2756" style="stop-color:#DE7833"/>
		<stop  offset="0.8103" style="stop-color:#D85933"/>
		<stop  offset="1" style="stop-color:#D54B32"/>
	</linearGradient>
	<rect x="54.85" y="33.43" class="st2" width="18.55" height="22.13"/>
</g>
<g>
	<defs>
		<path id="SVGID_7_" d="M82.31,50.82c-0.54-0.26-0.99-0.57-1.34-0.96c-0.62-0.68-1.03-1.48-1.22-2.42
			c-0.19-0.94-0.28-1.91-0.28-2.91c0-1,0.1-1.97,0.28-2.91c0.19-0.94,0.6-1.74,1.22-2.42c0.35-0.38,0.8-0.7,1.34-0.96
			c0.54-0.26,1.16-0.39,1.87-0.39c0.71,0,1.33,0.13,1.87,0.39c0.54,0.26,0.99,0.58,1.34,0.96c0.62,0.67,1.03,1.48,1.22,2.42
			c0.19,0.94,0.28,1.9,0.28,2.91c0,1-0.1,1.97-0.28,2.91c-0.19,0.93-0.6,1.74-1.22,2.42c-0.35,0.39-0.8,0.7-1.34,0.96
			c-0.54,0.26-1.17,0.39-1.87,0.39C83.47,51.21,82.86,51.08,82.31,50.82 M79.81,34.41c-1.29,0.65-2.3,1.42-3.03,2.32
			c-0.79,1-1.4,2.11-1.83,3.32c-0.43,1.21-0.65,2.7-0.65,4.49c0,1.79,0.22,3.29,0.65,4.49c0.43,1.21,1.04,2.31,1.83,3.31
			c0.73,0.9,1.74,1.67,3.03,2.32c1.29,0.65,2.75,0.98,4.37,0.98c1.63,0,3.08-0.33,4.38-0.98c1.28-0.65,2.3-1.42,3.03-2.32
			c0.79-1,1.4-2.11,1.83-3.31c0.43-1.21,0.65-2.7,0.65-4.49c0-1.79-0.22-3.29-0.65-4.49c-0.44-1.21-1.05-2.32-1.83-3.32
			c-0.73-0.9-1.74-1.67-3.03-2.32c-1.29-0.65-2.75-0.98-4.38-0.98C82.55,33.43,81.1,33.76,79.81,34.41"/>
	</defs>
	<clipPath id="SVGID_8_">
		<use xlink:href="#SVGID_7_"  style="overflow:visible;"/>
	</clipPath>

		<linearGradient id="SVGID_9_" gradientUnits="userSpaceOnUse" x1="-104.7446" y1="264.0945" x2="-103.7446" y2="264.0945" gradientTransform="matrix(0 42.4348 42.4348 0 -11122.6152 4467.5762)">
		<stop  offset="0" style="stop-color:#E18433"/>
		<stop  offset="0.2756" style="stop-color:#DE7833"/>
		<stop  offset="0.8103" style="stop-color:#D85933"/>
		<stop  offset="1" style="stop-color:#D54B32"/>
	</linearGradient>
	<rect x="74.3" y="33.43" class="st3" width="19.77" height="22.21"/>
</g>
<g>
	<defs>
		<path id="SVGID_10_" d="M116.09,34.33c-1.1,0.6-1.96,1.45-2.59,2.56c-0.54-1.08-1.31-1.93-2.32-2.54c-1-0.61-2.25-0.92-3.74-0.92
			c-1.41,0-2.62,0.31-3.62,0.94c-1,0.62-1.81,1.42-2.4,2.4l-0.41-2.81h-4.23v21.15h5.04V43.56c0-0.65,0.08-1.31,0.24-2
			c0.16-0.67,0.42-1.29,0.77-1.85c0.35-0.55,0.78-1,1.3-1.34c0.51-0.34,1.13-0.51,1.87-0.51c1.27,0,2.14,0.36,2.58,1.08
			c0.45,0.72,0.67,1.73,0.67,3.03v13.14h5.04V43.56c0-0.65,0.08-1.31,0.24-2c0.16-0.67,0.41-1.29,0.75-1.85
			c0.34-0.55,0.77-1,1.28-1.34c0.52-0.34,1.14-0.51,1.88-0.51c1.27,0,2.14,0.36,2.58,1.08c0.45,0.72,0.68,1.73,0.68,3.03v13.14h5.04
			V40.84c0-2.2-0.57-3.98-1.73-5.35c-1.15-1.36-2.87-2.05-5.15-2.05C118.46,33.43,117.19,33.73,116.09,34.33"/>
	</defs>
	<clipPath id="SVGID_11_">
		<use xlink:href="#SVGID_10_"  style="overflow:visible;"/>
	</clipPath>

		<linearGradient id="SVGID_12_" gradientUnits="userSpaceOnUse" x1="-104.7446" y1="264.0945" x2="-103.7446" y2="264.0945" gradientTransform="matrix(0 42.4348 42.4348 0 -11095.0166 4467.5762)">
		<stop  offset="0" style="stop-color:#E18433"/>
		<stop  offset="0.2756" style="stop-color:#DE7833"/>
		<stop  offset="0.8103" style="stop-color:#D85933"/>
		<stop  offset="1" style="stop-color:#D54B32"/>
	</linearGradient>
	<rect x="96.79" y="33.43" class="st4" width="29.98" height="21.68"/>
</g>
<g>
	<defs>
		<path id="SVGID_13_" d="M137.83,50.74c-0.62-0.42-1.11-0.96-1.46-1.63c-0.35-0.66-0.59-1.4-0.71-2.19
			c-0.12-0.8-0.18-1.58-0.18-2.34c0-0.76,0.06-1.54,0.18-2.36c0.12-0.82,0.36-1.55,0.71-2.22c0.35-0.66,0.84-1.21,1.46-1.62
			c0.62-0.43,1.43-0.63,2.44-0.63c0.79,0,1.46,0.16,2.01,0.49c0.56,0.32,1.02,0.72,1.4,1.18c0.55,0.7,0.9,1.51,1.08,2.42
			c0.18,0.91,0.27,1.82,0.27,2.74c0,0.92-0.09,1.83-0.27,2.72c-0.18,0.9-0.53,1.7-1.08,2.4c-0.38,0.46-0.85,0.85-1.4,1.18
			c-0.56,0.33-1.22,0.49-2.01,0.49C139.27,51.37,138.46,51.16,137.83,50.74 M137.92,34.14c-1.08,0.45-1.94,1.16-2.57,2.14
			l-0.32-2.32h-4.39v29.25h5.08v-9.64c0.49,0.6,1.21,1.09,2.18,1.49c0.96,0.39,2.08,0.59,3.36,0.59c1.08,0,2.05-0.15,2.9-0.44
			c0.85-0.3,1.61-0.72,2.26-1.26c2.52-2.09,3.79-5.23,3.79-9.44c0-2.01-0.31-3.79-0.94-5.35c-0.63-1.56-1.57-2.86-2.85-3.88
			c-0.65-0.55-1.4-0.98-2.26-1.31c-0.85-0.33-1.81-0.49-2.87-0.49C140.13,33.47,139,33.7,137.92,34.14"/>
	</defs>
	<clipPath id="SVGID_14_">
		<use xlink:href="#SVGID_13_"  style="overflow:visible;"/>
	</clipPath>

		<linearGradient id="SVGID_15_" gradientUnits="userSpaceOnUse" x1="-104.7446" y1="264.0945" x2="-103.7446" y2="264.0945" gradientTransform="matrix(0 42.4348 42.4348 0 -11066.3789 4467.5762)">
		<stop  offset="0" style="stop-color:#E18433"/>
		<stop  offset="0.2756" style="stop-color:#DE7833"/>
		<stop  offset="0.8103" style="stop-color:#D85933"/>
		<stop  offset="1" style="stop-color:#D54B32"/>
	</linearGradient>
	<rect x="130.63" y="33.47" class="st5" width="19.57" height="29.74"/>
</g>
<g>
	<defs>
		<path id="SVGID_16_" d="M160.15,34.48c-1.12,0.54-1.93,1.41-2.42,2.62l-0.45-3.14h-4.35v21.15h5.17V44.43
			c0-1.71,0.46-3.14,1.38-4.28c0.92-1.14,2.27-1.71,4.06-1.71c0.55,0,1.13,0.07,1.75,0.2V33.8c-0.51-0.08-1.04-0.12-1.58-0.12
			C162.46,33.68,161.27,33.95,160.15,34.48"/>
	</defs>
	<clipPath id="SVGID_17_">
		<use xlink:href="#SVGID_16_"  style="overflow:visible;"/>
	</clipPath>

		<linearGradient id="SVGID_18_" gradientUnits="userSpaceOnUse" x1="-104.7446" y1="264.0945" x2="-103.7446" y2="264.0945" gradientTransform="matrix(0 42.4348 42.4348 0 -11047.6904 4467.5762)">
		<stop  offset="0" style="stop-color:#E18433"/>
		<stop  offset="0.2756" style="stop-color:#DE7833"/>
		<stop  offset="0.8103" style="stop-color:#D85933"/>
		<stop  offset="1" style="stop-color:#D54B32"/>
	</linearGradient>
	<rect x="152.92" y="33.68" class="st6" width="12.37" height="21.44"/>
</g>
<g>
	<defs>
		<path id="SVGID_19_" d="M172.65,50.82c-0.54-0.26-0.99-0.57-1.34-0.96c-0.62-0.68-1.03-1.48-1.22-2.42
			c-0.19-0.94-0.29-1.91-0.29-2.91c0-1,0.1-1.97,0.29-2.91c0.19-0.94,0.6-1.74,1.22-2.42c0.36-0.38,0.8-0.7,1.34-0.96
			c0.54-0.26,1.17-0.39,1.87-0.39c0.71,0,1.33,0.13,1.87,0.39c0.54,0.26,0.99,0.58,1.34,0.96c0.62,0.67,1.03,1.48,1.22,2.42
			c0.18,0.94,0.28,1.9,0.28,2.91c0,1-0.1,1.97-0.28,2.91c-0.19,0.93-0.6,1.74-1.22,2.42c-0.35,0.39-0.8,0.7-1.34,0.96
			c-0.54,0.26-1.17,0.39-1.87,0.39C173.82,51.21,173.2,51.08,172.65,50.82 M170.15,34.41c-1.29,0.65-2.3,1.42-3.03,2.32
			c-0.79,1-1.4,2.11-1.83,3.32c-0.43,1.21-0.65,2.7-0.65,4.49c0,1.79,0.22,3.29,0.65,4.49c0.43,1.21,1.05,2.31,1.83,3.31
			c0.73,0.9,1.74,1.67,3.03,2.32c1.29,0.65,2.74,0.98,4.37,0.98c1.63,0,3.09-0.33,4.38-0.98c1.29-0.65,2.3-1.42,3.03-2.32
			c0.79-1,1.39-2.11,1.83-3.31c0.43-1.21,0.65-2.7,0.65-4.49c0-1.79-0.22-3.29-0.65-4.49c-0.44-1.21-1.05-2.32-1.83-3.32
			c-0.73-0.9-1.74-1.67-3.03-2.32c-1.29-0.65-2.75-0.98-4.38-0.98C172.9,33.43,171.44,33.76,170.15,34.41"/>
	</defs>
	<clipPath id="SVGID_20_">
		<use xlink:href="#SVGID_19_"  style="overflow:visible;"/>
	</clipPath>

		<linearGradient id="SVGID_21_" gradientUnits="userSpaceOnUse" x1="-104.7446" y1="264.0945" x2="-103.7446" y2="264.0945" gradientTransform="matrix(0 42.4348 42.4348 0 -11032.2715 4467.5762)">
		<stop  offset="0" style="stop-color:#E18433"/>
		<stop  offset="0.2756" style="stop-color:#DE7833"/>
		<stop  offset="0.8103" style="stop-color:#D85933"/>
		<stop  offset="1" style="stop-color:#D54B32"/>
	</linearGradient>
	<rect x="164.64" y="33.43" class="st7" width="19.77" height="22.21"/>
</g>
<g>
	<defs>
		<path id="SVGID_22_" d="M206.44,34.33c-1.1,0.6-1.96,1.45-2.58,2.56c-0.54-1.08-1.32-1.93-2.32-2.54c-1-0.61-2.25-0.92-3.74-0.92
			c-1.41,0-2.62,0.31-3.62,0.94c-1.01,0.62-1.81,1.42-2.4,2.4l-0.41-2.81h-4.23v21.15h5.04V43.56c0-0.65,0.08-1.31,0.25-2
			c0.16-0.67,0.42-1.29,0.77-1.85c0.35-0.55,0.79-1,1.3-1.34c0.52-0.34,1.14-0.51,1.87-0.51c1.27,0,2.14,0.36,2.58,1.08
			c0.45,0.72,0.67,1.73,0.67,3.03v13.14h5.05V43.56c0-0.65,0.08-1.31,0.24-2c0.16-0.67,0.41-1.29,0.75-1.85
			c0.34-0.55,0.77-1,1.28-1.34c0.52-0.34,1.14-0.51,1.87-0.51c1.27,0,2.13,0.36,2.58,1.08c0.45,0.72,0.67,1.73,0.67,3.03v13.14h5.05
			V40.84c0-2.2-0.58-3.98-1.73-5.35c-1.15-1.36-2.87-2.05-5.15-2.05C208.8,33.43,207.54,33.73,206.44,34.33"/>
	</defs>
	<clipPath id="SVGID_23_">
		<use xlink:href="#SVGID_22_"  style="overflow:visible;"/>
	</clipPath>

		<linearGradient id="SVGID_24_" gradientUnits="userSpaceOnUse" x1="-104.7446" y1="264.0945" x2="-103.7446" y2="264.0945" gradientTransform="matrix(0 42.4348 42.4348 0 -11004.6689 4467.5762)">
		<stop  offset="0" style="stop-color:#E18433"/>
		<stop  offset="0.2756" style="stop-color:#DE7833"/>
		<stop  offset="0.8103" style="stop-color:#D85933"/>
		<stop  offset="1" style="stop-color:#D54B32"/>
	</linearGradient>
	<rect x="187.14" y="33.43" class="st8" width="29.98" height="21.68"/>
</g>
<g>
	<defs>
		<path id="SVGID_25_" d="M221.06,55.11h5.16V33.96h-5.16V55.11z M218.78,29.57l1.46,2.44l7.24-4.19l-2.03-3.42L218.78,29.57z"/>
	</defs>
	<clipPath id="SVGID_26_">
		<use xlink:href="#SVGID_25_"  style="overflow:visible;"/>
	</clipPath>

		<linearGradient id="SVGID_27_" gradientUnits="userSpaceOnUse" x1="-104.7446" y1="264.0945" x2="-103.7446" y2="264.0945" gradientTransform="matrix(0 42.4348 42.4348 0 -10983.6631 4467.5762)">
		<stop  offset="0" style="stop-color:#E18433"/>
		<stop  offset="0.2756" style="stop-color:#DE7833"/>
		<stop  offset="0.8103" style="stop-color:#D85933"/>
		<stop  offset="1" style="stop-color:#D54B32"/>
	</linearGradient>
	<rect x="218.78" y="24.4" class="st9" width="8.7" height="30.71"/>
</g>
<g>
	<defs>
		<path id="SVGID_28_" d="M234.32,33.98c-1.08,0.37-2.02,0.89-2.81,1.57c-0.63,0.54-1.14,1.2-1.54,1.97
			c-0.4,0.77-0.61,1.7-0.61,2.79c0,0.68,0.11,1.32,0.35,1.93c0.23,0.61,0.56,1.16,1,1.67c0.43,0.5,0.94,0.93,1.53,1.28
			c0.58,0.35,1.24,0.61,1.97,0.78c0.95,0.22,1.92,0.38,2.93,0.47c1.01,0.1,1.98,0.21,2.93,0.35c0.65,0.11,1.17,0.35,1.54,0.73
			c0.38,0.38,0.57,0.88,0.57,1.51c0,0.57-0.14,1.03-0.43,1.38c-0.28,0.35-0.64,0.62-1.07,0.81c-0.43,0.19-0.9,0.32-1.4,0.38
			c-0.51,0.07-0.97,0.11-1.41,0.11c-0.73,0-1.35-0.07-1.85-0.23c-0.51-0.15-0.96-0.38-1.36-0.71c-0.33-0.27-0.6-0.64-0.82-1.1
			c-0.22-0.46-0.32-0.92-0.32-1.38h-4.76c0,1.01,0.21,1.92,0.65,2.76c0.43,0.84,0.96,1.56,1.59,2.16c0.86,0.84,1.88,1.46,3.05,1.85
			c1.17,0.39,2.42,0.59,3.78,0.59c1.47,0,2.82-0.19,4.07-0.57c1.25-0.38,2.3-1,3.17-1.87c0.54-0.54,0.98-1.19,1.32-1.95
			c0.34-0.76,0.51-1.65,0.51-2.69c0-1.68-0.55-3.03-1.63-4.04c-1.08-1.02-2.47-1.66-4.15-1.93c-0.51-0.08-0.95-0.15-1.3-0.2
			c-0.35-0.06-0.69-0.11-1.02-0.15c-0.32-0.04-0.65-0.08-0.97-0.12c-0.32-0.04-0.74-0.08-1.22-0.14c-0.57-0.08-1.12-0.26-1.65-0.55
			c-0.53-0.29-0.79-0.81-0.79-1.57c0-0.54,0.16-1,0.47-1.38c0.31-0.38,0.7-0.66,1.16-0.85c0.38-0.16,0.75-0.26,1.1-0.28
			c0.35-0.03,0.72-0.04,1.1-0.04c0.54,0,1.06,0.09,1.56,0.26c0.5,0.18,0.9,0.42,1.2,0.71c0.24,0.27,0.45,0.57,0.61,0.9
			c0.16,0.32,0.24,0.69,0.24,1.1h4.84c0-0.79-0.17-1.55-0.51-2.3c-0.34-0.75-0.79-1.44-1.36-2.06c-0.78-0.84-1.77-1.46-2.94-1.87
			c-1.18-0.41-2.41-0.61-3.68-0.61C236.61,33.43,235.41,33.62,234.32,33.98"/>
	</defs>
	<clipPath id="SVGID_29_">
		<use xlink:href="#SVGID_28_"  style="overflow:visible;"/>
	</clipPath>

		<linearGradient id="SVGID_30_" gradientUnits="userSpaceOnUse" x1="-104.7446" y1="264.0945" x2="-103.7446" y2="264.0945" gradientTransform="matrix(0 42.4348 42.4348 0 -10968.9785 4467.5762)">
		<stop  offset="0" style="stop-color:#E18433"/>
		<stop  offset="0.2756" style="stop-color:#DE7833"/>
		<stop  offset="0.8103" style="stop-color:#D85933"/>
		<stop  offset="1" style="stop-color:#D54B32"/>
	</linearGradient>
	<rect x="228.75" y="33.43" class="st10" width="18.14" height="22.21"/>
</g>
<line class="st11" x1="0.17" y1="0.47" x2="246.72" y2="87.48"/>
</svg>
