<svg version="1.1" xmlns="http://www.w3.org/2000/svg" xmlns:xlink="http://www.w3.org/1999/xlink" x="0px" y="0px"
	 width="235.41px" height="87.95px" viewBox="0 0 235.41 87.95" style="enable-background:new 0 0 235.41 87.95;"
	 xml:space="preserve">
<style type="text/css">
	.st0{clip-path:url(#SVGID_2_);fill:#27292E;}
	.st1{fill:none;stroke:#D43F27;}
	.st2{clip-path:url(#SVGID_4_);fill:#27292E;}
</style>
<defs>
</defs>
<g>
	<defs>
		<rect id="SVGID_1_" x="15.2" width="193.54" height="87.95"/>
	</defs>
	<clipPath id="SVGID_2_">
		<use xlink:href="#SVGID_1_"  style="overflow:visible;"/>
	</clipPath>
	<path class="st0" d="M33.89,72.25c-0.05,0.85-0.22,1.68-0.49,2.48c-0.27,0.81-0.66,1.52-1.15,2.15c-0.74,0.93-1.73,1.72-2.97,2.38
		c-1.24,0.65-2.69,0.98-4.32,0.98c-1.64,0-3.11-0.34-4.38-1c-1.29-0.68-2.3-1.46-3.04-2.36c-0.79-1.01-1.38-2.17-1.76-3.49
		c-0.38-1.31-0.57-2.74-0.57-4.31c0-1.56,0.19-3,0.57-4.3c0.38-1.31,0.97-2.47,1.76-3.49c0.74-0.9,1.75-1.68,3.04-2.35
		c1.28-0.67,2.74-1.01,4.38-1.01c1.64,0,3.08,0.33,4.32,0.98c1.24,0.66,2.23,1.45,2.97,2.38c0.49,0.63,0.88,1.35,1.15,2.15
		c0.27,0.8,0.44,1.63,0.49,2.48h-5.04c-0.02-0.38-0.1-0.73-0.21-1.05c-0.11-0.32-0.25-0.62-0.41-0.89c-0.3-0.45-0.73-0.83-1.27-1.13
		c-0.55-0.3-1.21-0.45-2.01-0.45c-0.71,0-1.32,0.12-1.83,0.37c-0.5,0.24-0.94,0.55-1.29,0.93c-0.63,0.68-1.03,1.5-1.19,2.45
		c-0.16,0.95-0.24,1.93-0.24,2.93c0,1.01,0.08,1.98,0.24,2.92c0.17,0.93,0.56,1.74,1.19,2.43c0.35,0.38,0.78,0.7,1.29,0.96
		c0.51,0.26,1.11,0.39,1.83,0.39c0.79,0,1.46-0.15,2.01-0.45c0.54-0.3,0.97-0.67,1.27-1.13c0.16-0.27,0.3-0.57,0.41-0.89
		c0.11-0.33,0.18-0.68,0.21-1.06H33.89z"/>
	<path class="st0" d="M54.72,69.13c0,1.8-0.22,3.31-0.65,4.53c-0.44,1.22-1.05,2.33-1.85,3.34c-0.74,0.91-1.76,1.68-3.05,2.34
		c-1.3,0.65-2.77,0.98-4.41,0.98c-1.64,0-3.11-0.33-4.41-0.98c-1.3-0.66-2.32-1.43-3.05-2.34c-0.79-1.01-1.41-2.12-1.85-3.34
		c-0.44-1.22-0.66-2.72-0.66-4.53c0-1.8,0.22-3.31,0.66-4.53c0.44-1.22,1.05-2.33,1.85-3.34c0.74-0.9,1.75-1.68,3.05-2.34
		c1.3-0.65,2.77-0.98,4.41-0.98c1.64,0,3.11,0.33,4.41,0.98c1.29,0.66,2.31,1.43,3.05,2.34c0.79,1.01,1.41,2.12,1.85,3.34
		C54.5,65.82,54.72,67.33,54.72,69.13 M49.51,69.13c0-1.01-0.1-1.99-0.29-2.93c-0.2-0.94-0.6-1.76-1.23-2.44
		c-0.36-0.38-0.81-0.71-1.35-0.97c-0.55-0.26-1.18-0.39-1.89-0.39c-0.71,0-1.34,0.13-1.88,0.39c-0.55,0.26-1,0.58-1.35,0.97
		c-0.63,0.68-1.04,1.49-1.23,2.44C40.1,67.14,40,68.12,40,69.13c0,1.01,0.1,1.99,0.29,2.93c0.19,0.94,0.6,1.75,1.23,2.43
		c0.35,0.39,0.81,0.71,1.35,0.96c0.55,0.26,1.17,0.39,1.88,0.39c0.71,0,1.34-0.13,1.89-0.39c0.55-0.26,1-0.58,1.35-0.96
		c0.63-0.68,1.03-1.49,1.23-2.43C49.42,71.12,49.51,70.14,49.51,69.13"/>
	<path class="st0" d="M82.6,79.79V66.55c0-1.31-0.23-2.33-0.68-3.05c-0.44-0.73-1.32-1.09-2.6-1.09c-0.74,0-1.37,0.17-1.89,0.52
		c-0.51,0.34-0.95,0.79-1.29,1.35c-0.34,0.56-0.59,1.19-0.76,1.87c-0.16,0.69-0.24,1.35-0.24,2.01v11.64h-5.08V66.55
		c0-1.31-0.23-2.33-0.68-3.05c-0.45-0.73-1.32-1.09-2.6-1.09c-0.74,0-1.37,0.17-1.88,0.52c-0.52,0.34-0.96,0.79-1.31,1.35
		c-0.36,0.56-0.62,1.19-0.78,1.87c-0.17,0.69-0.25,1.35-0.25,2.01v11.64h-5.08V58.47h4.26l0.41,2.83c0.6-0.98,1.41-1.79,2.42-2.42
		c1.01-0.63,2.23-0.94,3.65-0.94c1.5,0,2.76,0.3,3.77,0.92c1.01,0.61,1.79,1.47,2.34,2.56c0.63-1.12,1.5-1.98,2.61-2.58
		c1.11-0.6,2.39-0.9,3.83-0.9c2.3,0,4.03,0.69,5.18,2.07c1.16,1.38,1.74,3.18,1.74,5.39v14.39H82.6z"/>
	<path class="st0" d="M111.29,69.09c0,4.24-1.27,7.41-3.82,9.51c-0.66,0.55-1.41,0.97-2.28,1.27c-0.86,0.3-1.84,0.45-2.93,0.45
		c-1.29,0-2.42-0.2-3.39-0.59c-0.97-0.4-1.7-0.9-2.19-1.5v9.72h-5.12V58.47H96l0.33,2.34c0.63-0.98,1.49-1.7,2.58-2.16
		c1.09-0.45,2.23-0.68,3.4-0.68c1.07,0,2.03,0.17,2.89,0.49c0.86,0.33,1.62,0.76,2.28,1.32c1.29,1.03,2.24,2.34,2.87,3.91
		C110.98,65.27,111.29,67.07,111.29,69.09 M106.09,69.17c0-0.93-0.09-1.85-0.27-2.76c-0.18-0.91-0.54-1.73-1.09-2.44
		c-0.38-0.46-0.85-0.86-1.41-1.19c-0.56-0.33-1.23-0.49-2.03-0.49c-1.02,0-1.83,0.21-2.46,0.64c-0.63,0.42-1.12,0.97-1.48,1.64
		c-0.35,0.67-0.59,1.41-0.72,2.23c-0.12,0.82-0.18,1.61-0.18,2.38c0,0.77,0.06,1.56,0.18,2.36c0.13,0.8,0.37,1.54,0.72,2.21
		c0.36,0.67,0.85,1.22,1.48,1.64c0.63,0.42,1.45,0.64,2.46,0.64c0.79,0,1.47-0.17,2.03-0.49c0.56-0.33,1.03-0.73,1.41-1.19
		c0.55-0.71,0.91-1.52,1.09-2.42C106,71.02,106.09,70.1,106.09,69.17"/>
	<path class="st0" d="M126.5,63.19c-0.63-0.13-1.21-0.2-1.77-0.2c-1.8,0-3.17,0.57-4.09,1.72c-0.93,1.15-1.39,2.59-1.39,4.31v10.77
		h-5.21V58.47h4.38l0.46,3.17c0.5-1.22,1.31-2.1,2.44-2.64c1.13-0.54,2.33-0.81,3.59-0.81c0.54,0,1.08,0.04,1.6,0.12V63.19z"/>
	<path class="st0" d="M145.77,69.13c0,1.8-0.22,3.31-0.65,4.53c-0.44,1.22-1.05,2.33-1.85,3.34c-0.74,0.91-1.76,1.68-3.05,2.34
		c-1.3,0.65-2.77,0.98-4.41,0.98c-1.64,0-3.11-0.33-4.4-0.98c-1.3-0.66-2.32-1.43-3.06-2.34c-0.79-1.01-1.41-2.12-1.85-3.34
		c-0.43-1.22-0.65-2.72-0.65-4.53c0-1.8,0.22-3.31,0.65-4.53c0.43-1.22,1.05-2.33,1.85-3.34c0.74-0.9,1.76-1.68,3.06-2.34
		c1.3-0.65,2.76-0.98,4.4-0.98c1.64,0,3.11,0.33,4.41,0.98c1.29,0.66,2.31,1.43,3.05,2.34c0.79,1.01,1.41,2.12,1.85,3.34
		C145.55,65.82,145.77,67.33,145.77,69.13 M140.56,69.13c0-1.01-0.1-1.99-0.28-2.93c-0.19-0.94-0.6-1.76-1.23-2.44
		c-0.35-0.38-0.81-0.71-1.35-0.97c-0.55-0.26-1.17-0.39-1.89-0.39c-0.71,0-1.34,0.13-1.88,0.39c-0.55,0.26-1,0.58-1.35,0.97
		c-0.63,0.68-1.04,1.49-1.23,2.44c-0.19,0.94-0.29,1.92-0.29,2.93c0,1.01,0.1,1.99,0.29,2.93c0.19,0.94,0.6,1.75,1.23,2.43
		c0.36,0.39,0.81,0.71,1.35,0.96c0.54,0.26,1.18,0.39,1.88,0.39c0.71,0,1.34-0.13,1.89-0.39c0.55-0.26,1-0.58,1.35-0.96
		c0.63-0.68,1.04-1.49,1.23-2.43C140.47,71.12,140.56,70.14,140.56,69.13"/>
	<path class="st0" d="M173.65,79.79V66.55c0-1.31-0.23-2.33-0.67-3.05c-0.45-0.73-1.32-1.09-2.61-1.09c-0.74,0-1.37,0.17-1.89,0.52
		c-0.52,0.34-0.95,0.79-1.29,1.35c-0.34,0.56-0.59,1.19-0.76,1.87c-0.16,0.69-0.25,1.35-0.25,2.01v11.64h-5.08V66.55
		c0-1.31-0.23-2.33-0.68-3.05c-0.45-0.73-1.32-1.09-2.61-1.09c-0.74,0-1.36,0.17-1.89,0.52c-0.52,0.34-0.96,0.79-1.31,1.35
		c-0.35,0.56-0.61,1.19-0.77,1.87c-0.17,0.69-0.25,1.35-0.25,2.01v11.64h-5.08V58.47h4.26l0.41,2.83c0.6-0.98,1.4-1.79,2.42-2.42
		c1.01-0.63,2.23-0.94,3.65-0.94c1.5,0,2.76,0.3,3.77,0.92c1.01,0.61,1.79,1.47,2.34,2.56c0.63-1.12,1.49-1.98,2.6-2.58
		c1.11-0.6,2.39-0.9,3.84-0.9c2.29,0,4.03,0.69,5.19,2.07c1.16,1.38,1.75,3.18,1.75,5.39v14.39H173.65z"/>
	<path class="st0" d="M181.89,56.5l-1.47-2.46l6.72-5.2l2.05,3.44L181.89,56.5z M182.71,58.47h5.2v21.32h-5.2V58.47z"/>
	<path class="st0" d="M208.74,73.19c0,1.04-0.17,1.94-0.51,2.71c-0.34,0.76-0.79,1.42-1.33,1.97c-0.88,0.88-1.94,1.5-3.2,1.89
		c-1.26,0.38-2.62,0.57-4.1,0.57c-1.37,0-2.64-0.2-3.81-0.59c-1.18-0.39-2.2-1.01-3.08-1.87c-0.63-0.6-1.16-1.33-1.6-2.17
		c-0.44-0.85-0.66-1.77-0.66-2.79h4.8c0,0.46,0.11,0.93,0.32,1.39c0.22,0.46,0.49,0.83,0.82,1.11c0.41,0.33,0.87,0.57,1.38,0.72
		c0.51,0.15,1.12,0.23,1.86,0.23c0.44,0,0.91-0.03,1.42-0.11c0.5-0.07,0.98-0.2,1.41-0.39c0.44-0.19,0.8-0.46,1.08-0.82
		c0.29-0.36,0.43-0.82,0.43-1.39c0-0.63-0.19-1.13-0.57-1.52c-0.38-0.38-0.9-0.63-1.56-0.73c-0.96-0.13-1.94-0.25-2.95-0.35
		c-1.01-0.09-1.99-0.25-2.95-0.47c-0.74-0.17-1.4-0.43-1.99-0.78c-0.59-0.35-1.1-0.78-1.54-1.29c-0.44-0.51-0.77-1.06-1.01-1.68
		c-0.23-0.61-0.35-1.26-0.35-1.94c0-1.09,0.21-2.03,0.62-2.81c0.41-0.78,0.93-1.45,1.56-1.99c0.8-0.68,1.74-1.21,2.83-1.58
		c1.09-0.37,2.31-0.55,3.65-0.55c1.29,0,2.52,0.2,3.71,0.61c1.19,0.41,2.18,1.04,2.97,1.89c0.57,0.63,1.03,1.32,1.37,2.07
		c0.35,0.75,0.51,1.52,0.51,2.31h-4.88c0-0.41-0.08-0.78-0.25-1.11c-0.16-0.33-0.37-0.63-0.61-0.9c-0.3-0.3-0.71-0.54-1.21-0.72
		c-0.51-0.18-1.03-0.26-1.58-0.26c-0.38,0-0.75,0.01-1.11,0.04c-0.36,0.02-0.73,0.12-1.11,0.28c-0.46,0.19-0.85,0.48-1.17,0.86
		c-0.31,0.39-0.48,0.85-0.48,1.39c0,0.77,0.27,1.3,0.8,1.58c0.54,0.29,1.09,0.47,1.66,0.55c0.49,0.06,0.9,0.1,1.23,0.14
		c0.33,0.04,0.66,0.08,0.98,0.12c0.33,0.04,0.67,0.09,1.02,0.15c0.36,0.05,0.8,0.12,1.31,0.2c1.69,0.27,3.09,0.92,4.18,1.95
		C208.19,70.13,208.74,71.49,208.74,73.19"/>
</g>
<line class="st1" x1="0.17" y1="0.47" x2="235.24" y2="87.48"/>
</svg>
