<svg version="1.1" xmlns="http://www.w3.org/2000/svg" xmlns:xlink="http://www.w3.org/1999/xlink" x="0px" y="0px"
	 width="246.89px" height="87.95px" viewBox="0 0 246.89 87.95" style="enable-background:new 0 0 246.89 87.95;"
	 xml:space="preserve">
<style type="text/css">
	.st0{fill:none;stroke:#D43F27;}
	.st1{fill:#FFFFFF;}
	.st2{clip-path:url(#SVGID_2_);fill:url(#SVGID_3_);}
	.st3{clip-path:url(#SVGID_5_);fill:#27292E;}
	.st4{clip-path:url(#SVGID_7_);fill:url(#SVGID_8_);}
	.st5{clip-path:url(#SVGID_10_);fill:#27292E;}
</style>
<defs>
</defs>
<line class="st0" x1="0.17" y1="0.47" x2="246.72" y2="87.48"/>
<rect x="39.38" y="29.58" class="st1" width="27.03" height="30.46"/>
<g>
	<defs>
		<path id="SVGID_1_" d="M62.63,48.61l1.15,2c-2.99,3.38-6.36,5.12-10.5,5.12c-4.13,0-7.51-1.74-10.5-5.12l1.15-2
			c2.96,2.87,5.39,4.19,9.35,4.19C57.24,52.8,59.66,51.48,62.63,48.61 M47.59,36.06h3.27v4.25h-3.01c-1.88,0-3.12-0.62-3.92-3.1
			l1.25-0.98c0.56,1.58,1.26,1.94,2.4,1.94V36.06z M55.58,36.06h3.27v4.25h-3.27V36.06z M38.92,24.96c-0.81,0-1.46,0.85-1.46,1.9
			v36.86c0,1.05,0.66,1.9,1.46,1.9h28.35c0.8,0,1.46-0.86,1.46-1.9V26.86c0-1.05-0.66-1.9-1.46-1.9H38.92z"/>
	</defs>
	<clipPath id="SVGID_2_">
		<use xlink:href="#SVGID_1_"  style="overflow:visible;"/>
	</clipPath>

		<linearGradient id="SVGID_3_" gradientUnits="userSpaceOnUse" x1="-104.7446" y1="465.8265" x2="-103.7446" y2="465.8265" gradientTransform="matrix(0 41.114 30.1843 0 -14007.5488 4331.2246)">
		<stop  offset="0" style="stop-color:#E18433"/>
		<stop  offset="0.2756" style="stop-color:#DE7833"/>
		<stop  offset="0.8103" style="stop-color:#D85933"/>
		<stop  offset="1" style="stop-color:#D54B32"/>
	</linearGradient>
	<rect x="37.46" y="24.96" class="st2" width="31.28" height="40.67"/>
</g>
<g>
	<defs>
		<rect id="SVGID_4_" x="37.46" y="24.96" width="171.97" height="40.67"/>
	</defs>
	<clipPath id="SVGID_5_">
		<use xlink:href="#SVGID_4_"  style="overflow:visible;"/>
	</clipPath>
	<path class="st3" d="M88.59,48.71c-0.04,0.8-0.15,1.58-0.34,2.34c-0.19,0.76-0.45,1.43-0.79,2.03c-0.51,0.87-1.2,1.62-2.05,2.24
		c-0.86,0.62-1.86,0.93-2.99,0.93c-1.14,0-2.15-0.32-3.03-0.94c-0.89-0.64-1.59-1.37-2.1-2.22c-0.55-0.95-0.95-2.05-1.22-3.28
		c-0.27-1.23-0.4-2.58-0.4-4.05c0-1.47,0.13-2.82,0.4-4.05c0.27-1.24,0.67-2.33,1.22-3.28c0.51-0.85,1.21-1.59,2.1-2.22
		c0.88-0.63,1.9-0.95,3.03-0.95c1.13,0,2.13,0.31,2.99,0.93c0.86,0.62,1.54,1.36,2.05,2.24c0.34,0.59,0.6,1.27,0.79,2.03
		c0.19,0.76,0.3,1.54,0.34,2.33H85.1c-0.02-0.35-0.07-0.68-0.14-0.99c-0.08-0.31-0.17-0.59-0.28-0.84c-0.21-0.43-0.5-0.79-0.88-1.07
		c-0.38-0.28-0.84-0.42-1.39-0.42c-0.49,0-0.91,0.12-1.26,0.35c-0.35,0.23-0.65,0.52-0.89,0.88c-0.44,0.64-0.71,1.41-0.82,2.3
		c-0.11,0.9-0.17,1.81-0.17,2.76c0,0.95,0.06,1.86,0.17,2.74c0.12,0.88,0.39,1.64,0.82,2.28c0.24,0.35,0.54,0.65,0.89,0.9
		c0.35,0.24,0.77,0.37,1.26,0.37c0.55,0,1.01-0.14,1.39-0.42c0.38-0.28,0.67-0.63,0.88-1.07c0.11-0.26,0.2-0.54,0.28-0.84
		c0.07-0.31,0.12-0.64,0.14-0.99H88.59z"/>
	<path class="st3" d="M102.98,45.78c0,1.7-0.15,3.12-0.45,4.26c-0.3,1.15-0.73,2.19-1.28,3.14c-0.51,0.85-1.21,1.58-2.11,2.2
		c-0.9,0.62-1.91,0.92-3.05,0.92c-1.13,0-2.15-0.31-3.05-0.92c-0.9-0.62-1.6-1.35-2.11-2.2c-0.55-0.95-0.97-2-1.28-3.14
		c-0.3-1.14-0.45-2.56-0.45-4.26c0-1.7,0.15-3.12,0.45-4.26c0.3-1.15,0.73-2.2,1.28-3.15c0.51-0.85,1.21-1.58,2.11-2.2
		c0.9-0.62,1.91-0.93,3.05-0.93c1.13,0,2.15,0.31,3.05,0.93c0.89,0.62,1.6,1.35,2.11,2.2c0.55,0.95,0.97,2,1.28,3.15
		C102.83,42.66,102.98,44.08,102.98,45.78 M99.38,45.78c0-0.95-0.07-1.87-0.2-2.76c-0.13-0.89-0.42-1.66-0.85-2.3
		c-0.25-0.36-0.56-0.66-0.94-0.91c-0.38-0.24-0.81-0.37-1.3-0.37c-0.49,0-0.92,0.12-1.3,0.37c-0.38,0.25-0.69,0.55-0.94,0.91
		c-0.43,0.64-0.72,1.41-0.85,2.3c-0.13,0.89-0.2,1.81-0.2,2.76c0,0.95,0.07,1.87,0.2,2.76c0.13,0.89,0.42,1.65,0.85,2.29
		c0.25,0.37,0.56,0.66,0.94,0.91c0.38,0.24,0.81,0.37,1.3,0.37c0.49,0,0.93-0.12,1.3-0.37c0.38-0.24,0.69-0.54,0.94-0.91
		c0.43-0.64,0.71-1.41,0.85-2.29C99.32,47.65,99.38,46.73,99.38,45.78"/>
	<path class="st3" d="M122.25,55.81V43.35c0-1.23-0.16-2.19-0.47-2.87c-0.31-0.68-0.91-1.03-1.8-1.03c-0.51,0-0.95,0.16-1.31,0.49
		c-0.36,0.32-0.65,0.75-0.89,1.27c-0.24,0.53-0.41,1.12-0.52,1.76c-0.11,0.65-0.17,1.27-0.17,1.89v10.96h-3.51V43.35
		c0-1.23-0.16-2.19-0.47-2.87c-0.31-0.68-0.91-1.03-1.8-1.03c-0.51,0-0.95,0.16-1.3,0.49c-0.36,0.32-0.66,0.75-0.91,1.27
		c-0.25,0.53-0.43,1.12-0.54,1.76c-0.11,0.65-0.17,1.27-0.17,1.89v10.96h-3.51V35.74h2.95l0.28,2.66c0.41-0.93,0.97-1.68,1.67-2.28
		c0.7-0.59,1.54-0.89,2.52-0.89c1.04,0,1.91,0.29,2.6,0.87c0.7,0.58,1.24,1.38,1.61,2.41c0.44-1.05,1.04-1.86,1.8-2.43
		c0.76-0.56,1.65-0.85,2.65-0.85c1.59,0,2.78,0.65,3.58,1.95c0.8,1.3,1.2,2.99,1.2,5.08v13.55H122.25z"/>
	<path class="st3" d="M142.08,45.74c0,3.99-0.88,6.97-2.64,8.95c-0.45,0.52-0.98,0.91-1.57,1.2c-0.59,0.28-1.27,0.42-2.02,0.42
		c-0.89,0-1.67-0.18-2.34-0.56c-0.67-0.37-1.18-0.84-1.52-1.41v9.15h-3.54V35.74h3.06l0.23,2.2c0.44-0.93,1.03-1.6,1.79-2.03
		c0.75-0.42,1.54-0.64,2.35-0.64c0.74,0,1.4,0.16,2,0.46c0.6,0.31,1.12,0.72,1.57,1.24c0.89,0.97,1.55,2.2,1.99,3.69
		C141.86,42.14,142.08,43.83,142.08,45.74 M138.48,45.81c0-0.87-0.06-1.74-0.19-2.6c-0.12-0.86-0.37-1.63-0.75-2.3
		c-0.26-0.44-0.59-0.81-0.98-1.12c-0.39-0.31-0.85-0.46-1.4-0.46c-0.7,0-1.27,0.2-1.7,0.6c-0.44,0.4-0.77,0.91-1.02,1.54
		c-0.24,0.63-0.41,1.33-0.5,2.1c-0.08,0.77-0.13,1.52-0.13,2.24c0,0.72,0.04,1.46,0.13,2.22c0.09,0.76,0.25,1.45,0.5,2.08
		c0.25,0.63,0.58,1.15,1.02,1.55c0.44,0.4,1,0.6,1.7,0.6c0.55,0,1.01-0.16,1.4-0.47c0.39-0.31,0.71-0.68,0.98-1.12
		c0.38-0.67,0.63-1.43,0.75-2.28C138.42,47.55,138.48,46.69,138.48,45.81"/>
	<path class="st3" d="M152.59,40.18c-0.43-0.13-0.84-0.19-1.22-0.19c-1.25,0-2.19,0.54-2.83,1.62c-0.64,1.09-0.96,2.44-0.96,4.06
		v10.14h-3.6V35.74H147l0.32,2.98c0.34-1.15,0.9-1.97,1.69-2.48c0.78-0.51,1.61-0.77,2.48-0.77c0.38,0,0.74,0.03,1.1,0.11V40.18z"/>
	<path class="st3" d="M165.91,45.78c0,1.7-0.15,3.12-0.45,4.26c-0.3,1.15-0.73,2.19-1.28,3.14c-0.51,0.85-1.21,1.58-2.11,2.2
		c-0.9,0.62-1.91,0.92-3.05,0.92c-1.13,0-2.15-0.31-3.04-0.92c-0.9-0.62-1.6-1.35-2.11-2.2c-0.55-0.95-0.98-2-1.28-3.14
		c-0.3-1.14-0.45-2.56-0.45-4.26c0-1.7,0.15-3.12,0.45-4.26c0.3-1.15,0.73-2.2,1.28-3.15c0.51-0.85,1.21-1.58,2.11-2.2
		c0.9-0.62,1.91-0.93,3.04-0.93c1.14,0,2.15,0.31,3.05,0.93c0.89,0.62,1.6,1.35,2.11,2.2c0.55,0.95,0.97,2,1.28,3.15
		C165.76,42.66,165.91,44.08,165.91,45.78 M162.31,45.78c0-0.95-0.07-1.87-0.2-2.76c-0.13-0.89-0.42-1.66-0.85-2.3
		c-0.24-0.36-0.56-0.66-0.94-0.91c-0.38-0.24-0.81-0.37-1.3-0.37c-0.49,0-0.92,0.12-1.3,0.37c-0.38,0.25-0.69,0.55-0.94,0.91
		c-0.43,0.64-0.72,1.41-0.85,2.3c-0.13,0.89-0.2,1.81-0.2,2.76c0,0.95,0.07,1.87,0.2,2.76c0.13,0.89,0.42,1.65,0.85,2.29
		c0.25,0.37,0.56,0.66,0.94,0.91c0.38,0.24,0.81,0.37,1.3,0.37c0.49,0,0.93-0.12,1.3-0.37c0.38-0.24,0.69-0.54,0.94-0.91
		c0.43-0.64,0.72-1.41,0.85-2.29C162.24,47.65,162.31,46.73,162.31,45.78"/>
	<path class="st3" d="M185.18,55.81V43.35c0-1.23-0.16-2.19-0.47-2.87c-0.31-0.68-0.91-1.03-1.8-1.03c-0.51,0-0.94,0.16-1.31,0.49
		c-0.36,0.32-0.65,0.75-0.89,1.27c-0.24,0.53-0.41,1.12-0.52,1.76c-0.11,0.65-0.17,1.27-0.17,1.89v10.96h-3.51V43.35
		c0-1.23-0.16-2.19-0.47-2.87c-0.31-0.68-0.91-1.03-1.8-1.03c-0.51,0-0.94,0.16-1.3,0.49c-0.36,0.32-0.66,0.75-0.91,1.27
		c-0.24,0.53-0.42,1.12-0.53,1.76c-0.12,0.65-0.17,1.27-0.17,1.89v10.96h-3.51V35.74h2.94l0.29,2.66c0.41-0.93,0.97-1.68,1.67-2.28
		c0.7-0.59,1.54-0.89,2.52-0.89c1.04,0,1.91,0.29,2.61,0.87c0.7,0.58,1.24,1.38,1.62,2.41c0.43-1.05,1.03-1.86,1.8-2.43
		c0.77-0.56,1.65-0.85,2.65-0.85c1.59,0,2.78,0.65,3.58,1.95c0.8,1.3,1.21,2.99,1.21,5.08v13.55H185.18z"/>
	<path class="st3" d="M190.87,33.89l-1.02-2.32l4.65-4.9l1.41,3.24L190.87,33.89z M191.44,35.74h3.6v20.07h-3.6V35.74z"/>
	<path class="st3" d="M209.43,49.6c0,0.98-0.12,1.83-0.35,2.55c-0.24,0.72-0.55,1.34-0.92,1.85c-0.61,0.83-1.34,1.42-2.21,1.78
		c-0.87,0.36-1.81,0.54-2.83,0.54c-0.95,0-1.82-0.18-2.63-0.56c-0.81-0.37-1.52-0.96-2.13-1.76c-0.43-0.57-0.8-1.25-1.11-2.05
		c-0.3-0.8-0.45-1.67-0.45-2.62h3.32c0,0.44,0.07,0.87,0.22,1.31c0.15,0.43,0.34,0.79,0.57,1.04c0.28,0.31,0.6,0.53,0.95,0.68
		c0.35,0.15,0.78,0.22,1.29,0.22c0.3,0,0.63-0.03,0.98-0.1c0.35-0.06,0.67-0.19,0.98-0.36c0.3-0.18,0.55-0.44,0.75-0.77
		c0.2-0.34,0.3-0.77,0.3-1.31c0-0.6-0.13-1.07-0.4-1.43c-0.26-0.36-0.62-0.59-1.07-0.69c-0.66-0.13-1.34-0.24-2.04-0.33
		c-0.7-0.09-1.38-0.24-2.04-0.45c-0.51-0.16-0.97-0.4-1.37-0.74c-0.41-0.33-0.76-0.74-1.06-1.21c-0.3-0.48-0.53-1-0.69-1.58
		c-0.16-0.58-0.24-1.19-0.24-1.83c0-1.03,0.14-1.91,0.43-2.64c0.28-0.73,0.64-1.36,1.07-1.87c0.55-0.64,1.2-1.14,1.96-1.49
		c0.76-0.34,1.6-0.52,2.52-0.52c0.89,0,1.74,0.19,2.57,0.58c0.82,0.39,1.5,0.98,2.05,1.78c0.4,0.59,0.71,1.24,0.95,1.95
		c0.24,0.71,0.35,1.43,0.35,2.18h-3.37c0-0.39-0.06-0.73-0.17-1.04c-0.11-0.31-0.25-0.59-0.42-0.85c-0.21-0.28-0.49-0.51-0.84-0.67
		c-0.35-0.17-0.71-0.25-1.09-0.25c-0.26,0-0.52,0.01-0.77,0.04c-0.25,0.02-0.5,0.11-0.77,0.27c-0.32,0.18-0.59,0.45-0.81,0.81
		c-0.22,0.36-0.33,0.8-0.33,1.31c0,0.73,0.18,1.22,0.55,1.49c0.37,0.27,0.75,0.44,1.15,0.52c0.34,0.05,0.63,0.1,0.85,0.14
		c0.23,0.04,0.45,0.08,0.68,0.11c0.23,0.04,0.46,0.08,0.71,0.14c0.25,0.05,0.55,0.11,0.91,0.19c1.17,0.26,2.13,0.87,2.89,1.83
		C209.05,46.72,209.43,48,209.43,49.6"/>
</g>
</svg>
