<!-- Generator: Adobe Illustrator 23.0.3, SVG Export Plug-In  -->
<svg version="1.1" xmlns="http://www.w3.org/2000/svg" xmlns:xlink="http://www.w3.org/1999/xlink" x="0px" y="0px"
	 width="246.89px" height="87.95px" viewBox="0 0 246.89 87.95" style="enable-background:new 0 0 246.89 87.95;"
	 xml:space="preserve">
<style type="text/css">
	.st0{fill:none;stroke:#D43F27;}
	.st1{fill:#FFFFFF;}
	.st2{clip-path:url(#SVGID_2_);fill:url(#SVGID_3_);}
	.st3{clip-path:url(#SVGID_5_);fill:url(#SVGID_6_);}
	.st4{fill:#27292E;}
	.st5{fill:none;}
	.st6{clip-path:url(#SVGID_8_);fill:url(#SVGID_9_);}
	.st7{clip-path:url(#SVGID_11_);fill:url(#SVGID_12_);}
</style>
<defs>
</defs>
<line class="st0" x1="0.17" y1="0.47" x2="246.72" y2="87.48"/>
<rect x="10.21" y="27.61" class="st1" width="38.9" height="32.18"/>
<g>
	<defs>
		<path id="SVGID_1_" d="M43.67,47.71l1.65,2.11c-4.3,3.57-9.16,5.41-15.11,5.41c-5.95,0-10.81-1.84-15.11-5.41l1.65-2.11
			c4.26,3.04,7.76,4.43,13.46,4.43C35.91,52.14,39.4,50.75,43.67,47.71 M22.03,34.45h4.7v4.49h-4.33c-2.71,0-4.49-0.66-5.64-3.28
			l1.81-1.04c0.81,1.66,1.81,2.05,3.46,2.05V34.45z M33.53,34.45h4.7v4.49h-4.7V34.45z M9.55,22.73c-1.16,0-2.1,0.9-2.1,2.01v38.95
			c0,1.11,0.94,2.01,2.1,2.01h40.81c1.15,0,2.1-0.9,2.1-2.01V24.74c0-1.11-0.95-2.01-2.1-2.01H9.55z"/>
	</defs>
	<clipPath id="SVGID_2_">
		<use xlink:href="#SVGID_1_"  style="overflow:visible;"/>
	</clipPath>

		<linearGradient id="SVGID_3_" gradientUnits="userSpaceOnUse" x1="-104.7446" y1="405.9545" x2="-103.7446" y2="405.9545" gradientTransform="matrix(0 43.4422 43.4422 0 -17605.6016 4572.8452)">
		<stop  offset="0" style="stop-color:#E18433"/>
		<stop  offset="0.2756" style="stop-color:#DE7833"/>
		<stop  offset="0.8103" style="stop-color:#D85933"/>
		<stop  offset="1" style="stop-color:#D54B32"/>
	</linearGradient>
	<rect x="7.45" y="22.73" class="st2" width="45.01" height="42.97"/>
</g>
<g>
	<defs>
		<path id="SVGID_4_" d="M43.88,47.68l1.66,2.12c-4.33,3.59-9.21,5.44-15.19,5.44s-10.87-1.85-15.19-5.44l1.66-2.12
			c4.29,3.05,7.8,4.45,13.53,4.45C36.07,52.14,39.59,50.74,43.88,47.68 M22.12,34.35h4.73v4.52H22.5c-2.73,0-4.51-0.66-5.67-3.29
			l1.82-1.04c0.82,1.67,1.82,2.06,3.48,2.06V34.35z M33.68,34.35h4.73v4.52h-4.73V34.35z M9.56,22.56c-1.16,0-2.11,0.91-2.11,2.02
			v39.18c0,1.11,0.95,2.02,2.11,2.02h41.05c1.16,0,2.11-0.91,2.11-2.02V24.58c0-1.11-0.95-2.02-2.11-2.02H9.56z"/>
	</defs>
	<clipPath id="SVGID_5_">
		<use xlink:href="#SVGID_4_"  style="overflow:visible;"/>
	</clipPath>

		<linearGradient id="SVGID_6_" gradientUnits="userSpaceOnUse" x1="-104.7446" y1="405.9545" x2="-103.7446" y2="405.9545" gradientTransform="matrix(0 43.6917 -43.6917 0 17766.9277 4598.8047)">
		<stop  offset="0" style="stop-color:#E28431"/>
		<stop  offset="0.3498" style="stop-color:#DF7432"/>
		<stop  offset="1" style="stop-color:#D84C33"/>
	</linearGradient>
	<rect x="7.45" y="22.56" class="st3" width="45.27" height="43.21"/>
</g>
<path class="st4" d="M72.17,31.59c-0.08,0.58-0.25,1.13-0.51,1.64c-0.26,0.51-0.59,0.95-1.01,1.32c-0.41,0.37-0.89,0.66-1.45,0.88
	c-0.55,0.21-1.14,0.31-1.77,0.31c-0.76,0-1.44-0.13-2.04-0.4c-0.6-0.27-1.11-0.61-1.53-1.03c-0.63-0.63-1.08-1.36-1.32-2.17
	c-0.25-0.82-0.38-1.74-0.38-2.78c0-1.03,0.13-1.96,0.38-2.78c0.25-0.82,0.69-1.54,1.32-2.17c0.42-0.42,0.93-0.76,1.53-1.03
	c0.6-0.26,1.28-0.4,2.04-0.4c0.63,0,1.22,0.1,1.76,0.29c0.54,0.19,1.01,0.47,1.42,0.83c0.4,0.37,0.74,0.8,1.01,1.3
	c0.27,0.5,0.43,1.06,0.5,1.68h-1.26c-0.13-0.84-0.5-1.54-1.12-2.08c-0.62-0.55-1.38-0.82-2.3-0.82c-0.58,0-1.1,0.09-1.54,0.28
	c-0.45,0.18-0.83,0.44-1.15,0.76c-0.55,0.57-0.91,1.2-1.08,1.91c-0.17,0.7-0.25,1.45-0.25,2.24c0,0.79,0.08,1.54,0.25,2.26
	c0.17,0.71,0.54,1.35,1.08,1.92c0.65,0.68,1.54,1.02,2.69,1.02c0.93,0,1.71-0.29,2.31-0.86c0.61-0.57,0.98-1.27,1.13-2.1H72.17z"/>
<path class="st4" d="M84.72,29.36c0,1.03-0.13,1.96-0.39,2.76c-0.26,0.81-0.7,1.53-1.33,2.16c-0.42,0.42-0.93,0.76-1.52,1.04
	c-0.59,0.27-1.27,0.41-2.02,0.41c-0.76,0-1.43-0.14-2.03-0.41c-0.59-0.28-1.09-0.62-1.52-1.04c-0.63-0.63-1.07-1.35-1.33-2.16
	c-0.26-0.81-0.39-1.73-0.39-2.76c0-1.03,0.13-1.96,0.39-2.76c0.26-0.81,0.71-1.53,1.33-2.16c0.43-0.42,0.93-0.77,1.52-1.04
	c0.59-0.28,1.26-0.41,2.03-0.41c0.76,0,1.44,0.13,2.02,0.41c0.59,0.28,1.1,0.62,1.52,1.04c0.63,0.63,1.08,1.35,1.33,2.16
	C84.59,27.41,84.72,28.33,84.72,29.36 M83.48,29.36c0-0.79-0.09-1.53-0.27-2.23c-0.18-0.7-0.54-1.33-1.09-1.89
	c-0.32-0.33-0.71-0.58-1.14-0.78c-0.43-0.2-0.95-0.29-1.53-0.29c-0.58,0-1.09,0.09-1.53,0.29c-0.44,0.2-0.82,0.45-1.14,0.78
	c-0.55,0.56-0.92,1.2-1.09,1.89c-0.18,0.7-0.27,1.44-0.27,2.23c0,0.79,0.09,1.54,0.27,2.23c0.18,0.7,0.54,1.33,1.09,1.89
	c0.32,0.32,0.7,0.58,1.14,0.78c0.44,0.19,0.95,0.29,1.53,0.29c0.58,0,1.09-0.1,1.53-0.29c0.44-0.2,0.82-0.45,1.14-0.78
	c0.55-0.57,0.91-1.2,1.09-1.89C83.39,30.9,83.48,30.15,83.48,29.36"/>
<path class="st4" d="M98.13,35.43c-0.15,0.03-0.24,0.05-0.29,0.06c-0.05,0.01-0.14,0.01-0.29,0.01c-0.75,0-1.26-0.23-1.53-0.7
	c-0.27-0.47-0.4-1.03-0.4-1.67c-0.16,0.44-0.4,0.82-0.69,1.14c-0.3,0.32-0.65,0.59-1.04,0.81c-0.39,0.22-0.81,0.39-1.26,0.5
	c-0.45,0.11-0.92,0.17-1.38,0.17c-0.58,0-1.13-0.09-1.64-0.25c-0.51-0.18-0.95-0.42-1.33-0.74c-0.38-0.33-0.68-0.72-0.89-1.18
	c-0.21-0.46-0.31-0.98-0.31-1.56c0-1.08,0.37-1.94,1.12-2.56c0.75-0.62,1.73-0.97,2.95-1.05l4.46-0.32v-1.19c0-1-0.3-1.72-0.91-2.13
	c-0.6-0.42-1.37-0.63-2.29-0.63c-0.96,0-1.77,0.22-2.42,0.65c-0.64,0.44-1,1.11-1.06,2.01H87.7c0.05-0.61,0.2-1.16,0.45-1.62
	c0.25-0.47,0.58-0.87,1-1.19c0.41-0.32,0.9-0.57,1.46-0.74c0.56-0.17,1.16-0.25,1.81-0.25c0.42,0,0.84,0.03,1.25,0.11
	c0.42,0.08,0.81,0.2,1.18,0.38c0.37,0.18,0.71,0.41,1,0.69c0.29,0.28,0.52,0.64,0.68,1.06c0.14,0.37,0.24,0.75,0.26,1.14
	c0.03,0.39,0.05,0.78,0.05,1.19v5.53c0,0.42,0.05,0.74,0.16,0.97c0.1,0.23,0.37,0.34,0.79,0.34c0.14,0,0.26-0.01,0.34-0.03V35.43z
	 M95.61,29.19l-4.35,0.27c-0.91,0.07-1.62,0.32-2.16,0.77c-0.54,0.44-0.8,1.04-0.8,1.78c0,0.87,0.29,1.53,0.86,1.96
	c0.57,0.44,1.3,0.65,2.17,0.65c0.76,0,1.41-0.14,1.95-0.42c0.54-0.29,0.98-0.65,1.32-1.11c0.34-0.45,0.59-0.97,0.76-1.54
	c0.16-0.58,0.24-1.15,0.24-1.74V29.19z"/>
<path class="st4" d="M104.73,35.43c-0.13,0.03-0.28,0.06-0.45,0.1c-0.17,0.03-0.38,0.05-0.64,0.05c-0.78,0-1.38-0.21-1.81-0.62
	c-0.43-0.41-0.64-1.06-0.64-1.95V17.91h1.24v15.02c0,0.42,0.08,0.77,0.24,1.04c0.16,0.28,0.5,0.41,1.02,0.41h0.57
	c0.14,0,0.29-0.02,0.47-0.05V35.43z"/>
<path class="st4" d="M107.52,18.23h1.7v1.7h-1.7V18.23z M107.74,23.3h1.29v12.13h-1.29V23.3z"/>
<path class="st4" d="M122.46,31.59c-0.08,0.58-0.25,1.13-0.51,1.64c-0.26,0.51-0.59,0.95-1.01,1.32c-0.41,0.37-0.89,0.66-1.44,0.88
	c-0.55,0.21-1.14,0.31-1.77,0.31c-0.76,0-1.44-0.13-2.04-0.4c-0.59-0.27-1.11-0.61-1.53-1.03c-0.63-0.63-1.07-1.36-1.32-2.17
	c-0.25-0.82-0.38-1.74-0.38-2.78c0-1.03,0.13-1.96,0.38-2.78c0.25-0.82,0.69-1.54,1.32-2.17c0.42-0.42,0.93-0.76,1.53-1.03
	c0.6-0.26,1.28-0.4,2.04-0.4c0.63,0,1.22,0.1,1.76,0.29c0.54,0.19,1.01,0.47,1.42,0.83c0.4,0.37,0.74,0.8,1,1.3
	c0.27,0.5,0.43,1.06,0.5,1.68h-1.26c-0.13-0.84-0.5-1.54-1.12-2.08c-0.61-0.55-1.38-0.82-2.3-0.82c-0.58,0-1.09,0.09-1.54,0.28
	c-0.45,0.18-0.83,0.44-1.15,0.76c-0.55,0.57-0.91,1.2-1.08,1.91c-0.17,0.7-0.26,1.45-0.26,2.24c0,0.79,0.09,1.54,0.26,2.26
	c0.17,0.71,0.53,1.35,1.08,1.92c0.64,0.68,1.54,1.02,2.69,1.02c0.94,0,1.71-0.29,2.32-0.86c0.6-0.57,0.98-1.27,1.12-2.1H122.46z"/>
<path class="st4" d="M125.42,18.23h1.7v1.7h-1.7V18.23z M125.64,23.3h1.29v12.13h-1.29V23.3z"/>
<path class="st4" d="M140.9,29.36c0,1.03-0.13,1.96-0.39,2.76c-0.26,0.81-0.71,1.53-1.34,2.16c-0.42,0.42-0.93,0.77-1.51,1.04
	c-0.59,0.27-1.26,0.41-2.03,0.41c-0.76,0-1.43-0.14-2.03-0.41c-0.59-0.28-1.1-0.62-1.51-1.04c-0.63-0.63-1.07-1.35-1.33-2.16
	c-0.26-0.8-0.39-1.73-0.39-2.76c0-1.03,0.13-1.96,0.39-2.77c0.26-0.81,0.71-1.53,1.33-2.16c0.42-0.42,0.93-0.77,1.51-1.04
	c0.59-0.28,1.27-0.41,2.03-0.41c0.76,0,1.44,0.13,2.03,0.41c0.59,0.28,1.09,0.62,1.51,1.04c0.63,0.63,1.07,1.35,1.34,2.16
	C140.77,27.41,140.9,28.33,140.9,29.36 M139.66,29.36c0-0.79-0.09-1.54-0.27-2.23c-0.18-0.7-0.54-1.33-1.09-1.89
	c-0.32-0.33-0.7-0.58-1.14-0.78c-0.44-0.2-0.95-0.29-1.53-0.29c-0.58,0-1.09,0.09-1.53,0.29c-0.43,0.2-0.81,0.45-1.14,0.78
	c-0.55,0.56-0.91,1.2-1.09,1.89c-0.18,0.69-0.27,1.44-0.27,2.23c0,0.79,0.09,1.54,0.27,2.23c0.18,0.7,0.54,1.33,1.09,1.89
	c0.32,0.32,0.7,0.57,1.14,0.78c0.44,0.19,0.95,0.29,1.53,0.29c0.58,0,1.09-0.1,1.53-0.29c0.44-0.2,0.82-0.45,1.14-0.78
	c0.55-0.57,0.92-1.2,1.09-1.89C139.57,30.9,139.66,30.15,139.66,29.36 M133.96,21.65l-0.41-0.65l3.84-2.82l0.68,1.07L133.96,21.65z"
	/>
<path class="st4" d="M79.18,55.64c-0.05,0.78-0.2,1.54-0.45,2.27c-0.25,0.74-0.6,1.39-1.05,1.97c-0.68,0.85-1.59,1.58-2.72,2.18
	c-1.14,0.6-2.46,0.9-3.96,0.9c-1.51,0-2.85-0.31-4.02-0.92c-1.18-0.62-2.11-1.33-2.78-2.16c-0.73-0.93-1.27-1.99-1.62-3.19
	c-0.35-1.2-0.52-2.52-0.52-3.95c0-1.43,0.17-2.74,0.52-3.94c0.35-1.2,0.89-2.27,1.62-3.19c0.68-0.83,1.6-1.55,2.78-2.16
	c1.17-0.62,2.51-0.92,4.02-0.92c1.5,0,2.82,0.3,3.96,0.9c1.14,0.6,2.05,1.33,2.72,2.18c0.45,0.58,0.8,1.24,1.05,1.97
	c0.25,0.74,0.4,1.5,0.45,2.27h-4.62c-0.02-0.34-0.09-0.67-0.19-0.96c-0.1-0.3-0.23-0.57-0.38-0.82c-0.28-0.42-0.66-0.77-1.16-1.04
	c-0.5-0.27-1.11-0.41-1.84-0.41c-0.65,0-1.21,0.11-1.68,0.34c-0.46,0.22-0.86,0.51-1.18,0.86c-0.58,0.62-0.94,1.37-1.09,2.24
	c-0.15,0.87-0.22,1.77-0.22,2.68c0,0.93,0.08,1.81,0.22,2.67c0.15,0.86,0.51,1.6,1.09,2.22c0.32,0.35,0.72,0.64,1.18,0.88
	c0.47,0.24,1.02,0.36,1.68,0.36c0.73,0,1.34-0.13,1.84-0.41c0.5-0.28,0.89-0.62,1.16-1.04c0.15-0.25,0.27-0.52,0.38-0.82
	c0.1-0.3,0.16-0.62,0.19-0.97H79.18z"/>
<path class="st4" d="M98.27,52.79c0,1.65-0.2,3.04-0.6,4.15c-0.4,1.11-0.97,2.13-1.69,3.06c-0.67,0.83-1.61,1.54-2.79,2.14
	c-1.19,0.6-2.54,0.9-4.04,0.9c-1.5,0-2.85-0.3-4.04-0.9c-1.19-0.6-2.12-1.32-2.8-2.14c-0.73-0.93-1.29-1.95-1.69-3.06
	c-0.4-1.11-0.6-2.5-0.6-4.15c0-1.65,0.2-3.04,0.6-4.15c0.4-1.12,0.96-2.14,1.69-3.07c0.68-0.83,1.61-1.54,2.8-2.14
	c1.19-0.6,2.54-0.9,4.04-0.9c1.5,0,2.85,0.3,4.04,0.9c1.19,0.6,2.12,1.31,2.79,2.14c0.73,0.93,1.29,1.95,1.69,3.07
	C98.07,49.75,98.27,51.14,98.27,52.79 M93.5,52.79c0-0.93-0.09-1.82-0.26-2.69c-0.18-0.86-0.55-1.61-1.12-2.23
	c-0.33-0.35-0.74-0.65-1.24-0.89c-0.5-0.24-1.08-0.36-1.73-0.36c-0.65,0-1.22,0.12-1.73,0.36c-0.5,0.24-0.92,0.53-1.24,0.89
	c-0.58,0.62-0.95,1.37-1.13,2.23c-0.17,0.87-0.26,1.76-0.26,2.69c0,0.92,0.09,1.82,0.26,2.69c0.18,0.87,0.55,1.61,1.13,2.23
	c0.33,0.36,0.74,0.65,1.24,0.88c0.5,0.24,1.07,0.36,1.73,0.36c0.65,0,1.23-0.12,1.73-0.36c0.5-0.24,0.92-0.53,1.24-0.88
	c0.57-0.62,0.95-1.37,1.12-2.23C93.41,54.61,93.5,53.71,93.5,52.79"/>
<path class="st4" d="M123.82,62.56V50.42c0-1.2-0.21-2.14-0.62-2.8c-0.41-0.66-1.21-1-2.38-1c-0.68,0-1.25,0.16-1.73,0.47
	c-0.47,0.31-0.87,0.73-1.18,1.24c-0.31,0.52-0.55,1.09-0.7,1.71c-0.15,0.63-0.22,1.24-0.22,1.84v10.67h-4.66V50.42
	c0-1.2-0.21-2.14-0.62-2.8c-0.41-0.66-1.21-1-2.38-1c-0.68,0-1.25,0.16-1.73,0.47c-0.48,0.31-0.88,0.73-1.2,1.24
	c-0.33,0.52-0.57,1.09-0.71,1.71c-0.15,0.63-0.23,1.24-0.23,1.84v10.67h-4.66V43.02h3.9l0.38,2.59c0.55-0.9,1.29-1.64,2.22-2.22
	c0.92-0.58,2.04-0.86,3.34-0.86c1.37,0,2.53,0.28,3.45,0.85c0.93,0.56,1.64,1.34,2.14,2.34c0.58-1.02,1.38-1.81,2.39-2.36
	c1.01-0.55,2.18-0.82,3.51-0.82c2.1,0,3.69,0.63,4.75,1.89c1.07,1.27,1.6,2.92,1.6,4.95v13.19H123.82z"/>
<path class="st4" d="M150.12,52.75c0,3.89-1.16,6.79-3.5,8.72c-0.6,0.5-1.3,0.89-2.09,1.17c-0.79,0.28-1.68,0.41-2.68,0.41
	c-1.18,0-2.22-0.18-3.1-0.54c-0.89-0.36-1.56-0.82-2.01-1.37v8.91h-4.7V43.02h4.06l0.3,2.14c0.58-0.9,1.37-1.56,2.37-1.97
	c1-0.41,2.04-0.62,3.12-0.62c0.98,0,1.86,0.15,2.65,0.45c0.79,0.3,1.48,0.7,2.09,1.21c1.18,0.95,2.05,2.14,2.63,3.59
	C149.83,49.25,150.12,50.9,150.12,52.75 M145.35,52.83c0-0.85-0.08-1.7-0.25-2.53c-0.16-0.84-0.49-1.58-1-2.24
	c-0.35-0.43-0.78-0.79-1.3-1.09c-0.51-0.3-1.13-0.45-1.86-0.45c-0.93,0-1.68,0.19-2.26,0.58c-0.58,0.39-1.03,0.89-1.35,1.5
	c-0.32,0.61-0.54,1.29-0.66,2.05c-0.11,0.75-0.17,1.48-0.17,2.18c0,0.7,0.06,1.43,0.17,2.16c0.12,0.74,0.34,1.41,0.66,2.03
	c0.33,0.61,0.78,1.12,1.35,1.5c0.58,0.39,1.33,0.59,2.26,0.59c0.73,0,1.35-0.15,1.86-0.45c0.51-0.3,0.94-0.66,1.3-1.09
	c0.5-0.65,0.83-1.39,1-2.22C145.27,54.52,145.35,53.68,145.35,52.83"/>
<path class="st4" d="M164.06,47.34c-0.58-0.12-1.11-0.19-1.62-0.19c-1.65,0-2.9,0.53-3.75,1.58c-0.85,1.06-1.28,2.38-1.28,3.95v9.87
	h-4.78V43.02h4.01l0.42,2.9c0.45-1.12,1.2-1.92,2.24-2.42c1.04-0.5,2.14-0.74,3.29-0.74c0.5,0,0.98,0.03,1.46,0.11V47.34z"/>
<path class="st4" d="M181.72,52.79c0,1.65-0.2,3.04-0.6,4.15c-0.4,1.11-0.97,2.13-1.69,3.06c-0.68,0.83-1.61,1.54-2.8,2.14
	c-1.19,0.6-2.54,0.9-4.04,0.9c-1.5,0-2.85-0.3-4.04-0.9c-1.19-0.6-2.13-1.32-2.8-2.14c-0.73-0.93-1.29-1.95-1.69-3.06
	c-0.4-1.11-0.6-2.5-0.6-4.15c0-1.65,0.2-3.04,0.6-4.15c0.4-1.12,0.96-2.14,1.69-3.07c0.68-0.83,1.61-1.54,2.8-2.14
	c1.19-0.6,2.53-0.9,4.04-0.9c1.51,0,2.85,0.3,4.04,0.9c1.19,0.6,2.12,1.31,2.8,2.14c0.73,0.93,1.29,1.95,1.69,3.07
	C181.52,49.75,181.72,51.14,181.72,52.79 M176.95,52.79c0-0.93-0.09-1.82-0.26-2.69c-0.17-0.86-0.55-1.61-1.13-2.23
	c-0.32-0.35-0.74-0.65-1.24-0.89c-0.5-0.24-1.08-0.36-1.73-0.36c-0.65,0-1.23,0.12-1.73,0.36c-0.5,0.24-0.91,0.53-1.24,0.89
	c-0.57,0.62-0.95,1.37-1.12,2.23c-0.18,0.87-0.27,1.76-0.27,2.69c0,0.92,0.09,1.82,0.27,2.69c0.17,0.87,0.55,1.61,1.12,2.23
	c0.33,0.36,0.74,0.65,1.24,0.88c0.5,0.24,1.08,0.36,1.73,0.36c0.65,0,1.23-0.12,1.73-0.36c0.5-0.24,0.92-0.53,1.24-0.88
	c0.58-0.62,0.95-1.37,1.13-2.23C176.86,54.61,176.95,53.71,176.95,52.79"/>
<path class="st4" d="M207.28,62.56V50.42c0-1.2-0.21-2.14-0.62-2.8c-0.41-0.66-1.21-1-2.39-1c-0.68,0-1.25,0.16-1.73,0.47
	c-0.47,0.31-0.87,0.73-1.18,1.24c-0.31,0.52-0.55,1.09-0.69,1.71c-0.15,0.63-0.23,1.24-0.23,1.84v10.67h-4.66V50.42
	c0-1.2-0.21-2.14-0.62-2.8c-0.41-0.66-1.21-1-2.39-1c-0.68,0-1.25,0.16-1.73,0.47c-0.48,0.31-0.88,0.73-1.2,1.24
	c-0.32,0.52-0.56,1.09-0.71,1.71c-0.15,0.63-0.23,1.24-0.23,1.84v10.67h-4.66V43.02h3.9l0.38,2.59c0.54-0.9,1.29-1.64,2.21-2.22
	c0.93-0.58,2.04-0.86,3.34-0.86c1.38,0,2.53,0.28,3.45,0.85c0.93,0.56,1.64,1.34,2.14,2.34c0.58-1.02,1.37-1.81,2.39-2.36
	c1.01-0.55,2.18-0.82,3.51-0.82c2.1,0,3.69,0.63,4.75,1.89c1.06,1.27,1.6,2.92,1.6,4.95v13.19H207.28z"/>
<path class="st4" d="M214.83,41.22l-1.35-2.26l6.16-4.77l1.88,3.16L214.83,41.22z M215.58,43.02h4.77v19.54h-4.77V43.02z"/>
<path class="st4" d="M239.44,56.51c0,0.95-0.16,1.78-0.47,2.48c-0.31,0.7-0.72,1.3-1.22,1.8c-0.8,0.8-1.78,1.38-2.93,1.73
	c-1.16,0.35-2.41,0.52-3.76,0.52c-1.25,0-2.42-0.18-3.49-0.54c-1.08-0.36-2.02-0.93-2.82-1.71c-0.58-0.55-1.07-1.22-1.47-1.99
	c-0.4-0.78-0.6-1.63-0.6-2.55h4.4c0,0.42,0.1,0.85,0.3,1.27c0.2,0.42,0.45,0.77,0.75,1.01c0.38,0.3,0.79,0.52,1.26,0.66
	c0.46,0.14,1.03,0.21,1.71,0.21c0.4,0,0.83-0.03,1.3-0.1c0.46-0.06,0.9-0.18,1.3-0.35c0.4-0.18,0.73-0.42,0.99-0.75
	c0.27-0.33,0.39-0.75,0.39-1.28c0-0.58-0.17-1.04-0.52-1.39c-0.35-0.35-0.83-0.58-1.43-0.67c-0.88-0.12-1.78-0.23-2.7-0.32
	c-0.93-0.09-1.83-0.23-2.71-0.43c-0.68-0.15-1.28-0.39-1.82-0.72c-0.54-0.32-1.01-0.71-1.41-1.18c-0.4-0.46-0.71-0.97-0.92-1.54
	c-0.21-0.56-0.32-1.16-0.32-1.78c0-1,0.19-1.86,0.57-2.57c0.38-0.71,0.85-1.32,1.43-1.82c0.73-0.63,1.59-1.11,2.6-1.45
	c1-0.34,2.12-0.51,3.34-0.51c1.18,0,2.31,0.19,3.4,0.56c1.09,0.38,1.99,0.95,2.72,1.73c0.52,0.57,0.95,1.21,1.26,1.9
	c0.32,0.69,0.47,1.39,0.47,2.12h-4.47c0-0.38-0.08-0.72-0.23-1.01c-0.15-0.3-0.34-0.58-0.56-0.83c-0.28-0.28-0.65-0.49-1.11-0.66
	c-0.46-0.16-0.94-0.24-1.45-0.24c-0.35,0-0.69,0.01-1.01,0.04c-0.33,0.02-0.67,0.11-1.01,0.26c-0.43,0.18-0.78,0.44-1.07,0.79
	c-0.29,0.35-0.43,0.78-0.43,1.27c0,0.71,0.25,1.19,0.73,1.45c0.49,0.26,1,0.43,1.52,0.5c0.45,0.05,0.83,0.09,1.13,0.13
	c0.3,0.04,0.6,0.07,0.9,0.11c0.3,0.04,0.62,0.08,0.94,0.13c0.33,0.05,0.73,0.11,1.2,0.19c1.55,0.25,2.83,0.84,3.83,1.78
	C238.94,53.71,239.44,54.95,239.44,56.51"/>
<rect x="7.45" y="17.91" class="st5" width="231.99" height="52.13"/>
</svg>
