<!-- Generator: Adobe Illustrator 23.0.3, SVG Export Plug-In  -->
<svg version="1.1" xmlns="http://www.w3.org/2000/svg" xmlns:xlink="http://www.w3.org/1999/xlink" x="0px" y="0px" width="269px"
	 height="87.95px" viewBox="0 0 269 87.95" style="enable-background:new 0 0 269 87.95;" xml:space="preserve">
<style type="text/css">
	.st0{fill:none;stroke:#D43F27;}
	.st1{fill:#FFFFFF;}
	.st2{clip-path:url(#SVGID_2_);fill:url(#SVGID_3_);}
	.st3{clip-path:url(#SVGID_5_);fill:#27292E;}
	.st4{clip-path:url(#SVGID_7_);fill:url(#SVGID_8_);}
	.st5{clip-path:url(#SVGID_10_);fill:#27292E;}
</style>
<defs>
</defs>
<line class="st0" x1="11.22" y1="0.47" x2="257.78" y2="87.48"/>
<rect x="2.77" y="27.37" class="st1" width="38.9" height="32.18"/>
<g>
	<defs>
		<path id="SVGID_1_" d="M36.22,47.47l1.65,2.11c-4.3,3.57-9.16,5.41-15.11,5.41c-5.95,0-10.81-1.84-15.11-5.41l1.65-2.11
			c4.27,3.03,7.76,4.43,13.46,4.43C28.46,51.9,31.96,50.5,36.22,47.47 M14.59,34.21h4.7v4.49h-4.33c-2.71,0-4.49-0.66-5.64-3.28
			l1.81-1.04c0.81,1.66,1.81,2.05,3.46,2.05V34.21z M26.08,34.21h4.7v4.49h-4.7V34.21z M2.1,22.49c-1.16,0-2.1,0.9-2.1,2.01v38.95
			c0,1.11,0.95,2.01,2.1,2.01h40.81c1.15,0,2.1-0.9,2.1-2.01V24.5c0-1.11-0.95-2.01-2.1-2.01H2.1z"/>
	</defs>
	<clipPath id="SVGID_2_">
		<use xlink:href="#SVGID_1_"  style="overflow:visible;"/>
	</clipPath>

		<linearGradient id="SVGID_3_" gradientUnits="userSpaceOnUse" x1="-479.201" y1="405.9545" x2="-478.201" y2="405.9545" gradientTransform="matrix(0 43.4422 43.4422 0 -17613.0488 20839.8125)">
		<stop  offset="0" style="stop-color:#E18433"/>
		<stop  offset="0.2756" style="stop-color:#DE7833"/>
		<stop  offset="0.8103" style="stop-color:#D85933"/>
		<stop  offset="1" style="stop-color:#D54B32"/>
	</linearGradient>
	<rect y="22.49" class="st2" width="45.01" height="42.97"/>
</g>
<g>
	<defs>
		<rect id="SVGID_4_" y="22.49" width="269" height="42.97"/>
	</defs>
	<clipPath id="SVGID_5_">
		<use xlink:href="#SVGID_4_"  style="overflow:visible;"/>
	</clipPath>
	<path class="st3" d="M73.58,47.58c-0.05,0.85-0.22,1.67-0.49,2.47c-0.27,0.8-0.65,1.51-1.14,2.14c-0.73,0.92-1.72,1.71-2.96,2.36
		c-1.24,0.65-2.67,0.98-4.3,0.98c-1.63,0-3.09-0.33-4.36-1c-1.28-0.67-2.29-1.45-3.02-2.35c-0.79-1.01-1.37-2.16-1.76-3.47
		c-0.38-1.3-0.57-2.73-0.57-4.28c0-1.55,0.19-2.98,0.57-4.28c0.38-1.31,0.97-2.46,1.76-3.47c0.73-0.9,1.74-1.67,3.02-2.34
		c1.27-0.67,2.73-1,4.36-1c1.63,0,3.06,0.33,4.3,0.98c1.24,0.65,2.22,1.44,2.96,2.36c0.49,0.63,0.87,1.34,1.14,2.14
		c0.27,0.8,0.43,1.62,0.49,2.47h-5.01c-0.02-0.37-0.1-0.72-0.2-1.05c-0.11-0.32-0.24-0.62-0.41-0.89c-0.3-0.45-0.72-0.83-1.26-1.13
		c-0.55-0.3-1.21-0.45-2-0.45c-0.71,0-1.31,0.12-1.82,0.37c-0.5,0.24-0.93,0.55-1.28,0.93c-0.63,0.68-1.02,1.49-1.19,2.43
		c-0.16,0.95-0.24,1.92-0.24,2.92c0,1,0.08,1.97,0.24,2.9c0.17,0.93,0.56,1.73,1.19,2.41c0.35,0.38,0.78,0.69,1.28,0.95
		c0.51,0.26,1.11,0.39,1.82,0.39c0.79,0,1.45-0.15,2-0.45c0.54-0.3,0.96-0.67,1.26-1.12c0.16-0.27,0.29-0.57,0.41-0.89
		c0.11-0.33,0.18-0.67,0.2-1.05H73.58z"/>
	<path class="st3" d="M94.3,44.48c0,1.79-0.22,3.29-0.65,4.5c-0.44,1.21-1.05,2.32-1.84,3.32c-0.73,0.9-1.75,1.68-3.03,2.33
		c-1.29,0.65-2.76,0.98-4.39,0.98c-1.63,0-3.09-0.33-4.38-0.98c-1.29-0.65-2.3-1.43-3.03-2.33c-0.79-1-1.4-2.11-1.84-3.32
		c-0.44-1.21-0.65-2.71-0.65-4.5c0-1.79,0.22-3.29,0.65-4.51c0.43-1.21,1.05-2.32,1.84-3.33c0.73-0.9,1.74-1.67,3.03-2.32
		c1.29-0.65,2.75-0.98,4.38-0.98c1.63,0,3.09,0.33,4.39,0.98c1.29,0.65,2.3,1.43,3.03,2.32c0.79,1,1.4,2.11,1.84,3.33
		C94.08,41.19,94.3,42.69,94.3,44.48 M89.12,44.48c0-1.01-0.1-1.98-0.29-2.92c-0.19-0.94-0.6-1.75-1.22-2.42
		c-0.35-0.38-0.8-0.7-1.35-0.96c-0.54-0.26-1.17-0.39-1.88-0.39c-0.71,0-1.33,0.13-1.87,0.39c-0.54,0.26-0.99,0.58-1.35,0.96
		c-0.62,0.68-1.03,1.49-1.22,2.42c-0.19,0.94-0.29,1.91-0.29,2.92c0,1,0.1,1.98,0.29,2.92c0.19,0.94,0.6,1.75,1.22,2.42
		c0.35,0.39,0.8,0.7,1.35,0.96c0.55,0.26,1.17,0.39,1.87,0.39c0.71,0,1.33-0.13,1.88-0.39c0.54-0.26,0.99-0.57,1.35-0.96
		c0.62-0.68,1.03-1.49,1.22-2.42C89.03,46.46,89.12,45.48,89.12,44.48"/>
	<path class="st3" d="M269,44.48c0,1.79-0.22,3.29-0.65,4.5c-0.44,1.21-1.05,2.32-1.84,3.32c-0.73,0.9-1.75,1.68-3.03,2.33
		c-1.29,0.65-2.76,0.98-4.39,0.98c-1.63,0-3.09-0.33-4.38-0.98c-1.29-0.65-2.3-1.43-3.03-2.33c-0.79-1-1.4-2.11-1.84-3.32
		c-0.44-1.21-0.65-2.71-0.65-4.5c0-1.79,0.22-3.29,0.65-4.51c0.43-1.21,1.05-2.32,1.84-3.33c0.73-0.9,1.74-1.67,3.03-2.32
		c1.29-0.65,2.75-0.98,4.38-0.98c1.63,0,3.09,0.33,4.39,0.98c1.29,0.65,2.3,1.43,3.03,2.32c0.79,1,1.4,2.11,1.84,3.33
		C268.78,41.19,269,42.69,269,44.48 M263.82,44.48c0-1.01-0.1-1.98-0.29-2.92c-0.19-0.94-0.6-1.75-1.22-2.42
		c-0.36-0.38-0.8-0.7-1.35-0.96c-0.54-0.26-1.17-0.39-1.88-0.39c-0.71,0-1.33,0.13-1.87,0.39c-0.54,0.26-0.99,0.58-1.35,0.96
		c-0.62,0.68-1.03,1.49-1.22,2.42c-0.19,0.94-0.29,1.91-0.29,2.92c0,1,0.1,1.98,0.29,2.92c0.19,0.94,0.6,1.75,1.22,2.42
		c0.35,0.39,0.8,0.7,1.35,0.96c0.55,0.26,1.16,0.39,1.87,0.39c0.71,0,1.33-0.13,1.88-0.39c0.54-0.26,0.99-0.57,1.35-0.96
		c0.62-0.68,1.03-1.49,1.22-2.42C263.72,46.46,263.82,45.48,263.82,44.48"/>
	<path class="st3" d="M122.03,55.08V41.91c0-1.3-0.23-2.32-0.68-3.04c-0.44-0.72-1.31-1.08-2.58-1.08c-0.73,0-1.36,0.17-1.88,0.51
		c-0.51,0.34-0.94,0.79-1.28,1.34c-0.34,0.56-0.59,1.18-0.75,1.85c-0.16,0.68-0.24,1.35-0.24,2v11.58h-5.05V41.91
		c0-1.3-0.22-2.32-0.68-3.04c-0.45-0.72-1.31-1.08-2.59-1.08c-0.74,0-1.36,0.17-1.87,0.51c-0.52,0.34-0.95,0.79-1.31,1.34
		c-0.35,0.56-0.61,1.18-0.77,1.85c-0.16,0.68-0.24,1.35-0.24,2v11.58h-5.06V33.88h4.24l0.41,2.82c0.6-0.98,1.4-1.78,2.41-2.4
		c1-0.62,2.21-0.94,3.63-0.94c1.49,0,2.74,0.3,3.75,0.92c1.01,0.61,1.78,1.46,2.32,2.54c0.63-1.11,1.49-1.96,2.59-2.57
		c1.1-0.6,2.37-0.9,3.81-0.9c2.29,0,4.01,0.69,5.16,2.06c1.16,1.38,1.73,3.16,1.73,5.37v14.31H122.03z"/>
	<path class="st3" d="M150.57,44.44c0,4.22-1.27,7.37-3.79,9.46c-0.65,0.55-1.41,0.96-2.26,1.27c-0.85,0.3-1.83,0.44-2.91,0.44
		c-1.28,0-2.41-0.19-3.37-0.59c-0.97-0.39-1.69-0.89-2.18-1.49v9.67h-5.1V33.88h4.4l0.33,2.33c0.63-0.98,1.49-1.69,2.57-2.14
		c1.09-0.45,2.22-0.67,3.38-0.67c1.06,0,2.02,0.16,2.87,0.49c0.86,0.33,1.61,0.76,2.26,1.31c1.28,1.03,2.23,2.33,2.86,3.89
		C150.26,40.64,150.57,42.43,150.57,44.44 M145.4,44.52c0-0.92-0.09-1.84-0.27-2.75c-0.18-0.91-0.53-1.72-1.08-2.43
		c-0.38-0.46-0.85-0.86-1.41-1.18c-0.56-0.33-1.23-0.49-2.02-0.49c-1.01,0-1.82,0.21-2.45,0.63c-0.63,0.42-1.11,0.97-1.47,1.63
		c-0.35,0.67-0.59,1.4-0.72,2.22c-0.12,0.82-0.18,1.6-0.18,2.36c0,0.76,0.06,1.55,0.18,2.35c0.12,0.8,0.36,1.53,0.72,2.2
		c0.36,0.67,0.84,1.21,1.47,1.63c0.63,0.42,1.44,0.63,2.45,0.63c0.79,0,1.46-0.17,2.02-0.49c0.56-0.33,1.03-0.72,1.41-1.18
		c0.55-0.7,0.9-1.51,1.08-2.41C145.31,46.36,145.4,45.45,145.4,44.52"/>
	<path class="st3" d="M165.7,38.57c-0.62-0.13-1.21-0.2-1.76-0.2c-1.79,0-3.15,0.57-4.07,1.71c-0.93,1.15-1.39,2.58-1.39,4.29v10.71
		h-5.18V33.88h4.36l0.45,3.15c0.49-1.21,1.3-2.09,2.43-2.62c1.13-0.54,2.32-0.81,3.57-0.81c0.54,0,1.07,0.04,1.59,0.12V38.57z"/>
	<path class="st3" d="M184.87,44.48c0,1.79-0.22,3.29-0.65,4.5c-0.44,1.21-1.05,2.32-1.84,3.32c-0.73,0.9-1.75,1.68-3.04,2.33
		c-1.29,0.65-2.76,0.98-4.39,0.98c-1.63,0-3.09-0.33-4.38-0.98c-1.29-0.65-2.31-1.43-3.04-2.33c-0.79-1-1.4-2.11-1.84-3.32
		c-0.43-1.21-0.65-2.71-0.65-4.5c0-1.79,0.22-3.29,0.65-4.51c0.43-1.21,1.05-2.32,1.84-3.33c0.73-0.9,1.75-1.67,3.04-2.32
		c1.29-0.65,2.75-0.98,4.38-0.98c1.63,0,3.1,0.33,4.39,0.98c1.29,0.65,2.3,1.43,3.04,2.32c0.79,1,1.4,2.11,1.84,3.33
		C184.65,41.19,184.87,42.69,184.87,44.48 M179.69,44.48c0-1.01-0.1-1.98-0.28-2.92c-0.19-0.94-0.6-1.75-1.23-2.42
		c-0.35-0.38-0.8-0.7-1.35-0.96c-0.54-0.26-1.17-0.39-1.88-0.39c-0.7,0-1.33,0.13-1.87,0.39c-0.54,0.26-0.99,0.58-1.35,0.96
		c-0.62,0.68-1.03,1.49-1.22,2.42c-0.19,0.94-0.29,1.91-0.29,2.92c0,1,0.1,1.98,0.29,2.92c0.19,0.94,0.6,1.75,1.22,2.42
		c0.36,0.39,0.8,0.7,1.35,0.96c0.54,0.26,1.17,0.39,1.87,0.39c0.71,0,1.33-0.13,1.88-0.39c0.54-0.26,1-0.57,1.35-0.96
		c0.62-0.68,1.03-1.49,1.23-2.42C179.59,46.46,179.69,45.48,179.69,44.48"/>
	<path class="st3" d="M212.6,55.08V41.91c0-1.3-0.23-2.32-0.67-3.04c-0.45-0.72-1.31-1.08-2.59-1.08c-0.74,0-1.36,0.17-1.88,0.51
		c-0.51,0.34-0.94,0.79-1.28,1.34c-0.34,0.56-0.59,1.18-0.75,1.85c-0.16,0.68-0.25,1.35-0.25,2v11.58h-5.06V41.91
		c0-1.3-0.22-2.32-0.67-3.04c-0.45-0.72-1.31-1.08-2.59-1.08c-0.73,0-1.36,0.17-1.88,0.51c-0.51,0.34-0.95,0.79-1.31,1.34
		c-0.35,0.56-0.61,1.18-0.77,1.85c-0.17,0.68-0.25,1.35-0.25,2v11.58h-5.05V33.88h4.24l0.41,2.82c0.59-0.98,1.39-1.78,2.4-2.4
		c1.01-0.62,2.22-0.94,3.63-0.94c1.5,0,2.74,0.3,3.75,0.92c1.01,0.61,1.78,1.46,2.33,2.54c0.62-1.11,1.49-1.96,2.59-2.57
		c1.1-0.6,2.37-0.9,3.82-0.9c2.28,0,4,0.69,5.16,2.06c1.15,1.38,1.73,3.16,1.73,5.37v14.31H212.6z"/>
	<path class="st3" d="M221.61,33.88h5.18v21.21h-5.18V33.88z M221.61,26.34h5.18v5.14h-5.18V26.34z"/>
	<path class="st3" d="M247.5,48.52c0,1.04-0.17,1.93-0.51,2.69c-0.34,0.76-0.79,1.41-1.33,1.96c-0.87,0.87-1.93,1.5-3.18,1.88
		c-1.25,0.38-2.61,0.57-4.08,0.57c-1.36,0-2.62-0.19-3.79-0.59c-1.17-0.39-2.19-1.01-3.06-1.86c-0.63-0.6-1.16-1.32-1.59-2.16
		c-0.44-0.84-0.65-1.76-0.65-2.77h4.77c0,0.46,0.1,0.92,0.32,1.39c0.22,0.46,0.49,0.83,0.82,1.1c0.41,0.33,0.86,0.56,1.37,0.71
		c0.5,0.15,1.12,0.23,1.85,0.23c0.43,0,0.9-0.03,1.41-0.11c0.5-0.07,0.97-0.2,1.4-0.39c0.44-0.19,0.79-0.46,1.08-0.82
		c0.29-0.35,0.43-0.82,0.43-1.38c0-0.63-0.19-1.13-0.57-1.51c-0.38-0.38-0.89-0.62-1.55-0.73c-0.95-0.13-1.93-0.25-2.94-0.35
		c-1.01-0.09-1.98-0.25-2.94-0.47c-0.73-0.16-1.39-0.42-1.98-0.78c-0.59-0.35-1.1-0.78-1.53-1.28c-0.43-0.5-0.77-1.06-1-1.67
		c-0.23-0.61-0.35-1.26-0.35-1.93c0-1.09,0.21-2.02,0.61-2.79c0.41-0.78,0.92-1.44,1.55-1.98c0.8-0.68,1.73-1.2,2.82-1.57
		c1.09-0.36,2.3-0.55,3.63-0.55c1.28,0,2.51,0.2,3.69,0.61c1.18,0.41,2.16,1.04,2.95,1.88c0.57,0.62,1.03,1.31,1.36,2.06
		c0.34,0.75,0.51,1.51,0.51,2.3h-4.85c0-0.41-0.08-0.78-0.24-1.1c-0.16-0.33-0.37-0.63-0.61-0.9c-0.3-0.3-0.7-0.54-1.2-0.71
		c-0.5-0.18-1.03-0.26-1.57-0.26c-0.38,0-0.75,0.01-1.1,0.04c-0.35,0.02-0.72,0.12-1.1,0.28c-0.46,0.19-0.85,0.48-1.16,0.86
		c-0.31,0.38-0.47,0.85-0.47,1.39c0,0.77,0.27,1.29,0.79,1.58c0.53,0.29,1.08,0.46,1.65,0.55c0.49,0.06,0.9,0.1,1.23,0.14
		c0.33,0.04,0.65,0.08,0.98,0.12c0.33,0.04,0.67,0.09,1.02,0.15c0.35,0.05,0.79,0.12,1.31,0.2c1.68,0.27,3.07,0.92,4.16,1.94
		C246.96,45.48,247.5,46.83,247.5,48.52"/>
</g>
</svg>
