<svg version="1.1" xmlns="http://www.w3.org/2000/svg" xmlns:xlink="http://www.w3.org/1999/xlink" x="0px" y="0px"
	 width="539.34px" height="144.87px" viewBox="0 0 539.34 144.87" style="enable-background:new 0 0 539.34 144.87;"
	 xml:space="preserve">
<style type="text/css">
	.st0{fill:#FFFFFF;}
	.st1{clip-path:url(#SVGID_2_);fill:url(#SVGID_3_);}
	.st2{fill:#27292E;}
	.st3{fill:none;stroke:#12ACE3;stroke-linecap:square;stroke-miterlimit:10;}
	.st4{fill:#12ACE3;}
	.st5{fill:none;stroke:#12ACE3;stroke-linecap:square;stroke-miterlimit:10;stroke-dasharray:4.991,4.991;}
	.st6{fill:none;}
	.st7{clip-path:url(#SVGID_5_);fill:#CCE4F6;}
	.st8{clip-path:url(#SVGID_5_);fill:#0FACE3;}
	.st9{fill:#18171C;}
	.st10{clip-path:url(#SVGID_7_);fill:#12ACE3;}
	.st11{clip-path:url(#SVGID_9_);fill:#CCE4F6;}
	.st12{clip-path:url(#SVGID_9_);fill:#0FACE3;}
	.st13{clip-path:url(#SVGID_11_);fill:none;stroke:#12ACE3;stroke-linecap:square;stroke-miterlimit:10;}
	.st14{clip-path:url(#SVGID_13_);fill:none;stroke:#12ACE3;stroke-linecap:square;stroke-miterlimit:10;}
	.st15{clip-path:url(#SVGID_15_);fill:url(#SVGID_16_);}
	.st16{clip-path:url(#SVGID_18_);fill:#CCE4F6;}
	.st17{clip-path:url(#SVGID_18_);fill:#0FACE3;}
	.st18{clip-path:url(#SVGID_20_);fill:#12ACE3;}
	.st19{clip-path:url(#SVGID_22_);fill:#CCE4F6;}
	.st20{clip-path:url(#SVGID_22_);fill:#0FACE3;}
	.st21{clip-path:url(#SVGID_24_);fill:none;stroke:#12ACE3;stroke-linecap:square;stroke-miterlimit:10;}
	.st22{clip-path:url(#SVGID_26_);fill:none;stroke:#12ACE3;stroke-linecap:square;stroke-miterlimit:10;}
</style>
<defs>
</defs>
<rect x="51.84" y="20.48" class="st0" width="69.5" height="57.5"/>
<g>
	<defs>
		<path id="SVGID_1_" d="M50.85,69.5h5.99v1h-5.99V69.5z M60.84,69.5h5.99v1h-5.99V69.5z M70.82,69.5h5.99v1h-5.99V69.5z
			 M100.76,69.5h5.99v1h-5.99V69.5z M110.74,69.5h5.99v1h-5.99V69.5z M111.62,56.39l2.95,3.77c-0.05,0.04-0.09,0.07-0.13,0.11
			c-0.01,0.01-0.02,0.01-0.02,0.02c-0.04,0.04-0.09,0.07-0.13,0.11c-0.01,0-0.01,0.01-0.02,0.01c-0.04,0.04-0.09,0.07-0.14,0.11
			c0,0,0,0,0,0c-0.05,0.04-0.09,0.08-0.14,0.11c-0.01,0-0.01,0.01-0.02,0.01c-0.05,0.04-0.09,0.08-0.14,0.11l0,0
			c-0.1,0.08-0.2,0.16-0.29,0.23c0,0,0,0-0.01,0c-1.98,1.55-4.03,2.91-6.16,4.06c0,0,0,0,0,0c-0.05,0.03-0.1,0.06-0.16,0.08
			c0,0,0,0,0,0c-0.1,0.06-0.21,0.11-0.32,0.17c0,0-0.01,0-0.01,0c-0.11,0.06-0.21,0.11-0.32,0.16h0c-0.05,0.03-0.1,0.05-0.15,0.08
			c-0.01,0-0.01,0.01-0.02,0.01c-0.05,0.02-0.1,0.05-0.15,0.08c0,0,0,0,0,0c-0.05,0.02-0.1,0.05-0.15,0.07
			c-0.01,0-0.01,0.01-0.02,0.01c-0.05,0.02-0.1,0.05-0.14,0.07c-0.01,0-0.02,0.01-0.03,0.01c-0.05,0.02-0.1,0.05-0.15,0.07
			c0,0,0,0,0,0c-0.05,0.02-0.1,0.05-0.14,0.07c-0.01,0.01-0.02,0.01-0.03,0.02c-0.05,0.02-0.09,0.04-0.14,0.07
			c-0.01,0.01-0.02,0.01-0.04,0.02c-0.04,0.02-0.08,0.04-0.12,0.06c-0.01,0-0.02,0.01-0.03,0.01c-0.04,0.02-0.09,0.04-0.14,0.06
			c-0.01,0.01-0.03,0.01-0.04,0.02c-0.04,0.02-0.09,0.04-0.13,0.06c-0.01,0.01-0.02,0.01-0.03,0.02c-0.04,0.02-0.08,0.04-0.11,0.05
			c-0.01,0.01-0.03,0.01-0.04,0.02c-0.04,0.02-0.09,0.04-0.13,0.06c-0.02,0.01-0.03,0.01-0.05,0.02c-0.04,0.02-0.07,0.03-0.11,0.05
			c-0.02,0.01-0.04,0.02-0.06,0.03c-0.03,0.01-0.07,0.03-0.1,0.04c-0.02,0.01-0.04,0.02-0.06,0.02c-0.04,0.02-0.08,0.03-0.12,0.05
			c-0.02,0.01-0.04,0.02-0.06,0.03c-0.03,0.01-0.05,0.02-0.08,0.03c-0.03,0.01-0.06,0.03-0.09,0.04c-0.03,0.01-0.05,0.02-0.08,0.03
			c-0.02,0.01-0.05,0.02-0.07,0.03c-0.03,0.01-0.06,0.02-0.08,0.04c-0.03,0.01-0.07,0.03-0.1,0.04c-0.02,0.01-0.04,0.02-0.06,0.03
			c-0.04,0.02-0.08,0.03-0.12,0.05c-0.02,0.01-0.04,0.02-0.06,0.02c-0.03,0.01-0.06,0.02-0.08,0.03c-0.01,0.01-0.03,0.01-0.05,0.02
			c-0.05,0.02-0.1,0.04-0.15,0.06c-0.01,0.01-0.03,0.01-0.04,0.01c-0.1,0.04-0.19,0.07-0.29,0.11c-0.01,0-0.02,0.01-0.03,0.01
			c-0.06,0.02-0.12,0.04-0.18,0.07c-0.01,0-0.01,0.01-0.02,0.01c-0.1,0.04-0.2,0.08-0.3,0.11c0,0-0.01,0-0.01,0
			c-2.81,1.02-5.77,1.73-8.91,2.11h3.51v1h-5.99v-0.77c-0.68,0.04-1.38,0.07-2.08,0.09c-0.01,0-0.02,0-0.03,0c-0.05,0-0.1,0-0.16,0
			c-0.03,0-0.06,0-0.09,0c-0.03,0-0.05,0-0.08,0c-0.05,0-0.1,0-0.15,0c-0.01,0-0.03,0-0.04,0c-0.05,0-0.1,0-0.14,0
			c-0.01,0-0.03,0-0.04,0c-0.06,0-0.12,0-0.17,0c-0.01,0-0.02,0-0.04,0c-0.06,0-0.12,0-0.18,0c-0.05,0-0.1,0-0.16,0
			c-0.03,0-0.06,0-0.09,0c0,0,0,0-0.01,0c-0.18,0-0.36,0-0.53-0.01v0.67H80.8v-1h1.09c-2.94-0.36-5.72-1-8.37-1.92
			c-0.01,0-0.03-0.01-0.04-0.01c-0.05-0.02-0.11-0.04-0.16-0.05c-0.01-0.01-0.03-0.01-0.04-0.01c-0.03-0.01-0.06-0.02-0.09-0.03
			c-0.01-0.01-0.03-0.01-0.05-0.02c-0.05-0.02-0.1-0.04-0.14-0.05c-0.02-0.01-0.03-0.01-0.05-0.02c-0.03-0.01-0.06-0.02-0.1-0.03
			c-0.03-0.01-0.06-0.02-0.1-0.04c-0.02-0.01-0.05-0.02-0.07-0.03c-0.03-0.01-0.06-0.02-0.09-0.03c-0.03-0.01-0.06-0.02-0.09-0.03
			c-0.03-0.01-0.06-0.02-0.09-0.03c-0.02-0.01-0.04-0.02-0.06-0.02c-0.04-0.02-0.08-0.03-0.12-0.05c-0.02-0.01-0.04-0.01-0.05-0.02
			c-0.03-0.01-0.07-0.03-0.1-0.04c-0.01-0.01-0.03-0.01-0.04-0.02c-0.04-0.02-0.09-0.04-0.13-0.05c-0.01-0.01-0.03-0.01-0.04-0.02
			c-0.05-0.02-0.09-0.04-0.14-0.06c-0.01,0-0.02-0.01-0.03-0.01c-0.05-0.02-0.09-0.04-0.13-0.05c-0.01,0-0.01-0.01-0.02-0.01
			c-0.05-0.02-0.1-0.04-0.15-0.06c-0.01,0-0.02-0.01-0.03-0.01c-0.1-0.04-0.21-0.09-0.31-0.13c0,0-0.01,0-0.01,0
			c-0.05-0.02-0.11-0.05-0.16-0.07c0,0,0,0,0,0c-3.6-1.55-6.95-3.64-10.14-6.27c0-0.01-0.01-0.01-0.02-0.01
			c-0.05-0.04-0.09-0.07-0.14-0.11l2.95-3.77c7.62,5.42,13.86,7.92,24.04,7.92C97.76,64.31,104,61.82,111.62,56.39 M72.96,32.71
			h8.41v8.02h-7.74c-4.84,0-8.01-1.17-10.07-5.86l3.23-1.85c1.45,2.98,3.23,3.67,6.18,3.67V32.71z M93.5,32.71h8.4v8.02h-8.4V32.71z
			 M50.66,11.76c-2.07,0-3.76,1.61-3.76,3.59v69.6c0,0.01,0,0.03,0,0.04c0,0,0,0.01,0,0.01c0,0.03,0,0.05,0,0.08c0,0,0,0.01,0,0.01
			c0,0.01,0,0.03,0,0.04v0c0,0.01,0,0.03,0,0.04c0,0,0,0.01,0,0.01c0,0.01,0,0.03,0,0.04c0,0,0,0,0,0c0,0.01,0,0.03,0,0.04
			c0,0,0,0.01,0,0.01c0,0.01,0,0.03,0,0.04v0c0,0.01,0,0.03,0,0.04c0,0,0,0.01,0,0.01c0,0.01,0,0.03,0,0.04c0,0,0,0,0,0.01
			c0,0.01,0,0.02,0.01,0.03c0,0,0,0.01,0,0.01c0,0.01,0,0.03,0.01,0.04c0,0,0,0,0,0c0,0.01,0,0.02,0.01,0.04c0,0,0,0.01,0,0.01
			c0,0.01,0,0.03,0.01,0.04c0,0,0,0,0,0c0,0.01,0,0.02,0.01,0.04c0,0,0,0.01,0,0.01c0,0.01,0,0.03,0.01,0.04c0,0,0,0,0,0.01
			c0,0.01,0.01,0.02,0.01,0.03c0,0,0,0.01,0,0.01c0,0.01,0.01,0.03,0.01,0.04c0,0,0,0,0,0.01c0,0.01,0.01,0.02,0.01,0.03
			c0,0,0,0.01,0,0.01c0,0.01,0.01,0.02,0.01,0.04c0,0,0,0,0,0.01c0,0.01,0.01,0.02,0.01,0.03c0,0,0,0.01,0,0.01
			c0,0.01,0.01,0.02,0.01,0.04c0,0,0,0.01,0,0.01c0,0.01,0.01,0.02,0.01,0.03c0,0,0,0.01,0,0.01c0,0.01,0.01,0.02,0.01,0.04
			c0,0,0,0.01,0,0.01c0,0.01,0.01,0.02,0.01,0.03c0,0,0,0.01,0,0.01c0,0.01,0.01,0.02,0.01,0.04c0,0,0,0.01,0,0.01
			c0,0.01,0.01,0.02,0.01,0.03c0,0,0,0.01,0.01,0.01c0,0.01,0.01,0.02,0.01,0.03c0,0,0,0.01,0,0.01c0,0.01,0.01,0.02,0.01,0.03
			c0,0,0,0.01,0.01,0.01c0,0.01,0.01,0.02,0.01,0.03c0,0,0,0.01,0.01,0.01c0,0.01,0.01,0.02,0.01,0.02c0,0.01,0,0.01,0.01,0.01
			c0,0.01,0.01,0.02,0.01,0.03c0,0,0,0.01,0,0.01c0,0.01,0.01,0.02,0.01,0.02c0,0,0,0.01,0.01,0.01c0,0.01,0.01,0.02,0.01,0.03
			c0,0,0,0.01,0.01,0.01c0,0.01,0.01,0.01,0.01,0.02c0,0,0,0.01,0.01,0.01c0.01,0.01,0.01,0.02,0.02,0.03c0,0,0,0.01,0.01,0.01
			c0,0.01,0.01,0.01,0.01,0.02c0,0.01,0.01,0.01,0.01,0.02c0.01,0.01,0.01,0.02,0.01,0.03c0,0.01,0.01,0.01,0.01,0.02
			c0,0.01,0.01,0.01,0.01,0.02c0,0.01,0.01,0.01,0.01,0.02c0.01,0.01,0.01,0.02,0.02,0.03c0,0,0.01,0.01,0.01,0.01
			c0,0.01,0.01,0.01,0.01,0.02c0,0.01,0.01,0.01,0.01,0.02c0.01,0.01,0.01,0.02,0.02,0.03c0,0.01,0.01,0.01,0.01,0.02
			c0,0,0.01,0.01,0.01,0.01c0,0.01,0.01,0.01,0.01,0.02c0.01,0.01,0.01,0.02,0.02,0.03c0,0.01,0.01,0.01,0.01,0.02
			c0,0.01,0.01,0.01,0.01,0.02c0,0.01,0.01,0.01,0.01,0.02c0,0.01,0.01,0.02,0.02,0.03c0,0.01,0.01,0.01,0.01,0.01
			c0,0.01,0.01,0.01,0.01,0.02c0,0.01,0.01,0.01,0.01,0.02c0.01,0.01,0.01,0.02,0.02,0.03c0,0.01,0.01,0.01,0.01,0.01
			c0,0.01,0.01,0.01,0.01,0.02c0,0.01,0.01,0.01,0.01,0.02c0.01,0.01,0.01,0.02,0.02,0.02c0,0,0.01,0.01,0.01,0.01
			s0.01,0.01,0.01,0.02c0,0,0.01,0.01,0.01,0.01c0.01,0.01,0.01,0.02,0.02,0.03c0,0,0.01,0.01,0.01,0.01
			c0.01,0.01,0.01,0.01,0.01,0.02c0,0.01,0.01,0.01,0.01,0.02c0.01,0.01,0.01,0.01,0.02,0.02c0,0,0.01,0.01,0.01,0.01
			s0.01,0.01,0.01,0.02c0,0,0.01,0.01,0.01,0.01c0.01,0.01,0.01,0.02,0.02,0.02c0,0,0.01,0.01,0.01,0.01
			c0.01,0.01,0.01,0.01,0.02,0.02c0,0,0.01,0.01,0.01,0.01c0.01,0.01,0.02,0.02,0.02,0.03c0,0,0.01,0.01,0.01,0.01
			c0.01,0.01,0.01,0.02,0.02,0.02c0,0,0,0.01,0.01,0.01c0.01,0.01,0.02,0.02,0.03,0.03c0,0,0,0,0.01,0.01
			c0.01,0.01,0.02,0.02,0.02,0.03c0,0,0,0,0,0c0.01,0.01,0.02,0.02,0.03,0.03c0,0,0,0,0,0c0.02,0.02,0.04,0.04,0.06,0.06
			c0,0,0,0,0,0c0.22,0.21,0.47,0.4,0.75,0.56h76.73c0.14-0.08,0.28-0.17,0.41-0.27c0,0,0.01,0,0.01-0.01
			c0.01-0.01,0.02-0.01,0.03-0.02c0.01,0,0.01-0.01,0.02-0.01c0.01,0,0.01-0.01,0.02-0.01c0.01-0.01,0.02-0.02,0.03-0.03
			c0,0,0,0,0,0c0.23-0.19,0.44-0.4,0.62-0.63V70.5h-5.88v-1h5.88v-1h0.73V15.35c0-1.98-1.7-3.59-3.76-3.59H50.66z"/>
	</defs>
	<clipPath id="SVGID_2_">
		<use xlink:href="#SVGID_1_"  style="overflow:visible;"/>
	</clipPath>

		<linearGradient id="SVGID_3_" gradientUnits="userSpaceOnUse" x1="-152.379" y1="362.988" x2="-151.379" y2="362.988" gradientTransform="matrix(0 77.6183 77.6183 0 -28087.3926 11838.7646)">
		<stop  offset="0" style="stop-color:#E18433"/>
		<stop  offset="0.2756" style="stop-color:#DE7833"/>
		<stop  offset="0.8103" style="stop-color:#D85933"/>
		<stop  offset="1" style="stop-color:#D54B32"/>
	</linearGradient>
	<rect x="46.9" y="11.76" class="st1" width="80.43" height="76.27"/>
</g>
<path class="st2" d="M178.37,55.59c-0.09,1.51-0.39,2.98-0.87,4.41c-0.49,1.43-1.17,2.7-2.04,3.83c-1.31,1.65-3.07,3.06-5.28,4.22
	c-2.21,1.16-4.77,1.75-7.68,1.75c-2.92,0-5.52-0.6-7.79-1.78c-2.29-1.2-4.09-2.59-5.4-4.19c-1.41-1.8-2.45-3.86-3.13-6.19
	c-0.68-2.33-1.02-4.88-1.02-7.66c0-2.77,0.34-5.32,1.02-7.64c0.68-2.34,1.72-4.4,3.13-6.2c1.31-1.6,3.11-2.99,5.4-4.18
	c2.27-1.19,4.87-1.79,7.79-1.79c2.91,0,5.47,0.59,7.68,1.75c2.21,1.17,3.97,2.57,5.28,4.22c0.87,1.12,1.55,2.4,2.04,3.83
	c0.48,1.43,0.77,2.9,0.87,4.4h-8.96c-0.04-0.67-0.17-1.29-0.36-1.87c-0.2-0.58-0.44-1.1-0.73-1.59c-0.54-0.81-1.29-1.48-2.26-2.01
	c-0.98-0.53-2.16-0.8-3.57-0.8c-1.27,0-2.34,0.22-3.25,0.66c-0.9,0.43-1.66,0.99-2.29,1.66c-1.12,1.21-1.82,2.66-2.12,4.35
	c-0.29,1.69-0.43,3.42-0.43,5.21c0,1.8,0.15,3.52,0.43,5.18c0.3,1.66,1,3.1,2.12,4.31c0.62,0.67,1.39,1.23,2.29,1.7
	c0.91,0.46,1.98,0.69,3.25,0.69c1.41,0,2.59-0.26,3.57-0.8c0.97-0.53,1.72-1.19,2.26-2.01c0.29-0.49,0.53-1.01,0.73-1.59
	c0.19-0.58,0.32-1.2,0.36-1.88H178.37z"/>
<path class="st2" d="M215.39,50.06c0,3.21-0.39,5.89-1.17,8.05c-0.78,2.16-1.87,4.14-3.28,5.93c-1.31,1.61-3.12,2.99-5.42,4.16
	c-2.32,1.16-4.92,1.75-7.84,1.75c-2.92,0-5.52-0.58-7.83-1.75c-2.31-1.17-4.11-2.55-5.42-4.16c-1.41-1.79-2.5-3.77-3.28-5.93
	c-0.78-2.16-1.17-4.84-1.17-8.05c0-3.21,0.39-5.89,1.17-8.05c0.78-2.16,1.87-4.14,3.28-5.94c1.31-1.6,3.12-2.99,5.42-4.15
	c2.31-1.16,4.92-1.75,7.83-1.75c2.92,0,5.52,0.59,7.84,1.75c2.3,1.17,4.11,2.55,5.42,4.15c1.41,1.8,2.5,3.78,3.28,5.94
	C215,44.17,215.39,46.85,215.39,50.06 M206.14,50.06c0-1.8-0.17-3.53-0.51-5.21c-0.35-1.68-1.07-3.12-2.18-4.33
	c-0.63-0.68-1.44-1.25-2.41-1.72c-0.97-0.46-2.09-0.69-3.35-0.69c-1.27,0-2.37,0.23-3.35,0.69c-0.97,0.47-1.77,1.04-2.41,1.72
	c-1.12,1.21-1.84,2.66-2.19,4.33c-0.34,1.68-0.51,3.41-0.51,5.21c0,1.79,0.17,3.53,0.51,5.21c0.35,1.67,1.07,3.12,2.19,4.33
	c0.63,0.69,1.43,1.25,2.41,1.71c0.98,0.46,2.08,0.7,3.35,0.7c1.26,0,2.38-0.23,3.35-0.7c0.97-0.46,1.77-1.02,2.41-1.71
	c1.11-1.21,1.84-2.65,2.18-4.33C205.97,53.59,206.14,51.85,206.14,50.06"/>
<path class="st2" d="M264.94,69V45.46c0-2.33-0.41-4.14-1.21-5.43c-0.79-1.29-2.34-1.94-4.62-1.94c-1.31,0-2.43,0.31-3.36,0.92
	c-0.91,0.61-1.68,1.41-2.29,2.4c-0.61,1-1.06,2.11-1.35,3.31c-0.29,1.22-0.43,2.4-0.43,3.57V69h-9.03V45.46
	c0-2.33-0.4-4.14-1.21-5.43c-0.8-1.29-2.34-1.94-4.62-1.94c-1.31,0-2.43,0.31-3.35,0.92c-0.93,0.61-1.7,1.41-2.33,2.4
	c-0.63,1-1.1,2.11-1.38,3.31c-0.29,1.22-0.44,2.4-0.44,3.57V69h-9.03V31.11h7.57l0.73,5.03c1.07-1.75,2.5-3.18,4.3-4.3
	c1.79-1.12,3.96-1.68,6.48-1.68c2.67,0,4.9,0.54,6.7,1.64c1.8,1.09,3.18,2.61,4.15,4.54c1.12-1.98,2.66-3.51,4.63-4.58
	c1.97-1.06,4.24-1.6,6.81-1.6c4.08,0,7.15,1.23,9.22,3.68c2.07,2.46,3.1,5.65,3.1,9.59V69H264.94z"/>
<path class="st2" d="M315.93,49.98c0,7.54-2.26,13.17-6.78,16.9c-1.17,0.98-2.51,1.72-4.05,2.26c-1.52,0.53-3.26,0.79-5.2,0.79
	c-2.29,0-4.3-0.35-6.02-1.05c-1.72-0.7-3.02-1.59-3.9-2.66V83.5h-9.11V31.11h7.87l0.58,4.16c1.12-1.75,2.65-3.02,4.59-3.83
	c1.94-0.8,3.96-1.21,6.05-1.21c1.89,0,3.61,0.29,5.13,0.88c1.53,0.58,2.88,1.36,4.05,2.34c2.29,1.84,3.98,4.16,5.11,6.96
	C315.37,43.19,315.93,46.38,315.93,49.98 M306.68,50.12c0-1.65-0.16-3.29-0.48-4.91c-0.32-1.63-0.95-3.08-1.93-4.34
	c-0.68-0.82-1.52-1.53-2.51-2.11c-0.99-0.58-2.19-0.88-3.6-0.88c-1.8,0-3.26,0.37-4.37,1.13c-1.12,0.75-1.99,1.73-2.62,2.91
	c-0.63,1.19-1.05,2.51-1.28,3.97c-0.22,1.46-0.33,2.87-0.33,4.22c0,1.37,0.11,2.76,0.33,4.2c0.22,1.43,0.65,2.74,1.28,3.93
	c0.64,1.19,1.5,2.17,2.62,2.92c1.12,0.75,2.57,1.13,4.37,1.13c1.41,0,2.61-0.3,3.6-0.88c1-0.58,1.83-1.29,2.51-2.11
	c0.98-1.26,1.62-2.69,1.93-4.3C306.53,53.4,306.68,51.78,306.68,50.12"/>
<path class="st2" d="M342.96,39.49c-1.11-0.24-2.16-0.36-3.14-0.36c-3.2,0-5.63,1.02-7.28,3.06c-1.66,2.05-2.48,4.6-2.48,7.66V69
	h-9.26V31.11h7.79l0.81,5.63c0.88-2.16,2.32-3.73,4.34-4.69c2.02-0.96,4.14-1.45,6.38-1.45c0.97,0,1.91,0.07,2.84,0.21V39.49z"/>
<path class="st2" d="M377.21,50.06c0,3.21-0.39,5.89-1.16,8.05c-0.78,2.16-1.87,4.14-3.28,5.93c-1.31,1.61-3.12,2.99-5.42,4.16
	c-2.31,1.16-4.92,1.75-7.84,1.75c-2.91,0-5.52-0.58-7.82-1.75c-2.31-1.17-4.12-2.55-5.43-4.16c-1.41-1.79-2.51-3.77-3.28-5.93
	c-0.77-2.16-1.16-4.84-1.16-8.05c0-3.21,0.39-5.89,1.16-8.05c0.77-2.16,1.87-4.14,3.28-5.94c1.31-1.6,3.12-2.99,5.43-4.15
	c2.3-1.16,4.91-1.75,7.82-1.75c2.92,0,5.53,0.59,7.84,1.75c2.3,1.17,4.11,2.55,5.42,4.15c1.41,1.8,2.5,3.78,3.28,5.94
	C376.82,44.17,377.21,46.85,377.21,50.06 M367.95,50.06c0-1.8-0.17-3.53-0.5-5.21c-0.34-1.68-1.07-3.12-2.19-4.33
	c-0.63-0.68-1.43-1.25-2.41-1.72c-0.97-0.46-2.09-0.69-3.35-0.69c-1.26,0-2.38,0.23-3.35,0.69c-0.97,0.47-1.77,1.04-2.41,1.72
	c-1.12,1.21-1.85,2.66-2.19,4.33c-0.34,1.68-0.51,3.41-0.51,5.21c0,1.79,0.17,3.53,0.51,5.21c0.34,1.67,1.07,3.12,2.19,4.33
	c0.64,0.69,1.43,1.25,2.41,1.71c0.97,0.46,2.09,0.7,3.35,0.7c1.27,0,2.38-0.23,3.35-0.7c0.97-0.46,1.78-1.02,2.41-1.71
	c1.12-1.21,1.85-2.65,2.19-4.33C367.78,53.59,367.95,51.85,367.95,50.06"/>
<path class="st2" d="M426.75,69V45.46c0-2.33-0.4-4.14-1.2-5.43c-0.8-1.29-2.35-1.94-4.63-1.94c-1.32,0-2.43,0.31-3.36,0.92
	c-0.92,0.61-1.68,1.41-2.29,2.4c-0.61,1-1.06,2.11-1.34,3.31c-0.29,1.22-0.44,2.4-0.44,3.57V69h-9.04V45.46
	c0-2.33-0.4-4.14-1.2-5.43c-0.8-1.29-2.35-1.94-4.63-1.94c-1.31,0-2.43,0.31-3.35,0.92c-0.92,0.61-1.7,1.41-2.34,2.4
	c-0.62,1-1.09,2.11-1.38,3.31c-0.3,1.22-0.44,2.4-0.44,3.57V69h-9.03V31.11h7.57l0.74,5.03c1.06-1.75,2.49-3.18,4.29-4.3
	c1.8-1.12,3.96-1.68,6.49-1.68c2.67,0,4.9,0.54,6.7,1.64c1.8,1.09,3.19,2.61,4.16,4.54c1.11-1.98,2.66-3.51,4.62-4.58
	c1.97-1.06,4.24-1.6,6.82-1.6c4.08,0,7.16,1.23,9.22,3.68c2.06,2.46,3.1,5.65,3.1,9.59V69H426.75z"/>
<path class="st2" d="M441.39,27.61l-2.62-4.38l11.95-9.25l3.64,6.12L441.39,27.61z M442.85,31.11h9.25V69h-9.25V31.11z"/>
<path class="st2" d="M489.12,57.26c0,1.85-0.3,3.45-0.91,4.81c-0.61,1.36-1.4,2.53-2.37,3.49c-1.56,1.56-3.45,2.68-5.68,3.35
	c-2.24,0.68-4.66,1.01-7.29,1.01c-2.43,0-4.69-0.35-6.77-1.05c-2.09-0.7-3.92-1.8-5.47-3.32c-1.12-1.07-2.07-2.36-2.84-3.86
	c-0.78-1.5-1.17-3.15-1.17-4.95h8.53c0,0.82,0.19,1.65,0.58,2.47c0.39,0.82,0.88,1.48,1.46,1.96c0.73,0.59,1.54,1.01,2.45,1.27
	c0.9,0.27,2,0.41,3.31,0.41c0.78,0,1.61-0.06,2.52-0.19c0.89-0.12,1.73-0.35,2.51-0.69c0.78-0.34,1.42-0.82,1.92-1.46
	c0.52-0.63,0.77-1.46,0.77-2.47c0-1.13-0.34-2.01-1.02-2.7c-0.67-0.67-1.6-1.12-2.76-1.3c-1.7-0.24-3.45-0.45-5.25-0.62
	c-1.8-0.17-3.54-0.45-5.25-0.84c-1.31-0.29-2.49-0.76-3.53-1.39c-1.05-0.63-1.96-1.39-2.74-2.29c-0.78-0.9-1.37-1.89-1.79-2.98
	c-0.41-1.09-0.62-2.24-0.62-3.46c0-1.95,0.37-3.61,1.1-4.99c0.73-1.39,1.64-2.57,2.76-3.54c1.42-1.21,3.09-2.15,5.03-2.81
	c1.95-0.65,4.1-0.98,6.48-0.98c2.28,0,4.48,0.36,6.6,1.09c2.11,0.74,3.87,1.85,5.27,3.36c1.02,1.11,1.83,2.34,2.44,3.68
	c0.61,1.34,0.91,2.7,0.91,4.11h-8.67c0-0.74-0.14-1.39-0.43-1.97c-0.29-0.58-0.66-1.12-1.09-1.6c-0.54-0.53-1.25-0.96-2.15-1.27
	c-0.9-0.32-1.83-0.47-2.8-0.47c-0.68,0-1.34,0.03-1.97,0.08c-0.63,0.04-1.29,0.21-1.97,0.5c-0.83,0.35-1.52,0.85-2.07,1.53
	c-0.55,0.68-0.84,1.51-0.84,2.47c0,1.37,0.47,2.3,1.42,2.82c0.95,0.51,1.93,0.83,2.95,0.98c0.87,0.1,1.61,0.18,2.19,0.26
	c0.58,0.07,1.17,0.14,1.74,0.22c0.59,0.07,1.2,0.15,1.82,0.26c0.63,0.09,1.41,0.21,2.33,0.36c3.01,0.48,5.49,1.63,7.43,3.46
	C488.14,51.84,489.12,54.25,489.12,57.26"/>
<line class="st3" x1="17.9" y1="11.76" x2="513.01" y2="11.76"/>
<rect x="17.4" y="88.04" class="st4" width="496.11" height="1"/>
<line class="st3" x1="23.9" y1="70" x2="26.4" y2="70"/>
<path class="st4" d="M500.04,69.5h5.99v1h-5.99V69.5z M490.06,69.5h5.99v1h-5.99V69.5z M480.08,69.5h5.99v1h-5.99V69.5z M470.1,69.5
	h5.99v1h-5.99V69.5z M460.11,69.5h5.99v1h-5.99V69.5z M450.13,69.5h5.99v1h-5.99V69.5z M440.15,69.5h5.99v1h-5.99V69.5z
	 M430.17,69.5h5.99v1h-5.99V69.5z M420.19,69.5h5.99v1h-5.99V69.5z M410.2,69.5h5.99v1h-5.99V69.5z M400.22,69.5h5.99v1h-5.99V69.5z
	 M390.24,69.5h5.99v1h-5.99V69.5z M380.26,69.5h5.99v1h-5.99V69.5z M370.28,69.5h5.99v1h-5.99V69.5z M360.29,69.5h5.99v1h-5.99V69.5
	z M350.31,69.5h5.99v1h-5.99V69.5z M340.33,69.5h5.99v1h-5.99V69.5z M330.35,69.5h5.99v1h-5.99V69.5z M320.37,69.5h5.99v1h-5.99
	V69.5z M310.39,69.5h5.99v1h-5.99V69.5z M300.4,69.5h5.99v1h-5.99V69.5z M290.42,69.5h5.99v1h-5.99V69.5z M280.44,69.5h5.99v1h-5.99
	V69.5z M270.46,69.5h5.99v1h-5.99V69.5z M260.48,69.5h5.99v1h-5.99V69.5z M250.49,69.5h5.99v1h-5.99V69.5z M240.51,69.5h5.99v1
	h-5.99V69.5z M230.53,69.5h5.99v1h-5.99V69.5z M220.55,69.5h5.99v1h-5.99V69.5z M210.57,69.5h5.99v1h-5.99V69.5z M200.58,69.5h5.99
	v1h-5.99V69.5z M190.6,69.5h5.99v1h-5.99V69.5z M180.62,69.5h5.99v1h-5.99V69.5z M170.64,69.5h5.99v1h-5.99V69.5z M160.65,69.5h5.99
	v1h-5.99V69.5z M150.67,69.5h5.99v1h-5.99V69.5z M140.69,69.5h5.99v1h-5.99V69.5z M130.71,69.5h5.99v1h-5.99V69.5z M120.73,69.5
	h5.99v1h-5.99V69.5z M110.74,69.5h5.99v1h-5.99V69.5z M100.76,69.5h5.99v1h-5.99V69.5z M90.78,69.5h5.99v1h-5.99V69.5z M80.8,69.5
	h5.99v1H80.8V69.5z M70.82,69.5h5.99v1h-5.99V69.5z M60.84,69.5h5.99v1h-5.99V69.5z M50.85,69.5h5.99v1h-5.99V69.5z M40.87,69.5
	h5.99v1h-5.99V69.5z M30.89,69.5h5.99v1h-5.99V69.5z"/>
<line class="st3" x1="510.51" y1="70" x2="513.01" y2="70"/>
<line class="st3" x1="23.9" y1="29.75" x2="26.4" y2="29.75"/>
<line class="st5" x1="31.39" y1="29.75" x2="508.02" y2="29.75"/>
<line class="st3" x1="510.51" y1="29.75" x2="513.01" y2="29.75"/>
<rect x="442.35" y="68.5" class="st4" width="1" height="60.55"/>
<rect x="451.6" y="68.5" class="st4" width="1" height="60.55"/>
<rect x="436.59" y="122.05" class="st4" width="21.78" height="1"/>
<rect class="st6" width="539.34" height="144.87"/>
<g>
	<defs>
		<rect id="SVGID_4_" x="442.85" y="69" width="9.25" height="53.55"/>
	</defs>
	<clipPath id="SVGID_5_">
		<use xlink:href="#SVGID_4_"  style="overflow:visible;"/>
	</clipPath>
	<path class="st7" d="M451.6,89.04h-8.25v33.01h8.25V89.04z M451.6,69h-8.25v0.5h2.79v1h-2.79v17.54h8.25V70.5h-1.47v-1h1.47V69"/>
	<rect x="443.35" y="88.04" class="st8" width="8.25" height="1"/>
	<path class="st8" d="M446.14,69.5h-2.79v1h2.79V69.5z M451.6,69.5h-1.47v1h1.47V69.5z"/>
	<polygon class="st8" points="443.35,69 442.85,69 442.85,122.05 443.35,122.05 443.35,89.04 443.35,88.04 443.35,70.5 443.35,69.5
			"/>
	<polygon class="st8" points="452.1,69 451.6,69 451.6,69.5 451.6,70.5 451.6,88.04 451.6,89.04 451.6,122.05 452.1,122.05 	"/>
	<polygon class="st8" points="452.1,122.05 451.6,122.05 443.35,122.05 442.85,122.05 442.85,122.55 452.1,122.55 	"/>
</g>
<g>
	<path class="st9" d="M450.28,138.52c-0.48,0.52-1.3,0.78-2.13,0.78h-3.43v-8.5h3.39c0.79,0,1.61,0.26,2.07,0.78
		c0.34,0.37,0.55,0.8,0.55,1.42c0,0.82-0.43,1.59-1.22,1.88c0.88,0.29,1.42,1.15,1.42,2.05
		C450.93,137.61,450.65,138.12,450.28,138.52z M448.11,131.74h-2.35v2.67h2.39c0.89,0,1.5-0.4,1.5-1.34
		C449.65,132.19,448.93,131.74,448.11,131.74z M448.17,135.35h-2.41v2.96h2.39c0.93,0,1.69-0.46,1.69-1.46
		C449.84,135.9,449.07,135.35,448.17,135.35z"/>
</g>
<g>
	<defs>
		<rect id="SVGID_6_" width="539.34" height="144.87"/>
	</defs>
	<clipPath id="SVGID_7_">
		<use xlink:href="#SVGID_6_"  style="overflow:visible;"/>
	</clipPath>
	<rect x="126.61" y="68.5" class="st10" width="1" height="60.55"/>
	<rect x="144.65" y="48.5" class="st10" width="1" height="80.55"/>
	<rect x="41.12" y="122.05" class="st10" width="110.3" height="1"/>
</g>
<g>
	<defs>
		<rect id="SVGID_8_" x="127.11" y="69.8" width="18.05" height="52.75"/>
	</defs>
	<clipPath id="SVGID_9_">
		<use xlink:href="#SVGID_8_"  style="overflow:visible;"/>
	</clipPath>
	<path class="st11" d="M144.65,89.04h-17.04v33.01h17.04V89.04z M140.69,69.8h-3.99v0.7h-5.99v-0.7h-3.1v18.24h17.04V70.5h-3.96
		V69.8"/>
	<rect x="127.61" y="88.04" class="st12" width="17.05" height="1"/>
	<path class="st12" d="M136.7,69.8h-5.99v0.7h5.99V69.8z M144.65,69.8h-3.96v0.7h3.96V69.8z"/>
	<polygon class="st12" points="127.61,69.8 127.11,69.8 127.11,122.05 127.61,122.05 127.61,89.04 127.61,88.04 	"/>
	<polygon class="st12" points="145.15,69.8 144.65,69.8 144.65,70.5 144.65,88.04 144.65,89.04 144.65,122.05 145.15,122.05 	"/>
	<polygon class="st12" points="145.15,122.05 144.65,122.05 127.61,122.05 127.11,122.05 127.11,122.55 145.15,122.55 	"/>
</g>
<g>
	<path class="st9" d="M129.63,139.3v-0.88l3.37-4.16c0.31-0.4,0.46-0.77,0.46-1.2c0-0.85-0.49-1.34-1.37-1.34
		c-0.74,0-1.42,0.41-1.42,1.51h-1.06c0-1.45,0.98-2.43,2.46-2.43c0.91,0,1.62,0.37,2.04,0.96c0.25,0.36,0.38,0.77,0.38,1.29
		c0,0.66-0.25,1.21-0.71,1.78l-2.83,3.51h3.67v0.96H129.63z"/>
	<path class="st9" d="M142.25,138.52c-0.48,0.52-1.3,0.78-2.13,0.78h-3.43v-8.5h3.39c0.79,0,1.61,0.26,2.07,0.78
		c0.34,0.37,0.55,0.8,0.55,1.42c0,0.82-0.43,1.59-1.22,1.88c0.88,0.29,1.42,1.15,1.42,2.05
		C142.89,137.61,142.62,138.12,142.25,138.52z M140.08,131.74h-2.35v2.67h2.39c0.89,0,1.5-0.4,1.5-1.34
		C141.61,132.19,140.89,131.74,140.08,131.74z M140.14,135.35h-2.41v2.96h2.39c0.94,0,1.69-0.46,1.69-1.46
		C141.8,135.9,141.03,135.35,140.14,135.35z"/>
</g>
<g>
	<path class="st9" d="M518.4,25.05v-0.88l3.37-4.16c0.31-0.4,0.46-0.77,0.46-1.2c0-0.85-0.49-1.34-1.37-1.34
		c-0.74,0-1.42,0.41-1.42,1.51h-1.06c0-1.45,0.98-2.43,2.46-2.43c0.91,0,1.62,0.37,2.04,0.96c0.25,0.36,0.38,0.77,0.38,1.29
		c0,0.66-0.25,1.21-0.71,1.78l-2.83,3.51h3.67v0.96H518.4z"/>
	<path class="st9" d="M531.02,24.27c-0.48,0.52-1.3,0.78-2.13,0.78h-3.43v-8.5h3.39c0.79,0,1.61,0.26,2.07,0.78
		c0.34,0.37,0.55,0.8,0.55,1.42c0,0.82-0.43,1.59-1.22,1.88c0.88,0.29,1.42,1.15,1.42,2.05C531.67,23.36,531.39,23.87,531.02,24.27z
		 M528.85,17.49h-2.35v2.67h2.39c0.89,0,1.5-0.4,1.5-1.34C530.39,17.93,529.67,17.49,528.85,17.49z M528.91,21.1h-2.41v2.96h2.39
		c0.94,0,1.69-0.46,1.69-1.46C530.58,21.65,529.81,21.1,528.91,21.1z"/>
</g>
<g>
	<path class="st9" d="M518.4,83.5v-0.88l3.37-4.16c0.31-0.4,0.46-0.77,0.46-1.2c0-0.85-0.49-1.34-1.37-1.34
		c-0.74,0-1.42,0.41-1.42,1.51h-1.06c0-1.45,0.98-2.43,2.46-2.43c0.91,0,1.62,0.37,2.04,0.96c0.25,0.36,0.38,0.77,0.38,1.29
		c0,0.66-0.25,1.21-0.71,1.78l-2.83,3.51h3.67v0.96H518.4z"/>
	<path class="st9" d="M531.02,82.72c-0.48,0.52-1.3,0.78-2.13,0.78h-3.43V75h3.39c0.79,0,1.61,0.26,2.07,0.78
		c0.34,0.37,0.55,0.8,0.55,1.42c0,0.82-0.43,1.59-1.22,1.88c0.88,0.29,1.42,1.15,1.42,2.05C531.67,81.81,531.39,82.32,531.02,82.72z
		 M528.85,75.94h-2.35v2.67h2.39c0.89,0,1.5-0.4,1.5-1.34C530.39,76.39,529.67,75.94,528.85,75.94z M528.91,79.55h-2.41v2.96h2.39
		c0.94,0,1.69-0.46,1.69-1.46C530.58,80.1,529.81,79.55,528.91,79.55z"/>
</g>
<g>
	<path class="st9" d="M522.75,51.59v1.78h-1.03v-1.78h-3.83v-1.07l3.17-5.49h1.08l-3.26,5.64h2.84v-2.48h1.03v2.48h1.13v0.92H522.75
		z"/>
	<path class="st9" d="M531.02,52.59c-0.48,0.52-1.3,0.78-2.13,0.78h-3.43v-8.5h3.39c0.79,0,1.61,0.26,2.07,0.78
		c0.34,0.37,0.55,0.8,0.55,1.42c0,0.82-0.43,1.59-1.22,1.88c0.88,0.29,1.42,1.15,1.42,2.05C531.67,51.68,531.39,52.19,531.02,52.59z
		 M528.85,45.81h-2.35v2.67h2.39c0.89,0,1.5-0.4,1.5-1.34C530.39,46.25,529.67,45.81,528.85,45.81z M528.91,49.42h-2.41v2.96h2.39
		c0.94,0,1.69-0.46,1.69-1.46C530.58,49.97,529.81,49.42,528.91,49.42z"/>
</g>
<g>
	<defs>
		<rect id="SVGID_10_" width="539.34" height="144.87"/>
	</defs>
	<clipPath id="SVGID_11_">
		<use xlink:href="#SVGID_10_"  style="overflow:visible;"/>
	</clipPath>
	<line class="st13" x1="47.38" y1="69" x2="47.38" y2="128.55"/>
	<line class="st13" x1="23.9" y1="6" x2="23.9" y2="94.3"/>
</g>
<g>
	<path class="st9" d="M89.72,139.3l-0.7-2.01h-3.69l-0.68,2.01h-1.08l3-8.5h1.25l3.01,8.5H89.72z M87.16,131.86l-1.5,4.41h3.01
		L87.16,131.86z"/>
</g>
<g>
	<path class="st9" d="M8.72,53.37l-0.7-2.01H4.33l-0.68,2.01H2.57l3-8.5h1.25l3.01,8.5H8.72z M6.16,45.93l-1.5,4.41h3.01L6.16,45.93
		z"/>
</g>
<g>
	<defs>
		<rect id="SVGID_12_" width="539.34" height="144.87"/>
	</defs>
	<clipPath id="SVGID_13_">
		<use xlink:href="#SVGID_12_"  style="overflow:visible;"/>
	</clipPath>
	<line class="st14" x1="507.01" y1="6" x2="507.01" y2="94.3"/>
</g>
</svg>
