<svg version="1.1" xmlns="http://www.w3.org/2000/svg" xmlns:xlink="http://www.w3.org/1999/xlink" x="0px" y="0px"
	 width="230.75px" height="236.93px" viewBox="0 0 230.75 236.93" style="enable-background:new 0 0 230.75 236.93;"
	 xml:space="preserve">
<style type="text/css">
	.st0{fill:#FFFFFF;}
	.st1{clip-path:url(#SVGID_2_);fill:url(#SVGID_3_);}
	.st2{fill:#27292E;}
	.st3{fill:none;}
	.st4{clip-path:url(#SVGID_5_);fill:url(#SVGID_6_);}
</style>
<defs>
</defs>
<rect x="34.34" y="20.22" class="st0" width="161.13" height="133.31"/>
<g>
	<defs>
		<path id="SVGID_1_" d="M172.93,103.48l6.84,8.74c-17.82,14.79-37.94,22.41-62.58,22.41c-24.64,0-44.77-7.62-62.58-22.41l6.84-8.74
			c17.67,12.57,32.13,18.35,55.74,18.35C140.79,121.83,155.26,116.05,172.93,103.48 M83.31,48.56h19.49v18.6H84.86
			c-11.22,0-18.58-2.72-23.36-13.57l7.49-4.3c3.36,6.9,7.49,8.5,14.32,8.5V48.56z M130.93,48.56h19.48v18.6h-19.48V48.56z M31.6,0
			c-4.79,0-8.71,3.73-8.71,8.32v161.35c0,4.58,3.91,8.32,8.71,8.32h169.05c4.78,0,8.71-3.75,8.71-8.32V8.32
			c0-4.58-3.93-8.32-8.71-8.32H31.6z"/>
	</defs>
	<clipPath id="SVGID_2_">
		<use xlink:href="#SVGID_1_"  style="overflow:visible;"/>
	</clipPath>

		<linearGradient id="SVGID_3_" gradientUnits="userSpaceOnUse" x1="-112.814" y1="369.213" x2="-111.814" y2="369.213" gradientTransform="matrix(0 179.954 179.954 0 -66325.2344 20300.4102)">
		<stop  offset="0" style="stop-color:#E18433"/>
		<stop  offset="0.2756" style="stop-color:#DE7833"/>
		<stop  offset="0.8103" style="stop-color:#D85933"/>
		<stop  offset="1" style="stop-color:#D54B32"/>
	</linearGradient>
	<rect x="22.89" y="0" class="st1" width="186.46" height="178"/>
</g>
<path class="st2" d="M22.29,218.21c-0.06,1.01-0.26,2-0.58,2.96c-0.33,0.96-0.78,1.81-1.37,2.57c-0.88,1.1-2.06,2.05-3.54,2.83
	c-1.48,0.78-3.2,1.17-5.15,1.17c-1.96,0-3.7-0.4-5.23-1.19c-1.53-0.81-2.74-1.74-3.62-2.81c-0.95-1.21-1.65-2.59-2.1-4.16
	C0.22,218.01,0,216.3,0,214.44c0-1.86,0.22-3.57,0.68-5.13c0.46-1.57,1.16-2.95,2.1-4.15c0.88-1.07,2.08-2.01,3.62-2.81
	c1.53-0.8,3.27-1.2,5.23-1.2c1.95,0,3.67,0.39,5.15,1.17c1.48,0.78,2.66,1.73,3.54,2.83c0.59,0.75,1.04,1.61,1.37,2.57
	c0.32,0.96,0.52,1.95,0.58,2.96h-6.01c-0.03-0.45-0.12-0.87-0.24-1.25c-0.13-0.39-0.29-0.74-0.49-1.07c-0.36-0.54-0.86-1-1.51-1.35
	c-0.66-0.36-1.45-0.53-2.39-0.53c-0.85,0-1.57,0.15-2.18,0.44c-0.6,0.29-1.11,0.66-1.53,1.11c-0.75,0.81-1.22,1.78-1.42,2.92
	c-0.19,1.13-0.29,2.3-0.29,3.49c0,1.2,0.1,2.36,0.29,3.48c0.2,1.12,0.67,2.08,1.42,2.89c0.42,0.45,0.93,0.83,1.53,1.14
	c0.61,0.31,1.33,0.46,2.18,0.46c0.95,0,1.74-0.18,2.39-0.53c0.65-0.36,1.15-0.8,1.51-1.35c0.2-0.33,0.35-0.68,0.49-1.07
	c0.13-0.39,0.21-0.81,0.24-1.26H22.29z"/>
<path class="st2" d="M47.12,214.49c0,2.15-0.26,3.95-0.78,5.4c-0.52,1.45-1.26,2.78-2.2,3.98c-0.88,1.08-2.1,2.01-3.64,2.79
	c-1.55,0.78-3.3,1.17-5.26,1.17c-1.96,0-3.71-0.39-5.26-1.17c-1.55-0.78-2.76-1.71-3.64-2.79c-0.95-1.2-1.68-2.53-2.2-3.98
	c-0.52-1.45-0.78-3.25-0.78-5.4c0-2.15,0.26-3.95,0.78-5.4c0.52-1.45,1.25-2.78,2.2-3.99c0.88-1.08,2.09-2,3.64-2.79
	c1.55-0.78,3.3-1.17,5.26-1.17c1.96,0,3.71,0.39,5.26,1.17c1.54,0.78,2.76,1.71,3.64,2.79c0.95,1.2,1.68,2.53,2.2,3.99
	C46.85,210.54,47.12,212.34,47.12,214.49 M40.91,214.49c0-1.21-0.12-2.37-0.34-3.49c-0.23-1.12-0.72-2.1-1.46-2.91
	c-0.42-0.46-0.96-0.84-1.62-1.15c-0.65-0.31-1.4-0.46-2.25-0.46c-0.85,0-1.59,0.15-2.25,0.46c-0.65,0.31-1.19,0.7-1.61,1.15
	c-0.75,0.81-1.24,1.78-1.47,2.91c-0.23,1.12-0.34,2.29-0.34,3.49c0,1.2,0.12,2.37,0.34,3.5c0.23,1.12,0.72,2.09,1.47,2.9
	c0.42,0.46,0.96,0.84,1.61,1.15c0.65,0.31,1.4,0.47,2.25,0.47c0.85,0,1.6-0.16,2.25-0.47c0.65-0.31,1.19-0.69,1.62-1.15
	c0.75-0.81,1.23-1.78,1.46-2.9C40.8,216.86,40.91,215.69,40.91,214.49"/>
<path class="st2" d="M80.36,227.2v-15.79c0-1.56-0.27-2.78-0.81-3.64c-0.53-0.86-1.57-1.3-3.1-1.3c-0.88,0-1.63,0.21-2.26,0.62
	c-0.61,0.41-1.13,0.94-1.54,1.61c-0.41,0.67-0.71,1.42-0.9,2.22c-0.2,0.82-0.29,1.61-0.29,2.4v13.88H65.4v-15.79
	c0-1.56-0.27-2.78-0.81-3.64c-0.53-0.86-1.57-1.3-3.1-1.3c-0.88,0-1.63,0.21-2.25,0.62c-0.62,0.41-1.14,0.94-1.57,1.61
	c-0.43,0.67-0.74,1.42-0.93,2.22c-0.2,0.82-0.29,1.61-0.29,2.4v13.88h-6.06v-25.42h5.08l0.49,3.37c0.72-1.17,1.68-2.13,2.89-2.88
	c1.2-0.75,2.65-1.12,4.35-1.12c1.79,0,3.29,0.36,4.49,1.1c1.21,0.73,2.14,1.75,2.79,3.05c0.75-1.33,1.79-2.35,3.11-3.07
	c1.32-0.71,2.84-1.07,4.57-1.07c2.74,0,4.8,0.83,6.18,2.47c1.39,1.65,2.08,3.79,2.08,6.43v17.15H80.36z"/>
<path class="st2" d="M114.57,214.44c0,5.05-1.52,8.83-4.55,11.34c-0.78,0.65-1.69,1.15-2.71,1.52c-1.02,0.36-2.19,0.53-3.49,0.53
	c-1.54,0-2.88-0.23-4.04-0.7c-1.16-0.47-2.03-1.07-2.62-1.79v11.59h-6.11v-35.15h5.28l0.39,2.79c0.75-1.17,1.78-2.03,3.08-2.57
	c1.3-0.54,2.66-0.81,4.06-0.81c1.27,0,2.42,0.2,3.44,0.59c1.03,0.39,1.93,0.91,2.71,1.57c1.53,1.24,2.67,2.79,3.43,4.67
	C114.19,209.89,114.57,212.03,114.57,214.44 M108.36,214.54c0-1.1-0.1-2.2-0.32-3.29c-0.21-1.09-0.64-2.06-1.29-2.91
	c-0.46-0.55-1.02-1.03-1.69-1.42c-0.67-0.39-1.47-0.59-2.42-0.59c-1.21,0-2.18,0.25-2.93,0.76c-0.75,0.51-1.33,1.16-1.76,1.95
	c-0.42,0.8-0.71,1.68-0.86,2.66c-0.15,0.98-0.22,1.92-0.22,2.83c0,0.92,0.07,1.85,0.22,2.82c0.15,0.96,0.43,1.84,0.86,2.63
	c0.43,0.8,1.01,1.45,1.76,1.96c0.75,0.5,1.72,0.76,2.93,0.76c0.95,0,1.75-0.2,2.42-0.59c0.67-0.39,1.23-0.86,1.69-1.42
	c0.65-0.85,1.08-1.81,1.29-2.89C108.26,216.74,108.36,215.65,108.36,214.54"/>
<path class="st2" d="M132.7,207.41c-0.75-0.16-1.45-0.24-2.1-0.24c-2.15,0-3.78,0.69-4.88,2.05c-1.11,1.37-1.66,3.09-1.66,5.14
	v12.84h-6.21v-25.42h5.22l0.54,3.78c0.59-1.45,1.56-2.5,2.91-3.15c1.35-0.65,2.78-0.97,4.28-0.97c0.65,0,1.28,0.04,1.9,0.14V207.41z
	"/>
<path class="st2" d="M155.67,214.49c0,2.15-0.26,3.95-0.78,5.4c-0.52,1.45-1.26,2.78-2.2,3.98c-0.88,1.08-2.1,2.01-3.64,2.79
	c-1.55,0.78-3.3,1.17-5.26,1.17c-1.95,0-3.7-0.39-5.25-1.17c-1.55-0.78-2.76-1.71-3.64-2.79c-0.95-1.2-1.68-2.53-2.2-3.98
	c-0.52-1.45-0.78-3.25-0.78-5.4c0-2.15,0.26-3.95,0.78-5.4c0.52-1.45,1.26-2.78,2.2-3.99c0.88-1.08,2.09-2,3.64-2.79
	c1.55-0.78,3.3-1.17,5.25-1.17c1.96,0,3.71,0.39,5.26,1.17c1.54,0.78,2.76,1.71,3.64,2.79c0.94,1.2,1.67,2.53,2.2,3.99
	C155.41,210.54,155.67,212.34,155.67,214.49 M149.47,214.49c0-1.21-0.12-2.37-0.34-3.49c-0.23-1.12-0.72-2.1-1.47-2.91
	c-0.42-0.46-0.96-0.84-1.61-1.15c-0.65-0.31-1.4-0.46-2.25-0.46c-0.84,0-1.6,0.15-2.24,0.46c-0.65,0.31-1.19,0.7-1.61,1.15
	c-0.75,0.81-1.24,1.78-1.47,2.91s-0.34,2.29-0.34,3.49c0,1.2,0.12,2.37,0.34,3.5c0.23,1.12,0.72,2.09,1.47,2.9
	c0.43,0.46,0.96,0.84,1.61,1.15c0.65,0.31,1.4,0.47,2.24,0.47c0.85,0,1.6-0.16,2.25-0.47c0.65-0.31,1.19-0.69,1.61-1.15
	c0.75-0.81,1.24-1.78,1.47-2.9C149.35,216.86,149.47,215.69,149.47,214.49"/>
<path class="st2" d="M188.91,227.2v-15.79c0-1.56-0.27-2.78-0.81-3.64c-0.54-0.86-1.57-1.3-3.11-1.3c-0.88,0-1.63,0.21-2.25,0.62
	c-0.62,0.41-1.13,0.94-1.54,1.61c-0.41,0.67-0.71,1.42-0.9,2.22c-0.19,0.82-0.29,1.61-0.29,2.4v13.88h-6.06v-15.79
	c0-1.56-0.27-2.78-0.81-3.64c-0.54-0.86-1.57-1.3-3.1-1.3c-0.88,0-1.63,0.21-2.25,0.62c-0.62,0.41-1.14,0.94-1.57,1.61
	c-0.42,0.67-0.73,1.42-0.92,2.22c-0.2,0.82-0.3,1.61-0.3,2.4v13.88h-6.06v-25.42h5.08l0.49,3.37c0.71-1.17,1.67-2.13,2.88-2.88
	c1.21-0.75,2.66-1.12,4.35-1.12c1.79,0,3.29,0.36,4.49,1.1c1.21,0.73,2.14,1.75,2.79,3.05c0.75-1.33,1.78-2.35,3.1-3.07
	c1.32-0.71,2.84-1.07,4.57-1.07c2.74,0,4.8,0.83,6.18,2.47c1.38,1.65,2.08,3.79,2.08,6.43v17.15H188.91z"/>
<path class="st2" d="M198.73,199.44l-1.76-2.94l8.02-6.2l2.44,4.1L198.73,199.44z M199.71,201.78h6.2v25.42h-6.2V201.78z"/>
<path class="st2" d="M230.75,219.33c0,1.24-0.2,2.32-0.61,3.23c-0.41,0.91-0.94,1.7-1.59,2.34c-1.04,1.05-2.31,1.79-3.81,2.25
	c-1.5,0.46-3.13,0.68-4.89,0.68c-1.63,0-3.14-0.23-4.54-0.7c-1.41-0.47-2.63-1.21-3.67-2.23c-0.75-0.72-1.39-1.58-1.91-2.59
	c-0.52-1.01-0.78-2.11-0.78-3.32h5.72c0,0.55,0.13,1.11,0.39,1.66c0.26,0.55,0.59,0.99,0.98,1.32c0.49,0.4,1.03,0.68,1.64,0.85
	c0.6,0.18,1.34,0.27,2.22,0.27c0.52,0,1.08-0.04,1.69-0.13c0.6-0.08,1.16-0.24,1.68-0.46c0.52-0.23,0.95-0.55,1.29-0.98
	c0.35-0.42,0.51-0.98,0.51-1.66c0-0.75-0.23-1.35-0.68-1.81c-0.45-0.45-1.07-0.75-1.86-0.88c-1.14-0.16-2.31-0.3-3.52-0.42
	c-1.21-0.11-2.38-0.3-3.52-0.56c-0.88-0.2-1.67-0.51-2.37-0.93c-0.7-0.42-1.32-0.93-1.84-1.54c-0.52-0.6-0.92-1.27-1.2-2
	c-0.28-0.73-0.42-1.51-0.42-2.32c0-1.3,0.25-2.42,0.74-3.35c0.49-0.93,1.1-1.72,1.85-2.37c0.95-0.82,2.07-1.44,3.38-1.88
	c1.3-0.44,2.75-0.66,4.35-0.66c1.53,0,3.01,0.24,4.43,0.73c1.41,0.49,2.59,1.24,3.54,2.25c0.68,0.75,1.23,1.57,1.64,2.47
	c0.41,0.9,0.61,1.81,0.61,2.76h-5.82c0-0.49-0.1-0.93-0.29-1.32c-0.19-0.39-0.44-0.75-0.73-1.08c-0.36-0.36-0.84-0.64-1.44-0.85
	c-0.6-0.21-1.23-0.32-1.88-0.32c-0.46,0-0.9,0.01-1.32,0.05c-0.42,0.03-0.87,0.14-1.32,0.34c-0.55,0.23-1.02,0.57-1.39,1.03
	c-0.37,0.46-0.57,1.01-0.57,1.66c0,0.92,0.32,1.55,0.95,1.89c0.64,0.34,1.3,0.56,1.98,0.66c0.58,0.07,1.08,0.12,1.47,0.17
	c0.39,0.05,0.78,0.1,1.17,0.15c0.39,0.05,0.8,0.1,1.22,0.18c0.42,0.06,0.95,0.14,1.57,0.24c2.02,0.33,3.68,1.1,4.98,2.32
	C230.1,215.69,230.75,217.31,230.75,219.33"/>
<rect class="st3" width="230.75" height="236.93"/>
</svg>
