<?xml version="1.0" encoding="utf-8"?>
<!-- Generator: Adobe Illustrator 23.0.3, SVG Export Plug-In . SVG Version: 6.00 Build 0)  -->
<svg version="1.1" id="Layer_1" xmlns="http://www.w3.org/2000/svg" xmlns:xlink="http://www.w3.org/1999/xlink" x="0px" y="0px"
	 viewBox="0 0 336 336" style="enable-background:new 0 0 336 336;" xml:space="preserve">
<style type="text/css">
	.st0{fill:#FFFFFF;}
	.st1{clip-path:url(#SVGID_2_);fill:url(#SVGID_3_);}
	.st2{clip-path:url(#SVGID_5_);fill:#27292E;}
	.st3{clip-path:url(#SVGID_7_);fill:#27292E;}
	.st4{clip-path:url(#SVGID_9_);fill:#27292E;}
	.st5{clip-path:url(#SVGID_11_);fill:#27292E;}
	.st6{clip-path:url(#SVGID_13_);fill:#27292E;}
	.st7{clip-path:url(#SVGID_15_);fill:#27292E;}
	.st8{clip-path:url(#SVGID_17_);fill:#27292E;}
	.st9{clip-path:url(#SVGID_19_);fill:#27292E;}
	.st10{clip-path:url(#SVGID_21_);fill:#27292E;}
	.st11{clip-path:url(#SVGID_23_);fill:none;stroke:#12ACE3;stroke-linecap:square;stroke-miterlimit:10;stroke-dasharray:5,5;}
	.st12{clip-path:url(#SVGID_25_);fill:none;stroke:#12ACE3;stroke-linecap:square;stroke-miterlimit:10;stroke-dasharray:5,5;}
	.st13{clip-path:url(#SVGID_27_);fill:none;stroke:#12ACE3;stroke-linecap:square;stroke-miterlimit:10;stroke-dasharray:5,5;}
	.st14{clip-path:url(#SVGID_29_);fill:none;stroke:#12ACE3;stroke-linecap:square;stroke-miterlimit:10;}
	.st15{clip-path:url(#SVGID_31_);fill:none;stroke:#12ACE3;stroke-linecap:square;stroke-miterlimit:10;}
	.st16{clip-path:url(#SVGID_33_);fill:none;stroke:#12ACE3;stroke-linecap:square;stroke-miterlimit:10;stroke-dasharray:5,5;}
	.st17{clip-path:url(#SVGID_35_);fill:#12ACE3;}
	.st18{clip-path:url(#SVGID_37_);fill:none;stroke:#12ACE3;stroke-linecap:square;stroke-miterlimit:10;}
	.st19{clip-path:url(#SVGID_39_);fill:none;stroke:#12ACE3;stroke-linecap:square;stroke-miterlimit:10;stroke-dasharray:5,5;}
	.st20{clip-path:url(#SVGID_41_);fill:#12ACE3;}
	.st21{clip-path:url(#SVGID_43_);fill:#12ACE3;}
	.st22{clip-path:url(#SVGID_45_);fill:#12ACE3;}
	.st23{clip-path:url(#SVGID_47_);fill:#12ACE3;}
	.st24{clip-path:url(#SVGID_49_);fill:#CCE4F6;}
	.st25{clip-path:url(#SVGID_51_);fill:#0FACE3;}
	.st26{clip-path:url(#SVGID_53_);fill:#0FACE3;}
	.st27{clip-path:url(#SVGID_55_);fill:#0FACE3;}
	.st28{clip-path:url(#SVGID_57_);fill:#0FACE3;}
	.st29{clip-path:url(#SVGID_59_);fill:#0FACE3;}
	.st30{fill:#18171C;}
</style>
<rect x="82.7" y="63.2" class="st0" width="161.1" height="133.3"/>
<g>
	<g>
		<defs>
			<path id="SVGID_1_" d="M221.2,146.4l6.8,8.7c-17.8,14.8-37.9,22.4-62.6,22.4s-44.8-7.6-62.6-22.4l6.8-8.7
				c17.7,12.6,32.1,18.4,55.7,18.4S203.6,159,221.2,146.4 M131.6,91.5h19.5v18.6h-17.9c-11.2,0-18.6-2.7-23.4-13.6l7.5-4.3
				c3.4,6.9,7.5,8.5,14.3,8.5C131.6,100.8,131.6,91.5,131.6,91.5z M179.2,91.5h19.5v18.6h-19.5V91.5z M79.9,43
				c-4.8,0-8.7,3.7-8.7,8.3v161.4c0,4.6,3.9,8.3,8.7,8.3H249c4.8,0,8.7-3.8,8.7-8.3V51.3c0-4.6-3.9-8.3-8.7-8.3H79.9z"/>
		</defs>
		<clipPath id="SVGID_2_">
			<use xlink:href="#SVGID_1_"  style="overflow:visible;"/>
		</clipPath>
		
			<linearGradient id="SVGID_3_" gradientUnits="userSpaceOnUse" x1="-579.8101" y1="175.6155" x2="-578.8101" y2="175.6155" gradientTransform="matrix(0 179.954 -179.954 0 31767.1484 104381.1875)">
			<stop  offset="0" style="stop-color:#E18433"/>
			<stop  offset="0.2756" style="stop-color:#DE7833"/>
			<stop  offset="0.8103" style="stop-color:#D85933"/>
			<stop  offset="1" style="stop-color:#D54B32"/>
		</linearGradient>
		<rect x="71.2" y="43" class="st1" width="186.5" height="178"/>
	</g>
</g>
<g>
	<g>
		<defs>
			<rect id="SVGID_4_" x="17.5" y="-0.1" width="312" height="336.1"/>
		</defs>
		<clipPath id="SVGID_5_">
			<use xlink:href="#SVGID_4_"  style="overflow:visible;"/>
		</clipPath>
		<path class="st2" d="M70.6,261.2c-0.1,1-0.3,2-0.6,3c-0.3,1-0.8,1.8-1.4,2.6c-0.9,1.1-2.1,2-3.5,2.8c-1.5,0.8-3.2,1.2-5.1,1.2
			c-2,0-3.7-0.4-5.2-1.2c-1.5-0.8-2.7-1.7-3.6-2.8c-1-1.2-1.6-2.6-2.1-4.2c-0.5-1.6-0.7-3.3-0.7-5.1c0-1.9,0.2-3.6,0.7-5.1
			c0.5-1.6,1.2-2.9,2.1-4.1c0.9-1.1,2.1-2,3.6-2.8c1.5-0.8,3.3-1.2,5.2-1.2c2,0,3.7,0.4,5.1,1.2c1.5,0.8,2.7,1.7,3.5,2.8
			c0.6,0.8,1,1.6,1.4,2.6c0.3,1,0.5,1.9,0.6,3h-6c0-0.4-0.1-0.9-0.2-1.2c-0.1-0.4-0.3-0.7-0.5-1.1c-0.4-0.5-0.9-1-1.5-1.4
			c-0.7-0.4-1.5-0.5-2.4-0.5c-0.8,0-1.6,0.1-2.2,0.4c-0.6,0.3-1.1,0.7-1.5,1.1c-0.8,0.8-1.2,1.8-1.4,2.9c-0.2,1.1-0.3,2.3-0.3,3.5
			c0,1.2,0.1,2.4,0.3,3.5c0.2,1.1,0.7,2.1,1.4,2.9c0.4,0.5,0.9,0.8,1.5,1.1c0.6,0.3,1.3,0.5,2.2,0.5c1,0,1.7-0.2,2.4-0.5
			c0.7-0.4,1.2-0.8,1.5-1.4c0.2-0.3,0.3-0.7,0.5-1.1c0.1-0.4,0.2-0.8,0.2-1.3H70.6z"/>
	</g>
	<g>
		<defs>
			<rect id="SVGID_6_" x="17.5" y="-0.1" width="312" height="336.1"/>
		</defs>
		<clipPath id="SVGID_7_">
			<use xlink:href="#SVGID_6_"  style="overflow:visible;"/>
		</clipPath>
		<path class="st3" d="M95.4,257.5c0,2.1-0.3,4-0.8,5.4c-0.5,1.5-1.3,2.8-2.2,4c-0.9,1.1-2.1,2-3.6,2.8s-3.3,1.2-5.3,1.2
			s-3.7-0.4-5.3-1.2s-2.8-1.7-3.6-2.8c-0.9-1.2-1.7-2.5-2.2-4c-0.5-1.5-0.8-3.2-0.8-5.4s0.3-3.9,0.8-5.4c0.5-1.4,1.2-2.8,2.2-4
			c0.9-1.1,2.1-2,3.6-2.8c1.6-0.8,3.3-1.2,5.3-1.2s3.7,0.4,5.3,1.2c1.5,0.8,2.8,1.7,3.6,2.8c0.9,1.2,1.7,2.5,2.2,4
			C95.2,253.5,95.4,255.3,95.4,257.5 M89.2,257.5c0-1.2-0.1-2.4-0.3-3.5c-0.2-1.1-0.7-2.1-1.5-2.9c-0.4-0.5-1-0.8-1.6-1.1
			c-0.7-0.3-1.4-0.5-2.2-0.5s-1.6,0.1-2.2,0.5c-0.7,0.3-1.2,0.7-1.6,1.1c-0.8,0.8-1.2,1.8-1.5,2.9c-0.2,1.1-0.3,2.3-0.3,3.5
			s0.1,2.4,0.3,3.5c0.2,1.1,0.7,2.1,1.5,2.9c0.4,0.5,1,0.8,1.6,1.1s1.4,0.5,2.2,0.5s1.6-0.2,2.2-0.5s1.2-0.7,1.6-1.1
			c0.8-0.8,1.2-1.8,1.5-2.9C89.1,259.8,89.2,258.7,89.2,257.5"/>
	</g>
	<g>
		<defs>
			<rect id="SVGID_8_" x="17.5" y="-0.1" width="312" height="336.1"/>
		</defs>
		<clipPath id="SVGID_9_">
			<use xlink:href="#SVGID_8_"  style="overflow:visible;"/>
		</clipPath>
		<path class="st4" d="M128.7,270.2v-15.8c0-1.6-0.3-2.8-0.8-3.6c-0.5-0.9-1.6-1.3-3.1-1.3c-0.9,0-1.6,0.2-2.3,0.6
			c-0.6,0.4-1.1,0.9-1.5,1.6s-0.7,1.4-0.9,2.2c-0.2,0.8-0.3,1.6-0.3,2.4v13.9h-6.1v-15.8c0-1.6-0.3-2.8-0.8-3.6
			c-0.5-0.9-1.6-1.3-3.1-1.3c-0.9,0-1.6,0.2-2.2,0.6c-0.6,0.4-1.1,0.9-1.6,1.6c-0.4,0.7-0.7,1.4-0.9,2.2c-0.2,0.8-0.3,1.6-0.3,2.4
			v13.9h-6.1v-25.4h5.1l0.5,3.4c0.7-1.2,1.7-2.1,2.9-2.9c1.2-0.8,2.7-1.1,4.3-1.1c1.8,0,3.3,0.4,4.5,1.1c1.2,0.7,2.1,1.8,2.8,3.1
			c0.8-1.3,1.8-2.4,3.1-3.1c1.3-0.7,2.8-1.1,4.6-1.1c2.7,0,4.8,0.8,6.2,2.5c1.4,1.6,2.1,3.8,2.1,6.4v17.2L128.7,270.2L128.7,270.2z"
			/>
	</g>
	<g>
		<defs>
			<rect id="SVGID_10_" x="17.5" y="-0.1" width="312" height="336.1"/>
		</defs>
		<clipPath id="SVGID_11_">
			<use xlink:href="#SVGID_10_"  style="overflow:visible;"/>
		</clipPath>
		<path class="st5" d="M162.9,257.4c0,5-1.5,8.8-4.6,11.3c-0.8,0.6-1.7,1.1-2.7,1.5c-1,0.4-2.2,0.5-3.5,0.5c-1.5,0-2.9-0.2-4-0.7
			c-1.2-0.5-2-1.1-2.6-1.8v11.6h-6.1v-35.1h5.3l0.4,2.8c0.8-1.2,1.8-2,3.1-2.6c1.3-0.5,2.7-0.8,4.1-0.8c1.3,0,2.4,0.2,3.4,0.6
			c1,0.4,1.9,0.9,2.7,1.6c1.5,1.2,2.7,2.8,3.4,4.7C162.5,252.9,162.9,255,162.9,257.4 M156.7,257.5c0-1.1-0.1-2.2-0.3-3.3
			c-0.2-1.1-0.6-2.1-1.3-2.9c-0.5-0.6-1-1-1.7-1.4s-1.5-0.6-2.4-0.6c-1.2,0-2.2,0.2-2.9,0.8s-1.3,1.2-1.8,1.9
			c-0.4,0.8-0.7,1.7-0.9,2.7c-0.1,1-0.2,1.9-0.2,2.8c0,0.9,0.1,1.9,0.2,2.8c0.1,1,0.4,1.8,0.9,2.6c0.4,0.8,1,1.5,1.8,2
			c0.8,0.5,1.7,0.8,2.9,0.8c0.9,0,1.8-0.2,2.4-0.6c0.7-0.4,1.2-0.9,1.7-1.4c0.7-0.8,1.1-1.8,1.3-2.9
			C156.6,259.7,156.7,258.6,156.7,257.5"/>
	</g>
	<g>
		<defs>
			<rect id="SVGID_12_" x="17.5" y="-0.1" width="312" height="336.1"/>
		</defs>
		<clipPath id="SVGID_13_">
			<use xlink:href="#SVGID_12_"  style="overflow:visible;"/>
		</clipPath>
		<path class="st6" d="M181,250.4c-0.8-0.2-1.4-0.2-2.1-0.2c-2.1,0-3.8,0.7-4.9,2.1c-1.1,1.4-1.7,3.1-1.7,5.1v12.8h-6.2v-25.4h5.2
			l0.5,3.8c0.6-1.4,1.6-2.5,2.9-3.1s2.8-1,4.3-1c0.6,0,1.3,0,1.9,0.1L181,250.4L181,250.4z"/>
	</g>
	<g>
		<defs>
			<rect id="SVGID_14_" x="17.5" y="-0.1" width="312" height="336.1"/>
		</defs>
		<clipPath id="SVGID_15_">
			<use xlink:href="#SVGID_14_"  style="overflow:visible;"/>
		</clipPath>
		<path class="st7" d="M204,257.5c0,2.1-0.3,4-0.8,5.4c-0.5,1.5-1.3,2.8-2.2,4c-0.9,1.1-2.1,2-3.6,2.8c-1.6,0.8-3.3,1.2-5.3,1.2
			c-1.9,0-3.7-0.4-5.2-1.2s-2.8-1.7-3.6-2.8c-0.9-1.2-1.7-2.5-2.2-4s-0.8-3.2-0.8-5.4s0.3-3.9,0.8-5.4s1.3-2.8,2.2-4
			c0.9-1.1,2.1-2,3.6-2.8c1.6-0.8,3.3-1.2,5.2-1.2c2,0,3.7,0.4,5.3,1.2c1.5,0.8,2.8,1.7,3.6,2.8c0.9,1.2,1.7,2.5,2.2,4
			C203.7,253.5,204,255.3,204,257.5 M197.8,257.5c0-1.2-0.1-2.4-0.3-3.5c-0.2-1.1-0.7-2.1-1.5-2.9c-0.4-0.5-1-0.8-1.6-1.1
			s-1.4-0.5-2.2-0.5c-0.8,0-1.6,0.1-2.2,0.5c-0.6,0.3-1.2,0.7-1.6,1.1c-0.8,0.8-1.2,1.8-1.5,2.9c-0.2,1.1-0.3,2.3-0.3,3.5
			s0.1,2.4,0.3,3.5c0.2,1.1,0.7,2.1,1.5,2.9c0.4,0.5,1,0.8,1.6,1.1s1.4,0.5,2.2,0.5c0.9,0,1.6-0.2,2.2-0.5s1.2-0.7,1.6-1.1
			c0.8-0.8,1.2-1.8,1.5-2.9C197.7,259.8,197.8,258.7,197.8,257.5"/>
	</g>
	<g>
		<defs>
			<rect id="SVGID_16_" x="17.5" y="-0.1" width="312" height="336.1"/>
		</defs>
		<clipPath id="SVGID_17_">
			<use xlink:href="#SVGID_16_"  style="overflow:visible;"/>
		</clipPath>
		<path class="st8" d="M237.2,270.2v-15.8c0-1.6-0.3-2.8-0.8-3.6s-1.6-1.3-3.1-1.3c-0.9,0-1.6,0.2-2.2,0.6c-0.6,0.4-1.1,0.9-1.5,1.6
			c-0.4,0.7-0.7,1.4-0.9,2.2c-0.2,0.8-0.3,1.6-0.3,2.4v13.9h-6.1v-15.8c0-1.6-0.3-2.8-0.8-3.6s-1.6-1.3-3.1-1.3
			c-0.9,0-1.6,0.2-2.2,0.6c-0.6,0.4-1.1,0.9-1.6,1.6c-0.4,0.7-0.7,1.4-0.9,2.2c-0.2,0.8-0.3,1.6-0.3,2.4v13.9h-6.1v-25.4h5.1
			l0.5,3.4c0.7-1.2,1.7-2.1,2.9-2.9s2.7-1.1,4.4-1.1c1.8,0,3.3,0.4,4.5,1.1c1.2,0.7,2.1,1.8,2.8,3.1c0.8-1.3,1.8-2.4,3.1-3.1
			c1.3-0.7,2.8-1.1,4.6-1.1c2.7,0,4.8,0.8,6.2,2.5c1.4,1.6,2.1,3.8,2.1,6.4v17.2L237.2,270.2L237.2,270.2z"/>
	</g>
	<g>
		<defs>
			<rect id="SVGID_18_" x="17.5" y="-0.1" width="312" height="336.1"/>
		</defs>
		<clipPath id="SVGID_19_">
			<use xlink:href="#SVGID_18_"  style="overflow:visible;"/>
		</clipPath>
		<path class="st9" d="M247.1,242.4l-1.8-2.9l8-6.2l2.4,4.1L247.1,242.4z M248,244.8h6.2v25.4H248V244.8z"/>
	</g>
	<g>
		<defs>
			<rect id="SVGID_20_" x="17.5" y="-0.1" width="312" height="336.1"/>
		</defs>
		<clipPath id="SVGID_21_">
			<use xlink:href="#SVGID_20_"  style="overflow:visible;"/>
		</clipPath>
		<path class="st10" d="M279.1,262.3c0,1.2-0.2,2.3-0.6,3.2c-0.4,0.9-0.9,1.7-1.6,2.3c-1,1-2.3,1.8-3.8,2.2
			c-1.5,0.5-3.1,0.7-4.9,0.7c-1.6,0-3.1-0.2-4.5-0.7c-1.4-0.5-2.6-1.2-3.7-2.2c-0.8-0.7-1.4-1.6-1.9-2.6c-0.5-1-0.8-2.1-0.8-3.3h5.7
			c0,0.5,0.1,1.1,0.4,1.7c0.3,0.5,0.6,1,1,1.3c0.5,0.4,1,0.7,1.6,0.9c0.6,0.2,1.3,0.3,2.2,0.3c0.5,0,1.1,0,1.7-0.1
			c0.6-0.1,1.2-0.2,1.7-0.5c0.5-0.2,1-0.5,1.3-1c0.4-0.4,0.5-1,0.5-1.7c0-0.8-0.2-1.4-0.7-1.8c-0.5-0.5-1.1-0.8-1.9-0.9
			c-1.1-0.2-2.3-0.3-3.5-0.4c-1.2-0.1-2.4-0.3-3.5-0.6c-0.9-0.2-1.7-0.5-2.4-0.9c-0.7-0.4-1.3-0.9-1.8-1.5c-0.5-0.6-0.9-1.3-1.2-2
			s-0.4-1.5-0.4-2.3c0-1.3,0.2-2.4,0.7-3.4c0.5-0.9,1.1-1.7,1.9-2.4c0.9-0.8,2.1-1.4,3.4-1.9c1.3-0.4,2.8-0.7,4.4-0.7
			c1.5,0,3,0.2,4.4,0.7c1.4,0.5,2.6,1.2,3.5,2.2c0.7,0.8,1.2,1.6,1.6,2.5s0.6,1.8,0.6,2.8h-5.8c0-0.5-0.1-0.9-0.3-1.3
			c-0.2-0.4-0.4-0.8-0.7-1.1c-0.4-0.4-0.8-0.6-1.4-0.9s-1.2-0.3-1.9-0.3c-0.5,0-0.9,0-1.3,0.1c-0.4,0-0.9,0.1-1.3,0.3
			c-0.5,0.2-1,0.6-1.4,1c-0.4,0.5-0.6,1-0.6,1.7c0,0.9,0.3,1.6,1,1.9c0.6,0.3,1.3,0.6,2,0.7c0.6,0.1,1.1,0.1,1.5,0.2
			c0.4,0.1,0.8,0.1,1.2,0.1c0.4,0.1,0.8,0.1,1.2,0.2c0.4,0.1,0.9,0.1,1.6,0.2c2,0.3,3.7,1.1,5,2.3
			C278.4,258.7,279.1,260.3,279.1,262.3"/>
	</g>
	<g>
		<defs>
			<rect id="SVGID_22_" x="17.5" y="-0.1" width="312" height="336.1"/>
		</defs>
		<clipPath id="SVGID_23_">
			<use xlink:href="#SVGID_22_"  style="overflow:visible;"/>
		</clipPath>
		<line class="st11" x1="71.2" y1="132" x2="71.2" y2="279.9"/>
	</g>
	<g>
		<defs>
			<rect id="SVGID_24_" x="17.5" y="-0.1" width="312" height="336.1"/>
		</defs>
		<clipPath id="SVGID_25_">
			<use xlink:href="#SVGID_24_"  style="overflow:visible;"/>
		</clipPath>
		<line class="st12" x1="48.3" y1="18.3" x2="48.3" y2="304.6"/>
	</g>
	<g>
		<defs>
			<rect id="SVGID_26_" x="17.5" y="-0.1" width="312" height="336.1"/>
		</defs>
		<clipPath id="SVGID_27_">
			<use xlink:href="#SVGID_26_"  style="overflow:visible;"/>
		</clipPath>
		<line class="st13" x1="279.1" y1="18.3" x2="279.1" y2="304.6"/>
	</g>
	<g>
		<defs>
			<rect id="SVGID_28_" x="17.5" y="-0.1" width="312" height="336.1"/>
		</defs>
		<clipPath id="SVGID_29_">
			<use xlink:href="#SVGID_28_"  style="overflow:visible;"/>
		</clipPath>
		<line class="st14" x1="35.9" y1="18.3" x2="35.9" y2="304.6"/>
	</g>
	<g>
		<defs>
			<rect id="SVGID_30_" x="17.5" y="-0.1" width="312" height="336.1"/>
		</defs>
		<clipPath id="SVGID_31_">
			<use xlink:href="#SVGID_30_"  style="overflow:visible;"/>
		</clipPath>
		<line class="st15" x1="291.5" y1="18.3" x2="291.5" y2="304.6"/>
	</g>
	<g>
		<defs>
			<rect id="SVGID_32_" x="17.5" y="-0.1" width="312" height="336.1"/>
		</defs>
		<clipPath id="SVGID_33_">
			<use xlink:href="#SVGID_32_"  style="overflow:visible;"/>
		</clipPath>
		<line class="st16" x1="257.7" y1="132" x2="257.7" y2="279.9"/>
	</g>
	<g>
		<defs>
			<rect id="SVGID_34_" x="17.5" y="-0.1" width="312" height="336.1"/>
		</defs>
		<clipPath id="SVGID_35_">
			<use xlink:href="#SVGID_34_"  style="overflow:visible;"/>
		</clipPath>
		<rect x="23" y="291.7" class="st17" width="281.4" height="1"/>
	</g>
	<g>
		<defs>
			<rect id="SVGID_36_" x="17.5" y="-0.1" width="312" height="336.1"/>
		</defs>
		<clipPath id="SVGID_37_">
			<use xlink:href="#SVGID_36_"  style="overflow:visible;"/>
		</clipPath>
		<line class="st18" x1="303.9" y1="30.7" x2="23.5" y2="30.7"/>
	</g>
	<g>
		<defs>
			<rect id="SVGID_38_" x="17.5" y="-0.1" width="312" height="336.1"/>
		</defs>
		<clipPath id="SVGID_39_">
			<use xlink:href="#SVGID_38_"  style="overflow:visible;"/>
		</clipPath>
		<line class="st19" x1="303.9" y1="43" x2="23.5" y2="43"/>
	</g>
	<g>
		<defs>
			<rect id="SVGID_40_" x="17.5" y="-0.1" width="312" height="336.1"/>
		</defs>
		<clipPath id="SVGID_41_">
			<use xlink:href="#SVGID_40_"  style="overflow:visible;"/>
		</clipPath>
		<path class="st20" d="M24.4,280.4H23v-1h1.4V280.4z M34.4,280.4h-6v-1h6V280.4z M44.4,280.4h-6v-1h6V280.4z M54.4,280.4h-6v-1h6
			V280.4z M64.4,280.4h-6v-1h6V280.4z M74.4,280.4h-6v-1h6V280.4z M84.4,280.4h-6v-1h6V280.4z M94.4,280.4h-6v-1h6V280.4z
			 M104.4,280.4h-6v-1h6V280.4z M114.4,280.4h-6v-1h6V280.4z M124.4,280.4h-6v-1h6V280.4z M134.4,280.4h-6v-1h6V280.4z M144.4,280.4
			h-6v-1h6V280.4z M154.4,280.4h-6v-1h6V280.4z M164.4,280.4h-6v-1h6V280.4z M174.4,280.4h-6v-1h6V280.4z M184.4,280.4h-6v-1h6
			V280.4z M194.4,280.4h-6v-1h6V280.4z M204.4,280.4h-6v-1h6V280.4z M214.4,280.4h-6v-1h6V280.4z M224.4,280.4h-6v-1h6V280.4z
			 M234.4,280.4h-6v-1h6V280.4z M244.4,280.4h-6v-1h6V280.4z M254.4,280.4h-6v-1h6V280.4z M264.4,280.4h-6v-1h6V280.4z M274.4,280.4
			h-6v-1h6V280.4z M284.4,280.4h-6v-1h6V280.4z M294.4,280.4h-6v-1h6V280.4z M304.4,280.4h-6v-1h6V280.4z"/>
	</g>
	<g>
		<defs>
			<rect id="SVGID_42_" x="17.5" y="-0.1" width="312" height="336.1"/>
		</defs>
		<clipPath id="SVGID_43_">
			<use xlink:href="#SVGID_42_"  style="overflow:visible;"/>
		</clipPath>
		<rect x="247.5" y="269.7" class="st21" width="1" height="50.5"/>
	</g>
	<g>
		<defs>
			<rect id="SVGID_44_" x="17.5" y="-0.1" width="312" height="336.1"/>
		</defs>
		<clipPath id="SVGID_45_">
			<use xlink:href="#SVGID_44_"  style="overflow:visible;"/>
		</clipPath>
		<rect x="253.7" y="269.7" class="st22" width="1" height="50.5"/>
	</g>
	<g>
		<defs>
			<rect id="SVGID_46_" x="17.5" y="-0.1" width="312" height="336.1"/>
		</defs>
		<clipPath id="SVGID_47_">
			<use xlink:href="#SVGID_46_"  style="overflow:visible;"/>
		</clipPath>
		<rect x="241.8" y="313.2" class="st23" width="18.7" height="1"/>
	</g>
</g>
<g>
	<g>
		<defs>
			<rect id="SVGID_48_" x="248" y="270.2" width="6.2" height="43.5"/>
		</defs>
		<clipPath id="SVGID_49_">
			<use xlink:href="#SVGID_48_"  style="overflow:visible;"/>
		</clipPath>
		<path class="st24" d="M253.7,292.7h-5.2v20.5h5.2V292.7z M253.7,280.4h-5.2v11.3h5.2V280.4z M253.7,270.2h-5.2v9.2h5.2V270.2z"/>
	</g>
	<g>
		<defs>
			<rect id="SVGID_50_" x="248" y="270.2" width="6.2" height="43.5"/>
		</defs>
		<clipPath id="SVGID_51_">
			<use xlink:href="#SVGID_50_"  style="overflow:visible;"/>
		</clipPath>
		<rect x="248.5" y="291.7" class="st25" width="5.2" height="1"/>
	</g>
	<g>
		<defs>
			<rect id="SVGID_52_" x="248" y="270.2" width="6.2" height="43.5"/>
		</defs>
		<clipPath id="SVGID_53_">
			<use xlink:href="#SVGID_52_"  style="overflow:visible;"/>
		</clipPath>
		<rect x="248.5" y="279.4" class="st26" width="5.2" height="1"/>
	</g>
	<g>
		<defs>
			<rect id="SVGID_54_" x="248" y="270.2" width="6.2" height="43.5"/>
		</defs>
		<clipPath id="SVGID_55_">
			<use xlink:href="#SVGID_54_"  style="overflow:visible;"/>
		</clipPath>
		<polygon class="st27" points="248.5,270.2 248,270.2 248,313.2 248.5,313.2 248.5,292.7 248.5,291.7 248.5,280.4 248.5,279.4 		
			"/>
	</g>
	<g>
		<defs>
			<rect id="SVGID_56_" x="248" y="270.2" width="6.2" height="43.5"/>
		</defs>
		<clipPath id="SVGID_57_">
			<use xlink:href="#SVGID_56_"  style="overflow:visible;"/>
		</clipPath>
		<polygon class="st28" points="254.2,270.2 253.7,270.2 253.7,279.4 253.7,280.4 253.7,291.7 253.7,292.7 253.7,313.2 254.2,313.2 
					"/>
	</g>
	<g>
		<defs>
			<rect id="SVGID_58_" x="248" y="270.2" width="6.2" height="43.5"/>
		</defs>
		<clipPath id="SVGID_59_">
			<use xlink:href="#SVGID_58_"  style="overflow:visible;"/>
		</clipPath>
		<polygon class="st29" points="254.2,313.2 253.7,313.2 248.5,313.2 248,313.2 248,313.7 254.2,313.7 		"/>
	</g>
</g>
<g>
	<path class="st30" d="M253.7,330.5l-0.7-2h-3.7l-0.7,2h-1.1l3-8.5h1.2l3,8.5H253.7z M251.2,323l-1.5,4.4h3L251.2,323z"/>
</g>
<g>
	<path class="st30" d="M279.3,13.5v-0.9l3.4-4.2c0.3-0.4,0.5-0.8,0.5-1.2c0-0.8-0.5-1.3-1.4-1.3c-0.7,0-1.4,0.4-1.4,1.5h-1.1
		c0-1.4,1-2.4,2.5-2.4c0.9,0,1.6,0.4,2,1c0.2,0.4,0.4,0.8,0.4,1.3c0,0.7-0.2,1.2-0.7,1.8l-2.8,3.5h3.7v1H279.3z"/>
	<path class="st30" d="M290.9,13.5l-0.7-2h-3.7l-0.7,2h-1.1l3-8.5h1.2l3,8.5H290.9z M288.4,6l-1.5,4.4h3L288.4,6z"/>
</g>
<g>
	<path class="st30" d="M309,41v-0.9l3.4-4.2c0.3-0.4,0.5-0.8,0.5-1.2c0-0.8-0.5-1.3-1.4-1.3c-0.7,0-1.4,0.4-1.4,1.5H309
		c0-1.5,1-2.4,2.5-2.4c0.9,0,1.6,0.4,2,1c0.2,0.4,0.4,0.8,0.4,1.3c0,0.7-0.2,1.2-0.7,1.8l-2.8,3.5h3.7v1C314,41,309,41,309,41z"/>
	<path class="st30" d="M320.6,41l-0.7-2h-3.7l-0.7,2h-1.1l3-8.5h1.2l3,8.5H320.6z M318.1,33.5l-1.5,4.4h3L318.1,33.5z"/>
</g>
</svg>
