<?xml version="1.0" encoding="utf-8"?>
<!-- Generator: Adobe Illustrator 23.0.3, SVG Export Plug-In . SVG Version: 6.00 Build 0)  -->
<svg version="1.1" id="Layer_1" xmlns="http://www.w3.org/2000/svg" xmlns:xlink="http://www.w3.org/1999/xlink" x="0px" y="0px"
	 viewBox="0 0 336 336" style="enable-background:new 0 0 336 336;" xml:space="preserve">
<style type="text/css">
	.st0{fill:#FFFFFF;}
	.st1{clip-path:url(#SVGID_2_);fill:url(#SVGID_3_);}
	.st2{fill:#27292E;}
	.st3{fill:none;}
</style>
<rect x="87" y="69.8" class="st0" width="161.1" height="133.3"/>
<g>
	<g>
		<defs>
			<path id="SVGID_1_" d="M225.6,153l6.8,8.7c-17.8,14.8-37.9,22.4-62.6,22.4s-44.8-7.6-62.6-22.4l6.8-8.7
				c17.7,12.6,32.1,18.3,55.7,18.3C193.4,171.4,207.9,165.6,225.6,153 M135.9,98.1h19.5v18.6h-17.9c-11.2,0-18.6-2.7-23.4-13.6
				l7.5-4.3c3.4,6.9,7.5,8.5,14.3,8.5V98.1z M183.6,98.1H203v18.6h-19.5V98.1z M84.2,49.5c-4.8,0-8.7,3.7-8.7,8.3v161.4
				c0,4.6,3.9,8.3,8.7,8.3h169c4.8,0,8.7-3.8,8.7-8.3V57.9c0-4.6-3.9-8.3-8.7-8.3H84.2z"/>
		</defs>
		<clipPath id="SVGID_2_">
			<use xlink:href="#SVGID_1_"  style="overflow:visible;"/>
		</clipPath>
		
			<linearGradient id="SVGID_3_" gradientUnits="userSpaceOnUse" x1="-240.5108" y1="219.2006" x2="-239.5108" y2="219.2006" gradientTransform="matrix(0 179.954 -179.954 0 39614.7734 43329.4922)">
			<stop  offset="0" style="stop-color:#E18433"/>
			<stop  offset="0.2756" style="stop-color:#DE7833"/>
			<stop  offset="0.8103" style="stop-color:#D85933"/>
			<stop  offset="1" style="stop-color:#D54B32"/>
		</linearGradient>
		<rect x="75.5" y="49.5" class="st1" width="186.5" height="178"/>
	</g>
</g>
<path class="st2" d="M74.9,267.7c-0.1,1-0.3,2-0.6,3c-0.3,1-0.8,1.8-1.4,2.6c-0.9,1.1-2.1,2-3.5,2.8c-1.5,0.8-3.2,1.2-5.2,1.2
	c-2,0-3.7-0.4-5.2-1.2c-1.5-0.8-2.7-1.7-3.6-2.8c-1-1.2-1.6-2.6-2.1-4.2c-0.5-1.6-0.7-3.3-0.7-5.1c0-1.9,0.2-3.6,0.7-5.1
	c0.5-1.6,1.2-3,2.1-4.2c0.9-1.1,2.1-2,3.6-2.8c1.5-0.8,3.3-1.2,5.2-1.2c2,0,3.7,0.4,5.2,1.2s2.7,1.7,3.5,2.8c0.6,0.8,1,1.6,1.4,2.6
	c0.3,1,0.5,2,0.6,3h-6c0-0.5-0.1-0.9-0.2-1.2c-0.1-0.4-0.3-0.7-0.5-1.1c-0.4-0.5-0.9-1-1.5-1.4c-0.7-0.4-1.5-0.5-2.4-0.5
	c-0.8,0-1.6,0.1-2.2,0.4c-0.6,0.3-1.1,0.7-1.5,1.1c-0.8,0.8-1.2,1.8-1.4,2.9c-0.2,1.1-0.3,2.3-0.3,3.5c0,1.2,0.1,2.4,0.3,3.5
	c0.2,1.1,0.7,2.1,1.4,2.9c0.4,0.5,0.9,0.8,1.5,1.1c0.6,0.3,1.3,0.5,2.2,0.5c1,0,1.7-0.2,2.4-0.5c0.6-0.4,1.1-0.8,1.5-1.4
	c0.2-0.3,0.4-0.7,0.5-1.1c0.1-0.4,0.2-0.8,0.2-1.3L74.9,267.7L74.9,267.7z"/>
<path class="st2" d="M99.7,264c0,2.1-0.3,4-0.8,5.4c-0.5,1.5-1.3,2.8-2.2,4c-0.9,1.1-2.1,2-3.6,2.8c-1.6,0.8-3.3,1.2-5.3,1.2
	s-3.7-0.4-5.3-1.2c-1.5-0.8-2.8-1.7-3.6-2.8c-0.9-1.2-1.7-2.5-2.2-4c-0.5-1.4-0.8-3.2-0.8-5.4s0.3-3.9,0.8-5.4
	c0.5-1.4,1.2-2.8,2.2-4c0.9-1.1,2.1-2,3.6-2.8c1.6-0.8,3.3-1.2,5.3-1.2s3.7,0.4,5.3,1.2c1.5,0.8,2.8,1.7,3.6,2.8
	c0.9,1.2,1.7,2.5,2.2,4C99.5,260.1,99.7,261.9,99.7,264 M93.5,264c0-1.2-0.1-2.4-0.3-3.5c-0.2-1.1-0.7-2.1-1.5-2.9
	c-0.4-0.5-1-0.8-1.6-1.1c-0.7-0.3-1.4-0.5-2.2-0.5c-0.9,0-1.6,0.1-2.2,0.5c-0.7,0.3-1.2,0.7-1.6,1.1c-0.8,0.8-1.2,1.8-1.5,2.9
	c-0.2,1.1-0.3,2.3-0.3,3.5s0.1,2.4,0.3,3.5c0.2,1.1,0.7,2.1,1.5,2.9c0.4,0.5,1,0.8,1.6,1.1c0.6,0.3,1.4,0.5,2.2,0.5
	c0.8,0,1.6-0.2,2.2-0.5c0.6-0.3,1.2-0.7,1.6-1.1c0.8-0.8,1.2-1.8,1.5-2.9C93.4,266.4,93.5,265.2,93.5,264"/>
<path class="st2" d="M133,276.7v-15.8c0-1.6-0.3-2.8-0.8-3.6c-0.5-0.9-1.6-1.3-3.1-1.3c-0.9,0-1.6,0.2-2.3,0.6
	c-0.6,0.4-1.1,0.9-1.5,1.6c-0.4,0.7-0.7,1.4-0.9,2.2c-0.2,0.8-0.3,1.6-0.3,2.4v13.9H118v-15.8c0-1.6-0.3-2.8-0.8-3.6
	c-0.5-0.9-1.6-1.3-3.1-1.3c-0.9,0-1.6,0.2-2.2,0.6s-1.1,0.9-1.6,1.6c-0.4,0.7-0.7,1.4-0.9,2.2c-0.2,0.8-0.3,1.6-0.3,2.4v13.9H103
	v-25.4h5.1l0.5,3.4c0.7-1.2,1.7-2.1,2.9-2.9c1.2-0.8,2.6-1.1,4.3-1.1c1.8,0,3.3,0.4,4.5,1.1c1.2,0.7,2.1,1.8,2.8,3.1
	c0.8-1.3,1.8-2.4,3.1-3.1c1.3-0.7,2.8-1.1,4.6-1.1c2.7,0,4.8,0.8,6.2,2.5c1.4,1.6,2.1,3.8,2.1,6.4v17.1L133,276.7L133,276.7z"/>
<path class="st2" d="M167.2,264c0,5-1.5,8.8-4.6,11.3c-0.8,0.6-1.7,1.1-2.7,1.5c-1,0.4-2.2,0.5-3.5,0.5c-1.5,0-2.9-0.2-4-0.7
	s-2-1.1-2.6-1.8v11.6h-6.1v-35.2h5.3l0.4,2.8c0.8-1.2,1.8-2,3.1-2.6c1.3-0.5,2.7-0.8,4.1-0.8c1.3,0,2.4,0.2,3.4,0.6
	c1,0.4,1.9,0.9,2.7,1.6c1.5,1.2,2.7,2.8,3.4,4.7C166.8,259.4,167.2,261.6,167.2,264 M161,264.1c0-1.1-0.1-2.2-0.3-3.3
	c-0.2-1.1-0.6-2.1-1.3-2.9c-0.5-0.6-1-1-1.7-1.4c-0.7-0.4-1.5-0.6-2.4-0.6c-1.2,0-2.2,0.2-2.9,0.8c-0.8,0.5-1.3,1.2-1.8,1.9
	c-0.4,0.8-0.7,1.7-0.9,2.7s-0.2,1.9-0.2,2.8c0,0.9,0.1,1.9,0.2,2.8c0.1,1,0.4,1.8,0.9,2.6c0.4,0.8,1,1.4,1.8,2
	c0.8,0.5,1.7,0.8,2.9,0.8c0.9,0,1.8-0.2,2.4-0.6c0.7-0.4,1.2-0.9,1.7-1.4c0.6-0.9,1.1-1.8,1.3-2.9C160.9,266.3,161,265.2,161,264.1"
	/>
<path class="st2" d="M185.3,256.9c-0.8-0.2-1.4-0.2-2.1-0.2c-2.1,0-3.8,0.7-4.9,2.1c-1.1,1.4-1.7,3.1-1.7,5.1v12.8h-6.2v-25.4h5.2
	l0.5,3.8c0.6-1.4,1.6-2.5,2.9-3.1s2.8-1,4.3-1c0.6,0,1.3,0,1.9,0.1V256.9z"/>
<path class="st2" d="M208.3,264c0,2.1-0.3,4-0.8,5.4c-0.5,1.5-1.3,2.8-2.2,4c-0.9,1.1-2.1,2-3.6,2.8c-1.6,0.8-3.3,1.2-5.3,1.2
	c-1.9,0-3.7-0.4-5.2-1.2s-2.8-1.7-3.6-2.8c-0.9-1.2-1.7-2.5-2.2-4c-0.5-1.4-0.8-3.2-0.8-5.4s0.3-3.9,0.8-5.4c0.5-1.4,1.3-2.8,2.2-4
	c0.9-1.1,2.1-2,3.6-2.8c1.6-0.8,3.3-1.2,5.2-1.2c2,0,3.7,0.4,5.3,1.2c1.5,0.8,2.8,1.7,3.6,2.8c0.9,1.2,1.7,2.5,2.2,4
	C208,260.1,208.3,261.9,208.3,264 M202.1,264c0-1.2-0.1-2.4-0.3-3.5c-0.2-1.1-0.7-2.1-1.5-2.9c-0.4-0.5-1-0.8-1.6-1.1
	s-1.4-0.5-2.2-0.5c-0.8,0-1.6,0.1-2.2,0.5c-0.6,0.3-1.2,0.7-1.6,1.1c-0.8,0.8-1.2,1.8-1.5,2.9s-0.3,2.3-0.3,3.5s0.1,2.4,0.3,3.5
	c0.2,1.1,0.7,2.1,1.5,2.9c0.4,0.5,1,0.8,1.6,1.1s1.4,0.5,2.2,0.5c0.9,0,1.6-0.2,2.2-0.5s1.2-0.7,1.6-1.1c0.8-0.8,1.2-1.8,1.5-2.9
	C202,266.4,202.1,265.2,202.1,264"/>
<path class="st2" d="M241.5,276.7v-15.8c0-1.6-0.3-2.8-0.8-3.6c-0.5-0.9-1.6-1.3-3.1-1.3c-0.9,0-1.6,0.2-2.2,0.6s-1.1,0.9-1.5,1.6
	c-0.4,0.7-0.7,1.4-0.9,2.2c-0.2,0.8-0.3,1.6-0.3,2.4v13.9h-6.1v-15.8c0-1.6-0.3-2.8-0.8-3.6c-0.5-0.9-1.6-1.3-3.1-1.3
	c-0.9,0-1.6,0.2-2.2,0.6s-1.1,0.9-1.6,1.6c-0.4,0.7-0.7,1.4-0.9,2.2c-0.2,0.8-0.3,1.6-0.3,2.4v13.9h-6.1v-25.4h5.1l0.5,3.4
	c0.7-1.2,1.7-2.1,2.9-2.9s2.7-1.1,4.4-1.1c1.8,0,3.3,0.4,4.5,1.1c1.2,0.7,2.1,1.8,2.8,3.1c0.8-1.3,1.8-2.4,3.1-3.1
	c1.3-0.7,2.8-1.1,4.6-1.1c2.7,0,4.8,0.8,6.2,2.5c1.4,1.6,2.1,3.8,2.1,6.4v17.1L241.5,276.7L241.5,276.7z"/>
<path class="st2" d="M251.4,249l-1.8-2.9l8-6.2l2.4,4.1L251.4,249z M252.3,251.3h6.2v25.4h-6.2V251.3z"/>
<path class="st2" d="M283.4,268.9c0,1.2-0.2,2.3-0.6,3.2c-0.4,0.9-0.9,1.7-1.6,2.3c-1,1-2.3,1.8-3.8,2.2c-1.5,0.5-3.1,0.7-4.9,0.7
	c-1.6,0-3.1-0.2-4.5-0.7c-1.4-0.5-2.6-1.2-3.7-2.2c-0.8-0.7-1.4-1.6-1.9-2.6c-0.5-1-0.8-2.1-0.8-3.3h5.7c0,0.5,0.1,1.1,0.4,1.7
	c0.3,0.5,0.6,1,1,1.3c0.5,0.4,1,0.7,1.6,0.9c0.6,0.2,1.3,0.3,2.2,0.3c0.5,0,1.1,0,1.7-0.1c0.6-0.1,1.2-0.2,1.7-0.5
	c0.5-0.2,0.9-0.6,1.3-1c0.4-0.4,0.5-1,0.5-1.7c0-0.8-0.2-1.4-0.7-1.8c-0.5-0.4-1.1-0.8-1.9-0.9c-1.1-0.2-2.3-0.3-3.5-0.4
	c-1.2-0.1-2.4-0.3-3.5-0.6c-0.9-0.2-1.7-0.5-2.4-0.9c-0.7-0.4-1.3-0.9-1.8-1.5c-0.5-0.6-0.9-1.3-1.2-2c-0.3-0.7-0.4-1.5-0.4-2.3
	c0-1.3,0.2-2.4,0.7-3.4c0.5-0.9,1.1-1.7,1.8-2.4c1-0.8,2.1-1.4,3.4-1.9c1.3-0.4,2.8-0.7,4.4-0.7c1.5,0,3,0.2,4.4,0.7
	c1.4,0.5,2.6,1.2,3.5,2.2c0.7,0.8,1.2,1.6,1.6,2.5c0.4,0.9,0.6,1.8,0.6,2.8H277c0-0.5-0.1-0.9-0.3-1.3c-0.2-0.4-0.4-0.8-0.7-1.1
	c-0.4-0.4-0.8-0.6-1.4-0.9s-1.2-0.3-1.9-0.3c-0.5,0-0.9,0-1.3,0.1c-0.4,0-0.9,0.1-1.3,0.3c-0.6,0.2-1,0.6-1.4,1
	c-0.4,0.5-0.6,1-0.6,1.7c0,0.9,0.3,1.6,0.9,1.9c0.6,0.3,1.3,0.6,2,0.7c0.6,0.1,1.1,0.1,1.5,0.2c0.4,0.1,0.8,0.1,1.2,0.1
	c0.4,0.1,0.8,0.1,1.2,0.2c0.4,0.1,1,0.1,1.6,0.2c2,0.3,3.7,1.1,5,2.3C282.7,265.2,283.4,266.8,283.4,268.9"/>
<rect x="52.6" y="49.5" class="st3" width="230.8" height="236.9"/>
</svg>
