<svg version="1.1" xmlns="http://www.w3.org/2000/svg" xmlns:xlink="http://www.w3.org/1999/xlink" x="0px" y="0px"
	 width="598.35px" height="71.62px" viewBox="0 0 598.35 71.62" style="enable-background:new 0 0 598.35 71.62;"
	 xml:space="preserve">
<style type="text/css">
	.st0{clip-path:url(#SVGID_2_);fill:url(#SVGID_3_);}
	.st1{clip-path:url(#SVGID_5_);fill:#27292E;}
	.st2{clip-path:url(#SVGID_5_);fill:none;stroke:#898E91;stroke-width:1.399;stroke-miterlimit:10;}
	.st3{clip-path:url(#SVGID_7_);fill:#ECC259;}
	.st4{clip-path:url(#SVGID_9_);fill:#3B9552;}
	.st5{clip-path:url(#SVGID_11_);fill:#3B9552;}
	.st6{fill:#3B9552;}
	.st7{fill:none;}
	.st8{clip-path:url(#SVGID_13_);fill:url(#SVGID_14_);}
	.st9{clip-path:url(#SVGID_16_);fill:#27292E;}
	.st10{clip-path:url(#SVGID_16_);fill:none;stroke:#898E91;stroke-width:1.399;stroke-miterlimit:10;}
	.st11{clip-path:url(#SVGID_18_);fill:#ECC259;}
	.st12{clip-path:url(#SVGID_20_);fill:#3B9552;}
	.st13{clip-path:url(#SVGID_22_);fill:#3B9552;}
</style>
<defs>
</defs>
<g>
	<defs>
		<path id="SVGID_1_" d="M391,39.24l1.62,2.07c-4.22,3.5-8.99,5.31-14.83,5.31c-5.84,0-10.61-1.81-14.83-5.31l1.62-2.07
			c4.18,2.98,7.61,4.35,13.2,4.35C383.39,43.59,386.81,42.22,391,39.24 M369.77,26.23h4.62v4.4h-4.25c-2.66,0-4.4-0.64-5.53-3.21
			l1.77-1.02c0.8,1.63,1.77,2.01,3.39,2.01V26.23z M381.05,26.23h4.62v4.4h-4.62V26.23z M357.51,14.73c-1.14,0-2.06,0.89-2.06,1.97
			v38.23c0,1.08,0.93,1.97,2.06,1.97h40.05c1.13,0,2.06-0.89,2.06-1.97V16.7c0-1.09-0.93-1.97-2.06-1.97H357.51z"/>
	</defs>
	<clipPath id="SVGID_2_">
		<use xlink:href="#SVGID_1_"  style="overflow:visible;"/>
	</clipPath>

		<linearGradient id="SVGID_3_" gradientUnits="userSpaceOnUse" x1="-111.849" y1="206.151" x2="-110.849" y2="206.151" gradientTransform="matrix(0 42.6339 42.6339 0 -8411.4805 4783.0688)">
		<stop  offset="0" style="stop-color:#E18433"/>
		<stop  offset="0.2756" style="stop-color:#DE7833"/>
		<stop  offset="0.8103" style="stop-color:#D85933"/>
		<stop  offset="1" style="stop-color:#D54B32"/>
	</linearGradient>
	<rect x="355.45" y="14.73" class="st0" width="44.18" height="42.17"/>
</g>
<g>
	<defs>
		<rect id="SVGID_4_" width="598.35" height="71.62"/>
	</defs>
	<clipPath id="SVGID_5_">
		<use xlink:href="#SVGID_4_"  style="overflow:visible;"/>
	</clipPath>
	<path class="st1" d="M427.66,39.35c-0.05,0.83-0.21,1.64-0.48,2.42c-0.27,0.79-0.64,1.49-1.12,2.1c-0.72,0.9-1.69,1.68-2.9,2.32
		c-1.21,0.64-2.62,0.96-4.22,0.96c-1.6,0-3.03-0.33-4.28-0.98c-1.26-0.66-2.24-1.42-2.96-2.3c-0.77-0.99-1.35-2.12-1.72-3.4
		c-0.38-1.28-0.56-2.68-0.56-4.2c0-1.52,0.18-2.92,0.56-4.2c0.38-1.28,0.95-2.41,1.72-3.4c0.72-0.88,1.71-1.64,2.96-2.3
		c1.25-0.66,2.68-0.98,4.28-0.98c1.6,0,3.01,0.32,4.22,0.96c1.21,0.64,2.18,1.41,2.9,2.32c0.48,0.62,0.85,1.32,1.12,2.1
		c0.27,0.79,0.43,1.6,0.48,2.42h-4.92c-0.02-0.37-0.09-0.71-0.2-1.03c-0.11-0.32-0.24-0.61-0.4-0.87c-0.29-0.44-0.71-0.82-1.24-1.11
		c-0.54-0.29-1.18-0.44-1.96-0.44c-0.7,0-1.29,0.12-1.78,0.36c-0.49,0.24-0.91,0.54-1.26,0.91c-0.62,0.66-1,1.46-1.16,2.39
		c-0.16,0.93-0.24,1.88-0.24,2.86c0,0.99,0.08,1.93,0.24,2.85c0.16,0.91,0.55,1.7,1.16,2.37c0.34,0.37,0.77,0.68,1.26,0.93
		c0.5,0.25,1.09,0.38,1.78,0.38c0.78,0,1.42-0.14,1.96-0.44c0.53-0.29,0.95-0.65,1.24-1.1c0.16-0.27,0.29-0.56,0.4-0.87
		c0.11-0.32,0.18-0.66,0.2-1.03H427.66z"/>
	<path class="st1" d="M448,36.31c0,1.76-0.22,3.23-0.64,4.42c-0.43,1.19-1.03,2.27-1.8,3.26c-0.72,0.88-1.72,1.64-2.98,2.28
		c-1.27,0.64-2.7,0.96-4.3,0.96s-3.03-0.32-4.3-0.96c-1.27-0.64-2.26-1.4-2.98-2.28c-0.77-0.99-1.38-2.07-1.8-3.26
		c-0.43-1.19-0.64-2.66-0.64-4.42c0-1.76,0.21-3.23,0.64-4.42c0.43-1.19,1.03-2.28,1.8-3.26c0.72-0.88,1.71-1.64,2.98-2.28
		c1.27-0.64,2.7-0.96,4.3-0.96s3.04,0.32,4.3,0.96c1.26,0.64,2.26,1.4,2.98,2.28c0.77,0.99,1.38,2.07,1.8,3.26
		C447.78,33.08,448,34.55,448,36.31 M442.91,36.31c0-0.99-0.09-1.94-0.28-2.86c-0.19-0.92-0.59-1.72-1.2-2.38
		c-0.35-0.38-0.79-0.69-1.32-0.95c-0.53-0.25-1.15-0.38-1.84-0.38s-1.3,0.13-1.84,0.38c-0.53,0.26-0.97,0.57-1.32,0.95
		c-0.61,0.66-1.01,1.46-1.2,2.38c-0.18,0.92-0.28,1.87-0.28,2.86c0,0.98,0.1,1.94,0.28,2.86c0.19,0.92,0.59,1.71,1.2,2.38
		c0.35,0.38,0.79,0.69,1.32,0.94c0.54,0.25,1.14,0.38,1.84,0.38s1.31-0.13,1.84-0.38c0.53-0.25,0.97-0.56,1.32-0.94
		c0.61-0.67,1.01-1.46,1.2-2.38C442.82,38.25,442.91,37.29,442.91,36.31"/>
	<path class="st1" d="M475.21,46.72V33.79c0-1.28-0.22-2.27-0.67-2.98c-0.43-0.71-1.29-1.06-2.54-1.06c-0.72,0-1.33,0.17-1.85,0.51
		c-0.5,0.33-0.92,0.77-1.26,1.32c-0.33,0.55-0.58,1.16-0.74,1.82c-0.16,0.67-0.24,1.32-0.24,1.96v11.37h-4.96V33.79
		c0-1.28-0.22-2.27-0.66-2.98c-0.44-0.71-1.29-1.06-2.54-1.06c-0.72,0-1.34,0.17-1.84,0.51c-0.51,0.33-0.94,0.77-1.28,1.32
		c-0.35,0.55-0.6,1.16-0.76,1.82c-0.16,0.67-0.24,1.32-0.24,1.96v11.37h-4.96V25.9h4.16l0.4,2.76c0.59-0.96,1.38-1.75,2.36-2.36
		c0.98-0.61,2.17-0.92,3.56-0.92c1.46,0,2.69,0.3,3.68,0.9c0.99,0.6,1.75,1.43,2.28,2.49c0.61-1.09,1.46-1.93,2.54-2.52
		c1.08-0.58,2.33-0.88,3.74-0.88c2.24,0,3.93,0.68,5.06,2.02c1.14,1.35,1.7,3.1,1.7,5.26v14.05H475.21z"/>
	<path class="st1" d="M503.22,36.27c0,4.14-1.24,7.23-3.72,9.28c-0.64,0.54-1.38,0.95-2.22,1.24c-0.84,0.29-1.79,0.44-2.86,0.44
		c-1.26,0-2.36-0.19-3.3-0.58c-0.95-0.39-1.66-0.88-2.14-1.46v9.49h-5V25.9h4.32l0.32,2.28c0.61-0.96,1.46-1.66,2.52-2.1
		c1.07-0.44,2.18-0.66,3.32-0.66c1.04,0,1.98,0.16,2.82,0.48c0.84,0.32,1.58,0.75,2.22,1.28c1.26,1.01,2.19,2.28,2.8,3.82
		C502.92,32.54,503.22,34.29,503.22,36.27 M498.14,36.35c0-0.9-0.09-1.81-0.26-2.7c-0.17-0.89-0.52-1.69-1.06-2.38
		c-0.37-0.45-0.83-0.84-1.38-1.16c-0.55-0.32-1.2-0.48-1.98-0.48c-0.99,0-1.79,0.21-2.4,0.62c-0.61,0.41-1.09,0.95-1.44,1.6
		c-0.34,0.65-0.58,1.38-0.7,2.18c-0.12,0.8-0.18,1.57-0.18,2.32c0,0.75,0.06,1.52,0.18,2.31c0.12,0.78,0.36,1.51,0.7,2.16
		c0.35,0.65,0.83,1.19,1.44,1.6c0.62,0.41,1.41,0.62,2.4,0.62c0.78,0,1.43-0.16,1.98-0.48c0.55-0.32,1.01-0.71,1.38-1.16
		c0.54-0.69,0.89-1.48,1.06-2.36C498.06,38.15,498.14,37.26,498.14,36.35"/>
	<path class="st1" d="M518.07,30.51c-0.61-0.13-1.19-0.2-1.72-0.2c-1.76,0-3.09,0.56-4,1.68c-0.91,1.12-1.36,2.53-1.36,4.21v10.52
		h-5.09V25.9h4.28l0.45,3.09c0.48-1.19,1.28-2.05,2.38-2.58c1.11-0.53,2.28-0.79,3.5-0.79c0.53,0,1.05,0.04,1.56,0.12V30.51z"/>
	<path class="st1" d="M536.88,36.31c0,1.76-0.21,3.23-0.64,4.42c-0.43,1.19-1.03,2.27-1.8,3.26c-0.72,0.88-1.72,1.64-2.98,2.28
		c-1.27,0.64-2.7,0.96-4.31,0.96c-1.6,0-3.03-0.32-4.3-0.96c-1.27-0.64-2.26-1.4-2.98-2.28c-0.77-0.99-1.38-2.07-1.8-3.26
		c-0.42-1.19-0.64-2.66-0.64-4.42c0-1.76,0.22-3.23,0.64-4.42c0.42-1.19,1.03-2.28,1.8-3.26c0.72-0.88,1.71-1.64,2.98-2.28
		c1.27-0.64,2.7-0.96,4.3-0.96c1.6,0,3.04,0.32,4.31,0.96c1.26,0.64,2.26,1.4,2.98,2.28c0.77,0.99,1.37,2.07,1.8,3.26
		C536.66,33.08,536.88,34.55,536.88,36.31 M531.8,36.31c0-0.99-0.1-1.94-0.28-2.86c-0.19-0.92-0.59-1.72-1.2-2.38
		c-0.34-0.38-0.79-0.69-1.32-0.95c-0.53-0.25-1.15-0.38-1.84-0.38c-0.69,0-1.3,0.13-1.84,0.38c-0.53,0.26-0.97,0.57-1.32,0.95
		c-0.61,0.66-1.01,1.46-1.2,2.38c-0.19,0.92-0.28,1.87-0.28,2.86c0,0.98,0.09,1.94,0.28,2.86c0.19,0.92,0.59,1.71,1.2,2.38
		c0.35,0.38,0.79,0.69,1.32,0.94c0.53,0.25,1.15,0.38,1.84,0.38c0.7,0,1.31-0.13,1.84-0.38c0.53-0.25,0.98-0.56,1.32-0.94
		c0.61-0.67,1.02-1.46,1.2-2.38C531.7,38.25,531.8,37.29,531.8,36.31"/>
	<path class="st1" d="M564.09,46.72V33.79c0-1.28-0.22-2.27-0.66-2.98c-0.44-0.71-1.29-1.06-2.54-1.06c-0.72,0-1.33,0.17-1.84,0.51
		c-0.51,0.33-0.92,0.77-1.26,1.32c-0.33,0.55-0.58,1.16-0.74,1.82c-0.16,0.67-0.24,1.32-0.24,1.96v11.37h-4.97V33.79
		c0-1.28-0.22-2.27-0.66-2.98c-0.44-0.71-1.29-1.06-2.54-1.06c-0.72,0-1.33,0.17-1.84,0.51c-0.51,0.33-0.93,0.77-1.28,1.32
		c-0.34,0.55-0.6,1.16-0.75,1.82c-0.16,0.67-0.24,1.32-0.24,1.96v11.37h-4.96V25.9h4.16l0.41,2.76c0.58-0.96,1.37-1.75,2.36-2.36
		c0.99-0.61,2.17-0.92,3.56-0.92c1.47,0,2.69,0.3,3.68,0.9c0.99,0.6,1.75,1.43,2.28,2.49c0.61-1.09,1.46-1.93,2.54-2.52
		c1.08-0.58,2.33-0.88,3.74-0.88c2.24,0,3.93,0.68,5.06,2.02c1.13,1.35,1.7,3.1,1.7,5.26v14.05H564.09z"/>
	<path class="st1" d="M572.14,23.98l-1.44-2.4l6.56-5.08l2,3.36L572.14,23.98z M572.94,25.9h5.08v20.81h-5.08V25.9z"/>
	<path class="st1" d="M598.35,40.27c0,1.02-0.17,1.9-0.5,2.65c-0.34,0.75-0.77,1.39-1.3,1.92c-0.85,0.86-1.89,1.47-3.12,1.84
		c-1.23,0.37-2.56,0.56-4,0.56c-1.34,0-2.57-0.19-3.72-0.58c-1.15-0.39-2.15-0.99-3-1.82c-0.61-0.59-1.14-1.3-1.56-2.12
		c-0.43-0.82-0.64-1.73-0.64-2.72h4.69c0,0.45,0.1,0.9,0.32,1.36c0.21,0.45,0.48,0.82,0.8,1.08c0.4,0.32,0.85,0.55,1.34,0.7
		c0.49,0.15,1.1,0.22,1.82,0.22c0.43,0,0.89-0.03,1.38-0.1c0.49-0.07,0.95-0.19,1.38-0.38c0.43-0.19,0.78-0.45,1.06-0.8
		c0.28-0.35,0.42-0.8,0.42-1.36c0-0.62-0.18-1.1-0.56-1.48c-0.37-0.37-0.88-0.61-1.52-0.72c-0.93-0.13-1.89-0.25-2.88-0.34
		c-0.99-0.09-1.95-0.24-2.88-0.46c-0.72-0.16-1.37-0.42-1.94-0.76c-0.57-0.35-1.08-0.76-1.5-1.26c-0.42-0.49-0.75-1.04-0.98-1.64
		c-0.23-0.6-0.34-1.23-0.34-1.9c0-1.07,0.21-1.98,0.6-2.74c0.4-0.76,0.9-1.41,1.52-1.94c0.78-0.67,1.7-1.18,2.76-1.54
		c1.07-0.36,2.25-0.54,3.56-0.54c1.26,0,2.46,0.2,3.63,0.6c1.16,0.4,2.12,1.02,2.9,1.84c0.56,0.61,1.01,1.29,1.34,2.02
		c0.34,0.73,0.5,1.48,0.5,2.26h-4.76c0-0.4-0.08-0.76-0.24-1.08c-0.16-0.32-0.36-0.61-0.6-0.88c-0.29-0.29-0.69-0.52-1.18-0.7
		c-0.49-0.17-1-0.26-1.54-0.26c-0.37,0-0.73,0.01-1.08,0.04c-0.35,0.02-0.71,0.12-1.08,0.28c-0.45,0.19-0.83,0.47-1.14,0.84
		c-0.3,0.38-0.46,0.83-0.46,1.36c0,0.75,0.26,1.26,0.78,1.55c0.52,0.28,1.06,0.46,1.62,0.54c0.48,0.05,0.88,0.1,1.2,0.14
		c0.32,0.04,0.64,0.08,0.96,0.12c0.32,0.04,0.66,0.09,1,0.15c0.35,0.05,0.78,0.11,1.28,0.2c1.65,0.27,3.01,0.9,4.08,1.9
		C597.81,37.29,598.35,38.62,598.35,40.27"/>
	<line class="st2" x1="336.04" y1="7.99" x2="336.04" y2="63.63"/>
</g>
<g>
	<defs>
		<path id="SVGID_6_" d="M158.04,57.8c3.96-5.59,4.7-11.23,2.55-17.7C157.4,43.9,156.55,49.8,158.04,57.8 M164.87,57.58
			c3.42-5.12,2.72-11.23-1.08-17.87C161.72,46.17,162.17,52.55,164.87,57.58 M169.92,39.5c1.67,6.76,4.54,10.82,8.62,12.19
			c-0.5-8.07-3.16-12.21-8.07-12.21C170.29,39.48,170.11,39.49,169.92,39.5 M171.62,55.2c1.38-6.05-0.06-11.39-4.62-15.78
			C165.74,43.92,167.28,49.18,171.62,55.2 M148.34,55.34c7.45-3.46,10.04-8.41,9.14-15.98C151.69,45.05,148.62,51.06,148.34,55.34
			 M139.75,49.69c9.31-1.28,14-4.6,16.06-11.83C149.67,39.55,145.01,42.9,139.75,49.69 M174.06,37.52
			c1.87,4.94,5.41,7.58,10.62,7.92c-2.04-5.38-5.08-8.09-8.9-8.09C175.22,37.35,174.65,37.4,174.06,37.52 M135.45,40.03
			c10.91,1.38,16.71-0.49,20.03-5.31c-1.39-0.28-2.72-0.41-4.01-0.41C145.8,34.32,140.98,36.83,135.45,40.03 M176.44,35.15
			c3.78,3.37,8.52,3.71,14.22,1.02c-2.31-1.88-4.82-2.84-7.51-2.84C181.02,33.33,178.79,33.93,176.44,35.15 M136.7,30.4
			c9.35,3.69,12.66,4.28,18.06,2.28c-1.73-2.54-3.6-3.86-7.59-3.86C144.68,28.82,141.35,29.34,136.7,30.4 M178.17,31.44
			c4.12,1.9,9.3,1.06,15.53-2.55c-2.55-0.85-4.87-1.28-6.95-1.28C183.16,27.61,180.29,28.89,178.17,31.44 M157.11,30.24
			c-2.29-4.25-5.46-5.91-12.7-6.06C146.7,26.89,151.52,30.04,157.11,30.24 M178.04,27.47c4.87,0.78,9.11-0.72,12.65-4.56
			c-0.44-0.06-0.89-0.1-1.36-0.1C186.06,22.81,182.21,24.39,178.04,27.47 M159.11,27.56c-0.11-2.82-2.03-5.72-7.48-6.84
			C153.77,26.23,155.8,28.33,159.11,27.56 M176.49,25.87c4.25-0.14,7.83-2.21,10.45-6.3C182.62,19.91,179.1,21.94,176.49,25.87
			 M166.11,24.68c1.52-3.12,0.98-4.9-3.07-6.02C162.7,22.5,163.17,24.29,166.11,24.68 M162.64,26.03c0.4-4.06-0.66-6.57-5.18-7.4
			C157.66,23.42,158.4,25.85,162.64,26.03 M169.51,24.08c2.52-2.84,1.71-4.69-1.47-5.99C166.92,20.42,167.67,22.31,169.51,24.08
			 M175.01,24.93c2.23-0.38,4.22-2.67,5.98-6.89C176.71,19.2,174.7,21.57,175.01,24.93 M172.46,24.18c3.08-0.95,3.38-3.19,1.87-7.34
			C171.68,19.76,171.3,22.01,172.46,24.18"/>
	</defs>
	<clipPath id="SVGID_7_">
		<use xlink:href="#SVGID_6_"  style="overflow:visible;"/>
	</clipPath>
	<polygon class="st3" points="135.14,57.7 135.14,16.74 194.2,16.84 194.2,57.8 	"/>
</g>
<g>
	<defs>
		<rect id="SVGID_8_" width="598.35" height="71.62"/>
	</defs>
	<clipPath id="SVGID_9_">
		<use xlink:href="#SVGID_8_"  style="overflow:visible;"/>
	</clipPath>
	<path class="st4" d="M164.67,27.54c-4.43,1.81-6.96,5.35-5.65,7.91c1.31,2.56,5.97,3.17,10.4,1.37c4.43-1.81,6.96-5.35,5.64-7.9
		c-0.8-1.57-2.86-2.4-5.35-2.4C168.14,26.5,166.38,26.84,164.67,27.54"/>
</g>
<g>
	<defs>
		<path id="SVGID_10_" d="M164.67,27.54c-4.43,1.8-6.96,5.35-5.65,7.91c1.31,2.56,5.97,3.17,10.4,1.37c4.43-1.8,6.96-5.35,5.64-7.9
			c-0.8-1.57-2.86-2.4-5.35-2.4C168.14,26.5,166.39,26.84,164.67,27.54"/>
	</defs>
	<clipPath id="SVGID_11_">
		<use xlink:href="#SVGID_10_"  style="overflow:visible;"/>
	</clipPath>
	<rect x="157.71" y="25.74" class="st5" width="18.68" height="12.88"/>
</g>
<path class="st6" d="M42.08,26.66c-3.99,0-6.42,1.91-7.4,5.89H49.3C48.84,28.68,46.29,26.66,42.08,26.66 M34.27,36.66
	c0.29,5.03,3.12,7.97,7.57,7.97c3.93,0,6.41-1.56,8.38-5.26l5.14,2.89c-3.01,5.37-7.4,7.98-13.41,7.98
	c-8.55,0-14.04-5.67-14.04-14.39c0-8.32,5.72-14.39,14.04-14.39c8.61,0,13.7,5.14,13.7,14.04v1.16H34.27z"/>
<polygon class="st6" points="21.67,22.26 14.48,41.24 14.24,41.24 14.22,41.18 7.11,22.26 0,22.26 10.81,49.93 17.82,49.93
	28.33,22.26 "/>
<path class="st6" d="M59.3,49.93h6.51V34.76c0-0.38,0.08-0.94,0.25-1.71c0.17-0.76,0.51-1.52,1.02-2.28c0.5-0.76,1.24-1.44,2.2-2.03
	c0.96-0.59,2.24-0.89,3.81-0.89c0.52,0,1.06,0.05,1.6,0.14c0.5,0.09,1.02,0.2,1.54,0.34v-6.36c-0.37-0.1-0.75-0.19-1.13-0.26
	c-0.38-0.07-0.77-0.11-1.18-0.11c-1.76,0-3.34,0.43-4.69,1.28c-1.35,0.85-2.41,2.07-3.14,3.63l-0.02,0.05H65.8v-4.29H59.3V49.93z"/>
<path class="st6" d="M91.92,44.36c-1.23,0-2.35-0.23-3.33-0.69c-0.98-0.46-1.82-1.08-2.51-1.85c-0.69-0.76-1.22-1.65-1.58-2.65
	c-0.35-0.99-0.53-2.04-0.53-3.11s0.18-2.12,0.53-3.11c0.36-1,0.89-1.89,1.58-2.65c0.69-0.76,1.53-1.39,2.51-1.85
	c0.97-0.46,2.09-0.69,3.33-0.69c1.23,0,2.35,0.23,3.33,0.69c0.97,0.46,1.82,1.08,2.51,1.85c0.69,0.76,1.22,1.66,1.58,2.65
	c0.35,0.99,0.54,2.04,0.54,3.11s-0.18,2.12-0.54,3.11c-0.35,0.99-0.89,1.89-1.58,2.65c-0.69,0.76-1.54,1.38-2.51,1.85
	C94.27,44.13,93.15,44.36,91.92,44.36 M90.31,21.79c-1.87,0-3.62,0.37-5.2,1.1c-1.58,0.73-2.95,1.75-4.07,3.03
	c-1.12,1.28-2,2.8-2.63,4.53c-0.62,1.73-0.94,3.61-0.94,5.61c0,2,0.3,3.88,0.89,5.61c0.59,1.73,1.46,3.25,2.6,4.53
	c1.14,1.28,2.52,2.29,4.12,3.03c1.6,0.73,3.45,1.1,5.51,1.1c1.87,0,3.64-0.38,5.26-1.13c1.61-0.75,2.91-1.96,3.86-3.61l0.03-0.04
	h0.25v4.46h6.18V12.87h-6.51v13.09h-0.3l-0.03-0.04c-0.33-0.45-0.76-0.91-1.27-1.38c-0.51-0.47-1.15-0.91-1.88-1.33
	c-0.73-0.41-1.59-0.75-2.54-1.02C92.67,21.93,91.56,21.79,90.31,21.79"/>
<path class="st6" d="M108.95,46.19c1.35,1.55,2.89,2.64,4.59,3.24c1.73,0.61,3.65,0.91,5.71,0.91c1.36,0,2.75-0.15,4.11-0.46
	c1.36-0.3,2.6-0.8,3.68-1.48c1.08-0.68,1.97-1.59,2.65-2.7c0.68-1.11,1.02-2.49,1.02-4.11c0-1.77-0.35-3.18-1.04-4.19
	c-0.69-1.01-1.58-1.82-2.64-2.41c-1.07-0.59-2.23-1.03-3.46-1.31c-1.34-0.31-2.48-0.58-3.49-0.83c-1.08-0.27-1.99-0.6-2.7-0.98
	c-0.73-0.4-1.11-1.04-1.11-1.92c0-1.06,0.45-1.85,1.33-2.32c0.86-0.46,1.76-0.7,2.66-0.7c2.18,0,3.95,0.93,5.25,2.77l4.32-4.01
	c-1.06-1.47-2.45-2.53-4.15-3.14c-3.02-1.09-6.2-1.22-9.2-0.43c-1.28,0.34-2.43,0.87-3.43,1.59c-0.99,0.71-1.79,1.64-2.4,2.75
	c-0.6,1.11-0.91,2.44-0.91,3.94c0,1.73,0.35,3.1,1.04,4.08c0.69,0.98,1.58,1.75,2.64,2.3c1.07,0.55,2.23,0.95,3.46,1.2
	c1.25,0.25,2.42,0.52,3.49,0.8c1.08,0.29,1.99,0.67,2.7,1.13c0.73,0.47,1.1,1.21,1.1,2.2c0,0.55-0.15,1.04-0.43,1.46
	c-0.29,0.41-0.66,0.76-1.11,1.03c-0.45,0.27-0.95,0.47-1.48,0.58c-0.52,0.12-1.04,0.17-1.52,0.17c-1.42,0-2.65-0.32-3.64-0.96
	c-0.96-0.62-1.88-1.42-2.72-2.38L108.95,46.19z"/>
<path class="st6" d="M213.54,26.66c-3.99,0-6.42,1.91-7.4,5.89h14.62C220.3,28.68,217.76,26.66,213.54,26.66 M205.73,36.66
	c0.29,5.03,3.12,7.97,7.57,7.97c3.93,0,6.41-1.56,8.38-5.26l5.14,2.89c-3.01,5.37-7.4,7.98-13.41,7.98
	c-8.55,0-14.04-5.67-14.04-14.39c0-8.32,5.72-14.39,14.04-14.39c8.61,0,13.7,5.14,13.7,14.04v1.16H205.73z"/>
<path class="st6" d="M267.06,37.46c0,5.03,1.85,7.28,6.81,7.28c4.97,0,6.82-2.25,6.82-7.28V22.38h6.12v13.23
	c0,10-3.7,14.62-12.88,14.62c-9.36,0-13-4.57-13-14.62V22.38h6.13V37.46z"/>
<path class="st6" d="M303.77,26.95c-4.56,0-8.26,3.87-8.26,8.9c0,5.03,3.7,8.9,8.26,8.9c4.51,0,8.27-3.87,8.27-8.9
	C312.04,30.82,308.33,26.95,303.77,26.95 M293.37,25.62c2.78-2.71,6.47-4.16,10.34-4.16c3.99,0,7.63,1.44,10.46,4.22
	c2.78,2.71,4.34,6.24,4.34,10.11c0,3.98-1.5,7.51-4.28,10.17c-2.89,2.77-6.53,4.28-10.52,4.28c-3.87,0-7.57-1.51-10.34-4.22
	c-2.83-2.77-4.33-6.3-4.33-10.22C289.04,31.92,290.54,28.34,293.37,25.62"/>
<path class="st6" d="M255.37,44.83c2.06-2.49,3.16-5.57,3.16-8.99c0-3.88-1.56-7.42-4.34-10.14c-2.84-2.78-6.49-4.23-10.49-4.23
	c-3.88,0-7.59,1.45-10.37,4.17c-2.84,2.72-4.34,6.32-4.34,10.2c0,3.94,1.5,7.47,4.34,10.25c2.78,2.72,6.49,4.23,10.37,4.23h0h16.56
	v-5.5H255.37z M235.47,35.9c0-5.04,3.71-8.92,8.29-8.92c4.58,0,8.28,3.88,8.28,8.92c0,5.04-3.77,8.92-8.28,8.92
	C239.18,44.83,235.47,40.95,235.47,35.9"/>
<rect x="243.7" y="53.26" class="st6" width="16.56" height="5.5"/>
<rect class="st7" width="598.35" height="71.62"/>
</svg>
