<?xml version="1.0" standalone="no"?>
<!DOCTYPE svg PUBLIC "-//W3C//DTD SVG 20010904//EN"
 "http://www.w3.org/TR/2001/REC-SVG-20010904/DTD/svg10.dtd">
<svg version="1.0" xmlns="http://www.w3.org/2000/svg"
 width="700.000000pt" height="700.000000pt" viewBox="0 0 700.000000 700.000000"
 preserveAspectRatio="xMidYMid meet">
<metadata>
Created by potrace 1.11, written by Peter Selinger 2001-2013
</metadata>
<g transform="translate(0.000000,700.000000) scale(0.100000,-0.100000)"
fill="#000000" stroke="none">
<path d="M240 6776 c-99 -28 -179 -91 -216 -171 l-24 -50 0 -3021 0 -3020 26
-52 c31 -62 89 -116 163 -151 l56 -26 3195 -2 c2230 -2 3207 0 3235 8 113 30
200 97 234 182 l21 52 -2 3025 -3 3025 -22 41 c-40 75 -121 135 -218 160 -71
19 -6376 19 -6445 0z m1558 -1886 c96 -148 189 -194 410 -199 l102 -3 0 141 0
141 350 0 350 0 0 -350 0 -351 -442 2 c-530 2 -613 11 -785 89 -95 43 -198
151 -253 265 -24 50 -47 98 -53 109 -6 13 -5 23 5 32 16 16 262 202 265 200 1
-1 24 -35 51 -76z m2962 -270 l0 -350 -350 0 -350 0 0 350 0 350 350 0 350 0
0 -350z m-3015 -1807 c159 -106 314 -191 515 -281 95 -43 327 -115 465 -146
107 -23 277 -49 415 -62 161 -16 754 -8 830 11 8 2 38 6 65 10 236 29 485 96
715 193 101 43 294 142 368 188 29 19 56 34 61 34 5 0 11 3 13 8 2 4 37 29 78
56 41 27 117 80 167 117 l93 69 140 -175 140 -174 -53 -45 c-28 -25 -65 -57
-82 -71 -54 -46 -248 -182 -343 -239 -385 -235 -877 -405 -1307 -452 -33 -3
-69 -8 -80 -10 -125 -25 -754 -25 -893 0 -9 2 -44 7 -77 11 -32 4 -67 8 -76
10 -9 2 -32 6 -50 9 -387 62 -835 233 -1194 457 -165 103 -443 301 -459 328
-3 4 7 21 22 38 15 17 78 94 140 172 l112 141 93 -69 c50 -37 133 -95 182
-128z"/>
</g>
</svg>
