<?xml version="1.0" standalone="no"?>
<!DOCTYPE svg PUBLIC "-//W3C//DTD SVG 20010904//EN"
 "http://www.w3.org/TR/2001/REC-SVG-20010904/DTD/svg10.dtd">
<svg version="1.0" xmlns="http://www.w3.org/2000/svg"
 width="700.000000pt" height="700.000000pt" viewBox="0 0 700.000000 700.000000"
 preserveAspectRatio="xMidYMid meet">
<metadata>
Created by potrace 1.11, written by Peter Selinger 2001-2013
</metadata>
<g transform="translate(0.000000,700.000000) scale(0.100000,-0.100000)"
fill="#000000" stroke="none">
<path d="M4213 5989 c-64 -31 -103 -91 -108 -164 -2 -24 82 -336 136 -507 18
-57 62 -79 125 -64 46 10 64 48 79 166 12 86 16 115 20 130 2 8 7 42 11 75 3
33 8 63 10 66 2 4 6 42 10 86 5 68 3 85 -14 119 -52 102 -169 143 -269 93z"/>
<path d="M4865 5891 c-47 -21 -89 -67 -104 -113 -11 -37 -84 -462 -84 -493 1
-46 4 -55 30 -80 55 -50 117 -29 175 59 24 35 90 133 147 217 113 166 129 206
111 278 -31 122 -161 184 -275 132z"/>
<path d="M3443 5879 c-27 -10 -61 -57 -108 -149 -21 -41 -50 -97 -65 -125 -15
-27 -58 -108 -95 -180 -37 -71 -80 -152 -95 -180 -15 -27 -58 -108 -95 -180
-37 -71 -82 -157 -100 -190 -18 -33 -71 -134 -118 -225 -47 -91 -100 -192
-119 -224 -36 -65 -33 -63 -158 -85 -59 -10 -266 -48 -315 -57 -49 -10 -192
-37 -215 -41 -14 -2 -59 -10 -100 -18 -41 -8 -87 -17 -102 -20 -16 -3 -40 -7
-55 -10 -16 -3 -53 -10 -83 -15 -30 -6 -64 -12 -75 -14 -49 -10 -202 -38 -225
-42 -14 -3 -70 -13 -125 -24 -55 -10 -118 -22 -140 -26 -59 -11 -67 -12 -92
-19 -30 -7 -63 -60 -63 -100 0 -31 20 -67 53 -97 10 -9 96 -90 189 -180 94
-90 188 -179 208 -198 47 -44 346 -329 414 -394 28 -26 114 -107 190 -180 76
-72 145 -137 153 -145 16 -16 14 -34 -18 -186 -11 -55 -22 -109 -24 -120 -2
-11 -15 -76 -30 -145 -15 -69 -29 -136 -32 -150 -2 -14 -20 -99 -39 -189 -19
-90 -37 -178 -39 -195 -3 -17 -8 -38 -10 -46 -4 -14 -110 -520 -121 -580 -12
-65 -8 -92 21 -126 36 -42 97 -42 184 1 59 29 270 128 421 198 30 14 98 45
150 70 52 24 120 56 150 69 30 14 96 45 145 68 192 90 256 120 430 200 99 46
184 87 189 91 9 8 38 -4 176 -69 47 -22 119 -56 160 -75 194 -90 384 -179 475
-222 55 -26 125 -59 155 -72 30 -14 102 -48 159 -74 57 -27 105 -49 106 -49 2
0 72 -33 156 -73 85 -41 169 -79 187 -87 41 -16 99 -7 124 20 41 44 40 63 -26
375 -7 29 -26 126 -32 155 -3 14 -19 88 -35 165 -17 77 -43 205 -59 285 -16
80 -45 222 -65 315 -41 190 -37 171 -66 319 l-22 109 90 86 c49 47 163 156
253 241 90 85 216 205 279 266 64 61 132 125 151 143 66 62 364 346 408 390
43 42 44 45 39 94 -5 62 -36 91 -106 103 -25 4 -50 8 -56 10 -5 1 -37 7 -70
13 -33 6 -71 13 -85 16 -14 3 -50 9 -80 15 -30 6 -66 12 -80 15 -14 3 -88 16
-165 30 -77 14 -210 39 -295 55 -85 16 -168 32 -185 35 -16 3 -40 7 -53 9 -12
3 -86 17 -165 32 -163 30 -173 32 -207 39 -14 3 -54 10 -90 16 -36 5 -70 15
-76 22 -7 7 -35 57 -64 112 -168 321 -203 386 -342 650 -84 158 -136 257 -278
530 -84 161 -103 191 -132 206 -26 14 -97 19 -125 8z m152 -1144 c43 -82 97
-187 121 -232 98 -185 134 -253 189 -358 90 -172 127 -239 134 -247 3 -3 22
-9 41 -12 19 -3 44 -7 55 -9 31 -7 98 -19 125 -23 14 -3 70 -13 125 -23 55
-11 116 -22 135 -26 19 -3 82 -15 140 -26 58 -11 120 -22 139 -25 18 -3 43 -8
55 -10 11 -3 75 -14 140 -26 l119 -22 -110 -105 c-60 -58 -185 -178 -278 -266
-256 -244 -265 -252 -346 -331 l-77 -75 18 -82 c15 -69 63 -296 76 -361 16
-82 49 -240 69 -336 13 -63 26 -126 29 -140 2 -14 9 -45 15 -70 14 -65 20
-100 16 -100 -2 0 -45 20 -97 44 -163 76 -409 191 -568 264 -30 13 -115 53
-189 89 -74 35 -145 66 -158 69 -13 4 -39 -2 -61 -11 -20 -10 -97 -47 -171
-82 -73 -34 -135 -63 -136 -63 -2 0 -69 -31 -150 -70 -81 -39 -149 -70 -151
-70 -2 0 -56 -25 -121 -56 -134 -64 -242 -114 -247 -114 -1 0 3 28 10 63 7 34
15 73 18 87 19 97 31 155 62 305 20 94 38 181 41 195 2 14 9 45 14 70 6 25 13
56 15 70 6 33 34 169 40 195 3 11 7 34 10 50 3 17 7 36 9 42 4 11 -28 45 -205
213 -222 212 -383 365 -420 400 -161 150 -187 180 -162 180 13 0 114 18 302
54 102 19 212 40 245 45 33 6 71 13 85 16 14 3 50 9 80 15 30 6 66 12 80 15
53 11 197 37 232 42 21 3 39 12 42 22 3 9 34 70 69 136 35 66 100 190 145 275
44 85 101 193 126 240 25 47 76 144 113 217 51 100 71 129 79 120 6 -7 46 -79
89 -162z"/>
<path d="M5403 5509 c-45 -22 -56 -35 -239 -289 -109 -152 -118 -169 -118
-208 1 -53 25 -80 77 -89 38 -6 70 9 302 143 22 13 76 44 120 70 92 53 119 83
137 148 23 88 -22 185 -105 225 -55 27 -120 27 -174 0z"/>
<path d="M5770 4943 c-46 -16 -413 -211 -462 -245 -53 -36 -53 -119 -1 -154
23 -14 46 -17 123 -16 52 2 114 4 138 6 24 2 93 7 155 11 140 8 178 18 223 57
49 44 67 83 67 150 -1 80 -35 137 -105 172 -48 24 -103 32 -138 19z"/>
</g>
</svg>
